<svg xmlns="http://www.w3.org/2000/svg" xmlns:xlink="http://www.w3.org/1999/xlink" width="1366" zoomAndPan="magnify" viewBox="0 0 1024.5 576" height="768" preserveAspectRatio="xMidYMid meet" version="1.0"><defs><g/><clipPath id="2ba824f18d"><path d="M 0 0.140625 L 1024 0.140625 L 1024 575.859375 L 0 575.859375 Z M 0 0.140625 " clip-rule="nonzero"/></clipPath><clipPath id="bba78a782b"><path d="M 426.886719 150 L 473.046875 150 L 473.046875 174.875 L 426.886719 174.875 Z M 426.886719 150 " clip-rule="nonzero"/></clipPath><clipPath id="2ac627da76"><path d="M 430 145.5 L 470 145.5 L 470 173 L 430 173 Z M 430 145.5 " clip-rule="nonzero"/></clipPath><clipPath id="65e406e7bb"><path d="M 433 241.417969 L 609.128906 241.417969 L 609.128906 471.667969 L 433 471.667969 Z M 433 241.417969 " clip-rule="nonzero"/></clipPath></defs><g clip-path="url(#2ba824f18d)"><path fill="#ffffff" d="M 0 0.140625 L 1024.5 0.140625 L 1024.5 583.640625 L 0 583.640625 Z M 0 0.140625 " fill-opacity="1" fill-rule="nonzero"/><path fill="#ffffff" d="M 0 0.140625 L 1024.5 0.140625 L 1024.5 576.140625 L 0 576.140625 Z M 0 0.140625 " fill-opacity="1" fill-rule="nonzero"/><path fill="#374151" d="M 0 0.140625 L 1024.5 0.140625 L 1024.5 576.140625 L 0 576.140625 Z M 0 0.140625 " fill-opacity="1" fill-rule="nonzero"/></g><g clip-path="url(#bba78a782b)"><path fill="#ffffff" d="M 470.285156 150.574219 L 470.273438 150.652344 L 468.554688 169.347656 L 468.480469 170.199219 L 467.613281 170.089844 L 466.964844 170.007812 C 465.667969 169.84375 464.394531 169.753906 463.179688 169.753906 C 457.308594 169.753906 453.738281 171.699219 452.132812 172.859375 L 449.96875 173.023438 L 449.960938 173.023438 L 447.796875 172.859375 C 446.191406 171.699219 442.621094 169.753906 436.75 169.753906 C 435.535156 169.753906 434.261719 169.84375 432.964844 170.007812 L 432.316406 170.089844 L 431.449219 170.199219 L 431.375 169.347656 L 429.65625 150.652344 L 429.648438 150.574219 L 426.90625 150.574219 L 429.699219 171.75 L 448.121094 174.875 L 451.808594 174.875 L 470.230469 171.75 L 473.023438 150.574219 L 470.285156 150.574219 " fill-opacity="1" fill-rule="nonzero"/></g><g clip-path="url(#2ac627da76)"><path fill="#ffffff" d="M 432.777344 149.449219 L 432.882812 150.523438 L 434.289062 165.070312 L 434.777344 165.140625 C 434.863281 165.148438 441.664062 166.175781 446.253906 169.585938 C 444.050781 168.578125 440.933594 167.695312 436.789062 167.695312 C 435.707031 167.695312 434.5625 167.757812 433.34375 167.890625 L 431.757812 150.574219 L 431.664062 149.550781 C 432.050781 149.507812 432.417969 149.476562 432.777344 149.449219 Z M 444.179688 149.40625 C 447.230469 150.984375 448.84375 152.800781 449.316406 153.386719 L 449.316406 170.730469 C 445.355469 166.015625 437.507812 164.363281 435.449219 164 L 434.132812 150.398438 L 433.78125 146.773438 C 438.296875 146.988281 441.710938 148.121094 444.179688 149.40625 Z M 450.617188 153.386719 C 451.085938 152.800781 452.699219 150.984375 455.75 149.40625 C 458.21875 148.121094 461.632812 146.988281 466.148438 146.773438 L 465.796875 150.398438 L 464.480469 164 C 462.421875 164.363281 454.574219 166.015625 450.617188 170.730469 Z M 467.046875 150.523438 L 467.152344 149.449219 C 467.511719 149.476562 467.882812 149.507812 468.269531 149.550781 L 468.175781 150.574219 L 466.585938 167.890625 C 465.367188 167.757812 464.222656 167.695312 463.140625 167.695312 C 459 167.695312 455.878906 168.578125 453.675781 169.585938 C 458.265625 166.175781 465.066406 165.148438 465.152344 165.140625 L 465.640625 165.070312 Z M 432.207031 169.277344 L 432.859375 169.195312 C 437.308594 168.617188 440.789062 169.074219 443.394531 169.851562 C 443.648438 169.929688 443.894531 170.007812 444.132812 170.089844 C 444.375 170.171875 444.601562 170.257812 444.824219 170.34375 C 445.046875 170.429688 445.261719 170.515625 445.46875 170.605469 C 446.492188 171.054688 447.316406 171.53125 447.941406 171.953125 C 448.066406 172.039062 448.1875 172.121094 448.292969 172.199219 L 451.636719 172.199219 C 451.742188 172.121094 451.863281 172.039062 451.988281 171.953125 C 452.613281 171.53125 453.4375 171.054688 454.460938 170.605469 C 454.671875 170.515625 454.882812 170.429688 455.105469 170.34375 C 455.328125 170.257812 455.554688 170.171875 455.796875 170.089844 C 456.035156 170.007812 456.28125 169.929688 456.539062 169.851562 C 459.140625 169.074219 462.621094 168.617188 467.074219 169.195312 L 467.722656 169.277344 L 469.441406 150.574219 L 469.632812 148.457031 L 469.027344 148.390625 C 468.414062 148.320312 467.828125 148.261719 467.269531 148.222656 L 467.535156 145.496094 L 466.824219 145.515625 C 460.640625 145.671875 456.355469 147.425781 453.578125 149.1875 C 451.757812 150.34375 450.589844 151.5 449.96875 152.210938 L 449.960938 152.210938 C 449.34375 151.5 448.171875 150.34375 446.351562 149.1875 C 443.574219 147.425781 439.289062 145.671875 433.105469 145.515625 L 432.394531 145.496094 L 432.660156 148.222656 C 432.101562 148.261719 431.515625 148.320312 430.90625 148.390625 L 430.296875 148.457031 L 430.492188 150.574219 L 432.207031 169.277344 " fill-opacity="1" fill-rule="nonzero"/></g><g fill="#ffffff" fill-opacity="1"><g transform="translate(482.46965, 167.68624)"><g><path d="M 1.640625 -0.109375 C 2.179688 -0.847656 2.453125 -1.832031 2.453125 -3.0625 L 2.453125 -13.3125 C 2.453125 -14.550781 2.179688 -15.535156 1.640625 -16.265625 L 1.640625 -16.390625 L 8.28125 -16.390625 C 10.125 -16.390625 11.664062 -16.015625 12.90625 -15.265625 C 14.144531 -14.523438 14.765625 -13.300781 14.765625 -11.59375 C 14.765625 -10.476562 14.472656 -9.550781 13.890625 -8.8125 C 13.316406 -8.070312 12.566406 -7.53125 11.640625 -7.1875 C 10.710938 -6.84375 9.726562 -6.671875 8.6875 -6.671875 C 7.9375 -6.671875 7.222656 -6.800781 6.546875 -7.0625 L 6.546875 -7.4375 C 7.003906 -7.332031 7.472656 -7.28125 7.953125 -7.28125 C 9.015625 -7.28125 9.832031 -7.6875 10.40625 -8.5 C 10.976562 -9.320312 11.265625 -10.351562 11.265625 -11.59375 C 11.265625 -12.757812 10.96875 -13.753906 10.375 -14.578125 C 9.789062 -15.410156 8.960938 -15.828125 7.890625 -15.828125 C 7.171875 -15.828125 6.492188 -15.707031 5.859375 -15.46875 L 5.859375 -3.0625 C 5.859375 -1.832031 6.128906 -0.847656 6.671875 -0.109375 L 6.671875 0 L 1.640625 0 Z M 1.640625 -0.109375 "/></g></g></g><g fill="#ffffff" fill-opacity="1"><g transform="translate(497.183104, 167.68624)"><g><path d="M 1.359375 -0.109375 C 1.554688 -0.410156 1.710938 -0.789062 1.828125 -1.25 C 1.953125 -1.707031 2.015625 -2.210938 2.015625 -2.765625 L 2.015625 -13.4375 C 2.015625 -14.070312 1.941406 -14.59375 1.796875 -15 C 1.660156 -15.40625 1.453125 -15.742188 1.171875 -16.015625 L 1.171875 -16.125 L 5.0625 -17.4375 L 5.171875 -17.4375 L 5.171875 -2.765625 C 5.171875 -2.210938 5.226562 -1.707031 5.34375 -1.25 C 5.46875 -0.789062 5.628906 -0.410156 5.828125 -0.109375 L 5.828125 0 L 1.359375 0 Z M 1.359375 -0.109375 "/></g></g></g><g fill="#ffffff" fill-opacity="1"><g transform="translate(503.779436, 167.68624)"><g><path d="M 11.640625 -3.953125 C 11.367188 -2.660156 10.769531 -1.628906 9.84375 -0.859375 C 8.925781 -0.0859375 7.804688 0.296875 6.484375 0.296875 C 5.441406 0.296875 4.5 0.0664062 3.65625 -0.390625 C 2.8125 -0.847656 2.140625 -1.519531 1.640625 -2.40625 C 1.148438 -3.300781 0.90625 -4.359375 0.90625 -5.578125 C 0.90625 -6.835938 1.171875 -7.953125 1.703125 -8.921875 C 2.234375 -9.898438 2.941406 -10.65625 3.828125 -11.1875 C 4.722656 -11.726562 5.691406 -12 6.734375 -12 C 7.703125 -12 8.546875 -11.796875 9.265625 -11.390625 C 9.984375 -10.992188 10.53125 -10.453125 10.90625 -9.765625 C 11.28125 -9.078125 11.46875 -8.332031 11.46875 -7.53125 L 3.46875 -7.53125 C 3.507812 -6.363281 3.738281 -5.363281 4.15625 -4.53125 C 4.582031 -3.695312 5.132812 -3.066406 5.8125 -2.640625 C 6.488281 -2.222656 7.234375 -2.015625 8.046875 -2.015625 C 8.816406 -2.015625 9.492188 -2.1875 10.078125 -2.53125 C 10.660156 -2.875 11.101562 -3.347656 11.40625 -3.953125 Z M 5.859375 -11.328125 C 5.148438 -11.328125 4.578125 -11.050781 4.140625 -10.5 C 3.703125 -9.945312 3.476562 -9.140625 3.46875 -8.078125 L 8.359375 -8.078125 C 8.265625 -9.078125 8 -9.867188 7.5625 -10.453125 C 7.132812 -11.035156 6.566406 -11.328125 5.859375 -11.328125 Z M 5.859375 -11.328125 "/></g></g></g><g fill="#ffffff" fill-opacity="1"><g transform="translate(515.615647, 167.68624)"><g><path d="M 6.875 0.296875 C 4.925781 0.296875 3.226562 -0.164062 1.78125 -1.09375 L 1.78125 -13.4375 C 1.78125 -14.070312 1.707031 -14.59375 1.5625 -15 C 1.425781 -15.40625 1.21875 -15.742188 0.9375 -16.015625 L 0.9375 -16.125 L 4.828125 -17.4375 L 4.9375 -17.4375 L 4.9375 -9.90625 L 5.0625 -9.90625 C 5.4375 -10.5625 5.925781 -11.070312 6.53125 -11.4375 C 7.132812 -11.8125 7.835938 -12 8.640625 -12 C 9.554688 -12 10.363281 -11.757812 11.0625 -11.28125 C 11.769531 -10.8125 12.3125 -10.132812 12.6875 -9.25 C 13.070312 -8.375 13.265625 -7.359375 13.265625 -6.203125 C 13.265625 -5.046875 13 -3.972656 12.46875 -2.984375 C 11.945312 -1.992188 11.203125 -1.195312 10.234375 -0.59375 C 9.265625 0 8.144531 0.296875 6.875 0.296875 Z M 7 -0.234375 C 7.914062 -0.234375 8.625 -0.710938 9.125 -1.671875 C 9.625 -2.628906 9.875 -3.929688 9.875 -5.578125 C 9.875 -7.085938 9.632812 -8.265625 9.15625 -9.109375 C 8.6875 -9.953125 8.03125 -10.375 7.1875 -10.375 C 6.570312 -10.375 6.0625 -10.1875 5.65625 -9.8125 C 5.257812 -9.445312 5.019531 -8.976562 4.9375 -8.40625 L 4.9375 -1.890625 C 5.019531 -1.441406 5.238281 -1.050781 5.59375 -0.71875 C 5.945312 -0.394531 6.414062 -0.234375 7 -0.234375 Z M 7 -0.234375 "/></g></g></g><g fill="#ffffff" fill-opacity="1"><g transform="translate(529.323244, 167.68624)"><g><path d="M 1.640625 -0.109375 C 2.179688 -0.847656 2.453125 -1.832031 2.453125 -3.0625 L 2.453125 -13.3125 C 2.453125 -14.550781 2.179688 -15.535156 1.640625 -16.265625 L 1.640625 -16.390625 L 8.59375 -16.390625 C 10.25 -16.390625 11.617188 -16.078125 12.703125 -15.453125 C 13.796875 -14.828125 14.34375 -13.84375 14.34375 -12.5 C 14.34375 -11.46875 13.984375 -10.640625 13.265625 -10.015625 C 12.546875 -9.390625 11.691406 -9 10.703125 -8.84375 L 10.703125 -8.75 C 11.878906 -8.613281 12.882812 -8.171875 13.71875 -7.421875 C 14.5625 -6.679688 14.984375 -5.707031 14.984375 -4.5 C 14.984375 -2.9375 14.363281 -1.796875 13.125 -1.078125 C 11.894531 -0.359375 10.382812 0 8.59375 0 L 1.640625 0 Z M 7.5625 -9.0625 C 8.59375 -9.0625 9.394531 -9.375 9.96875 -10 C 10.550781 -10.625 10.84375 -11.441406 10.84375 -12.453125 C 10.84375 -13.429688 10.546875 -14.238281 9.953125 -14.875 C 9.367188 -15.507812 8.578125 -15.828125 7.578125 -15.828125 C 7.003906 -15.828125 6.429688 -15.71875 5.859375 -15.5 L 5.859375 -9.0625 Z M 7.75 -0.5625 C 8.851562 -0.5625 9.738281 -0.914062 10.40625 -1.625 C 11.082031 -2.332031 11.421875 -3.289062 11.421875 -4.5 C 11.421875 -5.738281 11.078125 -6.707031 10.390625 -7.40625 C 9.703125 -8.113281 8.78125 -8.46875 7.625 -8.46875 L 5.859375 -8.46875 L 5.859375 -0.984375 C 6.367188 -0.703125 7 -0.5625 7.75 -0.5625 Z M 7.75 -0.5625 "/></g></g></g><g fill="#ffffff" fill-opacity="1"><g transform="translate(544.808655, 167.68624)"><g><path d="M 6.8125 0.296875 C 5.65625 0.296875 4.625 0.0351562 3.71875 -0.484375 C 2.8125 -1.015625 2.101562 -1.742188 1.59375 -2.671875 C 1.09375 -3.609375 0.84375 -4.671875 0.84375 -5.859375 C 0.84375 -7.035156 1.09375 -8.085938 1.59375 -9.015625 C 2.101562 -9.953125 2.8125 -10.679688 3.71875 -11.203125 C 4.625 -11.734375 5.65625 -12 6.8125 -12 C 7.945312 -12 8.96875 -11.734375 9.875 -11.203125 C 10.78125 -10.679688 11.484375 -9.953125 11.984375 -9.015625 C 12.492188 -8.085938 12.75 -7.035156 12.75 -5.859375 C 12.75 -4.671875 12.492188 -3.609375 11.984375 -2.671875 C 11.484375 -1.742188 10.78125 -1.015625 9.875 -0.484375 C 8.96875 0.0351562 7.945312 0.296875 6.8125 0.296875 Z M 6.8125 -0.234375 C 7.664062 -0.234375 8.300781 -0.742188 8.71875 -1.765625 C 9.144531 -2.785156 9.359375 -4.148438 9.359375 -5.859375 C 9.359375 -7.554688 9.144531 -8.914062 8.71875 -9.9375 C 8.300781 -10.957031 7.664062 -11.46875 6.8125 -11.46875 C 5.957031 -11.46875 5.3125 -10.957031 4.875 -9.9375 C 4.445312 -8.914062 4.234375 -7.554688 4.234375 -5.859375 C 4.234375 -4.148438 4.445312 -2.785156 4.875 -1.765625 C 5.3125 -0.742188 5.957031 -0.234375 6.8125 -0.234375 Z M 6.8125 -0.234375 "/></g></g></g><g fill="#ffffff" fill-opacity="1"><g transform="translate(557.931429, 167.68624)"><g><path d="M 6.8125 0.296875 C 5.65625 0.296875 4.625 0.0351562 3.71875 -0.484375 C 2.8125 -1.015625 2.101562 -1.742188 1.59375 -2.671875 C 1.09375 -3.609375 0.84375 -4.671875 0.84375 -5.859375 C 0.84375 -7.035156 1.09375 -8.085938 1.59375 -9.015625 C 2.101562 -9.953125 2.8125 -10.679688 3.71875 -11.203125 C 4.625 -11.734375 5.65625 -12 6.8125 -12 C 7.945312 -12 8.96875 -11.734375 9.875 -11.203125 C 10.78125 -10.679688 11.484375 -9.953125 11.984375 -9.015625 C 12.492188 -8.085938 12.75 -7.035156 12.75 -5.859375 C 12.75 -4.671875 12.492188 -3.609375 11.984375 -2.671875 C 11.484375 -1.742188 10.78125 -1.015625 9.875 -0.484375 C 8.96875 0.0351562 7.945312 0.296875 6.8125 0.296875 Z M 6.8125 -0.234375 C 7.664062 -0.234375 8.300781 -0.742188 8.71875 -1.765625 C 9.144531 -2.785156 9.359375 -4.148438 9.359375 -5.859375 C 9.359375 -7.554688 9.144531 -8.914062 8.71875 -9.9375 C 8.300781 -10.957031 7.664062 -11.46875 6.8125 -11.46875 C 5.957031 -11.46875 5.3125 -10.957031 4.875 -9.9375 C 4.445312 -8.914062 4.234375 -7.554688 4.234375 -5.859375 C 4.234375 -4.148438 4.445312 -2.785156 4.875 -1.765625 C 5.3125 -0.742188 5.957031 -0.234375 6.8125 -0.234375 Z M 6.8125 -0.234375 "/></g></g></g><g fill="#ffffff" fill-opacity="1"><g transform="translate(571.054204, 167.68624)"><g><path d="M 1.359375 -0.109375 C 1.554688 -0.410156 1.710938 -0.789062 1.828125 -1.25 C 1.953125 -1.707031 2.015625 -2.210938 2.015625 -2.765625 L 2.015625 -13.4375 C 2.015625 -14.070312 1.941406 -14.59375 1.796875 -15 C 1.660156 -15.40625 1.453125 -15.742188 1.171875 -16.015625 L 1.171875 -16.125 L 5.0625 -17.4375 L 5.171875 -17.4375 L 5.171875 -2.765625 C 5.171875 -2.210938 5.226562 -1.707031 5.34375 -1.25 C 5.46875 -0.789062 5.628906 -0.410156 5.828125 -0.109375 L 5.828125 0 L 1.359375 0 Z M 11.71875 0.1875 C 10.988281 0.1875 10.382812 0.0546875 9.90625 -0.203125 C 9.4375 -0.472656 8.984375 -0.910156 8.546875 -1.515625 L 5.640625 -5.484375 L 5.640625 -5.59375 L 8.515625 -8.890625 C 9.128906 -9.597656 9.4375 -10.203125 9.4375 -10.703125 C 9.4375 -11.054688 9.300781 -11.351562 9.03125 -11.59375 L 9.03125 -11.703125 L 12.609375 -11.703125 L 12.609375 -11.59375 C 11.960938 -11.28125 11.398438 -10.941406 10.921875 -10.578125 C 10.441406 -10.222656 9.929688 -9.75 9.390625 -9.15625 L 7.984375 -7.625 L 12.421875 -1.640625 C 12.953125 -0.921875 13.351562 -0.515625 13.625 -0.421875 L 13.625 -0.25 C 13.375 -0.125 13.078125 -0.0195312 12.734375 0.0625 C 12.390625 0.144531 12.050781 0.1875 11.71875 0.1875 Z M 11.71875 0.1875 "/></g></g></g><g clip-path="url(#65e406e7bb)"><path fill="#ffffff" d="M 442.378906 455.371094 L 442.382812 455.371094 L 442.585938 455.367188 L 443.753906 455.363281 L 444.835938 455.359375 C 455.285156 455.308594 460.484375 455.292969 476.1875 455.539062 L 475.851562 455.851562 C 475.953125 453.824219 476.671875 450.761719 477.574219 446.898438 C 479.1875 440.003906 481.417969 430.445312 481.980469 419.300781 C 482.082031 417.3125 482.128906 415.273438 482.109375 413.191406 C 482.097656 412.167969 482.082031 411.136719 482.0625 410.105469 C 482.042969 409.078125 482.027344 408.042969 482.015625 407.019531 C 481.9375 398.351562 482.476562 389.929688 489.472656 386.570312 L 489.476562 386.570312 C 489.578125 386.523438 489.679688 386.539062 489.695312 386.539062 C 489.941406 386.566406 490.761719 386.84375 491.851562 387.214844 C 496.347656 388.738281 506.117188 392.023438 509.402344 390.449219 C 509.40625 390.445312 509.421875 390.4375 509.429688 390.433594 C 509.761719 390.269531 509.53125 390.273438 509.609375 390.433594 C 509.613281 390.4375 509.613281 390.4375 509.613281 390.441406 L 509.882812 390.253906 L 509.613281 390.441406 C 509.277344 389.953125 505.765625 389.398438 502.460938 388.910156 C 500.390625 388.601562 498.40625 388.320312 497.976562 388.03125 L 498.164062 388.089844 L 497.976562 388.03125 C 497.929688 388.003906 497.855469 387.945312 497.808594 387.851562 C 497.648438 387.523438 497.972656 387.335938 498.03125 387.308594 C 498.089844 387.28125 498.15625 387.257812 498.222656 387.238281 C 500.074219 386.710938 511.878906 389.046875 514.542969 389.675781 C 521.257812 391.265625 526.84375 394.34375 528.054688 395.320312 C 529.347656 396.367188 530.457031 396.574219 531.578125 396.777344 C 532.378906 396.925781 533.207031 397.074219 534.0625 397.558594 C 534.214844 397.644531 534.273438 397.839844 534.191406 398 C 525.316406 414.847656 530.496094 417.855469 530.402344 417.796875 L 530.398438 417.792969 C 530.398438 417.792969 530.414062 417.804688 530.410156 417.800781 L 530.398438 417.792969 C 532.464844 418.992188 533.875 418.183594 534.671875 416.816406 C 534.945312 416.34375 535.144531 415.804688 535.261719 415.257812 C 535.632812 413.511719 535.886719 410.878906 534.867188 410.453125 C 533.71875 409.96875 531.765625 411.183594 531.027344 411.964844 C 530.292969 412.738281 530.519531 415.257812 531.847656 416.511719 C 532.292969 416.933594 532.851562 417.183594 533.515625 417.152344 C 536.941406 416.992188 539.476562 415.902344 539.929688 410.488281 C 540.132812 408.101562 540.535156 406.359375 540.84375 405.027344 C 541.039062 404.1875 541.191406 403.53125 541.238281 402.976562 C 541.371094 401.355469 540.671875 400.542969 536.085938 398.582031 L 536.175781 398.605469 C 535.773438 398.558594 535.097656 400.078125 533.996094 402.910156 C 533.066406 405.304688 531.925781 408.246094 530.433594 410.488281 C 529.15625 412.40625 525.84375 414.082031 524.839844 414.039062 C 512.882812 413.527344 506.523438 413.195312 506.535156 413.195312 L 506.542969 413.195312 C 504.882812 413.15625 502.300781 411.617188 500.066406 410.296875 C 498.921875 409.621094 497.84375 408.984375 496.96875 408.574219 C 496.660156 408.429688 496.347656 408.289062 495.996094 408.125 C 495.640625 407.964844 495.199219 407.761719 494.824219 407.585938 C 493.253906 406.851562 491.539062 405.980469 490.894531 405.160156 C 489.875 403.855469 489.234375 402.828125 489.8125 402.375 C 489.859375 402.339844 489.910156 402.3125 489.957031 402.292969 L 490.082031 402.597656 L 489.957031 402.292969 C 490.429688 402.097656 491.359375 402.464844 491.996094 402.695312 C 492.109375 402.738281 492.097656 402.734375 492.210938 402.773438 L 491.972656 403.386719 C 487.597656 401.554688 486.972656 400.296875 486.960938 397.78125 C 486.960938 397.671875 487.015625 397.566406 487.109375 397.507812 C 487.199219 397.445312 487.316406 397.433594 487.421875 397.476562 L 491.390625 399.164062 C 491.554688 399.238281 491.632812 399.425781 491.566406 399.59375 C 491.496094 399.757812 491.308594 399.839844 491.140625 399.773438 C 487.269531 398.269531 486.363281 397.085938 486.3125 397.015625 C 484.867188 395.039062 484.957031 392.710938 485.933594 391.269531 C 486.414062 390.558594 487.1875 390.863281 487.703125 391.210938 C 488.804688 391.953125 490.019531 393.652344 490 393.628906 L 489.738281 393.828125 L 489.519531 394.074219 C 486.53125 391.394531 486.691406 389.75 486.714844 389.613281 C 487.121094 386.886719 488.304688 385.730469 488.347656 385.691406 C 488.429688 385.613281 488.542969 385.582031 488.652344 385.609375 L 488.570312 385.597656 L 488.652344 385.609375 C 488.839844 385.652344 489.179688 385.734375 489.65625 385.855469 C 490.585938 386.085938 491.925781 386.417969 493.261719 386.734375 C 495.230469 387.199219 497 387.582031 497.289062 387.550781 L 497.316406 387.546875 L 497.324219 387.878906 L 497.289062 387.550781 C 497.390625 387.539062 497.125 387.527344 497.066406 387.773438 C 497.015625 387.976562 497.179688 388.085938 497.140625 388.054688 C 494.089844 385.398438 493.121094 380.527344 491.558594 372.828125 C 491.34375 371.765625 491.125 370.671875 490.878906 369.496094 C 490.84375 369.320312 490.953125 369.148438 491.128906 369.109375 C 494.511719 368.347656 498.164062 365.871094 502.085938 361.613281 L 502.027344 361.699219 L 502.371094 360.949219 L 502.71875 360.1875 C 506.21875 352.523438 510.0625 344.179688 512.59375 342.371094 C 515.378906 340.378906 518.191406 340.039062 521.367188 339.648438 C 522.632812 339.492188 523.960938 339.328125 525.386719 339.050781 C 525.441406 339.042969 525.496094 339.042969 525.550781 339.0625 C 529.011719 340.183594 530.4375 341.367188 530.011719 342.664062 C 529.871094 343.105469 529.519531 343.480469 529.105469 343.800781 L 528.945312 343.210938 C 532.050781 343.609375 532.878906 343.757812 532.710938 346.324219 L 532.582031 346.039062 C 533.953125 347.085938 534.945312 348.6875 533.589844 350.457031 C 533.128906 351.058594 532.40625 351.65625 531.375 352.25 L 531.230469 351.636719 C 533.234375 351.761719 533.808594 353.253906 533.703125 354.878906 C 533.632812 356.046875 533.21875 357.359375 532.707031 358.488281 C 531.058594 362.144531 526.199219 365.46875 526.214844 365.457031 L 526.242188 365.4375 C 525.675781 365.925781 524.515625 365.59375 523.839844 364.816406 C 523.527344 364.453125 523.285156 363.972656 523.191406 363.371094 C 522.925781 361.628906 525.972656 358.363281 529.984375 357.386719 L 530.078125 358.035156 L 525.679688 358.214844 L 525.96875 358.015625 C 523.859375 362.839844 521.335938 365.550781 521.320312 365.566406 C 514.648438 372.726562 502.804688 382.894531 502.804688 382.894531 L 502.78125 382.914062 C 499.984375 384.875 497.667969 385.453125 495.992188 384.25 C 495.921875 384.195312 495.875 384.117188 495.859375 384.027344 C 494.246094 373.085938 492.800781 368.542969 491.917969 368.675781 C 491.875 368.679688 491.800781 368.710938 491.695312 368.816406 C 491.660156 368.855469 491.617188 368.882812 491.570312 368.898438 C 480.820312 372.714844 474.503906 376.105469 472.796875 379.261719 C 472.296875 380.191406 472.4375 381.109375 472.691406 381.957031 C 473.929688 386.15625 476.011719 391.464844 479.140625 397.832031 C 479.199219 397.953125 479.179688 398.097656 479.089844 398.195312 C 479 398.296875 478.859375 398.332031 478.734375 398.285156 C 474.347656 396.695312 471.421875 392.4375 469.179688 383.179688 L 469.730469 383.335938 C 466.960938 386.058594 461.652344 388.648438 454.242188 392.273438 C 452.054688 393.34375 449.773438 394.460938 447.226562 395.738281 C 447.117188 395.792969 446.984375 395.78125 446.882812 395.710938 C 446.785156 395.636719 446.734375 395.515625 446.753906 395.394531 C 447.296875 391.933594 460.363281 382.71875 481.042969 370.15625 L 480.902344 370.546875 C 480.875 370.46875 480.832031 370.292969 480.769531 370.070312 C 480.609375 369.464844 480.316406 368.363281 479.914062 367.214844 C 479.417969 365.800781 478.785156 364.394531 478.078125 363.714844 C 472.253906 358.097656 470.734375 350.996094 469.144531 343.582031 C 468.804688 342.011719 468.464844 340.429688 468.078125 338.835938 L 468.65625 338.960938 C 464.140625 344.628906 444.59375 373.976562 445.105469 379.632812 C 445.183594 380.5 445.6875 380.816406 446.695312 380.726562 C 449.089844 380.511719 453.421875 377.957031 457.0625 375.796875 C 459.488281 374.359375 461.683594 373.046875 462.597656 372.964844 C 462.695312 372.957031 462.804688 372.960938 462.910156 372.988281 L 462.820312 373.304688 L 462.910156 372.988281 C 463.144531 373.050781 463.296875 373.234375 463.316406 373.480469 C 463.347656 373.804688 463.144531 374.234375 462.839844 374.734375 C 462.8125 374.78125 462.773438 374.816406 462.730469 374.84375 C 453.457031 380.441406 441.5625 390.136719 441.5625 390.136719 C 436.90625 393.929688 434.308594 408.113281 433.742188 413.203125 C 432.851562 421.191406 441.433594 427.625 444.34375 427.949219 C 444.535156 427.96875 444.679688 427.960938 444.78125 427.933594 C 451.757812 426.089844 461.0625 422.800781 471.363281 415.617188 C 472.003906 415.167969 473.359375 413.417969 474.96875 411.328125 C 477.023438 408.664062 479.453125 405.5 481.070312 404.371094 C 481.535156 404.046875 482.0625 403.796875 482.519531 403.960938 C 482.605469 403.992188 482.671875 404.054688 482.710938 404.132812 C 489.214844 418.070312 484.117188 439.730469 477.574219 455.226562 L 477.492188 454.855469 C 477.488281 454.851562 477.480469 454.84375 477.484375 454.847656 C 478.121094 455.339844 489.910156 459.855469 499.1875 460.339844 C 505.714844 460.683594 511.101562 459.171875 514.527344 458.210938 C 516.078125 457.777344 517.308594 457.425781 518.027344 457.464844 C 518.0625 457.464844 518.097656 457.46875 518.128906 457.472656 C 518.203125 457.480469 518.269531 457.511719 518.324219 457.5625 C 519.648438 458.835938 521.367188 460.617188 523.144531 462.457031 C 525.089844 464.46875 527.117188 466.566406 528.824219 468.207031 C 529.800781 469.144531 530.664062 469.925781 531.34375 470.453125 L 531.210938 470.753906 L 531.34375 470.453125 C 532.128906 470.796875 536.257812 466.046875 540.367188 460.777344 C 541.183594 459.730469 541.984375 458.6875 542.730469 457.707031 L 542.664062 457.949219 L 537.988281 424.484375 L 537.988281 424.488281 C 537.589844 421.808594 536.953125 420.398438 536.21875 419.984375 L 536.316406 420.019531 L 518.980469 416.515625 L 519.222656 416.46875 C 519.265625 416.445312 519.28125 416.414062 519.277344 416.421875 C 518.207031 418.113281 517.664062 457.296875 517.664062 457.40625 L 517.652344 457.324219 C 519.703125 465.652344 535.761719 466.6875 550.246094 463.132812 C 556.453125 461.609375 562.25 459.261719 566.308594 456.382812 L 566.171875 456.613281 C 567.253906 447.546875 565.773438 439.464844 563.417969 434.027344 L 563.535156 434.167969 L 539.757812 418.113281 C 539.640625 418.035156 539.589844 417.894531 539.625 417.757812 C 540.605469 414.054688 541.203125 410.8125 541.65625 408.34375 C 541.933594 406.84375 542.160156 405.613281 542.386719 404.75 C 542.574219 404.050781 542.796875 403.40625 543.195312 403.207031 C 543.332031 403.140625 543.480469 403.121094 543.625 403.160156 L 543.609375 403.15625 L 543.613281 403.15625 L 543.632812 403.164062 C 543.683594 403.175781 543.730469 403.195312 543.777344 403.21875 C 549.652344 406.25 555.4375 407.574219 555.429688 407.574219 L 555.421875 407.570312 C 559.996094 408.511719 565.230469 409.277344 570 409.976562 C 573.964844 410.558594 577.597656 411.089844 580.25 411.632812 C 582.121094 412.019531 583.570312 412.421875 584.257812 412.886719 C 592.691406 418.554688 587.382812 432.054688 585.132812 435.394531 C 584.863281 435.792969 584.59375 436.117188 584.351562 436.253906 C 581.066406 438.109375 577.816406 437.199219 574.300781 436.230469 C 572.050781 435.609375 569.675781 434.957031 567.015625 434.882812 L 567.101562 434.875 C 567.148438 434.863281 567.394531 434.757812 567.328125 434.492188 C 567.300781 434.378906 567.21875 434.328125 567.246094 434.351562 L 567.042969 434.609375 L 567.246094 434.351562 C 567.9375 434.898438 581.023438 439.898438 588.4375 438.0625 C 590.289062 437.605469 591.738281 436.734375 592.566406 435.300781 C 599.972656 422.523438 598.039062 414.746094 591.414062 410.914062 C 586.109375 407.851562 577.695312 407.234375 568.1875 408.78125 C 568.015625 408.808594 567.851562 408.695312 567.8125 408.527344 C 567.441406 406.878906 567.039062 405.136719 566.632812 403.398438 C 566.234375 401.675781 565.824219 399.910156 565.457031 398.277344 C 564.640625 394.648438 563.976562 391.433594 563.816406 389.589844 C 563.8125 389.550781 563.816406 389.507812 563.828125 389.46875 C 568.570312 373.039062 568.742188 370.195312 568.742188 370.234375 L 569.070312 370.253906 L 568.742188 370.234375 C 569.265625 362.019531 567.324219 361.234375 567.113281 361.125 C 567.097656 361.117188 567.082031 361.109375 567.066406 361.101562 C 567.378906 361.273438 567.535156 360.894531 567.476562 361 C 567.480469 360.996094 567.480469 360.992188 567.480469 360.992188 L 567.179688 360.855469 L 567.480469 360.992188 C 567.011719 362.019531 564.886719 382.449219 564.878906 382.511719 C 564.875 382.546875 564.867188 382.582031 564.851562 382.617188 C 564.867188 382.585938 564.710938 382.960938 564.378906 382.804688 C 564.230469 382.738281 564.183594 382.585938 564.179688 382.578125 L 564.488281 382.460938 L 564.179688 382.578125 C 564.078125 382.320312 563.988281 381.421875 563.871094 380.308594 C 563.507812 376.902344 562.863281 370.976562 561.371094 369.261719 C 561.289062 369.164062 560.992188 369.074219 560.140625 369.8125 C 556.089844 373.332031 546.722656 389.664062 543.476562 399.453125 C 543.183594 400.324219 542.28125 400.355469 541.390625 400.0625 C 539.914062 399.574219 537.765625 398.035156 535.480469 395.753906 C 535.410156 395.683594 535.375 395.585938 535.386719 395.488281 C 535.925781 390.339844 533.203125 352.421875 533.183594 352.171875 L 533.183594 352.152344 C 533.183594 352.121094 533.1875 352.089844 533.195312 352.0625 L 536.789062 339.023438 L 536.953125 339.402344 C 532.613281 337.140625 530.160156 332.519531 527.226562 326.148438 C 527.152344 325.984375 527.222656 325.789062 527.386719 325.714844 C 527.550781 325.636719 527.746094 325.707031 527.824219 325.871094 C 531.5 333.585938 534.457031 334.730469 536.601562 333.714844 C 540.585938 331.820312 542.863281 322.425781 542.886719 322.335938 L 543.207031 322.414062 L 543.515625 322.527344 L 537.980469 337.710938 L 537.425781 337.378906 C 542.472656 331.875 546.847656 330.820312 550.550781 329.933594 C 551.261719 329.761719 551.933594 329.601562 552.589844 329.414062 C 556.882812 328.183594 577.21875 337.914062 582.59375 343.640625 C 583.34375 344.4375 588.734375 350.320312 591.429688 356.511719 C 594.046875 362.527344 593.53125 365.964844 592.945312 369.835938 C 592.675781 371.640625 592.390625 373.527344 592.398438 375.828125 C 592.40625 378.378906 592.953125 382.984375 593.550781 388.0625 C 594.277344 394.183594 595.082031 400.96875 595.097656 405.546875 C 595.097656 406.5 595.066406 407.363281 594.992188 408.109375 C 594.992188 408.109375 594.996094 408.933594 594.527344 408.886719 L 594.523438 408.886719 C 594.285156 408.859375 594.210938 408.621094 594.214844 408.636719 L 594.519531 408.507812 L 594.214844 408.636719 C 594.066406 408.277344 593.890625 406.535156 593.628906 403.976562 C 592.949219 397.363281 591.644531 384.640625 588.839844 372.363281 C 585.382812 357.253906 578.820312 343.464844 574.066406 338.546875 C 570.214844 334.5625 564.84375 332.351562 560.097656 330.398438 C 556.738281 329.015625 553.648438 327.753906 551.746094 326.058594 C 550.09375 324.585938 547.296875 323.011719 545.214844 321.84375 C 544.050781 321.191406 543.066406 320.640625 542.710938 320.324219 C 542.679688 320.296875 542.644531 320.261719 542.613281 320.230469 C 540.867188 318.230469 539.394531 315.382812 538.488281 313.632812 C 538.058594 312.808594 537.785156 312.285156 537.65625 312.136719 C 537.652344 312.132812 537.652344 312.132812 537.652344 312.132812 L 537.882812 311.898438 L 537.652344 312.132812 C 537.578125 312.058594 537.789062 312.316406 538.015625 312.113281 C 538.050781 312.082031 538.070312 312.054688 538.082031 312.03125 L 538.082031 312.035156 C 536.578125 314.90625 529.855469 323.871094 521.375 328.273438 C 521.363281 328.28125 521.386719 328.261719 521.386719 328.238281 L 521.058594 328.214844 L 521.386719 328.238281 C 521.386719 328.246094 521.390625 328.292969 521.445312 328.402344 C 521.816406 329.113281 523.390625 330.4375 524.984375 331.765625 C 526.332031 332.882812 527.726562 334.035156 528.054688 334.667969 C 528.089844 334.734375 528.121094 334.808594 528.136719 334.890625 C 528.597656 337.097656 523.613281 340.085938 519.699219 340.898438 C 516.945312 341.472656 514.109375 341.117188 513.535156 338.363281 C 513.207031 336.789062 513.660156 334.515625 515.179688 331.363281 C 515.332031 331.042969 515.023438 331.460938 515.371094 331.628906 C 515.535156 331.707031 515.671875 331.605469 515.613281 331.636719 C 515.273438 331.828125 513.34375 333.984375 511.265625 336.316406 C 509.117188 338.730469 506.699219 341.480469 506.230469 341.570312 C 506.085938 341.601562 505.9375 341.527344 505.871094 341.398438 C 502.339844 334.347656 501.605469 329.464844 501.601562 329.4375 C 500.980469 325.300781 503.234375 323.207031 503.277344 323.171875 C 503.382812 323.074219 503.539062 323.054688 503.664062 323.128906 C 508.886719 326.140625 512.566406 327.433594 512.554688 327.429688 C 513.371094 327.714844 518.40625 328.320312 518.445312 328.324219 L 518.40625 328.652344 L 518.085938 328.582031 C 518.617188 326.171875 518.09375 325.746094 518.109375 325.761719 C 518.109375 325.761719 518.121094 325.769531 518.140625 325.78125 C 518.046875 325.730469 517.980469 325.640625 517.964844 325.535156 C 517.949219 325.429688 517.984375 325.324219 518.0625 325.25 C 535.875 308.339844 531.5 295.691406 531.535156 295.789062 L 531.847656 295.683594 L 531.671875 295.40625 C 532.460938 294.902344 533.273438 294.542969 534.03125 294.203125 C 534.738281 293.882812 535.394531 293.589844 535.988281 293.210938 C 538.222656 291.792969 539.710938 289.109375 537.832031 278.851562 C 537.304688 275.976562 536.53125 275.355469 535.878906 275.472656 C 533.980469 275.820312 531.0625 281.328125 528.070312 287.855469 C 528.015625 287.976562 527.890625 288.050781 527.761719 288.046875 C 527.628906 288.042969 527.511719 287.960938 527.460938 287.839844 C 522.191406 274.332031 516.578125 267.582031 511.144531 267.128906 C 510.722656 267.09375 509.882812 267.835938 508.511719 269.125 C 506.613281 270.910156 503.984375 273.394531 500.917969 274.136719 C 498.777344 274.65625 496.488281 274.59375 494.332031 274.535156 C 492.296875 274.480469 490.386719 274.433594 488.730469 274.832031 C 487.621094 275.101562 486.644531 275.570312 485.832031 276.367188 C 483.570312 278.589844 484.269531 283.386719 484.773438 286.667969 C 484.867188 287.296875 484.957031 287.875 485.007812 288.335938 C 485.832031 296.097656 489.027344 300.707031 492.09375 302.632812 C 492.195312 302.699219 492.253906 302.816406 492.246094 302.9375 C 491.789062 308.460938 505.378906 325.097656 513.457031 325.761719 C 514.210938 325.824219 514.902344 325.746094 515.523438 325.507812 C 525.242188 321.800781 531.894531 318.515625 535.675781 311.175781 L 535.640625 311.296875 C 535.789062 309.722656 535.292969 307.835938 534.699219 305.613281 C 533.941406 302.757812 533.050781 299.414062 533.394531 295.738281 C 533.582031 293.734375 534.132812 291.632812 535.269531 289.457031 C 538.082031 284.074219 531.160156 264.691406 526.953125 252.96875 L 526.589844 251.957031 C 524.652344 246.546875 516.507812 243.640625 511.710938 242.105469 L 512.074219 241.589844 L 515.3125 245.769531 C 515.402344 245.886719 515.40625 246.046875 515.320312 246.164062 C 515.234375 246.28125 515.085938 246.328125 514.945312 246.285156 C 510.679688 244.835938 503.78125 243.722656 496.113281 245.929688 C 492.261719 247.039062 484.402344 251.523438 480.570312 255.402344 C 478.433594 257.566406 478.527344 257.757812 478.371094 257.605469 C 478.320312 257.554688 478.269531 257.550781 478.28125 257.550781 L 478.226562 257.875 L 478.28125 257.550781 C 478.324219 257.558594 478.433594 257.542969 478.664062 257.507812 C 479.042969 257.445312 479.835938 257.289062 480.296875 257.746094 C 480.894531 258.332031 480.695312 259.613281 479.496094 262.027344 C 479.46875 262.078125 479.433594 262.125 479.386719 262.15625 C 474.445312 265.496094 471.328125 271.546875 470.488281 273.949219 C 470.324219 274.417969 470.5625 274.089844 470.261719 273.984375 C 470.1875 273.960938 470.136719 273.980469 470.148438 273.976562 L 470.242188 274.289062 L 470.148438 273.976562 C 470.25 273.945312 470.515625 273.742188 470.953125 273.390625 C 471.621094 272.859375 472.820312 271.84375 473.617188 272.121094 C 474.078125 272.28125 474.261719 272.761719 474.292969 273.378906 C 474.34375 274.492188 473.753906 276.761719 473.1875 278.964844 C 472.585938 281.292969 472.003906 283.554688 472.054688 284.628906 C 472.070312 284.933594 472.132812 285.027344 472.144531 285.039062 L 471.929688 285.285156 L 472.144531 285.039062 C 472.144531 285.035156 472.140625 285.035156 472.136719 285.03125 L 471.980469 285.023438 C 477.226562 284.027344 482.242188 284.335938 482.578125 286.089844 C 482.585938 286.132812 482.589844 286.175781 482.59375 286.222656 C 482.59375 286.253906 482.59375 286.28125 482.585938 286.3125 C 481.003906 293.441406 487.65625 301.558594 499.359375 315.742188 C 500.65625 317.3125 501.9375 318.863281 503.34375 320.582031 C 503.359375 320.605469 503.375 320.628906 503.386719 320.652344 C 503.40625 320.691406 503.417969 320.730469 503.425781 320.769531 C 503.726562 322.035156 499.648438 325.519531 497.25 326.597656 C 497.199219 326.621094 497.160156 326.640625 497.109375 326.660156 C 494.980469 327.566406 492.539062 328.53125 490.039062 329.523438 C 487.398438 330.566406 484.671875 331.644531 482.175781 332.707031 C 477.675781 334.617188 473.96875 336.453125 472.59375 337.972656 C 470.644531 340.113281 474.007812 345.714844 477.054688 350.671875 C 478.199219 352.53125 479.253906 354.242188 479.8125 355.507812 C 481.199219 358.648438 486.660156 360.492188 493.210938 357.605469 C 493.511719 357.472656 493.816406 357.332031 494.121094 357.179688 C 500.203125 354.128906 512.941406 346.515625 513.054688 344.769531 C 513.0625 344.605469 513.199219 344.472656 513.367188 344.464844 C 513.53125 344.457031 513.679688 344.574219 513.707031 344.738281 C 513.992188 346.457031 515.148438 347.902344 516.355469 349.402344 C 517.488281 350.804688 518.679688 352.269531 518.964844 353.984375 C 519.039062 354.4375 519.050781 354.910156 518.980469 355.40625 C 518.886719 356.078125 518.773438 356.863281 518.652344 357.671875 C 518.507812 358.664062 518.359375 359.699219 518.195312 360.855469 C 517.117188 368.523438 515.804688 379.417969 516.683594 387.886719 C 518.808594 408.449219 527.324219 427.332031 537.757812 439.066406 C 545.695312 447.992188 567.5 456.132812 567.53125 456.144531 L 567.410156 456.125 L 608.804688 455.417969 C 608.988281 455.414062 609.136719 455.558594 609.140625 455.742188 C 609.144531 455.921875 608.996094 456.074219 608.816406 456.074219 L 567.421875 456.78125 C 567.378906 456.78125 567.335938 456.777344 567.300781 456.761719 C 567.328125 456.773438 545.335938 448.578125 537.265625 439.503906 C 526.730469 427.652344 518.167969 408.640625 516.027344 387.957031 C 515.140625 379.394531 516.464844 368.421875 517.542969 360.761719 C 517.707031 359.609375 517.859375 358.566406 518.003906 357.578125 C 518.121094 356.757812 518.234375 355.992188 518.328125 355.3125 C 518.386719 354.890625 518.378906 354.484375 518.3125 354.089844 C 518.066406 352.582031 517.007812 351.253906 515.84375 349.8125 C 514.660156 348.347656 513.375 346.765625 513.058594 344.847656 L 513.710938 344.8125 C 513.566406 347.050781 500.199219 354.863281 494.417969 357.765625 C 494.101562 357.921875 493.789062 358.070312 493.476562 358.207031 C 486.796875 361.152344 480.816406 359.417969 479.207031 355.773438 C 478.671875 354.558594 477.648438 352.890625 476.496094 351.019531 C 473.65625 346.402344 469.730469 340.144531 472.105469 337.53125 C 473.601562 335.882812 477.464844 333.992188 481.917969 332.101562 C 484.425781 331.035156 487.152344 329.957031 489.796875 328.910156 C 492.296875 327.921875 494.738281 326.953125 496.851562 326.054688 C 496.890625 326.039062 496.941406 326.019531 496.980469 326 C 499.554688 324.839844 502.9375 321.566406 502.785156 320.921875 C 502.785156 320.917969 502.785156 320.921875 502.789062 320.925781 L 502.832031 320.996094 C 501.417969 319.273438 500.152344 317.738281 498.851562 316.160156 C 487.28125 302.136719 480.273438 293.695312 481.941406 286.167969 L 481.9375 286.257812 C 481.933594 286.242188 481.933594 286.226562 481.929688 286.210938 C 481.746094 285.253906 477.742188 284.597656 472.101562 285.671875 C 472.050781 285.679688 471.996094 285.675781 471.945312 285.660156 C 471.855469 285.636719 471.777344 285.589844 471.710938 285.53125 L 471.929688 285.285156 L 471.710938 285.53125 C 471.476562 285.324219 471.414062 284.976562 471.398438 284.660156 C 471.339844 283.457031 471.960938 281.066406 472.546875 278.800781 C 473.132812 276.53125 473.679688 274.394531 473.632812 273.410156 C 473.609375 272.847656 473.453125 272.757812 473.402344 272.742188 C 473.046875 272.617188 472.238281 273.207031 471.367188 273.90625 C 471.003906 274.195312 470.597656 274.527344 470.335938 274.605469 L 470.242188 274.289062 L 470.335938 274.605469 C 470.273438 274.625 470.164062 274.648438 470.042969 274.605469 C 469.589844 274.449219 469.824219 273.851562 469.867188 273.734375 C 470.730469 271.257812 473.914062 265.0625 479.015625 261.609375 L 478.90625 261.738281 C 480.179688 259.171875 480.03125 258.40625 479.835938 258.214844 C 479.664062 258.042969 479.289062 258.074219 478.769531 258.15625 C 478.59375 258.183594 478.351562 258.226562 478.175781 258.199219 L 478.226562 257.875 L 478.175781 258.199219 C 478.105469 258.191406 477.996094 258.160156 477.90625 258.070312 C 477.445312 257.617188 478.460938 256.597656 480.097656 254.941406 C 484.011719 250.980469 491.96875 246.441406 495.929688 245.300781 C 503.757812 243.046875 510.796875 244.179688 515.160156 245.660156 L 514.792969 246.171875 L 511.550781 241.992188 C 511.464844 241.878906 511.460938 241.71875 511.542969 241.601562 C 511.625 241.484375 511.777344 241.433594 511.914062 241.476562 C 516.597656 242.976562 525.140625 245.957031 527.210938 251.734375 L 527.574219 252.75 C 531.695312 264.234375 538.839844 284.042969 535.855469 289.761719 C 534.761719 291.859375 534.230469 293.875 534.050781 295.800781 C 533.71875 299.34375 534.574219 302.578125 535.335938 305.445312 C 535.917969 307.628906 536.457031 309.640625 536.296875 311.359375 C 536.292969 311.398438 536.28125 311.441406 536.261719 311.476562 C 532.355469 319.058594 525.476562 322.417969 515.757812 326.121094 C 515.027344 326.402344 514.234375 326.488281 513.402344 326.417969 C 504.984375 325.722656 491.097656 308.792969 491.589844 302.882812 L 491.742188 303.1875 C 488.460938 301.125 485.191406 296.304688 484.351562 288.40625 C 484.304688 287.960938 484.21875 287.402344 484.121094 286.769531 C 483.644531 283.644531 482.808594 278.410156 485.371094 275.898438 C 486.285156 275 487.378906 274.484375 488.574219 274.195312 C 490.332031 273.769531 492.335938 273.824219 494.351562 273.878906 C 496.523438 273.9375 498.722656 273.992188 500.761719 273.5 C 503.628906 272.804688 506.132812 270.460938 508.058594 268.648438 C 509.257812 267.519531 510.398438 266.40625 511.199219 266.472656 C 517.089844 266.964844 522.828125 274.15625 528.078125 287.601562 L 527.46875 287.582031 C 530.351562 281.300781 533.421875 275.253906 535.761719 274.828125 C 537.132812 274.574219 537.984375 276.035156 538.476562 278.734375 C 540.359375 288.992188 538.964844 292.101562 536.34375 293.765625 C 535.703125 294.175781 535 294.488281 534.300781 294.804688 C 533.539062 295.144531 532.769531 295.488281 532.023438 295.960938 L 531.847656 295.683594 L 532.160156 295.578125 C 532.199219 295.691406 536.535156 308.621094 518.519531 325.726562 L 518.441406 325.195312 C 518.460938 325.203125 518.496094 325.226562 518.535156 325.257812 C 518.824219 325.503906 519.269531 326.273438 518.726562 328.722656 L 518.40625 328.652344 L 518.367188 328.976562 C 518.394531 328.980469 513.242188 328.367188 512.335938 328.046875 C 512.320312 328.042969 508.601562 326.734375 503.335938 323.699219 L 503.722656 323.65625 C 503.761719 323.617188 501.679688 325.507812 502.253906 329.34375 C 502.25 329.316406 502.964844 334.128906 506.460938 341.101562 L 506.105469 340.925781 C 506.28125 340.890625 508.449219 338.488281 510.773438 335.878906 C 512.773438 333.636719 514.824219 331.324219 515.292969 331.0625 C 515.292969 331.0625 515.46875 330.945312 515.660156 331.035156 L 515.65625 331.035156 C 516.054688 331.226562 515.722656 331.753906 515.773438 331.648438 C 514.269531 334.769531 513.898438 336.875 514.179688 338.226562 C 514.621094 340.351562 516.804688 340.828125 519.5625 340.257812 C 523.691406 339.398438 527.800781 336.5 527.492188 335.023438 C 527.492188 335.019531 527.488281 335.003906 527.46875 334.96875 C 527.21875 334.492188 525.992188 333.457031 524.5625 332.269531 C 523.042969 331.003906 521.3125 329.570312 520.863281 328.707031 C 520.785156 328.554688 520.71875 328.378906 520.730469 328.195312 L 521.058594 328.214844 L 520.730469 328.195312 C 520.746094 327.96875 520.871094 327.792969 521.070312 327.691406 C 529.402344 323.363281 536.039062 314.515625 537.496094 311.730469 C 537.511719 311.699219 537.539062 311.65625 537.582031 311.617188 L 537.582031 311.621094 C 537.851562 311.386719 538.113281 311.664062 538.113281 311.660156 L 537.882812 311.898438 L 538.113281 311.660156 C 538.128906 311.675781 538.140625 311.6875 538.152344 311.707031 C 538.347656 311.929688 538.675781 312.5625 539.074219 313.332031 C 539.984375 315.09375 541.425781 317.867188 543.109375 319.796875 C 543.117188 319.800781 543.132812 319.816406 543.148438 319.835938 C 543.433594 320.085938 544.324219 320.589844 545.539062 321.269531 C 547.59375 322.425781 550.46875 324.035156 552.183594 325.566406 C 553.984375 327.167969 556.945312 328.390625 560.347656 329.789062 C 565.074219 331.734375 570.578125 333.992188 574.539062 338.089844 C 579.421875 343.136719 586.015625 357.066406 589.480469 372.21875 C 592.296875 384.539062 593.605469 397.296875 594.285156 403.910156 C 594.558594 406.570312 594.722656 408.140625 594.824219 408.382812 L 594.519531 408.507812 L 594.824219 408.382812 C 594.855469 408.460938 594.804688 408.253906 594.59375 408.230469 L 594.589844 408.230469 C 594.199219 408.191406 594.273438 408.703125 594.339844 408.042969 C 594.410156 407.328125 594.441406 406.488281 594.4375 405.550781 C 594.421875 401.019531 593.625 394.273438 592.898438 388.136719 C 592.300781 383.082031 591.75 378.429688 591.742188 375.832031 C 591.734375 373.472656 592.023438 371.542969 592.296875 369.738281 C 592.871094 365.917969 593.367188 362.625 590.824219 356.777344 C 588.179688 350.695312 582.859375 344.886719 582.113281 344.089844 C 576.765625 338.394531 556.679688 328.929688 552.773438 330.042969 C 552.101562 330.238281 551.410156 330.402344 550.703125 330.570312 C 547.050781 331.449219 542.824219 332.460938 537.914062 337.824219 C 537.808594 337.9375 537.632812 337.964844 537.5 337.882812 C 537.363281 337.800781 537.308594 337.636719 537.359375 337.488281 L 542.894531 322.300781 L 543.207031 322.414062 L 543.527344 322.492188 C 543.542969 322.421875 541.222656 332.246094 536.882812 334.308594 C 534.117188 335.621094 530.871094 333.792969 527.230469 326.152344 L 527.828125 325.875 C 530.773438 332.28125 533.148438 336.679688 537.257812 338.820312 C 537.394531 338.890625 537.464844 339.046875 537.421875 339.199219 L 533.832031 352.234375 L 533.84375 352.140625 L 533.839844 352.128906 L 533.839844 352.125 C 533.855469 352.316406 536.589844 390.332031 536.042969 395.554688 L 535.949219 395.289062 C 538.214844 397.554688 540.273438 399 541.597656 399.4375 C 542.460938 399.722656 542.757812 399.527344 542.851562 399.242188 C 546.113281 389.417969 555.523438 372.949219 559.710938 369.316406 C 560.417969 368.703125 561.300781 368.179688 561.867188 368.828125 C 563.539062 370.746094 564.179688 376.976562 564.523438 380.238281 C 564.652344 381.4375 564.734375 382.191406 564.792969 382.339844 L 564.488281 382.460938 L 564.792969 382.339844 C 564.8125 382.382812 564.78125 382.265625 564.65625 382.207031 C 564.347656 382.0625 564.214844 382.421875 564.253906 382.339844 L 564.226562 382.445312 C 564.21875 382.507812 566.351562 361.878906 566.882812 360.71875 L 567.179688 360.855469 L 566.882812 360.71875 C 566.886719 360.707031 566.890625 360.699219 566.898438 360.683594 C 566.867188 360.738281 567.046875 360.34375 567.382812 360.523438 C 567.390625 360.527344 567.394531 360.53125 567.410156 360.539062 C 568 360.835938 569.925781 362.003906 569.398438 370.277344 L 569.070312 370.253906 L 569.398438 370.273438 C 569.394531 370.320312 569.199219 373.234375 564.460938 389.652344 L 564.472656 389.53125 C 564.625 391.320312 565.28125 394.496094 566.097656 398.132812 C 566.464844 399.753906 566.878906 401.535156 567.277344 403.25 C 567.683594 404.996094 568.082031 406.722656 568.457031 408.382812 L 568.082031 408.128906 C 577.640625 406.574219 586.242188 407.167969 591.746094 410.347656 C 598.847656 414.449219 600.613281 422.730469 593.136719 435.628906 C 592.1875 437.265625 590.554688 438.21875 588.597656 438.703125 C 580.949219 440.59375 567.660156 435.519531 566.835938 434.867188 L 567.042969 434.609375 L 566.835938 434.867188 C 566.828125 434.859375 566.722656 434.785156 566.6875 434.652344 C 566.617188 434.367188 566.871094 434.253906 566.945312 434.234375 C 566.972656 434.230469 567.003906 434.226562 567.03125 434.226562 C 569.785156 434.300781 572.238281 434.980469 574.472656 435.597656 C 578.039062 436.578125 581.015625 437.382812 584.027344 435.679688 C 584.117188 435.632812 584.308594 435.433594 584.585938 435.027344 C 586.882812 431.621094 591.753906 418.71875 583.890625 413.429688 C 583.332031 413.054688 582.019531 412.667969 580.117188 412.277344 C 577.488281 411.738281 573.878906 411.210938 569.90625 410.628906 C 565.140625 409.929688 559.882812 409.160156 555.289062 408.214844 L 555.28125 408.214844 C 555.273438 408.210938 549.425781 406.871094 543.476562 403.804688 L 543.472656 403.804688 C 543.46875 403.800781 543.464844 403.796875 543.460938 403.796875 L 543.480469 403.800781 L 543.460938 403.796875 C 543.46875 403.800781 543.484375 403.796875 543.492188 403.796875 C 543.414062 403.832031 543.238281 404.113281 543.023438 404.917969 C 542.804688 405.75 542.582031 406.949219 542.304688 408.464844 C 541.851562 410.933594 541.25 414.199219 540.261719 417.925781 L 540.128906 417.570312 L 563.90625 433.625 C 563.957031 433.660156 564 433.707031 564.023438 433.765625 C 566.425781 439.316406 567.921875 447.515625 566.824219 456.691406 C 566.8125 456.78125 566.765625 456.863281 566.6875 456.917969 C 562.542969 459.863281 556.660156 462.234375 550.402344 463.773438 C 536.136719 467.273438 519.246094 466.539062 517.015625 457.480469 C 517.007812 457.453125 517.003906 457.425781 517.003906 457.398438 C 517.003906 457.511719 517.519531 417.96875 518.71875 416.070312 C 518.75 416.023438 518.796875 415.960938 518.871094 415.914062 C 518.941406 415.871094 519.027344 415.851562 519.113281 415.871094 L 536.445312 419.375 C 536.480469 419.382812 536.511719 419.394531 536.542969 419.410156 C 537.597656 420.007812 538.25 421.761719 538.640625 424.390625 L 538.640625 424.394531 L 543.316406 457.859375 C 543.332031 457.945312 543.308594 458.03125 543.253906 458.101562 C 542.515625 459.078125 541.699219 460.140625 540.886719 461.179688 C 537.109375 466.027344 532.484375 471.671875 531.078125 471.054688 L 531.210938 470.753906 L 531.078125 471.054688 C 531.027344 471.035156 530.980469 471.007812 530.9375 470.972656 C 530.230469 470.425781 529.347656 469.621094 528.367188 468.679688 C 526.652344 467.03125 524.613281 464.921875 522.671875 462.914062 C 520.886719 461.066406 519.179688 459.300781 517.867188 458.035156 L 518.058594 458.125 C 518.039062 458.125 518.011719 458.121094 517.992188 458.121094 C 517.410156 458.089844 516.324219 458.390625 514.707031 458.84375 C 511.273438 459.808594 505.796875 461.34375 499.152344 461 C 489.808594 460.511719 477.867188 455.972656 477.082031 455.367188 C 477.074219 455.363281 477.0625 455.351562 477.046875 455.339844 C 476.945312 455.25 476.910156 455.097656 476.964844 454.96875 C 483.507812 439.480469 488.484375 418.070312 482.113281 404.410156 L 482.300781 404.582031 C 482.183594 404.539062 481.917969 404.582031 481.445312 404.910156 C 479.9375 405.964844 477.585938 409.011719 475.492188 411.730469 C 473.929688 413.753906 472.488281 415.632812 471.738281 416.15625 C 461.359375 423.394531 451.980469 426.714844 444.949219 428.570312 C 444.742188 428.625 444.511719 428.628906 444.269531 428.601562 C 441.078125 428.246094 432.148438 421.550781 433.089844 413.128906 C 433.644531 408.140625 436.238281 393.625 441.144531 389.625 C 441.140625 389.628906 453.070312 379.90625 462.386719 374.28125 L 462.277344 374.390625 C 462.601562 373.863281 462.667969 373.613281 462.660156 373.539062 C 462.664062 373.5625 462.699219 373.613281 462.734375 373.621094 L 462.820312 373.304688 L 462.734375 373.621094 C 462.730469 373.621094 462.710938 373.617188 462.65625 373.621094 C 461.9375 373.6875 459.9375 374.859375 457.398438 376.363281 C 453.835938 378.472656 449.339844 381.148438 446.753906 381.382812 C 445.527344 381.492188 444.570312 381.050781 444.449219 379.691406 C 443.90625 373.703125 463.71875 344.097656 468.140625 338.554688 C 468.222656 338.453125 468.347656 338.410156 468.472656 338.4375 C 468.59375 338.464844 468.691406 338.558594 468.71875 338.679688 C 469.109375 340.285156 469.449219 341.875 469.789062 343.445312 C 471.386719 350.886719 472.875 357.785156 478.535156 363.238281 C 479.371094 364.042969 480.042969 365.597656 480.535156 367 C 480.945312 368.171875 481.246094 369.292969 481.40625 369.902344 C 481.472656 370.144531 481.507812 370.28125 481.527344 370.332031 C 481.578125 370.476562 481.519531 370.640625 481.386719 370.71875 C 460.476562 383.417969 447.882812 392.429688 447.402344 395.496094 L 446.929688 395.152344 C 449.464844 393.878906 451.78125 392.746094 453.953125 391.683594 C 461.417969 388.03125 466.59375 385.496094 469.269531 382.867188 C 469.355469 382.785156 469.476562 382.753906 469.589844 382.785156 C 469.707031 382.816406 469.792969 382.910156 469.820312 383.023438 C 472.054688 392.242188 474.90625 396.199219 478.957031 397.667969 L 478.550781 398.121094 C 475.40625 391.730469 473.3125 386.386719 472.058594 382.144531 C 471.792969 381.246094 471.589844 380.113281 472.21875 378.949219 C 474.070312 375.527344 480.675781 372.070312 491.347656 368.277344 L 491.222656 368.359375 C 491.386719 368.1875 491.589844 368.058594 491.820312 368.023438 C 493.5625 367.765625 494.996094 373.644531 496.511719 383.933594 L 496.378906 383.714844 C 497.671875 384.640625 499.625 384.324219 502.402344 382.375 L 502.375 382.394531 C 502.378906 382.390625 514.195312 372.246094 520.839844 365.117188 C 520.824219 365.132812 523.296875 362.484375 525.363281 357.753906 C 525.414062 357.640625 525.527344 357.5625 525.652344 357.558594 L 530.050781 357.375 C 530.21875 357.371094 530.367188 357.492188 530.390625 357.660156 C 530.414062 357.828125 530.304688 357.984375 530.140625 358.023438 C 526.171875 358.988281 523.664062 362.09375 523.84375 363.273438 C 523.917969 363.75 524.105469 364.117188 524.339844 364.386719 C 524.933594 365.074219 525.671875 365.058594 525.8125 364.9375 L 525.84375 364.917969 C 525.855469 364.90625 530.546875 361.675781 532.109375 358.21875 C 532.597656 357.128906 532.980469 355.898438 533.046875 354.835938 C 533.140625 353.382812 532.664062 352.386719 531.191406 352.292969 C 531.046875 352.285156 530.921875 352.179688 530.890625 352.039062 C 530.859375 351.898438 530.921875 351.75 531.046875 351.679688 C 532.035156 351.113281 532.679688 350.566406 533.066406 350.054688 C 534.074219 348.742188 533.460938 347.539062 532.183594 346.5625 C 532.09375 346.496094 532.046875 346.390625 532.054688 346.28125 C 532.179688 344.328125 531.96875 344.265625 528.863281 343.863281 C 528.730469 343.847656 528.621094 343.75 528.585938 343.621094 C 528.550781 343.492188 528.597656 343.355469 528.703125 343.277344 C 529.078125 342.992188 529.304688 342.714844 529.386719 342.460938 C 529.574219 341.882812 529.039062 340.886719 525.347656 339.6875 L 525.511719 339.699219 C 524.0625 339.976562 522.710938 340.144531 521.449219 340.300781 C 518.257812 340.691406 515.609375 341.023438 512.976562 342.90625 C 510.632812 344.582031 506.878906 352.664062 503.316406 360.460938 L 502.96875 361.222656 L 502.628906 361.972656 C 502.613281 362.003906 502.59375 362.035156 502.570312 362.058594 C 498.613281 366.359375 494.847656 368.945312 491.273438 369.75 L 491.523438 369.363281 C 491.769531 370.535156 491.992188 371.636719 492.207031 372.695312 C 493.789062 380.507812 494.730469 385.085938 497.574219 387.558594 C 497.578125 387.5625 497.757812 387.703125 497.707031 387.925781 C 497.640625 388.203125 497.332031 388.207031 497.355469 388.203125 L 497.324219 387.878906 L 497.328125 388.207031 L 497.355469 388.203125 C 496.921875 388.25 494.984375 387.816406 493.109375 387.371094 C 491.75 387.050781 490.449219 386.726562 489.5 386.492188 C 489.039062 386.378906 488.664062 386.285156 488.5 386.246094 L 488.582031 386.257812 L 488.804688 386.164062 C 488.847656 386.125 487.746094 387.152344 487.367188 389.710938 C 487.386719 389.570312 487.089844 391.007812 489.957031 393.585938 L 489.738281 393.828125 L 489.480469 394.03125 C 489.457031 394.003906 488.324219 392.421875 487.335938 391.753906 C 486.804688 391.398438 486.59375 391.464844 486.480469 391.636719 C 485.671875 392.832031 485.550781 394.863281 486.84375 396.628906 C 486.792969 396.558594 487.574219 397.683594 491.378906 399.164062 L 491.132812 399.769531 L 487.160156 398.082031 L 487.621094 397.777344 C 487.628906 399.933594 487.996094 401.007812 492.226562 402.78125 C 492.394531 402.851562 492.472656 403.039062 492.40625 403.203125 C 492.34375 403.371094 492.15625 403.453125 491.988281 403.394531 C 491.921875 403.371094 491.835938 403.339844 491.769531 403.3125 C 490.953125 403.019531 490.375 402.832031 490.207031 402.902344 L 490.082031 402.597656 L 490.207031 402.902344 C 490.207031 402.902344 490.210938 402.898438 490.21875 402.894531 C 490.296875 402.835938 490.101562 403.074219 491.414062 404.753906 C 491.9375 405.421875 493.476562 406.230469 495.101562 406.992188 C 495.492188 407.175781 495.898438 407.359375 496.269531 407.527344 C 496.65625 407.703125 496.902344 407.816406 497.246094 407.976562 C 498.160156 408.40625 499.265625 409.058594 500.402344 409.730469 C 502.726562 411.101562 505.117188 412.503906 506.558594 412.539062 L 506.566406 412.539062 C 506.558594 412.539062 512.914062 412.871094 524.867188 413.382812 C 525.582031 413.414062 528.699219 411.902344 529.882812 410.125 C 531.332031 407.949219 532.445312 405.082031 533.382812 402.671875 C 534.296875 400.316406 535.183594 397.824219 536.253906 397.953125 C 536.285156 397.957031 536.316406 397.964844 536.34375 397.976562 C 540.832031 399.894531 542.074219 400.875 541.894531 403.03125 C 541.839844 403.644531 541.675781 404.351562 541.484375 405.175781 C 541.179688 406.503906 540.785156 408.207031 540.589844 410.542969 C 540.101562 416.347656 537.238281 417.636719 533.546875 417.8125 C 532.675781 417.851562 531.953125 417.515625 531.394531 416.988281 C 529.921875 415.597656 529.46875 412.65625 530.550781 411.511719 C 531.277344 410.742188 533.53125 409.175781 535.125 409.84375 C 536.765625 410.535156 536.207031 413.972656 535.90625 415.394531 C 535.773438 416.003906 535.554688 416.609375 535.238281 417.148438 C 534.292969 418.773438 532.496094 419.773438 530.066406 418.363281 L 530.054688 418.355469 C 530.0625 418.359375 530.058594 418.355469 530.0625 418.359375 L 530.058594 418.359375 C 529.667969 418.117188 524.703125 414.605469 533.605469 397.691406 L 533.738281 398.132812 C 532.992188 397.710938 532.265625 397.574219 531.460938 397.425781 C 530.320312 397.214844 529.070312 396.988281 527.640625 395.832031 C 526.523438 394.929688 521.039062 391.886719 514.394531 390.316406 C 511.609375 389.65625 500.039062 387.40625 498.402344 387.871094 C 498.355469 387.882812 498.332031 387.894531 498.324219 387.898438 C 498.246094 387.9375 498.527344 387.820312 498.398438 387.5625 C 498.371094 387.503906 498.332031 387.480469 498.339844 387.484375 L 498.152344 387.429688 L 498.339844 387.484375 C 498.609375 387.664062 500.34375 387.929688 502.558594 388.257812 C 505.570312 388.707031 509.601562 389.269531 510.15625 390.066406 L 509.882812 390.253906 L 510.15625 390.066406 C 510.171875 390.089844 510.1875 390.117188 510.199219 390.144531 C 510.421875 390.585938 510 390.886719 509.722656 391.023438 C 509.707031 391.03125 509.707031 391.03125 509.6875 391.039062 L 509.6875 391.042969 C 506.089844 392.765625 495.941406 389.296875 491.636719 387.835938 C 490.476562 387.445312 489.777344 387.210938 489.628906 387.195312 C 489.597656 387.191406 489.671875 387.207031 489.757812 387.167969 L 489.757812 387.164062 C 483.195312 390.3125 482.59375 398.238281 482.675781 407.015625 C 482.683594 408.035156 482.703125 409.0625 482.722656 410.09375 C 482.738281 411.121094 482.757812 412.160156 482.765625 413.183594 C 482.785156 415.28125 482.738281 417.332031 482.636719 419.332031 C 482.074219 430.542969 479.828125 440.152344 478.214844 447.046875 C 477.308594 450.941406 476.609375 453.933594 476.511719 455.882812 C 476.5 456.058594 476.355469 456.199219 476.175781 456.195312 C 460.472656 455.949219 455.289062 455.964844 444.839844 456.015625 L 443.753906 456.019531 L 442.589844 456.027344 L 442.382812 456.027344 C 442.203125 456.027344 442.054688 455.882812 442.054688 455.699219 C 442.050781 455.519531 442.199219 455.371094 442.378906 455.371094 Z M 442.378906 455.371094 " fill-opacity="1" fill-rule="nonzero"/></g></svg>