<svg xmlns="http://www.w3.org/2000/svg" xmlns:xlink="http://www.w3.org/1999/xlink" width="1366" zoomAndPan="magnify" viewBox="0 0 1024.5 576" height="768" preserveAspectRatio="xMidYMid meet" version="1.0"><defs><g/><clipPath id="77347bccf9"><path d="M 0 0.140625 L 1024 0.140625 L 1024 575.859375 L 0 575.859375 Z M 0 0.140625 " clip-rule="nonzero"/></clipPath><clipPath id="20b9a3575a"><path d="M 426.886719 150 L 473.046875 150 L 473.046875 174.875 L 426.886719 174.875 Z M 426.886719 150 " clip-rule="nonzero"/></clipPath><clipPath id="1d82c1fed5"><path d="M 430 145.5 L 470 145.5 L 470 173 L 430 173 Z M 430 145.5 " clip-rule="nonzero"/></clipPath><clipPath id="6a12a89d13"><path d="M 426.886719 241.417969 L 633.886719 241.417969 L 633.886719 471 L 426.886719 471 Z M 426.886719 241.417969 " clip-rule="nonzero"/></clipPath></defs><g clip-path="url(#77347bccf9)"><path fill="#ffffff" d="M 0 0.140625 L 1024.5 0.140625 L 1024.5 583.640625 L 0 583.640625 Z M 0 0.140625 " fill-opacity="1" fill-rule="nonzero"/><path fill="#ffffff" d="M 0 0.140625 L 1024.5 0.140625 L 1024.5 576.140625 L 0 576.140625 Z M 0 0.140625 " fill-opacity="1" fill-rule="nonzero"/><path fill="#374151" d="M 0 0.140625 L 1024.5 0.140625 L 1024.5 576.140625 L 0 576.140625 Z M 0 0.140625 " fill-opacity="1" fill-rule="nonzero"/></g><g clip-path="url(#20b9a3575a)"><path fill="#ffffff" d="M 470.285156 150.574219 L 470.273438 150.652344 L 468.554688 169.347656 L 468.480469 170.199219 L 467.613281 170.089844 L 466.964844 170.007812 C 465.667969 169.84375 464.394531 169.753906 463.179688 169.753906 C 457.308594 169.753906 453.738281 171.699219 452.132812 172.859375 L 449.96875 173.023438 L 449.960938 173.023438 L 447.796875 172.859375 C 446.191406 171.699219 442.621094 169.753906 436.75 169.753906 C 435.535156 169.753906 434.261719 169.84375 432.964844 170.007812 L 432.316406 170.089844 L 431.449219 170.199219 L 431.375 169.347656 L 429.65625 150.652344 L 429.648438 150.574219 L 426.90625 150.574219 L 429.699219 171.75 L 448.121094 174.875 L 451.808594 174.875 L 470.230469 171.75 L 473.023438 150.574219 L 470.285156 150.574219 " fill-opacity="1" fill-rule="nonzero"/></g><g clip-path="url(#1d82c1fed5)"><path fill="#ffffff" d="M 432.777344 149.449219 L 432.882812 150.523438 L 434.289062 165.070312 L 434.777344 165.140625 C 434.863281 165.148438 441.664062 166.175781 446.253906 169.585938 C 444.050781 168.578125 440.933594 167.695312 436.789062 167.695312 C 435.707031 167.695312 434.5625 167.757812 433.34375 167.890625 L 431.757812 150.574219 L 431.664062 149.550781 C 432.050781 149.507812 432.417969 149.476562 432.777344 149.449219 Z M 444.179688 149.40625 C 447.230469 150.984375 448.84375 152.800781 449.316406 153.386719 L 449.316406 170.730469 C 445.355469 166.015625 437.507812 164.363281 435.449219 164 L 434.132812 150.398438 L 433.78125 146.773438 C 438.296875 146.988281 441.710938 148.121094 444.179688 149.40625 Z M 450.617188 153.386719 C 451.085938 152.800781 452.699219 150.984375 455.75 149.40625 C 458.21875 148.121094 461.632812 146.988281 466.148438 146.773438 L 465.796875 150.398438 L 464.480469 164 C 462.421875 164.363281 454.574219 166.015625 450.617188 170.730469 Z M 467.046875 150.523438 L 467.152344 149.449219 C 467.511719 149.476562 467.882812 149.507812 468.269531 149.550781 L 468.175781 150.574219 L 466.585938 167.890625 C 465.367188 167.757812 464.222656 167.695312 463.140625 167.695312 C 459 167.695312 455.878906 168.578125 453.675781 169.585938 C 458.265625 166.175781 465.066406 165.148438 465.152344 165.140625 L 465.640625 165.070312 Z M 432.207031 169.277344 L 432.859375 169.195312 C 437.308594 168.617188 440.789062 169.074219 443.394531 169.851562 C 443.648438 169.929688 443.894531 170.007812 444.132812 170.089844 C 444.375 170.171875 444.601562 170.257812 444.824219 170.34375 C 445.046875 170.429688 445.261719 170.515625 445.46875 170.605469 C 446.492188 171.054688 447.316406 171.53125 447.941406 171.953125 C 448.066406 172.039062 448.1875 172.121094 448.292969 172.199219 L 451.636719 172.199219 C 451.742188 172.121094 451.863281 172.039062 451.988281 171.953125 C 452.613281 171.53125 453.4375 171.054688 454.460938 170.605469 C 454.671875 170.515625 454.882812 170.429688 455.105469 170.34375 C 455.328125 170.257812 455.554688 170.171875 455.796875 170.089844 C 456.035156 170.007812 456.28125 169.929688 456.539062 169.851562 C 459.140625 169.074219 462.621094 168.617188 467.074219 169.195312 L 467.722656 169.277344 L 469.441406 150.574219 L 469.632812 148.457031 L 469.027344 148.390625 C 468.414062 148.320312 467.828125 148.261719 467.269531 148.222656 L 467.535156 145.496094 L 466.824219 145.515625 C 460.640625 145.671875 456.355469 147.425781 453.578125 149.1875 C 451.757812 150.34375 450.589844 151.5 449.96875 152.210938 L 449.960938 152.210938 C 449.34375 151.5 448.171875 150.34375 446.351562 149.1875 C 443.574219 147.425781 439.289062 145.671875 433.105469 145.515625 L 432.394531 145.496094 L 432.660156 148.222656 C 432.101562 148.261719 431.515625 148.320312 430.90625 148.390625 L 430.296875 148.457031 L 430.492188 150.574219 L 432.207031 169.277344 " fill-opacity="1" fill-rule="nonzero"/></g><g fill="#ffffff" fill-opacity="1"><g transform="translate(482.46965, 167.68624)"><g><path d="M 1.640625 -0.109375 C 2.179688 -0.847656 2.453125 -1.832031 2.453125 -3.0625 L 2.453125 -13.3125 C 2.453125 -14.550781 2.179688 -15.535156 1.640625 -16.265625 L 1.640625 -16.390625 L 8.28125 -16.390625 C 10.125 -16.390625 11.664062 -16.015625 12.90625 -15.265625 C 14.144531 -14.523438 14.765625 -13.300781 14.765625 -11.59375 C 14.765625 -10.476562 14.472656 -9.550781 13.890625 -8.8125 C 13.316406 -8.070312 12.566406 -7.53125 11.640625 -7.1875 C 10.710938 -6.84375 9.726562 -6.671875 8.6875 -6.671875 C 7.9375 -6.671875 7.222656 -6.800781 6.546875 -7.0625 L 6.546875 -7.4375 C 7.003906 -7.332031 7.472656 -7.28125 7.953125 -7.28125 C 9.015625 -7.28125 9.832031 -7.6875 10.40625 -8.5 C 10.976562 -9.320312 11.265625 -10.351562 11.265625 -11.59375 C 11.265625 -12.757812 10.96875 -13.753906 10.375 -14.578125 C 9.789062 -15.410156 8.960938 -15.828125 7.890625 -15.828125 C 7.171875 -15.828125 6.492188 -15.707031 5.859375 -15.46875 L 5.859375 -3.0625 C 5.859375 -1.832031 6.128906 -0.847656 6.671875 -0.109375 L 6.671875 0 L 1.640625 0 Z M 1.640625 -0.109375 "/></g></g></g><g fill="#ffffff" fill-opacity="1"><g transform="translate(497.183104, 167.68624)"><g><path d="M 1.359375 -0.109375 C 1.554688 -0.410156 1.710938 -0.789062 1.828125 -1.25 C 1.953125 -1.707031 2.015625 -2.210938 2.015625 -2.765625 L 2.015625 -13.4375 C 2.015625 -14.070312 1.941406 -14.59375 1.796875 -15 C 1.660156 -15.40625 1.453125 -15.742188 1.171875 -16.015625 L 1.171875 -16.125 L 5.0625 -17.4375 L 5.171875 -17.4375 L 5.171875 -2.765625 C 5.171875 -2.210938 5.226562 -1.707031 5.34375 -1.25 C 5.46875 -0.789062 5.628906 -0.410156 5.828125 -0.109375 L 5.828125 0 L 1.359375 0 Z M 1.359375 -0.109375 "/></g></g></g><g fill="#ffffff" fill-opacity="1"><g transform="translate(503.779436, 167.68624)"><g><path d="M 11.640625 -3.953125 C 11.367188 -2.660156 10.769531 -1.628906 9.84375 -0.859375 C 8.925781 -0.0859375 7.804688 0.296875 6.484375 0.296875 C 5.441406 0.296875 4.5 0.0664062 3.65625 -0.390625 C 2.8125 -0.847656 2.140625 -1.519531 1.640625 -2.40625 C 1.148438 -3.300781 0.90625 -4.359375 0.90625 -5.578125 C 0.90625 -6.835938 1.171875 -7.953125 1.703125 -8.921875 C 2.234375 -9.898438 2.941406 -10.65625 3.828125 -11.1875 C 4.722656 -11.726562 5.691406 -12 6.734375 -12 C 7.703125 -12 8.546875 -11.796875 9.265625 -11.390625 C 9.984375 -10.992188 10.53125 -10.453125 10.90625 -9.765625 C 11.28125 -9.078125 11.46875 -8.332031 11.46875 -7.53125 L 3.46875 -7.53125 C 3.507812 -6.363281 3.738281 -5.363281 4.15625 -4.53125 C 4.582031 -3.695312 5.132812 -3.066406 5.8125 -2.640625 C 6.488281 -2.222656 7.234375 -2.015625 8.046875 -2.015625 C 8.816406 -2.015625 9.492188 -2.1875 10.078125 -2.53125 C 10.660156 -2.875 11.101562 -3.347656 11.40625 -3.953125 Z M 5.859375 -11.328125 C 5.148438 -11.328125 4.578125 -11.050781 4.140625 -10.5 C 3.703125 -9.945312 3.476562 -9.140625 3.46875 -8.078125 L 8.359375 -8.078125 C 8.265625 -9.078125 8 -9.867188 7.5625 -10.453125 C 7.132812 -11.035156 6.566406 -11.328125 5.859375 -11.328125 Z M 5.859375 -11.328125 "/></g></g></g><g fill="#ffffff" fill-opacity="1"><g transform="translate(515.615647, 167.68624)"><g><path d="M 6.875 0.296875 C 4.925781 0.296875 3.226562 -0.164062 1.78125 -1.09375 L 1.78125 -13.4375 C 1.78125 -14.070312 1.707031 -14.59375 1.5625 -15 C 1.425781 -15.40625 1.21875 -15.742188 0.9375 -16.015625 L 0.9375 -16.125 L 4.828125 -17.4375 L 4.9375 -17.4375 L 4.9375 -9.90625 L 5.0625 -9.90625 C 5.4375 -10.5625 5.925781 -11.070312 6.53125 -11.4375 C 7.132812 -11.8125 7.835938 -12 8.640625 -12 C 9.554688 -12 10.363281 -11.757812 11.0625 -11.28125 C 11.769531 -10.8125 12.3125 -10.132812 12.6875 -9.25 C 13.070312 -8.375 13.265625 -7.359375 13.265625 -6.203125 C 13.265625 -5.046875 13 -3.972656 12.46875 -2.984375 C 11.945312 -1.992188 11.203125 -1.195312 10.234375 -0.59375 C 9.265625 0 8.144531 0.296875 6.875 0.296875 Z M 7 -0.234375 C 7.914062 -0.234375 8.625 -0.710938 9.125 -1.671875 C 9.625 -2.628906 9.875 -3.929688 9.875 -5.578125 C 9.875 -7.085938 9.632812 -8.265625 9.15625 -9.109375 C 8.6875 -9.953125 8.03125 -10.375 7.1875 -10.375 C 6.570312 -10.375 6.0625 -10.1875 5.65625 -9.8125 C 5.257812 -9.445312 5.019531 -8.976562 4.9375 -8.40625 L 4.9375 -1.890625 C 5.019531 -1.441406 5.238281 -1.050781 5.59375 -0.71875 C 5.945312 -0.394531 6.414062 -0.234375 7 -0.234375 Z M 7 -0.234375 "/></g></g></g><g fill="#ffffff" fill-opacity="1"><g transform="translate(529.323244, 167.68624)"><g><path d="M 1.640625 -0.109375 C 2.179688 -0.847656 2.453125 -1.832031 2.453125 -3.0625 L 2.453125 -13.3125 C 2.453125 -14.550781 2.179688 -15.535156 1.640625 -16.265625 L 1.640625 -16.390625 L 8.59375 -16.390625 C 10.25 -16.390625 11.617188 -16.078125 12.703125 -15.453125 C 13.796875 -14.828125 14.34375 -13.84375 14.34375 -12.5 C 14.34375 -11.46875 13.984375 -10.640625 13.265625 -10.015625 C 12.546875 -9.390625 11.691406 -9 10.703125 -8.84375 L 10.703125 -8.75 C 11.878906 -8.613281 12.882812 -8.171875 13.71875 -7.421875 C 14.5625 -6.679688 14.984375 -5.707031 14.984375 -4.5 C 14.984375 -2.9375 14.363281 -1.796875 13.125 -1.078125 C 11.894531 -0.359375 10.382812 0 8.59375 0 L 1.640625 0 Z M 7.5625 -9.0625 C 8.59375 -9.0625 9.394531 -9.375 9.96875 -10 C 10.550781 -10.625 10.84375 -11.441406 10.84375 -12.453125 C 10.84375 -13.429688 10.546875 -14.238281 9.953125 -14.875 C 9.367188 -15.507812 8.578125 -15.828125 7.578125 -15.828125 C 7.003906 -15.828125 6.429688 -15.71875 5.859375 -15.5 L 5.859375 -9.0625 Z M 7.75 -0.5625 C 8.851562 -0.5625 9.738281 -0.914062 10.40625 -1.625 C 11.082031 -2.332031 11.421875 -3.289062 11.421875 -4.5 C 11.421875 -5.738281 11.078125 -6.707031 10.390625 -7.40625 C 9.703125 -8.113281 8.78125 -8.46875 7.625 -8.46875 L 5.859375 -8.46875 L 5.859375 -0.984375 C 6.367188 -0.703125 7 -0.5625 7.75 -0.5625 Z M 7.75 -0.5625 "/></g></g></g><g fill="#ffffff" fill-opacity="1"><g transform="translate(544.808655, 167.68624)"><g><path d="M 6.8125 0.296875 C 5.65625 0.296875 4.625 0.0351562 3.71875 -0.484375 C 2.8125 -1.015625 2.101562 -1.742188 1.59375 -2.671875 C 1.09375 -3.609375 0.84375 -4.671875 0.84375 -5.859375 C 0.84375 -7.035156 1.09375 -8.085938 1.59375 -9.015625 C 2.101562 -9.953125 2.8125 -10.679688 3.71875 -11.203125 C 4.625 -11.734375 5.65625 -12 6.8125 -12 C 7.945312 -12 8.96875 -11.734375 9.875 -11.203125 C 10.78125 -10.679688 11.484375 -9.953125 11.984375 -9.015625 C 12.492188 -8.085938 12.75 -7.035156 12.75 -5.859375 C 12.75 -4.671875 12.492188 -3.609375 11.984375 -2.671875 C 11.484375 -1.742188 10.78125 -1.015625 9.875 -0.484375 C 8.96875 0.0351562 7.945312 0.296875 6.8125 0.296875 Z M 6.8125 -0.234375 C 7.664062 -0.234375 8.300781 -0.742188 8.71875 -1.765625 C 9.144531 -2.785156 9.359375 -4.148438 9.359375 -5.859375 C 9.359375 -7.554688 9.144531 -8.914062 8.71875 -9.9375 C 8.300781 -10.957031 7.664062 -11.46875 6.8125 -11.46875 C 5.957031 -11.46875 5.3125 -10.957031 4.875 -9.9375 C 4.445312 -8.914062 4.234375 -7.554688 4.234375 -5.859375 C 4.234375 -4.148438 4.445312 -2.785156 4.875 -1.765625 C 5.3125 -0.742188 5.957031 -0.234375 6.8125 -0.234375 Z M 6.8125 -0.234375 "/></g></g></g><g fill="#ffffff" fill-opacity="1"><g transform="translate(557.931429, 167.68624)"><g><path d="M 6.8125 0.296875 C 5.65625 0.296875 4.625 0.0351562 3.71875 -0.484375 C 2.8125 -1.015625 2.101562 -1.742188 1.59375 -2.671875 C 1.09375 -3.609375 0.84375 -4.671875 0.84375 -5.859375 C 0.84375 -7.035156 1.09375 -8.085938 1.59375 -9.015625 C 2.101562 -9.953125 2.8125 -10.679688 3.71875 -11.203125 C 4.625 -11.734375 5.65625 -12 6.8125 -12 C 7.945312 -12 8.96875 -11.734375 9.875 -11.203125 C 10.78125 -10.679688 11.484375 -9.953125 11.984375 -9.015625 C 12.492188 -8.085938 12.75 -7.035156 12.75 -5.859375 C 12.75 -4.671875 12.492188 -3.609375 11.984375 -2.671875 C 11.484375 -1.742188 10.78125 -1.015625 9.875 -0.484375 C 8.96875 0.0351562 7.945312 0.296875 6.8125 0.296875 Z M 6.8125 -0.234375 C 7.664062 -0.234375 8.300781 -0.742188 8.71875 -1.765625 C 9.144531 -2.785156 9.359375 -4.148438 9.359375 -5.859375 C 9.359375 -7.554688 9.144531 -8.914062 8.71875 -9.9375 C 8.300781 -10.957031 7.664062 -11.46875 6.8125 -11.46875 C 5.957031 -11.46875 5.3125 -10.957031 4.875 -9.9375 C 4.445312 -8.914062 4.234375 -7.554688 4.234375 -5.859375 C 4.234375 -4.148438 4.445312 -2.785156 4.875 -1.765625 C 5.3125 -0.742188 5.957031 -0.234375 6.8125 -0.234375 Z M 6.8125 -0.234375 "/></g></g></g><g fill="#ffffff" fill-opacity="1"><g transform="translate(571.054204, 167.68624)"><g><path d="M 1.359375 -0.109375 C 1.554688 -0.410156 1.710938 -0.789062 1.828125 -1.25 C 1.953125 -1.707031 2.015625 -2.210938 2.015625 -2.765625 L 2.015625 -13.4375 C 2.015625 -14.070312 1.941406 -14.59375 1.796875 -15 C 1.660156 -15.40625 1.453125 -15.742188 1.171875 -16.015625 L 1.171875 -16.125 L 5.0625 -17.4375 L 5.171875 -17.4375 L 5.171875 -2.765625 C 5.171875 -2.210938 5.226562 -1.707031 5.34375 -1.25 C 5.46875 -0.789062 5.628906 -0.410156 5.828125 -0.109375 L 5.828125 0 L 1.359375 0 Z M 11.71875 0.1875 C 10.988281 0.1875 10.382812 0.0546875 9.90625 -0.203125 C 9.4375 -0.472656 8.984375 -0.910156 8.546875 -1.515625 L 5.640625 -5.484375 L 5.640625 -5.59375 L 8.515625 -8.890625 C 9.128906 -9.597656 9.4375 -10.203125 9.4375 -10.703125 C 9.4375 -11.054688 9.300781 -11.351562 9.03125 -11.59375 L 9.03125 -11.703125 L 12.609375 -11.703125 L 12.609375 -11.59375 C 11.960938 -11.28125 11.398438 -10.941406 10.921875 -10.578125 C 10.441406 -10.222656 9.929688 -9.75 9.390625 -9.15625 L 7.984375 -7.625 L 12.421875 -1.640625 C 12.953125 -0.921875 13.351562 -0.515625 13.625 -0.421875 L 13.625 -0.25 C 13.375 -0.125 13.078125 -0.0195312 12.734375 0.0625 C 12.390625 0.144531 12.050781 0.1875 11.71875 0.1875 Z M 11.71875 0.1875 "/></g></g></g><g clip-path="url(#6a12a89d13)"><path fill="#ffffff" d="M 427.28125 468.714844 L 480.242188 469.605469 L 480.023438 469.671875 C 485.539062 465.796875 485.121094 460.496094 484.695312 455.371094 C 484.640625 454.71875 484.585938 454.054688 484.546875 453.414062 L 484.734375 453.710938 C 473.691406 447.59375 467.007812 445.828125 464.234375 447.832031 L 464.34375 447.707031 C 462.472656 451.261719 462.488281 456.878906 462.515625 462.757812 C 462.523438 464.871094 462.53125 467.003906 462.449219 469.0625 L 462.117188 468.6875 C 465.058594 468.9375 467 465.679688 467.867188 455.519531 C 468.042969 453.472656 468.171875 451.171875 468.261719 448.585938 C 468.265625 448.476562 468.316406 448.375 468.402344 448.308594 C 469.300781 447.609375 476.203125 446.789062 478.886719 447.679688 L 478.941406 447.703125 L 496.296875 456.917969 L 496.386719 456.980469 C 496.40625 457.003906 496.417969 457.011719 496.421875 457.011719 C 496.402344 457 496.359375 457 496.339844 457.011719 C 496.339844 457.011719 496.351562 457.003906 496.375 456.980469 C 496.640625 456.714844 496.980469 455.832031 497.5625 454.261719 C 498.304688 452.265625 499.382812 449.359375 501.164062 445.894531 C 502.105469 444.066406 503.148438 442.582031 504.117188 441.195312 C 504.988281 439.953125 505.796875 438.804688 506.445312 437.539062 C 506.773438 436.902344 507.0625 436.238281 507.292969 435.527344 L 507.433594 435.9375 C 503.214844 433.035156 497.6875 427.898438 491.539062 422.183594 C 483.726562 414.925781 474.890625 406.71875 466.371094 400.855469 C 460.394531 396.738281 454.613281 393.808594 449.476562 393.144531 C 444.46875 392.492188 440.386719 400.394531 439.808594 404.851562 C 439.722656 405.507812 439.722656 406.046875 439.796875 406.441406 C 440.050781 407.785156 442.15625 417.871094 446.445312 422.828125 C 456.523438 434.480469 473.902344 445.28125 473.917969 445.292969 L 473.726562 445.601562 L 473.832031 445.949219 C 462.75 449.3125 459.175781 445.273438 458.992188 445.054688 L 458.996094 445.058594 C 458.992188 445.054688 458.988281 445.050781 458.984375 445.046875 L 458.988281 445.050781 C 457.617188 443.359375 456.164062 441.816406 454.679688 440.238281 C 453.148438 438.609375 451.582031 436.945312 450.046875 435.050781 C 446.152344 430.261719 442.472656 424.039062 439.921875 413.234375 C 439.6875 412.234375 441.0625 404.285156 445.167969 399.875 C 445.828125 399.160156 446.558594 398.433594 447.308594 397.6875 C 448.128906 396.871094 448.976562 396.023438 449.820312 395.117188 C 452.449219 392.292969 455.007812 388.894531 456.300781 384.136719 C 456.582031 383.097656 456.363281 382.597656 455.828125 382.453125 C 455.332031 382.320312 454.445312 382.414062 453.019531 382.992188 L 453.136719 382.917969 C 451.21875 384.769531 451.808594 387.761719 454.792969 390.847656 C 457.488281 393.640625 462.03125 396.339844 467.855469 397.929688 L 467.402344 398.34375 C 467.117188 396.738281 467.464844 378.703125 467.730469 365.007812 C 467.886719 356.988281 468.011719 350.445312 467.972656 349.410156 C 467.96875 349.332031 467.988281 349.257812 468.035156 349.191406 C 468.121094 349.0625 468.265625 349.027344 468.273438 349.023438 C 469.535156 348.636719 491.769531 348.519531 513.070312 348.40625 C 532.378906 348.300781 551.003906 348.199219 553.082031 347.925781 C 553.28125 347.898438 553.460938 348.039062 553.488281 348.238281 C 554.09375 352.769531 552.277344 404.867188 552.277344 404.832031 C 552.273438 404.996094 552.160156 405.136719 552 405.171875 C 544.566406 406.921875 524.496094 406.894531 507.128906 406.875 C 493.714844 406.859375 481.949219 406.847656 478.648438 407.625 C 478.582031 407.640625 478.523438 407.65625 478.464844 407.671875 L 478.703125 407.175781 C 479.445312 408.867188 488.175781 410.667969 495.578125 412.148438 C 499.761719 412.988281 503.460938 413.722656 504.425781 414.300781 C 515.257812 420.765625 524.382812 433.4375 530.535156 441.96875 C 533.730469 446.410156 536.066406 449.632812 537.4375 450.453125 C 537.800781 450.667969 537.960938 450.636719 538.039062 450.589844 L 537.976562 450.636719 L 544.371094 444.695312 C 544.453125 444.621094 544.5625 444.589844 544.671875 444.605469 C 547.847656 445.058594 551.082031 446.121094 556.207031 447.804688 C 557.714844 448.300781 559.402344 448.855469 561.292969 449.460938 L 561.117188 449.449219 C 561.953125 449.296875 562.875 449.082031 563.863281 448.851562 C 564.96875 448.597656 566.160156 448.320312 567.375 448.09375 C 571.128906 447.40625 575.296875 447.191406 578.523438 449.660156 C 581.390625 451.851562 586.53125 463.730469 586.015625 465.628906 L 585.980469 465.722656 C 584.183594 468.726562 581.886719 468.167969 580.1875 467.753906 C 579.6875 467.632812 579.261719 467.53125 578.890625 467.507812 C 578.71875 467.5 578.578125 467.371094 578.550781 467.199219 C 576.117188 450.859375 569.039062 448.898438 565.921875 449.363281 C 565.796875 449.382812 565.679688 449.402344 565.570312 449.429688 C 564.820312 449.597656 563.210938 452.441406 562.757812 454.457031 C 561.929688 458.15625 562.226562 463.339844 562.421875 466.667969 C 562.507812 468.15625 562.582031 469.355469 562.484375 469.792969 C 562.476562 469.820312 562.46875 469.851562 562.460938 469.882812 L 562.117188 469.765625 L 562.460938 469.882812 C 562.445312 469.929688 562.3125 470.28125 561.953125 470.199219 C 561.75 470.152344 561.636719 469.96875 561.597656 469.902344 L 562.128906 469.996094 C 561.859375 470.207031 561.582031 470.082031 561.4375 469.929688 L 561.699219 469.679688 L 561.4375 469.929688 C 561.417969 469.910156 561.402344 469.890625 561.386719 469.871094 C 561.074219 469.46875 560.847656 468.328125 560.722656 467.722656 C 560.6875 467.550781 560.652344 467.390625 560.628906 467.296875 C 559.808594 463.84375 558.699219 462.785156 558.15625 462.914062 C 557.554688 463.054688 556.773438 464.597656 556.78125 468.417969 C 556.78125 468.503906 556.75 468.589844 556.695312 468.65625 C 556.5 468.882812 556.210938 469.007812 555.898438 468.878906 L 556.039062 468.542969 L 555.898438 468.878906 C 555.808594 468.84375 555.730469 468.789062 555.664062 468.730469 C 554.375 467.621094 553.125 460.128906 553.136719 457.941406 C 553.136719 457.753906 553.277344 457.601562 553.464844 457.582031 C 553.652344 457.566406 553.820312 457.691406 553.855469 457.875 C 554.300781 460.199219 552.375 467.730469 551.492188 469.417969 C 551.324219 469.738281 551.15625 470.019531 550.976562 470.160156 C 550.855469 470.253906 550.648438 470.34375 550.421875 470.226562 C 550.328125 470.179688 550.265625 470.105469 550.222656 470.042969 C 549.996094 469.71875 549.886719 468.855469 549.738281 467.769531 C 549.492188 466.007812 549.105469 463.257812 548.164062 459.714844 L 548.867188 459.722656 C 548.390625 461.382812 548.105469 462.925781 547.847656 464.308594 C 547.644531 465.410156 547.457031 466.417969 547.207031 467.289062 C 546.335938 470.324219 544.648438 471.65625 539.546875 470.382812 C 538.597656 470.148438 537.28125 469.796875 537.539062 468.761719 C 537.554688 468.703125 537.574219 468.644531 537.597656 468.585938 C 538.417969 466.621094 539.808594 464.671875 541.078125 462.882812 C 542.214844 461.285156 543.25 459.828125 543.78125 458.546875 C 544.464844 456.917969 544.308594 455.695312 542.410156 454.824219 C 540.582031 453.988281 540.207031 454.429688 540.058594 454.746094 C 539.933594 455.019531 539.902344 455.386719 539.871094 455.792969 C 539.851562 456.007812 539.835938 456.246094 539.792969 456.445312 L 539.789062 456.273438 C 541.78125 464.050781 539.671875 467.476562 536.785156 468.214844 C 535.867188 468.453125 534.90625 468.398438 534.046875 468.144531 L 533.988281 468.121094 L 501.628906 451.851562 C 501.539062 451.804688 501.46875 451.726562 501.441406 451.628906 C 501.414062 451.535156 501.425781 451.429688 501.476562 451.34375 L 513.179688 431.1875 L 513.238281 431.113281 C 545.164062 398.824219 566.4375 391.996094 566.496094 391.976562 C 575.046875 389.238281 583.0625 396.207031 585.113281 402.601562 C 585.3125 403.21875 585.453125 403.828125 585.539062 404.429688 C 587.5 418.414062 567.34375 432.101562 560.582031 435.90625 C 545.265625 444.527344 531.039062 450.550781 529.390625 450.085938 C 529.292969 450.058594 529.15625 449.996094 529.070312 449.851562 L 529.476562 450.019531 C 526.175781 450.917969 523.832031 446.800781 521.261719 442.4375 C 519.710938 439.804688 518.011719 436.929688 515.914062 434.5 C 514.585938 432.964844 514.855469 431.9375 516.09375 430.867188 C 516.558594 430.464844 517.167969 430.042969 517.859375 429.5625 C 518.859375 428.863281 520.070312 428.019531 521.386719 426.882812 C 522.414062 425.996094 523.503906 424.929688 524.613281 423.613281 C 526.640625 421.210938 532.199219 415.5625 542.523438 407.554688 L 542.398438 407.742188 C 542.632812 406.917969 543.9375 406.324219 545.550781 405.542969 C 549.125 403.816406 555.535156 400.714844 562.75 392.371094 L 562.695312 392.449219 C 565.300781 386.988281 564.554688 380.992188 560.878906 379.242188 C 559.976562 378.8125 558.871094 378.621094 557.558594 378.753906 C 557.375 378.773438 557.203125 378.652344 557.164062 378.472656 C 557.125 378.292969 557.226562 378.109375 557.402344 378.050781 C 563.101562 376.097656 562.441406 372.449219 561.757812 368.707031 C 561.730469 368.566406 561.710938 368.445312 561.683594 368.300781 C 558.984375 353.320312 555.09375 333.332031 550.691406 318.632812 C 550.683594 318.605469 550.78125 318.925781 551.09375 318.832031 C 551.195312 318.800781 551.234375 318.734375 551.21875 318.753906 L 550.933594 318.527344 L 551.21875 318.753906 C 550.945312 319.101562 550 322.082031 548.765625 326.019531 C 546.589844 332.953125 543.457031 343.101562 541.832031 343.589844 L 541.832031 343.585938 C 541.84375 343.582031 541.820312 343.589844 541.828125 343.589844 C 541.410156 343.710938 541.125 343.429688 540.980469 343.125 C 539.4375 339.890625 541.664062 334.667969 543.777344 329.636719 C 546.046875 324.238281 548.207031 319.015625 546.664062 315.78125 C 546.019531 314.429688 544.691406 313.378906 542.261719 312.839844 C 540.945312 312.546875 539.125 312.382812 537.121094 312.203125 C 534.789062 311.992188 532.222656 311.765625 530.03125 311.277344 C 528.5625 310.949219 527.226562 310.503906 526.230469 309.84375 C 524.523438 308.71875 523.875 306.859375 523.324219 305.304688 C 522.84375 303.960938 522.453125 302.90625 521.671875 302.390625 C 521.324219 302.160156 520.878906 302.027344 520.265625 302.050781 C 514.695312 302.269531 507.789062 312.660156 506.125 316.046875 L 505.574219 315.601562 C 507.195312 314.339844 508.65625 312.769531 509.976562 311.347656 C 511.03125 310.214844 512.007812 309.164062 512.890625 308.476562 C 513.515625 307.988281 514.160156 307.636719 514.792969 307.625 C 516.742188 307.59375 517.429688 309.628906 518.128906 311.550781 C 518.605469 312.851562 519.117188 314.246094 519.957031 315.4375 L 519.8125 315.316406 C 519.691406 315.265625 519.605469 315.316406 519.621094 315.308594 C 520.222656 314.988281 522.558594 310.585938 523.710938 308.035156 C 524.058594 307.265625 524.246094 306.773438 524.261719 306.652344 C 524.277344 306.519531 524.183594 306.835938 524.460938 306.960938 C 524.675781 307.058594 524.835938 306.898438 524.789062 306.933594 C 524.648438 307.046875 524.445312 307.035156 524.3125 306.914062 L 517.714844 300.6875 C 517.671875 300.644531 517.640625 300.597656 517.621094 300.539062 C 516.808594 298.175781 517.3125 296.238281 517.320312 296.207031 C 517.785156 294.433594 519.589844 291.65625 521.726562 288.359375 C 524.683594 283.796875 528.359375 278.121094 530.453125 272.308594 C 536.851562 254.546875 524.570312 246.65625 516.335938 243.695312 C 513.152344 242.546875 510.664062 242.175781 510.148438 242.230469 C 507.585938 242.496094 506.769531 246.242188 507.195312 250.292969 C 507.53125 253.523438 508.613281 256.351562 509.671875 256.929688 C 510.085938 257.160156 510.730469 257.386719 511.558594 257.675781 C 512.765625 258.101562 514.300781 258.640625 515.808594 259.464844 C 517.5 260.390625 519.171875 261.691406 520.332031 263.625 C 524.558594 270.675781 525.820312 294.222656 520.566406 299.125 L 520.082031 298.582031 C 525.382812 294.085938 528.386719 290.132812 529.757812 286.976562 C 538.152344 267.675781 527.042969 251.785156 515.507812 245.636719 C 509.929688 242.664062 503.089844 243.605469 500.605469 244.480469 C 498.699219 245.152344 492.238281 248.730469 491.359375 249.535156 C 484.175781 256.109375 482.132812 269.503906 484.324219 280.09375 C 486.605469 291.128906 493.285156 299.167969 493.792969 299.734375 L 493.160156 299.953125 C 493.378906 296.835938 493.523438 295.222656 494.667969 291.019531 C 494.703125 290.886719 494.8125 290.785156 494.945312 290.757812 C 495.078125 290.730469 495.214844 290.78125 495.300781 290.886719 C 500.800781 297.726562 504.515625 299.433594 504.460938 299.40625 L 504.398438 299.386719 C 511.769531 301.246094 518.644531 297.152344 521.011719 287.777344 C 521.820312 284.570312 522.101562 280.742188 521.679688 276.328125 L 521.683594 276.226562 C 522.234375 273.246094 519.019531 258.921875 508.445312 256.972656 C 508.375 256.957031 508.304688 256.945312 508.230469 256.933594 C 505.460938 256.46875 499.800781 257.785156 496.875 261.320312 C 494.09375 264.679688 494.148438 272.5625 494.203125 277.84375 C 494.203125 278.035156 494.207031 278.371094 494.210938 278.546875 C 494.242188 282.347656 494.613281 285.855469 494.949219 289.042969 C 495.226562 291.664062 495.480469 294.074219 495.5 296.234375 C 495.519531 298.75 495.222656 300.96875 494.226562 302.800781 L 494.214844 302.820312 L 487.117188 313.894531 L 486.546875 313.445312 C 491.539062 308.25 497.835938 308.734375 497.871094 308.738281 L 497.84375 309.101562 L 497.5 309.214844 C 496.03125 304.808594 495.011719 303.042969 494.75 302.847656 C 494.71875 302.824219 494.824219 302.917969 494.984375 302.867188 C 495.191406 302.796875 495.1875 302.59375 495.183594 302.652344 C 495.179688 302.691406 495.199219 302.859375 495.308594 303.175781 C 495.515625 303.808594 495.988281 304.835938 496.777344 306.109375 C 499.324219 310.222656 504.699219 316.074219 506.78125 318.339844 C 507.195312 318.792969 507.492188 319.113281 507.59375 319.234375 C 507.664062 319.324219 507.691406 319.441406 507.667969 319.554688 C 505.703125 327.671875 506.167969 340.722656 507.144531 347.515625 L 506.421875 347.558594 C 506.574219 340.402344 506.253906 320.753906 498.511719 313.691406 C 493.070312 308.726562 480.730469 313.769531 475.542969 316.859375 C 466.675781 322.148438 466.179688 322.578125 463.785156 324.632812 L 463.785156 324.628906 L 463.785156 324.632812 L 463.769531 324.070312 C 468.777344 327.925781 469.238281 343.441406 467.722656 345.40625 C 467.667969 345.476562 467.605469 345.542969 467.527344 345.597656 C 467.433594 345.664062 467.3125 345.679688 467.203125 345.644531 C 467.09375 345.609375 467.007812 345.519531 466.972656 345.410156 L 461.175781 327.398438 L 461.882812 327.320312 C 460.398438 344.84375 457.4375 357.386719 457.4375 357.398438 C 454.292969 370.730469 449.648438 382.171875 449.644531 382.175781 L 449.230469 381.683594 C 459.261719 379.507812 463.839844 380.566406 463.898438 380.578125 C 465.628906 380.984375 467.285156 386.304688 467.234375 386.148438 L 466.886719 386.261719 L 467.1875 386.058594 C 471.949219 393.09375 474.699219 400.003906 477.574219 407.210938 C 477.996094 408.273438 478.414062 409.320312 478.851562 410.394531 C 479.472656 411.9375 481.800781 414.472656 486.070312 417.46875 C 495.316406 423.960938 503.171875 430.46875 509.871094 436.019531 C 514.867188 440.15625 519.214844 443.757812 523.019531 446.429688 C 525.761719 448.351562 528.203125 449.78125 530.390625 450.585938 L 530.429688 450.601562 L 558.894531 464.765625 L 558.9375 464.789062 C 559.113281 464.910156 559.265625 465.015625 559.445312 465.136719 C 559.625 465.261719 559.804688 465.386719 559.992188 465.511719 C 561.8125 466.746094 564.203125 468.148438 569.320312 468.875 C 573.097656 469.414062 577.277344 468.679688 585.625 467.191406 L 585.6875 467.1875 L 633.554688 466.777344 C 633.753906 466.777344 633.917969 466.9375 633.921875 467.140625 C 633.921875 467.339844 633.761719 467.503906 633.558594 467.507812 L 585.695312 467.914062 L 585.753906 467.910156 C 577.453125 469.386719 573.136719 470.152344 569.21875 469.597656 C 563.976562 468.851562 561.480469 467.402344 559.582031 466.113281 C 559.394531 465.988281 559.207031 465.859375 559.03125 465.738281 C 558.859375 465.617188 558.695312 465.503906 558.527344 465.390625 L 558.570312 465.417969 L 530.105469 451.253906 L 530.140625 451.269531 C 527.863281 450.429688 525.363281 448.960938 522.605469 447.023438 C 518.765625 444.332031 514.398438 440.710938 509.40625 436.578125 C 502.707031 431.027344 494.875 424.535156 485.652344 418.066406 C 481.375 415.0625 478.886719 412.425781 478.175781 410.667969 C 477.738281 409.589844 477.324219 408.542969 476.898438 407.480469 C 474.023438 400.265625 471.296875 393.429688 466.585938 386.464844 L 466.886719 386.261719 L 466.542969 386.375 C 466.488281 386.207031 464.945312 381.570312 463.730469 381.289062 C 463.789062 381.300781 459.320312 380.242188 449.386719 382.394531 C 449.253906 382.421875 449.117188 382.375 449.03125 382.273438 C 448.945312 382.171875 448.921875 382.027344 448.972656 381.902344 C 448.96875 381.910156 453.597656 370.507812 456.730469 357.234375 C 456.726562 357.242188 459.675781 344.734375 461.15625 327.257812 C 461.171875 327.085938 461.308594 326.945312 461.480469 326.925781 C 461.652344 326.90625 461.8125 327.011719 461.867188 327.175781 L 467.664062 345.1875 L 467.105469 345.003906 C 467.113281 345 467.125 344.988281 467.148438 344.960938 C 468.425781 343.304688 468.003906 328.25 463.324219 324.644531 C 463.238281 324.578125 463.1875 324.476562 463.183594 324.367188 C 463.179688 324.257812 463.226562 324.152344 463.308594 324.082031 L 463.3125 324.082031 L 463.3125 324.078125 C 465.757812 321.984375 466.300781 321.523438 475.171875 316.234375 C 480.222656 313.226562 493.101562 307.769531 499 313.152344 C 507.039062 320.488281 507.296875 340.546875 507.148438 347.574219 C 507.144531 347.765625 506.996094 347.917969 506.808594 347.929688 C 506.621094 347.941406 506.453125 347.804688 506.425781 347.621094 C 505.441406 340.785156 504.964844 327.628906 506.960938 319.382812 L 507.03125 319.699219 C 506.949219 319.597656 506.671875 319.296875 506.246094 318.832031 C 504.179688 316.585938 498.75 310.679688 496.15625 306.492188 C 495.347656 305.183594 494.851562 304.105469 494.617188 303.40625 C 494.511719 303.089844 494.441406 302.800781 494.457031 302.59375 C 494.460938 302.535156 494.488281 302.265625 494.753906 302.175781 C 494.964844 302.105469 495.132812 302.222656 495.1875 302.265625 C 495.671875 302.628906 496.753906 304.675781 498.1875 308.984375 L 497.84375 309.101562 L 497.816406 309.464844 C 497.84375 309.464844 491.832031 308.996094 487.070312 313.949219 C 486.941406 314.085938 486.730469 314.101562 486.585938 313.984375 C 486.4375 313.867188 486.402344 313.660156 486.503906 313.503906 L 493.601562 302.429688 L 493.589844 302.453125 C 494.496094 300.78125 494.792969 298.710938 494.773438 296.238281 C 494.753906 294.121094 494.503906 291.75 494.226562 289.121094 C 493.890625 285.9375 493.515625 282.394531 493.484375 278.554688 C 493.480469 278.375 493.476562 278.042969 493.476562 277.851562 C 493.425781 272.710938 493.320312 264.472656 496.3125 260.855469 C 499.429688 257.09375 505.363281 255.714844 508.351562 256.214844 C 508.425781 256.230469 508.503906 256.242188 508.578125 256.253906 C 519.730469 258.316406 522.984375 273.195312 522.398438 276.359375 L 522.40625 276.261719 C 522.832031 280.742188 522.550781 284.652344 521.71875 287.953125 C 519.269531 297.648438 512.046875 302.0625 504.21875 300.089844 L 504.15625 300.066406 C 504.101562 300.042969 500.300781 298.265625 494.734375 291.339844 L 495.371094 291.210938 C 494.238281 295.355469 494.101562 296.921875 493.886719 300.003906 C 493.875 300.148438 493.78125 300.273438 493.640625 300.320312 C 493.503906 300.367188 493.351562 300.328125 493.253906 300.222656 C 492.703125 299.609375 485.933594 291.453125 483.609375 280.242188 C 481.394531 269.53125 483.414062 255.820312 490.867188 249 C 491.84375 248.105469 498.402344 244.484375 500.367188 243.792969 C 502.96875 242.875 510.035156 241.894531 515.847656 244.996094 C 527.621094 251.269531 539.011719 267.523438 530.425781 287.269531 C 528.996094 290.5625 525.902344 294.601562 520.550781 299.136719 C 520.402344 299.265625 520.175781 299.25 520.046875 299.101562 C 519.914062 298.953125 519.925781 298.726562 520.070312 298.59375 C 524.941406 294.050781 523.875 270.949219 519.707031 263.996094 C 518.636719 262.210938 517.078125 260.988281 515.457031 260.101562 C 514.011719 259.308594 512.53125 258.789062 511.316406 258.363281 C 510.515625 258.082031 509.800781 257.832031 509.324219 257.570312 C 507.882812 256.78125 506.800781 253.539062 506.472656 250.371094 C 506.066406 246.515625 506.707031 241.859375 510.074219 241.503906 C 510.769531 241.433594 513.394531 241.863281 516.582031 243.007812 C 524.929688 246.015625 537.75 254.199219 531.136719 272.554688 C 529.011719 278.460938 525.285156 284.207031 522.339844 288.753906 C 520.160156 292.113281 518.453125 294.761719 518.023438 296.394531 C 518.03125 296.363281 517.5625 298.136719 518.308594 300.304688 L 518.214844 300.15625 L 524.8125 306.382812 L 524.335938 306.363281 C 524.332031 306.367188 524.523438 306.191406 524.757812 306.300781 L 524.757812 306.296875 C 525.058594 306.433594 524.976562 306.796875 524.980469 306.746094 C 524.949219 307 524.699219 307.613281 524.375 308.332031 C 523.296875 310.71875 520.847656 315.480469 519.964844 315.949219 C 519.875 316 519.699219 316.066406 519.511719 315.980469 C 519.453125 315.953125 519.402344 315.910156 519.363281 315.859375 C 518.457031 314.574219 517.917969 313.085938 517.445312 311.800781 L 517.449219 311.800781 C 516.660156 309.648438 516.121094 308.332031 514.804688 308.351562 C 514.417969 308.359375 513.9375 308.585938 513.335938 309.050781 C 512.511719 309.691406 511.578125 310.695312 510.511719 311.84375 C 509.195312 313.257812 507.695312 314.875 506.019531 316.175781 C 505.886719 316.277344 505.699219 316.277344 505.566406 316.167969 C 505.4375 316.0625 505.394531 315.878906 505.472656 315.726562 C 507.082031 312.449219 514.160156 301.5625 520.238281 301.324219 C 520.980469 301.296875 521.582031 301.460938 522.074219 301.785156 C 523.101562 302.464844 523.558594 303.796875 524.007812 305.0625 C 524.574219 306.65625 525.160156 308.265625 526.632812 309.238281 C 527.519531 309.824219 528.75 310.25 530.1875 310.566406 C 532.328125 311.042969 534.839844 311.269531 537.1875 311.480469 C 539.171875 311.65625 541.046875 311.824219 542.417969 312.128906 C 544.996094 312.699219 546.550781 313.859375 547.320312 315.46875 C 549.039062 319.070312 546.648438 324.683594 544.449219 329.917969 C 542.261719 335.125 540.269531 339.949219 541.636719 342.8125 C 541.714844 342.980469 541.710938 342.867188 541.621094 342.890625 C 541.617188 342.894531 541.617188 342.894531 541.621094 342.890625 C 542.757812 342.550781 545.765625 333.152344 548.070312 325.804688 C 549.265625 322.003906 550.265625 318.789062 550.648438 318.304688 L 550.933594 318.527344 L 550.648438 318.304688 C 550.675781 318.269531 550.753906 318.175781 550.882812 318.136719 C 551.238281 318.027344 551.371094 318.375 551.386719 318.425781 C 555.804688 333.167969 559.699219 353.191406 562.398438 368.171875 C 562.433594 368.355469 562.441406 368.394531 562.472656 368.578125 C 563.152344 372.308594 563.9375 376.578125 557.636719 378.738281 L 557.484375 378.03125 C 558.910156 377.882812 560.152344 378.089844 561.191406 378.585938 C 565.457031 380.617188 565.996094 387.222656 563.355469 392.761719 L 563.300781 392.84375 C 555.992188 401.296875 549.476562 404.449219 545.867188 406.199219 C 544.035156 407.085938 543.214844 407.519531 543.09375 407.941406 C 543.074219 408.015625 543.03125 408.082031 542.96875 408.128906 C 532.671875 416.117188 527.152344 421.730469 525.167969 424.082031 C 524.035156 425.429688 522.914062 426.523438 521.863281 427.433594 C 520.515625 428.597656 519.277344 429.460938 518.273438 430.15625 C 517.574219 430.648438 517 431.046875 516.570312 431.417969 C 515.609375 432.246094 515.417969 432.816406 516.464844 434.027344 C 518.613281 436.511719 520.339844 439.445312 521.886719 442.070312 C 524.644531 446.746094 526.660156 450.03125 529.285156 449.316406 C 529.445312 449.273438 529.613281 449.339844 529.695312 449.480469 C 529.648438 449.402344 529.582031 449.386719 529.589844 449.386719 C 530.859375 449.746094 544.710938 444.007812 560.226562 435.273438 C 567.132812 431.386719 586.699219 417.9375 584.816406 404.53125 C 584.738281 403.972656 584.605469 403.402344 584.421875 402.824219 C 582.445312 396.664062 574.753906 390.09375 566.71875 392.667969 C 566.773438 392.652344 545.597656 399.417969 513.753906 431.625 L 513.808594 431.550781 L 502.105469 451.707031 L 501.953125 451.199219 L 534.3125 467.472656 L 534.253906 467.445312 C 535.003906 467.667969 535.828125 467.710938 536.601562 467.511719 C 538.855469 466.933594 541.058594 464.148438 539.082031 456.457031 C 539.070312 456.398438 539.070312 456.34375 539.082031 456.285156 C 539.113281 456.148438 539.125 455.96875 539.144531 455.738281 C 539.175781 455.363281 539.210938 454.859375 539.398438 454.445312 C 539.828125 453.503906 540.851562 453.3125 542.714844 454.164062 C 545.058594 455.238281 545.246094 456.933594 544.453125 458.828125 C 543.882812 460.199219 542.792969 461.730469 541.671875 463.304688 C 540.390625 465.109375 539.054688 466.992188 538.269531 468.867188 C 538.257812 468.894531 538.25 468.917969 538.246094 468.9375 C 538.203125 469.113281 538.371094 469.34375 539.722656 469.679688 C 544.554688 470.882812 545.773438 469.648438 546.507812 467.089844 C 546.746094 466.257812 546.925781 465.285156 547.132812 464.175781 C 547.390625 462.792969 547.679688 461.21875 548.167969 459.523438 C 548.214844 459.363281 548.355469 459.257812 548.519531 459.257812 C 548.683594 459.261719 548.828125 459.371094 548.867188 459.527344 C 549.820312 463.117188 550.210938 465.902344 550.457031 467.667969 C 550.628906 468.902344 550.722656 469.492188 550.820312 469.632812 C 550.820312 469.632812 550.804688 469.605469 550.757812 469.582031 C 550.628906 469.515625 550.527344 469.585938 550.53125 469.585938 C 550.566406 469.558594 550.667969 469.425781 550.847656 469.082031 C 551.691406 467.460938 553.542969 460.109375 553.140625 458.011719 L 553.863281 457.945312 C 553.851562 460.214844 555.144531 467.324219 556.140625 468.179688 C 556.164062 468.199219 556.175781 468.207031 556.175781 468.207031 L 556.039062 468.542969 L 556.175781 468.207031 C 556.125 468.183594 556.09375 468.238281 556.144531 468.179688 L 556.054688 468.417969 C 556.046875 464.816406 556.726562 462.503906 557.988281 462.207031 C 559.359375 461.878906 560.585938 463.976562 561.335938 467.128906 C 561.363281 467.234375 561.398438 467.410156 561.433594 467.574219 C 561.585938 468.300781 561.78125 469.195312 561.960938 469.421875 C 561.960938 469.425781 561.964844 469.429688 561.964844 469.429688 L 561.699219 469.679688 L 561.964844 469.429688 C 561.949219 469.414062 561.808594 469.324219 561.679688 469.425781 C 561.761719 469.359375 561.867188 469.335938 561.96875 469.351562 C 562.070312 469.371094 562.160156 469.429688 562.214844 469.519531 C 562.277344 469.617188 562.246094 469.519531 562.113281 469.488281 C 561.824219 469.425781 561.746094 469.71875 561.773438 469.648438 L 562.117188 469.765625 L 561.773438 469.648438 C 561.773438 469.648438 561.773438 469.640625 561.773438 469.632812 L 561.777344 469.632812 C 561.84375 469.328125 561.789062 468.285156 561.695312 466.710938 C 561.503906 463.410156 561.191406 458.117188 562.046875 454.296875 C 562.480469 452.375 564.148438 449.003906 565.410156 448.71875 C 565.539062 448.691406 565.671875 448.664062 565.8125 448.644531 C 569.519531 448.089844 576.808594 450.574219 579.273438 467.09375 L 578.933594 466.78125 C 579.382812 466.808594 579.878906 466.929688 580.359375 467.046875 C 582.035156 467.457031 583.835938 467.894531 585.355469 465.347656 L 585.316406 465.441406 C 585.722656 463.925781 580.8125 452.324219 578.082031 450.238281 C 575.121094 447.972656 571.238281 448.125 567.507812 448.8125 C 566.308594 449.03125 565.136719 449.304688 564.027344 449.5625 C 563.042969 449.789062 562.105469 450.007812 561.246094 450.167969 C 561.1875 450.175781 561.128906 450.171875 561.070312 450.15625 C 559.175781 449.546875 557.488281 448.992188 555.976562 448.496094 C 550.835938 446.808594 547.667969 445.769531 544.566406 445.324219 L 544.867188 445.230469 L 538.472656 451.167969 L 538.410156 451.214844 C 537.980469 451.472656 537.492188 451.332031 537.066406 451.074219 C 535.527344 450.15625 533.074219 446.738281 529.941406 442.394531 C 523.769531 433.828125 514.734375 421.296875 504.054688 414.925781 C 503.226562 414.429688 499.734375 413.722656 495.4375 412.863281 C 488.410156 411.453125 478.980469 409.617188 478.035156 407.46875 C 477.992188 407.371094 477.996094 407.261719 478.039062 407.164062 C 478.085938 407.070312 478.171875 407 478.273438 406.972656 C 478.339844 406.953125 478.410156 406.9375 478.480469 406.917969 C 481.890625 406.117188 493.789062 406.132812 507.128906 406.148438 C 524.558594 406.167969 544.507812 406.1875 551.832031 404.464844 L 551.550781 404.804688 C 551.554688 404.773438 553.363281 352.785156 552.765625 348.335938 L 553.175781 348.648438 C 551.039062 348.925781 532.332031 349.027344 513.074219 349.132812 C 491.640625 349.25 469.613281 349.375 468.488281 349.71875 C 468.445312 349.734375 468.558594 349.714844 468.632812 349.601562 L 468.699219 349.382812 C 468.738281 350.441406 468.613281 357.027344 468.457031 365.019531 C 468.191406 378.800781 467.847656 396.703125 468.117188 398.21875 C 468.140625 398.339844 468.097656 398.464844 468.003906 398.550781 C 467.914062 398.632812 467.785156 398.664062 467.664062 398.632812 C 461.742188 397.015625 457.074219 394.257812 454.269531 391.355469 C 451.238281 388.222656 450.230469 384.714844 452.628906 382.394531 C 452.664062 382.363281 452.703125 382.335938 452.746094 382.320312 C 454.199219 381.730469 455.277344 381.550781 456.019531 381.75 C 457.207031 382.074219 457.300781 383.238281 457.003906 384.328125 C 455.664062 389.246094 453.023438 392.742188 450.351562 395.613281 C 449.5 396.53125 448.640625 397.386719 447.824219 398.203125 C 447.070312 398.953125 446.351562 399.664062 445.699219 400.367188 C 441.726562 404.640625 440.460938 412.347656 440.632812 413.066406 C 443.15625 423.765625 446.785156 429.886719 450.609375 434.59375 C 452.125 436.460938 453.679688 438.113281 455.210938 439.742188 C 456.691406 441.316406 458.160156 442.878906 459.554688 444.59375 C 459.554688 444.59375 459.550781 444.589844 459.550781 444.585938 L 459.550781 444.589844 C 459.527344 444.558594 462.785156 448.542969 473.621094 445.253906 L 473.726562 445.601562 L 473.535156 445.910156 C 473.527344 445.90625 456.054688 435.050781 445.894531 423.300781 C 441.457031 418.171875 439.332031 407.886719 439.082031 406.578125 C 438.988281 406.078125 439 405.453125 439.085938 404.761719 C 439.65625 400.375 443.816406 391.675781 449.570312 392.421875 C 454.882812 393.109375 460.78125 396.121094 466.785156 400.253906 C 475.355469 406.15625 484.230469 414.402344 492.03125 421.652344 C 498.199219 427.382812 503.679688 432.472656 507.84375 435.339844 C 507.976562 435.429688 508.035156 435.597656 507.984375 435.75 C 507.738281 436.507812 507.4375 437.207031 507.09375 437.871094 C 506.417969 439.1875 505.582031 440.378906 504.714844 441.613281 C 503.742188 443 502.726562 444.449219 501.808594 446.230469 C 500.050781 449.652344 498.984375 452.523438 498.242188 454.515625 C 497.707031 455.96875 497.300781 457.085938 496.886719 457.496094 C 496.828125 457.554688 496.757812 457.609375 496.679688 457.652344 C 496.488281 457.753906 496.273438 457.757812 496.078125 457.652344 C 496 457.609375 495.929688 457.554688 495.871094 457.496094 L 495.957031 457.558594 L 478.601562 448.347656 L 478.65625 448.371094 C 476.105469 447.523438 469.488281 448.386719 468.847656 448.882812 L 468.988281 448.609375 C 468.898438 451.210938 468.769531 453.519531 468.589844 455.578125 C 467.75 465.441406 465.84375 469.734375 462.054688 469.410156 C 461.863281 469.394531 461.714844 469.226562 461.722656 469.035156 C 461.804688 466.996094 461.796875 464.875 461.785156 462.761719 C 461.761719 456.960938 461.722656 451.121094 463.699219 447.367188 C 463.726562 447.320312 463.765625 447.277344 463.808594 447.242188 C 467.035156 444.914062 474.210938 447.050781 485.085938 453.074219 C 485.195312 453.132812 485.265625 453.246094 485.273438 453.367188 C 485.3125 454.003906 485.367188 454.65625 485.421875 455.3125 C 485.839844 460.398438 486.332031 466.128906 480.445312 470.269531 C 480.378906 470.3125 480.304688 470.335938 480.226562 470.335938 L 427.269531 469.441406 C 427.070312 469.441406 426.910156 469.273438 426.910156 469.074219 C 426.914062 468.871094 427.082031 468.710938 427.28125 468.714844 Z M 427.28125 468.714844 " fill-opacity="1" fill-rule="nonzero"/></g></svg>