<svg xmlns="http://www.w3.org/2000/svg" xmlns:xlink="http://www.w3.org/1999/xlink" width="1366" zoomAndPan="magnify" viewBox="0 0 1024.5 576" height="768" preserveAspectRatio="xMidYMid meet" version="1.0"><defs><g/><clipPath id="4e97ce7d4f"><path d="M 0 0.140625 L 1024 0.140625 L 1024 575.859375 L 0 575.859375 Z M 0 0.140625 " clip-rule="nonzero"/></clipPath><clipPath id="f6d8e9726b"><path d="M 426.886719 150 L 473.046875 150 L 473.046875 174.875 L 426.886719 174.875 Z M 426.886719 150 " clip-rule="nonzero"/></clipPath><clipPath id="bdf4e13170"><path d="M 430 145.5 L 470 145.5 L 470 173 L 430 173 Z M 430 145.5 " clip-rule="nonzero"/></clipPath><clipPath id="c31af1e680"><path d="M 307.351562 288.140625 L 716.851562 288.140625 L 716.851562 385.640625 L 307.351562 385.640625 Z M 307.351562 288.140625 " clip-rule="nonzero"/></clipPath></defs><g clip-path="url(#4e97ce7d4f)"><path fill="#ffffff" d="M 0 0.140625 L 1024.5 0.140625 L 1024.5 583.640625 L 0 583.640625 Z M 0 0.140625 " fill-opacity="1" fill-rule="nonzero"/><path fill="#ffffff" d="M 0 0.140625 L 1024.5 0.140625 L 1024.5 576.140625 L 0 576.140625 Z M 0 0.140625 " fill-opacity="1" fill-rule="nonzero"/><path fill="#374151" d="M 0 0.140625 L 1024.5 0.140625 L 1024.5 576.140625 L 0 576.140625 Z M 0 0.140625 " fill-opacity="1" fill-rule="nonzero"/></g><g clip-path="url(#f6d8e9726b)"><path fill="#ffffff" d="M 470.285156 150.574219 L 470.273438 150.652344 L 468.554688 169.347656 L 468.480469 170.199219 L 467.613281 170.089844 L 466.964844 170.007812 C 465.667969 169.84375 464.394531 169.753906 463.179688 169.753906 C 457.308594 169.753906 453.738281 171.699219 452.132812 172.859375 L 449.96875 173.023438 L 449.960938 173.023438 L 447.796875 172.859375 C 446.191406 171.699219 442.621094 169.753906 436.75 169.753906 C 435.535156 169.753906 434.261719 169.84375 432.964844 170.007812 L 432.316406 170.089844 L 431.449219 170.199219 L 431.375 169.347656 L 429.65625 150.652344 L 429.648438 150.574219 L 426.90625 150.574219 L 429.699219 171.75 L 448.121094 174.875 L 451.808594 174.875 L 470.230469 171.75 L 473.023438 150.574219 L 470.285156 150.574219 " fill-opacity="1" fill-rule="nonzero"/></g><g clip-path="url(#bdf4e13170)"><path fill="#ffffff" d="M 432.777344 149.449219 L 432.882812 150.523438 L 434.289062 165.070312 L 434.777344 165.140625 C 434.863281 165.148438 441.664062 166.175781 446.253906 169.585938 C 444.050781 168.578125 440.933594 167.695312 436.789062 167.695312 C 435.707031 167.695312 434.5625 167.757812 433.34375 167.890625 L 431.757812 150.574219 L 431.664062 149.550781 C 432.050781 149.507812 432.417969 149.476562 432.777344 149.449219 Z M 444.179688 149.40625 C 447.230469 150.984375 448.84375 152.800781 449.316406 153.386719 L 449.316406 170.730469 C 445.355469 166.015625 437.507812 164.363281 435.449219 164 L 434.132812 150.398438 L 433.78125 146.773438 C 438.296875 146.988281 441.710938 148.121094 444.179688 149.40625 Z M 450.617188 153.386719 C 451.085938 152.800781 452.699219 150.984375 455.75 149.40625 C 458.21875 148.121094 461.632812 146.988281 466.148438 146.773438 L 465.796875 150.398438 L 464.480469 164 C 462.421875 164.363281 454.574219 166.015625 450.617188 170.730469 Z M 467.046875 150.523438 L 467.152344 149.449219 C 467.511719 149.476562 467.882812 149.507812 468.269531 149.550781 L 468.175781 150.574219 L 466.585938 167.890625 C 465.367188 167.757812 464.222656 167.695312 463.140625 167.695312 C 459 167.695312 455.878906 168.578125 453.675781 169.585938 C 458.265625 166.175781 465.066406 165.148438 465.152344 165.140625 L 465.640625 165.070312 Z M 432.207031 169.277344 L 432.859375 169.195312 C 437.308594 168.617188 440.789062 169.074219 443.394531 169.851562 C 443.648438 169.929688 443.894531 170.007812 444.132812 170.089844 C 444.375 170.171875 444.601562 170.257812 444.824219 170.34375 C 445.046875 170.429688 445.261719 170.515625 445.46875 170.605469 C 446.492188 171.054688 447.316406 171.53125 447.941406 171.953125 C 448.066406 172.039062 448.1875 172.121094 448.292969 172.199219 L 451.636719 172.199219 C 451.742188 172.121094 451.863281 172.039062 451.988281 171.953125 C 452.613281 171.53125 453.4375 171.054688 454.460938 170.605469 C 454.671875 170.515625 454.882812 170.429688 455.105469 170.34375 C 455.328125 170.257812 455.554688 170.171875 455.796875 170.089844 C 456.035156 170.007812 456.28125 169.929688 456.539062 169.851562 C 459.140625 169.074219 462.621094 168.617188 467.074219 169.195312 L 467.722656 169.277344 L 469.441406 150.574219 L 469.632812 148.457031 L 469.027344 148.390625 C 468.414062 148.320312 467.828125 148.261719 467.269531 148.222656 L 467.535156 145.496094 L 466.824219 145.515625 C 460.640625 145.671875 456.355469 147.425781 453.578125 149.1875 C 451.757812 150.34375 450.589844 151.5 449.96875 152.210938 L 449.960938 152.210938 C 449.34375 151.5 448.171875 150.34375 446.351562 149.1875 C 443.574219 147.425781 439.289062 145.671875 433.105469 145.515625 L 432.394531 145.496094 L 432.660156 148.222656 C 432.101562 148.261719 431.515625 148.320312 430.90625 148.390625 L 430.296875 148.457031 L 430.492188 150.574219 L 432.207031 169.277344 " fill-opacity="1" fill-rule="nonzero"/></g><g fill="#ffffff" fill-opacity="1"><g transform="translate(482.46965, 167.68624)"><g><path d="M 1.640625 -0.109375 C 2.179688 -0.847656 2.453125 -1.832031 2.453125 -3.0625 L 2.453125 -13.3125 C 2.453125 -14.550781 2.179688 -15.535156 1.640625 -16.265625 L 1.640625 -16.390625 L 8.28125 -16.390625 C 10.125 -16.390625 11.664062 -16.015625 12.90625 -15.265625 C 14.144531 -14.523438 14.765625 -13.300781 14.765625 -11.59375 C 14.765625 -10.476562 14.472656 -9.550781 13.890625 -8.8125 C 13.316406 -8.070312 12.566406 -7.53125 11.640625 -7.1875 C 10.710938 -6.84375 9.726562 -6.671875 8.6875 -6.671875 C 7.9375 -6.671875 7.222656 -6.800781 6.546875 -7.0625 L 6.546875 -7.4375 C 7.003906 -7.332031 7.472656 -7.28125 7.953125 -7.28125 C 9.015625 -7.28125 9.832031 -7.6875 10.40625 -8.5 C 10.976562 -9.320312 11.265625 -10.351562 11.265625 -11.59375 C 11.265625 -12.757812 10.96875 -13.753906 10.375 -14.578125 C 9.789062 -15.410156 8.960938 -15.828125 7.890625 -15.828125 C 7.171875 -15.828125 6.492188 -15.707031 5.859375 -15.46875 L 5.859375 -3.0625 C 5.859375 -1.832031 6.128906 -0.847656 6.671875 -0.109375 L 6.671875 0 L 1.640625 0 Z M 1.640625 -0.109375 "/></g></g></g><g fill="#ffffff" fill-opacity="1"><g transform="translate(497.183104, 167.68624)"><g><path d="M 1.359375 -0.109375 C 1.554688 -0.410156 1.710938 -0.789062 1.828125 -1.25 C 1.953125 -1.707031 2.015625 -2.210938 2.015625 -2.765625 L 2.015625 -13.4375 C 2.015625 -14.070312 1.941406 -14.59375 1.796875 -15 C 1.660156 -15.40625 1.453125 -15.742188 1.171875 -16.015625 L 1.171875 -16.125 L 5.0625 -17.4375 L 5.171875 -17.4375 L 5.171875 -2.765625 C 5.171875 -2.210938 5.226562 -1.707031 5.34375 -1.25 C 5.46875 -0.789062 5.628906 -0.410156 5.828125 -0.109375 L 5.828125 0 L 1.359375 0 Z M 1.359375 -0.109375 "/></g></g></g><g fill="#ffffff" fill-opacity="1"><g transform="translate(503.779436, 167.68624)"><g><path d="M 11.640625 -3.953125 C 11.367188 -2.660156 10.769531 -1.628906 9.84375 -0.859375 C 8.925781 -0.0859375 7.804688 0.296875 6.484375 0.296875 C 5.441406 0.296875 4.5 0.0664062 3.65625 -0.390625 C 2.8125 -0.847656 2.140625 -1.519531 1.640625 -2.40625 C 1.148438 -3.300781 0.90625 -4.359375 0.90625 -5.578125 C 0.90625 -6.835938 1.171875 -7.953125 1.703125 -8.921875 C 2.234375 -9.898438 2.941406 -10.65625 3.828125 -11.1875 C 4.722656 -11.726562 5.691406 -12 6.734375 -12 C 7.703125 -12 8.546875 -11.796875 9.265625 -11.390625 C 9.984375 -10.992188 10.53125 -10.453125 10.90625 -9.765625 C 11.28125 -9.078125 11.46875 -8.332031 11.46875 -7.53125 L 3.46875 -7.53125 C 3.507812 -6.363281 3.738281 -5.363281 4.15625 -4.53125 C 4.582031 -3.695312 5.132812 -3.066406 5.8125 -2.640625 C 6.488281 -2.222656 7.234375 -2.015625 8.046875 -2.015625 C 8.816406 -2.015625 9.492188 -2.1875 10.078125 -2.53125 C 10.660156 -2.875 11.101562 -3.347656 11.40625 -3.953125 Z M 5.859375 -11.328125 C 5.148438 -11.328125 4.578125 -11.050781 4.140625 -10.5 C 3.703125 -9.945312 3.476562 -9.140625 3.46875 -8.078125 L 8.359375 -8.078125 C 8.265625 -9.078125 8 -9.867188 7.5625 -10.453125 C 7.132812 -11.035156 6.566406 -11.328125 5.859375 -11.328125 Z M 5.859375 -11.328125 "/></g></g></g><g fill="#ffffff" fill-opacity="1"><g transform="translate(515.615647, 167.68624)"><g><path d="M 6.875 0.296875 C 4.925781 0.296875 3.226562 -0.164062 1.78125 -1.09375 L 1.78125 -13.4375 C 1.78125 -14.070312 1.707031 -14.59375 1.5625 -15 C 1.425781 -15.40625 1.21875 -15.742188 0.9375 -16.015625 L 0.9375 -16.125 L 4.828125 -17.4375 L 4.9375 -17.4375 L 4.9375 -9.90625 L 5.0625 -9.90625 C 5.4375 -10.5625 5.925781 -11.070312 6.53125 -11.4375 C 7.132812 -11.8125 7.835938 -12 8.640625 -12 C 9.554688 -12 10.363281 -11.757812 11.0625 -11.28125 C 11.769531 -10.8125 12.3125 -10.132812 12.6875 -9.25 C 13.070312 -8.375 13.265625 -7.359375 13.265625 -6.203125 C 13.265625 -5.046875 13 -3.972656 12.46875 -2.984375 C 11.945312 -1.992188 11.203125 -1.195312 10.234375 -0.59375 C 9.265625 0 8.144531 0.296875 6.875 0.296875 Z M 7 -0.234375 C 7.914062 -0.234375 8.625 -0.710938 9.125 -1.671875 C 9.625 -2.628906 9.875 -3.929688 9.875 -5.578125 C 9.875 -7.085938 9.632812 -8.265625 9.15625 -9.109375 C 8.6875 -9.953125 8.03125 -10.375 7.1875 -10.375 C 6.570312 -10.375 6.0625 -10.1875 5.65625 -9.8125 C 5.257812 -9.445312 5.019531 -8.976562 4.9375 -8.40625 L 4.9375 -1.890625 C 5.019531 -1.441406 5.238281 -1.050781 5.59375 -0.71875 C 5.945312 -0.394531 6.414062 -0.234375 7 -0.234375 Z M 7 -0.234375 "/></g></g></g><g fill="#ffffff" fill-opacity="1"><g transform="translate(529.323244, 167.68624)"><g><path d="M 1.640625 -0.109375 C 2.179688 -0.847656 2.453125 -1.832031 2.453125 -3.0625 L 2.453125 -13.3125 C 2.453125 -14.550781 2.179688 -15.535156 1.640625 -16.265625 L 1.640625 -16.390625 L 8.59375 -16.390625 C 10.25 -16.390625 11.617188 -16.078125 12.703125 -15.453125 C 13.796875 -14.828125 14.34375 -13.84375 14.34375 -12.5 C 14.34375 -11.46875 13.984375 -10.640625 13.265625 -10.015625 C 12.546875 -9.390625 11.691406 -9 10.703125 -8.84375 L 10.703125 -8.75 C 11.878906 -8.613281 12.882812 -8.171875 13.71875 -7.421875 C 14.5625 -6.679688 14.984375 -5.707031 14.984375 -4.5 C 14.984375 -2.9375 14.363281 -1.796875 13.125 -1.078125 C 11.894531 -0.359375 10.382812 0 8.59375 0 L 1.640625 0 Z M 7.5625 -9.0625 C 8.59375 -9.0625 9.394531 -9.375 9.96875 -10 C 10.550781 -10.625 10.84375 -11.441406 10.84375 -12.453125 C 10.84375 -13.429688 10.546875 -14.238281 9.953125 -14.875 C 9.367188 -15.507812 8.578125 -15.828125 7.578125 -15.828125 C 7.003906 -15.828125 6.429688 -15.71875 5.859375 -15.5 L 5.859375 -9.0625 Z M 7.75 -0.5625 C 8.851562 -0.5625 9.738281 -0.914062 10.40625 -1.625 C 11.082031 -2.332031 11.421875 -3.289062 11.421875 -4.5 C 11.421875 -5.738281 11.078125 -6.707031 10.390625 -7.40625 C 9.703125 -8.113281 8.78125 -8.46875 7.625 -8.46875 L 5.859375 -8.46875 L 5.859375 -0.984375 C 6.367188 -0.703125 7 -0.5625 7.75 -0.5625 Z M 7.75 -0.5625 "/></g></g></g><g fill="#ffffff" fill-opacity="1"><g transform="translate(544.808655, 167.68624)"><g><path d="M 6.8125 0.296875 C 5.65625 0.296875 4.625 0.0351562 3.71875 -0.484375 C 2.8125 -1.015625 2.101562 -1.742188 1.59375 -2.671875 C 1.09375 -3.609375 0.84375 -4.671875 0.84375 -5.859375 C 0.84375 -7.035156 1.09375 -8.085938 1.59375 -9.015625 C 2.101562 -9.953125 2.8125 -10.679688 3.71875 -11.203125 C 4.625 -11.734375 5.65625 -12 6.8125 -12 C 7.945312 -12 8.96875 -11.734375 9.875 -11.203125 C 10.78125 -10.679688 11.484375 -9.953125 11.984375 -9.015625 C 12.492188 -8.085938 12.75 -7.035156 12.75 -5.859375 C 12.75 -4.671875 12.492188 -3.609375 11.984375 -2.671875 C 11.484375 -1.742188 10.78125 -1.015625 9.875 -0.484375 C 8.96875 0.0351562 7.945312 0.296875 6.8125 0.296875 Z M 6.8125 -0.234375 C 7.664062 -0.234375 8.300781 -0.742188 8.71875 -1.765625 C 9.144531 -2.785156 9.359375 -4.148438 9.359375 -5.859375 C 9.359375 -7.554688 9.144531 -8.914062 8.71875 -9.9375 C 8.300781 -10.957031 7.664062 -11.46875 6.8125 -11.46875 C 5.957031 -11.46875 5.3125 -10.957031 4.875 -9.9375 C 4.445312 -8.914062 4.234375 -7.554688 4.234375 -5.859375 C 4.234375 -4.148438 4.445312 -2.785156 4.875 -1.765625 C 5.3125 -0.742188 5.957031 -0.234375 6.8125 -0.234375 Z M 6.8125 -0.234375 "/></g></g></g><g fill="#ffffff" fill-opacity="1"><g transform="translate(557.931429, 167.68624)"><g><path d="M 6.8125 0.296875 C 5.65625 0.296875 4.625 0.0351562 3.71875 -0.484375 C 2.8125 -1.015625 2.101562 -1.742188 1.59375 -2.671875 C 1.09375 -3.609375 0.84375 -4.671875 0.84375 -5.859375 C 0.84375 -7.035156 1.09375 -8.085938 1.59375 -9.015625 C 2.101562 -9.953125 2.8125 -10.679688 3.71875 -11.203125 C 4.625 -11.734375 5.65625 -12 6.8125 -12 C 7.945312 -12 8.96875 -11.734375 9.875 -11.203125 C 10.78125 -10.679688 11.484375 -9.953125 11.984375 -9.015625 C 12.492188 -8.085938 12.75 -7.035156 12.75 -5.859375 C 12.75 -4.671875 12.492188 -3.609375 11.984375 -2.671875 C 11.484375 -1.742188 10.78125 -1.015625 9.875 -0.484375 C 8.96875 0.0351562 7.945312 0.296875 6.8125 0.296875 Z M 6.8125 -0.234375 C 7.664062 -0.234375 8.300781 -0.742188 8.71875 -1.765625 C 9.144531 -2.785156 9.359375 -4.148438 9.359375 -5.859375 C 9.359375 -7.554688 9.144531 -8.914062 8.71875 -9.9375 C 8.300781 -10.957031 7.664062 -11.46875 6.8125 -11.46875 C 5.957031 -11.46875 5.3125 -10.957031 4.875 -9.9375 C 4.445312 -8.914062 4.234375 -7.554688 4.234375 -5.859375 C 4.234375 -4.148438 4.445312 -2.785156 4.875 -1.765625 C 5.3125 -0.742188 5.957031 -0.234375 6.8125 -0.234375 Z M 6.8125 -0.234375 "/></g></g></g><g fill="#ffffff" fill-opacity="1"><g transform="translate(571.054204, 167.68624)"><g><path d="M 1.359375 -0.109375 C 1.554688 -0.410156 1.710938 -0.789062 1.828125 -1.25 C 1.953125 -1.707031 2.015625 -2.210938 2.015625 -2.765625 L 2.015625 -13.4375 C 2.015625 -14.070312 1.941406 -14.59375 1.796875 -15 C 1.660156 -15.40625 1.453125 -15.742188 1.171875 -16.015625 L 1.171875 -16.125 L 5.0625 -17.4375 L 5.171875 -17.4375 L 5.171875 -2.765625 C 5.171875 -2.210938 5.226562 -1.707031 5.34375 -1.25 C 5.46875 -0.789062 5.628906 -0.410156 5.828125 -0.109375 L 5.828125 0 L 1.359375 0 Z M 11.71875 0.1875 C 10.988281 0.1875 10.382812 0.0546875 9.90625 -0.203125 C 9.4375 -0.472656 8.984375 -0.910156 8.546875 -1.515625 L 5.640625 -5.484375 L 5.640625 -5.59375 L 8.515625 -8.890625 C 9.128906 -9.597656 9.4375 -10.203125 9.4375 -10.703125 C 9.4375 -11.054688 9.300781 -11.351562 9.03125 -11.59375 L 9.03125 -11.703125 L 12.609375 -11.703125 L 12.609375 -11.59375 C 11.960938 -11.28125 11.398438 -10.941406 10.921875 -10.578125 C 10.441406 -10.222656 9.929688 -9.75 9.390625 -9.15625 L 7.984375 -7.625 L 12.421875 -1.640625 C 12.953125 -0.921875 13.351562 -0.515625 13.625 -0.421875 L 13.625 -0.25 C 13.375 -0.125 13.078125 -0.0195312 12.734375 0.0625 C 12.390625 0.144531 12.050781 0.1875 11.71875 0.1875 Z M 11.71875 0.1875 "/></g></g></g><g clip-path="url(#c31af1e680)"><path fill="#ffffff" d="M 308.34375 340.035156 C 341.242188 336.8125 353.082031 338.007812 353.128906 338.015625 L 353.085938 338.476562 L 353.132812 338.015625 C 372.492188 339.984375 382.441406 348.359375 388.355469 353.335938 C 390.179688 354.875 391.566406 356.035156 392.71875 356.613281 C 405.421875 362.992188 423.277344 372.742188 432.972656 379.34375 C 438.652344 383.207031 445.738281 384.59375 446.546875 384.230469 C 446.546875 384.230469 446.542969 384.234375 446.539062 384.234375 C 449.027344 382.734375 448.804688 382.3125 448.507812 380.839844 C 448.433594 380.464844 448.34375 380.023438 448.273438 379.503906 L 448.339844 379.683594 C 446.171875 376.152344 445.570312 375.691406 442.59375 375.355469 L 442.851562 375.3125 C 440.242188 376.609375 439.695312 378.601562 440.132812 379.480469 C 440.15625 379.535156 440.1875 379.582031 440.21875 379.628906 C 440.84375 380.515625 443.875 382.957031 446.578125 382.871094 C 447.519531 382.839844 448.527344 382.207031 449.195312 381.351562 C 450.890625 379.164062 445.660156 373.738281 438.757812 368.355469 C 434.992188 365.417969 431.011719 362.699219 428.1875 360.914062 C 426.128906 359.617188 425.933594 358.335938 425.632812 356.386719 C 425.453125 355.210938 425.230469 353.757812 424.542969 351.785156 L 424.675781 351.980469 C 423.667969 351.085938 416.613281 350.816406 411.371094 354.84375 L 411.039062 354.015625 C 418.179688 353.253906 420.5625 351.105469 420.382812 349.417969 C 420.304688 348.652344 419.714844 347.785156 418.5 346.953125 C 418.3125 346.824219 418.246094 346.578125 418.34375 346.371094 C 418.441406 346.164062 418.675781 346.0625 418.894531 346.128906 C 420.660156 346.660156 422.339844 347.398438 423.726562 348.007812 C 424.746094 348.457031 425.585938 348.824219 426.214844 349.015625 C 426.742188 349.171875 426.949219 349.148438 426.992188 349.125 C 426.988281 349.128906 426.996094 349.125 426.996094 349.125 L 426.847656 349.246094 C 431.375 343.601562 437.949219 338.855469 452.734375 337.765625 C 456.332031 337.5 468.152344 339.476562 478.835938 341.257812 C 487.925781 342.773438 496.160156 344.144531 498.191406 343.996094 C 498.355469 343.984375 498.425781 343.964844 498.445312 343.957031 C 498.445312 343.957031 498.433594 343.960938 498.421875 343.96875 C 499.523438 343.242188 499.785156 341.824219 498.207031 338.75 L 498.277344 338.851562 C 497.273438 337.765625 493.886719 335.652344 491.277344 335.714844 C 490.816406 335.726562 490.546875 335.988281 490.554688 336.429688 C 490.578125 337.355469 491.847656 339.320312 496.703125 341.613281 C 497.03125 341.769531 497.996094 341.601562 498.277344 341.007812 C 498.296875 340.964844 498.3125 340.921875 498.324219 340.875 C 499.144531 337.9375 493.148438 334.871094 488.007812 332.347656 C 486.613281 331.664062 485.339844 331.039062 484.441406 330.503906 C 484.367188 330.457031 484.308594 330.394531 484.269531 330.316406 C 484.273438 330.324219 484.273438 330.328125 484.273438 330.328125 C 483.832031 329.691406 478.496094 327.195312 465.359375 323.300781 L 465.414062 323.316406 L 454.078125 321.371094 C 453.851562 321.335938 453.6875 321.132812 453.695312 320.902344 C 453.699219 320.671875 453.875 320.484375 454.101562 320.457031 C 461.457031 319.617188 475.824219 325.519531 486.367188 329.835938 C 491.546875 331.957031 495.796875 333.695312 497.976562 334.167969 C 503.4375 335.347656 507.523438 334.011719 507.75 332.949219 C 507.773438 332.839844 507.757812 332.695312 507.617188 332.5 C 505.421875 329.503906 501.101562 327.761719 499.761719 328.671875 L 499.898438 328.523438 C 499.8125 328.664062 499.726562 328.808594 499.648438 328.929688 C 499.574219 329.050781 499.507812 329.15625 499.449219 329.257812 C 499.050781 329.925781 498.898438 330.222656 499.964844 330.859375 C 500.015625 330.886719 500.0625 330.917969 500.121094 330.945312 C 502.269531 332.148438 506.066406 333.425781 506.640625 332.386719 C 506.710938 332.265625 506.757812 332.0625 506.710938 331.726562 C 506.691406 331.574219 506.742188 331.421875 506.855469 331.320312 C 506.792969 331.375 506.792969 331.472656 506.800781 331.5 L 507.238281 331.351562 L 506.800781 331.5 C 506.796875 331.488281 506.769531 331.429688 506.671875 331.324219 C 506.320312 330.941406 505.546875 330.425781 504.664062 329.84375 C 504.207031 329.542969 503.734375 329.226562 503.316406 328.925781 C 501.914062 327.910156 498.464844 326.652344 493.96875 325.023438 C 491.5 324.125 488.730469 323.121094 485.886719 322 C 474.640625 317.558594 465.765625 315.863281 454.0625 315.175781 C 453.1875 315.125 450.976562 315.210938 447.773438 315.332031 C 439.992188 315.628906 426.566406 316.140625 413.339844 315.367188 C 406.871094 314.988281 400.4375 314.300781 394.726562 313.125 C 368.140625 307.660156 317.398438 289.363281 316.535156 289.050781 L 316.523438 289.046875 L 316.851562 289.039062 C 316.769531 289.074219 316.882812 289.027344 316.859375 288.925781 L 316.410156 289.023438 L 316.859375 288.925781 C 316.859375 288.925781 316.863281 288.933594 316.867188 288.941406 C 317.730469 291.09375 336.246094 299.640625 351.867188 306.8125 C 361.285156 311.136719 369.507812 314.910156 371.535156 316.296875 C 372.078125 316.667969 372.960938 317.332031 374.113281 318.195312 C 376.386719 319.898438 379.742188 322.417969 383.753906 325.160156 C 391.273438 330.296875 401.042969 336.199219 410.226562 339.011719 C 415.316406 340.570312 418.910156 339.328125 423.113281 337.871094 C 424.910156 337.246094 426.824219 336.578125 428.988281 336.101562 C 433.847656 335.027344 441.121094 334.707031 445.355469 335.167969 C 456.070312 336.332031 464.054688 337.542969 464.890625 338.980469 C 464.945312 339.074219 464.984375 339.1875 464.996094 339.3125 L 464.863281 339.027344 C 467.976562 342.140625 468.507812 346.8125 469.558594 355.652344 C 469.960938 359.03125 470.4375 363.035156 471.148438 367.84375 C 471.367188 369.300781 472.558594 377.519531 469.300781 379.632812 C 467.949219 380.511719 463.472656 378.964844 462.261719 377.09375 C 462.210938 377.015625 462.164062 376.9375 462.125 376.859375 C 461.75 376.117188 459.78125 371.480469 460.785156 368.445312 C 461.105469 367.464844 463.039062 367.109375 464.085938 366.878906 C 464.894531 366.699219 465.390625 366.578125 465.515625 366.480469 L 465.796875 366.847656 L 465.515625 366.480469 C 465.523438 366.472656 465.472656 366.507812 465.445312 366.597656 C 465.320312 366.972656 465.796875 366.972656 465.097656 366.699219 C 464.074219 366.300781 463.1875 366.449219 462.421875 366.582031 C 462.003906 366.652344 461.460938 366.761719 461.039062 366.597656 C 460.507812 366.390625 460.3125 365.875 460.265625 365.234375 C 460.195312 364.265625 458.859375 359.011719 458.289062 356.777344 C 458.171875 356.3125 458.085938 355.980469 458.058594 355.863281 C 457.976562 355.523438 458.242188 355.3125 458.292969 355.269531 L 458.578125 355.636719 L 458.292969 355.269531 C 458.734375 354.925781 460.320312 354.53125 461.273438 354.304688 C 461.46875 354.257812 461.667969 354.210938 461.816406 354.175781 C 461.945312 354.144531 462.027344 354.125 462.117188 354.105469 C 462.402344 354.035156 462.226562 354.050781 462.109375 354.179688 C 462.535156 353.722656 462.160156 353.894531 462.398438 354.121094 C 462.417969 354.136719 462.429688 354.144531 462.429688 354.144531 L 462.632812 353.726562 L 462.429688 354.144531 C 462.28125 354.070312 461.773438 354.089844 460.929688 354.148438 C 459.96875 354.214844 458.429688 354.359375 457.769531 353.738281 C 457.664062 353.636719 457.574219 353.515625 457.515625 353.371094 C 452.867188 342.144531 450.105469 339.9375 446.230469 339.945312 L 446.292969 339.023438 C 446.457031 339.046875 446.578125 339.136719 446.648438 339.199219 C 448.332031 340.710938 454.03125 363.800781 452.570312 374.601562 C 452.277344 376.785156 451.679688 378.601562 450.589844 379.632812 C 450.496094 379.722656 450.367188 379.769531 450.234375 379.757812 C 450.101562 379.746094 449.980469 379.679688 449.902344 379.570312 C 449.636719 379.210938 449.394531 378.886719 449.148438 378.558594 C 448.933594 378.265625 448.71875 377.984375 448.519531 377.714844 C 445.488281 373.617188 444.492188 371.820312 443.164062 363.316406 C 443.105469 362.949219 442.949219 362.417969 442.753906 361.75 C 442.496094 360.875 442.179688 359.808594 442.015625 358.765625 C 441.710938 356.800781 441.917969 354.535156 444.566406 354.121094 C 445.074219 354.039062 445.65625 354.03125 446.324219 354.101562 C 446.691406 354.140625 446.765625 354.480469 446.75 354.632812 C 446.738281 354.746094 446.6875 354.835938 446.671875 354.871094 C 446.4375 355.292969 445.066406 356.695312 443.476562 356.53125 C 441.878906 356.367188 440.503906 354.714844 439.828125 350.429688 C 439.625 349.132812 438.765625 346.90625 438.035156 345.015625 C 437.550781 343.765625 437.097656 342.609375 437.015625 342.097656 C 437.007812 342.046875 437.003906 341.992188 437 341.9375 C 437 341.890625 436.988281 341.636719 437.191406 341.464844 C 437.21875 341.441406 437.246094 341.421875 437.269531 341.410156 C 437.949219 340.972656 444.710938 338.597656 452.074219 337.566406 C 459.152344 336.570312 466.964844 336.820312 467.820312 337.082031 C 467.789062 337.074219 468.0625 337.128906 468.167969 337.371094 L 467.320312 337.371094 L 469.40625 332.605469 C 469.472656 332.453125 469.617188 332.347656 469.78125 332.332031 C 470.28125 332.277344 470.359375 332.917969 470.3125 332.734375 C 470.328125 332.808594 470.34375 332.898438 470.351562 332.988281 C 470.425781 333.664062 470.425781 335.476562 470.210938 337.554688 C 470.074219 338.863281 476.855469 340.679688 483.273438 342.273438 C 485.699219 342.875 487.894531 343.417969 489.195312 343.871094 C 497.398438 346.71875 505.332031 340.367188 505.792969 339.601562 C 505.792969 339.601562 505.785156 339.613281 505.777344 339.640625 C 505.769531 339.660156 505.734375 339.765625 505.777344 339.902344 C 504.609375 336.367188 506.160156 334.691406 508.160156 334.027344 C 510.226562 333.339844 512.726562 333.726562 512.726562 333.726562 C 517.265625 334.417969 524.214844 335.40625 527.652344 335.050781 C 539.160156 333.867188 544.449219 331.78125 548.84375 329.765625 C 565.757812 322.011719 568.054688 314.695312 569.707031 309.542969 C 569.851562 309.085938 569.996094 308.644531 570.140625 308.21875 C 571.761719 303.492188 571.746094 303.042969 572.183594 303.195312 C 572.46875 303.292969 572.652344 303.0625 572.566406 303.140625 L 572.257812 302.796875 L 572.566406 303.140625 C 572.503906 303.199219 572.34375 303.417969 572.054688 303.828125 C 571.175781 305.066406 569.039062 308.222656 566.890625 307.683594 C 566.71875 307.640625 566.226562 307.613281 565.417969 307.570312 C 563.652344 307.476562 560.714844 307.324219 557.933594 306.621094 C 556.464844 306.253906 555.019531 305.730469 553.808594 304.964844 C 552.367188 304.058594 552.777344 301.539062 552.984375 300.003906 C 553.144531 298.808594 553.199219 298.144531 553.082031 297.972656 L 553.464844 297.714844 L 553.082031 297.972656 C 553.082031 297.972656 553.089844 297.984375 553.109375 297.996094 C 553.128906 298.007812 553.144531 298.011719 553.152344 298.011719 C 553.277344 298.03125 553.347656 297.96875 553.339844 297.976562 L 553.046875 297.617188 L 553.339844 297.976562 C 552.925781 298.316406 552.210938 300.941406 551.695312 302.921875 C 551.570312 303.390625 551.316406 304.828125 550.785156 304.828125 C 543.074219 304.800781 536.089844 300.152344 535.023438 297.535156 C 533.574219 293.988281 534.015625 292.011719 536.300781 291.078125 C 537.90625 290.417969 540.390625 290.308594 543.304688 290.175781 C 543.957031 290.144531 544.601562 290.113281 545.300781 290.078125 C 549.738281 289.835938 566.683594 289.660156 577.921875 293.882812 C 583.75 296.074219 588.628906 299.160156 593.351562 302.144531 C 597.863281 304.996094 602.226562 307.75 607.175781 309.609375 C 608.984375 310.289062 610.867188 310.847656 612.863281 311.25 C 635.007812 315.691406 660.875 312.539062 668.550781 311.601562 C 669.65625 311.464844 670.414062 311.375 670.710938 311.363281 C 683.4375 310.851562 695.121094 308.707031 704.453125 306.996094 C 706.492188 306.621094 708.429688 306.265625 710.230469 305.953125 C 710.40625 305.925781 710.585938 306 710.6875 306.144531 C 710.789062 306.292969 710.796875 306.488281 710.707031 306.640625 C 707.886719 311.550781 652.21875 319.398438 643.355469 319.746094 C 639.660156 319.894531 631.960938 321.898438 622.800781 324.289062 C 612.785156 326.902344 601.097656 329.953125 591.28125 331.40625 C 589.726562 331.636719 587.871094 332.5 585.710938 333.511719 C 583.054688 334.75 580.003906 336.183594 576.757812 336.664062 C 573.0625 337.210938 569.128906 336.527344 565.214844 333.042969 C 560.765625 329.085938 552.527344 330.320312 548.925781 334.386719 C 548.304688 335.085938 547.828125 335.863281 547.535156 336.707031 C 544.226562 346.179688 533.917969 345.925781 527.574219 345.796875 C 526.453125 345.777344 525.457031 345.757812 524.617188 345.785156 C 523.761719 345.816406 521.085938 345.199219 518.179688 344.53125 C 514.183594 343.613281 509.644531 342.574219 507.863281 342.640625 C 507.652344 342.648438 507.515625 342.671875 507.433594 342.695312 C 505.363281 343.355469 503.109375 344.671875 503.714844 346.582031 C 504.421875 348.816406 508.808594 352.285156 522.425781 357.027344 C 526.226562 358.347656 530.730469 358.425781 531.265625 358.207031 L 531.433594 358.175781 L 531.4375 358.636719 L 531.265625 358.207031 C 531.316406 358.1875 531.152344 358.230469 531.085938 358.421875 C 531.070312 358.464844 531.0625 358.515625 531.0625 358.566406 L 531.136719 358.808594 C 523.535156 346.867188 523.882812 342.996094 523.902344 342.832031 C 523.914062 342.726562 523.953125 342.644531 523.972656 342.609375 C 524.238281 342.097656 526.351562 339.894531 527.085938 339.628906 C 527.136719 339.609375 527.210938 339.585938 527.292969 339.582031 C 529.429688 339.476562 532.871094 345.265625 532.957031 346.9375 C 532.964844 347.066406 532.957031 347.207031 532.917969 347.34375 C 532.902344 347.394531 532.878906 347.453125 532.851562 347.503906 L 532.773438 347.609375 C 531.726562 348.691406 529.53125 350.589844 527.09375 348.210938 C 526.222656 347.363281 525.351562 345.980469 524.492188 343.878906 C 524.464844 343.8125 524.453125 343.738281 524.457031 343.664062 C 524.625 341.574219 526.15625 340.261719 527.839844 340.398438 C 528.414062 340.445312 528.984375 340.660156 529.5 341.054688 C 540.355469 349.347656 543.859375 356.207031 543.886719 356.261719 L 543.875 356.238281 C 546.953125 361.5625 543.828125 366.238281 543.8125 366.265625 L 543.425781 366.007812 L 543.800781 366.277344 C 543.621094 366.523438 543.339844 366.515625 543.242188 366.507812 L 543.28125 366.046875 L 543.242188 366.507812 C 542.324219 366.425781 538.886719 364.105469 536.601562 362.578125 C 535.539062 361.863281 534.679688 361.289062 534.285156 361.0625 C 533.058594 360.355469 533.320312 360.773438 533.554688 360.367188 C 533.660156 360.183594 533.566406 360.027344 533.589844 360.074219 L 533.167969 360.269531 L 533.589844 360.074219 C 533.757812 360.441406 535.574219 362.050781 538.332031 363.640625 C 539.875 364.527344 541.65625 365.375 543.496094 365.960938 C 547.414062 367.195312 549.96875 367.03125 550.230469 366.648438 C 550.230469 366.648438 550.226562 366.65625 550.226562 366.664062 C 550.222656 366.675781 550.222656 366.683594 550.222656 366.683594 C 550.222656 366.683594 550.214844 366.636719 550.144531 366.542969 C 545.175781 359.941406 544.542969 352.773438 544.152344 348.378906 C 544.066406 347.425781 543.996094 346.617188 543.894531 345.964844 C 543.667969 344.503906 546.148438 340.984375 548.179688 340.667969 C 548.367188 340.640625 548.554688 340.636719 548.746094 340.660156 C 550.597656 340.925781 551.160156 345.292969 551.085938 346.480469 L 551.046875 346.644531 C 550.257812 348.394531 548.433594 350.476562 546.832031 349.75 C 546.4375 349.574219 546.121094 349.242188 545.882812 348.785156 C 544.941406 346.972656 544.675781 343.765625 545.429688 342.710938 C 545.445312 342.6875 545.46875 342.65625 545.5 342.609375 C 545.542969 342.546875 545.605469 342.457031 545.675781 342.363281 C 546.167969 341.667969 548.003906 339.179688 549.859375 340.511719 C 550.292969 340.820312 550.675781 341.320312 551.019531 342.023438 C 552.898438 345.882812 555.367188 353.050781 557.246094 359.84375 C 557.230469 359.785156 557.199219 359.757812 557.203125 359.761719 C 557.476562 360.027344 559.058594 360.273438 561 360.542969 C 562.175781 360.703125 563.390625 360.871094 564.183594 361.085938 C 566.246094 361.640625 567.59375 363.160156 567.125 364.921875 C 566.480469 367.328125 562.558594 369.464844 554.523438 369.40625 L 554.988281 368.972656 C 554.992188 368.9375 554.96875 368.894531 554.953125 368.878906 C 555.019531 368.941406 555.328125 369.050781 556.210938 369.113281 C 557.207031 369.183594 558.710938 369.1875 560.851562 369.191406 C 562.164062 369.195312 563.703125 369.199219 565.5 369.21875 C 569.992188 369.269531 574.847656 367.683594 580.007812 365.996094 C 581.582031 365.484375 583.179688 364.960938 584.792969 364.476562 C 602.730469 359.105469 622.414062 345.617188 621.71875 341.226562 C 620.820312 335.542969 615.292969 334.046875 608.566406 335.121094 C 598.238281 336.761719 586.792969 344.132812 587.613281 349.320312 C 587.839844 350.753906 589.035156 352.175781 591.820312 353.328125 C 598.035156 355.902344 678.316406 356.878906 715.761719 353.542969 C 716.015625 353.519531 716.238281 353.707031 716.261719 353.960938 C 716.285156 354.21875 716.097656 354.441406 715.84375 354.464844 C 678.488281 357.792969 597.9375 356.867188 591.46875 354.183594 C 588.550781 352.976562 587.003906 351.363281 586.703125 349.464844 C 585.722656 343.277344 598.300781 335.816406 608.421875 334.203125 C 615.183594 333.128906 621.59375 334.523438 622.632812 341.078125 C 623.480469 346.441406 602.609375 360.105469 585.054688 365.363281 C 583.453125 365.84375 581.871094 366.363281 580.292969 366.878906 C 575.175781 368.550781 570.164062 370.199219 565.488281 370.144531 C 563.691406 370.125 562.164062 370.121094 560.851562 370.117188 C 558.726562 370.113281 557.183594 370.109375 556.148438 370.039062 C 555.355469 369.980469 554.679688 369.882812 554.328125 369.5625 C 554.144531 369.394531 554.050781 369.164062 554.066406 368.910156 C 554.082031 368.664062 554.285156 368.476562 554.53125 368.480469 C 562.632812 368.539062 565.785156 366.351562 566.230469 364.683594 C 566.511719 363.640625 565.78125 362.472656 563.945312 361.980469 C 563.21875 361.785156 562.078125 361.625 560.875 361.460938 C 559.199219 361.230469 557.117188 360.972656 556.558594 360.425781 C 556.476562 360.347656 556.394531 360.234375 556.355469 360.089844 C 554.480469 353.316406 552.027344 346.214844 550.1875 342.425781 C 549.886719 341.808594 549.585938 341.453125 549.324219 341.265625 C 548.359375 340.574219 547.175781 341.851562 546.425781 342.902344 C 546.359375 342.992188 546.304688 343.074219 546.257812 343.136719 C 546.230469 343.179688 546.203125 343.222656 546.179688 343.25 C 545.738281 343.867188 545.8125 346.640625 546.703125 348.355469 C 546.871094 348.679688 547.054688 348.835938 547.210938 348.90625 C 547.910156 349.222656 549.347656 348.171875 550.203125 346.261719 L 550.164062 346.425781 C 550.257812 344.910156 549.484375 341.703125 548.613281 341.578125 C 548.527344 341.566406 548.429688 341.566406 548.324219 341.582031 C 546.753906 341.828125 544.664062 344.90625 544.808594 345.824219 C 544.914062 346.507812 544.988281 347.351562 545.070312 348.296875 C 545.464844 352.6875 546.089844 359.613281 550.882812 365.984375 C 551.011719 366.160156 551.117188 366.363281 551.140625 366.585938 C 551.152344 366.703125 551.140625 366.824219 551.105469 366.941406 C 551.078125 367.027344 551.039062 367.105469 550.988281 367.175781 C 550.257812 368.238281 546.832031 367.984375 543.21875 366.84375 C 541.296875 366.234375 539.457031 365.355469 537.875 364.445312 C 535.175781 362.890625 533.0625 361.148438 532.75 360.460938 L 533.167969 360.269531 L 532.75 360.460938 C 532.714844 360.390625 532.613281 360.148438 532.75 359.90625 C 533.117188 359.269531 534.230469 359.960938 534.746094 360.257812 C 535.175781 360.507812 536.070312 361.105469 537.117188 361.804688 C 539.597656 363.46875 542.714844 365.53125 543.320312 365.585938 L 543.28125 366.046875 L 543.320312 365.585938 C 543.363281 365.589844 543.183594 365.554688 543.054688 365.734375 L 543.425781 366.007812 L 543.042969 365.75 C 543.03125 365.769531 545.863281 361.527344 543.074219 356.703125 L 543.0625 356.683594 C 543.089844 356.738281 539.671875 349.988281 528.941406 341.792969 C 528.558594 341.5 528.15625 341.355469 527.765625 341.320312 C 526.664062 341.234375 525.511719 342.085938 525.378906 343.738281 L 525.34375 343.527344 C 526.183594 345.570312 526.996094 346.824219 527.738281 347.546875 C 529.507812 349.273438 531.027344 348.082031 532.113281 346.964844 L 532.035156 347.070312 C 532.03125 347.078125 532.03125 347.085938 532.03125 347.085938 C 532.03125 347.082031 532.039062 347.050781 532.035156 346.984375 C 531.953125 345.386719 528.621094 340.441406 527.339844 340.507812 C 527.378906 340.507812 527.402344 340.496094 527.398438 340.5 C 526.953125 340.660156 524.992188 342.652344 524.789062 343.039062 C 524.78125 343.054688 524.808594 343.011719 524.820312 342.933594 L 524.820312 342.9375 C 524.835938 342.769531 524.339844 346.410156 531.914062 358.308594 C 531.960938 358.382812 531.988281 358.464844 531.988281 358.550781 C 531.988281 358.613281 531.980469 358.671875 531.960938 358.726562 C 531.878906 358.964844 531.65625 359.050781 531.609375 359.070312 L 531.4375 358.636719 L 531.441406 359.101562 L 531.609375 359.070312 C 530.746094 359.414062 525.964844 359.238281 522.125 357.902344 C 508.644531 353.210938 503.707031 349.621094 502.835938 346.863281 C 501.917969 343.964844 505.335938 342.390625 507.152344 341.8125 C 507.351562 341.75 507.582031 341.722656 507.828125 341.714844 C 509.765625 341.644531 514.476562 342.730469 518.386719 343.628906 C 521.398438 344.320312 523.886719 344.886719 524.582031 344.859375 C 525.453125 344.828125 526.480469 344.851562 527.59375 344.871094 C 534.128906 345.003906 543.609375 345.140625 546.664062 336.398438 C 547 335.433594 547.542969 334.550781 548.234375 333.773438 C 552.121094 329.382812 560.9375 328 565.828125 332.351562 C 569.515625 335.636719 573.171875 336.257812 576.621094 335.746094 C 579.714844 335.289062 582.644531 333.921875 585.320312 332.671875 C 587.433594 331.683594 589.429688 330.746094 591.148438 330.492188 C 600.902344 329.046875 612.539062 326.011719 622.566406 323.394531 C 631.660156 321.019531 639.496094 318.972656 643.316406 318.824219 C 652.558594 318.457031 707.414062 310.519531 709.90625 306.179688 L 710.386719 306.867188 C 708.589844 307.175781 706.660156 307.53125 704.621094 307.90625 C 695.292969 309.617188 683.546875 311.773438 670.746094 312.285156 C 670.5 312.296875 669.796875 312.382812 668.664062 312.519531 C 661 313.457031 634.992188 316.632812 612.683594 312.15625 C 610.632812 311.746094 608.699219 311.171875 606.851562 310.476562 C 601.800781 308.578125 597.359375 305.769531 592.859375 302.929688 C 588.128906 299.9375 583.324219 296.902344 577.597656 294.75 C 566.554688 290.601562 549.78125 290.761719 545.351562 291.003906 C 544.644531 291.039062 544 291.070312 543.347656 291.101562 C 540.355469 291.238281 538.074219 291.347656 536.648438 291.933594 C 535.113281 292.5625 534.484375 293.777344 535.878906 297.1875 C 536.746094 299.316406 543.273438 303.875 550.789062 303.902344 C 550.363281 303.898438 550.449219 304.027344 550.800781 302.6875 C 551.246094 300.980469 552.035156 297.851562 552.757812 297.257812 L 553.046875 297.617188 L 552.757812 297.257812 C 552.867188 297.167969 553.054688 297.0625 553.289062 297.097656 C 553.398438 297.113281 553.503906 297.152344 553.601562 297.210938 C 553.707031 297.277344 553.789062 297.363281 553.851562 297.457031 L 553.464844 297.714844 L 553.851562 297.457031 C 554.21875 298.007812 554.023438 299.191406 553.898438 300.125 C 553.644531 302.023438 553.492188 303.671875 554.296875 304.179688 C 555.398438 304.875 556.742188 305.371094 558.15625 305.726562 C 560.839844 306.398438 563.695312 306.550781 565.464844 306.644531 C 566.203125 306.683594 566.828125 306.714844 567.113281 306.785156 C 568.488281 307.132812 570.191406 304.859375 571.300781 303.292969 C 571.546875 302.945312 571.785156 302.601562 571.945312 302.453125 L 572.257812 302.796875 L 571.945312 302.453125 C 571.929688 302.46875 572.167969 302.210938 572.484375 302.320312 C 573.207031 302.570312 572.253906 304.910156 571.015625 308.519531 C 570.871094 308.9375 570.734375 309.367188 570.585938 309.824219 C 568.867188 315.195312 566.40625 322.730469 549.230469 330.609375 C 544.746094 332.664062 539.359375 334.777344 527.746094 335.972656 C 524.160156 336.34375 517.074219 335.328125 512.585938 334.640625 C 512.585938 334.640625 510.289062 334.296875 508.453125 334.90625 C 506.910156 335.417969 505.65625 336.585938 506.65625 339.609375 C 506.707031 339.765625 506.664062 339.898438 506.648438 339.945312 C 506.628906 340 506.605469 340.046875 506.582031 340.082031 C 505.949219 341.132812 497.597656 347.765625 488.894531 344.746094 C 487.640625 344.3125 485.496094 343.78125 483.050781 343.171875 C 477.476562 341.789062 469.046875 339.828125 469.292969 337.457031 C 469.503906 335.414062 469.496094 333.671875 469.433594 333.085938 C 469.425781 333.011719 469.417969 332.972656 469.414062 332.964844 C 469.347656 332.699219 469.398438 333.300781 469.878906 333.25 L 470.253906 332.976562 L 468.167969 337.742188 C 468.09375 337.910156 467.929688 338.019531 467.746094 338.019531 C 467.5625 338.019531 467.394531 337.910156 467.320312 337.742188 C 467.417969 337.964844 467.652344 338 467.550781 337.96875 C 466.910156 337.773438 459.28125 337.488281 452.203125 338.480469 C 444.863281 339.511719 438.269531 341.867188 437.765625 342.191406 C 437.765625 342.191406 437.773438 342.183594 437.789062 342.171875 C 437.953125 342.035156 437.921875 341.855469 437.925781 341.914062 C 437.925781 341.917969 437.925781 341.929688 437.929688 341.953125 C 437.988281 342.335938 438.382812 343.359375 438.894531 344.683594 C 439.609375 346.523438 440.515625 348.867188 440.742188 350.285156 C 441.417969 354.566406 442.695312 355.519531 443.570312 355.609375 C 444.644531 355.722656 445.726562 354.667969 445.863281 354.421875 C 445.871094 354.402344 445.839844 354.453125 445.832031 354.535156 C 445.820312 354.660156 445.882812 354.988281 446.230469 355.023438 C 445.621094 354.960938 445.117188 354.96875 444.710938 355.035156 C 442.925781 355.3125 442.628906 356.699219 442.929688 358.621094 C 443.082031 359.59375 443.378906 360.601562 443.640625 361.488281 C 443.828125 362.125 444.003906 362.730469 444.074219 363.171875 C 445.386719 371.558594 446.335938 373.207031 449.261719 377.160156 C 449.464844 377.433594 449.667969 377.707031 449.890625 378.003906 C 450.132812 378.328125 450.378906 378.660156 450.644531 379.019531 L 449.957031 378.960938 C 450.800781 378.160156 451.367188 376.621094 451.65625 374.476562 C 453.109375 363.730469 447.347656 341.070312 446.03125 339.890625 C 446.023438 339.878906 446.070312 339.929688 446.167969 339.941406 C 445.925781 339.910156 445.753906 339.695312 445.769531 339.453125 C 445.785156 339.210938 445.984375 339.019531 446.226562 339.019531 C 450.773438 339.007812 453.742188 341.847656 458.367188 353.015625 C 458.375 353.03125 458.382812 353.046875 458.402344 353.0625 C 458.6875 353.332031 459.640625 353.308594 460.863281 353.222656 C 461.539062 353.175781 462.398438 353.097656 462.832031 353.308594 L 462.632812 353.726562 L 462.832031 353.308594 C 462.898438 353.339844 462.96875 353.382812 463.03125 353.445312 C 463.539062 353.921875 463.042969 354.53125 462.78125 354.8125 C 462.648438 354.953125 462.3125 355.007812 462.332031 355.003906 C 462.234375 355.027344 462.160156 355.046875 462.03125 355.074219 C 461.886719 355.109375 461.671875 355.160156 461.488281 355.203125 C 460.390625 355.46875 459.097656 355.816406 458.863281 356 L 458.578125 355.636719 L 458.863281 356 C 458.804688 356.042969 459.019531 355.914062 458.957031 355.644531 C 458.980469 355.753906 459.0625 356.078125 459.183594 356.546875 C 459.734375 358.707031 461.109375 364.089844 461.1875 365.167969 C 461.226562 365.703125 461.359375 365.730469 461.371094 365.734375 C 461.5 365.785156 461.734375 365.761719 462.265625 365.667969 C 463.035156 365.535156 464.148438 365.339844 465.433594 365.839844 C 465.707031 365.945312 466.53125 366.25 466.320312 366.886719 C 466.269531 367.050781 466.15625 367.15625 466.078125 367.21875 L 465.796875 366.847656 L 466.078125 367.21875 C 465.738281 367.476562 464.945312 367.636719 464.28125 367.78125 C 462.84375 368.097656 461.769531 368.402344 461.660156 368.738281 C 460.792969 371.363281 462.558594 375.667969 462.949219 376.4375 C 462.972656 376.488281 463.003906 376.539062 463.035156 376.589844 C 464.097656 378.230469 468.046875 379.34375 468.800781 378.855469 C 471.429688 377.148438 470.507812 369.808594 470.234375 367.980469 C 469.519531 363.15625 469.042969 359.140625 468.640625 355.761719 C 467.574219 346.773438 467.042969 342.515625 464.210938 339.683594 C 464.136719 339.609375 464.089844 339.507812 464.078125 339.402344 C 464.082031 339.429688 464.089844 339.445312 464.089844 339.445312 C 463.566406 338.539062 456.421875 337.300781 445.253906 336.085938 C 441.117188 335.636719 433.945312 335.953125 429.1875 337.003906 C 427.082031 337.472656 425.21875 338.117188 423.414062 338.746094 C 419.210938 340.207031 415.359375 341.550781 409.957031 339.894531 C 400.636719 337.042969 390.769531 331.074219 383.234375 325.925781 C 379.203125 323.167969 375.832031 320.640625 373.5625 318.9375 C 372.398438 318.066406 371.535156 317.417969 371.015625 317.0625 C 369.074219 315.734375 360.964844 312.007812 351.480469 307.65625 C 336.246094 300.65625 317.058594 291.894531 316.007812 289.289062 C 315.988281 289.238281 315.96875 289.179688 315.957031 289.121094 L 316.410156 289.023438 L 315.957031 289.121094 C 315.855469 288.652344 316.144531 288.328125 316.507812 288.179688 C 316.613281 288.136719 316.730469 288.136719 316.835938 288.175781 L 316.847656 288.179688 C 317.734375 288.5 368.40625 306.769531 394.914062 312.21875 C 400.5625 313.378906 406.949219 314.0625 413.390625 314.441406 C 426.570312 315.214844 439.953125 314.703125 447.738281 314.40625 C 450.90625 314.285156 453.183594 314.199219 454.117188 314.253906 C 465.902344 314.941406 474.875 316.65625 486.226562 321.136719 C 489.058594 322.253906 491.808594 323.253906 494.28125 324.152344 C 498.695312 325.75 502.320312 327.058594 503.859375 328.175781 C 504.257812 328.464844 504.714844 328.765625 505.171875 329.070312 C 506.003906 329.621094 506.902344 330.207031 507.351562 330.699219 C 507.484375 330.839844 507.613281 331.011719 507.675781 331.207031 L 507.238281 331.351562 L 507.675781 331.207031 C 507.765625 331.472656 507.726562 331.777344 507.480469 332 L 507.625 331.597656 C 507.691406 332.066406 507.644531 332.488281 507.449219 332.835938 C 506.3125 334.886719 501.285156 332.65625 499.671875 331.757812 C 499.609375 331.722656 499.550781 331.6875 499.492188 331.652344 C 497.886719 330.695312 498.0625 329.785156 498.652344 328.785156 C 498.722656 328.671875 498.792969 328.558594 498.863281 328.441406 C 498.941406 328.316406 499.027344 328.183594 499.105469 328.050781 C 499.140625 327.992188 499.1875 327.941406 499.242188 327.902344 C 501.308594 326.5 506.167969 328.957031 508.363281 331.953125 C 508.628906 332.316406 508.742188 332.726562 508.652344 333.144531 C 508.203125 335.230469 502.957031 336.191406 497.78125 335.074219 C 495.5 334.578125 491.144531 332.792969 486.019531 330.695312 C 475.335938 326.320312 461.261719 320.570312 454.207031 321.375 L 454.234375 320.460938 L 465.570312 322.402344 L 465.621094 322.414062 C 478.539062 326.242188 484.351562 328.820312 485.03125 329.796875 C 485.050781 329.828125 485.070312 329.859375 485.089844 329.890625 L 484.914062 329.707031 C 485.769531 330.21875 487.003906 330.824219 488.414062 331.515625 C 492.992188 333.761719 500.300781 337.230469 499.214844 341.125 C 499.1875 341.222656 499.152344 341.3125 499.113281 341.402344 C 498.578125 342.542969 497.011719 342.785156 496.308594 342.453125 C 491.488281 340.175781 489.667969 337.996094 489.632812 336.449219 C 489.609375 335.425781 490.363281 334.8125 491.253906 334.789062 C 494.214844 334.71875 497.839844 337.015625 498.957031 338.222656 L 499.027344 338.328125 C 500.601562 341.394531 500.726562 343.558594 498.929688 344.742188 C 498.882812 344.773438 498.835938 344.796875 498.792969 344.816406 C 498.636719 344.878906 498.445312 344.90625 498.257812 344.917969 C 496.082031 345.078125 487.667969 343.671875 478.683594 342.171875 C 467.90625 340.375 456.253906 338.433594 452.800781 338.6875 C 438.246094 339.761719 431.917969 344.402344 427.566406 349.828125 C 427.527344 349.875 427.476562 349.917969 427.421875 349.945312 C 427.421875 349.945312 427.414062 349.949219 427.414062 349.949219 C 427 350.164062 426.4375 350.046875 425.945312 349.902344 C 425.253906 349.691406 424.351562 349.296875 423.355469 348.855469 C 421.960938 348.246094 420.332031 347.527344 418.628906 347.015625 L 419.023438 346.1875 C 420.332031 347.085938 421.179688 348.160156 421.304688 349.320312 C 421.59375 352.03125 418.035156 354.199219 411.136719 354.9375 C 410.933594 354.960938 410.738281 354.84375 410.660156 354.648438 C 410.582031 354.457031 410.644531 354.238281 410.808594 354.109375 C 416.175781 349.988281 423.773438 349.941406 425.285156 351.285156 C 425.347656 351.339844 425.390625 351.40625 425.417969 351.480469 C 426.128906 353.535156 426.363281 355.058594 426.546875 356.246094 C 426.839844 358.144531 426.980469 359.058594 428.679688 360.128906 C 431.527344 361.929688 435.535156 364.667969 439.324219 367.625 C 445.65625 372.5625 452.34375 378.800781 449.921875 381.917969 C 449.148438 382.917969 447.90625 383.753906 446.609375 383.796875 C 443.488281 383.894531 440.199219 381.203125 439.464844 380.160156 C 439.402344 380.078125 439.351562 379.988281 439.304688 379.894531 C 438.523438 378.316406 439.660156 375.863281 442.441406 374.480469 C 442.519531 374.441406 442.609375 374.425781 442.699219 374.4375 C 446.054688 374.8125 446.871094 375.527344 449.125 379.199219 C 449.160156 379.253906 449.179688 379.3125 449.1875 379.378906 C 449.253906 379.867188 449.339844 380.28125 449.414062 380.65625 C 449.792969 382.535156 449.816406 383.339844 447.015625 385.027344 C 446.984375 385.046875 446.957031 385.0625 446.925781 385.074219 C 445.609375 385.667969 438.113281 383.960938 432.453125 380.109375 C 422.808594 373.546875 405 363.816406 392.304688 357.441406 C 391.03125 356.800781 389.550781 355.550781 387.761719 354.042969 C 381.898438 349.109375 372.121094 340.878906 353.039062 338.9375 L 353.085938 338.476562 L 353.039062 338.9375 C 353.066406 338.9375 341.292969 337.738281 308.433594 340.957031 C 308.179688 340.980469 307.953125 340.792969 307.929688 340.539062 C 307.90625 340.285156 308.089844 340.058594 308.34375 340.035156 Z M 308.34375 340.035156 " fill-opacity="1" fill-rule="nonzero"/></g></svg>