<svg xmlns="http://www.w3.org/2000/svg" xmlns:xlink="http://www.w3.org/1999/xlink" width="1366" zoomAndPan="magnify" viewBox="0 0 1024.5 576" height="768" preserveAspectRatio="xMidYMid meet" version="1.0"><defs><g/><clipPath id="52b0c647a5"><path d="M 0 0.140625 L 1024 0.140625 L 1024 575.859375 L 0 575.859375 Z M 0 0.140625 " clip-rule="nonzero"/></clipPath><clipPath id="007b190c89"><path d="M 426.886719 150 L 473.046875 150 L 473.046875 174.875 L 426.886719 174.875 Z M 426.886719 150 " clip-rule="nonzero"/></clipPath><clipPath id="c20f185ebd"><path d="M 430 145.5 L 470 145.5 L 470 173 L 430 173 Z M 430 145.5 " clip-rule="nonzero"/></clipPath><clipPath id="9494f11dd0"><path d="M 351 241.417969 L 673.347656 241.417969 L 673.347656 471.667969 L 351 471.667969 Z M 351 241.417969 " clip-rule="nonzero"/></clipPath></defs><g clip-path="url(#52b0c647a5)"><path fill="#ffffff" d="M 0 0.140625 L 1024.5 0.140625 L 1024.5 583.640625 L 0 583.640625 Z M 0 0.140625 " fill-opacity="1" fill-rule="nonzero"/><path fill="#ffffff" d="M 0 0.140625 L 1024.5 0.140625 L 1024.5 576.140625 L 0 576.140625 Z M 0 0.140625 " fill-opacity="1" fill-rule="nonzero"/><path fill="#374151" d="M 0 0.140625 L 1024.5 0.140625 L 1024.5 576.140625 L 0 576.140625 Z M 0 0.140625 " fill-opacity="1" fill-rule="nonzero"/></g><g clip-path="url(#007b190c89)"><path fill="#ffffff" d="M 470.285156 150.574219 L 470.273438 150.652344 L 468.554688 169.347656 L 468.480469 170.199219 L 467.613281 170.089844 L 466.964844 170.007812 C 465.667969 169.84375 464.394531 169.753906 463.179688 169.753906 C 457.308594 169.753906 453.738281 171.699219 452.132812 172.859375 L 449.96875 173.023438 L 449.960938 173.023438 L 447.796875 172.859375 C 446.191406 171.699219 442.621094 169.753906 436.75 169.753906 C 435.535156 169.753906 434.261719 169.84375 432.964844 170.007812 L 432.316406 170.089844 L 431.449219 170.199219 L 431.375 169.347656 L 429.65625 150.652344 L 429.648438 150.574219 L 426.90625 150.574219 L 429.699219 171.75 L 448.121094 174.875 L 451.808594 174.875 L 470.230469 171.75 L 473.023438 150.574219 L 470.285156 150.574219 " fill-opacity="1" fill-rule="nonzero"/></g><g clip-path="url(#c20f185ebd)"><path fill="#ffffff" d="M 432.777344 149.449219 L 432.882812 150.523438 L 434.289062 165.070312 L 434.777344 165.140625 C 434.863281 165.148438 441.664062 166.175781 446.253906 169.585938 C 444.050781 168.578125 440.933594 167.695312 436.789062 167.695312 C 435.707031 167.695312 434.5625 167.757812 433.34375 167.890625 L 431.757812 150.574219 L 431.664062 149.550781 C 432.050781 149.507812 432.417969 149.476562 432.777344 149.449219 Z M 444.179688 149.40625 C 447.230469 150.984375 448.84375 152.800781 449.316406 153.386719 L 449.316406 170.730469 C 445.355469 166.015625 437.507812 164.363281 435.449219 164 L 434.132812 150.398438 L 433.78125 146.773438 C 438.296875 146.988281 441.710938 148.121094 444.179688 149.40625 Z M 450.617188 153.386719 C 451.085938 152.800781 452.699219 150.984375 455.75 149.40625 C 458.21875 148.121094 461.632812 146.988281 466.148438 146.773438 L 465.796875 150.398438 L 464.480469 164 C 462.421875 164.363281 454.574219 166.015625 450.617188 170.730469 Z M 467.046875 150.523438 L 467.152344 149.449219 C 467.511719 149.476562 467.882812 149.507812 468.269531 149.550781 L 468.175781 150.574219 L 466.585938 167.890625 C 465.367188 167.757812 464.222656 167.695312 463.140625 167.695312 C 459 167.695312 455.878906 168.578125 453.675781 169.585938 C 458.265625 166.175781 465.066406 165.148438 465.152344 165.140625 L 465.640625 165.070312 Z M 432.207031 169.277344 L 432.859375 169.195312 C 437.308594 168.617188 440.789062 169.074219 443.394531 169.851562 C 443.648438 169.929688 443.894531 170.007812 444.132812 170.089844 C 444.375 170.171875 444.601562 170.257812 444.824219 170.34375 C 445.046875 170.429688 445.261719 170.515625 445.46875 170.605469 C 446.492188 171.054688 447.316406 171.53125 447.941406 171.953125 C 448.066406 172.039062 448.1875 172.121094 448.292969 172.199219 L 451.636719 172.199219 C 451.742188 172.121094 451.863281 172.039062 451.988281 171.953125 C 452.613281 171.53125 453.4375 171.054688 454.460938 170.605469 C 454.671875 170.515625 454.882812 170.429688 455.105469 170.34375 C 455.328125 170.257812 455.554688 170.171875 455.796875 170.089844 C 456.035156 170.007812 456.28125 169.929688 456.539062 169.851562 C 459.140625 169.074219 462.621094 168.617188 467.074219 169.195312 L 467.722656 169.277344 L 469.441406 150.574219 L 469.632812 148.457031 L 469.027344 148.390625 C 468.414062 148.320312 467.828125 148.261719 467.269531 148.222656 L 467.535156 145.496094 L 466.824219 145.515625 C 460.640625 145.671875 456.355469 147.425781 453.578125 149.1875 C 451.757812 150.34375 450.589844 151.5 449.96875 152.210938 L 449.960938 152.210938 C 449.34375 151.5 448.171875 150.34375 446.351562 149.1875 C 443.574219 147.425781 439.289062 145.671875 433.105469 145.515625 L 432.394531 145.496094 L 432.660156 148.222656 C 432.101562 148.261719 431.515625 148.320312 430.90625 148.390625 L 430.296875 148.457031 L 430.492188 150.574219 L 432.207031 169.277344 " fill-opacity="1" fill-rule="nonzero"/></g><g fill="#ffffff" fill-opacity="1"><g transform="translate(482.46965, 167.68624)"><g><path d="M 1.640625 -0.109375 C 2.179688 -0.847656 2.453125 -1.832031 2.453125 -3.0625 L 2.453125 -13.3125 C 2.453125 -14.550781 2.179688 -15.535156 1.640625 -16.265625 L 1.640625 -16.390625 L 8.28125 -16.390625 C 10.125 -16.390625 11.664062 -16.015625 12.90625 -15.265625 C 14.144531 -14.523438 14.765625 -13.300781 14.765625 -11.59375 C 14.765625 -10.476562 14.472656 -9.550781 13.890625 -8.8125 C 13.316406 -8.070312 12.566406 -7.53125 11.640625 -7.1875 C 10.710938 -6.84375 9.726562 -6.671875 8.6875 -6.671875 C 7.9375 -6.671875 7.222656 -6.800781 6.546875 -7.0625 L 6.546875 -7.4375 C 7.003906 -7.332031 7.472656 -7.28125 7.953125 -7.28125 C 9.015625 -7.28125 9.832031 -7.6875 10.40625 -8.5 C 10.976562 -9.320312 11.265625 -10.351562 11.265625 -11.59375 C 11.265625 -12.757812 10.96875 -13.753906 10.375 -14.578125 C 9.789062 -15.410156 8.960938 -15.828125 7.890625 -15.828125 C 7.171875 -15.828125 6.492188 -15.707031 5.859375 -15.46875 L 5.859375 -3.0625 C 5.859375 -1.832031 6.128906 -0.847656 6.671875 -0.109375 L 6.671875 0 L 1.640625 0 Z M 1.640625 -0.109375 "/></g></g></g><g fill="#ffffff" fill-opacity="1"><g transform="translate(497.183104, 167.68624)"><g><path d="M 1.359375 -0.109375 C 1.554688 -0.410156 1.710938 -0.789062 1.828125 -1.25 C 1.953125 -1.707031 2.015625 -2.210938 2.015625 -2.765625 L 2.015625 -13.4375 C 2.015625 -14.070312 1.941406 -14.59375 1.796875 -15 C 1.660156 -15.40625 1.453125 -15.742188 1.171875 -16.015625 L 1.171875 -16.125 L 5.0625 -17.4375 L 5.171875 -17.4375 L 5.171875 -2.765625 C 5.171875 -2.210938 5.226562 -1.707031 5.34375 -1.25 C 5.46875 -0.789062 5.628906 -0.410156 5.828125 -0.109375 L 5.828125 0 L 1.359375 0 Z M 1.359375 -0.109375 "/></g></g></g><g fill="#ffffff" fill-opacity="1"><g transform="translate(503.779436, 167.68624)"><g><path d="M 11.640625 -3.953125 C 11.367188 -2.660156 10.769531 -1.628906 9.84375 -0.859375 C 8.925781 -0.0859375 7.804688 0.296875 6.484375 0.296875 C 5.441406 0.296875 4.5 0.0664062 3.65625 -0.390625 C 2.8125 -0.847656 2.140625 -1.519531 1.640625 -2.40625 C 1.148438 -3.300781 0.90625 -4.359375 0.90625 -5.578125 C 0.90625 -6.835938 1.171875 -7.953125 1.703125 -8.921875 C 2.234375 -9.898438 2.941406 -10.65625 3.828125 -11.1875 C 4.722656 -11.726562 5.691406 -12 6.734375 -12 C 7.703125 -12 8.546875 -11.796875 9.265625 -11.390625 C 9.984375 -10.992188 10.53125 -10.453125 10.90625 -9.765625 C 11.28125 -9.078125 11.46875 -8.332031 11.46875 -7.53125 L 3.46875 -7.53125 C 3.507812 -6.363281 3.738281 -5.363281 4.15625 -4.53125 C 4.582031 -3.695312 5.132812 -3.066406 5.8125 -2.640625 C 6.488281 -2.222656 7.234375 -2.015625 8.046875 -2.015625 C 8.816406 -2.015625 9.492188 -2.1875 10.078125 -2.53125 C 10.660156 -2.875 11.101562 -3.347656 11.40625 -3.953125 Z M 5.859375 -11.328125 C 5.148438 -11.328125 4.578125 -11.050781 4.140625 -10.5 C 3.703125 -9.945312 3.476562 -9.140625 3.46875 -8.078125 L 8.359375 -8.078125 C 8.265625 -9.078125 8 -9.867188 7.5625 -10.453125 C 7.132812 -11.035156 6.566406 -11.328125 5.859375 -11.328125 Z M 5.859375 -11.328125 "/></g></g></g><g fill="#ffffff" fill-opacity="1"><g transform="translate(515.615647, 167.68624)"><g><path d="M 6.875 0.296875 C 4.925781 0.296875 3.226562 -0.164062 1.78125 -1.09375 L 1.78125 -13.4375 C 1.78125 -14.070312 1.707031 -14.59375 1.5625 -15 C 1.425781 -15.40625 1.21875 -15.742188 0.9375 -16.015625 L 0.9375 -16.125 L 4.828125 -17.4375 L 4.9375 -17.4375 L 4.9375 -9.90625 L 5.0625 -9.90625 C 5.4375 -10.5625 5.925781 -11.070312 6.53125 -11.4375 C 7.132812 -11.8125 7.835938 -12 8.640625 -12 C 9.554688 -12 10.363281 -11.757812 11.0625 -11.28125 C 11.769531 -10.8125 12.3125 -10.132812 12.6875 -9.25 C 13.070312 -8.375 13.265625 -7.359375 13.265625 -6.203125 C 13.265625 -5.046875 13 -3.972656 12.46875 -2.984375 C 11.945312 -1.992188 11.203125 -1.195312 10.234375 -0.59375 C 9.265625 0 8.144531 0.296875 6.875 0.296875 Z M 7 -0.234375 C 7.914062 -0.234375 8.625 -0.710938 9.125 -1.671875 C 9.625 -2.628906 9.875 -3.929688 9.875 -5.578125 C 9.875 -7.085938 9.632812 -8.265625 9.15625 -9.109375 C 8.6875 -9.953125 8.03125 -10.375 7.1875 -10.375 C 6.570312 -10.375 6.0625 -10.1875 5.65625 -9.8125 C 5.257812 -9.445312 5.019531 -8.976562 4.9375 -8.40625 L 4.9375 -1.890625 C 5.019531 -1.441406 5.238281 -1.050781 5.59375 -0.71875 C 5.945312 -0.394531 6.414062 -0.234375 7 -0.234375 Z M 7 -0.234375 "/></g></g></g><g fill="#ffffff" fill-opacity="1"><g transform="translate(529.323244, 167.68624)"><g><path d="M 1.640625 -0.109375 C 2.179688 -0.847656 2.453125 -1.832031 2.453125 -3.0625 L 2.453125 -13.3125 C 2.453125 -14.550781 2.179688 -15.535156 1.640625 -16.265625 L 1.640625 -16.390625 L 8.59375 -16.390625 C 10.25 -16.390625 11.617188 -16.078125 12.703125 -15.453125 C 13.796875 -14.828125 14.34375 -13.84375 14.34375 -12.5 C 14.34375 -11.46875 13.984375 -10.640625 13.265625 -10.015625 C 12.546875 -9.390625 11.691406 -9 10.703125 -8.84375 L 10.703125 -8.75 C 11.878906 -8.613281 12.882812 -8.171875 13.71875 -7.421875 C 14.5625 -6.679688 14.984375 -5.707031 14.984375 -4.5 C 14.984375 -2.9375 14.363281 -1.796875 13.125 -1.078125 C 11.894531 -0.359375 10.382812 0 8.59375 0 L 1.640625 0 Z M 7.5625 -9.0625 C 8.59375 -9.0625 9.394531 -9.375 9.96875 -10 C 10.550781 -10.625 10.84375 -11.441406 10.84375 -12.453125 C 10.84375 -13.429688 10.546875 -14.238281 9.953125 -14.875 C 9.367188 -15.507812 8.578125 -15.828125 7.578125 -15.828125 C 7.003906 -15.828125 6.429688 -15.71875 5.859375 -15.5 L 5.859375 -9.0625 Z M 7.75 -0.5625 C 8.851562 -0.5625 9.738281 -0.914062 10.40625 -1.625 C 11.082031 -2.332031 11.421875 -3.289062 11.421875 -4.5 C 11.421875 -5.738281 11.078125 -6.707031 10.390625 -7.40625 C 9.703125 -8.113281 8.78125 -8.46875 7.625 -8.46875 L 5.859375 -8.46875 L 5.859375 -0.984375 C 6.367188 -0.703125 7 -0.5625 7.75 -0.5625 Z M 7.75 -0.5625 "/></g></g></g><g fill="#ffffff" fill-opacity="1"><g transform="translate(544.808655, 167.68624)"><g><path d="M 6.8125 0.296875 C 5.65625 0.296875 4.625 0.0351562 3.71875 -0.484375 C 2.8125 -1.015625 2.101562 -1.742188 1.59375 -2.671875 C 1.09375 -3.609375 0.84375 -4.671875 0.84375 -5.859375 C 0.84375 -7.035156 1.09375 -8.085938 1.59375 -9.015625 C 2.101562 -9.953125 2.8125 -10.679688 3.71875 -11.203125 C 4.625 -11.734375 5.65625 -12 6.8125 -12 C 7.945312 -12 8.96875 -11.734375 9.875 -11.203125 C 10.78125 -10.679688 11.484375 -9.953125 11.984375 -9.015625 C 12.492188 -8.085938 12.75 -7.035156 12.75 -5.859375 C 12.75 -4.671875 12.492188 -3.609375 11.984375 -2.671875 C 11.484375 -1.742188 10.78125 -1.015625 9.875 -0.484375 C 8.96875 0.0351562 7.945312 0.296875 6.8125 0.296875 Z M 6.8125 -0.234375 C 7.664062 -0.234375 8.300781 -0.742188 8.71875 -1.765625 C 9.144531 -2.785156 9.359375 -4.148438 9.359375 -5.859375 C 9.359375 -7.554688 9.144531 -8.914062 8.71875 -9.9375 C 8.300781 -10.957031 7.664062 -11.46875 6.8125 -11.46875 C 5.957031 -11.46875 5.3125 -10.957031 4.875 -9.9375 C 4.445312 -8.914062 4.234375 -7.554688 4.234375 -5.859375 C 4.234375 -4.148438 4.445312 -2.785156 4.875 -1.765625 C 5.3125 -0.742188 5.957031 -0.234375 6.8125 -0.234375 Z M 6.8125 -0.234375 "/></g></g></g><g fill="#ffffff" fill-opacity="1"><g transform="translate(557.931429, 167.68624)"><g><path d="M 6.8125 0.296875 C 5.65625 0.296875 4.625 0.0351562 3.71875 -0.484375 C 2.8125 -1.015625 2.101562 -1.742188 1.59375 -2.671875 C 1.09375 -3.609375 0.84375 -4.671875 0.84375 -5.859375 C 0.84375 -7.035156 1.09375 -8.085938 1.59375 -9.015625 C 2.101562 -9.953125 2.8125 -10.679688 3.71875 -11.203125 C 4.625 -11.734375 5.65625 -12 6.8125 -12 C 7.945312 -12 8.96875 -11.734375 9.875 -11.203125 C 10.78125 -10.679688 11.484375 -9.953125 11.984375 -9.015625 C 12.492188 -8.085938 12.75 -7.035156 12.75 -5.859375 C 12.75 -4.671875 12.492188 -3.609375 11.984375 -2.671875 C 11.484375 -1.742188 10.78125 -1.015625 9.875 -0.484375 C 8.96875 0.0351562 7.945312 0.296875 6.8125 0.296875 Z M 6.8125 -0.234375 C 7.664062 -0.234375 8.300781 -0.742188 8.71875 -1.765625 C 9.144531 -2.785156 9.359375 -4.148438 9.359375 -5.859375 C 9.359375 -7.554688 9.144531 -8.914062 8.71875 -9.9375 C 8.300781 -10.957031 7.664062 -11.46875 6.8125 -11.46875 C 5.957031 -11.46875 5.3125 -10.957031 4.875 -9.9375 C 4.445312 -8.914062 4.234375 -7.554688 4.234375 -5.859375 C 4.234375 -4.148438 4.445312 -2.785156 4.875 -1.765625 C 5.3125 -0.742188 5.957031 -0.234375 6.8125 -0.234375 Z M 6.8125 -0.234375 "/></g></g></g><g fill="#ffffff" fill-opacity="1"><g transform="translate(571.054204, 167.68624)"><g><path d="M 1.359375 -0.109375 C 1.554688 -0.410156 1.710938 -0.789062 1.828125 -1.25 C 1.953125 -1.707031 2.015625 -2.210938 2.015625 -2.765625 L 2.015625 -13.4375 C 2.015625 -14.070312 1.941406 -14.59375 1.796875 -15 C 1.660156 -15.40625 1.453125 -15.742188 1.171875 -16.015625 L 1.171875 -16.125 L 5.0625 -17.4375 L 5.171875 -17.4375 L 5.171875 -2.765625 C 5.171875 -2.210938 5.226562 -1.707031 5.34375 -1.25 C 5.46875 -0.789062 5.628906 -0.410156 5.828125 -0.109375 L 5.828125 0 L 1.359375 0 Z M 11.71875 0.1875 C 10.988281 0.1875 10.382812 0.0546875 9.90625 -0.203125 C 9.4375 -0.472656 8.984375 -0.910156 8.546875 -1.515625 L 5.640625 -5.484375 L 5.640625 -5.59375 L 8.515625 -8.890625 C 9.128906 -9.597656 9.4375 -10.203125 9.4375 -10.703125 C 9.4375 -11.054688 9.300781 -11.351562 9.03125 -11.59375 L 9.03125 -11.703125 L 12.609375 -11.703125 L 12.609375 -11.59375 C 11.960938 -11.28125 11.398438 -10.941406 10.921875 -10.578125 C 10.441406 -10.222656 9.929688 -9.75 9.390625 -9.15625 L 7.984375 -7.625 L 12.421875 -1.640625 C 12.953125 -0.921875 13.351562 -0.515625 13.625 -0.421875 L 13.625 -0.25 C 13.375 -0.125 13.078125 -0.0195312 12.734375 0.0625 C 12.390625 0.144531 12.050781 0.1875 11.71875 0.1875 Z M 11.71875 0.1875 "/></g></g></g><g clip-path="url(#9494f11dd0)"><path fill="#ffffff" d="M 351.519531 470.789062 L 385.757812 470.132812 L 385.382812 470.808594 C 385.136719 470.398438 384.804688 469.878906 384.382812 469.21875 C 383.746094 468.222656 382.945312 466.964844 382.078125 465.519531 C 379.332031 460.933594 375.90625 454.378906 375.117188 448.105469 C 374.59375 443.976562 374.941406 440.78125 375.359375 436.914062 C 375.90625 431.875 376.582031 425.621094 375.667969 414.464844 C 375.621094 413.914062 375.449219 413.027344 375.230469 411.921875 C 374.914062 410.289062 374.507812 408.230469 374.347656 406.273438 C 374.179688 404.242188 374.261719 402.199219 375.074219 400.859375 C 377.546875 396.78125 379.863281 390.117188 381.746094 384.679688 C 383.007812 381.046875 384.089844 377.910156 384.898438 376.582031 C 385.058594 376.316406 385.234375 376.078125 385.429688 375.925781 C 387.785156 374.066406 390.714844 370.148438 390.535156 369.402344 L 390.523438 369.296875 L 390.96875 369.296875 L 390.535156 369.402344 C 390.535156 369.402344 390.539062 369.417969 390.554688 369.4375 C 390.574219 369.464844 390.597656 369.476562 390.609375 369.480469 L 390.609375 369.484375 C 389.25 368.96875 388.164062 369.984375 387.441406 371.894531 C 387.011719 373.027344 386.777344 374.34375 386.746094 375.464844 L 386.703125 375.257812 C 386.632812 375.117188 386.496094 375.113281 386.492188 375.113281 L 386.515625 375.558594 L 386.492188 375.113281 C 386.507812 375.113281 386.574219 375.101562 386.703125 375.035156 C 387.410156 374.695312 388.769531 373.480469 389.75 371.988281 C 390.308594 371.136719 390.871094 368.8125 390.878906 368.777344 C 390.910156 368.660156 390.984375 368.558594 391.085938 368.5 C 391.191406 368.4375 391.316406 368.421875 391.433594 368.453125 C 396.175781 369.746094 396.523438 373.285156 396.53125 373.375 C 396.914062 377.726562 395.410156 384.835938 395.414062 384.820312 L 395.421875 384.71875 C 395.425781 384.847656 395.394531 384.96875 395.347656 385.074219 L 394.941406 384.886719 L 395.347656 385.074219 C 394.90625 386.039062 392.359375 386.546875 390.351562 386.582031 C 389.433594 386.601562 388.507812 386.527344 387.730469 386.316406 L 387.988281 385.457031 C 389.007812 385.796875 390.003906 386.015625 390.925781 386.21875 C 391.664062 386.382812 392.367188 386.535156 392.960938 386.730469 C 394.273438 387.164062 395.269531 387.890625 394.976562 389.523438 C 394.0625 394.613281 392.421875 404.113281 386.363281 403.027344 C 385.878906 402.9375 385.375 402.785156 384.847656 402.558594 C 384.652344 402.472656 384.542969 402.261719 384.589844 402.054688 C 384.632812 401.847656 384.816406 401.699219 385.027344 401.699219 C 387.945312 401.71875 389.257812 403.542969 390.191406 404.828125 C 390.214844 404.863281 390.25 404.910156 390.277344 404.945312 C 391.097656 406.074219 391.535156 408.519531 392.035156 411.238281 C 392.65625 414.628906 393.398438 418.644531 394.972656 421.90625 L 394.128906 422.171875 C 391.632812 406.761719 397.796875 394.363281 401.015625 391.007812 L 400.894531 391.257812 C 401.011719 390.34375 398.105469 386.035156 397.273438 385.21875 C 397.105469 385.054688 397.09375 384.789062 397.246094 384.609375 C 397.398438 384.433594 397.660156 384.402344 397.851562 384.539062 C 398.878906 385.292969 399.773438 386.304688 400.503906 387.121094 C 401.058594 387.746094 401.488281 388.230469 401.839844 388.484375 C 402.035156 388.628906 402.121094 388.632812 402.128906 388.632812 L 402.160156 389.078125 L 402.128906 388.632812 C 402.117188 388.632812 402.117188 388.640625 402.128906 388.628906 L 402.042969 388.730469 C 409.601562 376.335938 409.625 373.46875 409.621094 373.597656 C 409.683594 371.535156 407.761719 368.921875 406.804688 368.605469 C 404.375 367.808594 403.226562 369.203125 401.292969 371.644531 C 400.351562 372.835938 399.253906 374.226562 397.769531 375.550781 L 397.902344 375.328125 C 396.597656 380.277344 393.433594 398.605469 392.722656 406.246094 C 392.710938 406.386719 392.8125 405.847656 392.332031 405.800781 C 392.105469 405.78125 391.972656 405.949219 392.039062 405.886719 L 392.347656 406.210938 L 392.039062 405.886719 C 392.152344 405.78125 392.523438 405.238281 393.089844 404.398438 C 393.929688 403.152344 395.117188 401.394531 396.132812 400.222656 C 396.515625 399.78125 397 399.191406 397.53125 398.550781 C 398.214844 397.726562 398.988281 396.785156 399.804688 395.847656 C 401.453125 393.941406 403.304688 391.992188 404.859375 391.035156 C 406.703125 389.902344 408.574219 388.5625 410.566406 387.140625 C 412.148438 386.007812 413.792969 384.832031 415.535156 383.679688 C 417.707031 382.246094 419.269531 381.804688 419.859375 382.699219 C 420.246094 383.28125 419.898438 384.058594 419.507812 384.519531 C 417.699219 386.652344 414.613281 388.246094 413.515625 387.695312 C 413.460938 387.667969 413.402344 387.632812 413.351562 387.585938 C 413.1875 387.449219 413.097656 387.257812 413.082031 387.050781 L 413.082031 387.046875 C 413.078125 387.019531 413.078125 386.992188 413.078125 386.964844 C 413.097656 385.441406 417.378906 383.132812 419.585938 382.828125 C 419.746094 382.804688 419.90625 382.871094 420.003906 383 C 421.398438 384.8125 423.027344 387.441406 421.714844 390.359375 C 420.257812 393.601562 414.757812 399.046875 412.785156 400.246094 C 411.234375 401.191406 409.527344 400.347656 408.308594 399.773438 C 407.839844 399.554688 407.429688 399.363281 407.070312 399.253906 L 407.570312 398.574219 L 410.304688 402.582031 C 410.378906 402.691406 410.402344 402.828125 410.363281 402.957031 C 410.328125 403.085938 410.238281 403.1875 410.117188 403.242188 C 408.347656 404.039062 407.230469 406.222656 405.695312 409.289062 C 404.59375 411.492188 403.304688 414.066406 401.410156 416.644531 C 400.117188 418.410156 399.476562 425.855469 400.625 431.011719 C 401.0625 432.988281 405.609375 438.53125 405.660156 438.59375 L 405.316406 438.878906 L 404.941406 438.632812 C 405.289062 438.105469 404.367188 436.636719 402.851562 434.460938 C 401.785156 432.925781 400.574219 431.203125 400.25 429.824219 C 399.71875 427.589844 400.972656 424.824219 401.648438 423.3125 C 401.785156 423.003906 401.898438 422.746094 401.980469 422.542969 C 402.8125 420.433594 405.203125 417.738281 407.179688 415.496094 C 408.167969 414.378906 409.0625 413.367188 409.660156 412.5625 L 409.65625 412.5625 C 410.625 411.257812 412.167969 410.09375 413.976562 408.722656 C 415.835938 407.3125 418.023438 405.648438 420.328125 403.335938 C 421.761719 401.898438 423.117188 402.640625 424.15625 403.191406 C 424.609375 403.429688 425.003906 403.636719 425.398438 403.734375 C 425.515625 403.761719 425.617188 403.835938 425.675781 403.941406 C 425.738281 404.042969 425.753906 404.167969 425.726562 404.28125 C 423.933594 411.046875 421.535156 417.824219 417.800781 419.066406 C 416.757812 419.414062 414.871094 418.242188 413.875 417.648438 C 413.46875 417.40625 413.167969 417.230469 412.992188 417.152344 L 413.605469 416.625 C 413.746094 417.152344 414.113281 417.625 414.582031 418.210938 C 415.082031 418.835938 415.675781 419.574219 415.9375 420.539062 C 416.066406 421.011719 416.113281 421.53125 416.042969 422.113281 C 415.734375 424.628906 413.472656 428.210938 412.4375 429.859375 C 412.242188 430.171875 412.09375 430.414062 411.996094 430.574219 C 411.753906 430.988281 411.351562 431.359375 410.820312 431.105469 L 411.015625 430.703125 L 410.820312 431.105469 C 410.796875 431.09375 410.773438 431.082031 410.753906 431.070312 L 410.75 431.070312 C 410.464844 430.902344 410.210938 430.539062 410.023438 430.277344 C 409.71875 429.859375 409.433594 429.476562 409.082031 429.269531 C 408.832031 429.125 408.542969 429.066406 408.144531 429.207031 L 408.285156 428.449219 C 410.277344 430.152344 411.664062 434.34375 411.652344 434.308594 L 411.648438 434.292969 C 411.621094 434.226562 411.660156 434.328125 411.652344 434.304688 L 411.652344 434.3125 C 411.757812 434.632812 411.851562 435.777344 411.960938 437.023438 C 412.140625 439.148438 412.371094 441.789062 412.695312 442.765625 C 412.722656 442.839844 412.742188 442.894531 412.761719 442.933594 C 413.660156 444.746094 415.667969 445.464844 416.671875 444.964844 C 416.917969 444.839844 417.121094 444.644531 417.253906 444.347656 C 419.269531 439.871094 420.746094 434.785156 420.699219 423.84375 C 420.695312 422.347656 423.074219 420.929688 427.171875 420.910156 C 428.328125 420.90625 429.648438 421.007812 431.144531 421.253906 C 431.367188 421.289062 431.53125 421.488281 431.519531 421.714844 C 431.511719 421.941406 431.332031 422.125 431.105469 422.140625 C 428.242188 422.355469 423.132812 422.21875 421.71875 419.632812 C 419.964844 416.429688 422.414062 410.515625 424.574219 405.191406 C 424.722656 404.828125 424.742188 404.78125 424.890625 404.417969 C 426.039062 401.582031 430.589844 398.539062 433.605469 399.761719 C 434.097656 399.960938 434.539062 400.269531 434.910156 400.707031 C 436.339844 402.378906 436.6875 409.195312 435.230469 410.4375 C 435.113281 410.539062 434.976562 410.617188 434.8125 410.65625 C 432.496094 411.203125 427.117188 410.515625 426.542969 408.945312 C 426.058594 407.621094 427.617188 402.644531 428.515625 401.609375 C 429.988281 399.914062 433.851562 399.859375 435.367188 401.175781 C 435.488281 401.285156 435.601562 401.40625 435.699219 401.535156 C 437.523438 404.050781 438.269531 410.652344 438.492188 413.257812 C 438.773438 416.601562 438.699219 423.03125 438.621094 429.84375 C 438.53125 437.679688 438.4375 446.050781 438.855469 451.015625 C 438.863281 451.085938 438.871094 451.195312 438.878906 451.265625 C 438.996094 452.566406 439.097656 454.011719 439.199219 455.503906 C 439.3125 457.125 439.433594 458.839844 439.582031 460.5 C 439.910156 464.160156 440.394531 467.632812 441.296875 469.960938 L 440.878906 469.675781 L 587.394531 469.410156 L 586.957031 469.757812 C 589.8125 457.414062 587.820312 446.914062 586.230469 438.550781 C 585.195312 433.125 584.308594 428.5 585.136719 424.914062 C 585.5 423.335938 586.199219 421.949219 587.363281 420.777344 C 594.996094 413.101562 621.097656 410.53125 621.007812 410.539062 L 620.660156 411.203125 C 619.546875 409.203125 614.082031 408.375 606.683594 408.320312 C 596.867188 408.25 588.769531 415.46875 586.214844 417.75 C 585.859375 418.066406 585.5625 418.335938 585.40625 418.433594 C 585.398438 418.4375 585.273438 418.523438 585.113281 418.523438 C 584.796875 418.519531 584.65625 418.242188 584.660156 418.054688 C 584.660156 417.945312 584.699219 417.855469 584.710938 417.828125 C 584.722656 417.804688 584.734375 417.777344 584.746094 417.753906 L 584.742188 418.160156 C 579.695312 407.832031 574.167969 397.558594 574.15625 397.539062 L 574.101562 397.328125 C 574.101562 397.253906 574.191406 397.605469 574.15625 397.539062 C 564.578125 379.738281 551.542969 355.019531 551.539062 355.011719 C 551.496094 354.929688 551.480469 354.839844 551.488281 354.746094 C 551.707031 352.949219 553.324219 351.902344 554.910156 350.839844 C 556.925781 349.488281 559.183594 347.960938 560.171875 344.832031 L 560.808594 345.363281 C 556.371094 347.730469 553.574219 349.742188 553.585938 349.734375 C 551.898438 350.945312 550.503906 351.816406 550.496094 351.820312 C 550.335938 351.921875 550.128906 351.90625 549.980469 351.785156 C 537.8125 341.875 538.722656 332.703125 541.667969 329.085938 C 542.421875 328.15625 543.355469 327.554688 544.261719 327.507812 C 549.132812 327.269531 551.304688 331.277344 551.722656 332.480469 C 552.59375 334.992188 549.722656 338.585938 546.851562 339.585938 C 546.476562 339.714844 546.09375 339.804688 545.707031 339.847656 C 543.382812 340.101562 541.070312 337.238281 540.859375 335.921875 C 540.285156 332.339844 542.105469 329.019531 545.355469 328.496094 C 546.316406 328.34375 547.378906 328.445312 548.507812 328.84375 C 551.582031 329.933594 554.613281 332.179688 558.140625 336.496094 C 560.753906 339.691406 563.457031 343.503906 566.035156 347.136719 C 568.40625 350.476562 570.660156 353.65625 572.660156 356.101562 C 574.5 358.355469 576.054688 359.890625 577.210938 360.390625 C 577.105469 360.34375 577.03125 360.371094 577.046875 360.367188 C 577.664062 360.207031 581.0625 356.953125 583 353.058594 C 585.386719 348.257812 583.726562 344.878906 581.933594 341.25 C 581.441406 340.253906 580.933594 339.230469 580.515625 338.167969 C 580.433594 337.96875 580.507812 337.742188 580.691406 337.628906 L 591.519531 330.773438 L 591.652344 331.585938 C 588.304688 330.773438 585.027344 331.738281 585.042969 331.734375 C 582.859375 332.378906 580.316406 334.921875 580.28125 334.953125 L 579.972656 334.628906 L 579.578125 334.835938 L 571.628906 319.742188 L 571.632812 319.746094 C 571.609375 319.707031 571.589844 319.664062 571.578125 319.625 C 571.203125 318.546875 572.863281 315.742188 574.5625 314.40625 C 574.75 314.257812 575.023438 314.285156 575.179688 314.464844 C 575.332031 314.648438 575.320312 314.921875 575.144531 315.085938 C 572.121094 317.917969 568.804688 317.320312 565.417969 313.707031 C 564.648438 312.886719 563.871094 311.910156 563.082031 310.777344 L 563.054688 310.726562 L 551.0625 287.394531 C 551.03125 287.335938 551.011719 287.269531 551.011719 287.203125 L 551.011719 287.199219 C 551.011719 287.179688 551.011719 287.164062 551.011719 287.144531 C 551.039062 286.582031 551.882812 284.390625 554.046875 284.339844 C 554.632812 284.324219 555.28125 284.472656 556 284.824219 C 557.578125 285.601562 560.1875 287.855469 559.546875 289.15625 C 559.25 289.757812 558.464844 289.835938 557.609375 289.726562 C 557.511719 289.710938 557.417969 289.667969 557.351562 289.597656 C 557.34375 289.59375 557.355469 289.601562 557.355469 289.601562 L 557.351562 289.597656 C 557.289062 289.539062 557.046875 289.382812 556.625 289.117188 C 555.878906 288.644531 554.730469 287.917969 554.019531 287.207031 C 553.867188 287.054688 553.726562 286.894531 553.613281 286.730469 C 553.160156 286.078125 553.195312 285.355469 553.738281 284.976562 C 553.957031 284.824219 554.230469 284.761719 554.496094 284.796875 C 557.246094 285.15625 563.167969 291.136719 568.621094 296.601562 C 570.789062 298.773438 572.90625 300.894531 574.792969 302.660156 C 581.484375 308.902344 588.796875 318.910156 594.703125 326.984375 C 595.484375 328.058594 596.292969 329.160156 597.019531 330.148438 C 598.136719 331.667969 599.695312 333.441406 601.164062 335.113281 C 602.433594 336.554688 603.636719 337.925781 604.398438 338.957031 C 604.820312 339.53125 605.164062 340.078125 605.25 340.5 C 605.957031 343.960938 606.765625 348.199219 607.664062 352.898438 C 608.765625 358.664062 609.988281 365.066406 611.289062 371.445312 C 613.632812 382.929688 616.210938 394.253906 618.738281 401.40625 C 618.894531 401.84375 618.996094 402.222656 618.964844 402.511719 C 618.9375 402.726562 618.820312 402.964844 618.546875 403.0625 C 618.449219 403.097656 618.351562 403.105469 618.273438 403.101562 C 617.953125 403.089844 617.511719 402.878906 617.136719 402.703125 C 616.117188 402.234375 614.722656 401.605469 613.234375 401.921875 C 596.382812 405.527344 589.410156 404.980469 583.679688 404.523438 C 581.972656 404.390625 580.394531 404.265625 578.699219 404.261719 C 570.847656 404.246094 558.007812 370.148438 558.117188 370.429688 L 558.148438 370.5 C 558.222656 370.621094 558.324219 370.636719 558.308594 370.632812 C 556.402344 370.210938 532.316406 380.507812 508.148438 390.867188 C 492.023438 397.78125 476.03125 404.636719 467.023438 408.085938 L 467.292969 407.789062 C 467.238281 407.988281 467.015625 408.199219 466.71875 408.117188 L 466.714844 408.117188 C 466.578125 408.078125 466.488281 407.984375 466.464844 407.960938 L 466.78125 407.644531 L 466.464844 407.960938 C 464.15625 405.625 417.226562 309.878906 415.707031 293.640625 C 415.695312 293.519531 415.722656 293.410156 415.753906 293.320312 C 417.527344 288.578125 516.578125 242.238281 525.171875 241.433594 C 525.269531 241.425781 525.363281 241.421875 525.449219 241.421875 C 532.746094 241.542969 582.546875 353.261719 582.433594 353.003906 L 582.023438 353.1875 L 581.828125 353.589844 C 581.984375 353.664062 581.296875 354.007812 579.773438 354.941406 C 578.121094 355.957031 575.804688 357.410156 574.996094 357.398438 L 575.003906 356.949219 L 574.996094 357.398438 C 574.914062 357.394531 574.804688 357.382812 574.699219 357.328125 C 574.609375 357.285156 574.523438 357.214844 574.464844 357.121094 C 573.929688 356.277344 574.585938 355.019531 575.058594 354.019531 C 575.765625 352.519531 576.496094 350.925781 576.019531 349.4375 C 575.53125 347.925781 574.988281 346.203125 574.410156 344.371094 C 573.730469 342.21875 572.988281 339.859375 572.203125 337.414062 C 567.832031 323.808594 562.046875 307.074219 556.78125 300.566406 C 555.546875 299.039062 547.390625 302.6875 536.238281 308.375 C 521.433594 315.925781 504.867188 322.714844 490.234375 328.707031 C 482.707031 331.792969 475.710938 334.660156 469.703125 337.324219 C 467.125 338.464844 463.984375 339.632812 460.699219 340.851562 C 457.035156 342.210938 453.183594 343.640625 449.667969 345.199219 C 445.597656 347.003906 442.027344 348.960938 439.738281 351.144531 L 439.828125 350.617188 C 439.695312 350.347656 439.394531 350.398438 439.507812 350.398438 C 442.324219 350.328125 513.734375 319.753906 513.929688 319.671875 L 513.90625 319.683594 L 513.910156 319.679688 C 552.160156 301.363281 556.601562 300.066406 557.195312 300.007812 L 557.199219 300.007812 C 557.175781 300.011719 557.546875 299.945312 557.703125 300.261719 L 557.71875 300.292969 C 557.742188 300.351562 557.75 300.410156 557.75 300.460938 L 557.300781 300.460938 L 557.464844 300.878906 C 551.914062 303.035156 545.390625 306.222656 538.417969 309.625 C 530.5 313.492188 522.007812 317.640625 513.785156 320.835938 C 509.882812 322.355469 506.035156 323.660156 502.328125 324.625 C 502.195312 324.660156 502.054688 324.632812 501.945312 324.546875 C 497.621094 321.234375 493.253906 311.875 487.035156 298.589844 C 482.925781 289.8125 477.984375 279.261719 471.6875 267.445312 C 471.574219 267.226562 471.65625 266.957031 471.871094 266.839844 C 472.089844 266.722656 472.359375 266.804688 472.476562 267.023438 L 503.617188 324.671875 L 503.632812 324.707031 L 527.964844 381.167969 C 528.035156 381.335938 528 381.53125 527.871094 381.660156 C 524.453125 385.117188 519.570312 386.980469 507.234375 391.722656 C 502.738281 393.453125 497.222656 395.574219 490.414062 398.289062 C 488.929688 398.882812 487.15625 399.539062 485.257812 400.246094 C 483.054688 401.066406 480.691406 401.945312 478.402344 402.855469 C 473.734375 404.71875 469.527344 406.675781 467.753906 408.449219 L 467.664062 407.746094 C 469.390625 408.75 472.921875 407.988281 478.238281 406.792969 C 478.972656 406.628906 479.742188 406.457031 480.535156 406.28125 C 483.421875 405.648438 516.980469 393.375 528.59375 387.96875 C 531.179688 386.765625 533.550781 385.679688 535.832031 384.632812 C 537.78125 383.742188 539.714844 382.855469 541.414062 382.0625 C 552.792969 376.765625 558.101562 373.632812 557.25 370.097656 L 557.25 370.09375 C 557.308594 370.339844 557.535156 370.347656 557.5 370.347656 L 557.53125 369.902344 L 557.5 370.347656 C 557.484375 370.347656 557.421875 370.347656 557.289062 370.378906 C 556.363281 370.605469 554.074219 371.691406 551.015625 373.148438 C 545.601562 375.726562 537.964844 379.367188 532.207031 380.757812 C 530.042969 381.277344 528.085938 381.5 526.589844 381.1875 C 526.449219 381.160156 526.328125 381.0625 526.269531 380.929688 L 502.242188 325.542969 L 502.3125 325.652344 C 488.039062 308.816406 471.929688 301.539062 460.878906 301.101562 C 457.808594 300.980469 453.851562 303.128906 453.785156 304.730469 C 453.78125 304.863281 453.800781 304.996094 453.855469 305.125 L 453.851562 305.125 C 453.855469 305.128906 453.851562 305.121094 453.855469 305.125 L 453.851562 305.125 C 454.742188 307.105469 481.332031 317.9375 501.808594 323.226562 L 501.25 323.667969 C 501.1875 320.726562 526.578125 284.652344 530.8125 284.558594 C 530.890625 284.558594 530.964844 284.5625 531.042969 284.582031 L 530.949219 285.019531 L 531.042969 284.582031 C 531.242188 284.625 531.414062 284.734375 531.535156 284.898438 C 535.890625 290.6875 525.617188 308.375 512.882812 317.953125 C 509.195312 320.730469 505.234375 322.890625 501.261719 323.949219 C 498.660156 324.640625 495.179688 323.421875 491.097656 322.015625 C 488.632812 321.167969 485.898438 320.226562 482.886719 319.5 C 479.816406 318.757812 476.890625 318.136719 474.152344 317.558594 C 471.78125 317.054688 469.550781 316.582031 467.53125 316.09375 C 461.183594 314.5625 456.46875 312.800781 455.765625 308.960938 C 455.410156 307.023438 457.179688 303.070312 461.457031 302.289062 C 461.683594 302.246094 461.917969 302.214844 462.160156 302.191406 C 467.4375 301.6875 473.335938 304.925781 478.613281 307.808594 C 481.375 309.316406 483.976562 310.734375 486.308594 311.5625 C 487.121094 311.851562 489.738281 313.835938 492.507812 315.933594 C 496.132812 318.675781 500.109375 321.675781 501.503906 322.171875 C 501.636719 322.21875 501.699219 322.222656 501.710938 322.222656 C 501.714844 322.222656 501.703125 322.222656 501.691406 322.226562 L 501.355469 322.574219 C 501.671875 320.980469 505.839844 308.832031 510.882812 304.261719 C 511.65625 303.5625 512.628906 302.652344 513.75 301.605469 C 515.238281 300.214844 517.007812 298.5625 518.847656 296.894531 C 523.898438 292.320312 529.800781 287.332031 533.3125 286.140625 C 534.910156 285.597656 536 285.984375 536.410156 287.191406 C 537.328125 289.886719 534.378906 296.363281 533.019531 298.011719 C 526.460938 305.960938 517.613281 315.640625 502.363281 323.550781 L 502.542969 323.378906 C 494.015625 338.105469 487.210938 352.492188 484.066406 370.105469 L 483.191406 369.933594 C 485.996094 356.957031 493.882812 326.289062 501.558594 324.179688 C 501.800781 324.113281 502.019531 324.191406 502.179688 324.3125 L 501.910156 324.667969 L 502.179688 324.3125 C 502.550781 324.59375 502.800781 325.273438 503.007812 326.015625 C 504.199219 330.367188 505.171875 342.902344 505.902344 352.257812 C 506.347656 357.96875 506.699219 362.445312 506.941406 363.335938 C 506.960938 363.394531 506.964844 363.398438 506.953125 363.378906 L 506.121094 363.660156 L 500.648438 323.527344 C 500.625 323.347656 500.710938 323.171875 500.863281 323.082031 C 501.015625 322.988281 501.210938 323 501.355469 323.105469 C 502.210938 323.730469 502.394531 324.46875 501.929688 325.105469 C 501.453125 325.753906 500.390625 326.109375 499.988281 326.117188 L 499.980469 325.667969 L 499.988281 326.117188 C 499.949219 326.117188 499.78125 326.121094 499.632812 326.015625 C 499.316406 325.78125 499.464844 325.4375 499.539062 325.339844 C 499.738281 325.0625 500.570312 324.695312 502.175781 324.15625 C 502.40625 324.078125 502.652344 324.199219 502.738281 324.425781 C 508.6875 340.609375 562.582031 366.523438 583.808594 375.171875 C 586.484375 376.261719 591.675781 376.957031 594.820312 377.375 C 596.058594 377.539062 597.058594 377.667969 597.347656 377.773438 C 597.359375 377.777344 597.367188 377.78125 597.378906 377.785156 L 597.375 377.785156 C 597.386719 377.789062 597.402344 377.792969 597.410156 377.796875 L 597.410156 377.800781 C 605.082031 381.417969 609.285156 388.933594 613.070312 395.683594 C 616.292969 401.417969 619.179688 406.53125 623.546875 408.667969 C 630.789062 412.210938 642.292969 467.800781 642.261719 467.652344 L 642.269531 467.742188 L 641.832031 467.296875 L 672.613281 467.785156 C 672.863281 467.789062 673.058594 467.992188 673.054688 468.238281 C 673.050781 468.484375 672.847656 468.683594 672.601562 468.679688 L 641.816406 468.191406 C 641.574219 468.1875 641.378906 467.988281 641.378906 467.742188 L 641.386719 467.835938 C 641.324219 467.53125 629.875 412.757812 623.15625 409.472656 C 618.484375 407.1875 615.460938 401.769531 612.292969 396.121094 C 608.476562 389.320312 604.398438 382.085938 597.03125 378.609375 C 597.039062 378.613281 597.035156 378.609375 597.042969 378.613281 L 597.035156 378.609375 C 597.039062 378.613281 597.042969 378.613281 597.042969 378.613281 C 596.875 378.550781 596.035156 378.4375 594.703125 378.261719 C 591.613281 377.851562 586.277344 377.144531 583.46875 376 C 562.464844 367.441406 508.019531 341.386719 501.898438 324.734375 L 502.460938 325.003906 C 500.6875 325.601562 500.246094 325.882812 500.257812 325.867188 C 500.296875 325.8125 500.449219 325.503906 500.160156 325.292969 C 500.042969 325.207031 499.933594 325.222656 499.972656 325.222656 L 499.980469 325.667969 L 499.972656 325.222656 C 500.167969 325.21875 500.9375 324.949219 501.207031 324.578125 C 501.28125 324.476562 501.4375 324.269531 500.828125 323.828125 L 501.535156 323.40625 L 507.007812 363.539062 C 507.035156 363.75 506.910156 363.953125 506.707031 364.019531 C 506.503906 364.089844 506.28125 364.003906 506.175781 363.816406 C 506.128906 363.738281 506.101562 363.644531 506.082031 363.570312 L 506.082031 363.574219 C 505.808594 362.574219 505.449219 357.953125 505.011719 352.328125 C 504.277344 342.90625 503.308594 330.5 502.144531 326.253906 C 501.917969 325.433594 501.726562 325.089844 501.640625 325.027344 L 501.910156 324.667969 L 501.640625 325.027344 C 501.648438 325.03125 501.710938 325.066406 501.796875 325.042969 C 494.800781 326.964844 486.964844 356.707031 484.0625 370.121094 C 484.011719 370.359375 483.78125 370.511719 483.539062 370.464844 C 483.300781 370.417969 483.144531 370.1875 483.1875 369.949219 C 486.355469 352.1875 493.21875 337.699219 501.769531 322.929688 C 501.8125 322.855469 501.875 322.796875 501.953125 322.757812 C 517.050781 314.925781 525.804688 305.347656 532.332031 297.445312 C 533.664062 295.832031 536.316406 289.695312 535.5625 287.476562 C 535.375 286.921875 534.933594 286.535156 533.597656 286.988281 C 530.304688 288.105469 524.558594 292.929688 519.449219 297.558594 C 517.617188 299.21875 515.847656 300.871094 514.359375 302.257812 C 513.238281 303.308594 512.265625 304.21875 511.484375 304.925781 C 506.65625 309.296875 502.539062 321.210938 502.230469 322.75 C 502.195312 322.921875 502.066406 323.058594 501.894531 323.097656 C 501.835938 323.109375 501.78125 323.117188 501.730469 323.117188 C 501.554688 323.121094 501.371094 323.074219 501.207031 323.011719 C 499.636719 322.457031 495.5 319.320312 491.96875 316.648438 C 489.089844 314.46875 486.652344 312.632812 486.007812 312.40625 C 483.597656 311.550781 480.929688 310.089844 478.183594 308.59375 C 472.816406 305.664062 467.191406 302.609375 462.242188 303.082031 C 462.03125 303.101562 461.816406 303.128906 461.617188 303.167969 C 457.816406 303.863281 456.382812 307.359375 456.644531 308.800781 C 457.222656 311.964844 461.199219 313.644531 467.742188 315.226562 C 469.746094 315.710938 471.960938 316.179688 474.335938 316.683594 C 477.074219 317.261719 480.011719 317.882812 483.097656 318.628906 C 486.152344 319.367188 488.929688 320.324219 491.386719 321.171875 C 495.597656 322.621094 498.757812 323.6875 501.03125 323.082031 C 504.863281 322.0625 508.71875 319.972656 512.347656 317.238281 C 525.273438 307.511719 534.578125 290.429688 530.820312 285.433594 C 530.828125 285.441406 530.84375 285.453125 530.851562 285.453125 L 530.949219 285.019531 L 530.851562 285.453125 C 530.851562 285.453125 530.847656 285.453125 530.832031 285.453125 C 527.300781 285.53125 502.085938 320.964844 502.144531 323.648438 C 502.148438 323.789062 502.085938 323.921875 501.976562 324.007812 C 501.867188 324.09375 501.722656 324.125 501.585938 324.089844 C 481.402344 318.882812 454.152344 307.976562 453.039062 305.488281 L 453.035156 305.488281 C 453.03125 305.472656 453.027344 305.46875 453.023438 305.453125 C 452.925781 305.207031 452.882812 304.949219 452.894531 304.695312 C 452.992188 302.214844 457.855469 300.085938 460.914062 300.207031 C 472.277344 300.65625 488.605469 308.101562 502.996094 325.074219 C 503.023438 325.109375 503.046875 325.144531 503.0625 325.183594 L 527.089844 380.574219 L 526.773438 380.3125 C 528.066406 380.582031 529.867188 380.402344 531.996094 379.886719 C 537.644531 378.523438 545.1875 374.933594 550.632812 372.339844 C 553.621094 370.917969 556.035156 369.761719 557.078125 369.511719 C 557.238281 369.472656 557.40625 369.445312 557.558594 369.453125 L 557.53125 369.902344 L 557.558594 369.453125 C 557.703125 369.464844 558.03125 369.53125 558.117188 369.886719 C 559.191406 374.332031 552.679688 377.808594 541.789062 382.875 C 540.074219 383.675781 538.167969 384.546875 536.207031 385.445312 C 533.921875 386.492188 531.554688 387.578125 528.96875 388.78125 C 517.339844 394.195312 483.707031 406.503906 480.726562 407.15625 C 479.949219 407.324219 479.15625 407.503906 478.433594 407.667969 C 473.347656 408.808594 469.328125 409.746094 467.214844 408.519531 C 467.09375 408.449219 467.011719 408.328125 466.996094 408.191406 C 466.976562 408.050781 467.023438 407.914062 467.121094 407.816406 C 469.050781 405.886719 473.453125 403.867188 478.070312 402.027344 C 480.375 401.105469 482.738281 400.226562 484.945312 399.40625 C 486.84375 398.703125 488.613281 398.042969 490.082031 397.460938 C 496.902344 394.738281 502.410156 392.621094 506.914062 390.886719 C 519.34375 386.109375 523.984375 384.316406 527.234375 381.03125 L 527.144531 381.523438 L 502.8125 325.0625 L 502.828125 325.097656 L 471.691406 267.449219 L 472.476562 267.023438 C 478.785156 278.863281 483.738281 289.433594 487.84375 298.210938 C 494.128906 311.632812 498.386719 320.695312 502.488281 323.835938 L 502.105469 323.757812 C 505.765625 322.808594 509.582031 321.511719 513.460938 320.003906 C 521.644531 316.820312 530.097656 312.691406 538.027344 308.820312 C 544.988281 305.421875 551.550781 302.21875 557.140625 300.042969 L 557.300781 300.460938 L 556.855469 300.460938 C 556.855469 300.511719 556.863281 300.570312 556.886719 300.625 L 556.902344 300.65625 C 557.054688 300.972656 557.410156 300.886719 557.28125 300.898438 C 556.894531 300.9375 552.667969 302.113281 514.296875 320.488281 L 514.304688 320.484375 L 514.28125 320.496094 C 514.285156 320.492188 442.578125 351.214844 439.53125 351.289062 C 439.542969 351.289062 439.183594 351.328125 439.03125 351.019531 C 438.941406 350.84375 438.980469 350.632812 439.121094 350.496094 C 441.527344 348.199219 445.21875 346.191406 449.304688 344.382812 C 452.851562 342.808594 456.730469 341.371094 460.386719 340.011719 C 463.679688 338.789062 466.792969 337.636719 469.34375 336.503906 C 475.367188 333.835938 482.367188 330.964844 489.894531 327.882812 C 504.53125 321.882812 521.066406 315.109375 535.832031 307.578125 C 546.324219 302.226562 555.640625 297.734375 557.476562 300.003906 C 562.871094 306.675781 568.707031 323.609375 573.050781 337.140625 C 573.839844 339.59375 574.582031 341.945312 575.261719 344.101562 C 575.847656 345.945312 576.378906 347.640625 576.871094 349.164062 C 577.476562 351.050781 576.535156 352.988281 575.867188 354.402344 C 575.261719 355.679688 575.019531 356.324219 575.21875 356.640625 C 575.183594 356.585938 575.136719 356.546875 575.089844 356.527344 C 575.042969 356.5 575.007812 356.503906 575.011719 356.503906 L 575.003906 356.949219 L 575.011719 356.503906 C 575.476562 356.511719 577.445312 355.324219 579.304688 354.179688 C 580.332031 353.550781 581.789062 352.574219 582.222656 352.785156 L 582.023438 353.1875 L 581.617188 353.371094 C 581.445312 352.988281 531.972656 242.425781 525.433594 242.316406 C 525.386719 242.316406 525.328125 242.320312 525.253906 242.324219 C 516.65625 243.128906 418.160156 289.441406 416.59375 293.632812 C 416.59375 293.636719 416.601562 293.609375 416.597656 293.558594 C 418.097656 309.59375 464.941406 405.144531 467.101562 407.332031 L 466.78125 407.644531 L 467.101562 407.332031 C 467.121094 407.351562 467.066406 407.285156 466.957031 407.253906 C 466.683594 407.179688 466.480469 407.378906 466.433594 407.546875 C 466.46875 407.414062 466.570312 407.300781 466.703125 407.25 C 475.691406 403.808594 491.664062 396.960938 507.796875 390.046875 C 531.644531 379.820312 556.21875 369.253906 558.5 369.757812 C 558.613281 369.785156 558.804688 369.851562 558.917969 370.042969 L 558.953125 370.113281 C 559.058594 370.394531 571.660156 403.351562 578.699219 403.367188 C 580.4375 403.371094 582.046875 403.496094 583.75 403.632812 C 589.40625 404.082031 596.292969 404.632812 613.046875 401.046875 C 614.863281 400.660156 616.523438 401.4375 617.507812 401.890625 C 617.992188 402.113281 618.214844 402.207031 618.304688 402.207031 C 618.308594 402.207031 618.285156 402.207031 618.246094 402.21875 C 618.109375 402.269531 618.078125 402.394531 618.074219 402.40625 C 618.082031 402.355469 618.058594 402.164062 617.898438 401.703125 C 615.347656 394.488281 612.753906 383.101562 610.414062 371.625 C 609.113281 365.246094 607.886719 358.828125 606.785156 353.066406 C 605.890625 348.375 605.078125 344.121094 604.375 340.675781 C 604.335938 340.480469 604.117188 340.085938 603.675781 339.488281 C 602.945312 338.492188 601.773438 337.160156 600.492188 335.703125 C 599.03125 334.042969 597.445312 332.238281 596.296875 330.679688 C 595.585938 329.710938 594.746094 328.5625 593.980469 327.515625 C 588.058594 319.414062 580.800781 309.484375 574.183594 303.3125 C 572.28125 301.539062 570.152344 299.402344 567.988281 297.234375 C 562.34375 291.578125 556.734375 285.992188 554.382812 285.683594 C 554.320312 285.675781 554.273438 285.691406 554.25 285.710938 C 554.246094 285.710938 554.074219 285.824219 554.347656 286.21875 C 554.421875 286.328125 554.523438 286.445312 554.652344 286.574219 C 555.277344 287.199219 556.332031 287.871094 557.105469 288.363281 C 557.464844 288.589844 557.820312 288.8125 557.964844 288.949219 C 557.972656 288.957031 557.976562 288.957031 557.980469 288.964844 L 557.722656 288.839844 C 558.632812 288.957031 558.75 288.75 558.746094 288.761719 C 558.925781 288.390625 557.488281 286.558594 555.605469 285.628906 C 554.992188 285.324219 554.484375 285.222656 554.070312 285.234375 C 552.574219 285.269531 551.921875 286.863281 551.90625 287.1875 L 551.90625 287.183594 C 551.90625 287.183594 551.90625 287.1875 551.90625 287.179688 L 551.855469 286.988281 L 563.847656 310.316406 L 563.816406 310.265625 C 564.585938 311.371094 565.335938 312.3125 566.070312 313.097656 C 569.257812 316.5 572.003906 316.804688 574.53125 314.433594 L 575.113281 315.109375 C 573.398438 316.457031 572.265625 318.886719 572.421875 319.332031 C 572.421875 319.332031 572.421875 319.328125 572.417969 319.324219 L 572.417969 319.328125 L 580.367188 334.421875 L 579.972656 334.628906 L 579.667969 334.304688 C 579.636719 334.332031 582.351562 331.597656 584.789062 330.875 C 584.804688 330.871094 588.277344 329.84375 591.863281 330.714844 C 592.039062 330.757812 592.171875 330.902344 592.199219 331.078125 C 592.230469 331.253906 592.148438 331.433594 591.996094 331.527344 L 581.167969 338.382812 L 581.347656 337.839844 C 581.75 338.859375 582.238281 339.851562 582.734375 340.851562 C 584.53125 344.480469 586.398438 348.230469 583.800781 353.457031 C 581.859375 357.359375 578.308594 360.964844 577.273438 361.230469 C 577.183594 361.253906 577.023438 361.28125 576.859375 361.210938 C 575.46875 360.613281 573.789062 358.898438 571.964844 356.667969 C 569.945312 354.195312 567.667969 350.984375 565.304688 347.652344 C 562.722656 344.011719 560.039062 340.230469 557.449219 337.0625 C 553.984375 332.820312 551.078125 330.703125 548.207031 329.6875 C 547.207031 329.332031 546.292969 329.253906 545.496094 329.382812 C 542.882812 329.800781 541.21875 332.527344 541.742188 335.78125 C 541.90625 336.804688 543.917969 339.144531 545.609375 338.960938 C 545.921875 338.925781 546.238281 338.851562 546.558594 338.738281 C 549.261719 337.800781 551.5 334.570312 550.878906 332.777344 C 550.503906 331.707031 548.574219 328.191406 544.308594 328.402344 C 543.75 328.429688 543.03125 328.824219 542.359375 329.648438 C 539.851562 332.734375 538.585938 341.351562 550.542969 351.09375 L 550.023438 351.058594 C 550.023438 351.0625 551.398438 350.203125 553.0625 349.007812 C 553.074219 349 555.902344 346.964844 560.386719 344.574219 C 560.546875 344.488281 560.742188 344.507812 560.882812 344.625 C 561.023438 344.742188 561.078125 344.929688 561.023438 345.101562 C 559.933594 348.558594 557.414062 350.238281 555.410156 351.582031 C 553.703125 352.726562 552.535156 353.546875 552.378906 354.855469 L 552.328125 354.59375 C 552.328125 354.59375 565.371094 379.324219 574.945312 397.113281 L 574.996094 397.328125 L 574.945312 397.113281 C 574.953125 397.132812 580.492188 407.425781 585.542969 417.765625 C 585.605469 417.894531 585.605469 418.046875 585.539062 418.171875 C 585.535156 418.179688 585.527344 418.191406 585.53125 418.1875 C 585.519531 418.207031 585.550781 418.152344 585.550781 418.0625 C 585.554688 417.894531 585.425781 417.628906 585.121094 417.628906 C 584.984375 417.625 584.894531 417.695312 584.9375 417.671875 C 585.003906 417.628906 585.214844 417.445312 585.621094 417.082031 C 588.148438 414.824219 596.488281 407.351562 606.691406 407.425781 C 613.804688 407.480469 620.011719 408.203125 621.441406 410.765625 C 621.515625 410.898438 621.515625 411.058594 621.445312 411.191406 C 621.378906 411.324219 621.246094 411.414062 621.09375 411.429688 C 621.003906 411.4375 595.347656 414.019531 588 421.410156 C 586.964844 422.445312 586.339844 423.679688 586.007812 425.117188 C 585.230469 428.472656 586.0625 432.878906 587.105469 438.382812 C 588.699219 446.75 590.730469 457.414062 587.832031 469.960938 C 587.785156 470.160156 587.601562 470.304688 587.394531 470.304688 L 440.882812 470.566406 C 440.699219 470.570312 440.53125 470.457031 440.464844 470.285156 C 439.507812 467.824219 439.019531 464.234375 438.691406 460.582031 C 438.539062 458.90625 438.421875 457.1875 438.308594 455.566406 C 438.203125 454.074219 438.105469 452.632812 437.988281 451.347656 C 437.980469 451.285156 437.96875 451.152344 437.964844 451.089844 C 437.542969 446.070312 437.636719 437.648438 437.726562 429.835938 C 437.804688 422.992188 437.878906 416.621094 437.601562 413.332031 C 437.371094 410.625 436.621094 404.328125 434.976562 402.0625 C 434.925781 401.992188 434.859375 401.917969 434.78125 401.851562 C 433.605469 400.832031 430.3125 400.902344 429.191406 402.195312 C 428.410156 403.09375 427.050781 407.734375 427.382812 408.640625 C 427.664062 409.402344 432.15625 410.367188 434.605469 409.785156 C 434.609375 409.785156 434.621094 409.78125 434.652344 409.757812 L 434.648438 409.757812 C 435.589844 408.957031 435.472656 402.742188 434.230469 401.285156 C 433.957031 400.960938 433.628906 400.734375 433.269531 400.589844 C 430.890625 399.625 426.765625 402.171875 425.71875 404.753906 C 425.632812 404.964844 425.488281 405.316406 425.402344 405.527344 C 423.140625 411.109375 421.007812 416.472656 422.5 419.203125 C 423.589844 421.191406 427.972656 421.476562 431.039062 421.25 L 431 422.136719 C 429.546875 421.898438 428.273438 421.800781 427.175781 421.804688 C 422.941406 421.824219 421.59375 423.292969 421.59375 423.839844 C 421.640625 434.882812 420.148438 440.097656 418.070312 444.714844 C 417.851562 445.199219 417.5 445.550781 417.070312 445.765625 C 415.457031 446.566406 412.988281 445.402344 411.960938 443.332031 C 411.917969 443.242188 411.882812 443.152344 411.847656 443.046875 C 411.476562 441.941406 411.242188 439.148438 411.070312 437.097656 C 410.953125 435.75 410.867188 434.78125 410.804688 434.589844 L 410.808594 434.601562 C 410.804688 434.597656 410.828125 434.652344 410.808594 434.605469 L 410.804688 434.589844 C 410.792969 434.554688 409.46875 430.636719 407.703125 429.128906 C 407.582031 429.023438 407.527344 428.863281 407.554688 428.707031 C 407.582031 428.550781 407.691406 428.421875 407.839844 428.367188 C 408.5 428.128906 409.066406 428.226562 409.53125 428.5 C 410.074219 428.816406 410.46875 429.371094 410.746094 429.753906 C 410.992188 430.089844 411.117188 430.246094 411.203125 430.296875 C 411.207031 430.300781 411.207031 430.300781 411.207031 430.300781 L 411.015625 430.703125 L 411.207031 430.300781 C 411.058594 430.226562 411.035156 430.449219 411.226562 430.121094 C 411.328125 429.945312 411.492188 429.6875 411.683594 429.382812 C 412.761719 427.660156 414.878906 424.273438 415.152344 422.003906 C 415.210938 421.535156 415.171875 421.132812 415.074219 420.773438 C 414.871094 420.011719 414.398438 419.414062 413.886719 418.769531 C 413.441406 418.214844 412.941406 417.597656 412.742188 416.859375 C 412.695312 416.695312 412.75 416.515625 412.882812 416.402344 C 413.011719 416.292969 413.195312 416.265625 413.351562 416.332031 C 413.59375 416.4375 413.953125 416.652344 414.332031 416.878906 C 415.582031 417.621094 416.976562 418.398438 417.515625 418.21875 C 420.6875 417.160156 423.011719 411.039062 424.859375 404.054688 L 425.1875 404.601562 C 424.664062 404.472656 424.171875 404.210938 423.738281 403.980469 C 422.644531 403.402344 421.894531 403.03125 420.964844 403.964844 C 418.609375 406.328125 416.375 408.023438 414.515625 409.433594 C 412.671875 410.832031 411.25 411.917969 410.375 413.09375 C 409.75 413.9375 408.828125 414.980469 407.851562 416.089844 C 405.824219 418.386719 403.574219 420.945312 402.8125 422.871094 C 402.722656 423.09375 402.597656 423.375 402.464844 423.675781 C 401.75 425.28125 400.675781 427.738281 401.117188 429.621094 C 401.394531 430.789062 402.472656 432.347656 403.585938 433.949219 C 404.8125 435.707031 406.46875 437.9375 405.6875 439.125 L 405.316406 438.878906 L 404.96875 439.164062 C 405.015625 439.21875 400.25 433.453125 399.75 431.203125 C 398.59375 426.007812 399.148438 418.214844 400.691406 416.117188 C 402.535156 413.605469 403.792969 411.09375 404.894531 408.890625 C 406.367188 405.945312 407.625 403.386719 409.75 402.429688 L 409.566406 403.085938 L 406.832031 399.078125 C 406.722656 398.921875 406.726562 398.714844 406.839844 398.558594 C 406.953125 398.40625 407.148438 398.34375 407.332031 398.398438 C 407.765625 398.53125 408.234375 398.753906 408.6875 398.964844 C 410.035156 399.597656 411.253906 400.132812 412.320312 399.484375 C 414.175781 398.355469 419.53125 393.035156 420.898438 389.992188 C 421.980469 387.589844 420.691406 385.359375 419.292969 383.542969 L 419.710938 383.714844 C 417.382812 384.035156 413.980469 386.285156 413.972656 386.976562 L 413.972656 386.972656 C 413.972656 386.976562 413.972656 386.980469 413.972656 386.980469 C 413.972656 386.96875 413.960938 386.933594 413.929688 386.90625 C 413.921875 386.898438 413.917969 386.898438 413.917969 386.898438 C 414.339844 387.109375 416.960938 386.140625 418.828125 383.941406 C 419.171875 383.535156 419.140625 383.234375 419.113281 383.191406 C 419.101562 383.171875 418.511719 382.785156 416.027344 384.425781 C 414.300781 385.566406 412.667969 386.734375 411.085938 387.867188 C 409.101562 389.285156 407.199219 390.648438 405.328125 391.796875 C 403.90625 392.671875 402.136719 394.519531 400.480469 396.433594 C 399.671875 397.363281 398.90625 398.292969 398.222656 399.121094 C 397.691406 399.761719 397.203125 400.355469 396.808594 400.808594 C 395.832031 401.933594 394.683594 403.636719 393.828125 404.898438 C 393.3125 405.664062 392.859375 406.339844 392.65625 406.535156 L 392.347656 406.210938 L 392.65625 406.535156 C 392.671875 406.519531 392.5 406.714844 392.25 406.691406 C 391.746094 406.644531 391.839844 406.074219 391.832031 406.164062 C 392.550781 398.484375 395.71875 380.105469 397.039062 375.101562 C 397.0625 375.015625 397.109375 374.941406 397.175781 374.882812 C 398.59375 373.617188 399.648438 372.285156 400.589844 371.089844 C 402.4375 368.753906 403.980469 366.738281 407.085938 367.757812 C 408.492188 368.21875 410.585938 371.25 410.515625 373.625 C 410.511719 373.757812 410.359375 376.808594 402.808594 389.195312 C 402.785156 389.234375 402.757812 389.269531 402.722656 389.296875 C 402.574219 389.429688 402.390625 389.511719 402.191406 389.527344 L 402.160156 389.078125 L 402.191406 389.527344 C 401.855469 389.550781 401.546875 389.382812 401.308594 389.207031 C 400.867188 388.882812 400.359375 388.308594 399.832031 387.714844 C 399.097656 386.886719 398.261719 385.949219 397.320312 385.261719 L 397.898438 384.582031 C 398.664062 385.335938 401.960938 389.949219 401.78125 391.371094 C 401.769531 391.46875 401.726562 391.554688 401.660156 391.625 C 398.644531 394.769531 392.558594 406.882812 395.011719 422.027344 C 395.046875 422.25 394.917969 422.460938 394.707031 422.527344 C 394.496094 422.59375 394.265625 422.496094 394.167969 422.296875 C 392.53125 418.902344 391.773438 414.765625 391.15625 411.398438 C 390.632812 408.554688 390.222656 406.386719 389.554688 405.472656 C 389.523438 405.433594 389.496094 405.394531 389.46875 405.351562 C 388.539062 404.070312 387.460938 402.609375 385.023438 402.59375 L 385.203125 401.734375 C 385.675781 401.9375 386.113281 402.070312 386.523438 402.144531 C 391.472656 403.035156 393.074219 395.070312 394.097656 389.367188 C 394.269531 388.402344 393.839844 387.964844 392.679688 387.582031 C 392.136719 387.402344 391.484375 387.257812 390.730469 387.09375 C 389.816406 386.890625 388.777344 386.660156 387.707031 386.308594 C 387.476562 386.230469 387.347656 385.988281 387.417969 385.753906 C 387.488281 385.523438 387.730469 385.386719 387.964844 385.453125 C 388.632812 385.632812 389.464844 385.707031 390.335938 385.691406 C 392.554688 385.648438 394.375 385.050781 394.535156 384.699219 L 394.941406 384.886719 L 394.535156 384.699219 C 394.535156 384.703125 394.527344 384.714844 394.53125 384.734375 C 394.527344 384.703125 394.53125 384.667969 394.539062 384.636719 C 394.542969 384.617188 396.007812 377.644531 395.640625 373.453125 C 395.648438 373.542969 395.421875 370.46875 391.199219 369.316406 L 391.75 368.988281 C 391.757812 368.953125 391.164062 371.464844 390.496094 372.480469 C 389.464844 374.050781 387.996094 375.40625 387.09375 375.84375 C 386.921875 375.925781 386.726562 375.996094 386.539062 376.003906 L 386.515625 375.558594 L 386.539062 376.003906 C 386.324219 376.015625 386.039062 375.941406 385.894531 375.648438 C 385.863281 375.582031 385.851562 375.511719 385.851562 375.441406 C 385.886719 374.226562 386.136719 372.8125 386.605469 371.578125 C 387.328125 369.667969 388.75 367.824219 390.925781 368.644531 C 391.054688 368.695312 391.167969 368.773438 391.257812 368.886719 C 391.332031 368.980469 391.378906 369.085938 391.402344 369.191406 L 390.96875 369.296875 L 391.414062 369.296875 L 391.402344 369.191406 C 391.75 370.601562 388.167969 374.902344 385.980469 376.628906 C 385.917969 376.679688 385.808594 376.804688 385.660156 377.046875 C 384.917969 378.269531 383.875 381.277344 382.59375 384.972656 C 380.71875 390.375 378.375 397.144531 375.839844 401.324219 C 375.1875 402.394531 375.074219 404.171875 375.238281 406.199219 C 375.394531 408.097656 375.789062 410.109375 376.109375 411.75 C 376.320312 412.832031 376.507812 413.78125 376.558594 414.390625 C 377.480469 425.625 376.796875 431.941406 376.25 437.011719 C 375.832031 440.878906 375.496094 443.980469 376.003906 447.992188 C 376.769531 454.070312 380.105469 460.488281 382.84375 465.058594 C 383.703125 466.492188 384.503906 467.746094 385.132812 468.734375 C 385.554688 469.394531 385.894531 469.925781 386.148438 470.347656 C 386.230469 470.484375 386.234375 470.65625 386.15625 470.796875 C 386.078125 470.933594 385.933594 471.023438 385.773438 471.027344 L 351.539062 471.683594 C 351.292969 471.691406 351.085938 471.492188 351.082031 471.246094 C 351.078125 471 351.273438 470.796875 351.519531 470.789062 Z M 351.519531 470.789062 " fill-opacity="1" fill-rule="nonzero"/></g></svg>