<svg xmlns="http://www.w3.org/2000/svg" xmlns:xlink="http://www.w3.org/1999/xlink" width="1366" zoomAndPan="magnify" viewBox="0 0 1024.5 576" height="768" preserveAspectRatio="xMidYMid meet" version="1.0"><defs><g/><clipPath id="c226170817"><path d="M 0 0.140625 L 1024 0.140625 L 1024 575.859375 L 0 575.859375 Z M 0 0.140625 " clip-rule="nonzero"/></clipPath><clipPath id="287d629a2f"><path d="M 426.886719 150 L 473.046875 150 L 473.046875 174.875 L 426.886719 174.875 Z M 426.886719 150 " clip-rule="nonzero"/></clipPath><clipPath id="9645aded61"><path d="M 430 145.5 L 470 145.5 L 470 173 L 430 173 Z M 430 145.5 " clip-rule="nonzero"/></clipPath><clipPath id="361d08a138"><path d="M 411.480469 241.417969 L 642.480469 241.417969 L 642.480469 471.667969 L 411.480469 471.667969 Z M 411.480469 241.417969 " clip-rule="nonzero"/></clipPath></defs><g clip-path="url(#c226170817)"><path fill="#ffffff" d="M 0 0.140625 L 1024.5 0.140625 L 1024.5 583.640625 L 0 583.640625 Z M 0 0.140625 " fill-opacity="1" fill-rule="nonzero"/><path fill="#ffffff" d="M 0 0.140625 L 1024.5 0.140625 L 1024.5 576.140625 L 0 576.140625 Z M 0 0.140625 " fill-opacity="1" fill-rule="nonzero"/><path fill="#374151" d="M 0 0.140625 L 1024.5 0.140625 L 1024.5 576.140625 L 0 576.140625 Z M 0 0.140625 " fill-opacity="1" fill-rule="nonzero"/></g><g clip-path="url(#287d629a2f)"><path fill="#ffffff" d="M 470.285156 150.574219 L 470.273438 150.652344 L 468.554688 169.347656 L 468.480469 170.199219 L 467.613281 170.089844 L 466.964844 170.007812 C 465.667969 169.84375 464.394531 169.753906 463.179688 169.753906 C 457.308594 169.753906 453.738281 171.699219 452.132812 172.859375 L 449.96875 173.023438 L 449.960938 173.023438 L 447.796875 172.859375 C 446.191406 171.699219 442.621094 169.753906 436.75 169.753906 C 435.535156 169.753906 434.261719 169.84375 432.964844 170.007812 L 432.316406 170.089844 L 431.449219 170.199219 L 431.375 169.347656 L 429.65625 150.652344 L 429.648438 150.574219 L 426.90625 150.574219 L 429.699219 171.75 L 448.121094 174.875 L 451.808594 174.875 L 470.230469 171.75 L 473.023438 150.574219 L 470.285156 150.574219 " fill-opacity="1" fill-rule="nonzero"/></g><g clip-path="url(#9645aded61)"><path fill="#ffffff" d="M 432.777344 149.449219 L 432.882812 150.523438 L 434.289062 165.070312 L 434.777344 165.140625 C 434.863281 165.148438 441.664062 166.175781 446.253906 169.585938 C 444.050781 168.578125 440.933594 167.695312 436.789062 167.695312 C 435.707031 167.695312 434.5625 167.757812 433.34375 167.890625 L 431.757812 150.574219 L 431.664062 149.550781 C 432.050781 149.507812 432.417969 149.476562 432.777344 149.449219 Z M 444.179688 149.40625 C 447.230469 150.984375 448.84375 152.800781 449.316406 153.386719 L 449.316406 170.730469 C 445.355469 166.015625 437.507812 164.363281 435.449219 164 L 434.132812 150.398438 L 433.78125 146.773438 C 438.296875 146.988281 441.710938 148.121094 444.179688 149.40625 Z M 450.617188 153.386719 C 451.085938 152.800781 452.699219 150.984375 455.75 149.40625 C 458.21875 148.121094 461.632812 146.988281 466.148438 146.773438 L 465.796875 150.398438 L 464.480469 164 C 462.421875 164.363281 454.574219 166.015625 450.617188 170.730469 Z M 467.046875 150.523438 L 467.152344 149.449219 C 467.511719 149.476562 467.882812 149.507812 468.269531 149.550781 L 468.175781 150.574219 L 466.585938 167.890625 C 465.367188 167.757812 464.222656 167.695312 463.140625 167.695312 C 459 167.695312 455.878906 168.578125 453.675781 169.585938 C 458.265625 166.175781 465.066406 165.148438 465.152344 165.140625 L 465.640625 165.070312 Z M 432.207031 169.277344 L 432.859375 169.195312 C 437.308594 168.617188 440.789062 169.074219 443.394531 169.851562 C 443.648438 169.929688 443.894531 170.007812 444.132812 170.089844 C 444.375 170.171875 444.601562 170.257812 444.824219 170.34375 C 445.046875 170.429688 445.261719 170.515625 445.46875 170.605469 C 446.492188 171.054688 447.316406 171.53125 447.941406 171.953125 C 448.066406 172.039062 448.1875 172.121094 448.292969 172.199219 L 451.636719 172.199219 C 451.742188 172.121094 451.863281 172.039062 451.988281 171.953125 C 452.613281 171.53125 453.4375 171.054688 454.460938 170.605469 C 454.671875 170.515625 454.882812 170.429688 455.105469 170.34375 C 455.328125 170.257812 455.554688 170.171875 455.796875 170.089844 C 456.035156 170.007812 456.28125 169.929688 456.539062 169.851562 C 459.140625 169.074219 462.621094 168.617188 467.074219 169.195312 L 467.722656 169.277344 L 469.441406 150.574219 L 469.632812 148.457031 L 469.027344 148.390625 C 468.414062 148.320312 467.828125 148.261719 467.269531 148.222656 L 467.535156 145.496094 L 466.824219 145.515625 C 460.640625 145.671875 456.355469 147.425781 453.578125 149.1875 C 451.757812 150.34375 450.589844 151.5 449.96875 152.210938 L 449.960938 152.210938 C 449.34375 151.5 448.171875 150.34375 446.351562 149.1875 C 443.574219 147.425781 439.289062 145.671875 433.105469 145.515625 L 432.394531 145.496094 L 432.660156 148.222656 C 432.101562 148.261719 431.515625 148.320312 430.90625 148.390625 L 430.296875 148.457031 L 430.492188 150.574219 L 432.207031 169.277344 " fill-opacity="1" fill-rule="nonzero"/></g><g fill="#ffffff" fill-opacity="1"><g transform="translate(482.46965, 167.68624)"><g><path d="M 1.640625 -0.109375 C 2.179688 -0.847656 2.453125 -1.832031 2.453125 -3.0625 L 2.453125 -13.3125 C 2.453125 -14.550781 2.179688 -15.535156 1.640625 -16.265625 L 1.640625 -16.390625 L 8.28125 -16.390625 C 10.125 -16.390625 11.664062 -16.015625 12.90625 -15.265625 C 14.144531 -14.523438 14.765625 -13.300781 14.765625 -11.59375 C 14.765625 -10.476562 14.472656 -9.550781 13.890625 -8.8125 C 13.316406 -8.070312 12.566406 -7.53125 11.640625 -7.1875 C 10.710938 -6.84375 9.726562 -6.671875 8.6875 -6.671875 C 7.9375 -6.671875 7.222656 -6.800781 6.546875 -7.0625 L 6.546875 -7.4375 C 7.003906 -7.332031 7.472656 -7.28125 7.953125 -7.28125 C 9.015625 -7.28125 9.832031 -7.6875 10.40625 -8.5 C 10.976562 -9.320312 11.265625 -10.351562 11.265625 -11.59375 C 11.265625 -12.757812 10.96875 -13.753906 10.375 -14.578125 C 9.789062 -15.410156 8.960938 -15.828125 7.890625 -15.828125 C 7.171875 -15.828125 6.492188 -15.707031 5.859375 -15.46875 L 5.859375 -3.0625 C 5.859375 -1.832031 6.128906 -0.847656 6.671875 -0.109375 L 6.671875 0 L 1.640625 0 Z M 1.640625 -0.109375 "/></g></g></g><g fill="#ffffff" fill-opacity="1"><g transform="translate(497.183104, 167.68624)"><g><path d="M 1.359375 -0.109375 C 1.554688 -0.410156 1.710938 -0.789062 1.828125 -1.25 C 1.953125 -1.707031 2.015625 -2.210938 2.015625 -2.765625 L 2.015625 -13.4375 C 2.015625 -14.070312 1.941406 -14.59375 1.796875 -15 C 1.660156 -15.40625 1.453125 -15.742188 1.171875 -16.015625 L 1.171875 -16.125 L 5.0625 -17.4375 L 5.171875 -17.4375 L 5.171875 -2.765625 C 5.171875 -2.210938 5.226562 -1.707031 5.34375 -1.25 C 5.46875 -0.789062 5.628906 -0.410156 5.828125 -0.109375 L 5.828125 0 L 1.359375 0 Z M 1.359375 -0.109375 "/></g></g></g><g fill="#ffffff" fill-opacity="1"><g transform="translate(503.779436, 167.68624)"><g><path d="M 11.640625 -3.953125 C 11.367188 -2.660156 10.769531 -1.628906 9.84375 -0.859375 C 8.925781 -0.0859375 7.804688 0.296875 6.484375 0.296875 C 5.441406 0.296875 4.5 0.0664062 3.65625 -0.390625 C 2.8125 -0.847656 2.140625 -1.519531 1.640625 -2.40625 C 1.148438 -3.300781 0.90625 -4.359375 0.90625 -5.578125 C 0.90625 -6.835938 1.171875 -7.953125 1.703125 -8.921875 C 2.234375 -9.898438 2.941406 -10.65625 3.828125 -11.1875 C 4.722656 -11.726562 5.691406 -12 6.734375 -12 C 7.703125 -12 8.546875 -11.796875 9.265625 -11.390625 C 9.984375 -10.992188 10.53125 -10.453125 10.90625 -9.765625 C 11.28125 -9.078125 11.46875 -8.332031 11.46875 -7.53125 L 3.46875 -7.53125 C 3.507812 -6.363281 3.738281 -5.363281 4.15625 -4.53125 C 4.582031 -3.695312 5.132812 -3.066406 5.8125 -2.640625 C 6.488281 -2.222656 7.234375 -2.015625 8.046875 -2.015625 C 8.816406 -2.015625 9.492188 -2.1875 10.078125 -2.53125 C 10.660156 -2.875 11.101562 -3.347656 11.40625 -3.953125 Z M 5.859375 -11.328125 C 5.148438 -11.328125 4.578125 -11.050781 4.140625 -10.5 C 3.703125 -9.945312 3.476562 -9.140625 3.46875 -8.078125 L 8.359375 -8.078125 C 8.265625 -9.078125 8 -9.867188 7.5625 -10.453125 C 7.132812 -11.035156 6.566406 -11.328125 5.859375 -11.328125 Z M 5.859375 -11.328125 "/></g></g></g><g fill="#ffffff" fill-opacity="1"><g transform="translate(515.615647, 167.68624)"><g><path d="M 6.875 0.296875 C 4.925781 0.296875 3.226562 -0.164062 1.78125 -1.09375 L 1.78125 -13.4375 C 1.78125 -14.070312 1.707031 -14.59375 1.5625 -15 C 1.425781 -15.40625 1.21875 -15.742188 0.9375 -16.015625 L 0.9375 -16.125 L 4.828125 -17.4375 L 4.9375 -17.4375 L 4.9375 -9.90625 L 5.0625 -9.90625 C 5.4375 -10.5625 5.925781 -11.070312 6.53125 -11.4375 C 7.132812 -11.8125 7.835938 -12 8.640625 -12 C 9.554688 -12 10.363281 -11.757812 11.0625 -11.28125 C 11.769531 -10.8125 12.3125 -10.132812 12.6875 -9.25 C 13.070312 -8.375 13.265625 -7.359375 13.265625 -6.203125 C 13.265625 -5.046875 13 -3.972656 12.46875 -2.984375 C 11.945312 -1.992188 11.203125 -1.195312 10.234375 -0.59375 C 9.265625 0 8.144531 0.296875 6.875 0.296875 Z M 7 -0.234375 C 7.914062 -0.234375 8.625 -0.710938 9.125 -1.671875 C 9.625 -2.628906 9.875 -3.929688 9.875 -5.578125 C 9.875 -7.085938 9.632812 -8.265625 9.15625 -9.109375 C 8.6875 -9.953125 8.03125 -10.375 7.1875 -10.375 C 6.570312 -10.375 6.0625 -10.1875 5.65625 -9.8125 C 5.257812 -9.445312 5.019531 -8.976562 4.9375 -8.40625 L 4.9375 -1.890625 C 5.019531 -1.441406 5.238281 -1.050781 5.59375 -0.71875 C 5.945312 -0.394531 6.414062 -0.234375 7 -0.234375 Z M 7 -0.234375 "/></g></g></g><g fill="#ffffff" fill-opacity="1"><g transform="translate(529.323244, 167.68624)"><g><path d="M 1.640625 -0.109375 C 2.179688 -0.847656 2.453125 -1.832031 2.453125 -3.0625 L 2.453125 -13.3125 C 2.453125 -14.550781 2.179688 -15.535156 1.640625 -16.265625 L 1.640625 -16.390625 L 8.59375 -16.390625 C 10.25 -16.390625 11.617188 -16.078125 12.703125 -15.453125 C 13.796875 -14.828125 14.34375 -13.84375 14.34375 -12.5 C 14.34375 -11.46875 13.984375 -10.640625 13.265625 -10.015625 C 12.546875 -9.390625 11.691406 -9 10.703125 -8.84375 L 10.703125 -8.75 C 11.878906 -8.613281 12.882812 -8.171875 13.71875 -7.421875 C 14.5625 -6.679688 14.984375 -5.707031 14.984375 -4.5 C 14.984375 -2.9375 14.363281 -1.796875 13.125 -1.078125 C 11.894531 -0.359375 10.382812 0 8.59375 0 L 1.640625 0 Z M 7.5625 -9.0625 C 8.59375 -9.0625 9.394531 -9.375 9.96875 -10 C 10.550781 -10.625 10.84375 -11.441406 10.84375 -12.453125 C 10.84375 -13.429688 10.546875 -14.238281 9.953125 -14.875 C 9.367188 -15.507812 8.578125 -15.828125 7.578125 -15.828125 C 7.003906 -15.828125 6.429688 -15.71875 5.859375 -15.5 L 5.859375 -9.0625 Z M 7.75 -0.5625 C 8.851562 -0.5625 9.738281 -0.914062 10.40625 -1.625 C 11.082031 -2.332031 11.421875 -3.289062 11.421875 -4.5 C 11.421875 -5.738281 11.078125 -6.707031 10.390625 -7.40625 C 9.703125 -8.113281 8.78125 -8.46875 7.625 -8.46875 L 5.859375 -8.46875 L 5.859375 -0.984375 C 6.367188 -0.703125 7 -0.5625 7.75 -0.5625 Z M 7.75 -0.5625 "/></g></g></g><g fill="#ffffff" fill-opacity="1"><g transform="translate(544.808655, 167.68624)"><g><path d="M 6.8125 0.296875 C 5.65625 0.296875 4.625 0.0351562 3.71875 -0.484375 C 2.8125 -1.015625 2.101562 -1.742188 1.59375 -2.671875 C 1.09375 -3.609375 0.84375 -4.671875 0.84375 -5.859375 C 0.84375 -7.035156 1.09375 -8.085938 1.59375 -9.015625 C 2.101562 -9.953125 2.8125 -10.679688 3.71875 -11.203125 C 4.625 -11.734375 5.65625 -12 6.8125 -12 C 7.945312 -12 8.96875 -11.734375 9.875 -11.203125 C 10.78125 -10.679688 11.484375 -9.953125 11.984375 -9.015625 C 12.492188 -8.085938 12.75 -7.035156 12.75 -5.859375 C 12.75 -4.671875 12.492188 -3.609375 11.984375 -2.671875 C 11.484375 -1.742188 10.78125 -1.015625 9.875 -0.484375 C 8.96875 0.0351562 7.945312 0.296875 6.8125 0.296875 Z M 6.8125 -0.234375 C 7.664062 -0.234375 8.300781 -0.742188 8.71875 -1.765625 C 9.144531 -2.785156 9.359375 -4.148438 9.359375 -5.859375 C 9.359375 -7.554688 9.144531 -8.914062 8.71875 -9.9375 C 8.300781 -10.957031 7.664062 -11.46875 6.8125 -11.46875 C 5.957031 -11.46875 5.3125 -10.957031 4.875 -9.9375 C 4.445312 -8.914062 4.234375 -7.554688 4.234375 -5.859375 C 4.234375 -4.148438 4.445312 -2.785156 4.875 -1.765625 C 5.3125 -0.742188 5.957031 -0.234375 6.8125 -0.234375 Z M 6.8125 -0.234375 "/></g></g></g><g fill="#ffffff" fill-opacity="1"><g transform="translate(557.931429, 167.68624)"><g><path d="M 6.8125 0.296875 C 5.65625 0.296875 4.625 0.0351562 3.71875 -0.484375 C 2.8125 -1.015625 2.101562 -1.742188 1.59375 -2.671875 C 1.09375 -3.609375 0.84375 -4.671875 0.84375 -5.859375 C 0.84375 -7.035156 1.09375 -8.085938 1.59375 -9.015625 C 2.101562 -9.953125 2.8125 -10.679688 3.71875 -11.203125 C 4.625 -11.734375 5.65625 -12 6.8125 -12 C 7.945312 -12 8.96875 -11.734375 9.875 -11.203125 C 10.78125 -10.679688 11.484375 -9.953125 11.984375 -9.015625 C 12.492188 -8.085938 12.75 -7.035156 12.75 -5.859375 C 12.75 -4.671875 12.492188 -3.609375 11.984375 -2.671875 C 11.484375 -1.742188 10.78125 -1.015625 9.875 -0.484375 C 8.96875 0.0351562 7.945312 0.296875 6.8125 0.296875 Z M 6.8125 -0.234375 C 7.664062 -0.234375 8.300781 -0.742188 8.71875 -1.765625 C 9.144531 -2.785156 9.359375 -4.148438 9.359375 -5.859375 C 9.359375 -7.554688 9.144531 -8.914062 8.71875 -9.9375 C 8.300781 -10.957031 7.664062 -11.46875 6.8125 -11.46875 C 5.957031 -11.46875 5.3125 -10.957031 4.875 -9.9375 C 4.445312 -8.914062 4.234375 -7.554688 4.234375 -5.859375 C 4.234375 -4.148438 4.445312 -2.785156 4.875 -1.765625 C 5.3125 -0.742188 5.957031 -0.234375 6.8125 -0.234375 Z M 6.8125 -0.234375 "/></g></g></g><g fill="#ffffff" fill-opacity="1"><g transform="translate(571.054204, 167.68624)"><g><path d="M 1.359375 -0.109375 C 1.554688 -0.410156 1.710938 -0.789062 1.828125 -1.25 C 1.953125 -1.707031 2.015625 -2.210938 2.015625 -2.765625 L 2.015625 -13.4375 C 2.015625 -14.070312 1.941406 -14.59375 1.796875 -15 C 1.660156 -15.40625 1.453125 -15.742188 1.171875 -16.015625 L 1.171875 -16.125 L 5.0625 -17.4375 L 5.171875 -17.4375 L 5.171875 -2.765625 C 5.171875 -2.210938 5.226562 -1.707031 5.34375 -1.25 C 5.46875 -0.789062 5.628906 -0.410156 5.828125 -0.109375 L 5.828125 0 L 1.359375 0 Z M 11.71875 0.1875 C 10.988281 0.1875 10.382812 0.0546875 9.90625 -0.203125 C 9.4375 -0.472656 8.984375 -0.910156 8.546875 -1.515625 L 5.640625 -5.484375 L 5.640625 -5.59375 L 8.515625 -8.890625 C 9.128906 -9.597656 9.4375 -10.203125 9.4375 -10.703125 C 9.4375 -11.054688 9.300781 -11.351562 9.03125 -11.59375 L 9.03125 -11.703125 L 12.609375 -11.703125 L 12.609375 -11.59375 C 11.960938 -11.28125 11.398438 -10.941406 10.921875 -10.578125 C 10.441406 -10.222656 9.929688 -9.75 9.390625 -9.15625 L 7.984375 -7.625 L 12.421875 -1.640625 C 12.953125 -0.921875 13.351562 -0.515625 13.625 -0.421875 L 13.625 -0.25 C 13.375 -0.125 13.078125 -0.0195312 12.734375 0.0625 C 12.390625 0.144531 12.050781 0.1875 11.71875 0.1875 Z M 11.71875 0.1875 "/></g></g></g><g clip-path="url(#361d08a138)"><path fill="#ffffff" d="M 490.320312 471.257812 L 485.097656 438.117188 L 485.144531 438.257812 C 481.101562 430.664062 474.734375 417.78125 468.878906 400.269531 C 467.75 396.890625 466.984375 393.136719 466.996094 389.441406 C 467.007812 385.152344 467.792969 383.042969 469.292969 383.050781 C 469.347656 383.050781 469.398438 383.054688 469.449219 383.058594 C 472.757812 383.421875 473.132812 385.417969 474.007812 389.574219 C 474.417969 391.539062 474.949219 394.058594 475.914062 397.289062 L 475.035156 397.5 C 474.804688 396.226562 474.613281 395.203125 474.402344 394.070312 C 474.21875 393.070312 474.066406 392.25 473.902344 391.34375 C 472.683594 384.609375 472.246094 380.523438 474.371094 375.886719 C 475.160156 374.164062 477.144531 369.664062 479.304688 370.65625 C 479.566406 370.777344 479.804688 370.96875 480.019531 371.21875 C 480.085938 371.292969 480.125 371.394531 480.132812 371.496094 C 480.207031 372.90625 480.257812 374.308594 480.3125 375.628906 C 480.359375 376.875 480.40625 378.066406 480.464844 379.230469 C 480.707031 383.886719 481.179688 387.878906 482.871094 391.496094 L 482.019531 391.789062 C 481.777344 390.667969 481.519531 389.523438 481.285156 388.480469 C 481.050781 387.429688 480.855469 386.539062 480.632812 385.542969 C 479.335938 379.578125 478.507812 374.5625 479.695312 369.828125 C 479.710938 369.753906 479.746094 369.621094 479.769531 369.539062 C 479.785156 369.472656 479.835938 369.257812 479.859375 369.183594 C 480.320312 367.328125 481.242188 363.828125 483.503906 363.070312 C 485.878906 362.277344 487.304688 364.417969 487.804688 365.914062 C 487.875 366.121094 487.925781 366.316406 487.96875 366.511719 C 487.980469 366.554688 487.980469 366.601562 487.980469 366.640625 C 487.441406 373.695312 489.082031 378.933594 490.910156 384.777344 C 491.390625 386.3125 491.890625 387.90625 492.359375 389.566406 L 491.46875 389.714844 C 491.222656 384.632812 490.714844 382.417969 489.625 377.664062 C 489.1875 375.761719 488.65625 373.433594 488.011719 370.371094 C 487.296875 366.953125 488.1875 364.84375 490.082031 364.449219 C 491.648438 364.121094 493.5625 365.082031 495.050781 366.835938 C 495.082031 366.875 495.105469 366.921875 495.128906 366.96875 C 497.257812 372.480469 500.863281 381.777344 500.863281 381.777344 L 500.894531 381.945312 L 500.863281 381.785156 C 504.214844 390.425781 504.964844 400.035156 504.964844 400.039062 C 504.984375 400.285156 504.8125 400.496094 504.566406 400.527344 C 504.324219 400.558594 504.105469 400.394531 504.0625 400.152344 L 504.0625 400.140625 L 504.0625 400.144531 C 503.75 398.375 503.464844 396.8125 503.214844 395.421875 C 503.011719 394.320312 502.835938 393.339844 502.675781 392.453125 C 501.984375 388.550781 501.675781 386.355469 502.480469 385.449219 C 503.035156 384.832031 504.253906 383.796875 505.484375 384.898438 C 506.144531 385.484375 506.707031 386.652344 507.167969 388.613281 L 507.121094 388.492188 C 508.316406 390.578125 509.402344 393.046875 509.402344 393.046875 C 510.625 395.832031 511.230469 397.878906 511.769531 399.691406 C 512.207031 401.167969 512.597656 402.472656 513.230469 403.921875 C 513.523438 404.597656 513.871094 405.296875 514.308594 406.0625 C 517.6875 412.027344 514.460938 419.753906 514.472656 419.726562 C 514.429688 419.832031 514.347656 419.917969 514.242188 419.964844 L 473.683594 438.609375 C 473.464844 438.707031 473.199219 438.617188 473.089844 438.402344 C 449.808594 392.753906 432.59375 351.613281 432.59375 351.613281 C 432.511719 351.429688 432.566406 351.21875 432.71875 351.089844 C 442.921875 342.496094 538.535156 302.203125 542.324219 302.328125 C 542.371094 302.328125 542.597656 302.335938 542.757812 302.519531 C 542.773438 302.535156 542.789062 302.554688 542.800781 302.578125 C 542.824219 302.621094 542.839844 302.667969 542.851562 302.714844 C 543.890625 307.296875 583.902344 385.285156 583.933594 385.347656 C 583.996094 385.46875 584.003906 385.613281 583.945312 385.738281 C 583.898438 385.84375 583.820312 385.917969 583.808594 385.921875 C 583.238281 386.457031 576.324219 390.660156 571.570312 392.550781 C 571.375 392.632812 571.152344 392.5625 571.03125 392.394531 C 568.210938 388.480469 563.234375 380.234375 563.234375 380.238281 C 561.613281 377.546875 556.277344 374.316406 556.242188 374.292969 L 556.402344 374.351562 C 555.75 374.253906 554.832031 373.910156 553.820312 373.539062 C 552.292969 372.980469 550.457031 372.3125 548.601562 372.023438 C 547.332031 371.820312 546.089844 371.8125 544.949219 372.117188 C 544.679688 372.191406 544.40625 372.855469 544.660156 373.777344 C 544.761719 374.148438 544.90625 374.375 545.027344 374.464844 L 544.929688 374.410156 C 554.222656 378.148438 557.710938 379.746094 560.394531 388.476562 C 560.460938 388.703125 560.351562 388.941406 560.128906 389.03125 C 559.914062 389.117188 559.667969 389.03125 559.554688 388.820312 C 558.539062 386.867188 553.652344 383.15625 550.660156 380.890625 C 550.683594 380.914062 550.277344 380.605469 550.308594 380.628906 C 546.636719 377.847656 543.992188 377.585938 536.617188 376.882812 C 534.917969 376.71875 532.988281 376.542969 530.738281 376.292969 L 530.917969 376.277344 C 528.503906 376.984375 528.050781 378.195312 528.3125 379.089844 C 528.476562 379.652344 528.945312 380.226562 529.679688 380.664062 L 529.527344 380.605469 C 543.453125 383.085938 547.085938 386.8125 550.675781 390.539062 C 551.207031 391.089844 551.746094 391.644531 552.304688 392.183594 C 552.460938 392.335938 552.488281 392.589844 552.359375 392.769531 C 552.234375 392.949219 551.992188 393.015625 551.792969 392.917969 C 550.050781 392.078125 548.613281 391.238281 547.242188 390.449219 C 545.984375 389.71875 544.796875 389.03125 543.480469 388.390625 C 541.722656 387.542969 539.738281 386.78125 537.089844 386.171875 C 532.332031 385.074219 524.855469 383.597656 518.003906 384.421875 L 518.273438 384.289062 C 517.097656 385.480469 517.019531 387.550781 518.125 388.648438 C 518.234375 388.753906 518.351562 388.855469 518.484375 388.945312 L 518.355469 388.886719 C 528.152344 391.734375 534.597656 393.511719 534.597656 393.511719 L 534.664062 393.539062 C 541.113281 396.535156 545.609375 400.511719 545.625 400.519531 C 545.792969 400.667969 545.824219 400.921875 545.703125 401.105469 C 545.582031 401.296875 545.339844 401.363281 545.132812 401.273438 C 540.265625 399.058594 533.75 396.328125 520.839844 394.445312 C 517.71875 393.992188 514.664062 393.671875 514.292969 395.179688 C 513.871094 396.914062 514.113281 398.042969 517.371094 399.28125 C 525.289062 402.304688 531.636719 404.113281 531.628906 404.113281 L 531.507812 404.550781 L 531.714844 404.144531 C 535.144531 405.890625 538.78125 409.023438 538.78125 409.023438 C 538.898438 409.121094 538.957031 409.28125 538.9375 409.433594 C 538.914062 409.585938 538.8125 409.71875 538.671875 409.78125 L 517.308594 419.207031 L 516.964844 418.367188 L 539.800781 409.675781 C 539.949219 409.617188 540.109375 409.644531 540.230469 409.738281 C 543.269531 412.023438 549.242188 416.050781 549.246094 416.058594 C 549.453125 416.195312 549.507812 416.472656 549.371094 416.679688 C 549.242188 416.886719 548.964844 416.949219 548.753906 416.820312 L 539.414062 411.117188 L 539.878906 411.121094 C 538.5 411.90625 538.597656 414.328125 540.167969 417.085938 C 541.207031 418.914062 542.792969 420.65625 544.558594 421.664062 C 555.039062 427.636719 572.53125 431.734375 573.761719 430.359375 L 573.652344 430.738281 C 571.667969 418.875 580.300781 409.679688 583.015625 407.507812 C 585.988281 405.121094 592.1875 406.890625 594.972656 410.363281 C 596.894531 412.761719 597.277344 416.015625 594.269531 419.417969 C 590.007812 424.253906 587.550781 423.820312 583.363281 422.417969 C 581.589844 421.820312 576.445312 419.632812 578.03125 414.890625 C 578.210938 414.355469 578.480469 413.785156 578.84375 413.195312 C 583.097656 406.304688 588.109375 405.972656 591.832031 408.277344 C 593.074219 409.046875 594.15625 410.097656 595 411.257812 L 594.898438 411.15625 C 596.789062 412.542969 595.265625 415.003906 590.257812 422.445312 C 588.652344 424.832031 588.65625 434.347656 588.65625 434.445312 L 588.203125 434.445312 L 588.183594 434.898438 C 582.195312 434.640625 579.179688 433.511719 577.050781 430.042969 C 577.011719 429.984375 576.933594 429.851562 576.890625 429.789062 C 576.828125 429.683594 576.785156 429.621094 576.71875 429.503906 C 575.421875 427.390625 573.929688 424.066406 577.328125 413.527344 C 579.617188 406.4375 586.75 405.914062 586.757812 405.914062 L 586.484375 406.703125 C 573.109375 394.441406 567.261719 373.953125 564.980469 358.335938 C 564.171875 352.824219 543.167969 316.074219 543.109375 315.972656 L 543.050781 315.746094 L 543.683594 316.164062 C 458.378906 352.746094 445.101562 359.988281 445.121094 359.972656 L 445.320312 359.394531 C 463.867188 403.167969 464.722656 401.886719 464.191406 402.070312 L 464.175781 402.078125 C 538.324219 373.847656 564.140625 359.929688 564.117188 359.945312 L 563.925781 360.546875 C 539.738281 312.195312 537.511719 300.589844 537.496094 300.519531 L 538.117188 300.859375 C 500.851562 316.246094 433.710938 348.484375 433.703125 348.484375 C 433.589844 348.539062 433.460938 348.542969 433.339844 348.5 C 433.21875 348.457031 433.128906 348.363281 433.082031 348.242188 L 411.632812 293.980469 C 411.546875 293.75 411.65625 293.484375 411.886719 293.390625 L 540.136719 241.488281 C 540.273438 241.429688 540.433594 241.445312 540.554688 241.527344 C 540.679688 241.609375 540.753906 241.746094 540.757812 241.894531 L 542.75 294.113281 C 542.757812 294.304688 542.644531 294.476562 542.472656 294.550781 L 438.039062 338.265625 C 437.921875 338.3125 437.792969 338.3125 437.679688 338.265625 C 437.5625 338.21875 437.480469 338.121094 437.4375 338.007812 L 422.023438 296.28125 C 421.941406 296.054688 422.050781 295.800781 422.265625 295.707031 C 527.554688 249.925781 535.695312 247.484375 536.382812 247.386719 C 536.269531 247.402344 536.738281 247.273438 536.910156 247.648438 L 536.917969 247.664062 C 536.984375 247.820312 536.941406 247.957031 536.917969 248.019531 L 536.953125 247.835938 C 537.601562 290.953125 546.171875 337.890625 572.4375 391.972656 L 572.375 391.871094 C 580.914062 401.746094 590.671875 407.960938 596.378906 410.710938 C 596.433594 410.734375 596.480469 410.769531 596.515625 410.808594 C 596.5 410.792969 596.496094 410.789062 596.496094 410.789062 C 598.238281 412.117188 641.835938 423.183594 642.019531 423.230469 C 642.265625 423.292969 642.410156 423.535156 642.351562 423.78125 C 642.289062 424.027344 642.046875 424.171875 641.800781 424.117188 C 641.832031 424.121094 597.886719 412.992188 595.945312 411.515625 C 595.921875 411.496094 595.882812 411.464844 595.851562 411.433594 L 595.988281 411.53125 C 590.1875 408.742188 580.324219 402.449219 571.691406 392.472656 C 571.664062 392.441406 571.640625 392.410156 571.625 392.371094 C 545.296875 338.164062 536.699219 291.097656 536.046875 247.851562 C 536.046875 247.789062 536.058594 247.726562 536.082031 247.667969 C 536.058594 247.726562 536.015625 247.863281 536.082031 248.019531 L 536.089844 248.035156 C 536.257812 248.40625 536.710938 248.261719 536.515625 248.296875 C 535.984375 248.367188 528.039062 250.714844 422.636719 296.550781 L 422.878906 295.976562 L 438.289062 337.699219 L 437.6875 337.4375 L 542.125 293.722656 L 541.84375 294.160156 L 539.851562 241.941406 L 540.476562 242.347656 L 412.226562 294.234375 L 412.476562 293.644531 L 433.925781 347.898438 L 433.308594 347.65625 C 433.304688 347.65625 500.476562 315.410156 537.769531 300.007812 C 537.898438 299.957031 538.039062 299.96875 538.160156 300.03125 C 538.28125 300.09375 538.367188 300.210938 538.394531 300.347656 C 538.382812 300.277344 540.554688 311.789062 564.746094 360.132812 C 564.859375 360.355469 564.773438 360.621094 564.558594 360.734375 C 564.535156 360.746094 538.683594 374.679688 464.507812 402.921875 L 464.492188 402.925781 C 463.960938 403.109375 462.636719 402.582031 444.488281 359.746094 C 444.398438 359.527344 444.484375 359.28125 444.6875 359.167969 C 444.710938 359.160156 458.03125 351.902344 543.351562 315.3125 C 543.496094 315.253906 543.652344 315.265625 543.78125 315.351562 C 543.90625 315.433594 543.984375 315.578125 543.984375 315.730469 L 543.925781 315.503906 C 543.894531 315.449219 565.070312 352.449219 565.90625 358.1875 C 568.179688 373.75 573.988281 393.972656 587.125 406.011719 C 587.253906 406.132812 587.300781 406.320312 587.246094 406.496094 C 587.1875 406.664062 587.027344 406.785156 586.847656 406.800781 C 586.859375 406.800781 580.3125 407.292969 578.214844 413.785156 C 574.863281 424.171875 576.402344 427.199219 577.515625 429.007812 C 577.578125 429.109375 577.625 429.1875 577.6875 429.285156 C 577.726562 429.347656 577.808594 429.480469 577.847656 429.542969 C 579.734375 432.621094 582.359375 433.714844 588.242188 433.964844 L 588.21875 434.421875 L 587.765625 434.421875 C 587.765625 434.515625 587.714844 424.59375 589.523438 421.910156 C 594.960938 413.828125 595.355469 412.582031 594.375 411.863281 C 594.339844 411.839844 594.308594 411.800781 594.277344 411.765625 C 593.492188 410.6875 592.496094 409.722656 591.367188 409.023438 C 588.144531 407.027344 583.671875 407.109375 579.632812 413.640625 C 579.300781 414.179688 579.0625 414.6875 578.90625 415.148438 C 577.636719 418.953125 581.695312 420.867188 583.664062 421.527344 C 587.613281 422.851562 589.644531 423.273438 593.605469 418.785156 C 596.320312 415.710938 595.925781 412.945312 594.277344 410.898438 C 591.644531 407.625 586.007812 406.246094 583.597656 408.183594 C 580.96875 410.292969 572.65625 419.191406 574.558594 430.558594 C 574.578125 430.695312 574.542969 430.835938 574.445312 430.941406 C 572.617188 432.992188 554.253906 428.207031 544.117188 422.429688 C 542.175781 421.320312 540.492188 419.449219 539.382812 417.507812 C 537.875 414.859375 537.222656 411.5625 539.429688 410.304688 C 539.574219 410.21875 539.753906 410.222656 539.894531 410.308594 L 549.234375 416.015625 L 548.746094 416.78125 C 548.746094 416.78125 542.757812 412.738281 539.695312 410.433594 L 540.125 410.5 L 517.292969 419.191406 C 517.0625 419.28125 516.800781 419.164062 516.710938 418.9375 C 516.617188 418.710938 516.722656 418.445312 516.949219 418.347656 L 538.3125 408.921875 L 538.203125 409.679688 C 538.203125 409.679688 534.632812 406.617188 531.3125 404.925781 L 531.519531 404.519531 L 531.398438 404.957031 C 531.382812 404.949219 525.007812 403.132812 517.0625 400.097656 C 513.511719 398.742188 512.859375 397.234375 513.421875 394.929688 C 514.046875 392.398438 518.496094 393.152344 520.980469 393.515625 C 533.992188 395.414062 540.589844 398.179688 545.519531 400.421875 L 545.027344 401.175781 C 545.042969 401.183594 540.621094 397.277344 534.292969 394.335938 L 534.359375 394.359375 C 534.355469 394.359375 527.910156 392.582031 518.105469 389.730469 C 518.0625 389.71875 518.019531 389.699219 517.976562 389.671875 C 517.796875 389.550781 517.636719 389.417969 517.484375 389.273438 C 515.96875 387.773438 516.144531 385.121094 517.625 383.628906 C 517.699219 383.554688 517.792969 383.507812 517.894531 383.496094 C 524.914062 382.660156 532.527344 384.167969 537.292969 385.265625 C 540.003906 385.890625 542.054688 386.671875 543.871094 387.554688 C 545.21875 388.207031 546.4375 388.914062 547.691406 389.640625 C 549.054688 390.433594 550.472656 391.253906 552.175781 392.078125 L 551.664062 392.816406 C 551.089844 392.261719 550.546875 391.699219 550.015625 391.144531 C 546.542969 387.546875 543.082031 383.925781 529.359375 381.476562 C 529.304688 381.46875 529.253906 381.445312 529.207031 381.417969 C 528.332031 380.890625 527.683594 380.152344 527.4375 379.316406 C 526.964844 377.703125 528.046875 376.144531 530.660156 375.375 C 530.71875 375.359375 530.777344 375.355469 530.839844 375.359375 C 533.085938 375.601562 535.015625 375.789062 536.707031 375.949219 C 544.042969 376.648438 546.953125 376.914062 550.859375 379.875 C 550.859375 379.875 551.195312 380.132812 551.207031 380.136719 C 554.078125 382.316406 559.21875 386.1875 560.363281 388.371094 L 559.523438 388.714844 C 556.972656 380.394531 553.820312 378.941406 544.589844 375.226562 C 544.554688 375.210938 544.523438 375.195312 544.492188 375.175781 C 544.128906 374.910156 543.902344 374.441406 543.78125 373.992188 C 543.554688 373.15625 543.539062 371.535156 544.710938 371.214844 C 546.015625 370.863281 547.402344 370.886719 548.738281 371.097656 C 550.695312 371.40625 552.613281 372.105469 554.125 372.660156 C 555.179688 373.042969 555.996094 373.339844 556.535156 373.425781 C 556.59375 373.433594 556.652344 373.457031 556.699219 373.484375 C 556.664062 373.460938 562.234375 376.804688 564.003906 379.730469 C 564.011719 379.742188 568.96875 387.953125 571.757812 391.828125 L 571.222656 391.671875 C 575.933594 389.792969 582.726562 385.636719 583.179688 385.214844 C 583.207031 385.195312 583.144531 385.242188 583.101562 385.332031 L 583.113281 385.722656 C 583.144531 385.785156 543.027344 307.609375 541.949219 302.878906 L 542.003906 303.015625 C 542.015625 303.03125 542.023438 303.050781 542.039062 303.066406 C 542.167969 303.222656 542.332031 303.207031 542.277344 303.199219 C 538.804688 303.089844 443.398438 343.226562 433.28125 351.75 L 433.410156 351.226562 C 433.410156 351.222656 450.613281 392.339844 473.878906 437.957031 L 473.285156 437.753906 L 513.839844 419.109375 L 513.609375 419.347656 C 513.617188 419.328125 516.628906 412.007812 513.492188 406.480469 C 513.042969 405.6875 512.679688 404.957031 512.375 404.253906 C 511.710938 402.746094 511.308594 401.386719 510.871094 399.917969 C 510.335938 398.109375 509.746094 396.113281 508.542969 393.378906 C 508.542969 393.378906 507.476562 390.953125 506.300781 388.90625 C 506.28125 388.871094 506.265625 388.828125 506.253906 388.785156 C 505.800781 386.855469 505.285156 385.933594 504.851562 385.542969 C 504.308594 385.058594 503.726562 385.359375 503.132812 386.023438 C 502.703125 386.507812 502.800781 388.042969 503.546875 392.265625 C 503.703125 393.160156 503.878906 394.125 504.082031 395.230469 C 504.339844 396.632812 504.621094 398.175781 504.9375 399.960938 L 504.9375 399.972656 L 504.035156 400.082031 C 504.035156 400.089844 503.292969 390.59375 499.992188 382.082031 C 499.972656 382.03125 499.960938 381.976562 499.960938 381.921875 L 499.992188 382.089844 C 499.984375 382.066406 496.394531 372.808594 494.257812 367.273438 L 494.335938 367.40625 C 492.949219 365.761719 491.34375 365.097656 490.253906 365.324219 C 489.167969 365.550781 488.179688 366.835938 488.882812 370.171875 C 489.519531 373.222656 490.050781 375.542969 490.488281 377.449219 C 491.582031 382.214844 492.101562 384.488281 492.355469 389.65625 C 492.367188 389.890625 492.203125 390.089844 491.976562 390.125 C 491.75 390.164062 491.527344 390.027344 491.464844 389.800781 C 491 388.148438 490.503906 386.578125 490.027344 385.039062 C 488.195312 379.199219 486.503906 373.808594 487.058594 366.5625 L 487.070312 366.695312 C 487.03125 366.535156 486.988281 366.367188 486.929688 366.195312 C 486.441406 364.722656 485.335938 363.40625 483.785156 363.925781 C 482.097656 364.492188 481.242188 367.332031 480.726562 369.402344 C 480.710938 369.46875 480.652344 369.695312 480.644531 369.753906 C 480.617188 369.855469 480.59375 369.953125 480.570312 370.042969 C 479.441406 374.554688 480.214844 379.375 481.511719 385.347656 C 481.730469 386.351562 481.925781 387.214844 482.160156 388.28125 C 482.398438 389.347656 482.644531 390.457031 482.894531 391.597656 C 482.941406 391.824219 482.816406 392.050781 482.59375 392.125 C 482.371094 392.199219 482.136719 392.097656 482.035156 391.886719 C 480.257812 388.101562 479.785156 383.949219 479.535156 379.277344 C 479.472656 378.101562 479.429688 376.914062 479.378906 375.664062 C 479.324219 374.335938 479.273438 372.964844 479.199219 371.546875 L 479.308594 371.820312 C 479.15625 371.640625 479.019531 371.542969 478.902344 371.488281 C 477.800781 370.984375 476.285156 373.839844 475.171875 376.273438 C 473.175781 380.625 473.554688 384.453125 474.769531 391.191406 C 474.941406 392.109375 475.082031 392.894531 475.273438 393.914062 C 475.484375 395.058594 475.671875 396.058594 475.90625 397.347656 C 475.945312 397.582031 475.800781 397.816406 475.5625 397.867188 C 475.324219 397.921875 475.085938 397.789062 475.019531 397.558594 C 474.042969 394.296875 473.507812 391.734375 473.09375 389.769531 C 472.1875 385.453125 471.894531 384.25 469.328125 383.972656 C 469.304688 383.972656 469.289062 383.964844 469.269531 383.964844 C 468.832031 383.964844 467.890625 384.777344 467.882812 389.453125 C 467.871094 393.027344 468.609375 396.679688 469.714844 399.988281 C 475.550781 417.4375 481.890625 430.273438 485.925781 437.835938 C 485.949219 437.878906 485.96875 437.933594 485.972656 437.980469 L 491.195312 471.121094 C 491.234375 471.367188 491.0625 471.601562 490.816406 471.640625 C 490.59375 471.671875 490.359375 471.503906 490.320312 471.257812 Z M 490.320312 471.257812 " fill-opacity="1" fill-rule="nonzero"/></g></svg>