<svg xmlns="http://www.w3.org/2000/svg" xmlns:xlink="http://www.w3.org/1999/xlink" width="1366" zoomAndPan="magnify" viewBox="0 0 1024.5 576" height="768" preserveAspectRatio="xMidYMid meet" version="1.0"><defs><g/><clipPath id="8f15bcbe00"><path d="M 0 0.140625 L 1024 0.140625 L 1024 575.859375 L 0 575.859375 Z M 0 0.140625 " clip-rule="nonzero"/></clipPath><clipPath id="327a851b63"><path d="M 317.5625 71 L 438.765625 71 L 438.765625 134.867188 L 317.5625 134.867188 Z M 317.5625 71 " clip-rule="nonzero"/></clipPath><clipPath id="e8cd290080"><path d="M 326 57.742188 L 430 57.742188 L 430 128 L 326 128 Z M 326 57.742188 " clip-rule="nonzero"/></clipPath></defs><g clip-path="url(#8f15bcbe00)"><path fill="#ffffff" d="M 0 0.140625 L 1024.5 0.140625 L 1024.5 583.640625 L 0 583.640625 Z M 0 0.140625 " fill-opacity="1" fill-rule="nonzero"/><path fill="#ffffff" d="M 0 0.140625 L 1024.5 0.140625 L 1024.5 576.140625 L 0 576.140625 Z M 0 0.140625 " fill-opacity="1" fill-rule="nonzero"/><path fill="#374151" d="M 0 0.140625 L 1024.5 0.140625 L 1024.5 576.140625 L 0 576.140625 Z M 0 0.140625 " fill-opacity="1" fill-rule="nonzero"/></g><g clip-path="url(#327a851b63)"><path fill="#ffffff" d="M 431.507812 71.070312 L 431.484375 71.269531 L 426.96875 120.363281 L 426.773438 122.597656 L 424.492188 122.308594 L 422.792969 122.085938 C 419.390625 121.65625 416.046875 121.429688 412.851562 121.429688 C 397.4375 121.429688 388.0625 126.539062 383.851562 129.582031 L 378.164062 130.003906 L 378.152344 130.003906 L 372.464844 129.582031 C 368.253906 126.539062 358.878906 121.429688 343.464844 121.429688 C 340.269531 121.429688 336.925781 121.65625 333.523438 122.085938 L 331.824219 122.308594 L 329.546875 122.597656 L 329.347656 120.363281 L 324.832031 71.269531 L 324.8125 71.070312 L 317.617188 71.070312 L 324.953125 126.667969 L 373.320312 134.871094 L 382.996094 134.871094 L 431.363281 126.667969 L 438.703125 71.070312 L 431.507812 71.070312 " fill-opacity="1" fill-rule="nonzero"/></g><g clip-path="url(#e8cd290080)"><path fill="#ffffff" d="M 333.03125 68.113281 L 333.304688 70.929688 L 337.003906 109.125 L 338.277344 109.308594 C 338.511719 109.335938 356.367188 112.03125 368.417969 120.980469 C 362.632812 118.34375 354.441406 116.023438 343.5625 116.023438 C 340.71875 116.023438 337.722656 116.183594 334.519531 116.527344 L 330.351562 71.070312 L 330.101562 68.375 C 331.117188 68.265625 332.085938 68.191406 333.03125 68.113281 Z M 362.96875 67.996094 C 370.976562 72.148438 375.214844 76.910156 376.453125 78.453125 L 376.453125 123.992188 C 366.054688 111.609375 345.453125 107.269531 340.042969 106.320312 L 336.59375 70.605469 L 335.667969 61.089844 C 347.519531 61.648438 356.488281 64.625 362.96875 67.996094 Z M 379.867188 78.453125 C 381.101562 76.910156 385.339844 72.148438 393.347656 67.996094 C 399.832031 64.625 408.796875 61.648438 420.648438 61.089844 L 419.726562 70.605469 L 416.273438 106.320312 C 410.863281 107.269531 390.265625 111.609375 379.867188 123.992188 Z M 423.011719 70.929688 L 423.285156 68.113281 C 424.234375 68.191406 425.199219 68.265625 426.214844 68.375 L 425.96875 71.070312 L 421.796875 116.527344 C 418.59375 116.183594 415.597656 116.023438 412.753906 116.023438 C 401.875 116.023438 393.6875 118.34375 387.902344 120.980469 C 399.949219 112.03125 417.804688 109.335938 418.039062 109.308594 L 419.316406 109.125 Z M 331.535156 120.167969 L 333.242188 119.957031 C 344.925781 118.4375 354.066406 119.636719 360.902344 121.679688 C 361.574219 121.886719 362.222656 122.085938 362.851562 122.308594 C 363.476562 122.523438 364.078125 122.75 364.664062 122.972656 C 365.25 123.203125 365.804688 123.429688 366.347656 123.664062 C 369.042969 124.839844 371.203125 126.09375 372.847656 127.195312 C 373.179688 127.421875 373.488281 127.636719 373.769531 127.84375 L 382.546875 127.84375 C 382.828125 127.636719 383.140625 127.421875 383.472656 127.195312 C 385.113281 126.09375 387.273438 124.839844 389.96875 123.664062 C 390.511719 123.429688 391.070312 123.203125 391.652344 122.972656 C 392.238281 122.75 392.839844 122.523438 393.464844 122.308594 C 394.09375 122.085938 394.742188 121.886719 395.414062 121.679688 C 402.25 119.636719 411.394531 118.4375 423.074219 119.957031 L 424.78125 120.167969 L 429.289062 71.070312 L 429.796875 65.511719 L 428.203125 65.332031 C 426.59375 65.144531 425.058594 64.992188 423.597656 64.894531 L 424.289062 57.738281 L 422.425781 57.78125 C 406.1875 58.195312 394.933594 62.804688 387.648438 67.421875 C 382.863281 70.460938 379.796875 73.5 378.164062 75.367188 L 378.160156 75.359375 L 378.152344 75.367188 C 376.523438 73.5 373.453125 70.460938 368.671875 67.421875 C 361.382812 62.804688 350.132812 58.195312 333.890625 57.78125 L 332.027344 57.738281 L 332.71875 64.894531 C 331.257812 64.992188 329.722656 65.144531 328.113281 65.332031 L 326.519531 65.511719 L 327.027344 71.070312 L 331.535156 120.167969 " fill-opacity="1" fill-rule="nonzero"/></g><g fill="#ffffff" fill-opacity="1"><g transform="translate(463.502108, 117.413867)"><g><path d="M 4.296875 -0.3125 C 5.734375 -2.238281 6.453125 -4.816406 6.453125 -8.046875 L 6.453125 -34.96875 C 6.453125 -38.207031 5.734375 -40.785156 4.296875 -42.703125 L 4.296875 -43.015625 L 21.75 -43.015625 C 26.582031 -43.015625 30.628906 -42.039062 33.890625 -40.09375 C 37.148438 -38.144531 38.78125 -34.921875 38.78125 -30.421875 C 38.78125 -27.515625 38.019531 -25.085938 36.5 -23.140625 C 34.988281 -21.191406 33.015625 -19.765625 30.578125 -18.859375 C 28.140625 -17.960938 25.546875 -17.515625 22.796875 -17.515625 C 20.828125 -17.515625 18.960938 -17.863281 17.203125 -18.5625 L 17.203125 -19.546875 C 18.390625 -19.253906 19.617188 -19.109375 20.890625 -19.109375 C 23.679688 -19.109375 25.820312 -20.179688 27.3125 -22.328125 C 28.8125 -24.484375 29.5625 -27.179688 29.5625 -30.421875 C 29.5625 -33.492188 28.789062 -36.113281 27.25 -38.28125 C 25.71875 -40.457031 23.535156 -41.546875 20.703125 -41.546875 C 18.828125 -41.546875 17.046875 -41.238281 15.359375 -40.625 L 15.359375 -8.046875 C 15.359375 -4.816406 16.078125 -2.238281 17.515625 -0.3125 L 17.515625 0 L 4.296875 0 Z M 4.296875 -0.3125 "/></g></g></g><g fill="#ffffff" fill-opacity="1"><g transform="translate(502.156016, 117.413867)"><g><path d="M 3.5625 -0.3125 C 4.09375 -1.082031 4.507812 -2.070312 4.8125 -3.28125 C 5.125 -4.488281 5.28125 -5.8125 5.28125 -7.25 L 5.28125 -35.28125 C 5.28125 -36.957031 5.09375 -38.328125 4.71875 -39.390625 C 4.351562 -40.453125 3.804688 -41.332031 3.078125 -42.03125 L 3.078125 -42.34375 L 13.28125 -45.78125 L 13.578125 -45.78125 L 13.578125 -7.25 C 13.578125 -5.8125 13.726562 -4.488281 14.03125 -3.28125 C 14.34375 -2.070312 14.765625 -1.082031 15.296875 -0.3125 L 15.296875 0 L 3.5625 0 Z M 3.5625 -0.3125 "/></g></g></g><g fill="#ffffff" fill-opacity="1"><g transform="translate(519.485682, 117.413867)"><g><path d="M 30.546875 -10.390625 C 29.847656 -6.984375 28.289062 -4.265625 25.875 -2.234375 C 23.457031 -0.210938 20.503906 0.796875 17.015625 0.796875 C 14.273438 0.796875 11.796875 0.191406 9.578125 -1.015625 C 7.367188 -2.222656 5.617188 -3.992188 4.328125 -6.328125 C 3.035156 -8.660156 2.390625 -11.425781 2.390625 -14.625 C 2.390625 -17.945312 3.085938 -20.882812 4.484375 -23.4375 C 5.878906 -26 7.742188 -27.988281 10.078125 -29.40625 C 12.410156 -30.820312 14.953125 -31.53125 17.703125 -31.53125 C 20.242188 -31.53125 22.453125 -30.992188 24.328125 -29.921875 C 26.210938 -28.859375 27.644531 -27.425781 28.625 -25.625 C 29.613281 -23.820312 30.109375 -21.875 30.109375 -19.78125 L 9.09375 -19.78125 C 9.21875 -16.707031 9.832031 -14.078125 10.9375 -11.890625 C 12.039062 -9.703125 13.484375 -8.050781 15.265625 -6.9375 C 17.046875 -5.832031 19.003906 -5.28125 21.140625 -5.28125 C 23.148438 -5.28125 24.921875 -5.726562 26.453125 -6.625 C 27.992188 -7.53125 29.148438 -8.785156 29.921875 -10.390625 Z M 15.359375 -29.75 C 13.515625 -29.75 12.019531 -29.019531 10.875 -27.5625 C 9.726562 -26.101562 9.132812 -23.984375 9.09375 -21.203125 L 21.9375 -21.203125 C 21.6875 -23.828125 21 -25.90625 19.875 -27.4375 C 18.75 -28.976562 17.242188 -29.75 15.359375 -29.75 Z M 15.359375 -29.75 "/></g></g></g><g fill="#ffffff" fill-opacity="1"><g transform="translate(550.58085, 117.413867)"><g><path d="M 18.0625 0.796875 C 12.945312 0.796875 8.484375 -0.429688 4.671875 -2.890625 L 4.671875 -35.28125 C 4.671875 -36.957031 4.484375 -38.328125 4.109375 -39.390625 C 3.742188 -40.453125 3.191406 -41.332031 2.453125 -42.03125 L 2.453125 -42.34375 L 12.65625 -45.78125 L 12.96875 -45.78125 L 12.96875 -26 L 13.28125 -26 C 14.257812 -27.71875 15.546875 -29.066406 17.140625 -30.046875 C 18.742188 -31.035156 20.585938 -31.53125 22.671875 -31.53125 C 25.085938 -31.53125 27.21875 -30.90625 29.0625 -29.65625 C 30.90625 -28.40625 32.328125 -26.617188 33.328125 -24.296875 C 34.335938 -21.984375 34.84375 -19.3125 34.84375 -16.28125 C 34.84375 -13.25 34.144531 -10.429688 32.75 -7.828125 C 31.363281 -5.234375 29.398438 -3.144531 26.859375 -1.5625 C 24.316406 0.0078125 21.382812 0.796875 18.0625 0.796875 Z M 18.375 -0.609375 C 20.789062 -0.609375 22.65625 -1.867188 23.96875 -4.390625 C 25.28125 -6.910156 25.9375 -10.320312 25.9375 -14.625 C 25.9375 -18.601562 25.3125 -21.695312 24.0625 -23.90625 C 22.8125 -26.113281 21.078125 -27.21875 18.859375 -27.21875 C 17.265625 -27.21875 15.9375 -26.734375 14.875 -25.765625 C 13.8125 -24.804688 13.175781 -23.570312 12.96875 -22.0625 L 12.96875 -4.984375 C 13.175781 -3.796875 13.75 -2.769531 14.6875 -1.90625 C 15.625 -1.039062 16.851562 -0.609375 18.375 -0.609375 Z M 18.375 -0.609375 "/></g></g></g><g fill="#ffffff" fill-opacity="1"><g transform="translate(586.592273, 117.413867)"><g><path d="M 4.296875 -0.3125 C 5.734375 -2.238281 6.453125 -4.816406 6.453125 -8.046875 L 6.453125 -34.96875 C 6.453125 -38.207031 5.734375 -40.785156 4.296875 -42.703125 L 4.296875 -43.015625 L 22.546875 -43.015625 C 26.890625 -43.015625 30.492188 -42.191406 33.359375 -40.546875 C 36.234375 -38.910156 37.671875 -36.332031 37.671875 -32.8125 C 37.671875 -30.113281 36.726562 -27.941406 34.84375 -26.296875 C 32.957031 -24.660156 30.703125 -23.640625 28.078125 -23.234375 L 28.078125 -22.984375 C 31.191406 -22.617188 33.84375 -21.460938 36.03125 -19.515625 C 38.226562 -17.566406 39.328125 -14.992188 39.328125 -11.796875 C 39.328125 -7.703125 37.707031 -4.710938 34.46875 -2.828125 C 31.238281 -0.941406 27.265625 0 22.546875 0 L 4.296875 0 Z M 19.84375 -23.78125 C 22.550781 -23.78125 24.660156 -24.597656 26.171875 -26.234375 C 27.691406 -27.878906 28.453125 -30.03125 28.453125 -32.6875 C 28.453125 -35.269531 27.679688 -37.390625 26.140625 -39.046875 C 24.609375 -40.710938 22.53125 -41.546875 19.90625 -41.546875 C 18.394531 -41.546875 16.878906 -41.257812 15.359375 -40.6875 L 15.359375 -23.78125 Z M 20.34375 -1.46875 C 23.25 -1.46875 25.582031 -2.398438 27.34375 -4.265625 C 29.101562 -6.128906 29.984375 -8.640625 29.984375 -11.796875 C 29.984375 -15.078125 29.082031 -17.640625 27.28125 -19.484375 C 25.476562 -21.328125 23.0625 -22.25 20.03125 -22.25 L 15.359375 -22.25 L 15.359375 -2.578125 C 16.710938 -1.835938 18.375 -1.46875 20.34375 -1.46875 Z M 20.34375 -1.46875 "/></g></g></g><g fill="#ffffff" fill-opacity="1"><g transform="translate(627.274138, 117.413867)"><g><path d="M 17.890625 0.796875 C 14.847656 0.796875 12.140625 0.101562 9.765625 -1.28125 C 7.390625 -2.675781 5.535156 -4.59375 4.203125 -7.03125 C 2.878906 -9.46875 2.21875 -12.242188 2.21875 -15.359375 C 2.21875 -18.472656 2.878906 -21.25 4.203125 -23.6875 C 5.535156 -26.125 7.390625 -28.039062 9.765625 -29.4375 C 12.140625 -30.832031 14.847656 -31.53125 17.890625 -31.53125 C 20.878906 -31.53125 23.5625 -30.832031 25.9375 -29.4375 C 28.3125 -28.039062 30.160156 -26.125 31.484375 -23.6875 C 32.816406 -21.25 33.484375 -18.472656 33.484375 -15.359375 C 33.484375 -12.242188 32.816406 -9.46875 31.484375 -7.03125 C 30.160156 -4.59375 28.3125 -2.675781 25.9375 -1.28125 C 23.5625 0.101562 20.878906 0.796875 17.890625 0.796875 Z M 17.890625 -0.609375 C 20.140625 -0.609375 21.816406 -1.953125 22.921875 -4.640625 C 24.023438 -7.328125 24.578125 -10.898438 24.578125 -15.359375 C 24.578125 -19.828125 24.023438 -23.398438 22.921875 -26.078125 C 21.816406 -28.765625 20.140625 -30.109375 17.890625 -30.109375 C 15.628906 -30.109375 13.9375 -28.765625 12.8125 -26.078125 C 11.6875 -23.398438 11.125 -19.828125 11.125 -15.359375 C 11.125 -10.898438 11.6875 -7.328125 12.8125 -4.640625 C 13.9375 -1.953125 15.628906 -0.609375 17.890625 -0.609375 Z M 17.890625 -0.609375 "/></g></g></g><g fill="#ffffff" fill-opacity="1"><g transform="translate(661.749231, 117.413867)"><g><path d="M 17.890625 0.796875 C 14.847656 0.796875 12.140625 0.101562 9.765625 -1.28125 C 7.390625 -2.675781 5.535156 -4.59375 4.203125 -7.03125 C 2.878906 -9.46875 2.21875 -12.242188 2.21875 -15.359375 C 2.21875 -18.472656 2.878906 -21.25 4.203125 -23.6875 C 5.535156 -26.125 7.390625 -28.039062 9.765625 -29.4375 C 12.140625 -30.832031 14.847656 -31.53125 17.890625 -31.53125 C 20.878906 -31.53125 23.5625 -30.832031 25.9375 -29.4375 C 28.3125 -28.039062 30.160156 -26.125 31.484375 -23.6875 C 32.816406 -21.25 33.484375 -18.472656 33.484375 -15.359375 C 33.484375 -12.242188 32.816406 -9.46875 31.484375 -7.03125 C 30.160156 -4.59375 28.3125 -2.675781 25.9375 -1.28125 C 23.5625 0.101562 20.878906 0.796875 17.890625 0.796875 Z M 17.890625 -0.609375 C 20.140625 -0.609375 21.816406 -1.953125 22.921875 -4.640625 C 24.023438 -7.328125 24.578125 -10.898438 24.578125 -15.359375 C 24.578125 -19.828125 24.023438 -23.398438 22.921875 -26.078125 C 21.816406 -28.765625 20.140625 -30.109375 17.890625 -30.109375 C 15.628906 -30.109375 13.9375 -28.765625 12.8125 -26.078125 C 11.6875 -23.398438 11.125 -19.828125 11.125 -15.359375 C 11.125 -10.898438 11.6875 -7.328125 12.8125 -4.640625 C 13.9375 -1.953125 15.628906 -0.609375 17.890625 -0.609375 Z M 17.890625 -0.609375 "/></g></g></g><g fill="#ffffff" fill-opacity="1"><g transform="translate(696.224325, 117.413867)"><g><path d="M 3.5625 -0.3125 C 4.09375 -1.082031 4.507812 -2.070312 4.8125 -3.28125 C 5.125 -4.488281 5.28125 -5.8125 5.28125 -7.25 L 5.28125 -35.28125 C 5.28125 -36.957031 5.09375 -38.328125 4.71875 -39.390625 C 4.351562 -40.453125 3.804688 -41.332031 3.078125 -42.03125 L 3.078125 -42.34375 L 13.28125 -45.78125 L 13.578125 -45.78125 L 13.578125 -7.25 C 13.578125 -5.8125 13.726562 -4.488281 14.03125 -3.28125 C 14.34375 -2.070312 14.765625 -1.082031 15.296875 -0.3125 L 15.296875 0 L 3.5625 0 Z M 30.78125 0.484375 C 28.863281 0.484375 27.28125 0.140625 26.03125 -0.546875 C 24.78125 -1.242188 23.582031 -2.394531 22.4375 -4 L 14.8125 -14.375 L 14.8125 -14.6875 L 22.375 -23.359375 C 23.96875 -25.203125 24.765625 -26.773438 24.765625 -28.078125 C 24.765625 -29.023438 24.414062 -29.804688 23.71875 -30.421875 L 23.71875 -30.71875 L 33.125 -30.71875 L 33.125 -30.421875 C 31.40625 -29.597656 29.921875 -28.710938 28.671875 -27.765625 C 27.421875 -26.828125 26.078125 -25.582031 24.640625 -24.03125 L 20.953125 -20.03125 L 32.625 -4.296875 C 34.019531 -2.410156 35.066406 -1.347656 35.765625 -1.109375 L 35.765625 -0.671875 C 35.109375 -0.347656 34.328125 -0.078125 33.421875 0.140625 C 32.523438 0.367188 31.644531 0.484375 30.78125 0.484375 Z M 30.78125 0.484375 "/></g></g></g><g fill="#ffffff" fill-opacity="1"><g transform="translate(161.524411, 343.118341)"><g><path d="M 7.15625 -0.421875 C 7.894531 -1.441406 8.519531 -2.71875 9.03125 -4.25 C 9.539062 -5.789062 9.796875 -7.351562 9.796875 -8.9375 L 9.796875 -50.671875 C 9.796875 -52.253906 9.539062 -53.8125 9.03125 -55.34375 C 8.519531 -56.882812 7.894531 -58.164062 7.15625 -59.1875 L 7.15625 -59.609375 L 28.359375 -59.609375 C 34.265625 -59.609375 39.175781 -58.5 43.09375 -56.28125 C 47.007812 -54.070312 48.96875 -50.582031 48.96875 -45.8125 C 48.96875 -42.007812 47.644531 -38.984375 45 -36.734375 C 42.363281 -34.492188 39.226562 -33.035156 35.59375 -32.359375 L 35.59375 -32.1875 C 38.320312 -31.84375 40.890625 -31.019531 43.296875 -29.71875 C 45.710938 -28.414062 47.6875 -26.640625 49.21875 -24.390625 C 50.75 -22.148438 51.515625 -19.523438 51.515625 -16.515625 C 51.515625 -10.835938 49.269531 -6.664062 44.78125 -4 C 40.300781 -1.332031 34.828125 0 28.359375 0 L 7.15625 0 Z M 26.65625 -33.125 C 30.914062 -33.125 34.28125 -34.257812 36.75 -36.53125 C 39.21875 -38.800781 40.453125 -41.78125 40.453125 -45.46875 C 40.453125 -49.050781 39.160156 -52.003906 36.578125 -54.328125 C 33.992188 -56.660156 30.398438 -57.828125 25.796875 -57.828125 C 23.242188 -57.828125 20.601562 -57.398438 17.875 -56.546875 L 17.875 -33.125 Z M 26.3125 -1.78125 C 29.550781 -1.78125 32.390625 -2.40625 34.828125 -3.65625 C 37.265625 -4.90625 39.164062 -6.648438 40.53125 -8.890625 C 41.894531 -11.140625 42.578125 -13.679688 42.578125 -16.515625 C 42.578125 -21.003906 41.113281 -24.597656 38.1875 -27.296875 C 35.269531 -29.992188 31.453125 -31.34375 26.734375 -31.34375 L 17.875 -31.34375 L 17.875 -3.40625 C 20.320312 -2.320312 23.132812 -1.78125 26.3125 -1.78125 Z M 26.3125 -1.78125 "/></g></g></g><g fill="#ffffff" fill-opacity="1"><g transform="translate(215.430706, 343.118341)"><g><path d="M 21.453125 0.9375 C 17.367188 0.9375 14.046875 -0.46875 11.484375 -3.28125 C 8.929688 -6.09375 7.65625 -9.710938 7.65625 -14.140625 L 7.65625 -31.421875 C 7.65625 -33.296875 7.441406 -34.84375 7.015625 -36.0625 C 6.597656 -37.28125 5.9375 -38.34375 5.03125 -39.25 L 5.03125 -39.6875 L 14.8125 -43.515625 L 15.25 -43.515625 L 15.25 -14.21875 C 15.25 -11.269531 16.125 -8.828125 17.875 -6.890625 C 19.632812 -4.960938 21.9375 -4 24.78125 -4 C 27.726562 -4 30.253906 -4.945312 32.359375 -6.84375 C 34.460938 -8.75 35.515625 -11.207031 35.515625 -14.21875 L 35.515625 -31.421875 C 35.515625 -33.296875 35.300781 -34.859375 34.875 -36.109375 C 34.445312 -37.359375 33.78125 -38.40625 32.875 -39.25 L 32.875 -39.6875 L 42.65625 -43.515625 L 43.09375 -43.515625 L 43.09375 -9.625 C 43.09375 -6.101562 44 -3.601562 45.8125 -2.125 L 45.8125 -1.703125 L 35.9375 0.9375 L 35.515625 0.9375 L 35.515625 -7.65625 L 35.078125 -7.65625 C 33.941406 -5.101562 32.179688 -3.03125 29.796875 -1.4375 C 27.421875 0.144531 24.640625 0.9375 21.453125 0.9375 Z M 21.453125 0.9375 "/></g></g></g><g fill="#ffffff" fill-opacity="1"><g transform="translate(264.993843, 343.118341)"><g><path d="M 6.390625 -0.421875 C 7.859375 -2.460938 8.59375 -5.101562 8.59375 -8.34375 L 8.59375 -31.421875 C 8.59375 -33.296875 8.363281 -34.859375 7.90625 -36.109375 C 7.457031 -37.359375 6.78125 -38.40625 5.875 -39.25 L 5.875 -39.6875 L 15.75 -43.515625 L 16.171875 -43.515625 L 16.171875 -8.34375 C 16.171875 -5.101562 16.910156 -2.460938 18.390625 -0.421875 L 18.390625 0 L 6.390625 0 Z M 12.34375 -49.140625 C 10.976562 -49.140625 9.8125 -49.632812 8.84375 -50.625 C 7.882812 -51.613281 7.40625 -52.789062 7.40625 -54.15625 C 7.40625 -55.519531 7.898438 -56.679688 8.890625 -57.640625 C 9.890625 -58.609375 11.039062 -59.09375 12.34375 -59.09375 C 13.757812 -59.09375 14.953125 -58.609375 15.921875 -57.640625 C 16.890625 -56.679688 17.375 -55.519531 17.375 -54.15625 C 17.375 -52.738281 16.890625 -51.546875 15.921875 -50.578125 C 14.953125 -49.617188 13.757812 -49.140625 12.34375 -49.140625 Z M 12.34375 -49.140625 "/></g></g></g><g fill="#ffffff" fill-opacity="1"><g transform="translate(287.646367, 343.118341)"><g><path d="M 5.953125 -0.421875 C 7.429688 -2.460938 8.171875 -5.101562 8.171875 -8.34375 L 8.171875 -51.34375 C 8.171875 -53.21875 7.941406 -54.78125 7.484375 -56.03125 C 7.035156 -57.28125 6.359375 -58.359375 5.453125 -59.265625 L 5.453125 -59.6875 L 15.328125 -63.4375 L 15.75 -63.4375 L 15.75 -8.34375 C 15.75 -5.101562 16.488281 -2.460938 17.96875 -0.421875 L 17.96875 0 L 5.953125 0 Z M 5.953125 -0.421875 "/></g></g></g><g fill="#ffffff" fill-opacity="1"><g transform="translate(309.447291, 343.118341)"><g><path d="M 21.375 0.9375 C 17.800781 0.9375 14.707031 0.03125 12.09375 -1.78125 C 9.476562 -3.601562 7.472656 -6.101562 6.078125 -9.28125 C 4.691406 -12.457031 4 -16.035156 4 -20.015625 C 4 -24.492188 4.921875 -28.519531 6.765625 -32.09375 C 8.609375 -35.675781 11.09375 -38.472656 14.21875 -40.484375 C 17.34375 -42.503906 20.75 -43.515625 24.4375 -43.515625 C 28.8125 -43.515625 32.390625 -42.296875 35.171875 -39.859375 L 35.171875 -51.34375 C 35.171875 -53.21875 34.957031 -54.78125 34.53125 -56.03125 C 34.101562 -57.28125 33.4375 -58.359375 32.53125 -59.265625 L 32.53125 -59.6875 L 42.328125 -63.4375 L 42.75 -63.4375 L 42.75 -9.703125 C 42.75 -6.066406 43.65625 -3.570312 45.46875 -2.21875 L 45.46875 -1.78125 L 35.59375 0.9375 L 35.171875 0.9375 L 35.171875 -7.40625 L 34.75 -7.40625 C 33.550781 -4.96875 31.816406 -2.96875 29.546875 -1.40625 C 27.273438 0.15625 24.550781 0.9375 21.375 0.9375 Z M 24.359375 -3.828125 C 27.421875 -3.828125 29.941406 -4.789062 31.921875 -6.71875 C 33.910156 -8.65625 34.992188 -11.097656 35.171875 -14.046875 L 35.171875 -29.96875 C 34.992188 -32.925781 33.96875 -35.597656 32.09375 -37.984375 C 30.226562 -40.367188 27.617188 -41.5625 24.265625 -41.5625 C 20.410156 -41.5625 17.359375 -39.800781 15.109375 -36.28125 C 12.867188 -32.757812 11.75 -28.101562 11.75 -22.3125 C 11.75 -18.5625 12.285156 -15.296875 13.359375 -12.515625 C 14.441406 -9.734375 15.929688 -7.585938 17.828125 -6.078125 C 19.734375 -4.578125 21.910156 -3.828125 24.359375 -3.828125 Z M 24.359375 -3.828125 "/></g></g></g><g fill="#ffffff" fill-opacity="1"><g transform="translate(358.243978, 343.118341)"><g/></g></g><g fill="#ffffff" fill-opacity="1"><g transform="translate(377.830744, 343.118341)"><g><path d="M 18.734375 0.9375 C 15.671875 0.9375 13.054688 -0.0546875 10.890625 -2.046875 C 8.734375 -4.035156 7.65625 -6.816406 7.65625 -10.390625 L 7.65625 -35.078125 C 7.65625 -37.804688 6.378906 -39.679688 3.828125 -40.703125 L 3.828125 -41.125 C 7.691406 -43.113281 11.351562 -46.296875 14.8125 -50.671875 L 15.25 -50.671875 L 15.25 -42.578125 L 27.59375 -42.578125 L 26.65625 -39.859375 L 15.25 -39.859375 L 15.25 -10.390625 C 15.25 -8.054688 15.898438 -6.238281 17.203125 -4.9375 C 18.503906 -3.632812 20.148438 -2.984375 22.140625 -2.984375 C 23.441406 -2.984375 24.5625 -3.191406 25.5 -3.609375 C 26.4375 -4.035156 27.132812 -4.535156 27.59375 -5.109375 L 28.4375 -4.6875 C 27.53125 -2.976562 26.238281 -1.613281 24.5625 -0.59375 C 22.894531 0.425781 20.953125 0.9375 18.734375 0.9375 Z M 18.734375 0.9375 "/></g></g></g><g fill="#ffffff" fill-opacity="1"><g transform="translate(405.507728, 343.118341)"><g><path d="M 5.953125 -0.421875 C 7.429688 -2.460938 8.171875 -5.101562 8.171875 -8.34375 L 8.171875 -51.34375 C 8.171875 -53.21875 7.941406 -54.78125 7.484375 -56.03125 C 7.035156 -57.28125 6.359375 -58.359375 5.453125 -59.265625 L 5.453125 -59.6875 L 15.328125 -63.4375 L 15.75 -63.4375 L 15.75 -34.90625 L 16.171875 -34.90625 C 17.304688 -37.46875 19.066406 -39.539062 21.453125 -41.125 C 23.835938 -42.71875 26.617188 -43.515625 29.796875 -43.515625 C 34.117188 -43.515625 37.554688 -42.109375 40.109375 -39.296875 C 42.660156 -36.484375 43.9375 -32.863281 43.9375 -28.4375 L 43.9375 -8.34375 C 43.9375 -5.101562 44.675781 -2.460938 46.15625 -0.421875 L 46.15625 0 L 34.140625 0 L 34.140625 -0.421875 C 35.617188 -2.460938 36.359375 -5.101562 36.359375 -8.34375 L 36.359375 -28.359375 C 36.359375 -31.304688 35.445312 -33.742188 33.625 -35.671875 C 31.8125 -37.609375 29.429688 -38.578125 26.484375 -38.578125 C 23.535156 -38.578125 21.007812 -37.625 18.90625 -35.71875 C 16.800781 -33.820312 15.75 -31.367188 15.75 -28.359375 L 15.75 -8.34375 C 15.75 -5.101562 16.488281 -2.460938 17.96875 -0.421875 L 17.96875 0 L 5.953125 0 Z M 5.953125 -0.421875 "/></g></g></g><g fill="#ffffff" fill-opacity="1"><g transform="translate(455.49666, 343.118341)"><g><path d="M 41.296875 -13.546875 C 40.390625 -9.222656 38.359375 -5.726562 35.203125 -3.0625 C 32.054688 -0.394531 28.242188 0.9375 23.765625 0.9375 C 20.015625 0.9375 16.648438 0.0976562 13.671875 -1.578125 C 10.691406 -3.253906 8.332031 -5.679688 6.59375 -8.859375 C 4.863281 -12.035156 4 -15.78125 4 -20.09375 C 4 -24.75 4.9375 -28.847656 6.8125 -32.390625 C 8.6875 -35.941406 11.179688 -38.679688 14.296875 -40.609375 C 17.421875 -42.546875 20.773438 -43.515625 24.359375 -43.515625 C 27.703125 -43.515625 30.59375 -42.773438 33.03125 -41.296875 C 35.476562 -39.828125 37.335938 -37.882812 38.609375 -35.46875 C 39.890625 -33.050781 40.53125 -30.425781 40.53125 -27.59375 L 10.5625 -27.59375 L 10.5625 -26.734375 C 10.5625 -22.078125 11.269531 -18.128906 12.6875 -14.890625 C 14.101562 -11.660156 16.046875 -9.222656 18.515625 -7.578125 C 20.984375 -5.929688 23.78125 -5.109375 26.90625 -5.109375 C 30.082031 -5.109375 32.863281 -5.859375 35.25 -7.359375 C 37.632812 -8.867188 39.367188 -10.929688 40.453125 -13.546875 Z M 21.625 -40.953125 C 18.84375 -40.953125 16.429688 -39.988281 14.390625 -38.0625 C 12.347656 -36.132812 11.128906 -33.238281 10.734375 -29.375 L 32.4375 -29.375 C 31.988281 -33.0625 30.851562 -35.910156 29.03125 -37.921875 C 27.21875 -39.941406 24.75 -40.953125 21.625 -40.953125 Z M 21.625 -40.953125 "/></g></g></g><g fill="#ffffff" fill-opacity="1"><g transform="translate(498.246975, 343.118341)"><g/></g></g><g fill="#ffffff" fill-opacity="1"><g transform="translate(517.833742, 343.118341)"><g><path d="M 6.390625 -0.421875 C 7.859375 -2.460938 8.59375 -5.101562 8.59375 -8.34375 L 8.59375 -35.078125 C 8.59375 -37.972656 7.429688 -39.90625 5.109375 -40.875 L 5.109375 -41.296875 C 6.703125 -41.984375 7.851562 -42.921875 8.5625 -44.109375 C 9.269531 -45.304688 9.878906 -47.125 10.390625 -49.5625 C 12.378906 -58.695312 17.972656 -63.265625 27.171875 -63.265625 L 28.703125 -63.265625 L 28.703125 -56.28125 L 21.453125 -56.28125 C 18.734375 -56.28125 16.601562 -55.671875 15.0625 -54.453125 C 13.53125 -53.234375 12.765625 -51.429688 12.765625 -49.046875 C 12.765625 -47.859375 13.046875 -46.625 13.609375 -45.34375 C 14.179688 -44.0625 14.984375 -43.140625 16.015625 -42.578125 L 27.328125 -42.578125 L 26.484375 -39.859375 L 16.171875 -39.859375 L 16.171875 -8.34375 C 16.171875 -5.101562 16.910156 -2.460938 18.390625 -0.421875 L 18.390625 0 L 6.390625 0 Z M 6.390625 -0.421875 "/></g></g></g><g fill="#ffffff" fill-opacity="1"><g transform="translate(544.063002, 343.118341)"><g><path d="M 21.453125 0.9375 C 17.367188 0.9375 14.046875 -0.46875 11.484375 -3.28125 C 8.929688 -6.09375 7.65625 -9.710938 7.65625 -14.140625 L 7.65625 -31.421875 C 7.65625 -33.296875 7.441406 -34.84375 7.015625 -36.0625 C 6.597656 -37.28125 5.9375 -38.34375 5.03125 -39.25 L 5.03125 -39.6875 L 14.8125 -43.515625 L 15.25 -43.515625 L 15.25 -14.21875 C 15.25 -11.269531 16.125 -8.828125 17.875 -6.890625 C 19.632812 -4.960938 21.9375 -4 24.78125 -4 C 27.726562 -4 30.253906 -4.945312 32.359375 -6.84375 C 34.460938 -8.75 35.515625 -11.207031 35.515625 -14.21875 L 35.515625 -31.421875 C 35.515625 -33.296875 35.300781 -34.859375 34.875 -36.109375 C 34.445312 -37.359375 33.78125 -38.40625 32.875 -39.25 L 32.875 -39.6875 L 42.65625 -43.515625 L 43.09375 -43.515625 L 43.09375 -9.625 C 43.09375 -6.101562 44 -3.601562 45.8125 -2.125 L 45.8125 -1.703125 L 35.9375 0.9375 L 35.515625 0.9375 L 35.515625 -7.65625 L 35.078125 -7.65625 C 33.941406 -5.101562 32.179688 -3.03125 29.796875 -1.4375 C 27.421875 0.144531 24.640625 0.9375 21.453125 0.9375 Z M 21.453125 0.9375 "/></g></g></g><g fill="#ffffff" fill-opacity="1"><g transform="translate(593.626121, 343.118341)"><g><path d="M 18.734375 0.9375 C 15.671875 0.9375 13.054688 -0.0546875 10.890625 -2.046875 C 8.734375 -4.035156 7.65625 -6.816406 7.65625 -10.390625 L 7.65625 -35.078125 C 7.65625 -37.804688 6.378906 -39.679688 3.828125 -40.703125 L 3.828125 -41.125 C 7.691406 -43.113281 11.351562 -46.296875 14.8125 -50.671875 L 15.25 -50.671875 L 15.25 -42.578125 L 27.59375 -42.578125 L 26.65625 -39.859375 L 15.25 -39.859375 L 15.25 -10.390625 C 15.25 -8.054688 15.898438 -6.238281 17.203125 -4.9375 C 18.503906 -3.632812 20.148438 -2.984375 22.140625 -2.984375 C 23.441406 -2.984375 24.5625 -3.191406 25.5 -3.609375 C 26.4375 -4.035156 27.132812 -4.535156 27.59375 -5.109375 L 28.4375 -4.6875 C 27.53125 -2.976562 26.238281 -1.613281 24.5625 -0.59375 C 22.894531 0.425781 20.953125 0.9375 18.734375 0.9375 Z M 18.734375 0.9375 "/></g></g></g><g fill="#ffffff" fill-opacity="1"><g transform="translate(621.303105, 343.118341)"><g><path d="M 21.453125 0.9375 C 17.367188 0.9375 14.046875 -0.46875 11.484375 -3.28125 C 8.929688 -6.09375 7.65625 -9.710938 7.65625 -14.140625 L 7.65625 -31.421875 C 7.65625 -33.296875 7.441406 -34.84375 7.015625 -36.0625 C 6.597656 -37.28125 5.9375 -38.34375 5.03125 -39.25 L 5.03125 -39.6875 L 14.8125 -43.515625 L 15.25 -43.515625 L 15.25 -14.21875 C 15.25 -11.269531 16.125 -8.828125 17.875 -6.890625 C 19.632812 -4.960938 21.9375 -4 24.78125 -4 C 27.726562 -4 30.253906 -4.945312 32.359375 -6.84375 C 34.460938 -8.75 35.515625 -11.207031 35.515625 -14.21875 L 35.515625 -31.421875 C 35.515625 -33.296875 35.300781 -34.859375 34.875 -36.109375 C 34.445312 -37.359375 33.78125 -38.40625 32.875 -39.25 L 32.875 -39.6875 L 42.65625 -43.515625 L 43.09375 -43.515625 L 43.09375 -9.625 C 43.09375 -6.101562 44 -3.601562 45.8125 -2.125 L 45.8125 -1.703125 L 35.9375 0.9375 L 35.515625 0.9375 L 35.515625 -7.65625 L 35.078125 -7.65625 C 33.941406 -5.101562 32.179688 -3.03125 29.796875 -1.4375 C 27.421875 0.144531 24.640625 0.9375 21.453125 0.9375 Z M 21.453125 0.9375 "/></g></g></g><g fill="#ffffff" fill-opacity="1"><g transform="translate(670.866224, 343.118341)"><g><path d="M 6.390625 -0.421875 C 7.859375 -2.460938 8.59375 -5.101562 8.59375 -8.34375 L 8.59375 -31.421875 C 8.59375 -33.296875 8.363281 -34.859375 7.90625 -36.109375 C 7.457031 -37.359375 6.78125 -38.40625 5.875 -39.25 L 5.875 -39.6875 L 15.75 -43.515625 L 16.171875 -43.515625 L 16.171875 -33.640625 L 16.609375 -33.640625 C 17.628906 -36.867188 19.285156 -39.320312 21.578125 -41 C 23.878906 -42.675781 27.078125 -43.515625 31.171875 -43.515625 L 31.171875 -36.1875 L 27 -36.1875 C 19.78125 -36.1875 16.171875 -32.976562 16.171875 -26.5625 L 16.171875 -8.34375 C 16.171875 -5.101562 16.910156 -2.460938 18.390625 -0.421875 L 18.390625 0 L 6.390625 0 Z M 6.390625 -0.421875 "/></g></g></g><g fill="#ffffff" fill-opacity="1"><g transform="translate(701.694132, 343.118341)"><g><path d="M 41.296875 -13.546875 C 40.390625 -9.222656 38.359375 -5.726562 35.203125 -3.0625 C 32.054688 -0.394531 28.242188 0.9375 23.765625 0.9375 C 20.015625 0.9375 16.648438 0.0976562 13.671875 -1.578125 C 10.691406 -3.253906 8.332031 -5.679688 6.59375 -8.859375 C 4.863281 -12.035156 4 -15.78125 4 -20.09375 C 4 -24.75 4.9375 -28.847656 6.8125 -32.390625 C 8.6875 -35.941406 11.179688 -38.679688 14.296875 -40.609375 C 17.421875 -42.546875 20.773438 -43.515625 24.359375 -43.515625 C 27.703125 -43.515625 30.59375 -42.773438 33.03125 -41.296875 C 35.476562 -39.828125 37.335938 -37.882812 38.609375 -35.46875 C 39.890625 -33.050781 40.53125 -30.425781 40.53125 -27.59375 L 10.5625 -27.59375 L 10.5625 -26.734375 C 10.5625 -22.078125 11.269531 -18.128906 12.6875 -14.890625 C 14.101562 -11.660156 16.046875 -9.222656 18.515625 -7.578125 C 20.984375 -5.929688 23.78125 -5.109375 26.90625 -5.109375 C 30.082031 -5.109375 32.863281 -5.859375 35.25 -7.359375 C 37.632812 -8.867188 39.367188 -10.929688 40.453125 -13.546875 Z M 21.625 -40.953125 C 18.84375 -40.953125 16.429688 -39.988281 14.390625 -38.0625 C 12.347656 -36.132812 11.128906 -33.238281 10.734375 -29.375 L 32.4375 -29.375 C 31.988281 -33.0625 30.851562 -35.910156 29.03125 -37.921875 C 27.21875 -39.941406 24.75 -40.953125 21.625 -40.953125 Z M 21.625 -40.953125 "/></g></g></g><g fill="#ffffff" fill-opacity="1"><g transform="translate(744.438409, 343.118341)"><g/></g></g><g fill="#ffffff" fill-opacity="1"><g transform="translate(764.020434, 343.118341)"><g><path d="M 24.265625 0.9375 C 20.234375 0.9375 16.671875 -0.0390625 13.578125 -2 C 10.484375 -3.957031 8.097656 -6.625 6.421875 -10 C 4.753906 -13.382812 3.921875 -17.144531 3.921875 -21.28125 C 3.921875 -25.425781 4.753906 -29.1875 6.421875 -32.5625 C 8.097656 -35.945312 10.484375 -38.617188 13.578125 -40.578125 C 16.671875 -42.535156 20.234375 -43.515625 24.265625 -43.515625 C 28.296875 -43.515625 31.859375 -42.535156 34.953125 -40.578125 C 38.046875 -38.617188 40.429688 -35.945312 42.109375 -32.5625 C 43.785156 -29.1875 44.625 -25.425781 44.625 -21.28125 C 44.625 -17.144531 43.785156 -13.382812 42.109375 -10 C 40.429688 -6.625 38.046875 -3.957031 34.953125 -2 C 31.859375 -0.0390625 28.296875 0.9375 24.265625 0.9375 Z M 24.265625 -0.84375 C 28.128906 -0.84375 31.082031 -2.757812 33.125 -6.59375 C 35.164062 -10.425781 36.1875 -15.320312 36.1875 -21.28125 C 36.1875 -27.25 35.164062 -32.144531 33.125 -35.96875 C 31.082031 -39.800781 28.128906 -41.71875 24.265625 -41.71875 C 20.410156 -41.71875 17.457031 -39.800781 15.40625 -35.96875 C 13.363281 -32.144531 12.34375 -27.25 12.34375 -21.28125 C 12.34375 -15.320312 13.363281 -10.425781 15.40625 -6.59375 C 17.457031 -2.757812 20.410156 -0.84375 24.265625 -0.84375 Z M 24.265625 -0.84375 "/></g></g></g><g fill="#ffffff" fill-opacity="1"><g transform="translate(810.858447, 343.118341)"><g><path d="M 6.390625 -0.421875 C 7.859375 -2.460938 8.59375 -5.101562 8.59375 -8.34375 L 8.59375 -31.421875 C 8.59375 -33.296875 8.363281 -34.859375 7.90625 -36.109375 C 7.457031 -37.359375 6.78125 -38.40625 5.875 -39.25 L 5.875 -39.6875 L 15.75 -43.515625 L 16.171875 -43.515625 L 16.171875 -34.90625 L 16.609375 -34.90625 C 17.742188 -37.46875 19.503906 -39.539062 21.890625 -41.125 C 24.273438 -42.71875 27.054688 -43.515625 30.234375 -43.515625 C 34.546875 -43.515625 37.976562 -42.109375 40.53125 -39.296875 C 43.082031 -36.484375 44.359375 -32.863281 44.359375 -28.4375 L 44.359375 -8.34375 C 44.359375 -5.101562 45.097656 -2.460938 46.578125 -0.421875 L 46.578125 0 L 34.578125 0 L 34.578125 -0.421875 C 36.046875 -2.460938 36.78125 -5.101562 36.78125 -8.34375 L 36.78125 -28.359375 C 36.78125 -31.304688 35.875 -33.742188 34.0625 -35.671875 C 32.25 -37.609375 29.863281 -38.578125 26.90625 -38.578125 C 23.957031 -38.578125 21.429688 -37.625 19.328125 -35.71875 C 17.222656 -33.820312 16.171875 -31.367188 16.171875 -28.359375 L 16.171875 -8.34375 C 16.171875 -5.101562 16.910156 -2.460938 18.390625 -0.421875 L 18.390625 0 L 6.390625 0 Z M 6.390625 -0.421875 "/></g></g></g><g fill="#ffffff" fill-opacity="1"><g transform="translate(92.747075, 427.868331)"><g><path d="M 1.953125 -0.421875 C 4.398438 -3.035156 6.078125 -6.613281 6.984375 -11.15625 L 14.21875 -48.453125 C 14.5 -49.753906 14.640625 -51.226562 14.640625 -52.875 C 14.640625 -55.4375 14.1875 -57.539062 13.28125 -59.1875 L 13.375 -59.609375 L 37.46875 -59.609375 C 42.863281 -59.609375 47.234375 -58.484375 50.578125 -56.234375 C 53.929688 -53.992188 55.609375 -50.972656 55.609375 -47.171875 C 55.609375 -44.109375 54.8125 -41.484375 53.21875 -39.296875 C 51.632812 -37.109375 49.601562 -35.414062 47.125 -34.21875 C 44.65625 -33.03125 42.117188 -32.351562 39.515625 -32.1875 L 39.421875 -31.84375 C 43.054688 -31.21875 46.125 -29.710938 48.625 -27.328125 C 51.125 -24.953125 52.375 -21.972656 52.375 -18.390625 C 52.375 -12.660156 50.257812 -8.160156 46.03125 -4.890625 C 41.800781 -1.628906 35.625 0 27.5 0 L 1.875 0 Z M 29.46875 -32.953125 C 33.613281 -32.953125 36.875 -34.34375 39.25 -37.125 C 41.632812 -39.90625 42.828125 -43.453125 42.828125 -47.765625 C 42.828125 -50.773438 42.128906 -53.160156 40.734375 -54.921875 C 39.347656 -56.679688 37.125 -57.5625 34.0625 -57.5625 C 31.738281 -57.5625 29.722656 -57.191406 28.015625 -56.453125 L 23.421875 -32.953125 Z M 24.859375 -2.046875 C 27.816406 -2.046875 30.382812 -2.8125 32.5625 -4.34375 C 34.75 -5.875 36.4375 -7.957031 37.625 -10.59375 C 38.820312 -13.238281 39.421875 -16.179688 39.421875 -19.421875 C 39.421875 -22.929688 38.515625 -25.707031 36.703125 -27.75 C 34.890625 -29.800781 32.191406 -30.828125 28.609375 -30.828125 L 22.984375 -30.828125 L 17.796875 -3.578125 C 18.585938 -3.066406 19.648438 -2.679688 20.984375 -2.421875 C 22.316406 -2.171875 23.609375 -2.046875 24.859375 -2.046875 Z M 24.859375 -2.046875 "/></g></g></g><g fill="#ffffff" fill-opacity="1"><g transform="translate(147.930771, 427.868331)"><g><path d="M 12.4375 1.109375 C 10.050781 1.109375 8.144531 0.398438 6.71875 -1.015625 C 5.300781 -2.441406 4.59375 -4.601562 4.59375 -7.5 C 4.59375 -8.519531 4.738281 -9.878906 5.03125 -11.578125 L 8.09375 -27.5 C 8.488281 -29.769531 8.6875 -31.390625 8.6875 -32.359375 C 8.6875 -33.722656 8.488281 -34.859375 8.09375 -35.765625 C 7.695312 -36.671875 7.097656 -37.492188 6.296875 -38.234375 L 6.390625 -38.65625 L 22.140625 -43.6875 L 22.5625 -43.6875 L 15.671875 -8.09375 C 15.441406 -6.726562 15.328125 -5.90625 15.328125 -5.625 C 15.328125 -4.375 15.8125 -3.75 16.78125 -3.75 C 18.539062 -3.75 20.46875 -6.753906 22.5625 -12.765625 L 24.015625 -12.765625 C 22.710938 -7.546875 21.132812 -3.925781 19.28125 -1.90625 C 17.4375 0.101562 15.15625 1.109375 12.4375 1.109375 Z M 17.953125 -48.703125 C 16.203125 -48.703125 14.757812 -49.285156 13.625 -50.453125 C 12.488281 -51.617188 11.921875 -53.050781 11.921875 -54.75 C 11.921875 -56.738281 12.65625 -58.441406 14.125 -59.859375 C 15.601562 -61.285156 17.335938 -62 19.328125 -62 C 21.023438 -62 22.441406 -61.398438 23.578125 -60.203125 C 24.710938 -59.015625 25.28125 -57.566406 25.28125 -55.859375 C 25.28125 -53.867188 24.539062 -52.175781 23.0625 -50.78125 C 21.59375 -49.394531 19.890625 -48.703125 17.953125 -48.703125 Z M 17.953125 -48.703125 "/></g></g></g><g fill="#ffffff" fill-opacity="1"><g transform="translate(173.393592, 427.868331)"><g><path d="M 12.4375 1.109375 C 10.050781 1.109375 8.085938 0.34375 6.546875 -1.1875 C 5.015625 -2.71875 4.25 -4.988281 4.25 -8 C 4.25 -9.019531 4.394531 -10.300781 4.6875 -11.84375 L 8.859375 -33.890625 C 8.972656 -34.679688 9.03125 -35.191406 9.03125 -35.421875 C 9.03125 -37.804688 7.976562 -39.453125 5.875 -40.359375 L 5.953125 -40.796875 C 11.804688 -42.890625 17.515625 -46.519531 23.078125 -51.6875 L 23.5 -51.6875 L 21.71875 -42.578125 L 32.109375 -42.578125 L 30.65625 -39.515625 L 21.203125 -39.515625 L 15.328125 -8.09375 C 15.160156 -7.351562 15.078125 -6.671875 15.078125 -6.046875 C 15.078125 -4.515625 15.671875 -3.75 16.859375 -3.75 C 17.710938 -3.75 18.660156 -4.425781 19.703125 -5.78125 C 20.753906 -7.144531 21.992188 -9.472656 23.421875 -12.765625 L 24.859375 -12.765625 C 23.503906 -7.710938 21.800781 -4.132812 19.75 -2.03125 C 17.707031 0.0625 15.269531 1.109375 12.4375 1.109375 Z M 12.4375 1.109375 "/></g></g></g><g fill="#ffffff" fill-opacity="1"><g transform="translate(200.389298, 427.868331)"><g><path d="M 21.03125 1.109375 C 17.570312 1.109375 14.492188 0.34375 11.796875 -1.1875 C 9.097656 -2.71875 6.992188 -4.890625 5.484375 -7.703125 C 3.984375 -10.515625 3.234375 -13.765625 3.234375 -17.453125 C 3.234375 -22.171875 4.269531 -26.539062 6.34375 -30.5625 C 8.414062 -34.59375 11.296875 -37.785156 14.984375 -40.140625 C 18.671875 -42.503906 22.785156 -43.6875 27.328125 -43.6875 C 32.492188 -43.6875 36.8125 -42.609375 40.28125 -40.453125 L 37.8125 -27.5 L 36.953125 -27.5 C 36.210938 -32.332031 34.988281 -35.867188 33.28125 -38.109375 C 31.582031 -40.347656 29.398438 -41.46875 26.734375 -41.46875 C 24.804688 -41.46875 22.929688 -40.613281 21.109375 -38.90625 C 19.296875 -37.207031 17.804688 -34.796875 16.640625 -31.671875 C 15.484375 -28.554688 14.90625 -25.007812 14.90625 -21.03125 C 14.90625 -16.320312 15.753906 -12.445312 17.453125 -9.40625 C 19.160156 -6.375 21.800781 -4.859375 25.375 -4.859375 C 27.53125 -4.859375 29.515625 -5.410156 31.328125 -6.515625 C 33.148438 -7.617188 34.941406 -9.445312 36.703125 -12 L 37.890625 -12 C 36.929688 -8.539062 35.015625 -5.488281 32.140625 -2.84375 C 29.273438 -0.207031 25.570312 1.109375 21.03125 1.109375 Z M 21.03125 1.109375 "/></g></g></g><g fill="#ffffff" fill-opacity="1"><g transform="translate(239.818378, 427.868331)"><g><path d="M 21.125 1.109375 C 17.375 1.109375 14.117188 0.328125 11.359375 -1.234375 C 8.609375 -2.796875 6.492188 -4.953125 5.015625 -7.703125 C 3.546875 -10.460938 2.8125 -13.597656 2.8125 -17.109375 C 2.8125 -22.054688 3.832031 -26.554688 5.875 -30.609375 C 7.914062 -34.671875 10.695312 -37.863281 14.21875 -40.1875 C 17.738281 -42.519531 21.65625 -43.6875 25.96875 -43.6875 C 29.71875 -43.6875 32.984375 -42.90625 35.765625 -41.34375 C 38.546875 -39.78125 40.671875 -37.617188 42.140625 -34.859375 C 43.617188 -32.109375 44.359375 -28.976562 44.359375 -25.46875 C 44.359375 -20.519531 43.335938 -16.015625 41.296875 -11.953125 C 39.253906 -7.898438 36.457031 -4.707031 32.90625 -2.375 C 29.363281 -0.0507812 25.4375 1.109375 21.125 1.109375 Z M 21.03125 -0.84375 C 23.300781 -0.84375 25.300781 -2.304688 27.03125 -5.234375 C 28.769531 -8.160156 30.117188 -11.835938 31.078125 -16.265625 C 32.046875 -20.691406 32.53125 -25.003906 32.53125 -29.203125 C 32.53125 -37.546875 30.375 -41.71875 26.0625 -41.71875 C 23.789062 -41.71875 21.785156 -40.253906 20.046875 -37.328125 C 18.316406 -34.410156 16.984375 -30.738281 16.046875 -26.3125 C 15.109375 -21.882812 14.640625 -17.570312 14.640625 -13.375 C 14.640625 -5.019531 16.769531 -0.84375 21.03125 -0.84375 Z M 21.03125 -0.84375 "/></g></g></g><g fill="#ffffff" fill-opacity="1"><g transform="translate(285.293829, 427.868331)"><g><path d="M 12.4375 1.109375 C 10.050781 1.109375 8.144531 0.398438 6.71875 -1.015625 C 5.300781 -2.441406 4.59375 -4.601562 4.59375 -7.5 C 4.59375 -8.519531 4.738281 -9.878906 5.03125 -11.578125 L 8.09375 -27.5 C 8.488281 -29.769531 8.6875 -31.390625 8.6875 -32.359375 C 8.6875 -33.722656 8.488281 -34.859375 8.09375 -35.765625 C 7.695312 -36.671875 7.097656 -37.492188 6.296875 -38.234375 L 6.390625 -38.65625 L 22.140625 -43.6875 L 22.5625 -43.6875 L 15.671875 -8.09375 C 15.441406 -6.726562 15.328125 -5.90625 15.328125 -5.625 C 15.328125 -4.375 15.8125 -3.75 16.78125 -3.75 C 18.539062 -3.75 20.46875 -6.753906 22.5625 -12.765625 L 24.015625 -12.765625 C 22.710938 -7.546875 21.132812 -3.925781 19.28125 -1.90625 C 17.4375 0.101562 15.15625 1.109375 12.4375 1.109375 Z M 17.953125 -48.703125 C 16.203125 -48.703125 14.757812 -49.285156 13.625 -50.453125 C 12.488281 -51.617188 11.921875 -53.050781 11.921875 -54.75 C 11.921875 -56.738281 12.65625 -58.441406 14.125 -59.859375 C 15.601562 -61.285156 17.335938 -62 19.328125 -62 C 21.023438 -62 22.441406 -61.398438 23.578125 -60.203125 C 24.710938 -59.015625 25.28125 -57.566406 25.28125 -55.859375 C 25.28125 -53.867188 24.539062 -52.175781 23.0625 -50.78125 C 21.59375 -49.394531 19.890625 -48.703125 17.953125 -48.703125 Z M 17.953125 -48.703125 "/></g></g></g><g fill="#ffffff" fill-opacity="1"><g transform="translate(310.756655, 427.868331)"><g><path d="M 37.046875 1.109375 C 34.828125 1.109375 33.019531 0.398438 31.625 -1.015625 C 30.238281 -2.441406 29.546875 -4.546875 29.546875 -7.328125 C 29.546875 -8.859375 29.742188 -10.414062 30.140625 -12 L 34.40625 -30.65625 C 34.570312 -31.507812 34.65625 -32.273438 34.65625 -32.953125 C 34.65625 -35.390625 33.578125 -36.609375 31.421875 -36.609375 C 29.097656 -36.609375 26.628906 -34.75 24.015625 -31.03125 C 21.398438 -27.320312 19.300781 -22.738281 17.71875 -17.28125 L 14.390625 0 L 3.0625 0 L 8.34375 -27.5 C 8.738281 -29.4375 8.9375 -31.113281 8.9375 -32.53125 C 8.9375 -33.894531 8.738281 -35.015625 8.34375 -35.890625 C 7.945312 -36.773438 7.378906 -37.554688 6.640625 -38.234375 L 6.734375 -38.65625 L 22.390625 -43.6875 L 22.828125 -43.6875 L 19.921875 -28.53125 L 20.359375 -28.53125 C 22.109375 -33.1875 24.414062 -36.875 27.28125 -39.59375 C 30.15625 -42.320312 33.351562 -43.6875 36.875 -43.6875 C 39.59375 -43.6875 41.773438 -42.863281 43.421875 -41.21875 C 45.078125 -39.570312 45.90625 -37.070312 45.90625 -33.71875 C 45.90625 -31.957031 45.644531 -29.914062 45.125 -27.59375 L 40.453125 -7.5 C 40.273438 -6.757812 40.1875 -6.101562 40.1875 -5.53125 C 40.1875 -4.34375 40.671875 -3.75 41.640625 -3.75 C 42.546875 -3.75 43.484375 -4.5 44.453125 -6 C 45.421875 -7.507812 46.441406 -9.765625 47.515625 -12.765625 L 48.96875 -12.765625 C 47.601562 -7.546875 45.984375 -3.925781 44.109375 -1.90625 C 42.234375 0.101562 39.878906 1.109375 37.046875 1.109375 Z M 37.046875 1.109375 "/></g></g></g><g fill="#ffffff" fill-opacity="1"><g transform="translate(361.426877, 427.868331)"><g/></g></g><g fill="#ffffff" fill-opacity="1"><g transform="translate(381.013643, 427.868331)"><g><path d="M 14.21875 1.109375 C 10.46875 1.109375 7.582031 -0.265625 5.5625 -3.015625 C 3.550781 -5.773438 2.546875 -9.425781 2.546875 -13.96875 C 2.546875 -19.1875 3.625 -24.066406 5.78125 -28.609375 C 7.945312 -33.148438 10.914062 -36.796875 14.6875 -39.546875 C 18.46875 -42.304688 22.710938 -43.6875 27.421875 -43.6875 C 31.617188 -43.6875 35.050781 -42.460938 37.71875 -40.015625 L 46.40625 -43.6875 L 46.828125 -43.6875 L 39.9375 -8.09375 C 39.707031 -6.726562 39.59375 -5.90625 39.59375 -5.625 C 39.59375 -4.375 40.078125 -3.75 41.046875 -3.75 C 42.804688 -3.75 44.734375 -6.753906 46.828125 -12.765625 L 48.28125 -12.765625 C 46.976562 -7.609375 45.414062 -4.003906 43.59375 -1.953125 C 41.78125 0.0859375 39.597656 1.109375 37.046875 1.109375 C 34.710938 1.109375 32.863281 0.382812 31.5 -1.0625 C 30.144531 -2.507812 29.46875 -4.597656 29.46875 -7.328125 C 29.46875 -8.347656 29.550781 -9.394531 29.71875 -10.46875 L 30.140625 -13.03125 L 29.71875 -13.03125 C 26.3125 -3.601562 21.144531 1.109375 14.21875 1.109375 Z M 19.15625 -5.109375 C 22.050781 -5.109375 24.71875 -7.75 27.15625 -13.03125 C 29.601562 -18.3125 31.789062 -24.554688 33.71875 -31.765625 L 33.8125 -33.203125 C 33.8125 -35.929688 33.253906 -37.988281 32.140625 -39.375 C 31.035156 -40.769531 29.71875 -41.46875 28.1875 -41.46875 C 25.519531 -41.46875 23.09375 -39.945312 20.90625 -36.90625 C 18.71875 -33.875 17 -30.15625 15.75 -25.75 C 14.5 -21.351562 13.875 -17.285156 13.875 -13.546875 C 13.875 -10.816406 14.3125 -8.726562 15.1875 -7.28125 C 16.070312 -5.832031 17.394531 -5.109375 19.15625 -5.109375 Z M 19.15625 -5.109375 "/></g></g></g><g fill="#ffffff" fill-opacity="1"><g transform="translate(429.81033, 427.868331)"><g><path d="M 37.046875 1.109375 C 34.828125 1.109375 33.019531 0.398438 31.625 -1.015625 C 30.238281 -2.441406 29.546875 -4.546875 29.546875 -7.328125 C 29.546875 -8.859375 29.742188 -10.414062 30.140625 -12 L 34.40625 -30.65625 C 34.570312 -31.507812 34.65625 -32.273438 34.65625 -32.953125 C 34.65625 -35.390625 33.578125 -36.609375 31.421875 -36.609375 C 29.097656 -36.609375 26.628906 -34.75 24.015625 -31.03125 C 21.398438 -27.320312 19.300781 -22.738281 17.71875 -17.28125 L 14.390625 0 L 3.0625 0 L 8.34375 -27.5 C 8.738281 -29.4375 8.9375 -31.113281 8.9375 -32.53125 C 8.9375 -33.894531 8.738281 -35.015625 8.34375 -35.890625 C 7.945312 -36.773438 7.378906 -37.554688 6.640625 -38.234375 L 6.734375 -38.65625 L 22.390625 -43.6875 L 22.828125 -43.6875 L 19.921875 -28.53125 L 20.359375 -28.53125 C 22.109375 -33.1875 24.414062 -36.875 27.28125 -39.59375 C 30.15625 -42.320312 33.351562 -43.6875 36.875 -43.6875 C 39.59375 -43.6875 41.773438 -42.863281 43.421875 -41.21875 C 45.078125 -39.570312 45.90625 -37.070312 45.90625 -33.71875 C 45.90625 -31.957031 45.644531 -29.914062 45.125 -27.59375 L 40.453125 -7.5 C 40.273438 -6.757812 40.1875 -6.101562 40.1875 -5.53125 C 40.1875 -4.34375 40.671875 -3.75 41.640625 -3.75 C 42.546875 -3.75 43.484375 -4.5 44.453125 -6 C 45.421875 -7.507812 46.441406 -9.765625 47.515625 -12.765625 L 48.96875 -12.765625 C 47.601562 -7.546875 45.984375 -3.925781 44.109375 -1.90625 C 42.234375 0.101562 39.878906 1.109375 37.046875 1.109375 Z M 37.046875 1.109375 "/></g></g></g><g fill="#ffffff" fill-opacity="1"><g transform="translate(480.480551, 427.868331)"><g><path d="M 14.21875 1.109375 C 10.46875 1.109375 7.582031 -0.265625 5.5625 -3.015625 C 3.550781 -5.773438 2.546875 -9.425781 2.546875 -13.96875 C 2.546875 -19.132812 3.625 -24 5.78125 -28.5625 C 7.945312 -33.132812 10.898438 -36.796875 14.640625 -39.546875 C 18.390625 -42.304688 22.507812 -43.6875 27 -43.6875 C 30 -43.6875 32.523438 -42.773438 34.578125 -40.953125 L 35.765625 -47.265625 C 36.109375 -49.140625 36.28125 -50.726562 36.28125 -52.03125 C 36.28125 -53.445312 36.09375 -54.625 35.71875 -55.5625 C 35.351562 -56.5 34.742188 -57.304688 33.890625 -57.984375 L 33.984375 -58.421875 L 49.5625 -63.4375 L 49.984375 -63.4375 L 40.015625 -8.09375 C 39.796875 -6.726562 39.6875 -5.90625 39.6875 -5.625 C 39.6875 -4.375 40.164062 -3.75 41.125 -3.75 C 42.882812 -3.75 44.816406 -6.753906 46.921875 -12.765625 L 48.375 -12.765625 C 47.0625 -7.609375 45.492188 -4.003906 43.671875 -1.953125 C 41.859375 0.0859375 39.675781 1.109375 37.125 1.109375 C 34.800781 1.109375 32.957031 0.367188 31.59375 -1.109375 C 30.226562 -2.585938 29.546875 -4.71875 29.546875 -7.5 C 29.546875 -8.40625 29.628906 -9.394531 29.796875 -10.46875 L 30.234375 -13.03125 L 29.796875 -13.03125 C 28.210938 -8.601562 26.113281 -5.140625 23.5 -2.640625 C 20.882812 -0.140625 17.789062 1.109375 14.21875 1.109375 Z M 19.15625 -5.109375 C 22.050781 -5.109375 24.75 -7.757812 27.25 -13.0625 C 29.75 -18.375 31.9375 -24.609375 33.8125 -31.765625 L 33.890625 -33.203125 C 33.890625 -35.929688 33.320312 -37.988281 32.1875 -39.375 C 31.050781 -40.769531 29.71875 -41.46875 28.1875 -41.46875 C 25.519531 -41.46875 23.09375 -39.945312 20.90625 -36.90625 C 18.71875 -33.875 17 -30.15625 15.75 -25.75 C 14.5 -21.351562 13.875 -17.285156 13.875 -13.546875 C 13.875 -10.816406 14.3125 -8.726562 15.1875 -7.28125 C 16.070312 -5.832031 17.394531 -5.109375 19.15625 -5.109375 Z M 19.15625 -5.109375 "/></g></g></g><g fill="#ffffff" fill-opacity="1"><g transform="translate(529.447571, 427.868331)"><g/></g></g><g fill="#ffffff" fill-opacity="1"><g transform="translate(549.034361, 427.868331)"><g><path d="M 1.953125 -0.421875 C 4.398438 -3.035156 6.078125 -6.613281 6.984375 -11.15625 L 14.21875 -48.453125 C 14.5 -49.753906 14.640625 -51.226562 14.640625 -52.875 C 14.640625 -55.4375 14.1875 -57.539062 13.28125 -59.1875 L 13.375 -59.609375 L 31.59375 -59.609375 L 31.5 -59.1875 C 29.0625 -56.570312 27.390625 -52.992188 26.484375 -48.453125 L 17.453125 -2.125 L 24.4375 -2.125 C 28.351562 -2.125 31.71875 -2.691406 34.53125 -3.828125 C 37.34375 -4.960938 39.785156 -6.566406 41.859375 -8.640625 C 43.929688 -10.710938 46.046875 -13.425781 48.203125 -16.78125 L 49.046875 -16.78125 L 43.515625 0 L 1.875 0 Z M 1.953125 -0.421875 "/></g></g></g><g fill="#ffffff" fill-opacity="1"><g transform="translate(596.383324, 427.868331)"><g><path d="M 12.4375 1.109375 C 10.050781 1.109375 8.144531 0.398438 6.71875 -1.015625 C 5.300781 -2.441406 4.59375 -4.601562 4.59375 -7.5 C 4.59375 -8.519531 4.738281 -9.878906 5.03125 -11.578125 L 8.09375 -27.5 C 8.488281 -29.769531 8.6875 -31.390625 8.6875 -32.359375 C 8.6875 -33.722656 8.488281 -34.859375 8.09375 -35.765625 C 7.695312 -36.671875 7.097656 -37.492188 6.296875 -38.234375 L 6.390625 -38.65625 L 22.140625 -43.6875 L 22.5625 -43.6875 L 15.671875 -8.09375 C 15.441406 -6.726562 15.328125 -5.90625 15.328125 -5.625 C 15.328125 -4.375 15.8125 -3.75 16.78125 -3.75 C 18.539062 -3.75 20.46875 -6.753906 22.5625 -12.765625 L 24.015625 -12.765625 C 22.710938 -7.546875 21.132812 -3.925781 19.28125 -1.90625 C 17.4375 0.101562 15.15625 1.109375 12.4375 1.109375 Z M 17.953125 -48.703125 C 16.203125 -48.703125 14.757812 -49.285156 13.625 -50.453125 C 12.488281 -51.617188 11.921875 -53.050781 11.921875 -54.75 C 11.921875 -56.738281 12.65625 -58.441406 14.125 -59.859375 C 15.601562 -61.285156 17.335938 -62 19.328125 -62 C 21.023438 -62 22.441406 -61.398438 23.578125 -60.203125 C 24.710938 -59.015625 25.28125 -57.566406 25.28125 -55.859375 C 25.28125 -53.867188 24.539062 -52.175781 23.0625 -50.78125 C 21.59375 -49.394531 19.890625 -48.703125 17.953125 -48.703125 Z M 17.953125 -48.703125 "/></g></g></g><g fill="#ffffff" fill-opacity="1"><g transform="translate(621.846151, 427.868331)"><g><path d="M 46.234375 -45.390625 C 46.972656 -45.390625 47.539062 -45.359375 47.9375 -45.296875 L 46.578125 -37.8125 C 44.472656 -38.601562 42.34375 -39 40.1875 -39 C 38.9375 -39 37.800781 -38.859375 36.78125 -38.578125 C 38.601562 -36.472656 39.515625 -33.890625 39.515625 -30.828125 C 39.515625 -27.929688 38.734375 -25.273438 37.171875 -22.859375 C 35.609375 -20.453125 33.460938 -18.535156 30.734375 -17.109375 C 28.015625 -15.691406 24.976562 -14.984375 21.625 -14.984375 C 17.769531 -14.984375 14.453125 -15.835938 11.671875 -17.546875 C 10.648438 -16.578125 10.140625 -15.550781 10.140625 -14.46875 C 10.140625 -13.789062 10.40625 -13.195312 10.9375 -12.6875 C 11.476562 -12.175781 12.640625 -11.59375 14.421875 -10.9375 C 16.210938 -10.289062 18.925781 -9.566406 22.5625 -8.765625 C 28.632812 -7.410156 32.847656 -5.851562 35.203125 -4.09375 C 37.566406 -2.332031 38.75 -0.0625 38.75 2.71875 C 38.75 5.445312 37.679688 7.957031 35.546875 10.25 C 33.421875 12.550781 30.523438 14.394531 26.859375 15.78125 C 23.203125 17.175781 19.128906 17.875 14.640625 17.875 C 8.960938 17.875 4.675781 17.078125 1.78125 15.484375 C -1.101562 13.898438 -2.546875 11.75 -2.546875 9.03125 C -2.546875 6.46875 -1.515625 4.179688 0.546875 2.171875 C 2.617188 0.160156 5.160156 -1.300781 8.171875 -2.21875 C 5.109375 -4.03125 3.578125 -6.410156 3.578125 -9.359375 C 3.578125 -11.296875 4.171875 -13.054688 5.359375 -14.640625 C 6.554688 -16.234375 8.203125 -17.539062 10.296875 -18.5625 C 7.460938 -20.894531 6.046875 -23.988281 6.046875 -27.84375 C 6.046875 -30.738281 6.828125 -33.390625 8.390625 -35.796875 C 9.953125 -38.210938 12.078125 -40.128906 14.765625 -41.546875 C 17.460938 -42.972656 20.488281 -43.6875 23.84375 -43.6875 C 28.550781 -43.6875 32.351562 -42.492188 35.25 -40.109375 C 36.675781 -41.921875 38.335938 -43.253906 40.234375 -44.109375 C 42.140625 -44.960938 44.140625 -45.390625 46.234375 -45.390625 Z M 21.71875 -16.953125 C 23.757812 -16.953125 25.472656 -18.3125 26.859375 -21.03125 C 28.253906 -23.757812 28.953125 -27.507812 28.953125 -32.28125 C 28.953125 -35.164062 28.523438 -37.457031 27.671875 -39.15625 C 26.816406 -40.863281 25.539062 -41.71875 23.84375 -41.71875 C 21.738281 -41.71875 20.003906 -40.351562 18.640625 -37.625 C 17.285156 -34.90625 16.609375 -31.132812 16.609375 -26.3125 C 16.609375 -23.414062 17.019531 -21.128906 17.84375 -19.453125 C 18.664062 -17.785156 19.957031 -16.953125 21.71875 -16.953125 Z M 18.8125 1.53125 C 15.007812 0.675781 11.945312 -0.285156 9.625 -1.359375 C 6.613281 0.910156 5.109375 3.632812 5.109375 6.8125 C 5.109375 9.363281 6.097656 11.421875 8.078125 12.984375 C 10.066406 14.546875 13.050781 15.328125 17.03125 15.328125 C 19.695312 15.328125 22.035156 14.957031 24.046875 14.21875 C 26.066406 13.476562 27.601562 12.507812 28.65625 11.3125 C 29.707031 10.125 30.234375 8.878906 30.234375 7.578125 C 30.234375 6.609375 29.960938 5.8125 29.421875 5.1875 C 28.878906 4.5625 27.800781 3.976562 26.1875 3.4375 C 24.570312 2.90625 22.113281 2.269531 18.8125 1.53125 Z M 18.8125 1.53125 "/></g></g></g><g fill="#ffffff" fill-opacity="1"><g transform="translate(664.7668, 427.868331)"><g><path d="M 36.875 1.109375 C 34.601562 1.109375 32.769531 0.398438 31.375 -1.015625 C 29.988281 -2.441406 29.296875 -4.546875 29.296875 -7.328125 C 29.296875 -8.796875 29.492188 -10.351562 29.890625 -12 L 34.234375 -30.65625 C 34.398438 -31.507812 34.484375 -32.25 34.484375 -32.875 C 34.484375 -34.125 34.1875 -35.054688 33.59375 -35.671875 C 33 -36.296875 32.191406 -36.609375 31.171875 -36.609375 C 29.640625 -36.609375 27.992188 -35.742188 26.234375 -34.015625 C 24.472656 -32.285156 22.8125 -29.929688 21.25 -26.953125 C 19.6875 -23.972656 18.421875 -20.722656 17.453125 -17.203125 L 14.390625 0 L 3.0625 0 L 11.5 -47.265625 C 11.832031 -49.140625 12 -50.726562 12 -52.03125 C 12 -53.445312 11.816406 -54.625 11.453125 -55.5625 C 11.085938 -56.5 10.476562 -57.304688 9.625 -57.984375 L 9.703125 -58.421875 L 25.296875 -63.4375 L 25.71875 -63.4375 L 19.421875 -28.015625 L 19.84375 -28.015625 C 21.71875 -32.953125 24.101562 -36.796875 27 -39.546875 C 29.894531 -42.304688 33.128906 -43.6875 36.703125 -43.6875 C 39.429688 -43.6875 41.601562 -42.875 43.21875 -41.25 C 44.832031 -39.632812 45.640625 -37.15625 45.640625 -33.8125 C 45.640625 -31.988281 45.382812 -29.914062 44.875 -27.59375 L 40.28125 -7.5 C 40.101562 -6.644531 40.015625 -5.960938 40.015625 -5.453125 C 40.015625 -4.316406 40.472656 -3.75 41.390625 -3.75 C 43.203125 -3.75 45.160156 -6.753906 47.265625 -12.765625 L 48.703125 -12.765625 C 47.347656 -7.546875 45.742188 -3.925781 43.890625 -1.90625 C 42.046875 0.101562 39.707031 1.109375 36.875 1.109375 Z M 36.875 1.109375 "/></g></g></g><g fill="#ffffff" fill-opacity="1"><g transform="translate(715.181543, 427.868331)"><g><path d="M 12.4375 1.109375 C 10.050781 1.109375 8.085938 0.34375 6.546875 -1.1875 C 5.015625 -2.71875 4.25 -4.988281 4.25 -8 C 4.25 -9.019531 4.394531 -10.300781 4.6875 -11.84375 L 8.859375 -33.890625 C 8.972656 -34.679688 9.03125 -35.191406 9.03125 -35.421875 C 9.03125 -37.804688 7.976562 -39.453125 5.875 -40.359375 L 5.953125 -40.796875 C 11.804688 -42.890625 17.515625 -46.519531 23.078125 -51.6875 L 23.5 -51.6875 L 21.71875 -42.578125 L 32.109375 -42.578125 L 30.65625 -39.515625 L 21.203125 -39.515625 L 15.328125 -8.09375 C 15.160156 -7.351562 15.078125 -6.671875 15.078125 -6.046875 C 15.078125 -4.515625 15.671875 -3.75 16.859375 -3.75 C 17.710938 -3.75 18.660156 -4.425781 19.703125 -5.78125 C 20.753906 -7.144531 21.992188 -9.472656 23.421875 -12.765625 L 24.859375 -12.765625 C 23.503906 -7.710938 21.800781 -4.132812 19.75 -2.03125 C 17.707031 0.0625 15.269531 1.109375 12.4375 1.109375 Z M 12.4375 1.109375 "/></g></g></g><g fill="#ffffff" fill-opacity="1"><g transform="translate(742.177238, 427.868331)"><g><path d="M 37.046875 1.109375 C 34.828125 1.109375 33.019531 0.398438 31.625 -1.015625 C 30.238281 -2.441406 29.546875 -4.546875 29.546875 -7.328125 C 29.546875 -8.859375 29.742188 -10.414062 30.140625 -12 L 34.40625 -30.65625 C 34.570312 -31.507812 34.65625 -32.273438 34.65625 -32.953125 C 34.65625 -35.390625 33.578125 -36.609375 31.421875 -36.609375 C 29.097656 -36.609375 26.628906 -34.75 24.015625 -31.03125 C 21.398438 -27.320312 19.300781 -22.738281 17.71875 -17.28125 L 14.390625 0 L 3.0625 0 L 8.34375 -27.5 C 8.738281 -29.4375 8.9375 -31.113281 8.9375 -32.53125 C 8.9375 -33.894531 8.738281 -35.015625 8.34375 -35.890625 C 7.945312 -36.773438 7.378906 -37.554688 6.640625 -38.234375 L 6.734375 -38.65625 L 22.390625 -43.6875 L 22.828125 -43.6875 L 19.921875 -28.53125 L 20.359375 -28.53125 C 22.109375 -33.1875 24.414062 -36.875 27.28125 -39.59375 C 30.15625 -42.320312 33.351562 -43.6875 36.875 -43.6875 C 39.59375 -43.6875 41.773438 -42.863281 43.421875 -41.21875 C 45.078125 -39.570312 45.90625 -37.070312 45.90625 -33.71875 C 45.90625 -31.957031 45.644531 -29.914062 45.125 -27.59375 L 40.453125 -7.5 C 40.273438 -6.757812 40.1875 -6.101562 40.1875 -5.53125 C 40.1875 -4.34375 40.671875 -3.75 41.640625 -3.75 C 42.546875 -3.75 43.484375 -4.5 44.453125 -6 C 45.421875 -7.507812 46.441406 -9.765625 47.515625 -12.765625 L 48.96875 -12.765625 C 47.601562 -7.546875 45.984375 -3.925781 44.109375 -1.90625 C 42.234375 0.101562 39.878906 1.109375 37.046875 1.109375 Z M 37.046875 1.109375 "/></g></g></g><g fill="#ffffff" fill-opacity="1"><g transform="translate(792.847459, 427.868331)"><g><path d="M 12.4375 1.109375 C 10.050781 1.109375 8.144531 0.398438 6.71875 -1.015625 C 5.300781 -2.441406 4.59375 -4.601562 4.59375 -7.5 C 4.59375 -8.519531 4.738281 -9.878906 5.03125 -11.578125 L 8.09375 -27.5 C 8.488281 -29.769531 8.6875 -31.390625 8.6875 -32.359375 C 8.6875 -33.722656 8.488281 -34.859375 8.09375 -35.765625 C 7.695312 -36.671875 7.097656 -37.492188 6.296875 -38.234375 L 6.390625 -38.65625 L 22.140625 -43.6875 L 22.5625 -43.6875 L 15.671875 -8.09375 C 15.441406 -6.726562 15.328125 -5.90625 15.328125 -5.625 C 15.328125 -4.375 15.8125 -3.75 16.78125 -3.75 C 18.539062 -3.75 20.46875 -6.753906 22.5625 -12.765625 L 24.015625 -12.765625 C 22.710938 -7.546875 21.132812 -3.925781 19.28125 -1.90625 C 17.4375 0.101562 15.15625 1.109375 12.4375 1.109375 Z M 17.953125 -48.703125 C 16.203125 -48.703125 14.757812 -49.285156 13.625 -50.453125 C 12.488281 -51.617188 11.921875 -53.050781 11.921875 -54.75 C 11.921875 -56.738281 12.65625 -58.441406 14.125 -59.859375 C 15.601562 -61.285156 17.335938 -62 19.328125 -62 C 21.023438 -62 22.441406 -61.398438 23.578125 -60.203125 C 24.710938 -59.015625 25.28125 -57.566406 25.28125 -55.859375 C 25.28125 -53.867188 24.539062 -52.175781 23.0625 -50.78125 C 21.59375 -49.394531 19.890625 -48.703125 17.953125 -48.703125 Z M 17.953125 -48.703125 "/></g></g></g><g fill="#ffffff" fill-opacity="1"><g transform="translate(818.310285, 427.868331)"><g><path d="M 37.046875 1.109375 C 34.828125 1.109375 33.019531 0.398438 31.625 -1.015625 C 30.238281 -2.441406 29.546875 -4.546875 29.546875 -7.328125 C 29.546875 -8.859375 29.742188 -10.414062 30.140625 -12 L 34.40625 -30.65625 C 34.570312 -31.507812 34.65625 -32.273438 34.65625 -32.953125 C 34.65625 -35.390625 33.578125 -36.609375 31.421875 -36.609375 C 29.097656 -36.609375 26.628906 -34.75 24.015625 -31.03125 C 21.398438 -27.320312 19.300781 -22.738281 17.71875 -17.28125 L 14.390625 0 L 3.0625 0 L 8.34375 -27.5 C 8.738281 -29.4375 8.9375 -31.113281 8.9375 -32.53125 C 8.9375 -33.894531 8.738281 -35.015625 8.34375 -35.890625 C 7.945312 -36.773438 7.378906 -37.554688 6.640625 -38.234375 L 6.734375 -38.65625 L 22.390625 -43.6875 L 22.828125 -43.6875 L 19.921875 -28.53125 L 20.359375 -28.53125 C 22.109375 -33.1875 24.414062 -36.875 27.28125 -39.59375 C 30.15625 -42.320312 33.351562 -43.6875 36.875 -43.6875 C 39.59375 -43.6875 41.773438 -42.863281 43.421875 -41.21875 C 45.078125 -39.570312 45.90625 -37.070312 45.90625 -33.71875 C 45.90625 -31.957031 45.644531 -29.914062 45.125 -27.59375 L 40.453125 -7.5 C 40.273438 -6.757812 40.1875 -6.101562 40.1875 -5.53125 C 40.1875 -4.34375 40.671875 -3.75 41.640625 -3.75 C 42.546875 -3.75 43.484375 -4.5 44.453125 -6 C 45.421875 -7.507812 46.441406 -9.765625 47.515625 -12.765625 L 48.96875 -12.765625 C 47.601562 -7.546875 45.984375 -3.925781 44.109375 -1.90625 C 42.234375 0.101562 39.878906 1.109375 37.046875 1.109375 Z M 37.046875 1.109375 "/></g></g></g><g fill="#ffffff" fill-opacity="1"><g transform="translate(868.980506, 427.868331)"><g><path d="M 46.234375 -45.390625 C 46.972656 -45.390625 47.539062 -45.359375 47.9375 -45.296875 L 46.578125 -37.8125 C 44.472656 -38.601562 42.34375 -39 40.1875 -39 C 38.9375 -39 37.800781 -38.859375 36.78125 -38.578125 C 38.601562 -36.472656 39.515625 -33.890625 39.515625 -30.828125 C 39.515625 -27.929688 38.734375 -25.273438 37.171875 -22.859375 C 35.609375 -20.453125 33.460938 -18.535156 30.734375 -17.109375 C 28.015625 -15.691406 24.976562 -14.984375 21.625 -14.984375 C 17.769531 -14.984375 14.453125 -15.835938 11.671875 -17.546875 C 10.648438 -16.578125 10.140625 -15.550781 10.140625 -14.46875 C 10.140625 -13.789062 10.40625 -13.195312 10.9375 -12.6875 C 11.476562 -12.175781 12.640625 -11.59375 14.421875 -10.9375 C 16.210938 -10.289062 18.925781 -9.566406 22.5625 -8.765625 C 28.632812 -7.410156 32.847656 -5.851562 35.203125 -4.09375 C 37.566406 -2.332031 38.75 -0.0625 38.75 2.71875 C 38.75 5.445312 37.679688 7.957031 35.546875 10.25 C 33.421875 12.550781 30.523438 14.394531 26.859375 15.78125 C 23.203125 17.175781 19.128906 17.875 14.640625 17.875 C 8.960938 17.875 4.675781 17.078125 1.78125 15.484375 C -1.101562 13.898438 -2.546875 11.75 -2.546875 9.03125 C -2.546875 6.46875 -1.515625 4.179688 0.546875 2.171875 C 2.617188 0.160156 5.160156 -1.300781 8.171875 -2.21875 C 5.109375 -4.03125 3.578125 -6.410156 3.578125 -9.359375 C 3.578125 -11.296875 4.171875 -13.054688 5.359375 -14.640625 C 6.554688 -16.234375 8.203125 -17.539062 10.296875 -18.5625 C 7.460938 -20.894531 6.046875 -23.988281 6.046875 -27.84375 C 6.046875 -30.738281 6.828125 -33.390625 8.390625 -35.796875 C 9.953125 -38.210938 12.078125 -40.128906 14.765625 -41.546875 C 17.460938 -42.972656 20.488281 -43.6875 23.84375 -43.6875 C 28.550781 -43.6875 32.351562 -42.492188 35.25 -40.109375 C 36.675781 -41.921875 38.335938 -43.253906 40.234375 -44.109375 C 42.140625 -44.960938 44.140625 -45.390625 46.234375 -45.390625 Z M 21.71875 -16.953125 C 23.757812 -16.953125 25.472656 -18.3125 26.859375 -21.03125 C 28.253906 -23.757812 28.953125 -27.507812 28.953125 -32.28125 C 28.953125 -35.164062 28.523438 -37.457031 27.671875 -39.15625 C 26.816406 -40.863281 25.539062 -41.71875 23.84375 -41.71875 C 21.738281 -41.71875 20.003906 -40.351562 18.640625 -37.625 C 17.285156 -34.90625 16.609375 -31.132812 16.609375 -26.3125 C 16.609375 -23.414062 17.019531 -21.128906 17.84375 -19.453125 C 18.664062 -17.785156 19.957031 -16.953125 21.71875 -16.953125 Z M 18.8125 1.53125 C 15.007812 0.675781 11.945312 -0.285156 9.625 -1.359375 C 6.613281 0.910156 5.109375 3.632812 5.109375 6.8125 C 5.109375 9.363281 6.097656 11.421875 8.078125 12.984375 C 10.066406 14.546875 13.050781 15.328125 17.03125 15.328125 C 19.695312 15.328125 22.035156 14.957031 24.046875 14.21875 C 26.066406 13.476562 27.601562 12.507812 28.65625 11.3125 C 29.707031 10.125 30.234375 8.878906 30.234375 7.578125 C 30.234375 6.609375 29.960938 5.8125 29.421875 5.1875 C 28.878906 4.5625 27.800781 3.976562 26.1875 3.4375 C 24.570312 2.90625 22.113281 2.269531 18.8125 1.53125 Z M 18.8125 1.53125 "/></g></g></g><g fill="#ffffff" fill-opacity="1"><g transform="translate(911.901156, 427.868331)"><g><path d="M 6.21875 0.84375 C 4.570312 0.84375 3.222656 0.320312 2.171875 -0.71875 C 1.117188 -1.769531 0.59375 -3.0625 0.59375 -4.59375 C 0.59375 -6.53125 1.257812 -8.164062 2.59375 -9.5 C 3.925781 -10.832031 5.53125 -11.5 7.40625 -11.5 C 9.050781 -11.5 10.398438 -10.972656 11.453125 -9.921875 C 12.503906 -8.867188 13.03125 -7.546875 13.03125 -5.953125 C 13.03125 -4.085938 12.363281 -2.488281 11.03125 -1.15625 C 9.695312 0.175781 8.09375 0.84375 6.21875 0.84375 Z M 6.21875 0.84375 "/></g></g></g></svg>