<svg xmlns="http://www.w3.org/2000/svg" xmlns:xlink="http://www.w3.org/1999/xlink" width="1366" zoomAndPan="magnify" viewBox="0 0 1024.5 576" height="768" preserveAspectRatio="xMidYMid meet" version="1.0"><defs><g/><clipPath id="3d325c03b6"><path d="M 0 0.140625 L 1024 0.140625 L 1024 575.859375 L 0 575.859375 Z M 0 0.140625 " clip-rule="nonzero"/></clipPath><clipPath id="db4717ab27"><path d="M 317.5625 71 L 438.765625 71 L 438.765625 134.867188 L 317.5625 134.867188 Z M 317.5625 71 " clip-rule="nonzero"/></clipPath><clipPath id="14ec207ddd"><path d="M 326 57.742188 L 430 57.742188 L 430 128 L 326 128 Z M 326 57.742188 " clip-rule="nonzero"/></clipPath></defs><g clip-path="url(#3d325c03b6)"><path fill="#ffffff" d="M 0 0.140625 L 1024.5 0.140625 L 1024.5 583.640625 L 0 583.640625 Z M 0 0.140625 " fill-opacity="1" fill-rule="nonzero"/><path fill="#ffffff" d="M 0 0.140625 L 1024.5 0.140625 L 1024.5 576.140625 L 0 576.140625 Z M 0 0.140625 " fill-opacity="1" fill-rule="nonzero"/><path fill="#000000" d="M 0 0.140625 L 1024.5 0.140625 L 1024.5 576.140625 L 0 576.140625 Z M 0 0.140625 " fill-opacity="1" fill-rule="nonzero"/></g><g clip-path="url(#db4717ab27)"><path fill="#ffffff" d="M 431.507812 71.070312 L 431.484375 71.269531 L 426.96875 120.363281 L 426.773438 122.597656 L 424.492188 122.308594 L 422.792969 122.085938 C 419.390625 121.65625 416.046875 121.429688 412.851562 121.429688 C 397.4375 121.429688 388.0625 126.539062 383.851562 129.582031 L 378.164062 130.003906 L 378.152344 130.003906 L 372.464844 129.582031 C 368.253906 126.539062 358.878906 121.429688 343.464844 121.429688 C 340.269531 121.429688 336.925781 121.65625 333.523438 122.085938 L 331.824219 122.308594 L 329.546875 122.597656 L 329.347656 120.363281 L 324.832031 71.269531 L 324.8125 71.070312 L 317.617188 71.070312 L 324.953125 126.667969 L 373.320312 134.871094 L 382.996094 134.871094 L 431.363281 126.667969 L 438.703125 71.070312 L 431.507812 71.070312 " fill-opacity="1" fill-rule="nonzero"/></g><g clip-path="url(#14ec207ddd)"><path fill="#ffffff" d="M 333.03125 68.113281 L 333.304688 70.929688 L 337.003906 109.125 L 338.277344 109.308594 C 338.511719 109.335938 356.367188 112.03125 368.417969 120.980469 C 362.632812 118.34375 354.441406 116.023438 343.5625 116.023438 C 340.71875 116.023438 337.722656 116.183594 334.519531 116.527344 L 330.351562 71.070312 L 330.101562 68.375 C 331.117188 68.265625 332.085938 68.191406 333.03125 68.113281 Z M 362.96875 67.996094 C 370.976562 72.148438 375.214844 76.910156 376.453125 78.453125 L 376.453125 123.992188 C 366.054688 111.609375 345.453125 107.269531 340.042969 106.320312 L 336.59375 70.605469 L 335.667969 61.089844 C 347.519531 61.648438 356.488281 64.625 362.96875 67.996094 Z M 379.867188 78.453125 C 381.101562 76.910156 385.339844 72.148438 393.347656 67.996094 C 399.832031 64.625 408.796875 61.648438 420.648438 61.089844 L 419.726562 70.605469 L 416.273438 106.320312 C 410.863281 107.269531 390.265625 111.609375 379.867188 123.992188 Z M 423.011719 70.929688 L 423.285156 68.113281 C 424.234375 68.191406 425.199219 68.265625 426.214844 68.375 L 425.96875 71.070312 L 421.796875 116.527344 C 418.59375 116.183594 415.597656 116.023438 412.753906 116.023438 C 401.875 116.023438 393.6875 118.34375 387.902344 120.980469 C 399.949219 112.03125 417.804688 109.335938 418.039062 109.308594 L 419.316406 109.125 Z M 331.535156 120.167969 L 333.242188 119.957031 C 344.925781 118.4375 354.066406 119.636719 360.902344 121.679688 C 361.574219 121.886719 362.222656 122.085938 362.851562 122.308594 C 363.476562 122.523438 364.078125 122.75 364.664062 122.972656 C 365.25 123.203125 365.804688 123.429688 366.347656 123.664062 C 369.042969 124.839844 371.203125 126.09375 372.847656 127.195312 C 373.179688 127.421875 373.488281 127.636719 373.769531 127.84375 L 382.546875 127.84375 C 382.828125 127.636719 383.140625 127.421875 383.472656 127.195312 C 385.113281 126.09375 387.273438 124.839844 389.96875 123.664062 C 390.511719 123.429688 391.070312 123.203125 391.652344 122.972656 C 392.238281 122.75 392.839844 122.523438 393.464844 122.308594 C 394.09375 122.085938 394.742188 121.886719 395.414062 121.679688 C 402.25 119.636719 411.394531 118.4375 423.074219 119.957031 L 424.78125 120.167969 L 429.289062 71.070312 L 429.796875 65.511719 L 428.203125 65.332031 C 426.59375 65.144531 425.058594 64.992188 423.597656 64.894531 L 424.289062 57.738281 L 422.425781 57.78125 C 406.1875 58.195312 394.933594 62.804688 387.648438 67.421875 C 382.863281 70.460938 379.796875 73.5 378.164062 75.367188 L 378.160156 75.359375 L 378.152344 75.367188 C 376.523438 73.5 373.453125 70.460938 368.671875 67.421875 C 361.382812 62.804688 350.132812 58.195312 333.890625 57.78125 L 332.027344 57.738281 L 332.71875 64.894531 C 331.257812 64.992188 329.722656 65.144531 328.113281 65.332031 L 326.519531 65.511719 L 327.027344 71.070312 L 331.535156 120.167969 " fill-opacity="1" fill-rule="nonzero"/></g><g fill="#ffffff" fill-opacity="1"><g transform="translate(463.502108, 117.413867)"><g><path d="M 4.296875 -0.3125 C 5.734375 -2.238281 6.453125 -4.816406 6.453125 -8.046875 L 6.453125 -34.96875 C 6.453125 -38.207031 5.734375 -40.785156 4.296875 -42.703125 L 4.296875 -43.015625 L 21.75 -43.015625 C 26.582031 -43.015625 30.628906 -42.039062 33.890625 -40.09375 C 37.148438 -38.144531 38.78125 -34.921875 38.78125 -30.421875 C 38.78125 -27.515625 38.019531 -25.085938 36.5 -23.140625 C 34.988281 -21.191406 33.015625 -19.765625 30.578125 -18.859375 C 28.140625 -17.960938 25.546875 -17.515625 22.796875 -17.515625 C 20.828125 -17.515625 18.960938 -17.863281 17.203125 -18.5625 L 17.203125 -19.546875 C 18.390625 -19.253906 19.617188 -19.109375 20.890625 -19.109375 C 23.679688 -19.109375 25.820312 -20.179688 27.3125 -22.328125 C 28.8125 -24.484375 29.5625 -27.179688 29.5625 -30.421875 C 29.5625 -33.492188 28.789062 -36.113281 27.25 -38.28125 C 25.71875 -40.457031 23.535156 -41.546875 20.703125 -41.546875 C 18.828125 -41.546875 17.046875 -41.238281 15.359375 -40.625 L 15.359375 -8.046875 C 15.359375 -4.816406 16.078125 -2.238281 17.515625 -0.3125 L 17.515625 0 L 4.296875 0 Z M 4.296875 -0.3125 "/></g></g></g><g fill="#ffffff" fill-opacity="1"><g transform="translate(502.156016, 117.413867)"><g><path d="M 3.5625 -0.3125 C 4.09375 -1.082031 4.507812 -2.070312 4.8125 -3.28125 C 5.125 -4.488281 5.28125 -5.8125 5.28125 -7.25 L 5.28125 -35.28125 C 5.28125 -36.957031 5.09375 -38.328125 4.71875 -39.390625 C 4.351562 -40.453125 3.804688 -41.332031 3.078125 -42.03125 L 3.078125 -42.34375 L 13.28125 -45.78125 L 13.578125 -45.78125 L 13.578125 -7.25 C 13.578125 -5.8125 13.726562 -4.488281 14.03125 -3.28125 C 14.34375 -2.070312 14.765625 -1.082031 15.296875 -0.3125 L 15.296875 0 L 3.5625 0 Z M 3.5625 -0.3125 "/></g></g></g><g fill="#ffffff" fill-opacity="1"><g transform="translate(519.485682, 117.413867)"><g><path d="M 30.546875 -10.390625 C 29.847656 -6.984375 28.289062 -4.265625 25.875 -2.234375 C 23.457031 -0.210938 20.503906 0.796875 17.015625 0.796875 C 14.273438 0.796875 11.796875 0.191406 9.578125 -1.015625 C 7.367188 -2.222656 5.617188 -3.992188 4.328125 -6.328125 C 3.035156 -8.660156 2.390625 -11.425781 2.390625 -14.625 C 2.390625 -17.945312 3.085938 -20.882812 4.484375 -23.4375 C 5.878906 -26 7.742188 -27.988281 10.078125 -29.40625 C 12.410156 -30.820312 14.953125 -31.53125 17.703125 -31.53125 C 20.242188 -31.53125 22.453125 -30.992188 24.328125 -29.921875 C 26.210938 -28.859375 27.644531 -27.425781 28.625 -25.625 C 29.613281 -23.820312 30.109375 -21.875 30.109375 -19.78125 L 9.09375 -19.78125 C 9.21875 -16.707031 9.832031 -14.078125 10.9375 -11.890625 C 12.039062 -9.703125 13.484375 -8.050781 15.265625 -6.9375 C 17.046875 -5.832031 19.003906 -5.28125 21.140625 -5.28125 C 23.148438 -5.28125 24.921875 -5.726562 26.453125 -6.625 C 27.992188 -7.53125 29.148438 -8.785156 29.921875 -10.390625 Z M 15.359375 -29.75 C 13.515625 -29.75 12.019531 -29.019531 10.875 -27.5625 C 9.726562 -26.101562 9.132812 -23.984375 9.09375 -21.203125 L 21.9375 -21.203125 C 21.6875 -23.828125 21 -25.90625 19.875 -27.4375 C 18.75 -28.976562 17.242188 -29.75 15.359375 -29.75 Z M 15.359375 -29.75 "/></g></g></g><g fill="#ffffff" fill-opacity="1"><g transform="translate(550.58085, 117.413867)"><g><path d="M 18.0625 0.796875 C 12.945312 0.796875 8.484375 -0.429688 4.671875 -2.890625 L 4.671875 -35.28125 C 4.671875 -36.957031 4.484375 -38.328125 4.109375 -39.390625 C 3.742188 -40.453125 3.191406 -41.332031 2.453125 -42.03125 L 2.453125 -42.34375 L 12.65625 -45.78125 L 12.96875 -45.78125 L 12.96875 -26 L 13.28125 -26 C 14.257812 -27.71875 15.546875 -29.066406 17.140625 -30.046875 C 18.742188 -31.035156 20.585938 -31.53125 22.671875 -31.53125 C 25.085938 -31.53125 27.21875 -30.90625 29.0625 -29.65625 C 30.90625 -28.40625 32.328125 -26.617188 33.328125 -24.296875 C 34.335938 -21.984375 34.84375 -19.3125 34.84375 -16.28125 C 34.84375 -13.25 34.144531 -10.429688 32.75 -7.828125 C 31.363281 -5.234375 29.398438 -3.144531 26.859375 -1.5625 C 24.316406 0.0078125 21.382812 0.796875 18.0625 0.796875 Z M 18.375 -0.609375 C 20.789062 -0.609375 22.65625 -1.867188 23.96875 -4.390625 C 25.28125 -6.910156 25.9375 -10.320312 25.9375 -14.625 C 25.9375 -18.601562 25.3125 -21.695312 24.0625 -23.90625 C 22.8125 -26.113281 21.078125 -27.21875 18.859375 -27.21875 C 17.265625 -27.21875 15.9375 -26.734375 14.875 -25.765625 C 13.8125 -24.804688 13.175781 -23.570312 12.96875 -22.0625 L 12.96875 -4.984375 C 13.175781 -3.796875 13.75 -2.769531 14.6875 -1.90625 C 15.625 -1.039062 16.851562 -0.609375 18.375 -0.609375 Z M 18.375 -0.609375 "/></g></g></g><g fill="#ffffff" fill-opacity="1"><g transform="translate(586.592273, 117.413867)"><g><path d="M 4.296875 -0.3125 C 5.734375 -2.238281 6.453125 -4.816406 6.453125 -8.046875 L 6.453125 -34.96875 C 6.453125 -38.207031 5.734375 -40.785156 4.296875 -42.703125 L 4.296875 -43.015625 L 22.546875 -43.015625 C 26.890625 -43.015625 30.492188 -42.191406 33.359375 -40.546875 C 36.234375 -38.910156 37.671875 -36.332031 37.671875 -32.8125 C 37.671875 -30.113281 36.726562 -27.941406 34.84375 -26.296875 C 32.957031 -24.660156 30.703125 -23.640625 28.078125 -23.234375 L 28.078125 -22.984375 C 31.191406 -22.617188 33.84375 -21.460938 36.03125 -19.515625 C 38.226562 -17.566406 39.328125 -14.992188 39.328125 -11.796875 C 39.328125 -7.703125 37.707031 -4.710938 34.46875 -2.828125 C 31.238281 -0.941406 27.265625 0 22.546875 0 L 4.296875 0 Z M 19.84375 -23.78125 C 22.550781 -23.78125 24.660156 -24.597656 26.171875 -26.234375 C 27.691406 -27.878906 28.453125 -30.03125 28.453125 -32.6875 C 28.453125 -35.269531 27.679688 -37.390625 26.140625 -39.046875 C 24.609375 -40.710938 22.53125 -41.546875 19.90625 -41.546875 C 18.394531 -41.546875 16.878906 -41.257812 15.359375 -40.6875 L 15.359375 -23.78125 Z M 20.34375 -1.46875 C 23.25 -1.46875 25.582031 -2.398438 27.34375 -4.265625 C 29.101562 -6.128906 29.984375 -8.640625 29.984375 -11.796875 C 29.984375 -15.078125 29.082031 -17.640625 27.28125 -19.484375 C 25.476562 -21.328125 23.0625 -22.25 20.03125 -22.25 L 15.359375 -22.25 L 15.359375 -2.578125 C 16.710938 -1.835938 18.375 -1.46875 20.34375 -1.46875 Z M 20.34375 -1.46875 "/></g></g></g><g fill="#ffffff" fill-opacity="1"><g transform="translate(627.274138, 117.413867)"><g><path d="M 17.890625 0.796875 C 14.847656 0.796875 12.140625 0.101562 9.765625 -1.28125 C 7.390625 -2.675781 5.535156 -4.59375 4.203125 -7.03125 C 2.878906 -9.46875 2.21875 -12.242188 2.21875 -15.359375 C 2.21875 -18.472656 2.878906 -21.25 4.203125 -23.6875 C 5.535156 -26.125 7.390625 -28.039062 9.765625 -29.4375 C 12.140625 -30.832031 14.847656 -31.53125 17.890625 -31.53125 C 20.878906 -31.53125 23.5625 -30.832031 25.9375 -29.4375 C 28.3125 -28.039062 30.160156 -26.125 31.484375 -23.6875 C 32.816406 -21.25 33.484375 -18.472656 33.484375 -15.359375 C 33.484375 -12.242188 32.816406 -9.46875 31.484375 -7.03125 C 30.160156 -4.59375 28.3125 -2.675781 25.9375 -1.28125 C 23.5625 0.101562 20.878906 0.796875 17.890625 0.796875 Z M 17.890625 -0.609375 C 20.140625 -0.609375 21.816406 -1.953125 22.921875 -4.640625 C 24.023438 -7.328125 24.578125 -10.898438 24.578125 -15.359375 C 24.578125 -19.828125 24.023438 -23.398438 22.921875 -26.078125 C 21.816406 -28.765625 20.140625 -30.109375 17.890625 -30.109375 C 15.628906 -30.109375 13.9375 -28.765625 12.8125 -26.078125 C 11.6875 -23.398438 11.125 -19.828125 11.125 -15.359375 C 11.125 -10.898438 11.6875 -7.328125 12.8125 -4.640625 C 13.9375 -1.953125 15.628906 -0.609375 17.890625 -0.609375 Z M 17.890625 -0.609375 "/></g></g></g><g fill="#ffffff" fill-opacity="1"><g transform="translate(661.749231, 117.413867)"><g><path d="M 17.890625 0.796875 C 14.847656 0.796875 12.140625 0.101562 9.765625 -1.28125 C 7.390625 -2.675781 5.535156 -4.59375 4.203125 -7.03125 C 2.878906 -9.46875 2.21875 -12.242188 2.21875 -15.359375 C 2.21875 -18.472656 2.878906 -21.25 4.203125 -23.6875 C 5.535156 -26.125 7.390625 -28.039062 9.765625 -29.4375 C 12.140625 -30.832031 14.847656 -31.53125 17.890625 -31.53125 C 20.878906 -31.53125 23.5625 -30.832031 25.9375 -29.4375 C 28.3125 -28.039062 30.160156 -26.125 31.484375 -23.6875 C 32.816406 -21.25 33.484375 -18.472656 33.484375 -15.359375 C 33.484375 -12.242188 32.816406 -9.46875 31.484375 -7.03125 C 30.160156 -4.59375 28.3125 -2.675781 25.9375 -1.28125 C 23.5625 0.101562 20.878906 0.796875 17.890625 0.796875 Z M 17.890625 -0.609375 C 20.140625 -0.609375 21.816406 -1.953125 22.921875 -4.640625 C 24.023438 -7.328125 24.578125 -10.898438 24.578125 -15.359375 C 24.578125 -19.828125 24.023438 -23.398438 22.921875 -26.078125 C 21.816406 -28.765625 20.140625 -30.109375 17.890625 -30.109375 C 15.628906 -30.109375 13.9375 -28.765625 12.8125 -26.078125 C 11.6875 -23.398438 11.125 -19.828125 11.125 -15.359375 C 11.125 -10.898438 11.6875 -7.328125 12.8125 -4.640625 C 13.9375 -1.953125 15.628906 -0.609375 17.890625 -0.609375 Z M 17.890625 -0.609375 "/></g></g></g><g fill="#ffffff" fill-opacity="1"><g transform="translate(696.224325, 117.413867)"><g><path d="M 3.5625 -0.3125 C 4.09375 -1.082031 4.507812 -2.070312 4.8125 -3.28125 C 5.125 -4.488281 5.28125 -5.8125 5.28125 -7.25 L 5.28125 -35.28125 C 5.28125 -36.957031 5.09375 -38.328125 4.71875 -39.390625 C 4.351562 -40.453125 3.804688 -41.332031 3.078125 -42.03125 L 3.078125 -42.34375 L 13.28125 -45.78125 L 13.578125 -45.78125 L 13.578125 -7.25 C 13.578125 -5.8125 13.726562 -4.488281 14.03125 -3.28125 C 14.34375 -2.070312 14.765625 -1.082031 15.296875 -0.3125 L 15.296875 0 L 3.5625 0 Z M 30.78125 0.484375 C 28.863281 0.484375 27.28125 0.140625 26.03125 -0.546875 C 24.78125 -1.242188 23.582031 -2.394531 22.4375 -4 L 14.8125 -14.375 L 14.8125 -14.6875 L 22.375 -23.359375 C 23.96875 -25.203125 24.765625 -26.773438 24.765625 -28.078125 C 24.765625 -29.023438 24.414062 -29.804688 23.71875 -30.421875 L 23.71875 -30.71875 L 33.125 -30.71875 L 33.125 -30.421875 C 31.40625 -29.597656 29.921875 -28.710938 28.671875 -27.765625 C 27.421875 -26.828125 26.078125 -25.582031 24.640625 -24.03125 L 20.953125 -20.03125 L 32.625 -4.296875 C 34.019531 -2.410156 35.066406 -1.347656 35.765625 -1.109375 L 35.765625 -0.671875 C 35.109375 -0.347656 34.328125 -0.078125 33.421875 0.140625 C 32.523438 0.367188 31.644531 0.484375 30.78125 0.484375 Z M 30.78125 0.484375 "/></g></g></g></svg>