<svg xmlns="http://www.w3.org/2000/svg" xmlns:xlink="http://www.w3.org/1999/xlink" width="1366" zoomAndPan="magnify" viewBox="0 0 1024.5 576" height="768" preserveAspectRatio="xMidYMid meet" version="1.0"><defs><g/><clipPath id="61302392be"><path d="M 0 0.140625 L 1024 0.140625 L 1024 575.859375 L 0 575.859375 Z M 0 0.140625 " clip-rule="nonzero"/></clipPath><clipPath id="41c9beb9b0"><path d="M 426.886719 150 L 473.046875 150 L 473.046875 174.875 L 426.886719 174.875 Z M 426.886719 150 " clip-rule="nonzero"/></clipPath><clipPath id="13cf745901"><path d="M 430 145.5 L 470 145.5 L 470 173 L 430 173 Z M 430 145.5 " clip-rule="nonzero"/></clipPath><clipPath id="eb868a5dac"><path d="M 394.617188 242 L 589 242 L 589 471.667969 L 394.617188 471.667969 Z M 394.617188 242 " clip-rule="nonzero"/></clipPath></defs><g clip-path="url(#61302392be)"><path fill="#ffffff" d="M 0 0.140625 L 1024.5 0.140625 L 1024.5 583.640625 L 0 583.640625 Z M 0 0.140625 " fill-opacity="1" fill-rule="nonzero"/><path fill="#ffffff" d="M 0 0.140625 L 1024.5 0.140625 L 1024.5 576.140625 L 0 576.140625 Z M 0 0.140625 " fill-opacity="1" fill-rule="nonzero"/><path fill="#374151" d="M 0 0.140625 L 1024.5 0.140625 L 1024.5 576.140625 L 0 576.140625 Z M 0 0.140625 " fill-opacity="1" fill-rule="nonzero"/></g><g clip-path="url(#41c9beb9b0)"><path fill="#ffffff" d="M 470.285156 150.574219 L 470.273438 150.652344 L 468.554688 169.347656 L 468.480469 170.199219 L 467.613281 170.089844 L 466.964844 170.007812 C 465.667969 169.84375 464.394531 169.753906 463.179688 169.753906 C 457.308594 169.753906 453.738281 171.699219 452.132812 172.859375 L 449.96875 173.023438 L 449.960938 173.023438 L 447.796875 172.859375 C 446.191406 171.699219 442.621094 169.753906 436.75 169.753906 C 435.535156 169.753906 434.261719 169.84375 432.964844 170.007812 L 432.316406 170.089844 L 431.449219 170.199219 L 431.375 169.347656 L 429.65625 150.652344 L 429.648438 150.574219 L 426.90625 150.574219 L 429.699219 171.75 L 448.121094 174.875 L 451.808594 174.875 L 470.230469 171.75 L 473.023438 150.574219 L 470.285156 150.574219 " fill-opacity="1" fill-rule="nonzero"/></g><g clip-path="url(#13cf745901)"><path fill="#ffffff" d="M 432.777344 149.449219 L 432.882812 150.523438 L 434.289062 165.070312 L 434.777344 165.140625 C 434.863281 165.148438 441.664062 166.175781 446.253906 169.585938 C 444.050781 168.578125 440.933594 167.695312 436.789062 167.695312 C 435.707031 167.695312 434.5625 167.757812 433.34375 167.890625 L 431.757812 150.574219 L 431.664062 149.550781 C 432.050781 149.507812 432.417969 149.476562 432.777344 149.449219 Z M 444.179688 149.40625 C 447.230469 150.984375 448.84375 152.800781 449.316406 153.386719 L 449.316406 170.730469 C 445.355469 166.015625 437.507812 164.363281 435.449219 164 L 434.132812 150.398438 L 433.78125 146.773438 C 438.296875 146.988281 441.710938 148.121094 444.179688 149.40625 Z M 450.617188 153.386719 C 451.085938 152.800781 452.699219 150.984375 455.75 149.40625 C 458.21875 148.121094 461.632812 146.988281 466.148438 146.773438 L 465.796875 150.398438 L 464.480469 164 C 462.421875 164.363281 454.574219 166.015625 450.617188 170.730469 Z M 467.046875 150.523438 L 467.152344 149.449219 C 467.511719 149.476562 467.882812 149.507812 468.269531 149.550781 L 468.175781 150.574219 L 466.585938 167.890625 C 465.367188 167.757812 464.222656 167.695312 463.140625 167.695312 C 459 167.695312 455.878906 168.578125 453.675781 169.585938 C 458.265625 166.175781 465.066406 165.148438 465.152344 165.140625 L 465.640625 165.070312 Z M 432.207031 169.277344 L 432.859375 169.195312 C 437.308594 168.617188 440.789062 169.074219 443.394531 169.851562 C 443.648438 169.929688 443.894531 170.007812 444.132812 170.089844 C 444.375 170.171875 444.601562 170.257812 444.824219 170.34375 C 445.046875 170.429688 445.261719 170.515625 445.46875 170.605469 C 446.492188 171.054688 447.316406 171.53125 447.941406 171.953125 C 448.066406 172.039062 448.1875 172.121094 448.292969 172.199219 L 451.636719 172.199219 C 451.742188 172.121094 451.863281 172.039062 451.988281 171.953125 C 452.613281 171.53125 453.4375 171.054688 454.460938 170.605469 C 454.671875 170.515625 454.882812 170.429688 455.105469 170.34375 C 455.328125 170.257812 455.554688 170.171875 455.796875 170.089844 C 456.035156 170.007812 456.28125 169.929688 456.539062 169.851562 C 459.140625 169.074219 462.621094 168.617188 467.074219 169.195312 L 467.722656 169.277344 L 469.441406 150.574219 L 469.632812 148.457031 L 469.027344 148.390625 C 468.414062 148.320312 467.828125 148.261719 467.269531 148.222656 L 467.535156 145.496094 L 466.824219 145.515625 C 460.640625 145.671875 456.355469 147.425781 453.578125 149.1875 C 451.757812 150.34375 450.589844 151.5 449.96875 152.210938 L 449.960938 152.210938 C 449.34375 151.5 448.171875 150.34375 446.351562 149.1875 C 443.574219 147.425781 439.289062 145.671875 433.105469 145.515625 L 432.394531 145.496094 L 432.660156 148.222656 C 432.101562 148.261719 431.515625 148.320312 430.90625 148.390625 L 430.296875 148.457031 L 430.492188 150.574219 L 432.207031 169.277344 " fill-opacity="1" fill-rule="nonzero"/></g><g fill="#ffffff" fill-opacity="1"><g transform="translate(482.46965, 167.68624)"><g><path d="M 1.640625 -0.109375 C 2.179688 -0.847656 2.453125 -1.832031 2.453125 -3.0625 L 2.453125 -13.3125 C 2.453125 -14.550781 2.179688 -15.535156 1.640625 -16.265625 L 1.640625 -16.390625 L 8.28125 -16.390625 C 10.125 -16.390625 11.664062 -16.015625 12.90625 -15.265625 C 14.144531 -14.523438 14.765625 -13.300781 14.765625 -11.59375 C 14.765625 -10.476562 14.472656 -9.550781 13.890625 -8.8125 C 13.316406 -8.070312 12.566406 -7.53125 11.640625 -7.1875 C 10.710938 -6.84375 9.726562 -6.671875 8.6875 -6.671875 C 7.9375 -6.671875 7.222656 -6.800781 6.546875 -7.0625 L 6.546875 -7.4375 C 7.003906 -7.332031 7.472656 -7.28125 7.953125 -7.28125 C 9.015625 -7.28125 9.832031 -7.6875 10.40625 -8.5 C 10.976562 -9.320312 11.265625 -10.351562 11.265625 -11.59375 C 11.265625 -12.757812 10.96875 -13.753906 10.375 -14.578125 C 9.789062 -15.410156 8.960938 -15.828125 7.890625 -15.828125 C 7.171875 -15.828125 6.492188 -15.707031 5.859375 -15.46875 L 5.859375 -3.0625 C 5.859375 -1.832031 6.128906 -0.847656 6.671875 -0.109375 L 6.671875 0 L 1.640625 0 Z M 1.640625 -0.109375 "/></g></g></g><g fill="#ffffff" fill-opacity="1"><g transform="translate(497.183104, 167.68624)"><g><path d="M 1.359375 -0.109375 C 1.554688 -0.410156 1.710938 -0.789062 1.828125 -1.25 C 1.953125 -1.707031 2.015625 -2.210938 2.015625 -2.765625 L 2.015625 -13.4375 C 2.015625 -14.070312 1.941406 -14.59375 1.796875 -15 C 1.660156 -15.40625 1.453125 -15.742188 1.171875 -16.015625 L 1.171875 -16.125 L 5.0625 -17.4375 L 5.171875 -17.4375 L 5.171875 -2.765625 C 5.171875 -2.210938 5.226562 -1.707031 5.34375 -1.25 C 5.46875 -0.789062 5.628906 -0.410156 5.828125 -0.109375 L 5.828125 0 L 1.359375 0 Z M 1.359375 -0.109375 "/></g></g></g><g fill="#ffffff" fill-opacity="1"><g transform="translate(503.779436, 167.68624)"><g><path d="M 11.640625 -3.953125 C 11.367188 -2.660156 10.769531 -1.628906 9.84375 -0.859375 C 8.925781 -0.0859375 7.804688 0.296875 6.484375 0.296875 C 5.441406 0.296875 4.5 0.0664062 3.65625 -0.390625 C 2.8125 -0.847656 2.140625 -1.519531 1.640625 -2.40625 C 1.148438 -3.300781 0.90625 -4.359375 0.90625 -5.578125 C 0.90625 -6.835938 1.171875 -7.953125 1.703125 -8.921875 C 2.234375 -9.898438 2.941406 -10.65625 3.828125 -11.1875 C 4.722656 -11.726562 5.691406 -12 6.734375 -12 C 7.703125 -12 8.546875 -11.796875 9.265625 -11.390625 C 9.984375 -10.992188 10.53125 -10.453125 10.90625 -9.765625 C 11.28125 -9.078125 11.46875 -8.332031 11.46875 -7.53125 L 3.46875 -7.53125 C 3.507812 -6.363281 3.738281 -5.363281 4.15625 -4.53125 C 4.582031 -3.695312 5.132812 -3.066406 5.8125 -2.640625 C 6.488281 -2.222656 7.234375 -2.015625 8.046875 -2.015625 C 8.816406 -2.015625 9.492188 -2.1875 10.078125 -2.53125 C 10.660156 -2.875 11.101562 -3.347656 11.40625 -3.953125 Z M 5.859375 -11.328125 C 5.148438 -11.328125 4.578125 -11.050781 4.140625 -10.5 C 3.703125 -9.945312 3.476562 -9.140625 3.46875 -8.078125 L 8.359375 -8.078125 C 8.265625 -9.078125 8 -9.867188 7.5625 -10.453125 C 7.132812 -11.035156 6.566406 -11.328125 5.859375 -11.328125 Z M 5.859375 -11.328125 "/></g></g></g><g fill="#ffffff" fill-opacity="1"><g transform="translate(515.615647, 167.68624)"><g><path d="M 6.875 0.296875 C 4.925781 0.296875 3.226562 -0.164062 1.78125 -1.09375 L 1.78125 -13.4375 C 1.78125 -14.070312 1.707031 -14.59375 1.5625 -15 C 1.425781 -15.40625 1.21875 -15.742188 0.9375 -16.015625 L 0.9375 -16.125 L 4.828125 -17.4375 L 4.9375 -17.4375 L 4.9375 -9.90625 L 5.0625 -9.90625 C 5.4375 -10.5625 5.925781 -11.070312 6.53125 -11.4375 C 7.132812 -11.8125 7.835938 -12 8.640625 -12 C 9.554688 -12 10.363281 -11.757812 11.0625 -11.28125 C 11.769531 -10.8125 12.3125 -10.132812 12.6875 -9.25 C 13.070312 -8.375 13.265625 -7.359375 13.265625 -6.203125 C 13.265625 -5.046875 13 -3.972656 12.46875 -2.984375 C 11.945312 -1.992188 11.203125 -1.195312 10.234375 -0.59375 C 9.265625 0 8.144531 0.296875 6.875 0.296875 Z M 7 -0.234375 C 7.914062 -0.234375 8.625 -0.710938 9.125 -1.671875 C 9.625 -2.628906 9.875 -3.929688 9.875 -5.578125 C 9.875 -7.085938 9.632812 -8.265625 9.15625 -9.109375 C 8.6875 -9.953125 8.03125 -10.375 7.1875 -10.375 C 6.570312 -10.375 6.0625 -10.1875 5.65625 -9.8125 C 5.257812 -9.445312 5.019531 -8.976562 4.9375 -8.40625 L 4.9375 -1.890625 C 5.019531 -1.441406 5.238281 -1.050781 5.59375 -0.71875 C 5.945312 -0.394531 6.414062 -0.234375 7 -0.234375 Z M 7 -0.234375 "/></g></g></g><g fill="#ffffff" fill-opacity="1"><g transform="translate(529.323244, 167.68624)"><g><path d="M 1.640625 -0.109375 C 2.179688 -0.847656 2.453125 -1.832031 2.453125 -3.0625 L 2.453125 -13.3125 C 2.453125 -14.550781 2.179688 -15.535156 1.640625 -16.265625 L 1.640625 -16.390625 L 8.59375 -16.390625 C 10.25 -16.390625 11.617188 -16.078125 12.703125 -15.453125 C 13.796875 -14.828125 14.34375 -13.84375 14.34375 -12.5 C 14.34375 -11.46875 13.984375 -10.640625 13.265625 -10.015625 C 12.546875 -9.390625 11.691406 -9 10.703125 -8.84375 L 10.703125 -8.75 C 11.878906 -8.613281 12.882812 -8.171875 13.71875 -7.421875 C 14.5625 -6.679688 14.984375 -5.707031 14.984375 -4.5 C 14.984375 -2.9375 14.363281 -1.796875 13.125 -1.078125 C 11.894531 -0.359375 10.382812 0 8.59375 0 L 1.640625 0 Z M 7.5625 -9.0625 C 8.59375 -9.0625 9.394531 -9.375 9.96875 -10 C 10.550781 -10.625 10.84375 -11.441406 10.84375 -12.453125 C 10.84375 -13.429688 10.546875 -14.238281 9.953125 -14.875 C 9.367188 -15.507812 8.578125 -15.828125 7.578125 -15.828125 C 7.003906 -15.828125 6.429688 -15.71875 5.859375 -15.5 L 5.859375 -9.0625 Z M 7.75 -0.5625 C 8.851562 -0.5625 9.738281 -0.914062 10.40625 -1.625 C 11.082031 -2.332031 11.421875 -3.289062 11.421875 -4.5 C 11.421875 -5.738281 11.078125 -6.707031 10.390625 -7.40625 C 9.703125 -8.113281 8.78125 -8.46875 7.625 -8.46875 L 5.859375 -8.46875 L 5.859375 -0.984375 C 6.367188 -0.703125 7 -0.5625 7.75 -0.5625 Z M 7.75 -0.5625 "/></g></g></g><g fill="#ffffff" fill-opacity="1"><g transform="translate(544.808655, 167.68624)"><g><path d="M 6.8125 0.296875 C 5.65625 0.296875 4.625 0.0351562 3.71875 -0.484375 C 2.8125 -1.015625 2.101562 -1.742188 1.59375 -2.671875 C 1.09375 -3.609375 0.84375 -4.671875 0.84375 -5.859375 C 0.84375 -7.035156 1.09375 -8.085938 1.59375 -9.015625 C 2.101562 -9.953125 2.8125 -10.679688 3.71875 -11.203125 C 4.625 -11.734375 5.65625 -12 6.8125 -12 C 7.945312 -12 8.96875 -11.734375 9.875 -11.203125 C 10.78125 -10.679688 11.484375 -9.953125 11.984375 -9.015625 C 12.492188 -8.085938 12.75 -7.035156 12.75 -5.859375 C 12.75 -4.671875 12.492188 -3.609375 11.984375 -2.671875 C 11.484375 -1.742188 10.78125 -1.015625 9.875 -0.484375 C 8.96875 0.0351562 7.945312 0.296875 6.8125 0.296875 Z M 6.8125 -0.234375 C 7.664062 -0.234375 8.300781 -0.742188 8.71875 -1.765625 C 9.144531 -2.785156 9.359375 -4.148438 9.359375 -5.859375 C 9.359375 -7.554688 9.144531 -8.914062 8.71875 -9.9375 C 8.300781 -10.957031 7.664062 -11.46875 6.8125 -11.46875 C 5.957031 -11.46875 5.3125 -10.957031 4.875 -9.9375 C 4.445312 -8.914062 4.234375 -7.554688 4.234375 -5.859375 C 4.234375 -4.148438 4.445312 -2.785156 4.875 -1.765625 C 5.3125 -0.742188 5.957031 -0.234375 6.8125 -0.234375 Z M 6.8125 -0.234375 "/></g></g></g><g fill="#ffffff" fill-opacity="1"><g transform="translate(557.931429, 167.68624)"><g><path d="M 6.8125 0.296875 C 5.65625 0.296875 4.625 0.0351562 3.71875 -0.484375 C 2.8125 -1.015625 2.101562 -1.742188 1.59375 -2.671875 C 1.09375 -3.609375 0.84375 -4.671875 0.84375 -5.859375 C 0.84375 -7.035156 1.09375 -8.085938 1.59375 -9.015625 C 2.101562 -9.953125 2.8125 -10.679688 3.71875 -11.203125 C 4.625 -11.734375 5.65625 -12 6.8125 -12 C 7.945312 -12 8.96875 -11.734375 9.875 -11.203125 C 10.78125 -10.679688 11.484375 -9.953125 11.984375 -9.015625 C 12.492188 -8.085938 12.75 -7.035156 12.75 -5.859375 C 12.75 -4.671875 12.492188 -3.609375 11.984375 -2.671875 C 11.484375 -1.742188 10.78125 -1.015625 9.875 -0.484375 C 8.96875 0.0351562 7.945312 0.296875 6.8125 0.296875 Z M 6.8125 -0.234375 C 7.664062 -0.234375 8.300781 -0.742188 8.71875 -1.765625 C 9.144531 -2.785156 9.359375 -4.148438 9.359375 -5.859375 C 9.359375 -7.554688 9.144531 -8.914062 8.71875 -9.9375 C 8.300781 -10.957031 7.664062 -11.46875 6.8125 -11.46875 C 5.957031 -11.46875 5.3125 -10.957031 4.875 -9.9375 C 4.445312 -8.914062 4.234375 -7.554688 4.234375 -5.859375 C 4.234375 -4.148438 4.445312 -2.785156 4.875 -1.765625 C 5.3125 -0.742188 5.957031 -0.234375 6.8125 -0.234375 Z M 6.8125 -0.234375 "/></g></g></g><g fill="#ffffff" fill-opacity="1"><g transform="translate(571.054204, 167.68624)"><g><path d="M 1.359375 -0.109375 C 1.554688 -0.410156 1.710938 -0.789062 1.828125 -1.25 C 1.953125 -1.707031 2.015625 -2.210938 2.015625 -2.765625 L 2.015625 -13.4375 C 2.015625 -14.070312 1.941406 -14.59375 1.796875 -15 C 1.660156 -15.40625 1.453125 -15.742188 1.171875 -16.015625 L 1.171875 -16.125 L 5.0625 -17.4375 L 5.171875 -17.4375 L 5.171875 -2.765625 C 5.171875 -2.210938 5.226562 -1.707031 5.34375 -1.25 C 5.46875 -0.789062 5.628906 -0.410156 5.828125 -0.109375 L 5.828125 0 L 1.359375 0 Z M 11.71875 0.1875 C 10.988281 0.1875 10.382812 0.0546875 9.90625 -0.203125 C 9.4375 -0.472656 8.984375 -0.910156 8.546875 -1.515625 L 5.640625 -5.484375 L 5.640625 -5.59375 L 8.515625 -8.890625 C 9.128906 -9.597656 9.4375 -10.203125 9.4375 -10.703125 C 9.4375 -11.054688 9.300781 -11.351562 9.03125 -11.59375 L 9.03125 -11.703125 L 12.609375 -11.703125 L 12.609375 -11.59375 C 11.960938 -11.28125 11.398438 -10.941406 10.921875 -10.578125 C 10.441406 -10.222656 9.929688 -9.75 9.390625 -9.15625 L 7.984375 -7.625 L 12.421875 -1.640625 C 12.953125 -0.921875 13.351562 -0.515625 13.625 -0.421875 L 13.625 -0.25 C 13.375 -0.125 13.078125 -0.0195312 12.734375 0.0625 C 12.390625 0.144531 12.050781 0.1875 11.71875 0.1875 Z M 11.71875 0.1875 "/></g></g></g><g clip-path="url(#eb868a5dac)"><path fill="#dadada" d="M 582.566406 466.375 L 556.421875 466.394531 C 556.296875 466.394531 556.179688 466.34375 556.09375 466.253906 C 556.003906 466.167969 555.960938 466.046875 555.960938 465.921875 C 556.0625 462.453125 556.359375 458.949219 556.652344 455.46875 C 556.9375 452.0625 557.222656 448.6875 557.316406 445.457031 C 557.367188 443.660156 557.359375 441.90625 557.261719 440.207031 L 557.914062 440.59375 C 557.792969 440.652344 557.738281 440.675781 557.609375 440.738281 C 557.371094 440.851562 557.519531 440.777344 557.277344 440.894531 C 554.210938 442.339844 549.359375 444.703125 544.808594 448.988281 C 542.011719 451.625 539.15625 454.632812 536.375 457.5625 C 533.757812 460.324219 531.207031 463.011719 528.847656 465.234375 C 525.949219 467.964844 523.269531 470.070312 521.066406 470.667969 C 518.199219 471.453125 516.628906 470.84375 516.324219 469.738281 C 516.191406 469.253906 516.363281 468.714844 516.824219 468.472656 L 517.242188 469.289062 C 514.6875 470.546875 513.648438 470.625 509.335938 470.195312 C 508.402344 470.105469 507.425781 469.648438 507.53125 468.601562 C 507.597656 467.921875 508.144531 467.199219 509.0625 466.457031 L 509.640625 467.167969 C 507.511719 468.890625 505.5 467.359375 505.492188 467.355469 C 504.417969 466.539062 504.734375 465.871094 505.121094 465.132812 C 505.257812 464.878906 505.402344 464.605469 505.53125 464.261719 L 506.074219 464.867188 C 505.582031 464.992188 505.113281 465.121094 504.660156 465.246094 C 504.25 465.359375 503.871094 465.464844 503.5 465.5625 C 502.3125 465.863281 500.976562 466.144531 500.3125 465.375 C 500.234375 465.285156 500.195312 465.167969 500.203125 465.050781 L 503.496094 401.746094 L 503.507812 401.875 C 503.425781 401.527344 503.667969 401.304688 503.808594 401.214844 C 503.957031 401.121094 504.144531 401.0625 504.328125 401.019531 C 508.898438 399.972656 543.179688 402.894531 543.125 402.890625 L 543.085938 403.347656 L 543.542969 403.351562 L 543.375 431.625 C 543.371094 431.863281 543.191406 432.0625 542.953125 432.082031 C 533.128906 432.898438 524.0625 435.582031 524.070312 435.578125 C 522.039062 436.179688 519.421875 437.859375 516.863281 439.503906 C 515.039062 440.675781 513.246094 441.832031 511.800781 442.472656 C 511.820312 442.464844 511.828125 442.460938 511.828125 442.460938 C 511.742188 442.519531 511.527344 442.816406 511.6875 443.171875 C 511.859375 443.558594 512.523438 444.203125 514.660156 444.746094 L 514.214844 444.875 C 516.136719 442.855469 515.898438 442.214844 515.773438 442.09375 C 515.175781 441.527344 512.316406 442.15625 511.480469 443.03125 C 511.398438 443.117188 511.382812 443.167969 511.378906 443.175781 C 511.253906 443.6875 513.269531 445.75 514.042969 445.941406 C 514.046875 445.941406 514.046875 445.941406 514.050781 445.941406 C 515.832031 446.277344 518.199219 445.207031 520.859375 443.980469 C 522.941406 443.019531 525.160156 441.988281 527.183594 441.761719 C 527.398438 441.738281 527.601562 441.871094 527.667969 442.078125 C 527.738281 442.28125 527.652344 442.507812 527.460938 442.617188 C 525.5625 443.710938 525.332031 444.59375 524.910156 446.136719 C 524.542969 447.488281 524.054688 449.273438 522.3125 451.886719 C 520.789062 454.179688 516.824219 459.027344 511.71875 461.941406 C 506.84375 464.71875 500.738281 465.675781 500.734375 465.679688 L 500.660156 465.683594 C 455.761719 465.234375 407.558594 454.820312 407.394531 454.785156 L 407.46875 454.792969 L 407.328125 454.761719 C 407.164062 454.699219 407.050781 454.546875 407.035156 454.371094 C 407.019531 454.199219 407.109375 454.03125 407.257812 453.941406 C 408.207031 453.378906 409.800781 398.179688 409.808594 397.855469 C 409.8125 397.625 409.992188 397.4375 410.222656 397.414062 C 417.734375 396.679688 496.214844 401.050781 496.839844 401.085938 L 496.84375 401.085938 C 496.847656 401.085938 496.835938 401.085938 496.839844 401.085938 L 496.820312 401.542969 L 496.832031 401.085938 C 498.632812 401.136719 499.460938 400.960938 499.613281 400.839844 C 499.621094 400.835938 499.542969 400.894531 499.539062 401.027344 C 499.535156 401.128906 499.585938 401.183594 499.582031 401.179688 C 499.261719 400.808594 496.542969 400.0625 491.117188 399.910156 C 490.875 399.902344 490.644531 399.898438 490.394531 399.894531 C 489.765625 399.882812 489.226562 399.878906 488.710938 399.871094 C 488.289062 399.867188 487.90625 399.863281 487.546875 399.859375 C 485.234375 399.816406 484.03125 399.683594 481.921875 398.773438 C 481.769531 398.707031 481.667969 398.5625 481.648438 398.398438 C 477.316406 355.832031 474.652344 351.753906 474.722656 351.867188 L 475.5625 351.542969 C 480.214844 378.082031 480.078125 381.636719 479.9375 382.195312 C 479.921875 382.25 479.859375 382.511719 479.589844 382.589844 L 479.460938 382.148438 L 479.449219 382.605469 L 470.085938 382.34375 L 470.546875 381.984375 C 468.644531 390.800781 461.144531 399.007812 461.125 399.027344 L 461.246094 398.738281 L 460.789062 398.71875 L 460.824219 398.261719 C 461.65625 398.328125 462.789062 398.417969 463.558594 398.480469 C 464.402344 398.550781 465.144531 398.613281 465.933594 398.675781 C 473.984375 399.324219 478.789062 399.601562 480.800781 398.699219 L 480.554688 398.964844 C 481.449219 396.417969 481.746094 390.378906 480.046875 383.542969 C 479.996094 383.335938 480.09375 383.121094 480.28125 383.023438 C 480.308594 383.007812 480.320312 383 480.320312 383 C 480.308594 383.011719 480.183594 383.15625 480.273438 383.335938 C 480.285156 383.359375 480.296875 383.375 480.296875 383.371094 C 479.867188 382.929688 476.269531 382.128906 469.003906 381.089844 C 468.78125 381.058594 468.613281 380.871094 468.609375 380.644531 C 468.480469 374.183594 469.144531 352.90625 471.65625 342.28125 C 472.65625 338.054688 477.21875 329.210938 480.078125 327.140625 C 486.417969 322.554688 490.414062 320.042969 493.042969 318.390625 C 494.335938 317.578125 495.277344 316.984375 496.011719 316.453125 C 497.535156 315.351562 498.109375 314.558594 498.875 312.628906 C 498.945312 312.457031 499.113281 312.34375 499.296875 312.339844 C 499.484375 312.339844 499.652344 312.449219 499.726562 312.621094 C 501.300781 316.394531 503.054688 318.15625 503.972656 319.082031 C 504.265625 319.378906 504.582031 319.683594 504.699219 319.953125 L 504.699219 319.957031 C 504.703125 319.964844 504.699219 319.957031 504.707031 319.96875 C 504.835938 320.277344 504.753906 320.589844 504.484375 320.796875 C 504.414062 320.851562 504.335938 320.894531 504.257812 320.929688 C 501.382812 322.277344 500.054688 323.480469 497.003906 329.429688 C 496.894531 329.648438 496.628906 329.738281 496.40625 329.640625 C 496.183594 329.539062 496.082031 329.28125 496.171875 329.054688 C 496.207031 328.957031 495.980469 327.359375 495.628906 325.121094 C 495.203125 322.402344 494.632812 318.859375 494.921875 318.050781 L 495.355469 318.207031 L 494.921875 318.050781 C 494.925781 318.046875 494.929688 318.039062 494.933594 318.027344 C 494.984375 317.898438 495.160156 317.582031 495.546875 317.636719 L 495.605469 317.648438 L 504.367188 320.074219 C 504.492188 320.109375 504.601562 320.199219 504.65625 320.320312 C 504.714844 320.441406 504.714844 320.578125 504.664062 320.699219 C 502.636719 325.320312 501.429688 331.601562 501.429688 331.601562 C 499.875 339.710938 499.066406 349.945312 499.066406 349.953125 L 498.609375 349.914062 L 499.066406 349.898438 C 499.152344 352.347656 499.277344 352.226562 501.464844 352.402344 C 502.152344 352.457031 503.019531 352.527344 504.105469 352.683594 L 503.582031 353.09375 C 503.648438 352.433594 503.671875 351.714844 503.703125 350.828125 C 503.746094 349.511719 503.800781 347.871094 504.019531 345.621094 C 504.449219 341.136719 505.511719 334.28125 508.382812 322.84375 C 508.410156 322.746094 508.464844 322.660156 508.542969 322.597656 C 520.832031 312.808594 526.582031 305.976562 527.667969 300.503906 C 527.703125 300.339844 527.824219 300.203125 527.984375 300.15625 C 528.148438 300.105469 528.324219 300.152344 528.441406 300.269531 C 533.941406 305.777344 537.6875 309.582031 536.277344 310.992188 C 536.265625 311.003906 536.25 311.015625 536.238281 311.027344 C 536.144531 311.113281 536.023438 311.15625 535.898438 311.148438 C 533.957031 311.015625 527.285156 316.613281 518.820312 331.847656 C 518.742188 331.988281 518.59375 332.078125 518.433594 332.082031 C 518.269531 332.085938 518.117188 332.007812 518.03125 331.871094 C 514.269531 325.925781 510.175781 324.378906 507.390625 323.324219 C 506.035156 322.808594 504.777344 322.355469 504.183594 321.417969 C 503.964844 321.074219 503.84375 320.679688 503.820312 320.222656 L 503.859375 320.382812 L 499.464844 310.4375 L 499.425781 310.265625 C 499.394531 308.925781 498.078125 305.636719 496.382812 301.429688 C 494.5625 296.921875 492.375 291.496094 491.1875 286.761719 C 490.242188 282.988281 491.242188 278.453125 491.566406 276.953125 C 491.609375 276.761719 491.632812 276.652344 491.652344 276.558594 C 491.648438 276.566406 491.648438 276.574219 491.652344 276.574219 L 491.648438 276.574219 C 491.644531 276.515625 491.585938 276.390625 491.324219 275.972656 C 490.621094 274.851562 489.261719 272.660156 488.863281 267.324219 C 488.652344 264.507812 490.179688 252.4375 498.464844 246.769531 C 504.488281 242.648438 513.765625 241.621094 519.964844 243.613281 C 525.582031 245.414062 531.1875 251.128906 532.179688 257.542969 C 533.972656 269.105469 528.675781 279.902344 527.765625 280.792969 C 527.738281 280.816406 527.625 280.933594 527.449219 280.960938 C 527.054688 281.023438 526.914062 280.671875 526.894531 280.546875 C 526.882812 280.472656 526.890625 280.40625 526.894531 280.363281 C 526.90625 280.257812 526.945312 280.128906 526.988281 279.996094 C 527.972656 277.035156 524.457031 269.980469 522.867188 266.824219 C 522.535156 266.164062 522.269531 265.644531 522.207031 265.4375 L 522.1875 265.28125 L 522.207031 265.4375 C 522.210938 265.445312 522.144531 265.277344 522.203125 265.105469 C 522.304688 264.796875 522.617188 264.75 522.792969 264.808594 C 522.976562 264.871094 523.125 265.074219 523.148438 265.105469 C 524.558594 266.855469 526.746094 275.453125 527.113281 286.65625 C 527.433594 296.382812 518.066406 303.867188 514.050781 306.515625 C 510.726562 308.707031 505.371094 308.605469 499.617188 304.203125 C 493.804688 299.753906 490.6875 288.203125 488.984375 279.976562 C 488.863281 279.402344 488.746094 278.867188 488.636719 278.375 C 488.542969 277.960938 488.457031 277.578125 488.382812 277.222656 C 488.113281 275.921875 487.804688 274.335938 489.085938 274.070312 C 489.738281 273.9375 490.710938 274.238281 492.015625 274.808594 C 492.160156 274.871094 492.261719 275 492.285156 275.15625 L 492.285156 275.160156 C 492.339844 275.511719 492.34375 274.691406 491.765625 274.785156 C 491.355469 274.851562 491.335938 275.421875 491.398438 275.121094 L 491.847656 275.210938 L 491.394531 275.121094 C 491.402344 275.085938 491.421875 274.953125 491.449219 274.703125 C 491.726562 272.445312 493.035156 261.34375 498.523438 258.941406 C 500.273438 258.171875 501.820312 258.527344 503.324219 258.863281 C 504.746094 259.179688 506.171875 259.488281 507.929688 259.074219 C 511.34375 258.269531 513.96875 258.945312 515.921875 259.449219 C 517.179688 259.773438 518.039062 259.980469 518.707031 259.824219 C 518.839844 259.792969 518.960938 259.746094 519.078125 259.683594 C 521.410156 258.417969 523.273438 249.570312 523.304688 248.84375 L 523.304688 248.839844 L 523.304688 248.84375 C 523.304688 248.773438 523.285156 248.910156 523.355469 249.042969 C 523.441406 249.199219 523.691406 249.375 523.972656 249.226562 C 524.1875 249.109375 524.214844 248.832031 524.144531 249.085938 C 522.347656 255.523438 527.277344 271.890625 529.945312 274.71875 L 529.230469 274.777344 C 532 270.625 534.007812 270.957031 534.460938 271.113281 C 534.480469 271.121094 534.5 271.128906 534.507812 271.132812 L 534.324219 271.554688 L 534.503906 271.132812 C 536.21875 271.867188 535.582031 274.527344 535.125 276.8125 C 534.996094 277.445312 534.867188 278.105469 534.753906 278.773438 C 533.507812 286.125 530.78125 286.96875 529.085938 287.417969 C 528.367188 287.609375 528.3125 287.675781 528.289062 287.816406 C 528.285156 287.835938 528.285156 287.855469 528.28125 287.878906 C 527.402344 303.269531 539.210938 313.21875 552.414062 318.664062 C 552.648438 318.757812 552.757812 319.019531 552.667969 319.253906 C 544.136719 341.078125 553.378906 369.492188 553.386719 369.507812 L 553.296875 369.351562 C 553.285156 369.335938 553.015625 369.078125 552.726562 369.324219 C 552.640625 369.398438 552.621094 369.480469 552.628906 369.457031 L 553.066406 369.59375 L 552.628906 369.457031 C 552.824219 368.847656 552.484375 363.933594 552.117188 358.742188 C 551.769531 353.847656 551.402344 348.777344 551.601562 347.679688 C 551.839844 346.390625 552.070312 345.019531 552.304688 343.648438 C 552.550781 342.207031 552.789062 340.785156 553.054688 339.335938 C 554.46875 331.566406 556.433594 323.269531 561.296875 324.15625 C 561.511719 324.195312 561.730469 324.253906 561.953125 324.328125 C 563.371094 324.8125 567.0625 329.136719 567.757812 330.640625 C 575.113281 346.457031 586.277344 380.421875 586.273438 380.410156 L 586.285156 380.457031 C 586.339844 380.707031 586.222656 380.90625 586.132812 381.015625 L 585.777344 380.722656 L 586.132812 381.015625 C 585.601562 381.652344 582.921875 382.484375 579.84375 383.464844 C 573.828125 385.386719 565.464844 388.074219 562.65625 391.230469 C 562.554688 391.34375 562.40625 391.398438 562.257812 391.378906 C 562.105469 391.359375 561.976562 391.269531 561.90625 391.132812 C 560.105469 387.609375 558.921875 384.277344 557.984375 381.648438 C 557.363281 379.902344 556.863281 378.496094 556.367188 377.527344 C 556.007812 376.824219 555.695312 376.441406 555.421875 376.285156 L 556.101562 375.855469 C 556.527344 382.023438 556.589844 385.714844 556.113281 386.554688 L 556.171875 386.371094 L 552.84375 421.070312 C 552.835938 421.160156 552.800781 421.246094 552.742188 421.320312 L 545.421875 430.171875 L 544.773438 429.53125 C 561.148438 415.492188 568.878906 403.113281 568.863281 403.136719 C 568.847656 403.164062 568.84375 403.183594 568.84375 403.179688 C 568.960938 402.597656 567.472656 399.902344 565.859375 397.066406 C 564.675781 394.980469 563.40625 392.785156 563.402344 392.035156 C 563.402344 391.941406 563.417969 391.804688 563.5 391.667969 C 563.53125 391.621094 563.570312 391.570312 563.625 391.527344 C 563.796875 391.390625 564.046875 391.394531 564.214844 391.539062 C 564.382812 391.6875 565.128906 392.125 566.347656 392.832031 C 569.585938 394.714844 575.691406 398.261719 580.113281 402.125 C 583.578125 405.148438 586.296875 408.617188 585.199219 411.707031 C 584.25 414.390625 577.050781 421.632812 571 427.738281 C 566.261719 432.515625 562.289062 436.546875 561.933594 437.550781 C 561.925781 437.566406 561.925781 437.570312 561.925781 437.574219 L 561.933594 437.507812 L 561.925781 437.574219 C 561.925781 437.578125 561.945312 437.339844 561.710938 437.253906 C 561.703125 437.253906 562.285156 437.089844 564.011719 436.027344 C 570.03125 432.316406 586.539062 419.242188 587.253906 414.003906 C 589.507812 397.527344 584.535156 383.726562 581.621094 383.328125 C 581.5 383.3125 581.386719 383.324219 581.273438 383.359375 C 576.167969 385.097656 569.933594 380.9375 564.960938 377.660156 C 561.652344 375.476562 558.953125 373.722656 557.222656 373.730469 C 551.660156 373.757812 545.96875 380.503906 540.441406 387.121094 C 536.4375 391.914062 532.515625 396.628906 528.921875 397.972656 C 524.460938 399.640625 504.03125 402.226562 504.074219 402.21875 L 504.398438 402.019531 C 464.730469 461.667969 458.472656 465.433594 457.628906 465.703125 C 457.535156 465.730469 457.449219 465.746094 457.359375 465.734375 L 457.5 465.730469 C 453.488281 466.398438 395.484375 466.09375 395.058594 466.089844 L 395.0625 466.089844 C 395.058594 466.089844 395.054688 466.089844 395.050781 466.089844 C 394.800781 466.085938 394.597656 465.878906 394.601562 465.625 C 394.605469 465.371094 394.816406 465.171875 395.066406 465.175781 C 395.0625 465.175781 395.066406 465.175781 395.0625 465.175781 L 395.066406 465.175781 C 395.578125 465.175781 453.441406 465.480469 457.347656 464.828125 L 457.484375 464.824219 C 457.398438 464.8125 457.347656 464.832031 457.347656 464.828125 C 457.796875 464.6875 463.832031 461.367188 503.636719 401.511719 C 503.710938 401.398438 503.828125 401.328125 503.960938 401.308594 C 504.003906 401.304688 524.273438 398.734375 528.601562 397.113281 C 531.90625 395.878906 535.648438 391.425781 539.734375 386.535156 C 545.113281 380.097656 551.121094 372.84375 557.21875 372.816406 C 559.304688 372.804688 562.304688 374.808594 565.46875 376.894531 C 570.617188 380.292969 576.394531 384.054688 580.980469 382.492188 C 581.230469 382.40625 581.488281 382.386719 581.746094 382.421875 C 585.707031 382.960938 590.371094 397.988281 588.164062 414.125 C 587.375 419.894531 570.351562 433.195312 564.492188 436.808594 C 563.035156 437.707031 561.929688 438.304688 561.402344 438.117188 C 561.015625 437.980469 560.984375 437.605469 561.023438 437.398438 L 561.015625 437.464844 L 561.023438 437.398438 C 561.035156 437.339844 561.050781 437.292969 561.070312 437.242188 L 561.066406 437.242188 C 561.515625 435.984375 565.757812 431.722656 570.347656 427.09375 C 576.53125 420.855469 583.476562 413.828125 584.335938 411.402344 C 585.199219 408.972656 583.066406 405.921875 579.511719 402.8125 C 575.167969 399.019531 569.136719 395.515625 565.886719 393.625 C 564.738281 392.957031 563.867188 392.453125 563.609375 392.230469 L 564.199219 392.242188 C 564.234375 392.214844 564.257812 392.183594 564.277344 392.15625 C 564.324219 392.082031 564.320312 392.023438 564.320312 392.03125 C 564.320312 392.464844 565.355469 394.324219 566.65625 396.613281 C 568.105469 399.160156 569.949219 402.335938 569.742188 403.363281 C 569.722656 403.449219 569.695312 403.539062 569.640625 403.625 C 569.625 403.652344 561.835938 416.109375 545.367188 430.226562 C 545.1875 430.382812 544.917969 430.371094 544.75 430.207031 C 544.578125 430.039062 544.566406 429.769531 544.714844 429.585938 L 552.035156 420.734375 L 551.933594 420.984375 L 555.257812 386.285156 L 555.316406 386.105469 C 555.613281 385.578125 555.628906 382.308594 555.1875 375.917969 C 555.175781 375.75 555.257812 375.589844 555.398438 375.5 C 555.542969 375.410156 555.722656 375.402344 555.867188 375.484375 C 556.398438 375.78125 556.816406 376.386719 557.183594 377.109375 C 557.714844 378.144531 558.238281 379.621094 558.851562 381.339844 C 559.785156 383.972656 560.953125 387.25 562.722656 390.71875 L 561.972656 390.621094 C 564.992188 387.226562 573.695312 384.464844 579.566406 382.59375 C 582.898438 381.527344 585.125 380.792969 585.425781 380.429688 L 585.777344 380.722656 L 585.425781 380.429688 C 585.433594 380.417969 585.359375 380.503906 585.390625 380.648438 L 585.402344 380.695312 C 585.398438 380.6875 574.253906 346.785156 566.925781 331.023438 C 566.265625 329.601562 562.71875 325.558594 561.65625 325.195312 C 561.476562 325.132812 561.300781 325.089844 561.132812 325.058594 C 557.40625 324.378906 555.492188 331.070312 553.957031 339.5 C 553.695312 340.941406 553.453125 342.363281 553.207031 343.800781 C 552.976562 345.171875 552.742188 346.550781 552.503906 347.84375 C 552.332031 348.789062 552.675781 353.667969 553.03125 358.679688 C 553.386719 363.675781 553.769531 368.902344 553.503906 369.734375 L 553.066406 369.59375 L 553.503906 369.734375 C 553.488281 369.785156 553.441406 369.921875 553.324219 370.019531 L 553.324219 370.023438 C 552.992188 370.304688 552.671875 370.03125 552.601562 369.949219 L 552.511719 369.792969 C 552.519531 369.808594 543.148438 341.089844 551.8125 318.921875 L 552.066406 319.511719 C 538.75 314.019531 526.453125 303.820312 527.367188 287.828125 L 527.367188 287.824219 C 527.371094 287.769531 527.375 287.71875 527.386719 287.664062 C 527.527344 286.832031 528.335938 286.671875 528.851562 286.535156 C 530.175781 286.179688 532.660156 285.640625 533.847656 278.617188 C 533.964844 277.929688 534.097656 277.265625 534.226562 276.628906 C 534.789062 273.816406 534.988281 272.335938 534.144531 271.972656 L 534.324219 271.554688 L 534.144531 271.972656 C 534.152344 271.976562 534.15625 271.980469 534.15625 271.980469 C 534.242188 272.011719 532.625 271.335938 529.992188 275.289062 C 529.914062 275.402344 529.789062 275.476562 529.648438 275.488281 C 529.507812 275.5 529.371094 275.449219 529.277344 275.347656 C 526.398438 272.292969 521.375 255.597656 523.261719 248.839844 C 523.242188 248.914062 523.304688 248.542969 523.535156 248.417969 L 523.539062 248.417969 C 523.820312 248.265625 524.074219 248.445312 524.160156 248.605469 C 524.238281 248.746094 524.21875 248.910156 524.21875 248.878906 L 524.21875 248.882812 L 524.21875 248.878906 C 524.195312 249.496094 522.371094 258.9375 519.515625 260.488281 C 519.324219 260.59375 519.125 260.664062 518.917969 260.714844 C 517.980469 260.9375 516.863281 260.636719 515.695312 260.335938 C 513.757812 259.839844 511.324219 259.214844 508.140625 259.964844 C 506.15625 260.433594 504.542969 260.074219 503.128906 259.757812 C 501.59375 259.417969 500.332031 259.148438 498.890625 259.78125 C 494 261.921875 492.671875 272.273438 492.359375 274.816406 C 492.332031 275.035156 492.3125 275.21875 492.296875 275.300781 L 491.847656 275.210938 L 492.296875 275.300781 C 492.347656 275.035156 492.320312 275.625 491.910156 275.691406 C 491.328125 275.78125 491.328125 274.957031 491.378906 275.296875 L 491.652344 275.648438 C 490.285156 275.054688 489.589844 274.902344 489.273438 274.96875 C 489.089844 275.007812 488.902344 275.214844 489.28125 277.039062 C 489.355469 277.390625 489.433594 277.753906 489.53125 278.175781 C 489.636719 278.660156 489.761719 279.210938 489.882812 279.789062 C 491.605469 288.113281 494.683594 299.273438 500.175781 303.476562 C 505.726562 307.722656 510.648438 307.660156 513.546875 305.75 C 517.585938 303.085938 526.5 295.859375 526.199219 286.6875 C 525.828125 275.441406 523.625 267.15625 522.433594 265.679688 C 522.308594 265.523438 522.363281 265.632812 522.503906 265.679688 C 522.667969 265.734375 522.976562 265.691406 523.074219 265.390625 L 523.070312 265.394531 C 523.125 265.238281 523.0625 265.105469 523.082031 265.167969 L 523.101562 265.324219 L 523.082031 265.167969 C 523.117188 265.277344 523.324219 265.691406 523.6875 266.410156 C 525.160156 269.335938 528.996094 276.863281 527.855469 280.285156 C 527.816406 280.402344 527.808594 280.460938 527.804688 280.472656 C 527.804688 280.480469 527.808594 280.453125 527.800781 280.410156 L 527.800781 280.40625 C 527.789062 280.332031 527.671875 280 527.308594 280.054688 C 527.164062 280.078125 527.09375 280.164062 527.125 280.136719 C 527.785156 279.496094 533.03125 269.015625 531.273438 257.683594 C 530.339844 251.652344 525.015625 246.195312 519.683594 244.484375 C 513.742188 242.578125 504.761719 243.574219 498.984375 247.527344 C 491.09375 252.925781 489.578125 264.582031 489.777344 267.253906 C 490.164062 272.414062 491.460938 274.464844 492.101562 275.488281 C 492.296875 275.800781 492.542969 276.164062 492.566406 276.511719 C 492.570312 276.582031 492.566406 276.65625 492.550781 276.730469 C 492.53125 276.839844 492.503906 276.964844 492.464844 277.148438 C 492.128906 278.679688 491.191406 283.007812 492.074219 286.539062 C 493.246094 291.199219 495.410156 296.566406 497.234375 301.089844 C 498.878906 305.167969 500.308594 308.6875 500.339844 310.242188 L 500.300781 310.070312 L 504.695312 320.011719 L 504.734375 320.171875 C 504.75 320.488281 504.832031 320.726562 504.960938 320.929688 C 505.351562 321.546875 506.234375 321.902344 507.71875 322.464844 C 510.570312 323.546875 514.886719 325.1875 518.808594 331.378906 L 518.019531 331.402344 C 526.359375 316.390625 533.3125 310.050781 535.960938 310.230469 L 535.621094 310.351562 C 535.625 310.347656 535.625 310.347656 535.628906 310.34375 C 536.1875 309.785156 533.980469 307.113281 527.792969 300.917969 L 528.566406 300.683594 C 527.40625 306.53125 521.371094 313.550781 509.113281 323.3125 L 509.273438 323.066406 C 506.410156 334.472656 505.355469 341.285156 504.929688 345.710938 C 504.71875 347.929688 504.664062 349.546875 504.617188 350.859375 C 504.589844 351.738281 504.5625 352.488281 504.496094 353.183594 C 504.484375 353.304688 504.421875 353.421875 504.324219 353.496094 C 504.226562 353.574219 504.097656 353.609375 503.976562 353.589844 C 502.921875 353.441406 502.074219 353.371094 501.390625 353.316406 C 498.828125 353.109375 498.257812 352.929688 498.148438 349.929688 L 498.609375 349.914062 L 498.152344 349.878906 C 498.152344 349.875 498.964844 339.59375 500.53125 331.429688 C 500.53125 331.433594 501.75 325.058594 503.824219 320.332031 L 504.121094 320.957031 L 495.359375 318.53125 L 495.417969 318.542969 C 495.699219 318.582031 495.796875 318.339844 495.785156 318.363281 C 495.789062 318.355469 495.785156 318.363281 495.785156 318.363281 L 495.355469 318.207031 L 495.785156 318.363281 C 495.601562 318.878906 496.074219 322.027344 496.535156 324.980469 C 496.84375 326.941406 497.183594 328.984375 497.023438 329.390625 L 496.1875 329.011719 C 499.28125 322.980469 500.730469 321.570312 503.871094 320.101562 C 503.90625 320.082031 503.921875 320.074219 503.921875 320.070312 C 503.863281 320.117188 503.828125 320.246094 503.859375 320.320312 C 503.855469 320.3125 503.863281 320.328125 503.859375 320.320312 C 503.828125 320.25 503.691406 320.101562 503.324219 319.730469 L 503.324219 319.726562 C 502.359375 318.757812 500.519531 316.898438 498.878906 312.976562 L 499.726562 312.96875 C 498.90625 315.03125 498.234375 315.976562 496.546875 317.195312 C 495.785156 317.746094 494.8125 318.359375 493.53125 319.164062 C 490.910156 320.8125 486.933594 323.3125 480.613281 327.882812 C 478.019531 329.761719 473.527344 338.347656 472.546875 342.492188 C 470.0625 353 469.394531 374.179688 469.527344 380.625 L 469.132812 380.183594 C 476.132812 381.183594 480.242188 381.996094 480.957031 382.734375 C 481.003906 382.785156 481.050781 382.84375 481.089844 382.917969 C 481.265625 383.261719 481.089844 383.5625 480.890625 383.71875 C 480.832031 383.765625 480.765625 383.804688 480.699219 383.839844 L 480.933594 383.320312 C 482.660156 390.253906 482.394531 396.492188 481.421875 399.269531 C 481.378906 399.386719 481.289062 399.484375 481.175781 399.535156 C 478.890625 400.558594 473.746094 400.222656 465.859375 399.589844 C 465.046875 399.523438 464.351562 399.464844 463.484375 399.394531 C 462.738281 399.335938 461.558594 399.238281 460.75 399.175781 L 460.789062 398.71875 L 460.332031 398.695312 L 460.449219 398.40625 C 460.476562 398.378906 467.808594 390.335938 469.652344 381.789062 C 469.695312 381.574219 469.890625 381.421875 470.113281 381.429688 L 479.476562 381.691406 L 479.460938 382.148438 L 479.335938 381.707031 C 479.066406 381.785156 479.03125 382.039062 479.046875 381.972656 C 479.125 381.660156 479.335938 378.382812 474.660156 351.703125 C 474.621094 351.484375 474.742188 351.273438 474.945312 351.195312 C 475.148438 351.117188 475.382812 351.191406 475.5 351.378906 C 475.570312 351.488281 478.238281 355.832031 482.5625 398.304688 L 482.289062 397.929688 C 484.246094 398.777344 485.320312 398.902344 487.5625 398.941406 C 487.921875 398.949219 488.292969 398.953125 488.71875 398.957031 C 489.230469 398.960938 489.78125 398.964844 490.410156 398.976562 C 490.664062 398.980469 490.902344 398.988281 491.144531 398.996094 L 491.144531 398.992188 C 496.375 399.140625 499.625 399.832031 500.273438 400.578125 C 500.363281 400.683594 500.460938 400.84375 500.453125 401.050781 C 500.449219 401.296875 500.300781 401.46875 500.175781 401.566406 C 499.707031 401.925781 498.5 402.050781 496.804688 402.003906 L 496.820312 401.542969 L 496.796875 402 C 496.792969 402 496.796875 402 496.789062 402 C 496.085938 401.960938 417.730469 397.601562 410.3125 398.324219 L 410.722656 397.882812 C 410.734375 397.558594 409.257812 453.824219 407.726562 454.730469 L 407.65625 453.910156 L 407.515625 453.878906 L 407.589844 453.886719 C 407.746094 453.921875 455.871094 464.320312 500.667969 464.765625 L 500.59375 464.773438 C 500.589844 464.773438 506.546875 463.835938 511.261719 461.144531 C 516.199219 458.328125 520.070312 453.605469 521.550781 451.378906 C 523.214844 448.882812 523.671875 447.203125 524.027344 445.894531 C 524.476562 444.25 524.800781 443.089844 527.003906 441.820312 L 527.285156 442.675781 C 525.441406 442.878906 523.367188 443.832031 521.242188 444.8125 C 518.707031 445.984375 516.019531 447.246094 513.878906 446.84375 C 513.859375 446.839844 513.839844 446.835938 513.824219 446.828125 C 512.996094 446.625 510.15625 444.304688 510.488281 442.957031 C 510.542969 442.734375 510.675781 442.550781 510.816406 442.398438 C 511.742188 441.425781 515.222656 440.304688 516.40625 441.429688 C 517.289062 442.273438 516.585938 443.710938 514.878906 445.503906 C 514.765625 445.625 514.59375 445.675781 514.433594 445.632812 C 512.257812 445.082031 511.207031 444.347656 510.851562 443.546875 C 510.460938 442.671875 510.96875 441.945312 511.296875 441.710938 C 511.335938 441.6875 511.378906 441.660156 511.429688 441.636719 C 512.792969 441.027344 514.519531 439.921875 516.367188 438.734375 C 518.878906 437.117188 521.625 435.347656 523.808594 434.699219 C 523.816406 434.699219 532.957031 431.992188 542.875 431.167969 L 542.457031 431.621094 L 542.628906 403.34375 L 543.085938 403.347656 L 543.046875 403.804688 C 542.957031 403.796875 508.917969 400.90625 504.535156 401.914062 C 504.378906 401.949219 504.3125 401.980469 504.296875 401.988281 C 504.28125 402 504.449219 401.890625 504.398438 401.667969 L 504.410156 401.796875 L 501.117188 465.097656 L 501.007812 464.777344 C 501.222656 465.027344 501.847656 465.035156 503.273438 464.671875 C 503.632812 464.582031 504.003906 464.476562 504.414062 464.363281 C 504.867188 464.238281 505.34375 464.105469 505.847656 463.976562 C 506.011719 463.9375 506.1875 463.988281 506.300781 464.117188 C 506.417969 464.246094 506.449219 464.425781 506.386719 464.585938 C 506.234375 464.988281 506.066406 465.304688 505.933594 465.558594 C 505.597656 466.203125 505.542969 466.242188 506.046875 466.625 C 506.039062 466.617188 507.496094 467.726562 509.0625 466.457031 C 509.261719 466.296875 509.550781 466.328125 509.707031 466.523438 C 509.867188 466.71875 509.835938 467.007812 509.640625 467.167969 C 508.753906 467.886719 508.46875 468.40625 508.441406 468.691406 C 508.421875 468.882812 508.550781 469.199219 509.425781 469.285156 C 513.667969 469.703125 514.503906 469.613281 516.835938 468.464844 C 517.0625 468.355469 517.335938 468.445312 517.449219 468.667969 C 517.5625 468.894531 517.476562 469.167969 517.253906 469.28125 C 517.238281 469.292969 517.167969 469.351562 517.210938 469.496094 C 517.273438 469.730469 517.9375 470.574219 520.824219 469.785156 C 522.773438 469.253906 525.300781 467.316406 528.21875 464.566406 C 530.550781 462.367188 533.085938 459.695312 535.710938 456.933594 C 538.488281 454.007812 541.363281 450.976562 544.179688 448.320312 C 548.839844 443.929688 553.804688 441.519531 556.886719 440.066406 C 557.121094 439.953125 556.988281 440.015625 557.21875 439.90625 C 557.238281 439.898438 557.511719 439.769531 557.523438 439.765625 C 557.660156 439.699219 557.824219 439.707031 557.953125 439.785156 C 558.085938 439.863281 558.167969 440 558.175781 440.152344 C 558.277344 441.886719 558.28125 443.664062 558.230469 445.484375 C 558.136719 448.75 557.851562 452.140625 557.566406 455.546875 C 557.269531 459.023438 556.976562 462.515625 556.878906 465.949219 L 556.421875 465.476562 L 582.566406 465.460938 C 582.820312 465.460938 583.023438 465.664062 583.023438 465.917969 C 583.023438 466.171875 582.820312 466.375 582.566406 466.375 Z M 582.566406 466.375 " fill-opacity="1" fill-rule="nonzero"/></g></svg>