<svg xmlns="http://www.w3.org/2000/svg" xmlns:xlink="http://www.w3.org/1999/xlink" width="1366" zoomAndPan="magnify" viewBox="0 0 1024.5 576" height="768" preserveAspectRatio="xMidYMid meet" version="1.0"><defs><g/><clipPath id="dbfbba52d7"><path d="M 0 0.140625 L 1024 0.140625 L 1024 575.859375 L 0 575.859375 Z M 0 0.140625 " clip-rule="nonzero"/></clipPath><clipPath id="2f8aa08674"><path d="M 426.886719 150 L 473.046875 150 L 473.046875 174.875 L 426.886719 174.875 Z M 426.886719 150 " clip-rule="nonzero"/></clipPath><clipPath id="87922c3f2a"><path d="M 430 145.5 L 470 145.5 L 470 173 L 430 173 Z M 430 145.5 " clip-rule="nonzero"/></clipPath><clipPath id="7b0f10fbc5"><path d="M 424 241.417969 L 600.832031 241.417969 L 600.832031 471.667969 L 424 471.667969 Z M 424 241.417969 " clip-rule="nonzero"/></clipPath></defs><g clip-path="url(#dbfbba52d7)"><path fill="#ffffff" d="M 0 0.140625 L 1024.5 0.140625 L 1024.5 583.640625 L 0 583.640625 Z M 0 0.140625 " fill-opacity="1" fill-rule="nonzero"/><path fill="#ffffff" d="M 0 0.140625 L 1024.5 0.140625 L 1024.5 576.140625 L 0 576.140625 Z M 0 0.140625 " fill-opacity="1" fill-rule="nonzero"/><path fill="#374151" d="M 0 0.140625 L 1024.5 0.140625 L 1024.5 576.140625 L 0 576.140625 Z M 0 0.140625 " fill-opacity="1" fill-rule="nonzero"/></g><g clip-path="url(#2f8aa08674)"><path fill="#ffffff" d="M 470.285156 150.574219 L 470.273438 150.652344 L 468.554688 169.347656 L 468.480469 170.199219 L 467.613281 170.089844 L 466.964844 170.007812 C 465.667969 169.84375 464.394531 169.753906 463.179688 169.753906 C 457.308594 169.753906 453.738281 171.699219 452.132812 172.859375 L 449.96875 173.023438 L 449.960938 173.023438 L 447.796875 172.859375 C 446.191406 171.699219 442.621094 169.753906 436.75 169.753906 C 435.535156 169.753906 434.261719 169.84375 432.964844 170.007812 L 432.316406 170.089844 L 431.449219 170.199219 L 431.375 169.347656 L 429.65625 150.652344 L 429.648438 150.574219 L 426.90625 150.574219 L 429.699219 171.75 L 448.121094 174.875 L 451.808594 174.875 L 470.230469 171.75 L 473.023438 150.574219 L 470.285156 150.574219 " fill-opacity="1" fill-rule="nonzero"/></g><g clip-path="url(#87922c3f2a)"><path fill="#ffffff" d="M 432.777344 149.449219 L 432.882812 150.523438 L 434.289062 165.070312 L 434.777344 165.140625 C 434.863281 165.148438 441.664062 166.175781 446.253906 169.585938 C 444.050781 168.578125 440.933594 167.695312 436.789062 167.695312 C 435.707031 167.695312 434.5625 167.757812 433.34375 167.890625 L 431.757812 150.574219 L 431.664062 149.550781 C 432.050781 149.507812 432.417969 149.476562 432.777344 149.449219 Z M 444.179688 149.40625 C 447.230469 150.984375 448.84375 152.800781 449.316406 153.386719 L 449.316406 170.730469 C 445.355469 166.015625 437.507812 164.363281 435.449219 164 L 434.132812 150.398438 L 433.78125 146.773438 C 438.296875 146.988281 441.710938 148.121094 444.179688 149.40625 Z M 450.617188 153.386719 C 451.085938 152.800781 452.699219 150.984375 455.75 149.40625 C 458.21875 148.121094 461.632812 146.988281 466.148438 146.773438 L 465.796875 150.398438 L 464.480469 164 C 462.421875 164.363281 454.574219 166.015625 450.617188 170.730469 Z M 467.046875 150.523438 L 467.152344 149.449219 C 467.511719 149.476562 467.882812 149.507812 468.269531 149.550781 L 468.175781 150.574219 L 466.585938 167.890625 C 465.367188 167.757812 464.222656 167.695312 463.140625 167.695312 C 459 167.695312 455.878906 168.578125 453.675781 169.585938 C 458.265625 166.175781 465.066406 165.148438 465.152344 165.140625 L 465.640625 165.070312 Z M 432.207031 169.277344 L 432.859375 169.195312 C 437.308594 168.617188 440.789062 169.074219 443.394531 169.851562 C 443.648438 169.929688 443.894531 170.007812 444.132812 170.089844 C 444.375 170.171875 444.601562 170.257812 444.824219 170.34375 C 445.046875 170.429688 445.261719 170.515625 445.46875 170.605469 C 446.492188 171.054688 447.316406 171.53125 447.941406 171.953125 C 448.066406 172.039062 448.1875 172.121094 448.292969 172.199219 L 451.636719 172.199219 C 451.742188 172.121094 451.863281 172.039062 451.988281 171.953125 C 452.613281 171.53125 453.4375 171.054688 454.460938 170.605469 C 454.671875 170.515625 454.882812 170.429688 455.105469 170.34375 C 455.328125 170.257812 455.554688 170.171875 455.796875 170.089844 C 456.035156 170.007812 456.28125 169.929688 456.539062 169.851562 C 459.140625 169.074219 462.621094 168.617188 467.074219 169.195312 L 467.722656 169.277344 L 469.441406 150.574219 L 469.632812 148.457031 L 469.027344 148.390625 C 468.414062 148.320312 467.828125 148.261719 467.269531 148.222656 L 467.535156 145.496094 L 466.824219 145.515625 C 460.640625 145.671875 456.355469 147.425781 453.578125 149.1875 C 451.757812 150.34375 450.589844 151.5 449.96875 152.210938 L 449.960938 152.210938 C 449.34375 151.5 448.171875 150.34375 446.351562 149.1875 C 443.574219 147.425781 439.289062 145.671875 433.105469 145.515625 L 432.394531 145.496094 L 432.660156 148.222656 C 432.101562 148.261719 431.515625 148.320312 430.90625 148.390625 L 430.296875 148.457031 L 430.492188 150.574219 L 432.207031 169.277344 " fill-opacity="1" fill-rule="nonzero"/></g><g fill="#ffffff" fill-opacity="1"><g transform="translate(482.46965, 167.68624)"><g><path d="M 1.640625 -0.109375 C 2.179688 -0.847656 2.453125 -1.832031 2.453125 -3.0625 L 2.453125 -13.3125 C 2.453125 -14.550781 2.179688 -15.535156 1.640625 -16.265625 L 1.640625 -16.390625 L 8.28125 -16.390625 C 10.125 -16.390625 11.664062 -16.015625 12.90625 -15.265625 C 14.144531 -14.523438 14.765625 -13.300781 14.765625 -11.59375 C 14.765625 -10.476562 14.472656 -9.550781 13.890625 -8.8125 C 13.316406 -8.070312 12.566406 -7.53125 11.640625 -7.1875 C 10.710938 -6.84375 9.726562 -6.671875 8.6875 -6.671875 C 7.9375 -6.671875 7.222656 -6.800781 6.546875 -7.0625 L 6.546875 -7.4375 C 7.003906 -7.332031 7.472656 -7.28125 7.953125 -7.28125 C 9.015625 -7.28125 9.832031 -7.6875 10.40625 -8.5 C 10.976562 -9.320312 11.265625 -10.351562 11.265625 -11.59375 C 11.265625 -12.757812 10.96875 -13.753906 10.375 -14.578125 C 9.789062 -15.410156 8.960938 -15.828125 7.890625 -15.828125 C 7.171875 -15.828125 6.492188 -15.707031 5.859375 -15.46875 L 5.859375 -3.0625 C 5.859375 -1.832031 6.128906 -0.847656 6.671875 -0.109375 L 6.671875 0 L 1.640625 0 Z M 1.640625 -0.109375 "/></g></g></g><g fill="#ffffff" fill-opacity="1"><g transform="translate(497.183104, 167.68624)"><g><path d="M 1.359375 -0.109375 C 1.554688 -0.410156 1.710938 -0.789062 1.828125 -1.25 C 1.953125 -1.707031 2.015625 -2.210938 2.015625 -2.765625 L 2.015625 -13.4375 C 2.015625 -14.070312 1.941406 -14.59375 1.796875 -15 C 1.660156 -15.40625 1.453125 -15.742188 1.171875 -16.015625 L 1.171875 -16.125 L 5.0625 -17.4375 L 5.171875 -17.4375 L 5.171875 -2.765625 C 5.171875 -2.210938 5.226562 -1.707031 5.34375 -1.25 C 5.46875 -0.789062 5.628906 -0.410156 5.828125 -0.109375 L 5.828125 0 L 1.359375 0 Z M 1.359375 -0.109375 "/></g></g></g><g fill="#ffffff" fill-opacity="1"><g transform="translate(503.779436, 167.68624)"><g><path d="M 11.640625 -3.953125 C 11.367188 -2.660156 10.769531 -1.628906 9.84375 -0.859375 C 8.925781 -0.0859375 7.804688 0.296875 6.484375 0.296875 C 5.441406 0.296875 4.5 0.0664062 3.65625 -0.390625 C 2.8125 -0.847656 2.140625 -1.519531 1.640625 -2.40625 C 1.148438 -3.300781 0.90625 -4.359375 0.90625 -5.578125 C 0.90625 -6.835938 1.171875 -7.953125 1.703125 -8.921875 C 2.234375 -9.898438 2.941406 -10.65625 3.828125 -11.1875 C 4.722656 -11.726562 5.691406 -12 6.734375 -12 C 7.703125 -12 8.546875 -11.796875 9.265625 -11.390625 C 9.984375 -10.992188 10.53125 -10.453125 10.90625 -9.765625 C 11.28125 -9.078125 11.46875 -8.332031 11.46875 -7.53125 L 3.46875 -7.53125 C 3.507812 -6.363281 3.738281 -5.363281 4.15625 -4.53125 C 4.582031 -3.695312 5.132812 -3.066406 5.8125 -2.640625 C 6.488281 -2.222656 7.234375 -2.015625 8.046875 -2.015625 C 8.816406 -2.015625 9.492188 -2.1875 10.078125 -2.53125 C 10.660156 -2.875 11.101562 -3.347656 11.40625 -3.953125 Z M 5.859375 -11.328125 C 5.148438 -11.328125 4.578125 -11.050781 4.140625 -10.5 C 3.703125 -9.945312 3.476562 -9.140625 3.46875 -8.078125 L 8.359375 -8.078125 C 8.265625 -9.078125 8 -9.867188 7.5625 -10.453125 C 7.132812 -11.035156 6.566406 -11.328125 5.859375 -11.328125 Z M 5.859375 -11.328125 "/></g></g></g><g fill="#ffffff" fill-opacity="1"><g transform="translate(515.615647, 167.68624)"><g><path d="M 6.875 0.296875 C 4.925781 0.296875 3.226562 -0.164062 1.78125 -1.09375 L 1.78125 -13.4375 C 1.78125 -14.070312 1.707031 -14.59375 1.5625 -15 C 1.425781 -15.40625 1.21875 -15.742188 0.9375 -16.015625 L 0.9375 -16.125 L 4.828125 -17.4375 L 4.9375 -17.4375 L 4.9375 -9.90625 L 5.0625 -9.90625 C 5.4375 -10.5625 5.925781 -11.070312 6.53125 -11.4375 C 7.132812 -11.8125 7.835938 -12 8.640625 -12 C 9.554688 -12 10.363281 -11.757812 11.0625 -11.28125 C 11.769531 -10.8125 12.3125 -10.132812 12.6875 -9.25 C 13.070312 -8.375 13.265625 -7.359375 13.265625 -6.203125 C 13.265625 -5.046875 13 -3.972656 12.46875 -2.984375 C 11.945312 -1.992188 11.203125 -1.195312 10.234375 -0.59375 C 9.265625 0 8.144531 0.296875 6.875 0.296875 Z M 7 -0.234375 C 7.914062 -0.234375 8.625 -0.710938 9.125 -1.671875 C 9.625 -2.628906 9.875 -3.929688 9.875 -5.578125 C 9.875 -7.085938 9.632812 -8.265625 9.15625 -9.109375 C 8.6875 -9.953125 8.03125 -10.375 7.1875 -10.375 C 6.570312 -10.375 6.0625 -10.1875 5.65625 -9.8125 C 5.257812 -9.445312 5.019531 -8.976562 4.9375 -8.40625 L 4.9375 -1.890625 C 5.019531 -1.441406 5.238281 -1.050781 5.59375 -0.71875 C 5.945312 -0.394531 6.414062 -0.234375 7 -0.234375 Z M 7 -0.234375 "/></g></g></g><g fill="#ffffff" fill-opacity="1"><g transform="translate(529.323244, 167.68624)"><g><path d="M 1.640625 -0.109375 C 2.179688 -0.847656 2.453125 -1.832031 2.453125 -3.0625 L 2.453125 -13.3125 C 2.453125 -14.550781 2.179688 -15.535156 1.640625 -16.265625 L 1.640625 -16.390625 L 8.59375 -16.390625 C 10.25 -16.390625 11.617188 -16.078125 12.703125 -15.453125 C 13.796875 -14.828125 14.34375 -13.84375 14.34375 -12.5 C 14.34375 -11.46875 13.984375 -10.640625 13.265625 -10.015625 C 12.546875 -9.390625 11.691406 -9 10.703125 -8.84375 L 10.703125 -8.75 C 11.878906 -8.613281 12.882812 -8.171875 13.71875 -7.421875 C 14.5625 -6.679688 14.984375 -5.707031 14.984375 -4.5 C 14.984375 -2.9375 14.363281 -1.796875 13.125 -1.078125 C 11.894531 -0.359375 10.382812 0 8.59375 0 L 1.640625 0 Z M 7.5625 -9.0625 C 8.59375 -9.0625 9.394531 -9.375 9.96875 -10 C 10.550781 -10.625 10.84375 -11.441406 10.84375 -12.453125 C 10.84375 -13.429688 10.546875 -14.238281 9.953125 -14.875 C 9.367188 -15.507812 8.578125 -15.828125 7.578125 -15.828125 C 7.003906 -15.828125 6.429688 -15.71875 5.859375 -15.5 L 5.859375 -9.0625 Z M 7.75 -0.5625 C 8.851562 -0.5625 9.738281 -0.914062 10.40625 -1.625 C 11.082031 -2.332031 11.421875 -3.289062 11.421875 -4.5 C 11.421875 -5.738281 11.078125 -6.707031 10.390625 -7.40625 C 9.703125 -8.113281 8.78125 -8.46875 7.625 -8.46875 L 5.859375 -8.46875 L 5.859375 -0.984375 C 6.367188 -0.703125 7 -0.5625 7.75 -0.5625 Z M 7.75 -0.5625 "/></g></g></g><g fill="#ffffff" fill-opacity="1"><g transform="translate(544.808655, 167.68624)"><g><path d="M 6.8125 0.296875 C 5.65625 0.296875 4.625 0.0351562 3.71875 -0.484375 C 2.8125 -1.015625 2.101562 -1.742188 1.59375 -2.671875 C 1.09375 -3.609375 0.84375 -4.671875 0.84375 -5.859375 C 0.84375 -7.035156 1.09375 -8.085938 1.59375 -9.015625 C 2.101562 -9.953125 2.8125 -10.679688 3.71875 -11.203125 C 4.625 -11.734375 5.65625 -12 6.8125 -12 C 7.945312 -12 8.96875 -11.734375 9.875 -11.203125 C 10.78125 -10.679688 11.484375 -9.953125 11.984375 -9.015625 C 12.492188 -8.085938 12.75 -7.035156 12.75 -5.859375 C 12.75 -4.671875 12.492188 -3.609375 11.984375 -2.671875 C 11.484375 -1.742188 10.78125 -1.015625 9.875 -0.484375 C 8.96875 0.0351562 7.945312 0.296875 6.8125 0.296875 Z M 6.8125 -0.234375 C 7.664062 -0.234375 8.300781 -0.742188 8.71875 -1.765625 C 9.144531 -2.785156 9.359375 -4.148438 9.359375 -5.859375 C 9.359375 -7.554688 9.144531 -8.914062 8.71875 -9.9375 C 8.300781 -10.957031 7.664062 -11.46875 6.8125 -11.46875 C 5.957031 -11.46875 5.3125 -10.957031 4.875 -9.9375 C 4.445312 -8.914062 4.234375 -7.554688 4.234375 -5.859375 C 4.234375 -4.148438 4.445312 -2.785156 4.875 -1.765625 C 5.3125 -0.742188 5.957031 -0.234375 6.8125 -0.234375 Z M 6.8125 -0.234375 "/></g></g></g><g fill="#ffffff" fill-opacity="1"><g transform="translate(557.931429, 167.68624)"><g><path d="M 6.8125 0.296875 C 5.65625 0.296875 4.625 0.0351562 3.71875 -0.484375 C 2.8125 -1.015625 2.101562 -1.742188 1.59375 -2.671875 C 1.09375 -3.609375 0.84375 -4.671875 0.84375 -5.859375 C 0.84375 -7.035156 1.09375 -8.085938 1.59375 -9.015625 C 2.101562 -9.953125 2.8125 -10.679688 3.71875 -11.203125 C 4.625 -11.734375 5.65625 -12 6.8125 -12 C 7.945312 -12 8.96875 -11.734375 9.875 -11.203125 C 10.78125 -10.679688 11.484375 -9.953125 11.984375 -9.015625 C 12.492188 -8.085938 12.75 -7.035156 12.75 -5.859375 C 12.75 -4.671875 12.492188 -3.609375 11.984375 -2.671875 C 11.484375 -1.742188 10.78125 -1.015625 9.875 -0.484375 C 8.96875 0.0351562 7.945312 0.296875 6.8125 0.296875 Z M 6.8125 -0.234375 C 7.664062 -0.234375 8.300781 -0.742188 8.71875 -1.765625 C 9.144531 -2.785156 9.359375 -4.148438 9.359375 -5.859375 C 9.359375 -7.554688 9.144531 -8.914062 8.71875 -9.9375 C 8.300781 -10.957031 7.664062 -11.46875 6.8125 -11.46875 C 5.957031 -11.46875 5.3125 -10.957031 4.875 -9.9375 C 4.445312 -8.914062 4.234375 -7.554688 4.234375 -5.859375 C 4.234375 -4.148438 4.445312 -2.785156 4.875 -1.765625 C 5.3125 -0.742188 5.957031 -0.234375 6.8125 -0.234375 Z M 6.8125 -0.234375 "/></g></g></g><g fill="#ffffff" fill-opacity="1"><g transform="translate(571.054204, 167.68624)"><g><path d="M 1.359375 -0.109375 C 1.554688 -0.410156 1.710938 -0.789062 1.828125 -1.25 C 1.953125 -1.707031 2.015625 -2.210938 2.015625 -2.765625 L 2.015625 -13.4375 C 2.015625 -14.070312 1.941406 -14.59375 1.796875 -15 C 1.660156 -15.40625 1.453125 -15.742188 1.171875 -16.015625 L 1.171875 -16.125 L 5.0625 -17.4375 L 5.171875 -17.4375 L 5.171875 -2.765625 C 5.171875 -2.210938 5.226562 -1.707031 5.34375 -1.25 C 5.46875 -0.789062 5.628906 -0.410156 5.828125 -0.109375 L 5.828125 0 L 1.359375 0 Z M 11.71875 0.1875 C 10.988281 0.1875 10.382812 0.0546875 9.90625 -0.203125 C 9.4375 -0.472656 8.984375 -0.910156 8.546875 -1.515625 L 5.640625 -5.484375 L 5.640625 -5.59375 L 8.515625 -8.890625 C 9.128906 -9.597656 9.4375 -10.203125 9.4375 -10.703125 C 9.4375 -11.054688 9.300781 -11.351562 9.03125 -11.59375 L 9.03125 -11.703125 L 12.609375 -11.703125 L 12.609375 -11.59375 C 11.960938 -11.28125 11.398438 -10.941406 10.921875 -10.578125 C 10.441406 -10.222656 9.929688 -9.75 9.390625 -9.15625 L 7.984375 -7.625 L 12.421875 -1.640625 C 12.953125 -0.921875 13.351562 -0.515625 13.625 -0.421875 L 13.625 -0.25 C 13.375 -0.125 13.078125 -0.0195312 12.734375 0.0625 C 12.390625 0.144531 12.050781 0.1875 11.71875 0.1875 Z M 11.71875 0.1875 "/></g></g></g><g clip-path="url(#7b0f10fbc5)"><path fill="#ffffff" d="M 434.085938 455.371094 L 434.289062 455.367188 L 435.457031 455.363281 L 436.539062 455.359375 C 446.988281 455.308594 452.1875 455.292969 467.890625 455.539062 L 467.554688 455.851562 C 467.65625 453.824219 468.375 450.761719 469.277344 446.898438 C 470.890625 440.003906 473.121094 430.445312 473.683594 419.300781 C 473.785156 417.3125 473.832031 415.273438 473.8125 413.191406 C 473.800781 412.167969 473.785156 411.136719 473.765625 410.105469 C 473.746094 409.078125 473.730469 408.042969 473.71875 407.019531 C 473.640625 398.351562 474.179688 389.929688 481.175781 386.570312 L 481.179688 386.570312 C 481.28125 386.523438 481.382812 386.539062 481.398438 386.539062 C 481.644531 386.566406 482.464844 386.84375 483.554688 387.214844 C 488.050781 388.738281 497.820312 392.023438 501.105469 390.449219 C 501.109375 390.445312 501.125 390.4375 501.132812 390.433594 C 501.464844 390.269531 501.234375 390.273438 501.3125 390.433594 C 501.316406 390.4375 501.316406 390.4375 501.316406 390.441406 L 501.585938 390.253906 L 501.316406 390.441406 C 500.980469 389.953125 497.46875 389.398438 494.164062 388.910156 C 492.09375 388.601562 490.109375 388.320312 489.679688 388.03125 L 489.867188 388.089844 L 489.679688 388.03125 C 489.632812 388.003906 489.558594 387.945312 489.511719 387.851562 C 489.351562 387.523438 489.675781 387.335938 489.734375 387.308594 C 489.792969 387.28125 489.859375 387.257812 489.925781 387.238281 C 491.777344 386.710938 503.582031 389.046875 506.25 389.675781 C 512.960938 391.265625 518.546875 394.34375 519.757812 395.320312 C 521.050781 396.367188 522.160156 396.574219 523.28125 396.777344 C 524.082031 396.925781 524.910156 397.074219 525.765625 397.558594 C 525.917969 397.644531 525.976562 397.839844 525.894531 398 C 517.019531 414.847656 522.199219 417.855469 522.105469 417.796875 L 522.101562 417.792969 C 522.101562 417.792969 522.117188 417.804688 522.113281 417.800781 L 522.101562 417.792969 C 524.167969 418.992188 525.578125 418.183594 526.375 416.816406 C 526.648438 416.34375 526.847656 415.804688 526.964844 415.257812 C 527.335938 413.511719 527.589844 410.878906 526.570312 410.453125 C 525.421875 409.96875 523.46875 411.183594 522.730469 411.964844 C 521.996094 412.738281 522.222656 415.257812 523.550781 416.511719 C 523.996094 416.933594 524.554688 417.183594 525.21875 417.152344 C 528.644531 416.992188 531.179688 415.902344 531.632812 410.488281 C 531.835938 408.101562 532.238281 406.359375 532.546875 405.027344 C 532.742188 404.1875 532.894531 403.53125 532.941406 402.976562 C 533.078125 401.355469 532.375 400.542969 527.789062 398.582031 L 527.878906 398.605469 C 527.476562 398.558594 526.800781 400.078125 525.703125 402.910156 C 524.769531 405.304688 523.628906 408.246094 522.136719 410.488281 C 520.859375 412.40625 517.546875 414.082031 516.542969 414.039062 C 504.585938 413.527344 498.226562 413.195312 498.238281 413.195312 L 498.246094 413.195312 C 496.585938 413.15625 494.003906 411.617188 491.769531 410.296875 C 490.625 409.621094 489.546875 408.984375 488.671875 408.574219 C 488.363281 408.429688 488.054688 408.289062 487.699219 408.125 C 487.34375 407.964844 486.902344 407.761719 486.527344 407.585938 C 484.957031 406.851562 483.242188 405.980469 482.597656 405.160156 C 481.578125 403.855469 480.9375 402.828125 481.515625 402.375 C 481.5625 402.339844 481.613281 402.3125 481.660156 402.292969 L 481.785156 402.597656 L 481.660156 402.292969 C 482.132812 402.097656 483.0625 402.464844 483.699219 402.695312 C 483.8125 402.738281 483.800781 402.734375 483.914062 402.773438 L 483.675781 403.386719 C 479.300781 401.554688 478.675781 400.296875 478.664062 397.78125 C 478.664062 397.671875 478.71875 397.566406 478.8125 397.507812 C 478.90625 397.445312 479.019531 397.433594 479.125 397.476562 L 483.09375 399.164062 C 483.257812 399.238281 483.335938 399.425781 483.269531 399.59375 C 483.199219 399.757812 483.011719 399.839844 482.84375 399.773438 C 478.972656 398.269531 478.066406 397.085938 478.015625 397.015625 C 476.570312 395.039062 476.660156 392.710938 477.636719 391.269531 C 478.117188 390.558594 478.890625 390.863281 479.40625 391.210938 C 480.507812 391.953125 481.722656 393.652344 481.703125 393.628906 L 481.441406 393.828125 L 481.222656 394.074219 C 478.234375 391.394531 478.394531 389.75 478.417969 389.613281 C 478.824219 386.886719 480.007812 385.730469 480.050781 385.691406 C 480.132812 385.613281 480.246094 385.582031 480.355469 385.609375 L 480.273438 385.597656 L 480.355469 385.609375 C 480.542969 385.652344 480.882812 385.734375 481.359375 385.855469 C 482.289062 386.085938 483.628906 386.417969 484.964844 386.734375 C 486.933594 387.199219 488.703125 387.582031 488.992188 387.550781 L 489.019531 387.546875 L 489.027344 387.878906 L 488.992188 387.550781 C 489.09375 387.539062 488.828125 387.527344 488.769531 387.773438 C 488.71875 387.976562 488.882812 388.085938 488.84375 388.054688 C 485.792969 385.398438 484.824219 380.527344 483.265625 372.828125 C 483.046875 371.765625 482.828125 370.671875 482.582031 369.496094 C 482.546875 369.320312 482.65625 369.148438 482.832031 369.109375 C 486.214844 368.347656 489.867188 365.871094 493.789062 361.613281 L 493.730469 361.699219 L 494.074219 360.949219 L 494.421875 360.1875 C 497.921875 352.523438 501.765625 344.179688 504.296875 342.371094 C 507.082031 340.378906 509.894531 340.039062 513.070312 339.648438 C 514.335938 339.492188 515.664062 339.328125 517.089844 339.050781 C 517.144531 339.042969 517.199219 339.042969 517.253906 339.0625 C 520.714844 340.183594 522.140625 341.367188 521.714844 342.664062 C 521.574219 343.105469 521.226562 343.480469 520.808594 343.800781 L 520.648438 343.210938 C 523.753906 343.609375 524.582031 343.757812 524.414062 346.324219 L 524.285156 346.039062 C 525.65625 347.085938 526.648438 348.6875 525.292969 350.457031 C 524.835938 351.058594 524.109375 351.65625 523.078125 352.25 L 522.933594 351.636719 C 524.9375 351.761719 525.511719 353.253906 525.40625 354.878906 C 525.335938 356.046875 524.921875 357.359375 524.410156 358.488281 C 522.761719 362.144531 517.902344 365.46875 517.917969 365.457031 L 517.945312 365.4375 C 517.378906 365.925781 516.21875 365.59375 515.542969 364.816406 C 515.230469 364.453125 514.988281 363.972656 514.894531 363.371094 C 514.628906 361.628906 517.675781 358.363281 521.6875 357.386719 L 521.78125 358.035156 L 517.382812 358.214844 L 517.671875 358.015625 C 515.5625 362.839844 513.039062 365.550781 513.023438 365.566406 C 506.351562 372.726562 494.507812 382.894531 494.507812 382.894531 L 494.484375 382.914062 C 491.6875 384.875 489.371094 385.453125 487.695312 384.25 C 487.625 384.195312 487.578125 384.117188 487.5625 384.027344 C 485.949219 373.085938 484.503906 368.542969 483.621094 368.675781 C 483.578125 368.679688 483.503906 368.710938 483.398438 368.816406 C 483.363281 368.855469 483.320312 368.882812 483.273438 368.898438 C 472.523438 372.714844 466.207031 376.105469 464.5 379.261719 C 464 380.191406 464.140625 381.109375 464.394531 381.957031 C 465.632812 386.15625 467.714844 391.464844 470.84375 397.832031 C 470.902344 397.953125 470.882812 398.097656 470.792969 398.195312 C 470.703125 398.296875 470.5625 398.332031 470.4375 398.285156 C 466.050781 396.695312 463.125 392.4375 460.882812 383.179688 L 461.433594 383.335938 C 458.664062 386.058594 453.355469 388.648438 445.945312 392.273438 C 443.757812 393.34375 441.476562 394.460938 438.929688 395.738281 C 438.820312 395.792969 438.6875 395.78125 438.585938 395.710938 C 438.488281 395.636719 438.4375 395.515625 438.457031 395.394531 C 439 391.933594 452.066406 382.71875 472.746094 370.15625 L 472.605469 370.546875 C 472.578125 370.46875 472.535156 370.292969 472.472656 370.070312 C 472.3125 369.464844 472.019531 368.363281 471.617188 367.214844 C 471.121094 365.800781 470.488281 364.394531 469.78125 363.714844 C 463.957031 358.097656 462.4375 350.996094 460.847656 343.582031 C 460.507812 342.011719 460.167969 340.429688 459.785156 338.835938 L 460.359375 338.960938 C 455.84375 344.628906 436.296875 373.976562 436.808594 379.632812 C 436.886719 380.5 437.390625 380.816406 438.398438 380.726562 C 440.792969 380.511719 445.125 377.957031 448.765625 375.796875 C 451.191406 374.359375 453.386719 373.046875 454.300781 372.964844 C 454.398438 372.957031 454.507812 372.960938 454.613281 372.988281 L 454.523438 373.304688 L 454.613281 372.988281 C 454.847656 373.050781 455 373.234375 455.019531 373.480469 C 455.050781 373.804688 454.847656 374.234375 454.542969 374.734375 C 454.515625 374.78125 454.476562 374.816406 454.433594 374.84375 C 445.160156 380.441406 433.265625 390.136719 433.265625 390.136719 C 428.609375 393.929688 426.011719 408.113281 425.445312 413.203125 C 424.554688 421.191406 433.136719 427.625 436.046875 427.949219 C 436.238281 427.96875 436.382812 427.960938 436.484375 427.933594 C 443.460938 426.089844 452.765625 422.800781 463.066406 415.617188 C 463.707031 415.167969 465.0625 413.417969 466.671875 411.328125 C 468.726562 408.664062 471.15625 405.5 472.773438 404.371094 C 473.238281 404.046875 473.765625 403.796875 474.226562 403.960938 C 474.308594 403.992188 474.375 404.054688 474.414062 404.132812 C 480.917969 418.070312 475.820312 439.730469 469.277344 455.226562 L 469.195312 454.855469 C 469.191406 454.851562 469.183594 454.84375 469.1875 454.847656 C 469.824219 455.339844 481.613281 459.855469 490.890625 460.339844 C 497.417969 460.683594 502.804688 459.171875 506.230469 458.210938 C 507.78125 457.777344 509.011719 457.425781 509.730469 457.464844 C 509.765625 457.464844 509.800781 457.46875 509.832031 457.472656 C 509.90625 457.480469 509.972656 457.511719 510.027344 457.5625 C 511.351562 458.835938 513.070312 460.617188 514.847656 462.457031 C 516.792969 464.46875 518.820312 466.566406 520.527344 468.207031 C 521.503906 469.144531 522.367188 469.925781 523.046875 470.453125 L 522.914062 470.753906 L 523.046875 470.453125 C 523.832031 470.796875 527.960938 466.046875 532.070312 460.777344 C 532.886719 459.730469 533.6875 458.6875 534.433594 457.707031 L 534.367188 457.949219 L 529.691406 424.484375 L 529.691406 424.488281 C 529.292969 421.808594 528.65625 420.398438 527.921875 419.984375 L 528.019531 420.019531 L 510.683594 416.515625 L 510.925781 416.46875 C 510.96875 416.445312 510.984375 416.414062 510.980469 416.421875 C 509.910156 418.113281 509.367188 457.296875 509.367188 457.40625 L 509.355469 457.324219 C 511.40625 465.652344 527.464844 466.6875 541.949219 463.132812 C 548.15625 461.609375 553.953125 459.261719 558.011719 456.382812 L 557.875 456.613281 C 558.957031 447.546875 557.476562 439.464844 555.121094 434.027344 L 555.238281 434.167969 L 531.460938 418.113281 C 531.34375 418.035156 531.292969 417.894531 531.328125 417.757812 C 532.308594 414.054688 532.90625 410.8125 533.359375 408.34375 C 533.636719 406.84375 533.863281 405.613281 534.089844 404.75 C 534.277344 404.050781 534.5 403.40625 534.898438 403.207031 C 535.035156 403.140625 535.183594 403.121094 535.328125 403.160156 L 535.3125 403.15625 L 535.316406 403.15625 L 535.335938 403.164062 C 535.386719 403.175781 535.433594 403.195312 535.480469 403.21875 C 541.355469 406.25 547.140625 407.574219 547.132812 407.574219 L 547.125 407.570312 C 551.699219 408.511719 556.933594 409.277344 561.703125 409.976562 C 565.667969 410.558594 569.300781 411.089844 571.953125 411.632812 C 573.824219 412.019531 575.273438 412.421875 575.960938 412.886719 C 584.394531 418.554688 579.085938 432.054688 576.835938 435.394531 C 576.566406 435.792969 576.296875 436.117188 576.054688 436.253906 C 572.769531 438.109375 569.519531 437.199219 566.003906 436.230469 C 563.757812 435.609375 561.378906 434.957031 558.71875 434.882812 L 558.804688 434.875 C 558.851562 434.863281 559.097656 434.757812 559.03125 434.492188 C 559.003906 434.378906 558.921875 434.328125 558.949219 434.351562 L 558.746094 434.609375 L 558.949219 434.351562 C 559.640625 434.898438 572.726562 439.898438 580.140625 438.0625 C 581.992188 437.605469 583.441406 436.734375 584.269531 435.300781 C 591.675781 422.523438 589.746094 414.746094 583.117188 410.914062 C 577.8125 407.851562 569.398438 407.234375 559.890625 408.78125 C 559.71875 408.808594 559.554688 408.695312 559.515625 408.527344 C 559.144531 406.878906 558.742188 405.136719 558.339844 403.398438 C 557.9375 401.675781 557.527344 399.910156 557.160156 398.277344 C 556.34375 394.648438 555.679688 391.433594 555.519531 389.589844 C 555.515625 389.550781 555.519531 389.507812 555.53125 389.46875 C 560.273438 373.039062 560.445312 370.195312 560.445312 370.234375 L 560.773438 370.253906 L 560.445312 370.234375 C 560.96875 362.019531 559.027344 361.234375 558.816406 361.125 C 558.800781 361.117188 558.785156 361.109375 558.769531 361.101562 C 559.082031 361.273438 559.238281 360.894531 559.179688 361 C 559.183594 360.996094 559.183594 360.992188 559.183594 360.992188 L 558.882812 360.855469 L 559.183594 360.992188 C 558.714844 362.019531 556.589844 382.449219 556.582031 382.511719 C 556.578125 382.546875 556.570312 382.582031 556.554688 382.617188 C 556.570312 382.585938 556.414062 382.960938 556.082031 382.804688 C 555.933594 382.738281 555.886719 382.585938 555.882812 382.578125 L 556.191406 382.460938 L 555.882812 382.578125 C 555.78125 382.320312 555.691406 381.421875 555.574219 380.308594 C 555.210938 376.902344 554.566406 370.976562 553.074219 369.261719 C 552.992188 369.164062 552.695312 369.074219 551.84375 369.8125 C 547.792969 373.332031 538.425781 389.664062 535.179688 399.453125 C 534.886719 400.324219 533.984375 400.355469 533.09375 400.0625 C 531.617188 399.574219 529.46875 398.035156 527.183594 395.753906 C 527.113281 395.683594 527.078125 395.585938 527.089844 395.488281 C 527.628906 390.339844 524.90625 352.421875 524.886719 352.171875 L 524.886719 352.152344 C 524.886719 352.121094 524.890625 352.089844 524.898438 352.0625 L 528.492188 339.023438 L 528.65625 339.402344 C 524.316406 337.140625 521.863281 332.519531 518.929688 326.148438 C 518.855469 325.984375 518.925781 325.789062 519.089844 325.714844 C 519.253906 325.636719 519.449219 325.707031 519.527344 325.871094 C 523.203125 333.585938 526.160156 334.730469 528.304688 333.714844 C 532.289062 331.820312 534.566406 322.425781 534.589844 322.335938 L 534.910156 322.414062 L 535.21875 322.527344 L 529.683594 337.710938 L 529.128906 337.378906 C 534.175781 331.875 538.554688 330.820312 542.253906 329.933594 C 542.964844 329.761719 543.636719 329.601562 544.296875 329.414062 C 548.585938 328.183594 568.921875 337.914062 574.296875 343.640625 C 575.046875 344.4375 580.4375 350.320312 583.132812 356.511719 C 585.75 362.527344 585.234375 365.964844 584.652344 369.835938 C 584.378906 371.640625 584.09375 373.527344 584.101562 375.828125 C 584.109375 378.378906 584.65625 382.984375 585.257812 388.0625 C 585.980469 394.183594 586.785156 400.96875 586.800781 405.546875 C 586.800781 406.5 586.769531 407.363281 586.695312 408.109375 C 586.695312 408.109375 586.699219 408.933594 586.230469 408.886719 L 586.226562 408.886719 C 585.988281 408.859375 585.914062 408.621094 585.917969 408.636719 L 586.222656 408.507812 L 585.917969 408.636719 C 585.769531 408.277344 585.59375 406.535156 585.332031 403.976562 C 584.652344 397.363281 583.347656 384.640625 580.542969 372.363281 C 577.085938 357.253906 570.523438 343.464844 565.769531 338.546875 C 561.917969 334.5625 556.546875 332.351562 551.800781 330.398438 C 548.441406 329.015625 545.351562 327.753906 543.449219 326.058594 C 541.796875 324.585938 539 323.011719 536.917969 321.84375 C 535.753906 321.191406 534.769531 320.640625 534.414062 320.324219 C 534.382812 320.296875 534.347656 320.261719 534.316406 320.230469 C 532.570312 318.230469 531.097656 315.382812 530.191406 313.632812 C 529.761719 312.808594 529.488281 312.285156 529.359375 312.136719 C 529.355469 312.132812 529.355469 312.132812 529.355469 312.132812 L 529.585938 311.898438 L 529.355469 312.132812 C 529.28125 312.058594 529.492188 312.316406 529.71875 312.113281 C 529.753906 312.082031 529.773438 312.054688 529.785156 312.03125 L 529.785156 312.035156 C 528.28125 314.90625 521.558594 323.871094 513.078125 328.273438 C 513.066406 328.28125 513.089844 328.261719 513.089844 328.238281 L 512.761719 328.214844 L 513.089844 328.238281 C 513.089844 328.246094 513.09375 328.292969 513.148438 328.402344 C 513.519531 329.113281 515.09375 330.4375 516.691406 331.765625 C 518.035156 332.882812 519.429688 334.035156 519.757812 334.667969 C 519.792969 334.734375 519.824219 334.808594 519.839844 334.890625 C 520.300781 337.097656 515.316406 340.085938 511.402344 340.898438 C 508.648438 341.472656 505.8125 341.117188 505.238281 338.363281 C 504.910156 336.789062 505.363281 334.515625 506.882812 331.363281 C 507.035156 331.042969 506.726562 331.460938 507.078125 331.628906 L 507.074219 331.628906 C 507.242188 331.707031 507.375 331.605469 507.316406 331.636719 C 506.976562 331.828125 505.046875 333.984375 502.96875 336.316406 C 500.820312 338.730469 498.402344 341.480469 497.933594 341.570312 C 497.789062 341.601562 497.640625 341.527344 497.574219 341.398438 C 494.042969 334.347656 493.308594 329.464844 493.304688 329.4375 C 492.683594 325.300781 494.9375 323.207031 494.980469 323.171875 C 495.085938 323.074219 495.242188 323.054688 495.367188 323.128906 C 500.589844 326.140625 504.269531 327.433594 504.257812 327.429688 C 505.074219 327.714844 510.109375 328.320312 510.148438 328.324219 L 510.109375 328.652344 L 509.789062 328.582031 C 510.320312 326.171875 509.796875 325.746094 509.8125 325.761719 C 509.8125 325.761719 509.824219 325.769531 509.84375 325.78125 C 509.75 325.730469 509.683594 325.640625 509.667969 325.535156 C 509.652344 325.429688 509.691406 325.324219 509.765625 325.25 C 527.578125 308.339844 523.207031 295.691406 523.238281 295.789062 L 523.550781 295.683594 L 523.375 295.40625 C 524.164062 294.902344 524.976562 294.542969 525.734375 294.203125 C 526.441406 293.882812 527.101562 293.589844 527.691406 293.210938 C 529.925781 291.792969 531.414062 289.109375 529.535156 278.851562 C 529.007812 275.976562 528.234375 275.355469 527.582031 275.472656 C 525.683594 275.820312 522.765625 281.328125 519.773438 287.855469 C 519.71875 287.976562 519.59375 288.050781 519.464844 288.046875 C 519.332031 288.042969 519.214844 287.960938 519.164062 287.839844 C 513.894531 274.332031 508.28125 267.582031 502.847656 267.128906 C 502.425781 267.09375 501.585938 267.835938 500.214844 269.125 C 498.316406 270.910156 495.6875 273.394531 492.621094 274.136719 C 490.480469 274.65625 488.191406 274.59375 486.035156 274.535156 C 484 274.480469 482.089844 274.433594 480.433594 274.832031 C 479.324219 275.101562 478.347656 275.570312 477.535156 276.367188 C 475.273438 278.589844 475.972656 283.386719 476.476562 286.667969 C 476.570312 287.296875 476.660156 287.875 476.710938 288.335938 C 477.535156 296.097656 480.730469 300.707031 483.796875 302.632812 C 483.898438 302.699219 483.957031 302.816406 483.949219 302.9375 C 483.492188 308.460938 497.082031 325.097656 505.160156 325.761719 C 505.914062 325.824219 506.605469 325.746094 507.226562 325.507812 C 516.945312 321.800781 523.597656 318.515625 527.378906 311.175781 L 527.34375 311.296875 C 527.492188 309.722656 526.996094 307.835938 526.402344 305.613281 C 525.644531 302.757812 524.753906 299.414062 525.097656 295.738281 C 525.285156 293.734375 525.835938 291.632812 526.972656 289.457031 C 529.785156 284.074219 522.863281 264.691406 518.65625 252.96875 L 518.292969 251.957031 C 516.355469 246.546875 508.210938 243.640625 503.414062 242.105469 L 503.777344 241.589844 L 507.015625 245.769531 C 507.105469 245.886719 507.109375 246.046875 507.023438 246.164062 C 506.941406 246.28125 506.789062 246.328125 506.648438 246.285156 C 502.382812 244.835938 495.484375 243.722656 487.816406 245.929688 C 483.964844 247.039062 476.105469 251.523438 472.273438 255.402344 C 470.136719 257.566406 470.230469 257.757812 470.074219 257.605469 C 470.023438 257.554688 469.972656 257.550781 469.984375 257.550781 L 469.929688 257.875 L 469.984375 257.550781 C 470.027344 257.558594 470.136719 257.542969 470.367188 257.507812 C 470.746094 257.445312 471.539062 257.289062 472 257.746094 C 472.597656 258.332031 472.398438 259.613281 471.199219 262.027344 C 471.175781 262.078125 471.136719 262.125 471.089844 262.15625 C 466.148438 265.496094 463.03125 271.546875 462.191406 273.949219 C 462.027344 274.417969 462.265625 274.089844 461.964844 273.984375 C 461.890625 273.960938 461.839844 273.980469 461.851562 273.976562 L 461.945312 274.289062 L 461.851562 273.976562 C 461.953125 273.945312 462.21875 273.742188 462.65625 273.390625 C 463.324219 272.859375 464.523438 271.84375 465.320312 272.121094 C 465.78125 272.28125 465.964844 272.761719 465.996094 273.378906 C 466.046875 274.492188 465.457031 276.761719 464.890625 278.964844 C 464.289062 281.292969 463.707031 283.554688 463.757812 284.628906 C 463.773438 284.933594 463.835938 285.027344 463.847656 285.039062 L 463.632812 285.285156 L 463.847656 285.039062 C 463.847656 285.035156 463.84375 285.035156 463.839844 285.03125 L 463.683594 285.023438 C 468.929688 284.027344 473.945312 284.335938 474.28125 286.089844 C 474.289062 286.132812 474.292969 286.175781 474.296875 286.222656 C 474.296875 286.253906 474.296875 286.28125 474.289062 286.3125 C 472.707031 293.441406 479.359375 301.558594 491.0625 315.742188 C 492.359375 317.3125 493.640625 318.863281 495.046875 320.582031 C 495.0625 320.605469 495.078125 320.628906 495.089844 320.652344 C 495.109375 320.691406 495.121094 320.730469 495.128906 320.769531 C 495.429688 322.035156 491.351562 325.519531 488.953125 326.597656 C 488.902344 326.621094 488.863281 326.640625 488.8125 326.660156 C 486.683594 327.566406 484.242188 328.53125 481.742188 329.523438 C 479.101562 330.566406 476.375 331.644531 473.878906 332.707031 C 469.378906 334.617188 465.671875 336.453125 464.296875 337.972656 C 462.347656 340.113281 465.710938 345.714844 468.757812 350.671875 C 469.902344 352.53125 470.957031 354.242188 471.515625 355.507812 C 472.902344 358.648438 478.363281 360.492188 484.914062 357.605469 C 485.214844 357.472656 485.519531 357.332031 485.824219 357.179688 C 491.90625 354.128906 504.644531 346.515625 504.757812 344.769531 C 504.765625 344.605469 504.902344 344.472656 505.070312 344.464844 C 505.238281 344.457031 505.382812 344.574219 505.410156 344.738281 C 505.695312 346.457031 506.851562 347.902344 508.058594 349.402344 C 509.191406 350.804688 510.382812 352.269531 510.667969 353.984375 C 510.742188 354.4375 510.753906 354.910156 510.683594 355.40625 C 510.589844 356.078125 510.476562 356.863281 510.359375 357.671875 C 510.214844 358.664062 510.0625 359.699219 509.898438 360.855469 C 508.820312 368.523438 507.507812 379.417969 508.386719 387.886719 C 510.511719 408.449219 519.027344 427.332031 529.460938 439.066406 C 537.398438 447.992188 559.203125 456.132812 559.234375 456.144531 L 559.113281 456.125 L 600.507812 455.417969 C 600.691406 455.414062 600.839844 455.558594 600.84375 455.742188 C 600.847656 455.921875 600.703125 456.074219 600.519531 456.074219 L 559.125 456.78125 C 559.082031 456.78125 559.042969 456.777344 559.003906 456.761719 C 559.03125 456.773438 537.039062 448.578125 528.96875 439.503906 C 518.433594 427.652344 509.871094 408.640625 507.730469 387.957031 C 506.84375 379.394531 508.167969 368.421875 509.246094 360.761719 C 509.410156 359.609375 509.5625 358.566406 509.707031 357.578125 C 509.824219 356.757812 509.9375 355.992188 510.03125 355.3125 C 510.089844 354.890625 510.082031 354.484375 510.015625 354.089844 C 509.769531 352.582031 508.710938 351.253906 507.546875 349.8125 C 506.363281 348.347656 505.078125 346.765625 504.761719 344.847656 L 505.414062 344.8125 C 505.269531 347.050781 491.902344 354.863281 486.121094 357.765625 C 485.804688 357.921875 485.492188 358.070312 485.179688 358.207031 C 478.5 361.152344 472.519531 359.417969 470.910156 355.773438 C 470.375 354.558594 469.351562 352.890625 468.199219 351.019531 C 465.359375 346.402344 461.433594 340.144531 463.808594 337.53125 C 465.304688 335.882812 469.167969 333.992188 473.621094 332.101562 C 476.128906 331.035156 478.859375 329.957031 481.5 328.910156 C 484 327.921875 486.441406 326.953125 488.554688 326.054688 C 488.59375 326.039062 488.644531 326.019531 488.683594 326 C 491.257812 324.839844 494.640625 321.566406 494.488281 320.921875 C 494.488281 320.917969 494.488281 320.921875 494.492188 320.925781 L 494.535156 320.996094 C 493.121094 319.273438 491.855469 317.738281 490.554688 316.160156 C 478.984375 302.136719 471.976562 293.695312 473.648438 286.167969 L 473.640625 286.257812 C 473.636719 286.242188 473.636719 286.226562 473.632812 286.210938 C 473.449219 285.253906 469.445312 284.597656 463.804688 285.671875 C 463.753906 285.679688 463.699219 285.675781 463.648438 285.660156 C 463.558594 285.636719 463.480469 285.589844 463.414062 285.53125 L 463.632812 285.285156 L 463.414062 285.53125 C 463.179688 285.324219 463.117188 284.976562 463.101562 284.660156 C 463.042969 283.457031 463.667969 281.066406 464.25 278.800781 C 464.835938 276.53125 465.382812 274.394531 465.335938 273.410156 C 465.3125 272.847656 465.15625 272.757812 465.105469 272.742188 C 464.75 272.617188 463.941406 273.207031 463.070312 273.90625 C 462.707031 274.195312 462.300781 274.527344 462.039062 274.605469 L 461.945312 274.289062 L 462.039062 274.605469 C 461.976562 274.625 461.867188 274.648438 461.746094 274.605469 C 461.292969 274.449219 461.527344 273.851562 461.570312 273.734375 C 462.4375 271.257812 465.617188 265.0625 470.71875 261.609375 L 470.609375 261.738281 C 471.882812 259.171875 471.734375 258.40625 471.539062 258.214844 C 471.367188 258.042969 470.992188 258.074219 470.472656 258.15625 C 470.296875 258.183594 470.054688 258.226562 469.878906 258.199219 L 469.929688 257.875 L 469.878906 258.199219 C 469.808594 258.191406 469.699219 258.160156 469.609375 258.070312 C 469.148438 257.617188 470.164062 256.597656 471.800781 254.941406 C 475.714844 250.980469 483.671875 246.441406 487.632812 245.300781 C 495.460938 243.046875 502.5 244.179688 506.863281 245.660156 L 506.496094 246.171875 L 503.253906 241.992188 C 503.167969 241.878906 503.164062 241.71875 503.246094 241.601562 C 503.328125 241.484375 503.480469 241.433594 503.617188 241.476562 C 508.300781 242.976562 516.84375 245.957031 518.914062 251.734375 L 519.277344 252.75 C 523.398438 264.234375 530.542969 284.042969 527.558594 289.761719 C 526.464844 291.859375 525.933594 293.875 525.753906 295.800781 C 525.421875 299.34375 526.277344 302.578125 527.042969 305.445312 C 527.621094 307.628906 528.160156 309.640625 528 311.359375 C 527.996094 311.398438 527.984375 311.441406 527.964844 311.476562 C 524.058594 319.058594 517.179688 322.417969 507.460938 326.121094 C 506.730469 326.402344 505.9375 326.488281 505.105469 326.417969 C 496.6875 325.722656 482.800781 308.792969 483.292969 302.882812 L 483.445312 303.1875 C 480.164062 301.125 476.894531 296.304688 476.054688 288.40625 C 476.007812 287.960938 475.921875 287.402344 475.824219 286.769531 C 475.347656 283.644531 474.511719 278.410156 477.074219 275.898438 C 477.988281 275 479.082031 274.484375 480.28125 274.195312 C 482.035156 273.769531 484.039062 273.824219 486.054688 273.878906 C 488.226562 273.9375 490.425781 273.992188 492.464844 273.5 C 495.332031 272.804688 497.835938 270.460938 499.761719 268.648438 C 500.960938 267.519531 502.101562 266.40625 502.902344 266.472656 C 508.792969 266.964844 514.53125 274.15625 519.78125 287.601562 L 519.171875 287.582031 C 522.054688 281.300781 525.125 275.253906 527.464844 274.828125 C 528.835938 274.574219 529.6875 276.035156 530.179688 278.734375 C 532.0625 288.992188 530.667969 292.101562 528.046875 293.765625 C 527.40625 294.175781 526.703125 294.488281 526.003906 294.804688 C 525.242188 295.144531 524.472656 295.488281 523.726562 295.960938 L 523.550781 295.683594 L 523.863281 295.578125 C 523.902344 295.691406 528.238281 308.621094 510.222656 325.726562 L 510.144531 325.195312 C 510.164062 325.203125 510.199219 325.226562 510.238281 325.257812 C 510.527344 325.503906 510.972656 326.273438 510.429688 328.722656 L 510.109375 328.652344 L 510.070312 328.976562 C 510.097656 328.980469 504.945312 328.367188 504.039062 328.046875 C 504.023438 328.042969 500.304688 326.734375 495.039062 323.699219 L 495.425781 323.65625 C 495.464844 323.617188 493.382812 325.507812 493.957031 329.34375 C 493.953125 329.316406 494.667969 334.128906 498.164062 341.101562 L 497.808594 340.925781 C 497.984375 340.890625 500.152344 338.488281 502.476562 335.878906 C 504.476562 333.636719 506.527344 331.324219 506.996094 331.0625 C 506.996094 331.0625 507.171875 330.945312 507.363281 331.035156 L 507.359375 331.035156 C 507.761719 331.226562 507.425781 331.753906 507.476562 331.648438 C 505.972656 334.769531 505.601562 336.875 505.882812 338.226562 C 506.324219 340.351562 508.507812 340.828125 511.265625 340.257812 C 515.394531 339.398438 519.503906 336.5 519.195312 335.023438 C 519.195312 335.019531 519.191406 335.003906 519.171875 334.96875 C 518.921875 334.492188 517.695312 333.457031 516.265625 332.269531 C 514.746094 331.003906 513.015625 329.570312 512.566406 328.707031 C 512.488281 328.554688 512.421875 328.378906 512.433594 328.195312 L 512.761719 328.214844 L 512.433594 328.195312 C 512.449219 327.96875 512.574219 327.792969 512.773438 327.691406 C 521.105469 323.363281 527.742188 314.515625 529.199219 311.730469 C 529.214844 311.699219 529.242188 311.65625 529.285156 311.617188 L 529.285156 311.621094 C 529.554688 311.386719 529.816406 311.664062 529.816406 311.660156 L 529.585938 311.898438 L 529.816406 311.660156 C 529.832031 311.675781 529.84375 311.6875 529.859375 311.707031 L 529.855469 311.707031 C 530.054688 311.929688 530.378906 312.5625 530.777344 313.332031 C 531.6875 315.09375 533.128906 317.867188 534.816406 319.796875 C 534.820312 319.800781 534.835938 319.816406 534.851562 319.835938 C 535.136719 320.085938 536.027344 320.589844 537.242188 321.269531 C 539.296875 322.425781 542.171875 324.035156 543.886719 325.566406 C 545.6875 327.167969 548.648438 328.390625 552.050781 329.789062 C 556.777344 331.734375 562.28125 333.992188 566.242188 338.089844 C 571.125 343.136719 577.722656 357.066406 581.183594 372.21875 C 584 384.539062 585.308594 397.296875 585.988281 403.910156 C 586.261719 406.570312 586.425781 408.140625 586.527344 408.382812 L 586.222656 408.507812 L 586.527344 408.382812 C 586.558594 408.460938 586.507812 408.253906 586.296875 408.230469 L 586.292969 408.230469 C 585.902344 408.191406 585.976562 408.703125 586.042969 408.042969 C 586.113281 407.328125 586.144531 406.488281 586.140625 405.550781 C 586.125 401.019531 585.328125 394.273438 584.601562 388.136719 C 584.003906 383.082031 583.453125 378.429688 583.445312 375.832031 C 583.4375 373.472656 583.726562 371.542969 584 369.738281 C 584.574219 365.917969 585.070312 362.625 582.527344 356.777344 C 579.882812 350.695312 574.566406 344.886719 573.816406 344.089844 C 568.46875 338.394531 548.382812 328.929688 544.476562 330.042969 C 543.804688 330.238281 543.113281 330.402344 542.40625 330.570312 C 538.753906 331.449219 534.527344 332.460938 529.617188 337.824219 C 529.511719 337.9375 529.335938 337.964844 529.203125 337.882812 C 529.066406 337.800781 529.011719 337.636719 529.0625 337.488281 L 534.601562 322.300781 L 534.910156 322.414062 L 535.230469 322.492188 C 535.246094 322.421875 532.925781 332.246094 528.585938 334.308594 C 525.820312 335.621094 522.574219 333.792969 518.933594 326.152344 L 519.53125 325.875 C 522.476562 332.28125 524.851562 336.679688 528.960938 338.820312 C 529.097656 338.890625 529.167969 339.046875 529.125 339.199219 L 525.535156 352.234375 L 525.546875 352.140625 L 525.546875 352.128906 L 525.542969 352.125 C 525.558594 352.316406 528.292969 390.332031 527.746094 395.554688 L 527.652344 395.289062 C 529.917969 397.554688 531.976562 399 533.300781 399.4375 C 534.164062 399.722656 534.460938 399.527344 534.554688 399.242188 C 537.816406 389.417969 547.226562 372.949219 551.414062 369.316406 C 552.121094 368.703125 553.003906 368.179688 553.570312 368.828125 C 555.242188 370.746094 555.882812 376.976562 556.226562 380.238281 C 556.355469 381.4375 556.4375 382.191406 556.496094 382.339844 L 556.191406 382.460938 L 556.496094 382.339844 C 556.515625 382.382812 556.488281 382.265625 556.359375 382.207031 C 556.050781 382.0625 555.917969 382.421875 555.957031 382.339844 L 555.929688 382.445312 C 555.921875 382.507812 558.054688 361.878906 558.585938 360.71875 L 558.882812 360.855469 L 558.585938 360.71875 C 558.589844 360.707031 558.59375 360.699219 558.601562 360.683594 C 558.570312 360.738281 558.75 360.34375 559.085938 360.523438 C 559.09375 360.527344 559.097656 360.53125 559.113281 360.539062 C 559.703125 360.835938 561.628906 362.003906 561.101562 370.277344 L 560.773438 370.253906 L 561.101562 370.273438 C 561.101562 370.320312 560.902344 373.234375 556.164062 389.652344 L 556.175781 389.53125 C 556.328125 391.320312 556.984375 394.496094 557.800781 398.132812 C 558.167969 399.753906 558.582031 401.535156 558.980469 403.25 C 559.386719 404.996094 559.785156 406.722656 560.160156 408.382812 L 559.785156 408.128906 C 569.34375 406.574219 577.945312 407.167969 583.449219 410.347656 C 590.550781 414.449219 592.320312 422.730469 584.839844 435.628906 C 583.890625 437.265625 582.257812 438.21875 580.300781 438.703125 C 572.652344 440.59375 559.363281 435.519531 558.539062 434.867188 L 558.746094 434.609375 L 558.539062 434.867188 C 558.53125 434.859375 558.425781 434.785156 558.390625 434.652344 C 558.320312 434.367188 558.574219 434.253906 558.648438 434.234375 C 558.675781 434.230469 558.707031 434.226562 558.734375 434.226562 C 561.488281 434.300781 563.941406 434.980469 566.175781 435.597656 C 569.742188 436.578125 572.71875 437.382812 575.730469 435.679688 C 575.820312 435.632812 576.011719 435.433594 576.289062 435.027344 C 578.585938 431.621094 583.457031 418.71875 575.59375 413.429688 C 575.035156 413.054688 573.722656 412.667969 571.820312 412.277344 C 569.191406 411.738281 565.582031 411.210938 561.609375 410.628906 C 556.84375 409.929688 551.585938 409.160156 546.992188 408.214844 L 546.984375 408.214844 C 546.976562 408.210938 541.128906 406.871094 535.179688 403.804688 L 535.175781 403.804688 C 535.171875 403.800781 535.167969 403.796875 535.164062 403.796875 L 535.183594 403.800781 L 535.164062 403.796875 C 535.171875 403.800781 535.1875 403.796875 535.195312 403.796875 C 535.117188 403.832031 534.941406 404.113281 534.726562 404.917969 C 534.507812 405.75 534.285156 406.949219 534.007812 408.464844 C 533.554688 410.933594 532.953125 414.199219 531.964844 417.925781 L 531.832031 417.570312 L 555.609375 433.625 C 555.660156 433.660156 555.703125 433.707031 555.726562 433.765625 C 558.128906 439.316406 559.625 447.515625 558.527344 456.691406 C 558.515625 456.78125 558.46875 456.863281 558.390625 456.917969 C 554.246094 459.863281 548.363281 462.234375 542.105469 463.773438 C 527.839844 467.273438 510.949219 466.539062 508.71875 457.480469 C 508.710938 457.453125 508.707031 457.425781 508.707031 457.398438 C 508.707031 457.511719 509.222656 417.96875 510.421875 416.070312 C 510.453125 416.023438 510.5 415.960938 510.574219 415.914062 C 510.644531 415.871094 510.730469 415.851562 510.816406 415.871094 L 528.148438 419.375 C 528.183594 419.382812 528.214844 419.394531 528.246094 419.410156 C 529.300781 420.007812 529.953125 421.761719 530.34375 424.390625 L 530.34375 424.394531 L 535.019531 457.859375 C 535.035156 457.945312 535.011719 458.03125 534.957031 458.101562 C 534.21875 459.078125 533.402344 460.140625 532.589844 461.179688 C 528.8125 466.027344 524.1875 471.671875 522.78125 471.054688 L 522.914062 470.753906 L 522.78125 471.054688 C 522.730469 471.035156 522.683594 471.007812 522.640625 470.972656 C 521.933594 470.425781 521.050781 469.621094 520.070312 468.679688 C 518.355469 467.03125 516.316406 464.921875 514.375 462.914062 C 512.589844 461.066406 510.882812 459.300781 509.570312 458.035156 L 509.761719 458.125 C 509.742188 458.125 509.714844 458.121094 509.695312 458.121094 C 509.113281 458.089844 508.027344 458.390625 506.410156 458.84375 C 502.976562 459.808594 497.5 461.34375 490.855469 461 C 481.511719 460.511719 469.570312 455.972656 468.785156 455.367188 C 468.777344 455.363281 468.765625 455.351562 468.75 455.339844 C 468.648438 455.25 468.613281 455.097656 468.667969 454.96875 C 475.210938 439.480469 480.1875 418.070312 473.816406 404.410156 L 474.003906 404.582031 C 473.886719 404.539062 473.621094 404.582031 473.152344 404.910156 C 471.640625 405.964844 469.289062 409.011719 467.195312 411.730469 C 465.632812 413.753906 464.191406 415.632812 463.441406 416.15625 C 453.0625 423.394531 443.683594 426.714844 436.652344 428.570312 C 436.445312 428.625 436.214844 428.628906 435.972656 428.601562 C 432.78125 428.246094 423.851562 421.550781 424.792969 413.128906 C 425.347656 408.140625 427.941406 393.625 432.847656 389.625 C 432.847656 389.628906 444.773438 379.90625 454.09375 374.28125 L 453.980469 374.390625 C 454.304688 373.863281 454.371094 373.613281 454.363281 373.539062 C 454.367188 373.5625 454.402344 373.613281 454.4375 373.621094 L 454.523438 373.304688 L 454.4375 373.621094 C 454.433594 373.621094 454.414062 373.617188 454.359375 373.621094 C 453.640625 373.6875 451.640625 374.859375 449.101562 376.363281 C 445.539062 378.472656 441.042969 381.148438 438.457031 381.382812 C 437.230469 381.492188 436.273438 381.050781 436.152344 379.691406 C 435.609375 373.703125 455.421875 344.097656 459.847656 338.554688 C 459.925781 338.453125 460.050781 338.410156 460.175781 338.4375 C 460.296875 338.464844 460.394531 338.558594 460.421875 338.679688 C 460.8125 340.285156 461.152344 341.875 461.492188 343.445312 C 463.089844 350.886719 464.578125 357.785156 470.238281 363.238281 C 471.074219 364.042969 471.75 365.597656 472.238281 367 C 472.648438 368.171875 472.949219 369.292969 473.109375 369.902344 C 473.175781 370.144531 473.210938 370.28125 473.230469 370.332031 C 473.28125 370.476562 473.222656 370.640625 473.089844 370.71875 C 452.179688 383.417969 439.585938 392.429688 439.105469 395.496094 L 438.632812 395.152344 C 441.167969 393.878906 443.484375 392.746094 445.65625 391.683594 C 453.121094 388.03125 458.296875 385.496094 460.972656 382.867188 C 461.058594 382.785156 461.179688 382.753906 461.296875 382.785156 C 461.410156 382.816406 461.496094 382.910156 461.523438 383.023438 C 463.757812 392.242188 466.609375 396.199219 470.660156 397.667969 L 470.253906 398.121094 C 467.109375 391.730469 465.015625 386.386719 463.761719 382.144531 C 463.496094 381.246094 463.292969 380.113281 463.921875 378.949219 C 465.773438 375.527344 472.378906 372.070312 483.050781 368.277344 L 482.925781 368.359375 C 483.09375 368.1875 483.292969 368.058594 483.523438 368.023438 C 485.265625 367.765625 486.699219 373.644531 488.214844 383.933594 L 488.082031 383.714844 C 489.375 384.640625 491.328125 384.324219 494.105469 382.375 L 494.078125 382.394531 C 494.082031 382.390625 505.898438 372.246094 512.542969 365.117188 C 512.527344 365.132812 515 362.484375 517.066406 357.753906 C 517.117188 357.640625 517.230469 357.5625 517.355469 357.558594 L 521.753906 357.375 C 521.921875 357.371094 522.070312 357.492188 522.09375 357.660156 C 522.117188 357.828125 522.007812 357.984375 521.84375 358.023438 C 517.878906 358.988281 515.367188 362.09375 515.546875 363.273438 C 515.621094 363.75 515.808594 364.117188 516.042969 364.386719 C 516.636719 365.074219 517.375 365.058594 517.515625 364.9375 L 517.546875 364.917969 C 517.558594 364.90625 522.25 361.675781 523.8125 358.21875 C 524.300781 357.128906 524.683594 355.898438 524.75 354.835938 C 524.84375 353.382812 524.367188 352.386719 522.894531 352.292969 C 522.75 352.285156 522.625 352.179688 522.59375 352.039062 C 522.5625 351.898438 522.625 351.75 522.75 351.679688 C 523.738281 351.113281 524.382812 350.566406 524.773438 350.054688 C 525.78125 348.742188 525.164062 347.539062 523.886719 346.5625 C 523.796875 346.496094 523.75 346.390625 523.757812 346.28125 C 523.882812 344.328125 523.671875 344.265625 520.566406 343.863281 C 520.433594 343.847656 520.324219 343.75 520.289062 343.621094 C 520.253906 343.492188 520.300781 343.355469 520.40625 343.277344 C 520.78125 342.992188 521.007812 342.714844 521.089844 342.460938 C 521.277344 341.882812 520.742188 340.886719 517.050781 339.6875 L 517.214844 339.699219 C 515.765625 339.976562 514.414062 340.144531 513.152344 340.300781 C 509.960938 340.691406 507.3125 341.023438 504.679688 342.90625 C 502.335938 344.582031 498.582031 352.664062 495.019531 360.460938 L 494.671875 361.222656 L 494.332031 361.972656 C 494.316406 362.003906 494.296875 362.035156 494.273438 362.058594 C 490.316406 366.359375 486.550781 368.945312 482.976562 369.75 L 483.226562 369.363281 C 483.472656 370.535156 483.695312 371.636719 483.910156 372.695312 C 485.492188 380.507812 486.433594 385.085938 489.277344 387.558594 C 489.28125 387.5625 489.460938 387.703125 489.410156 387.925781 C 489.34375 388.203125 489.035156 388.207031 489.058594 388.203125 L 489.027344 387.878906 L 489.03125 388.207031 L 489.0625 388.203125 C 488.625 388.25 486.6875 387.816406 484.8125 387.371094 C 483.453125 387.050781 482.152344 386.726562 481.203125 386.492188 C 480.742188 386.378906 480.367188 386.285156 480.203125 386.246094 L 480.285156 386.257812 L 480.507812 386.164062 C 480.550781 386.125 479.449219 387.152344 479.070312 389.710938 C 479.089844 389.570312 478.792969 391.007812 481.664062 393.585938 L 481.441406 393.828125 L 481.183594 394.03125 C 481.160156 394.003906 480.027344 392.421875 479.039062 391.753906 C 478.507812 391.398438 478.296875 391.464844 478.183594 391.636719 C 477.375 392.832031 477.253906 394.863281 478.546875 396.628906 C 478.496094 396.558594 479.277344 397.683594 483.082031 399.164062 L 482.835938 399.769531 L 478.863281 398.082031 L 479.324219 397.777344 C 479.332031 399.933594 479.699219 401.007812 483.929688 402.78125 C 484.097656 402.851562 484.175781 403.039062 484.109375 403.203125 C 484.046875 403.371094 483.859375 403.453125 483.691406 403.394531 C 483.625 403.371094 483.539062 403.339844 483.472656 403.3125 C 482.65625 403.019531 482.078125 402.832031 481.910156 402.902344 L 481.785156 402.597656 L 481.910156 402.902344 C 481.910156 402.902344 481.914062 402.898438 481.921875 402.894531 C 482 402.835938 481.804688 403.074219 483.117188 404.753906 C 483.640625 405.421875 485.179688 406.230469 486.804688 406.992188 C 487.199219 407.175781 487.601562 407.359375 487.972656 407.527344 C 488.359375 407.703125 488.605469 407.816406 488.949219 407.976562 C 489.863281 408.40625 490.96875 409.058594 492.105469 409.730469 C 494.429688 411.101562 496.820312 412.503906 498.261719 412.539062 L 498.269531 412.539062 C 498.261719 412.539062 504.617188 412.871094 516.570312 413.382812 C 517.285156 413.414062 520.402344 411.902344 521.585938 410.125 C 523.035156 407.949219 524.148438 405.082031 525.085938 402.671875 C 526 400.316406 526.886719 397.824219 527.957031 397.953125 C 527.988281 397.957031 528.019531 397.964844 528.046875 397.976562 C 532.535156 399.894531 533.777344 400.875 533.597656 403.03125 C 533.546875 403.644531 533.378906 404.351562 533.1875 405.175781 C 532.882812 406.503906 532.488281 408.207031 532.292969 410.542969 C 531.804688 416.347656 528.941406 417.636719 525.25 417.8125 C 524.378906 417.851562 523.65625 417.515625 523.097656 416.988281 C 521.625 415.597656 521.171875 412.65625 522.253906 411.511719 C 522.980469 410.742188 525.234375 409.175781 526.828125 409.84375 C 528.46875 410.535156 527.910156 413.972656 527.609375 415.394531 C 527.476562 416.003906 527.257812 416.609375 526.941406 417.148438 C 525.996094 418.773438 524.199219 419.773438 521.769531 418.363281 L 521.757812 418.355469 C 521.765625 418.359375 521.761719 418.355469 521.765625 418.359375 L 521.761719 418.359375 C 521.371094 418.117188 516.40625 414.605469 525.308594 397.691406 L 525.441406 398.132812 C 524.695312 397.710938 523.96875 397.574219 523.164062 397.425781 C 522.023438 397.214844 520.773438 396.988281 519.34375 395.832031 C 518.226562 394.929688 512.742188 391.886719 506.097656 390.316406 C 503.3125 389.65625 491.742188 387.40625 490.105469 387.871094 C 490.058594 387.882812 490.035156 387.894531 490.027344 387.898438 C 489.949219 387.9375 490.230469 387.820312 490.101562 387.5625 L 490.105469 387.5625 C 490.074219 387.503906 490.035156 387.480469 490.042969 387.484375 L 489.855469 387.429688 L 490.042969 387.484375 C 490.3125 387.664062 492.046875 387.929688 494.261719 388.257812 C 497.273438 388.707031 501.304688 389.269531 501.859375 390.066406 L 501.585938 390.253906 L 501.859375 390.066406 C 501.875 390.089844 501.890625 390.117188 501.902344 390.144531 C 502.125 390.585938 501.703125 390.886719 501.425781 391.023438 C 501.410156 391.03125 501.410156 391.03125 501.390625 391.039062 L 501.390625 391.042969 C 497.792969 392.765625 487.644531 389.296875 483.339844 387.835938 C 482.179688 387.445312 481.480469 387.210938 481.332031 387.195312 C 481.300781 387.191406 481.375 387.207031 481.460938 387.167969 L 481.464844 387.164062 C 474.902344 390.3125 474.296875 398.238281 474.378906 407.015625 C 474.386719 408.035156 474.40625 409.0625 474.425781 410.09375 C 474.441406 411.121094 474.460938 412.160156 474.46875 413.183594 C 474.488281 415.28125 474.441406 417.332031 474.34375 419.332031 C 473.777344 430.542969 471.53125 440.152344 469.917969 447.046875 C 469.011719 450.941406 468.3125 453.933594 468.214844 455.882812 C 468.203125 456.058594 468.058594 456.199219 467.878906 456.195312 C 452.179688 455.949219 446.992188 455.964844 436.542969 456.015625 L 435.457031 456.019531 L 434.292969 456.027344 L 434.085938 456.027344 C 433.90625 456.027344 433.757812 455.882812 433.757812 455.699219 C 433.753906 455.519531 433.902344 455.371094 434.085938 455.371094 Z M 434.085938 455.371094 " fill-opacity="1" fill-rule="nonzero"/></g></svg>