<svg xmlns="http://www.w3.org/2000/svg" xmlns:xlink="http://www.w3.org/1999/xlink" width="1366" zoomAndPan="magnify" viewBox="0 0 1024.5 576" height="768" preserveAspectRatio="xMidYMid meet" version="1.0"><defs><g/><clipPath id="33b1f52288"><path d="M 0 0.140625 L 1024 0.140625 L 1024 575.859375 L 0 575.859375 Z M 0 0.140625 " clip-rule="nonzero"/></clipPath><clipPath id="30cc1c0936"><path d="M 426.886719 150 L 473.046875 150 L 473.046875 174.875 L 426.886719 174.875 Z M 426.886719 150 " clip-rule="nonzero"/></clipPath><clipPath id="87e1f7be11"><path d="M 430 145.5 L 470 145.5 L 470 173 L 430 173 Z M 430 145.5 " clip-rule="nonzero"/></clipPath><clipPath id="007fbf413f"><path d="M 307.351562 221.65625 L 716.851562 221.65625 L 716.851562 414.40625 L 307.351562 414.40625 Z M 307.351562 221.65625 " clip-rule="nonzero"/></clipPath></defs><g clip-path="url(#33b1f52288)"><path fill="#ffffff" d="M 0 0.140625 L 1024.5 0.140625 L 1024.5 583.640625 L 0 583.640625 Z M 0 0.140625 " fill-opacity="1" fill-rule="nonzero"/><path fill="#ffffff" d="M 0 0.140625 L 1024.5 0.140625 L 1024.5 576.140625 L 0 576.140625 Z M 0 0.140625 " fill-opacity="1" fill-rule="nonzero"/><path fill="#374151" d="M 0 0.140625 L 1024.5 0.140625 L 1024.5 576.140625 L 0 576.140625 Z M 0 0.140625 " fill-opacity="1" fill-rule="nonzero"/></g><g clip-path="url(#30cc1c0936)"><path fill="#ffffff" d="M 470.285156 150.574219 L 470.273438 150.652344 L 468.554688 169.347656 L 468.480469 170.199219 L 467.613281 170.089844 L 466.964844 170.007812 C 465.667969 169.84375 464.394531 169.753906 463.179688 169.753906 C 457.308594 169.753906 453.738281 171.699219 452.132812 172.859375 L 449.96875 173.023438 L 449.960938 173.023438 L 447.796875 172.859375 C 446.191406 171.699219 442.621094 169.753906 436.75 169.753906 C 435.535156 169.753906 434.261719 169.84375 432.964844 170.007812 L 432.316406 170.089844 L 431.449219 170.199219 L 431.375 169.347656 L 429.65625 150.652344 L 429.648438 150.574219 L 426.90625 150.574219 L 429.699219 171.75 L 448.121094 174.875 L 451.808594 174.875 L 470.230469 171.75 L 473.023438 150.574219 L 470.285156 150.574219 " fill-opacity="1" fill-rule="nonzero"/></g><g clip-path="url(#87e1f7be11)"><path fill="#ffffff" d="M 432.777344 149.449219 L 432.882812 150.523438 L 434.289062 165.070312 L 434.777344 165.140625 C 434.863281 165.148438 441.664062 166.175781 446.253906 169.585938 C 444.050781 168.578125 440.933594 167.695312 436.789062 167.695312 C 435.707031 167.695312 434.5625 167.757812 433.34375 167.890625 L 431.757812 150.574219 L 431.664062 149.550781 C 432.050781 149.507812 432.417969 149.476562 432.777344 149.449219 Z M 444.179688 149.40625 C 447.230469 150.984375 448.84375 152.800781 449.316406 153.386719 L 449.316406 170.730469 C 445.355469 166.015625 437.507812 164.363281 435.449219 164 L 434.132812 150.398438 L 433.78125 146.773438 C 438.296875 146.988281 441.710938 148.121094 444.179688 149.40625 Z M 450.617188 153.386719 C 451.085938 152.800781 452.699219 150.984375 455.75 149.40625 C 458.21875 148.121094 461.632812 146.988281 466.148438 146.773438 L 465.796875 150.398438 L 464.480469 164 C 462.421875 164.363281 454.574219 166.015625 450.617188 170.730469 Z M 467.046875 150.523438 L 467.152344 149.449219 C 467.511719 149.476562 467.882812 149.507812 468.269531 149.550781 L 468.175781 150.574219 L 466.585938 167.890625 C 465.367188 167.757812 464.222656 167.695312 463.140625 167.695312 C 459 167.695312 455.878906 168.578125 453.675781 169.585938 C 458.265625 166.175781 465.066406 165.148438 465.152344 165.140625 L 465.640625 165.070312 Z M 432.207031 169.277344 L 432.859375 169.195312 C 437.308594 168.617188 440.789062 169.074219 443.394531 169.851562 C 443.648438 169.929688 443.894531 170.007812 444.132812 170.089844 C 444.375 170.171875 444.601562 170.257812 444.824219 170.34375 C 445.046875 170.429688 445.261719 170.515625 445.46875 170.605469 C 446.492188 171.054688 447.316406 171.53125 447.941406 171.953125 C 448.066406 172.039062 448.1875 172.121094 448.292969 172.199219 L 451.636719 172.199219 C 451.742188 172.121094 451.863281 172.039062 451.988281 171.953125 C 452.613281 171.53125 453.4375 171.054688 454.460938 170.605469 C 454.671875 170.515625 454.882812 170.429688 455.105469 170.34375 C 455.328125 170.257812 455.554688 170.171875 455.796875 170.089844 C 456.035156 170.007812 456.28125 169.929688 456.539062 169.851562 C 459.140625 169.074219 462.621094 168.617188 467.074219 169.195312 L 467.722656 169.277344 L 469.441406 150.574219 L 469.632812 148.457031 L 469.027344 148.390625 C 468.414062 148.320312 467.828125 148.261719 467.269531 148.222656 L 467.535156 145.496094 L 466.824219 145.515625 C 460.640625 145.671875 456.355469 147.425781 453.578125 149.1875 C 451.757812 150.34375 450.589844 151.5 449.96875 152.210938 L 449.960938 152.210938 C 449.34375 151.5 448.171875 150.34375 446.351562 149.1875 C 443.574219 147.425781 439.289062 145.671875 433.105469 145.515625 L 432.394531 145.496094 L 432.660156 148.222656 C 432.101562 148.261719 431.515625 148.320312 430.90625 148.390625 L 430.296875 148.457031 L 430.492188 150.574219 L 432.207031 169.277344 " fill-opacity="1" fill-rule="nonzero"/></g><g fill="#ffffff" fill-opacity="1"><g transform="translate(482.46965, 167.68624)"><g><path d="M 1.640625 -0.109375 C 2.179688 -0.847656 2.453125 -1.832031 2.453125 -3.0625 L 2.453125 -13.3125 C 2.453125 -14.550781 2.179688 -15.535156 1.640625 -16.265625 L 1.640625 -16.390625 L 8.28125 -16.390625 C 10.125 -16.390625 11.664062 -16.015625 12.90625 -15.265625 C 14.144531 -14.523438 14.765625 -13.300781 14.765625 -11.59375 C 14.765625 -10.476562 14.472656 -9.550781 13.890625 -8.8125 C 13.316406 -8.070312 12.566406 -7.53125 11.640625 -7.1875 C 10.710938 -6.84375 9.726562 -6.671875 8.6875 -6.671875 C 7.9375 -6.671875 7.222656 -6.800781 6.546875 -7.0625 L 6.546875 -7.4375 C 7.003906 -7.332031 7.472656 -7.28125 7.953125 -7.28125 C 9.015625 -7.28125 9.832031 -7.6875 10.40625 -8.5 C 10.976562 -9.320312 11.265625 -10.351562 11.265625 -11.59375 C 11.265625 -12.757812 10.96875 -13.753906 10.375 -14.578125 C 9.789062 -15.410156 8.960938 -15.828125 7.890625 -15.828125 C 7.171875 -15.828125 6.492188 -15.707031 5.859375 -15.46875 L 5.859375 -3.0625 C 5.859375 -1.832031 6.128906 -0.847656 6.671875 -0.109375 L 6.671875 0 L 1.640625 0 Z M 1.640625 -0.109375 "/></g></g></g><g fill="#ffffff" fill-opacity="1"><g transform="translate(497.183104, 167.68624)"><g><path d="M 1.359375 -0.109375 C 1.554688 -0.410156 1.710938 -0.789062 1.828125 -1.25 C 1.953125 -1.707031 2.015625 -2.210938 2.015625 -2.765625 L 2.015625 -13.4375 C 2.015625 -14.070312 1.941406 -14.59375 1.796875 -15 C 1.660156 -15.40625 1.453125 -15.742188 1.171875 -16.015625 L 1.171875 -16.125 L 5.0625 -17.4375 L 5.171875 -17.4375 L 5.171875 -2.765625 C 5.171875 -2.210938 5.226562 -1.707031 5.34375 -1.25 C 5.46875 -0.789062 5.628906 -0.410156 5.828125 -0.109375 L 5.828125 0 L 1.359375 0 Z M 1.359375 -0.109375 "/></g></g></g><g fill="#ffffff" fill-opacity="1"><g transform="translate(503.779436, 167.68624)"><g><path d="M 11.640625 -3.953125 C 11.367188 -2.660156 10.769531 -1.628906 9.84375 -0.859375 C 8.925781 -0.0859375 7.804688 0.296875 6.484375 0.296875 C 5.441406 0.296875 4.5 0.0664062 3.65625 -0.390625 C 2.8125 -0.847656 2.140625 -1.519531 1.640625 -2.40625 C 1.148438 -3.300781 0.90625 -4.359375 0.90625 -5.578125 C 0.90625 -6.835938 1.171875 -7.953125 1.703125 -8.921875 C 2.234375 -9.898438 2.941406 -10.65625 3.828125 -11.1875 C 4.722656 -11.726562 5.691406 -12 6.734375 -12 C 7.703125 -12 8.546875 -11.796875 9.265625 -11.390625 C 9.984375 -10.992188 10.53125 -10.453125 10.90625 -9.765625 C 11.28125 -9.078125 11.46875 -8.332031 11.46875 -7.53125 L 3.46875 -7.53125 C 3.507812 -6.363281 3.738281 -5.363281 4.15625 -4.53125 C 4.582031 -3.695312 5.132812 -3.066406 5.8125 -2.640625 C 6.488281 -2.222656 7.234375 -2.015625 8.046875 -2.015625 C 8.816406 -2.015625 9.492188 -2.1875 10.078125 -2.53125 C 10.660156 -2.875 11.101562 -3.347656 11.40625 -3.953125 Z M 5.859375 -11.328125 C 5.148438 -11.328125 4.578125 -11.050781 4.140625 -10.5 C 3.703125 -9.945312 3.476562 -9.140625 3.46875 -8.078125 L 8.359375 -8.078125 C 8.265625 -9.078125 8 -9.867188 7.5625 -10.453125 C 7.132812 -11.035156 6.566406 -11.328125 5.859375 -11.328125 Z M 5.859375 -11.328125 "/></g></g></g><g fill="#ffffff" fill-opacity="1"><g transform="translate(515.615647, 167.68624)"><g><path d="M 6.875 0.296875 C 4.925781 0.296875 3.226562 -0.164062 1.78125 -1.09375 L 1.78125 -13.4375 C 1.78125 -14.070312 1.707031 -14.59375 1.5625 -15 C 1.425781 -15.40625 1.21875 -15.742188 0.9375 -16.015625 L 0.9375 -16.125 L 4.828125 -17.4375 L 4.9375 -17.4375 L 4.9375 -9.90625 L 5.0625 -9.90625 C 5.4375 -10.5625 5.925781 -11.070312 6.53125 -11.4375 C 7.132812 -11.8125 7.835938 -12 8.640625 -12 C 9.554688 -12 10.363281 -11.757812 11.0625 -11.28125 C 11.769531 -10.8125 12.3125 -10.132812 12.6875 -9.25 C 13.070312 -8.375 13.265625 -7.359375 13.265625 -6.203125 C 13.265625 -5.046875 13 -3.972656 12.46875 -2.984375 C 11.945312 -1.992188 11.203125 -1.195312 10.234375 -0.59375 C 9.265625 0 8.144531 0.296875 6.875 0.296875 Z M 7 -0.234375 C 7.914062 -0.234375 8.625 -0.710938 9.125 -1.671875 C 9.625 -2.628906 9.875 -3.929688 9.875 -5.578125 C 9.875 -7.085938 9.632812 -8.265625 9.15625 -9.109375 C 8.6875 -9.953125 8.03125 -10.375 7.1875 -10.375 C 6.570312 -10.375 6.0625 -10.1875 5.65625 -9.8125 C 5.257812 -9.445312 5.019531 -8.976562 4.9375 -8.40625 L 4.9375 -1.890625 C 5.019531 -1.441406 5.238281 -1.050781 5.59375 -0.71875 C 5.945312 -0.394531 6.414062 -0.234375 7 -0.234375 Z M 7 -0.234375 "/></g></g></g><g fill="#ffffff" fill-opacity="1"><g transform="translate(529.323244, 167.68624)"><g><path d="M 1.640625 -0.109375 C 2.179688 -0.847656 2.453125 -1.832031 2.453125 -3.0625 L 2.453125 -13.3125 C 2.453125 -14.550781 2.179688 -15.535156 1.640625 -16.265625 L 1.640625 -16.390625 L 8.59375 -16.390625 C 10.25 -16.390625 11.617188 -16.078125 12.703125 -15.453125 C 13.796875 -14.828125 14.34375 -13.84375 14.34375 -12.5 C 14.34375 -11.46875 13.984375 -10.640625 13.265625 -10.015625 C 12.546875 -9.390625 11.691406 -9 10.703125 -8.84375 L 10.703125 -8.75 C 11.878906 -8.613281 12.882812 -8.171875 13.71875 -7.421875 C 14.5625 -6.679688 14.984375 -5.707031 14.984375 -4.5 C 14.984375 -2.9375 14.363281 -1.796875 13.125 -1.078125 C 11.894531 -0.359375 10.382812 0 8.59375 0 L 1.640625 0 Z M 7.5625 -9.0625 C 8.59375 -9.0625 9.394531 -9.375 9.96875 -10 C 10.550781 -10.625 10.84375 -11.441406 10.84375 -12.453125 C 10.84375 -13.429688 10.546875 -14.238281 9.953125 -14.875 C 9.367188 -15.507812 8.578125 -15.828125 7.578125 -15.828125 C 7.003906 -15.828125 6.429688 -15.71875 5.859375 -15.5 L 5.859375 -9.0625 Z M 7.75 -0.5625 C 8.851562 -0.5625 9.738281 -0.914062 10.40625 -1.625 C 11.082031 -2.332031 11.421875 -3.289062 11.421875 -4.5 C 11.421875 -5.738281 11.078125 -6.707031 10.390625 -7.40625 C 9.703125 -8.113281 8.78125 -8.46875 7.625 -8.46875 L 5.859375 -8.46875 L 5.859375 -0.984375 C 6.367188 -0.703125 7 -0.5625 7.75 -0.5625 Z M 7.75 -0.5625 "/></g></g></g><g fill="#ffffff" fill-opacity="1"><g transform="translate(544.808655, 167.68624)"><g><path d="M 6.8125 0.296875 C 5.65625 0.296875 4.625 0.0351562 3.71875 -0.484375 C 2.8125 -1.015625 2.101562 -1.742188 1.59375 -2.671875 C 1.09375 -3.609375 0.84375 -4.671875 0.84375 -5.859375 C 0.84375 -7.035156 1.09375 -8.085938 1.59375 -9.015625 C 2.101562 -9.953125 2.8125 -10.679688 3.71875 -11.203125 C 4.625 -11.734375 5.65625 -12 6.8125 -12 C 7.945312 -12 8.96875 -11.734375 9.875 -11.203125 C 10.78125 -10.679688 11.484375 -9.953125 11.984375 -9.015625 C 12.492188 -8.085938 12.75 -7.035156 12.75 -5.859375 C 12.75 -4.671875 12.492188 -3.609375 11.984375 -2.671875 C 11.484375 -1.742188 10.78125 -1.015625 9.875 -0.484375 C 8.96875 0.0351562 7.945312 0.296875 6.8125 0.296875 Z M 6.8125 -0.234375 C 7.664062 -0.234375 8.300781 -0.742188 8.71875 -1.765625 C 9.144531 -2.785156 9.359375 -4.148438 9.359375 -5.859375 C 9.359375 -7.554688 9.144531 -8.914062 8.71875 -9.9375 C 8.300781 -10.957031 7.664062 -11.46875 6.8125 -11.46875 C 5.957031 -11.46875 5.3125 -10.957031 4.875 -9.9375 C 4.445312 -8.914062 4.234375 -7.554688 4.234375 -5.859375 C 4.234375 -4.148438 4.445312 -2.785156 4.875 -1.765625 C 5.3125 -0.742188 5.957031 -0.234375 6.8125 -0.234375 Z M 6.8125 -0.234375 "/></g></g></g><g fill="#ffffff" fill-opacity="1"><g transform="translate(557.931429, 167.68624)"><g><path d="M 6.8125 0.296875 C 5.65625 0.296875 4.625 0.0351562 3.71875 -0.484375 C 2.8125 -1.015625 2.101562 -1.742188 1.59375 -2.671875 C 1.09375 -3.609375 0.84375 -4.671875 0.84375 -5.859375 C 0.84375 -7.035156 1.09375 -8.085938 1.59375 -9.015625 C 2.101562 -9.953125 2.8125 -10.679688 3.71875 -11.203125 C 4.625 -11.734375 5.65625 -12 6.8125 -12 C 7.945312 -12 8.96875 -11.734375 9.875 -11.203125 C 10.78125 -10.679688 11.484375 -9.953125 11.984375 -9.015625 C 12.492188 -8.085938 12.75 -7.035156 12.75 -5.859375 C 12.75 -4.671875 12.492188 -3.609375 11.984375 -2.671875 C 11.484375 -1.742188 10.78125 -1.015625 9.875 -0.484375 C 8.96875 0.0351562 7.945312 0.296875 6.8125 0.296875 Z M 6.8125 -0.234375 C 7.664062 -0.234375 8.300781 -0.742188 8.71875 -1.765625 C 9.144531 -2.785156 9.359375 -4.148438 9.359375 -5.859375 C 9.359375 -7.554688 9.144531 -8.914062 8.71875 -9.9375 C 8.300781 -10.957031 7.664062 -11.46875 6.8125 -11.46875 C 5.957031 -11.46875 5.3125 -10.957031 4.875 -9.9375 C 4.445312 -8.914062 4.234375 -7.554688 4.234375 -5.859375 C 4.234375 -4.148438 4.445312 -2.785156 4.875 -1.765625 C 5.3125 -0.742188 5.957031 -0.234375 6.8125 -0.234375 Z M 6.8125 -0.234375 "/></g></g></g><g fill="#ffffff" fill-opacity="1"><g transform="translate(571.054204, 167.68624)"><g><path d="M 1.359375 -0.109375 C 1.554688 -0.410156 1.710938 -0.789062 1.828125 -1.25 C 1.953125 -1.707031 2.015625 -2.210938 2.015625 -2.765625 L 2.015625 -13.4375 C 2.015625 -14.070312 1.941406 -14.59375 1.796875 -15 C 1.660156 -15.40625 1.453125 -15.742188 1.171875 -16.015625 L 1.171875 -16.125 L 5.0625 -17.4375 L 5.171875 -17.4375 L 5.171875 -2.765625 C 5.171875 -2.210938 5.226562 -1.707031 5.34375 -1.25 C 5.46875 -0.789062 5.628906 -0.410156 5.828125 -0.109375 L 5.828125 0 L 1.359375 0 Z M 11.71875 0.1875 C 10.988281 0.1875 10.382812 0.0546875 9.90625 -0.203125 C 9.4375 -0.472656 8.984375 -0.910156 8.546875 -1.515625 L 5.640625 -5.484375 L 5.640625 -5.59375 L 8.515625 -8.890625 C 9.128906 -9.597656 9.4375 -10.203125 9.4375 -10.703125 C 9.4375 -11.054688 9.300781 -11.351562 9.03125 -11.59375 L 9.03125 -11.703125 L 12.609375 -11.703125 L 12.609375 -11.59375 C 11.960938 -11.28125 11.398438 -10.941406 10.921875 -10.578125 C 10.441406 -10.222656 9.929688 -9.75 9.390625 -9.15625 L 7.984375 -7.625 L 12.421875 -1.640625 C 12.953125 -0.921875 13.351562 -0.515625 13.625 -0.421875 L 13.625 -0.25 C 13.375 -0.125 13.078125 -0.0195312 12.734375 0.0625 C 12.390625 0.144531 12.050781 0.1875 11.71875 0.1875 Z M 11.71875 0.1875 "/></g></g></g><g clip-path="url(#007fbf413f)"><path fill="#ffffff" d="M 308.269531 407.480469 L 341.207031 407.8125 L 340.664062 408.144531 C 341.757812 405.941406 341.082031 391.085938 337.804688 376.191406 C 336.503906 370.28125 333.6875 366.1875 330.957031 362.226562 C 328.511719 358.675781 326.109375 355.203125 325.113281 350.679688 C 325.042969 350.363281 324.980469 350.042969 324.925781 349.71875 C 323.90625 343.710938 320.65625 315.960938 324.46875 301.015625 L 324.601562 301.558594 C 320.949219 297.386719 318.761719 293.078125 318.753906 293.0625 C 317.710938 291.011719 317.148438 286.835938 317.152344 286.847656 L 317.152344 286.859375 L 317.746094 286.765625 L 317.1875 286.988281 C 314.308594 279.683594 314.660156 278.46875 315.242188 278.140625 C 315.425781 278.039062 315.621094 278.007812 315.800781 278.015625 L 315.769531 278.015625 L 315.800781 278.015625 C 318.058594 278.128906 324.425781 287.625 324.257812 287.378906 L 323.164062 287.664062 C 323.792969 280.847656 324.929688 271.71875 328.695312 268.402344 L 328.507812 269 C 328.304688 268.164062 327.730469 267.335938 326.589844 267.128906 C 317.488281 265.464844 315.0625 264.476562 314.089844 262.539062 L 314.066406 262.480469 C 313.089844 259.914062 313.960938 258.789062 314.921875 258.425781 C 315.226562 258.308594 315.472656 258.296875 315.511719 258.292969 C 320.121094 258.140625 326.632812 260.316406 332.167969 262.164062 C 333.746094 262.6875 335.25 263.191406 336.628906 263.613281 C 337.929688 264.011719 338.675781 264.40625 338.703125 264.421875 L 337.859375 264.734375 C 338.644531 262.6875 335.214844 257.925781 331.039062 252.308594 C 328.292969 248.609375 325.398438 244.71875 323.941406 241.511719 C 322.464844 238.257812 324.3125 236.5 325.632812 235.898438 C 325.988281 235.734375 326.355469 235.632812 326.632812 235.628906 C 326.710938 235.628906 326.835938 235.632812 326.964844 235.683594 C 330.492188 237.054688 333.332031 241.621094 336.050781 245.941406 C 338.953125 250.550781 341.738281 254.921875 345.113281 256.230469 C 345.285156 256.300781 345.460938 256.359375 345.636719 256.410156 L 344.875 257.042969 C 344.273438 250.683594 342.203125 244.929688 339.574219 237.632812 C 339.007812 236.0625 338.414062 234.417969 337.808594 232.6875 C 337.191406 230.929688 336.859375 225.496094 338.976562 224.753906 C 340.015625 224.386719 341.082031 225.257812 342.121094 226.699219 C 346.542969 232.828125 349.21875 239.886719 351.148438 244.976562 C 352.273438 247.945312 353.113281 250.144531 353.878906 251.207031 C 354.230469 251.695312 354.433594 251.75 354.488281 251.75 L 353.878906 252.367188 L 353.234375 226.753906 L 353.234375 226.6875 C 353.488281 223.550781 354.527344 221.671875 356.308594 221.816406 C 357.597656 221.921875 358.800781 223.148438 359.644531 224.664062 C 361.597656 228.167969 362.839844 237.289062 363.984375 245.613281 C 364.898438 252.273438 365.753906 258.460938 366.820312 261.324219 C 366.820312 261.316406 366.816406 261.3125 366.816406 261.3125 C 367.019531 261.753906 368.441406 263.269531 369.703125 262.796875 C 369.820312 262.753906 369.941406 262.691406 370.066406 262.609375 C 371.65625 261.550781 372.609375 260.027344 373.636719 258.371094 C 374.648438 256.738281 375.730469 254.976562 377.585938 253.742188 C 378.058594 253.425781 378.582031 253.144531 379.164062 252.910156 C 381.023438 252.15625 382.960938 251.296875 384.238281 252.574219 C 384.414062 252.746094 384.464844 253.007812 384.367188 253.234375 C 382.277344 258.203125 380.359375 262.445312 378.6875 266.140625 C 377.394531 269.003906 376.25 271.535156 375.285156 273.828125 C 372.0625 281.476562 370.882812 286.339844 372.6875 291.742188 C 375.882812 301.300781 386.257812 330.289062 393.859375 338.625 C 401.578125 347.089844 416.460938 367.054688 420.507812 382.101562 C 424.125 395.539062 418.789062 405.210938 416.59375 409.203125 C 416.113281 410.070312 415.847656 410.5625 415.785156 410.800781 C 415.183594 413.132812 414.132812 414.425781 412.574219 414.019531 C 409.335938 413.179688 405.519531 403.910156 405.589844 404.082031 L 405.542969 403.851562 L 406.144531 403.847656 L 405.625 404.148438 C 405.617188 404.140625 405.613281 404.128906 405.609375 404.121094 C 405.515625 403.933594 405.523438 403.710938 405.632812 403.535156 C 411.15625 394.484375 410.832031 390.816406 410.84375 390.984375 C 410.617188 387.738281 407.609375 386.816406 405.859375 386.9375 C 405.414062 386.96875 405.195312 387.066406 405.152344 387.101562 C 405.148438 387.105469 405.210938 387.058594 405.234375 386.945312 C 404.039062 392.292969 401.003906 394.671875 396.753906 393.71875 C 390.738281 392.371094 382.566406 384.335938 374.328125 370.785156 C 367.613281 359.742188 359.351562 328.425781 354.851562 311.386719 C 353.160156 304.976562 352.023438 300.699219 351.6875 300.070312 C 348.453125 293.992188 334.199219 273.203125 334.183594 273.183594 L 335.269531 272.960938 C 335.039062 274.097656 336.617188 276.285156 338.984375 279.421875 C 342.242188 283.734375 346.625 289.460938 345.582031 294.621094 C 345.125 296.894531 343.632812 298.976562 340.757812 300.746094 L 341.035156 300.335938 C 339.78125 307.332031 339.855469 318.683594 339.855469 318.734375 L 339.855469 318.738281 L 339.855469 318.734375 C 339.945312 331.742188 349.261719 346.476562 355.59375 356.46875 C 356.664062 358.15625 357.648438 359.710938 358.480469 361.089844 C 358.757812 361.546875 359.074219 362.035156 359.425781 362.578125 C 359.851562 363.238281 360.328125 363.980469 360.84375 364.832031 C 363.703125 369.566406 367.667969 377.726562 371.203125 396.210938 C 371.265625 396.53125 371.0625 396.839844 370.746094 396.914062 C 370.429688 396.984375 370.113281 396.792969 370.03125 396.476562 C 370.003906 396.371094 369.972656 396.261719 369.941406 396.136719 C 369.90625 395.996094 369.863281 395.835938 369.820312 395.675781 C 368.074219 388.996094 362.230469 364.050781 389.890625 351.140625 C 395.257812 348.632812 419.914062 349.507812 427.898438 361.5 C 436.21875 374.003906 429.371094 396.226562 429.160156 396.820312 L 429.195312 396.613281 L 429.160156 396.820312 C 429.222656 396.640625 429.140625 396.984375 428.921875 397.128906 L 428.515625 397.226562 L 428.089844 396.96875 C 427.871094 396.648438 428.132812 396.058594 428.054688 396.304688 L 428.085938 396.226562 C 428.085938 396.230469 428.082031 396.234375 428.082031 396.230469 C 428.84375 394.152344 421.605469 366.683594 407.410156 350.789062 L 407.402344 350.785156 C 400.539062 342.859375 401.363281 332.929688 401.363281 332.894531 L 401.964844 332.945312 L 401.363281 332.894531 C 402.058594 324.496094 400.25 320.839844 398.554688 317.394531 C 397.792969 315.84375 397.027344 314.289062 396.53125 312.375 C 395.367188 307.878906 393.15625 293.894531 393.855469 282.523438 L 393.871094 282.691406 C 391.925781 273.890625 388.871094 268.917969 386.480469 265.023438 C 384.972656 262.566406 383.667969 260.449219 383.140625 258.066406 C 383.105469 257.914062 383.078125 257.761719 383.050781 257.609375 C 382.660156 255.394531 383.996094 254.285156 385.230469 253.222656 C 385.398438 253.078125 385.554688 252.945312 385.722656 252.796875 C 385.9375 252.605469 386.257812 252.59375 386.484375 252.765625 C 390.539062 255.855469 393.980469 261.757812 396.667969 266.355469 C 398.519531 269.523438 399.957031 271.957031 401.015625 272.765625 C 401.359375 273.027344 401.488281 272.980469 401.511719 272.96875 L 401.160156 273.40625 C 402.199219 268.09375 400.003906 261.078125 397.117188 251.945312 C 396.445312 249.808594 395.734375 247.566406 395.027344 245.214844 C 394.601562 243.796875 395.015625 240.144531 396.8125 239.605469 C 397.101562 239.519531 397.402344 239.519531 397.703125 239.613281 C 400.886719 240.597656 401.988281 243.328125 405.664062 251.949219 C 405.96875 252.664062 406.328125 253.515625 406.675781 254.324219 C 406.945312 254.949219 407.277344 256.238281 407.660156 257.722656 C 408.289062 260.148438 409.089844 263.234375 410.058594 265.5 C 410.835938 267.316406 411.570312 268.222656 412.140625 268.316406 L 411.488281 268.675781 C 413.695312 263.484375 413.210938 255.296875 413.210938 255.273438 L 413.8125 255.234375 L 413.210938 255.269531 C 413.011719 251.972656 412.292969 249.828125 411.601562 247.765625 C 410.988281 245.933594 410.382812 244.140625 410.238281 241.722656 C 410.191406 240.957031 410.191406 240.132812 410.25 239.222656 C 410.371094 237.28125 411.066406 235.75 412.5625 235.84375 C 414.15625 235.945312 415.859375 238.074219 417.125 241.125 C 419.53125 246.925781 423.269531 260.234375 423.261719 260.21875 L 422.085938 260.328125 C 422.71875 252.964844 422.890625 249.046875 422.890625 249.054688 C 422.894531 248.976562 422.878906 248.828125 422.839844 248.539062 C 422.785156 248.078125 422.699219 247.410156 422.734375 246.625 C 422.789062 245.378906 423.148438 243.84375 424.355469 242.300781 C 425.296875 241.101562 426.421875 240.25 427.460938 241.070312 C 428.371094 241.785156 428.757812 243.734375 429.011719 245.859375 C 430.457031 257.828125 430.867188 274.78125 428.613281 285.570312 C 427.640625 290.21875 426.253906 293.894531 425.011719 297.1875 C 423.980469 299.917969 423.0625 302.359375 422.527344 304.90625 C 422.070312 307.097656 421.902344 309.371094 422.210938 311.945312 C 422.683594 315.871094 426.761719 328.550781 427.941406 330.167969 C 442.65625 350.3125 464.035156 391.007812 465.617188 404.773438 L 464.417969 404.863281 C 463.226562 365.429688 462.746094 359.894531 462.746094 359.914062 L 463.347656 359.859375 L 462.746094 359.910156 C 462.300781 354.769531 466.589844 351.894531 472.144531 348.066406 C 475.234375 345.9375 478.828125 343.464844 482.546875 340.101562 C 482.464844 340.175781 482.453125 340.25 482.453125 340.246094 C 482.570312 339.609375 481.261719 336.78125 478.960938 331.960938 C 475.488281 324.6875 470.210938 313.632812 466.730469 301.574219 C 461.203125 282.414062 457.492188 273.238281 454.21875 265.140625 C 452.867188 261.804688 451.589844 258.640625 450.285156 255.035156 C 449.191406 252 447.304688 249.6875 445.558594 247.546875 C 444.175781 245.855469 442.832031 244.222656 442.195312 242.460938 C 441.949219 241.773438 441.804688 241.058594 441.804688 240.304688 C 441.804688 238.074219 442.296875 236.523438 443.527344 236.523438 C 443.992188 236.523438 444.375 236.789062 444.628906 237.070312 L 445.042969 237.527344 L 445.5 238.03125 C 448.414062 241.25 452.492188 245.792969 456.085938 250.742188 L 455.015625 251.242188 C 454.085938 247.503906 452.75 243.574219 451.550781 240.035156 C 450.582031 237.195312 449.695312 234.585938 449.195312 232.574219 C 448.804688 230.992188 448.585938 229.558594 448.953125 228.691406 C 449.269531 227.945312 449.6875 227.246094 450.355469 227.078125 C 450.46875 227.050781 450.582031 227.039062 450.699219 227.042969 C 450.859375 227.050781 451.011719 227.089844 451.148438 227.148438 C 452.464844 227.707031 453.898438 230.960938 455.972656 235.503906 L 456.414062 236.46875 L 455.285156 236.871094 C 453.640625 230.425781 454.382812 226.847656 454.402344 226.765625 C 454.40625 226.738281 454.414062 226.707031 454.421875 226.675781 L 454.421875 226.679688 C 454.5 226.402344 454.78125 225.964844 455.332031 226.082031 C 455.460938 226.109375 455.566406 226.164062 455.648438 226.214844 C 456.441406 226.726562 457.875 229.417969 459.332031 232.21875 C 460.160156 233.820312 460.820312 236.21875 461.40625 238.347656 C 461.832031 239.894531 462.21875 241.296875 462.613281 242.261719 C 462.867188 242.878906 462.636719 241.8125 461.933594 242.101562 C 461.511719 242.273438 461.570312 242.789062 461.582031 242.550781 L 462.183594 242.582031 L 461.582031 242.550781 C 461.59375 242.332031 461.453125 241.339844 461.226562 239.804688 C 460.859375 237.339844 460.328125 233.746094 460.203125 231 C 460.089844 228.480469 460.625 226.835938 461.367188 226.320312 C 461.5 226.226562 461.671875 226.148438 461.878906 226.136719 C 462.246094 226.121094 462.519531 226.335938 462.660156 226.589844 C 466.84375 233.933594 474.03125 270.75 474.027344 270.746094 L 474.03125 270.757812 L 473.925781 270.503906 C 475.542969 272.722656 473.234375 276.898438 470.359375 279 C 467.917969 280.789062 464.605469 281.515625 461.664062 278.910156 L 462.574219 278.140625 C 462.410156 277.878906 462.148438 277.921875 462.210938 277.917969 L 462.25 278.519531 L 462.210938 277.917969 C 462.492188 277.898438 463.433594 277.445312 464.949219 276.691406 C 468.230469 275.054688 474.835938 271.589844 476.808594 274.742188 C 477.019531 275.082031 477.164062 275.476562 477.242188 275.921875 C 479.199219 286.816406 490.140625 303.800781 506.46875 324.691406 C 506.660156 324.933594 506.636719 325.28125 506.414062 325.496094 C 482.640625 348.570312 473.253906 368.648438 477.738281 385.804688 L 476.554688 385.988281 C 476.199219 379.007812 479.191406 371.957031 484.289062 364.132812 C 485.894531 361.667969 497.964844 354.871094 508.15625 349.113281 C 516.265625 344.527344 523.089844 340.644531 523.671875 339.746094 C 523.675781 339.746094 523.671875 339.75 523.671875 339.746094 C 523.675781 339.742188 523.65625 339.769531 523.640625 339.828125 L 523.636719 340.085938 C 514.25 292.054688 511.171875 286.5625 511.09375 286.429688 C 511.089844 286.421875 511.097656 286.433594 511.109375 286.449219 L 511.609375 286.113281 L 511.101562 286.441406 C 509.691406 284.246094 508.492188 282.417969 507.4375 280.816406 C 506.625 279.582031 505.902344 278.484375 505.25 277.46875 C 501.820312 272.121094 500.316406 269.023438 497.558594 259.914062 C 497.367188 259.277344 497.105469 258.496094 496.816406 257.632812 C 496.476562 256.609375 496.101562 255.484375 495.769531 254.390625 C 495.222656 252.582031 494.753906 250.726562 494.867188 249.601562 C 494.925781 249.023438 495.933594 246.433594 497.898438 246.632812 C 498.699219 246.714844 499.453125 247.269531 500.167969 248.277344 C 501.792969 250.570312 503.371094 254.855469 504.601562 258.171875 C 505.449219 260.460938 506.101562 262.207031 506.503906 262.777344 C 506.539062 262.828125 506.558594 262.851562 506.5625 262.851562 C 506.566406 262.855469 506.554688 262.84375 506.527344 262.828125 L 505.660156 263.144531 C 508.402344 255.558594 509.003906 241.050781 508.285156 233.207031 C 508.042969 230.5625 508.511719 227.828125 510.34375 227.660156 C 512.230469 227.488281 514.394531 230.464844 516.535156 236.546875 L 515.367188 236.789062 C 515.296875 235.757812 515.140625 234.695312 514.996094 233.664062 C 514.863281 232.75 514.734375 231.855469 514.679688 231.074219 C 514.585938 229.753906 514.632812 227.921875 516.285156 227.804688 C 516.753906 227.769531 517.277344 227.898438 517.855469 228.140625 C 519.851562 228.972656 520.613281 231.804688 520.980469 233.078125 C 521.054688 233.339844 521.117188 233.546875 521.164062 233.691406 C 523.113281 239.328125 524.203125 246.847656 524.203125 246.851562 L 523.605469 246.9375 L 523.011719 246.855469 C 523.226562 245.296875 522.925781 243.121094 522.609375 240.847656 C 522.308594 238.710938 521.988281 236.464844 522.214844 234.839844 C 522.296875 234.25 522.457031 233.691406 522.75 233.234375 C 523.367188 232.265625 524.285156 232.121094 525.125 232.660156 C 526.328125 233.429688 527.40625 235.601562 527.941406 237.832031 C 528.699219 240.960938 529.078125 245.035156 529.398438 248.433594 C 529.636719 250.972656 529.835938 253.09375 530.121094 254.269531 C 530.226562 254.71875 530.324219 254.90625 530.359375 254.953125 C 530.363281 254.953125 530.347656 254.9375 530.320312 254.917969 L 529.394531 255.359375 C 530.128906 248.679688 531.347656 244.5 531.355469 244.476562 C 531.71875 243.230469 532.484375 242.1875 533.640625 242.527344 C 534.738281 242.847656 535.539062 244.378906 535.949219 246.285156 C 536.726562 249.917969 536.085938 255.433594 535.492188 258.53125 C 535.226562 259.910156 534.960938 261.257812 534.699219 262.578125 C 534.449219 263.84375 534.203125 265.089844 533.96875 266.304688 C 532.523438 273.832031 531.527344 280.390625 532.375 286.589844 C 532.417969 286.894531 532.222656 287.183594 531.917969 287.257812 C 530.4375 287.609375 529.113281 287.917969 527.921875 288.195312 C 526.953125 288.421875 526.078125 288.625 525.28125 288.816406 C 518.605469 290.40625 517.929688 290.914062 517.101562 293.902344 C 517.242188 293.386719 516.742188 293.210938 516.71875 293.203125 C 516.675781 293.191406 516.648438 293.191406 516.65625 293.191406 L 516.625 293.792969 L 516.65625 293.191406 C 516.886719 293.203125 517.859375 293.015625 519.457031 292.699219 C 523.347656 291.925781 530.296875 290.539062 534.660156 291.128906 C 534.882812 291.160156 535.070312 291.3125 535.144531 291.519531 C 539.101562 302.40625 541.660156 309.078125 541.679688 309.136719 L 541.683594 309.136719 L 541.679688 309.136719 C 543.65625 314.292969 546.015625 320 548.320312 325.574219 C 550.507812 330.871094 552.644531 336.046875 554.347656 340.492188 C 554.613281 341.183594 554.871094 341.867188 555.113281 342.519531 C 555.09375 342.46875 555.160156 342.644531 555.144531 342.597656 C 555.183594 342.710938 555.148438 342.609375 555.195312 342.734375 C 555.785156 344.332031 559.785156 354.957031 558.34375 356.816406 L 558.339844 356.824219 L 557.871094 356.449219 L 558.34375 356.816406 C 558.226562 356.96875 558.070312 357.097656 557.867188 357.171875 C 557.828125 357.1875 557.785156 357.199219 557.742188 357.210938 C 549.519531 359.160156 543.195312 357.726562 537.125 356.351562 C 531.324219 355.039062 525.777344 353.792969 518.863281 355.429688 C 516.257812 356.050781 513.449219 357.078125 510.359375 358.683594 C 502.183594 362.921875 498.875 369.355469 499.050781 375.828125 L 498.035156 375.410156 C 505.914062 367.925781 517 363.339844 531.203125 361.449219 C 535 360.945312 557.519531 364.257812 565.53125 367.1875 C 566.019531 367.367188 566.601562 367.230469 567.300781 366.652344 L 567.082031 367.152344 C 566.292969 353.824219 561.597656 342.976562 554.109375 325.722656 C 553.539062 324.398438 552.992188 323.140625 552.386719 321.742188 C 552.359375 321.675781 552.339844 321.601562 552.339844 321.527344 C 552.148438 316.382812 559.65625 305.386719 573.566406 301.839844 C 582.945312 299.449219 590.042969 301.558594 595.035156 304.453125 C 606.273438 310.980469 612.917969 319.5 613.609375 331.257812 C 614.625 348.417969 614.636719 355.523438 608.007812 355.917969 C 604.625 356.117188 599.515625 354.503906 592.136719 352.195312 C 590.941406 351.820312 589.671875 351.421875 588.34375 351.011719 C 582.707031 349.265625 578.105469 344.527344 574.449219 340.777344 L 574.453125 340.777344 L 574.292969 340.613281 C 572.871094 339.15625 571.011719 337.730469 569 336.191406 C 566.773438 334.480469 564.371094 332.640625 562.304688 330.523438 C 559.761719 327.914062 557.6875 324.839844 557.042969 320.984375 C 557 320.726562 557.125 320.472656 557.355469 320.351562 C 557.480469 320.285156 557.609375 320.253906 557.730469 320.238281 C 560.203125 319.960938 571.015625 330.441406 573.929688 333.238281 C 574.046875 333.351562 574.207031 333.503906 574.292969 333.589844 C 576.449219 335.65625 579.359375 333.535156 582.449219 331.128906 C 584.179688 329.78125 586.574219 327.734375 588.007812 329.109375 C 589.011719 330.074219 589.175781 332.550781 588.699219 336.921875 C 588.507812 338.683594 587.371094 341.257812 586.554688 343.109375 C 586.011719 344.347656 585.664062 345.164062 585.632812 345.433594 L 585.632812 345.429688 C 585.632812 345.433594 585.632812 345.433594 585.632812 345.4375 L 585.632812 345.433594 C 585.632812 345.441406 585.636719 345.414062 585.628906 345.375 C 587.433594 355.84375 585.628906 358.351562 580.171875 365.8125 C 579.832031 366.273438 579.460938 366.78125 579.09375 367.285156 L 578.878906 366.394531 C 578.859375 366.382812 578.851562 366.378906 578.851562 366.378906 L 578.851562 366.382812 C 580.046875 366.839844 608.574219 372.910156 626.800781 361.347656 C 629.617188 359.5625 627.585938 353.238281 625.082031 345.945312 C 622.90625 339.613281 620.25 332.285156 623.769531 330.054688 C 623.988281 329.914062 624.230469 329.796875 624.488281 329.703125 C 627.996094 328.433594 645.507812 325.230469 645.746094 325.1875 L 645.746094 325.183594 C 645.75 325.183594 645.746094 325.183594 645.746094 325.183594 L 645.402344 325.382812 C 645.8125 324.910156 644.875 325.703125 645.457031 326.222656 C 645.960938 326.679688 646.703125 325.863281 646.226562 326.253906 L 645.847656 325.785156 L 646.226562 326.253906 C 646.21875 326.257812 646.191406 326.28125 646.144531 326.320312 C 645.085938 327.21875 632.113281 338.371094 623.625 330.910156 C 622.933594 330.300781 622.273438 329.570312 621.664062 328.710938 C 615.253906 319.695312 604.484375 309.449219 597.394531 302.703125 C 594.097656 299.566406 591.539062 297.140625 590.671875 295.992188 C 587.375 291.648438 586.476562 286.015625 586.457031 285.398438 C 586.457031 285.398438 586.449219 285.296875 586.476562 285.191406 C 586.984375 283.242188 587.945312 281.941406 589.828125 282.433594 C 589.972656 282.46875 590.117188 282.515625 590.265625 282.574219 C 590.339844 282.601562 590.410156 282.644531 590.46875 282.703125 C 592.019531 284.195312 593.28125 285.882812 594.429688 287.410156 C 595.445312 288.761719 596.355469 289.972656 597.324219 290.902344 C 599.175781 292.6875 601.179688 293.429688 604.523438 291.609375 C 604.507812 291.617188 604.5 291.625 604.5 291.625 C 605.832031 290.429688 606.171875 275.386719 606.398438 262.972656 C 606.53125 255.765625 606.632812 249.503906 607.046875 248.425781 C 607.882812 246.25 610.128906 245.042969 611.804688 245.691406 C 612.316406 245.886719 612.746094 246.25 613.027344 246.78125 C 614.394531 249.378906 615.074219 262.664062 615.066406 262.546875 L 613.867188 262.601562 C 613.625 256.347656 615.097656 251.375 615.105469 251.347656 L 615.683594 251.515625 L 615.105469 251.34375 C 615.199219 251.039062 615.289062 250.71875 615.375 250.40625 C 615.464844 250.097656 615.550781 249.785156 615.644531 249.476562 C 616.222656 247.527344 617.070312 245.125 619.460938 245.351562 C 623.355469 245.722656 623.097656 257.605469 623.066406 261.972656 C 623.054688 263.238281 623.054688 264.003906 623.085938 264.179688 L 623.097656 264.285156 L 623.085938 264.179688 C 623.140625 264.480469 623.132812 263.816406 622.585938 263.761719 C 621.902344 263.699219 621.925781 264.628906 622.128906 263.539062 L 622.121094 263.691406 L 622.097656 263.347656 L 622.078125 263.015625 C 621.699219 257.191406 621.46875 253.054688 623.703125 248.15625 C 624.144531 247.183594 624.777344 246.289062 625.710938 246.46875 L 625.59375 246.460938 L 625.710938 246.472656 C 625.8125 246.492188 625.90625 246.523438 625.996094 246.5625 C 628.292969 247.613281 629.675781 258.351562 630.183594 262.023438 C 630.246094 262.496094 630.300781 262.882812 630.339844 263.15625 C 630.515625 264.332031 630.597656 266.203125 630.6875 268.234375 C 630.800781 270.835938 630.933594 273.738281 631.265625 276.003906 C 631.683594 278.804688 632.277344 279.570312 632.621094 279.519531 C 632.824219 279.488281 633.230469 279.265625 633.847656 278.472656 C 635.265625 276.644531 636.515625 273.832031 637.765625 270.996094 C 638.925781 268.375 640.097656 265.714844 641.390625 264.050781 C 641.40625 264.03125 641.421875 264.011719 641.433594 263.996094 C 642.167969 263.066406 643.539062 261.414062 644.285156 261.113281 L 644.507812 261.675781 L 644.285156 261.113281 C 644.425781 261.058594 644.78125 260.949219 645.097656 261.199219 C 645.238281 261.3125 645.3125 261.457031 645.351562 261.578125 L 644.84375 261.160156 C 646.46875 261.339844 646.6875 262.910156 646.527344 264.359375 C 646.265625 266.675781 644.949219 270.191406 643.601562 273.792969 C 642.054688 277.933594 640.453125 282.230469 640.101562 285.347656 L 640.105469 285.34375 L 640.101562 285.347656 L 640.101562 285.351562 C 639.621094 289.667969 640.144531 295.1875 640.636719 300.328125 C 640.835938 302.40625 641.03125 304.425781 641.144531 306.253906 C 641.402344 310.4375 644.296875 322.570312 648.832031 325.21875 C 655.042969 328.847656 659.472656 334.363281 662.367188 341.25 C 667.253906 352.886719 671.441406 360.300781 674.785156 364.28125 C 674.988281 364.523438 674.972656 364.878906 674.746094 365.101562 C 674.519531 365.320312 674.164062 365.328125 673.925781 365.121094 C 673.777344 364.984375 673.726562 364.796875 673.726562 364.792969 C 673.589844 364.375 673.378906 362.59375 673.140625 360.621094 C 672.785156 357.65625 672.351562 354.050781 671.980469 352.691406 C 668.226562 338.851562 672.441406 328.648438 676.046875 319.894531 C 678.535156 313.851562 680.675781 308.613281 679.976562 303.265625 C 679.890625 302.625 679.820312 302.015625 679.75 301.421875 C 679.683594 300.867188 679.613281 300.296875 679.542969 299.765625 C 679.136719 296.644531 678.523438 293.609375 676.179688 288.464844 C 669.113281 272.949219 664.011719 270.691406 659.765625 268.757812 C 658.082031 267.992188 656.429688 267.242188 654.839844 265.777344 C 652.078125 263.230469 649.890625 261.800781 647.929688 260.519531 C 646.375 259.507812 644.941406 258.570312 643.507812 257.25 C 642.339844 256.171875 641.179688 254.847656 639.949219 253.019531 C 639.902344 252.953125 639.5 252.332031 640.078125 251.9375 L 640.078125 251.941406 C 640.25 251.824219 640.433594 251.808594 640.53125 251.804688 L 640.550781 252.40625 L 640.53125 251.804688 C 641.300781 251.78125 643.582031 252.722656 645.863281 253.648438 C 648.503906 254.71875 651.417969 255.898438 653.117188 256.257812 C 653.382812 256.3125 653.761719 255.628906 653.886719 255.183594 L 653.886719 255.507812 C 651.640625 247.542969 648.960938 242.078125 646.738281 237.542969 C 645.992188 236.023438 645.292969 234.601562 644.683594 233.226562 C 644.089844 231.894531 644.605469 229.433594 645.996094 228.8125 C 646.425781 228.621094 646.90625 228.625 647.378906 228.859375 C 649.40625 229.859375 652.359375 234.410156 654.511719 237.699219 C 655.96875 239.921875 657.007812 241.472656 657.363281 241.695312 C 657.363281 241.695312 657.363281 241.691406 657.355469 241.6875 C 657.347656 241.683594 657.3125 241.667969 657.261719 241.660156 L 656.605469 242.480469 C 656.015625 241.027344 655.4375 239.632812 654.898438 238.335938 C 654.417969 237.179688 653.96875 236.089844 653.550781 235.058594 C 651.796875 230.734375 650.578125 227.332031 651.050781 225.277344 C 651.296875 224.222656 652.183594 222.960938 653.4375 223.25 C 653.871094 223.351562 654.238281 223.632812 654.539062 224.035156 C 658.796875 229.800781 660.570312 234.5 661.039062 235.753906 L 660.71875 235.414062 C 660.289062 235.222656 660.058594 235.628906 660.050781 235.644531 C 660.046875 235.652344 660.042969 235.65625 660.046875 235.65625 L 660.617188 235.84375 L 660.046875 235.65625 C 660.144531 235.347656 660.089844 233.980469 659.988281 232.0625 C 659.855469 229.4375 659.65625 225.875 660.246094 224.550781 L 660.246094 224.554688 C 660.257812 224.519531 660.273438 224.484375 660.292969 224.453125 C 660.539062 223.96875 661.019531 223.746094 661.539062 223.949219 L 661.320312 224.507812 L 661.539062 223.949219 C 661.582031 223.964844 661.621094 223.984375 661.660156 224.003906 C 662.792969 224.585938 664.257812 227.695312 664.769531 229.078125 C 665.0625 229.867188 665.28125 231.632812 665.515625 233.464844 C 665.832031 235.921875 666.175781 238.609375 666.710938 240.042969 C 666.914062 240.59375 667.082031 240.773438 667.128906 240.800781 L 667.109375 240.789062 L 667.128906 240.800781 C 667.109375 240.789062 667.070312 240.785156 667.054688 240.792969 C 667.605469 240.585938 668.878906 238.050781 670.851562 229.804688 C 671.007812 229.148438 671.671875 228.589844 672.480469 228.785156 C 673.226562 228.964844 673.804688 229.71875 674.160156 230.921875 C 674.488281 232.035156 674.214844 234.507812 673.933594 237.238281 C 673.519531 241.230469 673.015625 246.132812 673.679688 249.773438 C 674.855469 256.210938 678.421875 262.378906 679.605469 264.351562 C 685.121094 273.5625 692.210938 280.058594 696.804688 281.746094 C 697.042969 281.832031 697.199219 282.058594 697.199219 282.3125 C 697.199219 282.566406 697.042969 282.792969 696.804688 282.878906 C 673.769531 291.28125 669.523438 308.109375 672.042969 315.027344 C 672.960938 317.554688 674.644531 318.578125 676.570312 317.878906 C 679.460938 316.824219 683.355469 311.832031 686.640625 300.101562 C 687.199219 298.09375 697.398438 288.121094 704.222656 285.488281 C 710.328125 283.128906 715.574219 291.261719 716.421875 293.464844 C 716.472656 293.59375 716.511719 293.714844 716.542969 293.828125 C 716.605469 294.066406 716.515625 294.320312 716.320312 294.464844 C 700.648438 306.152344 694.238281 315.863281 692.027344 333.777344 C 692.027344 333.785156 692.027344 333.785156 692.027344 333.785156 C 692.027344 333.75 691.996094 333.695312 691.96875 333.671875 C 691.984375 333.683594 692.082031 333.734375 692.351562 333.769531 C 693.140625 333.867188 694.585938 333.738281 696.808594 333.535156 C 700.71875 333.171875 706.738281 332.617188 714.761719 332.964844 C 715.09375 332.980469 715.351562 333.261719 715.335938 333.59375 C 715.324219 333.925781 715.042969 334.183594 714.710938 334.171875 C 706.769531 333.828125 700.816406 334.375 696.917969 334.734375 C 694.777344 334.929688 693.15625 335.082031 692.207031 334.964844 C 691.875 334.925781 691.527344 334.84375 691.257812 334.644531 C 690.972656 334.433594 690.816406 334.125 690.824219 333.769531 C 690.824219 333.722656 690.828125 333.675781 690.832031 333.632812 C 693.089844 315.332031 699.714844 305.34375 715.601562 293.5 L 715.378906 294.136719 C 715.363281 294.078125 715.339844 294 715.300781 293.898438 C 714.386719 291.53125 709.574219 284.710938 704.65625 286.613281 C 697.980469 289.1875 688.210938 298.953125 687.796875 300.425781 C 684.523438 312.125 680.503906 317.722656 676.980469 319.007812 C 674.179688 320.03125 671.953125 318.304688 670.910156 315.441406 C 668.09375 307.691406 672.953125 290.292969 696.394531 281.746094 L 696.390625 282.878906 C 691.417969 281.050781 684.148438 274.277344 678.574219 264.972656 C 677.386719 262.992188 673.714844 256.660156 672.496094 249.992188 C 671.796875 246.144531 672.328125 241.050781 672.738281 237.113281 C 673.039062 234.203125 673.246094 232.078125 673.003906 231.261719 C 672.683594 230.179688 672.300781 229.980469 672.199219 229.957031 C 672.136719 229.941406 672.050781 229.972656 672.023438 230.085938 C 670.15625 237.882812 668.796875 241.429688 667.472656 241.921875 C 667.160156 242.039062 666.835938 242.011719 666.554688 241.855469 L 666.574219 241.867188 L 666.554688 241.855469 C 666.074219 241.59375 665.78125 241.007812 665.582031 240.464844 C 664.988281 238.867188 664.628906 236.003906 664.324219 233.617188 C 664.078125 231.6875 663.871094 230.121094 663.640625 229.5 C 663.066406 227.949219 661.738281 225.398438 661.109375 225.074219 C 661.105469 225.074219 661.101562 225.070312 661.101562 225.070312 L 661.320312 224.507812 L 661.101562 225.070312 C 661.21875 225.117188 661.359375 225.007812 661.363281 225.003906 C 661.355469 225.015625 661.351562 225.027344 661.34375 225.042969 C 660.90625 226.023438 661.046875 229.15625 661.191406 232 C 661.28125 233.71875 661.378906 235.441406 661.191406 236.027344 L 660.617188 235.84375 L 661.191406 236.027344 C 661.179688 236.0625 661.164062 236.097656 661.148438 236.136719 C 661.078125 236.292969 660.761719 236.753906 660.230469 236.515625 C 660.082031 236.449219 659.96875 236.328125 659.910156 236.175781 C 659.464844 234.980469 657.738281 230.394531 653.570312 224.75 C 653.394531 224.511719 653.25 224.445312 653.167969 224.425781 C 652.980469 224.382812 652.4375 224.621094 652.226562 225.550781 C 651.859375 227.140625 652.839844 230.109375 654.664062 234.605469 C 655.082031 235.636719 655.527344 236.710938 656.011719 237.875 C 656.554688 239.183594 657.125 240.558594 657.71875 242.027344 C 657.800781 242.230469 657.769531 242.460938 657.632812 242.632812 C 657.496094 242.800781 657.277344 242.886719 657.0625 242.847656 C 656.96875 242.832031 656.886719 242.800781 656.824219 242.769531 C 656.792969 242.753906 656.761719 242.738281 656.734375 242.722656 C 656.074219 242.316406 654.824219 240.371094 653.507812 238.359375 C 651.222656 234.871094 648.496094 230.753906 646.847656 229.941406 C 646.683594 229.859375 646.578125 229.875 646.484375 229.914062 C 645.902344 230.175781 645.363281 231.789062 645.78125 232.734375 C 646.382812 234.085938 647.070312 235.488281 647.816406 237.011719 C 650.046875 241.558594 652.765625 247.105469 655.042969 255.183594 C 655.074219 255.289062 655.074219 255.402344 655.042969 255.507812 C 655.066406 255.425781 654.457031 257.773438 652.867188 257.4375 C 651.035156 257.050781 648 255.816406 645.410156 254.765625 C 642.910156 253.75 641.003906 252.996094 640.566406 253.007812 L 640.550781 252.40625 L 640.566406 253.007812 C 640.542969 253.007812 640.636719 253.015625 640.75 252.9375 C 641.210938 252.628906 640.820312 252.164062 640.945312 252.34375 C 642.132812 254.101562 643.230469 255.355469 644.324219 256.363281 C 645.671875 257.605469 647.023438 258.492188 648.585938 259.511719 C 650.558594 260.800781 652.816406 262.273438 655.65625 264.890625 C 657.085938 266.210938 658.570312 266.890625 660.261719 267.660156 C 664.789062 269.722656 670.09375 272.203125 677.277344 287.964844 C 679.671875 293.230469 680.316406 296.382812 680.738281 299.609375 C 680.808594 300.152344 680.878906 300.726562 680.945312 301.277344 C 681.015625 301.871094 681.085938 302.480469 681.167969 303.109375 C 681.921875 308.835938 679.617188 314.390625 677.160156 320.355469 C 673.554688 329.097656 669.503906 338.960938 673.140625 352.375 C 673.539062 353.84375 673.988281 357.574219 674.335938 360.476562 C 674.585938 362.566406 674.78125 364.148438 674.867188 364.421875 C 674.890625 364.484375 674.859375 364.335938 674.726562 364.21875 L 673.867188 365.058594 C 670.398438 360.933594 666.15625 353.378906 661.257812 341.71875 C 658.445312 335.03125 654.175781 329.738281 648.222656 326.257812 C 643.070312 323.246094 640.195312 310.421875 639.941406 306.328125 C 639.832031 304.523438 639.640625 302.527344 639.441406 300.441406 C 638.953125 295.339844 638.40625 289.683594 638.90625 285.21875 L 638.90625 285.222656 L 638.90625 285.214844 C 639.277344 281.914062 640.949219 277.453125 642.476562 273.371094 C 643.847656 269.695312 645.089844 266.355469 645.332031 264.226562 C 645.5 262.722656 645.136719 262.40625 644.707031 262.355469 C 644.472656 262.328125 644.273438 262.164062 644.203125 261.9375 C 644.214844 261.984375 644.253906 262.070312 644.351562 262.144531 C 644.566406 262.320312 644.777344 262.214844 644.730469 262.234375 L 644.507812 261.675781 L 644.730469 262.234375 C 644.363281 262.378906 643.230469 263.660156 642.378906 264.742188 C 642.367188 264.757812 642.351562 264.773438 642.339844 264.789062 C 641.160156 266.3125 640.050781 268.804688 638.867188 271.484375 C 637.636719 274.269531 636.328125 277.242188 634.796875 279.210938 C 634.152344 280.039062 633.496094 280.609375 632.800781 280.710938 C 630.996094 280.980469 630.386719 278.28125 630.078125 276.183594 C 629.730469 273.84375 629.597656 270.871094 629.484375 268.289062 C 629.394531 266.222656 629.3125 264.429688 629.148438 263.332031 C 629.109375 263.054688 629.054688 262.65625 628.988281 262.1875 C 628.394531 257.855469 626.996094 248.34375 625.496094 247.660156 C 625.488281 247.65625 625.484375 247.652344 625.484375 247.652344 L 625.601562 247.664062 L 625.484375 247.652344 C 625.5625 247.667969 625.296875 247.558594 624.796875 248.65625 C 622.703125 253.246094 622.898438 257.09375 623.277344 262.9375 L 623.300781 263.269531 L 623.320312 263.613281 C 623.324219 263.664062 623.320312 263.710938 623.3125 263.761719 C 623.332031 263.664062 623.234375 265.035156 622.472656 264.964844 C 621.898438 264.910156 621.867188 264.195312 621.902344 264.398438 L 621.894531 264.289062 L 621.902344 264.398438 C 621.84375 264.074219 621.855469 263.125 621.863281 261.964844 C 621.902344 256.5 621.800781 246.785156 619.347656 246.554688 C 618.089844 246.433594 617.460938 247.578125 616.796875 249.820312 C 616.707031 250.121094 616.621094 250.421875 616.535156 250.734375 C 616.445312 251.050781 616.355469 251.371094 616.261719 251.6875 L 615.683594 251.515625 L 616.261719 251.6875 C 616.269531 251.664062 614.832031 256.492188 615.066406 262.554688 C 615.082031 262.886719 614.824219 263.167969 614.492188 263.179688 C 614.164062 263.195312 613.882812 262.941406 613.867188 262.609375 C 613.859375 262.496094 613.167969 249.632812 611.960938 247.34375 C 611.820312 247.078125 611.617188 246.910156 611.375 246.816406 C 610.5 246.476562 608.84375 247.105469 608.171875 248.859375 C 607.859375 249.671875 607.738281 255.554688 607.601562 262.996094 C 607.386719 274.816406 607.15625 290.863281 605.300781 292.523438 C 605.242188 292.574219 605.175781 292.625 605.097656 292.667969 C 601.253906 294.761719 598.6875 293.890625 596.488281 291.773438 C 595.4375 290.761719 594.46875 289.464844 593.46875 288.132812 C 592.3125 286.59375 591.105469 284.988281 589.632812 283.570312 L 589.835938 283.699219 C 589.726562 283.65625 589.621094 283.625 589.527344 283.597656 C 588.703125 283.382812 588.113281 283.675781 587.640625 285.492188 L 587.644531 285.492188 C 587.667969 285.398438 587.660156 285.324219 587.660156 285.359375 C 587.675781 285.792969 588.519531 291.160156 591.628906 295.265625 C 592.421875 296.308594 594.867188 298.640625 598.222656 301.832031 C 605.289062 308.550781 616.152344 318.878906 622.644531 328.011719 C 623.207031 328.800781 623.800781 329.460938 624.417969 330.003906 C 631.96875 336.636719 643.929688 326.621094 645.367188 325.398438 C 645.410156 325.363281 645.445312 325.332031 645.46875 325.316406 L 645.847656 325.785156 L 645.46875 325.316406 C 645.003906 325.691406 645.753906 324.871094 646.261719 325.328125 L 646.257812 325.324219 C 646.84375 325.847656 645.90625 326.640625 646.3125 326.171875 C 646.21875 326.277344 646.101562 326.34375 645.96875 326.371094 C 645.964844 326.371094 645.960938 326.371094 645.960938 326.371094 C 645.640625 326.429688 628.28125 329.613281 624.898438 330.835938 C 624.714844 330.902344 624.554688 330.980469 624.414062 331.070312 C 621.929688 332.644531 623.792969 338.488281 626.21875 345.554688 C 628.476562 352.132812 631.292969 359.925781 627.445312 362.367188 C 608.746094 374.226562 579.757812 368.019531 578.421875 367.507812 C 578.398438 367.496094 578.371094 367.484375 578.335938 367.46875 C 578.179688 367.390625 578.066406 367.246094 578.023438 367.074219 C 577.980469 366.902344 578.019531 366.71875 578.121094 366.578125 C 578.492188 366.066406 578.859375 365.566406 579.199219 365.101562 C 584.550781 357.785156 586.171875 355.605469 584.441406 345.578125 L 584.441406 345.582031 C 584.425781 345.492188 584.429688 345.410156 584.433594 345.347656 L 584.433594 345.34375 C 584.433594 345.332031 584.4375 345.316406 584.4375 345.304688 L 584.4375 345.300781 C 584.492188 344.792969 584.972656 343.722656 585.457031 342.625 C 586.300781 340.695312 587.335938 338.324219 587.503906 336.789062 C 588.003906 332.191406 587.660156 330.449219 587.175781 329.980469 C 586.703125 329.53125 585.570312 330.226562 583.1875 332.082031 C 580.527344 334.152344 576.535156 337.40625 573.464844 334.460938 C 573.300781 334.304688 573.285156 334.292969 573.097656 334.109375 C 569.746094 330.894531 559.597656 321.242188 557.867188 321.4375 C 557.867188 321.4375 557.886719 321.433594 557.917969 321.417969 L 558.230469 320.785156 C 558.816406 324.308594 560.71875 327.171875 563.167969 329.679688 C 565.160156 331.726562 567.492188 333.515625 569.734375 335.234375 C 571.726562 336.757812 573.660156 338.238281 575.152344 339.773438 L 575.3125 339.9375 C 579.019531 343.738281 583.40625 348.222656 588.699219 349.859375 C 590.039062 350.273438 591.289062 350.667969 592.496094 351.042969 C 600 353.394531 604.835938 354.898438 607.9375 354.714844 C 613.050781 354.410156 613.476562 349.355469 612.410156 331.328125 C 611.746094 320.09375 605.433594 311.882812 594.429688 305.496094 C 589.671875 302.734375 582.894531 300.703125 573.863281 303.007812 C 560.265625 306.476562 553.378906 317.117188 553.539062 321.480469 L 553.492188 321.265625 C 554.082031 322.632812 554.652344 323.949219 555.214844 325.242188 C 562.679688 342.453125 567.480469 353.5 568.285156 367.082031 C 568.292969 367.273438 568.214844 367.460938 568.066406 367.582031 C 567.207031 368.292969 566.179688 368.707031 565.117188 368.320312 C 557.207031 365.425781 534.894531 362.171875 531.363281 362.644531 C 517.320312 364.511719 506.503906 369.027344 498.863281 376.28125 C 498.691406 376.445312 498.4375 376.492188 498.21875 376.402344 C 498 376.3125 497.855469 376.101562 497.847656 375.863281 C 497.660156 368.882812 501.257812 362.042969 509.804688 357.613281 C 512.976562 355.96875 515.875 354.902344 518.585938 354.257812 C 525.796875 352.546875 531.597656 353.867188 537.390625 355.175781 C 543.453125 356.546875 549.535156 357.917969 557.464844 356.039062 C 557.460938 356.039062 557.457031 356.042969 557.449219 356.042969 C 557.414062 356.054688 557.394531 356.078125 557.394531 356.078125 L 557.871094 356.449219 L 557.398438 356.074219 L 557.394531 356.078125 C 558.292969 354.917969 554.894531 345.386719 554.066406 343.152344 C 554.050781 343.109375 554.027344 343.050781 554.015625 343.019531 C 554 342.976562 554 342.976562 553.988281 342.941406 C 553.746094 342.292969 553.488281 341.613281 553.226562 340.925781 C 551.53125 336.5 549.394531 331.335938 547.207031 326.035156 C 544.90625 320.464844 542.539062 314.742188 540.558594 309.566406 C 540.53125 309.503906 537.976562 302.828125 534.015625 291.933594 L 534.5 292.324219 C 530.382812 291.765625 523.664062 293.09375 519.691406 293.882812 C 518.230469 294.171875 517.023438 294.417969 516.59375 294.394531 L 516.625 293.792969 L 516.59375 294.394531 C 516.542969 294.394531 516.472656 294.386719 516.398438 294.367188 C 516.316406 294.34375 515.789062 294.136719 515.941406 293.582031 C 516.96875 289.867188 518.332031 289.234375 525.003906 287.644531 C 525.800781 287.453125 526.683594 287.246094 527.648438 287.023438 C 528.839844 286.746094 530.164062 286.4375 531.640625 286.085938 L 531.183594 286.753906 C 530.304688 280.335938 531.34375 273.597656 532.789062 266.078125 C 533.023438 264.855469 533.269531 263.609375 533.519531 262.34375 C 533.78125 261.019531 534.042969 259.683594 534.308594 258.304688 C 534.898438 255.226562 535.496094 249.917969 534.773438 246.539062 C 534.359375 244.601562 533.660156 243.789062 533.304688 243.683594 C 533.269531 243.671875 532.871094 243.582031 532.511719 244.8125 C 532.519531 244.789062 531.316406 248.898438 530.59375 255.492188 C 530.570312 255.699219 530.441406 255.878906 530.253906 255.96875 C 530.0625 256.058594 529.84375 256.042969 529.667969 255.929688 C 529.574219 255.871094 529.5 255.800781 529.441406 255.730469 C 529.203125 255.445312 529.058594 254.996094 528.949219 254.550781 C 528.640625 253.269531 528.433594 251.035156 528.199219 248.546875 C 527.878906 245.121094 527.507812 241.140625 526.773438 238.113281 C 526.246094 235.929688 525.257812 234.175781 524.476562 233.675781 C 524.195312 233.492188 524.019531 233.480469 523.761719 233.882812 C 523.597656 234.140625 523.476562 234.511719 523.40625 235.007812 C 523.210938 236.425781 523.492188 238.472656 523.800781 240.683594 C 524.109375 242.886719 524.449219 245.257812 524.203125 247.019531 L 523.605469 246.9375 L 523.011719 247.023438 C 523.011719 247.015625 521.933594 239.601562 520.027344 234.085938 C 519.964844 233.902344 519.898438 233.664062 519.824219 233.410156 C 519.394531 231.914062 518.738281 229.816406 517.394531 229.25 C 516.894531 229.042969 516.570312 228.992188 516.371094 229.003906 C 516.074219 229.027344 515.761719 229.292969 515.878906 230.988281 C 515.929688 231.71875 516.050781 232.566406 516.183594 233.492188 C 516.332031 234.515625 516.492188 235.625 516.566406 236.707031 C 516.589844 237.007812 516.386719 237.277344 516.089844 237.339844 C 515.796875 237.398438 515.5 237.234375 515.402344 236.949219 C 513.125 230.480469 511.21875 228.789062 510.453125 228.859375 C 509.976562 228.90625 509.207031 230.082031 509.484375 233.097656 C 510.207031 241.015625 509.621094 255.726562 506.792969 263.554688 C 506.730469 263.722656 506.601562 263.855469 506.433594 263.917969 C 506.265625 263.976562 506.078125 263.960938 505.925781 263.871094 C 505.855469 263.828125 505.792969 263.78125 505.746094 263.738281 C 505.660156 263.65625 505.585938 263.566406 505.523438 263.476562 C 505 262.738281 504.277344 260.765625 503.472656 258.589844 C 502.21875 255.203125 500.695312 251.105469 499.1875 248.972656 C 498.5625 248.089844 498.078125 247.863281 497.777344 247.832031 C 496.960938 247.75 496.121094 249.183594 496.066406 249.722656 C 495.980469 250.558594 496.355469 252.171875 496.921875 254.042969 C 497.246094 255.117188 497.617188 256.222656 497.960938 257.25 C 498.246094 258.105469 498.515625 258.910156 498.710938 259.5625 C 501.441406 268.589844 502.902344 271.578125 506.261719 276.816406 C 506.910156 277.824219 507.628906 278.917969 508.441406 280.152344 C 509.496094 281.753906 510.703125 283.589844 512.113281 285.789062 L 511.609375 286.113281 L 512.105469 285.777344 C 512.117188 285.792969 512.128906 285.8125 512.132812 285.816406 L 512.128906 285.816406 C 512.339844 286.167969 515.449219 291.910156 524.816406 339.851562 C 524.835938 339.9375 524.832031 340.023438 524.8125 340.109375 C 524.785156 340.226562 524.734375 340.324219 524.6875 340.390625 L 524.6875 340.394531 C 524.6875 340.398438 524.683594 340.402344 524.679688 340.40625 C 523.882812 341.628906 516.578125 345.734375 508.746094 350.160156 C 498.296875 356.066406 486.6875 362.652344 485.296875 364.792969 C 480.242188 372.550781 477.421875 379.332031 477.757812 385.925781 C 477.773438 386.234375 477.554688 386.507812 477.25 386.554688 C 476.945312 386.601562 476.652344 386.410156 476.574219 386.109375 C 471.914062 368.273438 481.75 347.753906 505.578125 324.628906 L 505.523438 325.433594 C 489.238281 304.597656 478.078125 287.378906 476.058594 276.132812 C 476 275.8125 475.90625 275.570312 475.789062 275.382812 C 474.5625 273.421875 469.585938 275.726562 465.484375 277.769531 C 464.15625 278.429688 462.882812 279.082031 462.285156 279.121094 L 462.25 278.519531 L 462.285156 279.121094 C 462.160156 279.128906 461.773438 279.128906 461.554688 278.777344 C 461.394531 278.523438 461.445312 278.191406 461.675781 278 C 461.902344 277.804688 462.238281 277.808594 462.460938 278.007812 C 464.835938 280.113281 467.492188 279.609375 469.648438 278.027344 C 472.554688 275.902344 473.867188 272.46875 472.953125 271.214844 C 472.898438 271.140625 472.863281 271.054688 472.847656 270.960938 L 472.847656 270.976562 C 472.816406 270.820312 465.671875 234.304688 461.617188 227.1875 C 461.644531 227.234375 461.75 227.351562 461.933594 227.34375 C 462.015625 227.339844 462.058594 227.308594 462.054688 227.308594 C 461.890625 227.421875 461.292969 228.417969 461.40625 230.945312 C 461.527344 233.617188 462.046875 237.144531 462.414062 239.628906 C 462.625 241.050781 462.804688 242.238281 462.785156 242.613281 L 462.183594 242.582031 L 462.785156 242.613281 C 462.792969 242.464844 462.835938 243.035156 462.390625 243.21875 C 461.648438 243.519531 461.351562 242.347656 461.5 242.71875 C 461.074219 241.671875 460.664062 240.1875 460.246094 238.667969 C 459.648438 236.492188 459.023438 234.238281 458.261719 232.777344 C 456.683594 229.734375 455.4375 227.511719 454.996094 227.230469 C 454.992188 227.226562 455.023438 227.25 455.082031 227.261719 C 455.441406 227.335938 455.582031 227.007812 455.578125 227.011719 C 455.578125 227.011719 455.578125 227.011719 455.578125 227.015625 C 455.59375 226.933594 454.855469 230.320312 456.449219 236.570312 C 456.527344 236.875 456.359375 237.183594 456.066406 237.289062 C 455.773438 237.390625 455.449219 237.253906 455.320312 236.972656 L 454.878906 236.007812 C 452.625 231.070312 451.429688 228.578125 450.679688 228.257812 C 450.652344 228.246094 450.644531 228.246094 450.644531 228.246094 C 450.644531 228.246094 450.648438 228.246094 450.648438 228.246094 C 450.617188 228.253906 450.394531 228.378906 450.0625 229.164062 C 449.878906 229.59375 449.949219 230.613281 450.363281 232.285156 C 450.847656 234.238281 451.714844 236.785156 452.6875 239.648438 C 453.886719 243.175781 455.242188 247.15625 456.183594 250.953125 C 456.25 251.230469 456.113281 251.523438 455.851562 251.644531 C 455.589844 251.765625 455.28125 251.683594 455.113281 251.453125 C 451.558594 246.558594 447.523438 242.058594 444.609375 238.839844 L 444.152344 238.335938 L 443.738281 237.878906 C 443.609375 237.738281 443.523438 237.730469 443.523438 237.730469 C 443.644531 237.730469 443.011719 237.722656 443.007812 240.308594 C 443.007812 240.902344 443.121094 241.476562 443.328125 242.050781 C 443.878906 243.578125 445.066406 245.042969 446.488281 246.785156 C 448.226562 248.910156 450.242188 251.371094 451.417969 254.625 C 452.710938 258.203125 453.984375 261.347656 455.332031 264.6875 C 458.617188 272.808594 462.34375 282.023438 467.886719 301.238281 C 471.335938 313.191406 476.570312 324.160156 480.046875 331.4375 C 482.179688 335.90625 483.851562 339.320312 483.636719 340.464844 C 483.605469 340.632812 483.53125 340.835938 483.351562 340.996094 C 479.570312 344.417969 475.917969 346.933594 472.828125 349.058594 C 467.039062 353.046875 463.570312 355.511719 463.945312 359.804688 L 463.347656 359.859375 L 463.945312 359.804688 C 463.945312 359.828125 464.429688 365.402344 465.621094 404.824219 C 465.628906 405.148438 465.382812 405.421875 465.0625 405.445312 C 464.738281 405.46875 464.457031 405.234375 464.421875 404.914062 C 462.878906 391.488281 441.679688 351.015625 426.96875 330.878906 C 425.609375 329.015625 421.5 316.09375 421.015625 312.089844 C 420.6875 309.367188 420.867188 306.964844 421.351562 304.65625 C 421.90625 302.003906 422.863281 299.472656 423.886719 296.761719 C 425.128906 293.46875 426.484375 289.871094 427.433594 285.320312 C 429.652344 274.722656 429.257812 257.921875 427.820312 246.003906 C 427.539062 243.679688 427.148438 242.355469 426.714844 242.015625 C 426.675781 241.984375 426.351562 241.707031 425.300781 243.046875 C 424.277344 244.351562 423.984375 245.632812 423.9375 246.679688 C 423.90625 247.351562 423.976562 247.929688 424.035156 248.386719 C 424.066406 248.628906 424.101562 248.902344 424.09375 249.109375 C 424.09375 249.113281 423.917969 253.050781 423.285156 260.433594 C 423.257812 260.722656 423.03125 260.953125 422.742188 260.980469 C 422.453125 261.007812 422.183594 260.824219 422.105469 260.542969 C 422.101562 260.53125 418.386719 247.304688 416.015625 241.585938 C 414.710938 238.445312 413.253906 237.097656 412.488281 237.046875 C 412.203125 237.027344 411.578125 237.289062 411.449219 239.296875 C 411.394531 240.160156 411.394531 240.9375 411.4375 241.648438 C 411.574219 243.894531 412.128906 245.550781 412.742188 247.382812 C 413.441406 249.464844 414.203125 251.734375 414.410156 255.199219 L 413.8125 255.234375 L 414.410156 255.199219 C 414.410156 255.179688 414.933594 263.652344 412.59375 269.148438 C 412.488281 269.402344 412.21875 269.550781 411.945312 269.503906 C 410.621094 269.289062 409.664062 267.640625 408.953125 265.972656 C 407.9375 263.609375 407.117188 260.425781 406.496094 258.023438 C 406.09375 256.480469 405.792969 255.3125 405.570312 254.800781 C 405.230469 254 404.855469 253.125 404.554688 252.421875 C 400.753906 243.496094 399.859375 241.542969 397.347656 240.765625 C 397.265625 240.738281 397.207031 240.742188 397.160156 240.757812 C 396.472656 240.964844 395.761719 243.472656 396.179688 244.867188 C 396.882812 247.207031 397.589844 249.445312 398.265625 251.582031 C 401.105469 260.578125 403.453125 267.949219 402.34375 273.636719 C 402.304688 273.832031 402.171875 273.996094 401.992188 274.074219 C 401.363281 274.347656 400.753906 274.078125 400.285156 273.722656 C 398.984375 272.730469 397.398438 269.992188 395.628906 266.964844 C 392.898438 262.296875 389.582031 256.640625 385.757812 253.726562 L 386.519531 253.699219 C 386.34375 253.851562 386.179688 253.996094 386.015625 254.136719 C 384.722656 255.246094 383.976562 255.929688 384.234375 257.398438 C 384.257812 257.535156 384.285156 257.667969 384.316406 257.804688 C 384.789062 259.953125 385.972656 261.890625 387.507812 264.394531 C 389.921875 268.324219 393.058594 273.433594 395.042969 282.433594 C 395.058594 282.488281 395.0625 282.542969 395.058594 282.597656 C 394.367188 293.820312 396.554688 307.675781 397.695312 312.074219 C 398.15625 313.851562 398.867188 315.300781 399.636719 316.863281 C 401.386719 320.421875 403.285156 324.300781 402.5625 332.996094 L 401.964844 332.945312 L 402.5625 332.992188 C 402.566406 332.96875 401.785156 342.460938 408.3125 349.996094 L 408.304688 349.988281 C 422.542969 365.929688 430.222656 393.882812 429.210938 396.648438 C 429.203125 396.675781 429.191406 396.707031 429.175781 396.738281 L 429.207031 396.660156 C 429.070312 397.097656 429.300781 396.605469 429.085938 396.289062 L 428.660156 396.03125 L 428.253906 396.128906 C 428.039062 396.273438 427.957031 396.605469 428.027344 396.410156 L 427.992188 396.617188 L 428.027344 396.410156 C 428.273438 395.734375 434.839844 374.101562 426.894531 362.167969 C 419.347656 350.832031 395.421875 349.886719 390.398438 352.230469 C 363.644531 364.71875 369.246094 388.714844 370.984375 395.371094 C 371.027344 395.53125 371.066406 395.6875 371.105469 395.828125 C 371.136719 395.953125 371.164062 396.0625 371.195312 396.171875 L 370.023438 396.4375 C 366.507812 378.0625 362.585938 370.042969 359.816406 365.457031 C 359.3125 364.621094 358.84375 363.894531 358.414062 363.234375 C 358.066406 362.691406 357.738281 362.191406 357.449219 361.710938 C 356.625 360.347656 355.648438 358.804688 354.578125 357.113281 C 348.308594 347.21875 338.746094 332.167969 338.652344 318.742188 C 338.652344 318.714844 338.574219 307.25 339.851562 300.125 C 339.878906 299.957031 339.980469 299.808594 340.128906 299.71875 C 342.792969 298.082031 344.027344 296.253906 344.40625 294.378906 C 345.316406 289.878906 341.429688 284.65625 338.027344 280.148438 C 335.90625 277.339844 333.722656 274.546875 334.089844 272.722656 C 334.140625 272.484375 334.324219 272.300781 334.5625 272.253906 C 334.796875 272.203125 335.039062 272.300781 335.175781 272.5 C 335.164062 272.480469 349.472656 293.347656 352.75 299.503906 C 353.171875 300.296875 354.363281 304.816406 356.015625 311.078125 C 360.542969 328.230469 368.757812 359.308594 375.355469 370.160156 C 383.605469 383.730469 391.546875 391.316406 397.019531 392.542969 C 400.402344 393.300781 402.957031 391.621094 404.058594 386.683594 C 404.117188 386.433594 404.273438 386.257812 404.414062 386.148438 C 404.75 385.886719 405.277344 385.773438 405.777344 385.738281 C 407.78125 385.597656 411.746094 386.644531 412.042969 390.898438 C 412.054688 391.066406 412.261719 394.984375 406.660156 404.164062 L 406.683594 403.578125 C 406.675781 403.566406 406.671875 403.558594 406.667969 403.546875 L 406.144531 403.847656 L 406.746094 403.847656 L 406.699219 403.617188 C 406.800781 403.859375 410.378906 412.207031 412.875 412.851562 C 413.285156 412.960938 414.011719 412.851562 414.621094 410.496094 C 414.730469 410.074219 415.109375 409.398438 415.539062 408.621094 C 417.707031 404.683594 422.832031 395.375 419.347656 382.414062 C 415.375 367.660156 400.664062 347.871094 392.96875 339.4375 C 385.152344 330.867188 374.699219 301.558594 371.546875 292.125 C 369.59375 286.273438 370.9375 281.042969 374.175781 273.359375 C 375.148438 271.046875 376.300781 268.5 377.59375 265.640625 C 379.261719 261.945312 381.175781 257.71875 383.261719 252.765625 L 383.390625 253.429688 C 382.808594 252.847656 381.863281 253.117188 379.617188 254.027344 C 379.109375 254.230469 378.660156 254.472656 378.253906 254.742188 C 376.648438 255.8125 375.691406 257.34375 374.660156 259.003906 C 373.652344 260.632812 372.574219 262.386719 370.734375 263.613281 C 370.535156 263.746094 370.332031 263.847656 370.125 263.925781 C 367.867188 264.769531 365.960938 262.328125 365.726562 261.824219 C 365.714844 261.800781 365.703125 261.773438 365.695312 261.746094 C 364.566406 258.722656 363.695312 252.355469 362.792969 245.777344 C 361.625 237.292969 360.40625 228.5 358.59375 225.25 C 357.785156 223.800781 356.855469 223.070312 356.214844 223.019531 C 355.675781 222.976562 354.695312 223.515625 354.433594 226.785156 L 354.4375 226.722656 L 355.082031 252.335938 C 355.085938 252.5 355.023438 252.660156 354.910156 252.773438 C 354.792969 252.890625 354.636719 252.957031 354.472656 252.953125 C 353.796875 252.945312 353.285156 252.441406 352.902344 251.910156 C 352.019531 250.6875 351.113281 248.28125 350.023438 245.402344 C 348.085938 240.300781 345.460938 233.386719 341.148438 227.40625 C 340.03125 225.855469 339.488281 225.851562 339.375 225.890625 C 338.527344 226.1875 338.214844 230.207031 338.945312 232.289062 C 339.546875 234.011719 340.140625 235.65625 340.707031 237.222656 C 343.324219 244.492188 345.457031 250.390625 346.070312 256.929688 C 346.089844 257.128906 346.011719 257.324219 345.855469 257.449219 C 345.703125 257.578125 345.5 257.621094 345.308594 257.566406 C 345.09375 257.507812 344.886719 257.4375 344.679688 257.355469 C 340.84375 255.867188 337.839844 251.039062 335.035156 246.582031 C 332.214844 242.101562 329.597656 237.996094 326.527344 236.808594 C 326.609375 236.839844 326.664062 236.835938 326.648438 236.835938 C 326.605469 236.835938 326.410156 236.867188 326.128906 236.996094 C 325.230469 237.40625 323.910156 238.535156 325.035156 241.011719 C 326.429688 244.074219 329.226562 247.847656 332.003906 251.589844 C 335.847656 256.761719 340.078125 262.316406 338.980469 265.167969 C 338.921875 265.328125 338.792969 265.457031 338.632812 265.515625 C 338.46875 265.578125 338.289062 265.566406 338.136719 265.484375 C 338.164062 265.5 337.492188 265.136719 336.277344 264.765625 C 334.878906 264.335938 333.363281 263.832031 331.789062 263.304688 C 326.160156 261.429688 319.894531 259.351562 315.550781 259.5 C 315.589844 259.496094 315.484375 259.496094 315.347656 259.550781 C 315.199219 259.609375 314.371094 259.902344 315.191406 262.050781 L 315.164062 261.996094 C 315.808594 263.277344 317.429688 264.230469 326.804688 265.941406 C 328.539062 266.257812 329.394531 267.554688 329.675781 268.710938 C 329.730469 268.929688 329.660156 269.160156 329.488281 269.308594 C 326.167969 272.230469 325.011719 280.730469 324.359375 287.773438 C 324.335938 288.027344 324.15625 288.238281 323.914062 288.300781 C 323.667969 288.363281 323.40625 288.265625 323.265625 288.058594 C 323.097656 287.8125 317.210938 279.292969 315.742188 279.21875 L 315.773438 279.21875 L 315.742188 279.21875 C 315.742188 279.21875 315.78125 279.21875 315.828125 279.195312 C 316.410156 278.867188 315.15625 278.554688 318.304688 286.546875 L 317.746094 286.765625 L 318.339844 286.675781 L 318.34375 286.6875 C 318.351562 286.742188 318.894531 290.683594 319.824219 292.515625 C 319.816406 292.5 321.949219 296.703125 325.507812 300.765625 C 325.636719 300.914062 325.683594 301.121094 325.636719 301.3125 C 321.890625 315.984375 325.089844 343.5 326.113281 349.515625 C 326.164062 349.820312 326.222656 350.121094 326.289062 350.417969 C 327.226562 354.675781 329.484375 357.964844 331.945312 361.539062 C 334.675781 365.5 337.621094 369.765625 338.980469 375.929688 C 342.226562 390.679688 343.066406 406.015625 341.738281 408.683594 C 341.636719 408.890625 341.425781 409.019531 341.195312 409.015625 L 308.257812 408.6875 C 307.925781 408.683594 307.660156 408.410156 307.664062 408.078125 C 307.664062 407.746094 307.9375 407.476562 308.269531 407.480469 Z M 308.269531 407.480469 " fill-opacity="1" fill-rule="nonzero"/></g></svg>