<svg xmlns="http://www.w3.org/2000/svg" xmlns:xlink="http://www.w3.org/1999/xlink" width="1366" zoomAndPan="magnify" viewBox="0 0 1024.5 576" height="768" preserveAspectRatio="xMidYMid meet" version="1.0"><defs><g/><clipPath id="77f5e9cc43"><path d="M 0 0.140625 L 1024 0.140625 L 1024 575.859375 L 0 575.859375 Z M 0 0.140625 " clip-rule="nonzero"/></clipPath><clipPath id="c2c4a37ffa"><path d="M 426.886719 150 L 473.046875 150 L 473.046875 174.875 L 426.886719 174.875 Z M 426.886719 150 " clip-rule="nonzero"/></clipPath><clipPath id="e2f9b569a5"><path d="M 430 145.5 L 470 145.5 L 470 173 L 430 173 Z M 430 145.5 " clip-rule="nonzero"/></clipPath><clipPath id="492c12d247"><path d="M 352 223.011719 L 672.691406 223.011719 L 672.691406 453.261719 L 352 453.261719 Z M 352 223.011719 " clip-rule="nonzero"/></clipPath></defs><g clip-path="url(#77f5e9cc43)"><path fill="#ffffff" d="M 0 0.140625 L 1024.5 0.140625 L 1024.5 583.640625 L 0 583.640625 Z M 0 0.140625 " fill-opacity="1" fill-rule="nonzero"/><path fill="#ffffff" d="M 0 0.140625 L 1024.5 0.140625 L 1024.5 576.140625 L 0 576.140625 Z M 0 0.140625 " fill-opacity="1" fill-rule="nonzero"/><path fill="#374151" d="M 0 0.140625 L 1024.5 0.140625 L 1024.5 576.140625 L 0 576.140625 Z M 0 0.140625 " fill-opacity="1" fill-rule="nonzero"/></g><g clip-path="url(#c2c4a37ffa)"><path fill="#ffffff" d="M 470.285156 150.574219 L 470.273438 150.652344 L 468.554688 169.347656 L 468.480469 170.199219 L 467.613281 170.089844 L 466.964844 170.007812 C 465.667969 169.84375 464.394531 169.753906 463.179688 169.753906 C 457.308594 169.753906 453.738281 171.699219 452.132812 172.859375 L 449.96875 173.023438 L 449.960938 173.023438 L 447.796875 172.859375 C 446.191406 171.699219 442.621094 169.753906 436.75 169.753906 C 435.535156 169.753906 434.261719 169.84375 432.964844 170.007812 L 432.316406 170.089844 L 431.449219 170.199219 L 431.375 169.347656 L 429.65625 150.652344 L 429.648438 150.574219 L 426.90625 150.574219 L 429.699219 171.75 L 448.121094 174.875 L 451.808594 174.875 L 470.230469 171.75 L 473.023438 150.574219 L 470.285156 150.574219 " fill-opacity="1" fill-rule="nonzero"/></g><g clip-path="url(#e2f9b569a5)"><path fill="#ffffff" d="M 432.777344 149.449219 L 432.882812 150.523438 L 434.289062 165.070312 L 434.777344 165.140625 C 434.863281 165.148438 441.664062 166.175781 446.253906 169.585938 C 444.050781 168.578125 440.933594 167.695312 436.789062 167.695312 C 435.707031 167.695312 434.5625 167.757812 433.34375 167.890625 L 431.757812 150.574219 L 431.664062 149.550781 C 432.050781 149.507812 432.417969 149.476562 432.777344 149.449219 Z M 444.179688 149.40625 C 447.230469 150.984375 448.84375 152.800781 449.316406 153.386719 L 449.316406 170.730469 C 445.355469 166.015625 437.507812 164.363281 435.449219 164 L 434.132812 150.398438 L 433.78125 146.773438 C 438.296875 146.988281 441.710938 148.121094 444.179688 149.40625 Z M 450.617188 153.386719 C 451.085938 152.800781 452.699219 150.984375 455.75 149.40625 C 458.21875 148.121094 461.632812 146.988281 466.148438 146.773438 L 465.796875 150.398438 L 464.480469 164 C 462.421875 164.363281 454.574219 166.015625 450.617188 170.730469 Z M 467.046875 150.523438 L 467.152344 149.449219 C 467.511719 149.476562 467.882812 149.507812 468.269531 149.550781 L 468.175781 150.574219 L 466.585938 167.890625 C 465.367188 167.757812 464.222656 167.695312 463.140625 167.695312 C 459 167.695312 455.878906 168.578125 453.675781 169.585938 C 458.265625 166.175781 465.066406 165.148438 465.152344 165.140625 L 465.640625 165.070312 Z M 432.207031 169.277344 L 432.859375 169.195312 C 437.308594 168.617188 440.789062 169.074219 443.394531 169.851562 C 443.648438 169.929688 443.894531 170.007812 444.132812 170.089844 C 444.375 170.171875 444.601562 170.257812 444.824219 170.34375 C 445.046875 170.429688 445.261719 170.515625 445.46875 170.605469 C 446.492188 171.054688 447.316406 171.53125 447.941406 171.953125 C 448.066406 172.039062 448.1875 172.121094 448.292969 172.199219 L 451.636719 172.199219 C 451.742188 172.121094 451.863281 172.039062 451.988281 171.953125 C 452.613281 171.53125 453.4375 171.054688 454.460938 170.605469 C 454.671875 170.515625 454.882812 170.429688 455.105469 170.34375 C 455.328125 170.257812 455.554688 170.171875 455.796875 170.089844 C 456.035156 170.007812 456.28125 169.929688 456.539062 169.851562 C 459.140625 169.074219 462.621094 168.617188 467.074219 169.195312 L 467.722656 169.277344 L 469.441406 150.574219 L 469.632812 148.457031 L 469.027344 148.390625 C 468.414062 148.320312 467.828125 148.261719 467.269531 148.222656 L 467.535156 145.496094 L 466.824219 145.515625 C 460.640625 145.671875 456.355469 147.425781 453.578125 149.1875 C 451.757812 150.34375 450.589844 151.5 449.96875 152.210938 L 449.960938 152.210938 C 449.34375 151.5 448.171875 150.34375 446.351562 149.1875 C 443.574219 147.425781 439.289062 145.671875 433.105469 145.515625 L 432.394531 145.496094 L 432.660156 148.222656 C 432.101562 148.261719 431.515625 148.320312 430.90625 148.390625 L 430.296875 148.457031 L 430.492188 150.574219 L 432.207031 169.277344 " fill-opacity="1" fill-rule="nonzero"/></g><g fill="#ffffff" fill-opacity="1"><g transform="translate(482.46965, 167.68624)"><g><path d="M 1.640625 -0.109375 C 2.179688 -0.847656 2.453125 -1.832031 2.453125 -3.0625 L 2.453125 -13.3125 C 2.453125 -14.550781 2.179688 -15.535156 1.640625 -16.265625 L 1.640625 -16.390625 L 8.28125 -16.390625 C 10.125 -16.390625 11.664062 -16.015625 12.90625 -15.265625 C 14.144531 -14.523438 14.765625 -13.300781 14.765625 -11.59375 C 14.765625 -10.476562 14.472656 -9.550781 13.890625 -8.8125 C 13.316406 -8.070312 12.566406 -7.53125 11.640625 -7.1875 C 10.710938 -6.84375 9.726562 -6.671875 8.6875 -6.671875 C 7.9375 -6.671875 7.222656 -6.800781 6.546875 -7.0625 L 6.546875 -7.4375 C 7.003906 -7.332031 7.472656 -7.28125 7.953125 -7.28125 C 9.015625 -7.28125 9.832031 -7.6875 10.40625 -8.5 C 10.976562 -9.320312 11.265625 -10.351562 11.265625 -11.59375 C 11.265625 -12.757812 10.96875 -13.753906 10.375 -14.578125 C 9.789062 -15.410156 8.960938 -15.828125 7.890625 -15.828125 C 7.171875 -15.828125 6.492188 -15.707031 5.859375 -15.46875 L 5.859375 -3.0625 C 5.859375 -1.832031 6.128906 -0.847656 6.671875 -0.109375 L 6.671875 0 L 1.640625 0 Z M 1.640625 -0.109375 "/></g></g></g><g fill="#ffffff" fill-opacity="1"><g transform="translate(497.183104, 167.68624)"><g><path d="M 1.359375 -0.109375 C 1.554688 -0.410156 1.710938 -0.789062 1.828125 -1.25 C 1.953125 -1.707031 2.015625 -2.210938 2.015625 -2.765625 L 2.015625 -13.4375 C 2.015625 -14.070312 1.941406 -14.59375 1.796875 -15 C 1.660156 -15.40625 1.453125 -15.742188 1.171875 -16.015625 L 1.171875 -16.125 L 5.0625 -17.4375 L 5.171875 -17.4375 L 5.171875 -2.765625 C 5.171875 -2.210938 5.226562 -1.707031 5.34375 -1.25 C 5.46875 -0.789062 5.628906 -0.410156 5.828125 -0.109375 L 5.828125 0 L 1.359375 0 Z M 1.359375 -0.109375 "/></g></g></g><g fill="#ffffff" fill-opacity="1"><g transform="translate(503.779436, 167.68624)"><g><path d="M 11.640625 -3.953125 C 11.367188 -2.660156 10.769531 -1.628906 9.84375 -0.859375 C 8.925781 -0.0859375 7.804688 0.296875 6.484375 0.296875 C 5.441406 0.296875 4.5 0.0664062 3.65625 -0.390625 C 2.8125 -0.847656 2.140625 -1.519531 1.640625 -2.40625 C 1.148438 -3.300781 0.90625 -4.359375 0.90625 -5.578125 C 0.90625 -6.835938 1.171875 -7.953125 1.703125 -8.921875 C 2.234375 -9.898438 2.941406 -10.65625 3.828125 -11.1875 C 4.722656 -11.726562 5.691406 -12 6.734375 -12 C 7.703125 -12 8.546875 -11.796875 9.265625 -11.390625 C 9.984375 -10.992188 10.53125 -10.453125 10.90625 -9.765625 C 11.28125 -9.078125 11.46875 -8.332031 11.46875 -7.53125 L 3.46875 -7.53125 C 3.507812 -6.363281 3.738281 -5.363281 4.15625 -4.53125 C 4.582031 -3.695312 5.132812 -3.066406 5.8125 -2.640625 C 6.488281 -2.222656 7.234375 -2.015625 8.046875 -2.015625 C 8.816406 -2.015625 9.492188 -2.1875 10.078125 -2.53125 C 10.660156 -2.875 11.101562 -3.347656 11.40625 -3.953125 Z M 5.859375 -11.328125 C 5.148438 -11.328125 4.578125 -11.050781 4.140625 -10.5 C 3.703125 -9.945312 3.476562 -9.140625 3.46875 -8.078125 L 8.359375 -8.078125 C 8.265625 -9.078125 8 -9.867188 7.5625 -10.453125 C 7.132812 -11.035156 6.566406 -11.328125 5.859375 -11.328125 Z M 5.859375 -11.328125 "/></g></g></g><g fill="#ffffff" fill-opacity="1"><g transform="translate(515.615647, 167.68624)"><g><path d="M 6.875 0.296875 C 4.925781 0.296875 3.226562 -0.164062 1.78125 -1.09375 L 1.78125 -13.4375 C 1.78125 -14.070312 1.707031 -14.59375 1.5625 -15 C 1.425781 -15.40625 1.21875 -15.742188 0.9375 -16.015625 L 0.9375 -16.125 L 4.828125 -17.4375 L 4.9375 -17.4375 L 4.9375 -9.90625 L 5.0625 -9.90625 C 5.4375 -10.5625 5.925781 -11.070312 6.53125 -11.4375 C 7.132812 -11.8125 7.835938 -12 8.640625 -12 C 9.554688 -12 10.363281 -11.757812 11.0625 -11.28125 C 11.769531 -10.8125 12.3125 -10.132812 12.6875 -9.25 C 13.070312 -8.375 13.265625 -7.359375 13.265625 -6.203125 C 13.265625 -5.046875 13 -3.972656 12.46875 -2.984375 C 11.945312 -1.992188 11.203125 -1.195312 10.234375 -0.59375 C 9.265625 0 8.144531 0.296875 6.875 0.296875 Z M 7 -0.234375 C 7.914062 -0.234375 8.625 -0.710938 9.125 -1.671875 C 9.625 -2.628906 9.875 -3.929688 9.875 -5.578125 C 9.875 -7.085938 9.632812 -8.265625 9.15625 -9.109375 C 8.6875 -9.953125 8.03125 -10.375 7.1875 -10.375 C 6.570312 -10.375 6.0625 -10.1875 5.65625 -9.8125 C 5.257812 -9.445312 5.019531 -8.976562 4.9375 -8.40625 L 4.9375 -1.890625 C 5.019531 -1.441406 5.238281 -1.050781 5.59375 -0.71875 C 5.945312 -0.394531 6.414062 -0.234375 7 -0.234375 Z M 7 -0.234375 "/></g></g></g><g fill="#ffffff" fill-opacity="1"><g transform="translate(529.323244, 167.68624)"><g><path d="M 1.640625 -0.109375 C 2.179688 -0.847656 2.453125 -1.832031 2.453125 -3.0625 L 2.453125 -13.3125 C 2.453125 -14.550781 2.179688 -15.535156 1.640625 -16.265625 L 1.640625 -16.390625 L 8.59375 -16.390625 C 10.25 -16.390625 11.617188 -16.078125 12.703125 -15.453125 C 13.796875 -14.828125 14.34375 -13.84375 14.34375 -12.5 C 14.34375 -11.46875 13.984375 -10.640625 13.265625 -10.015625 C 12.546875 -9.390625 11.691406 -9 10.703125 -8.84375 L 10.703125 -8.75 C 11.878906 -8.613281 12.882812 -8.171875 13.71875 -7.421875 C 14.5625 -6.679688 14.984375 -5.707031 14.984375 -4.5 C 14.984375 -2.9375 14.363281 -1.796875 13.125 -1.078125 C 11.894531 -0.359375 10.382812 0 8.59375 0 L 1.640625 0 Z M 7.5625 -9.0625 C 8.59375 -9.0625 9.394531 -9.375 9.96875 -10 C 10.550781 -10.625 10.84375 -11.441406 10.84375 -12.453125 C 10.84375 -13.429688 10.546875 -14.238281 9.953125 -14.875 C 9.367188 -15.507812 8.578125 -15.828125 7.578125 -15.828125 C 7.003906 -15.828125 6.429688 -15.71875 5.859375 -15.5 L 5.859375 -9.0625 Z M 7.75 -0.5625 C 8.851562 -0.5625 9.738281 -0.914062 10.40625 -1.625 C 11.082031 -2.332031 11.421875 -3.289062 11.421875 -4.5 C 11.421875 -5.738281 11.078125 -6.707031 10.390625 -7.40625 C 9.703125 -8.113281 8.78125 -8.46875 7.625 -8.46875 L 5.859375 -8.46875 L 5.859375 -0.984375 C 6.367188 -0.703125 7 -0.5625 7.75 -0.5625 Z M 7.75 -0.5625 "/></g></g></g><g fill="#ffffff" fill-opacity="1"><g transform="translate(544.808655, 167.68624)"><g><path d="M 6.8125 0.296875 C 5.65625 0.296875 4.625 0.0351562 3.71875 -0.484375 C 2.8125 -1.015625 2.101562 -1.742188 1.59375 -2.671875 C 1.09375 -3.609375 0.84375 -4.671875 0.84375 -5.859375 C 0.84375 -7.035156 1.09375 -8.085938 1.59375 -9.015625 C 2.101562 -9.953125 2.8125 -10.679688 3.71875 -11.203125 C 4.625 -11.734375 5.65625 -12 6.8125 -12 C 7.945312 -12 8.96875 -11.734375 9.875 -11.203125 C 10.78125 -10.679688 11.484375 -9.953125 11.984375 -9.015625 C 12.492188 -8.085938 12.75 -7.035156 12.75 -5.859375 C 12.75 -4.671875 12.492188 -3.609375 11.984375 -2.671875 C 11.484375 -1.742188 10.78125 -1.015625 9.875 -0.484375 C 8.96875 0.0351562 7.945312 0.296875 6.8125 0.296875 Z M 6.8125 -0.234375 C 7.664062 -0.234375 8.300781 -0.742188 8.71875 -1.765625 C 9.144531 -2.785156 9.359375 -4.148438 9.359375 -5.859375 C 9.359375 -7.554688 9.144531 -8.914062 8.71875 -9.9375 C 8.300781 -10.957031 7.664062 -11.46875 6.8125 -11.46875 C 5.957031 -11.46875 5.3125 -10.957031 4.875 -9.9375 C 4.445312 -8.914062 4.234375 -7.554688 4.234375 -5.859375 C 4.234375 -4.148438 4.445312 -2.785156 4.875 -1.765625 C 5.3125 -0.742188 5.957031 -0.234375 6.8125 -0.234375 Z M 6.8125 -0.234375 "/></g></g></g><g fill="#ffffff" fill-opacity="1"><g transform="translate(557.931429, 167.68624)"><g><path d="M 6.8125 0.296875 C 5.65625 0.296875 4.625 0.0351562 3.71875 -0.484375 C 2.8125 -1.015625 2.101562 -1.742188 1.59375 -2.671875 C 1.09375 -3.609375 0.84375 -4.671875 0.84375 -5.859375 C 0.84375 -7.035156 1.09375 -8.085938 1.59375 -9.015625 C 2.101562 -9.953125 2.8125 -10.679688 3.71875 -11.203125 C 4.625 -11.734375 5.65625 -12 6.8125 -12 C 7.945312 -12 8.96875 -11.734375 9.875 -11.203125 C 10.78125 -10.679688 11.484375 -9.953125 11.984375 -9.015625 C 12.492188 -8.085938 12.75 -7.035156 12.75 -5.859375 C 12.75 -4.671875 12.492188 -3.609375 11.984375 -2.671875 C 11.484375 -1.742188 10.78125 -1.015625 9.875 -0.484375 C 8.96875 0.0351562 7.945312 0.296875 6.8125 0.296875 Z M 6.8125 -0.234375 C 7.664062 -0.234375 8.300781 -0.742188 8.71875 -1.765625 C 9.144531 -2.785156 9.359375 -4.148438 9.359375 -5.859375 C 9.359375 -7.554688 9.144531 -8.914062 8.71875 -9.9375 C 8.300781 -10.957031 7.664062 -11.46875 6.8125 -11.46875 C 5.957031 -11.46875 5.3125 -10.957031 4.875 -9.9375 C 4.445312 -8.914062 4.234375 -7.554688 4.234375 -5.859375 C 4.234375 -4.148438 4.445312 -2.785156 4.875 -1.765625 C 5.3125 -0.742188 5.957031 -0.234375 6.8125 -0.234375 Z M 6.8125 -0.234375 "/></g></g></g><g fill="#ffffff" fill-opacity="1"><g transform="translate(571.054204, 167.68624)"><g><path d="M 1.359375 -0.109375 C 1.554688 -0.410156 1.710938 -0.789062 1.828125 -1.25 C 1.953125 -1.707031 2.015625 -2.210938 2.015625 -2.765625 L 2.015625 -13.4375 C 2.015625 -14.070312 1.941406 -14.59375 1.796875 -15 C 1.660156 -15.40625 1.453125 -15.742188 1.171875 -16.015625 L 1.171875 -16.125 L 5.0625 -17.4375 L 5.171875 -17.4375 L 5.171875 -2.765625 C 5.171875 -2.210938 5.226562 -1.707031 5.34375 -1.25 C 5.46875 -0.789062 5.628906 -0.410156 5.828125 -0.109375 L 5.828125 0 L 1.359375 0 Z M 11.71875 0.1875 C 10.988281 0.1875 10.382812 0.0546875 9.90625 -0.203125 C 9.4375 -0.472656 8.984375 -0.910156 8.546875 -1.515625 L 5.640625 -5.484375 L 5.640625 -5.59375 L 8.515625 -8.890625 C 9.128906 -9.597656 9.4375 -10.203125 9.4375 -10.703125 C 9.4375 -11.054688 9.300781 -11.351562 9.03125 -11.59375 L 9.03125 -11.703125 L 12.609375 -11.703125 L 12.609375 -11.59375 C 11.960938 -11.28125 11.398438 -10.941406 10.921875 -10.578125 C 10.441406 -10.222656 9.929688 -9.75 9.390625 -9.15625 L 7.984375 -7.625 L 12.421875 -1.640625 C 12.953125 -0.921875 13.351562 -0.515625 13.625 -0.421875 L 13.625 -0.25 C 13.375 -0.125 13.078125 -0.0195312 12.734375 0.0625 C 12.390625 0.144531 12.050781 0.1875 11.71875 0.1875 Z M 11.71875 0.1875 "/></g></g></g><g clip-path="url(#492c12d247)"><path fill="#ffffff" d="M 671.675781 420.84375 L 647.765625 421.648438 L 648.074219 421.554688 C 618.121094 439.804688 599.917969 450.90625 591.484375 453.199219 C 591.394531 453.222656 591.300781 453.226562 591.207031 453.210938 L 511.292969 439.140625 L 511.1875 439.113281 C 506.929688 437.578125 505.628906 435.894531 506.226562 434.234375 C 506.652344 433.0625 507.980469 432.390625 507.957031 432.40625 C 508.179688 432.289062 508.449219 432.3125 508.644531 432.464844 C 511.164062 434.417969 569.394531 447.230469 590.398438 448.226562 L 589.808594 448.558594 C 590.085938 448.050781 588.878906 446.039062 587.28125 445.171875 C 587.078125 445.0625 586.910156 444.996094 586.78125 444.96875 C 574.617188 442.398438 509.648438 430.289062 509.636719 430.289062 C 509.328125 430.230469 509.109375 429.960938 509.113281 429.648438 L 509.113281 429.652344 C 509.113281 429.617188 509.113281 429.597656 509.117188 429.566406 L 509.117188 429.5625 C 509.433594 425.882812 534.136719 416.65625 581.125 401.730469 C 581.226562 401.699219 581.332031 401.691406 581.433594 401.710938 C 634.777344 411.390625 641.269531 413.746094 642.105469 414.324219 C 642.152344 414.355469 642.53125 414.605469 642.449219 415.058594 C 642.398438 415.351562 642.183594 415.480469 642.128906 415.511719 L 641.8125 414.957031 L 642.128906 415.511719 C 633.566406 420.410156 626.105469 423.738281 619.132812 426.847656 C 615.460938 428.488281 611.921875 430.066406 608.417969 431.785156 C 604.542969 433.683594 601.125 435.441406 598.199219 436.945312 C 596.015625 438.070312 594.082031 439.0625 592.445312 439.867188 C 589.078125 441.519531 586.375 442.722656 585.21875 441.996094 L 585.222656 442 C 585.152344 441.953125 585.089844 441.90625 585.03125 441.851562 L 585.273438 441.996094 C 566.757812 436.054688 499.597656 421.058594 494.023438 438.417969 C 493.804688 439.101562 493.679688 439.84375 493.660156 440.652344 L 492.585938 440.171875 L 510.921875 422.917969 L 510.789062 423.675781 C 509.683594 421.511719 504.757812 421.484375 499.558594 421.558594 C 495.984375 421.609375 491.789062 421.78125 490.878906 420.003906 C 490.808594 419.863281 490.757812 419.71875 490.726562 419.566406 C 489.726562 414.550781 489.746094 396.050781 489.761719 379.148438 C 489.773438 364.585938 489.78125 351.25 489.183594 348.25 C 489.136719 348.015625 489.097656 347.910156 489.085938 347.886719 L 489.085938 347.882812 C 489.085938 347.886719 489.089844 347.894531 489.101562 347.910156 L 489.601562 348.167969 C 465.4375 347.683594 374.375 346.203125 368.0625 349.417969 L 368.414062 348.835938 C 368.554688 355.425781 367.980469 422.992188 367.53125 438.097656 C 367.523438 438.40625 367.351562 438.628906 367.210938 438.761719 L 366.773438 438.296875 L 367.210938 438.761719 C 365.632812 440.230469 353.058594 440.765625 352.773438 440.765625 C 352.761719 440.765625 352.75 440.765625 352.742188 440.765625 C 352.722656 440.765625 352.664062 440.761719 352.59375 440.742188 L 352.117188 440.117188 C 352.128906 439.3125 353.820312 439.429688 353.734375 439.433594 C 364.347656 438.949219 410.726562 440.679688 446.566406 442.015625 C 469.246094 442.863281 487.671875 443.550781 490.300781 443.429688 C 490.417969 443.421875 490.472656 443.417969 490.488281 443.414062 L 490.59375 444.042969 L 490.488281 443.414062 C 490.933594 443.339844 490.007812 443.339844 490.019531 444.03125 L 490.019531 444.011719 C 490.019531 444.097656 490.035156 444.175781 490.0625 444.246094 C 489.96875 443.996094 490.035156 443.714844 490.234375 443.539062 C 490.199219 443.574219 490.179688 443.601562 490.183594 443.597656 C 490.753906 442.644531 490.863281 434.613281 490.957031 425.0625 C 491.070312 413.679688 491.1875 400.445312 492.535156 397.160156 C 492.652344 396.878906 492.953125 396.71875 493.253906 396.777344 L 543.15625 406.867188 L 542.832031 406.882812 C 552.597656 403.730469 552.761719 397.996094 552.757812 398.042969 L 552.757812 398.058594 L 552.757812 398.054688 L 553.398438 398.0625 L 552.757812 398.046875 C 552.824219 395.496094 544.90625 383.3125 536.890625 371.039062 C 530.476562 361.222656 524.132812 351.523438 522.546875 347.484375 C 522.472656 347.289062 522.496094 347.070312 522.609375 346.894531 C 524.234375 344.460938 522.9375 334.679688 521.242188 322.410156 L 520.996094 320.625 L 521.023438 320.734375 L 517.046875 308.441406 L 517.164062 308.652344 C 517.011719 308.46875 516.523438 308.351562 515.707031 309.027344 C 515.269531 309.386719 514.898438 309.875 514.710938 310.367188 L 514.753906 310.089844 L 514.753906 310.109375 L 514.753906 310.097656 C 515.511719 317.722656 515.96875 321.316406 513.402344 322.949219 C 513.058594 323.167969 512.675781 323.152344 512.351562 322.988281 C 512 322.808594 511.714844 322.453125 511.484375 322.085938 C 510.226562 320.109375 508.589844 314.625 506.640625 307.59375 C 506.023438 305.375 505.078125 305.644531 504.878906 305.699219 C 504.785156 305.726562 504.726562 305.757812 504.726562 305.757812 L 504.722656 305.757812 C 504.714844 305.761719 504.726562 305.757812 504.730469 305.753906 L 504.417969 305.199219 L 504.210938 305.800781 C 504.257812 305.816406 504.316406 305.804688 504.335938 305.792969 L 504.332031 305.792969 C 504.285156 305.820312 504.105469 306.011719 503.898438 306.609375 C 503.148438 308.773438 502.777344 313.988281 503.449219 320.558594 C 503.484375 320.898438 503.242188 321.207031 502.902344 321.253906 C 502.5625 321.300781 502.246094 321.074219 502.183594 320.734375 C 501.644531 317.726562 501.640625 315.621094 501.636719 314.171875 C 501.636719 313.371094 501.632812 312.84375 501.5625 312.453125 C 501.480469 311.992188 501.347656 311.796875 500.734375 311.636719 L 501.265625 311.539062 C 498.144531 313.75 496.578125 318.140625 498.574219 323.074219 L 497.351562 323.402344 C 497.234375 322.582031 496.433594 320.007812 495.871094 319.910156 L 495.984375 319.28125 L 495.871094 319.910156 C 495.871094 319.910156 495.875 319.910156 495.878906 319.910156 C 495.683594 319.9375 494.847656 320.765625 493.898438 325.390625 C 493.164062 328.976562 496.238281 339.058594 500.246094 344.210938 C 509.144531 355.65625 528.316406 399.296875 527.964844 402.710938 C 527.953125 402.8125 527.921875 403.007812 527.792969 403.175781 C 527.648438 403.363281 527.410156 403.457031 527.175781 403.414062 L 517.507812 401.738281 C 517.175781 401.679688 516.949219 401.375 516.980469 401.042969 C 517.617188 394.75 516.503906 385.683594 515.933594 383.277344 L 515.964844 383.371094 L 505.511719 357.816406 L 506.738281 357.652344 C 503.925781 380.648438 503.152344 391.171875 503.574219 399.4375 L 503.105469 398.855469 C 540.984375 409.179688 555.816406 407.425781 555.714844 407.4375 C 556.570312 407.339844 557.082031 406.265625 556.757812 403.476562 C 556.253906 399.167969 553.9375 392.765625 552.5 388.796875 C 551.925781 387.210938 551.464844 385.945312 551.363281 385.4375 C 551.320312 385.210938 551.402344 384.980469 551.578125 384.828125 C 551.75 384.679688 551.992188 384.636719 552.210938 384.714844 C 555.769531 386.007812 556.289062 385.871094 558.566406 385.421875 C 558.757812 385.382812 559.019531 385.332031 559.246094 385.289062 L 559.210938 386.535156 C 555.234375 385.535156 552.335938 384.507812 551.882812 383.253906 C 551.804688 383.039062 551.785156 382.808594 551.84375 382.574219 C 551.867188 382.480469 551.90625 382.386719 551.953125 382.300781 C 552.523438 381.234375 554.992188 380.65625 558.617188 380.230469 L 558.332031 381.394531 C 553.179688 377.90625 552.585938 376.039062 553.230469 373.804688 C 556.277344 363.261719 558.128906 346.585938 556.753906 339.75 L 558.011719 339.71875 C 555.613281 355.878906 557.34375 365.792969 559.625 378.800781 C 560.378906 383.117188 561.191406 387.746094 561.933594 393.078125 L 561.875 392.886719 C 561.875 392.886719 561.878906 392.890625 561.871094 392.882812 L 561.875 392.886719 C 563.078125 394.898438 586.902344 401.507812 590.09375 399.988281 C 590.152344 399.960938 590.171875 399.945312 590.171875 399.941406 L 590.175781 399.941406 C 590.175781 399.9375 590.167969 399.945312 590.164062 399.953125 L 590.050781 400.316406 C 590.058594 398.40625 590.0625 397.828125 590.070312 395.769531 C 590.082031 393.957031 590.089844 392.285156 590.097656 390.320312 C 590.1875 365.421875 589.796875 329.363281 582.152344 317.332031 C 578.355469 311.355469 539.414062 292.855469 539.128906 292.722656 L 539.3125 292.777344 C 539.507812 292.804688 538.753906 292.789062 538.761719 292.136719 L 540.007812 292.34375 C 535.722656 305.507812 529.261719 309.664062 525.148438 312.296875 C 523.878906 313.109375 522.929688 313.71875 522.3125 314.382812 L 522.328125 313.53125 L 533.664062 326.546875 L 532.695312 326.550781 C 536.859375 321.722656 539.675781 316.175781 539.671875 316.1875 C 544.84375 306.003906 545.035156 296.296875 544.644531 295.351562 C 544.625 295.300781 544.671875 295.460938 544.863281 295.558594 L 544.832031 295.542969 C 544.839844 295.546875 544.851562 295.554688 544.855469 295.558594 L 544.882812 295.570312 C 543.917969 295.121094 543.078125 294.808594 542.277344 294.515625 C 541.609375 294.265625 540.964844 294.03125 540.34375 293.742188 C 538.976562 293.105469 537.742188 292.230469 536.394531 290.460938 C 536.296875 290.332031 536.25 290.171875 536.265625 290.011719 C 536.4375 288.28125 535.554688 274.152344 535.550781 274.101562 C 535.539062 273.878906 535.640625 273.667969 535.824219 273.539062 C 541.53125 269.574219 539.085938 264.71875 537.503906 262.445312 C 537.203125 262.011719 536.945312 261.691406 536.792969 261.503906 L 536.808594 261.523438 C 536.78125 261.492188 536.777344 261.484375 536.777344 261.480469 L 536.789062 261.496094 C 536.40625 261.023438 535.628906 261.363281 531.820312 264.101562 L 531.308594 264.46875 C 531.019531 264.675781 530.625 264.609375 530.417969 264.328125 C 529.019531 262.402344 527.453125 260.785156 525.957031 259.234375 C 524.664062 257.902344 523.421875 256.617188 522.449219 255.277344 C 521.328125 253.738281 520.539062 252.085938 520.453125 250.140625 L 520.453125 250.136719 C 520.34375 247.644531 517.9375 246.351562 513.507812 246.546875 C 509.640625 246.714844 504.644531 248.042969 499.628906 250.292969 C 498.542969 250.78125 496.269531 250.546875 494.230469 250.355469 C 491.699219 250.121094 489.347656 249.925781 488.273438 250.410156 L 488.273438 250.40625 C 488.261719 250.414062 488.246094 250.421875 488.234375 250.425781 C 483.730469 252.605469 484.714844 265.554688 484.75 265.820312 L 484.117188 265.898438 L 483.636719 266.320312 C 483.605469 266.289062 483.648438 266.332031 483.628906 266.308594 L 483.621094 266.300781 C 483.609375 266.289062 483.605469 266.285156 483.609375 266.292969 L 483.605469 266.285156 C 482.464844 264.988281 477.273438 259.066406 477.28125 251.367188 C 477.292969 244.660156 482.390625 235.550781 490.207031 230.035156 C 498.0625 224.496094 508.390625 223.011719 515.164062 223.007812 C 517.292969 223.007812 530.648438 226.816406 536.0625 234.703125 C 542 243.355469 539.707031 262.824219 539.714844 262.730469 C 539.691406 262.941406 539.5625 263.125 539.375 263.222656 C 537.179688 264.34375 533.890625 264.394531 531.546875 264.4375 C 530.914062 264.449219 530.347656 264.460938 529.863281 264.488281 L 530.035156 264.453125 C 521.039062 267.535156 511.753906 269.457031 511.746094 269.460938 C 497.792969 272.351562 481.578125 274.492188 481.578125 274.492188 L 482.066406 273.574219 C 482.679688 274.808594 481.667969 272.773438 482.285156 274.015625 L 482.523438 274.5 C 484.179688 277.820312 486.390625 281.898438 489 282.515625 C 493.238281 283.511719 497.914062 278.121094 498.855469 274.125 C 498.882812 274.003906 498.898438 273.929688 498.921875 273.808594 C 498.960938 273.59375 499.105469 273.414062 499.308594 273.335938 C 499.511719 273.253906 499.742188 273.28125 499.921875 273.40625 C 500.179688 273.59375 500.515625 273.839844 500.824219 274.070312 C 501.214844 274.355469 501.625 274.660156 502.074219 274.980469 C 505.828125 277.679688 510.800781 280.707031 513.898438 278.738281 C 518.074219 276.085938 518.222656 270.089844 517.84375 269.351562 C 517.847656 269.355469 517.839844 269.347656 517.851562 269.363281 C 517.855469 269.371094 517.851562 269.363281 517.855469 269.367188 C 517.714844 269.167969 517.703125 268.902344 517.824219 268.6875 C 517.945312 268.476562 518.175781 268.351562 518.421875 268.367188 C 518.414062 268.367188 518.410156 268.367188 518.410156 268.367188 C 519.765625 268.378906 536.199219 264.859375 536.757812 256.648438 C 536.765625 256.558594 536.769531 256.4375 536.769531 256.347656 C 536.789062 255.421875 536.84375 254.421875 536.898438 253.292969 C 536.96875 251.9375 537.039062 250.515625 537.074219 248.964844 C 537.285156 238.855469 535.6875 226.199219 519.179688 225.851562 C 518.78125 225.84375 518.371094 225.84375 517.953125 225.847656 C 488.527344 226.285156 481.863281 239.355469 482.046875 251.746094 C 482.226562 263.683594 488.773438 275.246094 488.773438 275.238281 C 488.855469 275.382812 488.875 275.554688 488.835938 275.714844 C 487.660156 280.164062 489.359375 283.035156 493.703125 290.191406 C 494.132812 290.898438 494.273438 291.128906 494.730469 291.886719 L 494.730469 291.882812 C 498.160156 297.566406 504.261719 300.332031 504.242188 300.324219 C 510.742188 303.265625 510.46875 310.734375 510.363281 314.273438 C 510.335938 315.207031 510.324219 315.796875 510.382812 316.089844 L 509.722656 315.578125 C 518.847656 315.078125 519.296875 314.605469 522.644531 311.863281 C 524.042969 310.71875 525.917969 309.183594 528.980469 307.125 C 540.261719 299.539062 536.515625 289.4375 533.546875 281.523438 C 532.496094 278.71875 531.5 276.09375 531.511719 274.089844 L 532.785156 274.167969 C 530.574219 292.359375 517.277344 304.726562 510.457031 303.894531 C 510.410156 303.890625 510.375 303.886719 510.332031 303.878906 C 504.574219 303.03125 502.84375 301.566406 501.210938 300.152344 C 500.328125 299.386719 499.527344 298.691406 498.035156 298.125 L 498.347656 298.160156 C 481.457031 300.484375 477.664062 304.335938 472.582031 309.640625 C 466.050781 316.449219 451.011719 344.070312 450.617188 345.804688 L 450.632812 345.671875 L 450.617188 345.804688 C 450.574219 345.996094 450.738281 345.589844 450.433594 345.296875 C 450.054688 344.9375 449.632812 345.25 449.683594 345.214844 C 449.980469 345.023438 450.375 345.109375 450.570312 345.402344 C 450.761719 345.699219 450.679688 346.09375 450.382812 346.285156 C 450.394531 346.277344 449.949219 346.597656 449.554688 346.222656 L 449.550781 346.21875 C 449.226562 345.90625 449.390625 345.433594 449.371094 345.523438 L 449.355469 345.65625 L 449.371094 345.523438 C 449.828125 343.511719 465.011719 315.6875 471.660156 308.753906 C 476.933594 303.253906 480.984375 299.257812 498.171875 296.894531 C 498.28125 296.882812 498.386719 296.894531 498.488281 296.929688 C 500.199219 297.582031 501.144531 298.402344 502.046875 299.1875 C 503.515625 300.460938 505.03125 301.808594 510.515625 302.617188 C 510.550781 302.621094 510.574219 302.625 510.609375 302.628906 C 516.296875 303.320312 529.328125 292.035156 531.515625 274.015625 C 531.558594 273.679688 531.855469 273.433594 532.191406 273.453125 C 532.527344 273.476562 532.792969 273.757812 532.789062 274.09375 C 532.78125 275.808594 533.652344 278.167969 534.742188 281.074219 C 537.664062 288.859375 541.882812 299.988281 529.695312 308.183594 C 526.679688 310.207031 524.839844 311.714844 523.453125 312.851562 C 519.8125 315.832031 519.058594 316.34375 509.792969 316.855469 C 509.476562 316.871094 509.195312 316.65625 509.132812 316.34375 C 509.035156 315.871094 509.0625 315.078125 509.085938 314.234375 L 509.085938 314.238281 C 509.195312 310.492188 509.328125 304.027344 503.714844 301.488281 C 503.695312 301.480469 497.28125 298.578125 493.636719 292.542969 C 493.203125 291.828125 493.019531 291.519531 492.613281 290.855469 C 488.347656 283.828125 486.261719 280.460938 487.597656 275.390625 L 487.660156 275.867188 C 487.65625 275.863281 480.953125 264.054688 480.769531 251.765625 C 480.574219 238.53125 487.949219 225.019531 517.933594 224.570312 C 518.367188 224.566406 518.792969 224.566406 519.207031 224.574219 C 536.96875 224.949219 538.5625 238.898438 538.351562 248.992188 C 538.316406 250.542969 538.242188 252.027344 538.175781 253.355469 C 538.117188 254.507812 538.066406 255.453125 538.046875 256.375 L 538.046875 256.371094 C 538.046875 256.488281 538.039062 256.625 538.03125 256.734375 C 537.382812 266.25 519.519531 269.652344 518.402344 269.644531 C 518.382812 269.644531 518.359375 269.644531 518.335938 269.640625 L 518.902344 268.640625 C 518.914062 268.652344 518.914062 268.65625 518.925781 268.671875 L 518.925781 268.675781 C 518.945312 268.703125 518.96875 268.746094 518.980469 268.769531 C 519.65625 270.082031 519.324219 276.804688 514.585938 279.816406 C 510.605469 282.347656 504.773438 278.496094 501.328125 276.015625 C 500.914062 275.71875 500.417969 275.355469 500.066406 275.097656 L 500.070312 275.097656 C 499.742188 274.855469 499.445312 274.640625 499.175781 274.445312 L 500.175781 274.042969 C 500.152344 274.167969 500.128906 274.289062 500.097656 274.417969 C 499.121094 278.566406 494.066406 285.019531 488.707031 283.757812 C 485.375 282.972656 482.910156 278.136719 481.382812 275.066406 L 481.378906 275.066406 L 481.140625 274.582031 C 480.878906 274.058594 481.179688 274.660156 480.921875 274.144531 C 480.832031 273.960938 480.835938 273.742188 480.929688 273.5625 C 481.027344 273.378906 481.207031 273.253906 481.410156 273.226562 C 481.410156 273.226562 497.582031 271.089844 511.488281 268.210938 C 511.480469 268.210938 520.703125 266.300781 529.621094 263.246094 C 529.675781 263.226562 529.734375 263.214844 529.792969 263.210938 C 530.304688 263.183594 530.898438 263.171875 531.523438 263.160156 C 533.972656 263.113281 536.917969 263.046875 538.789062 262.085938 L 538.449219 262.582031 C 538.457031 262.488281 540.613281 243.59375 535.007812 235.425781 C 529.894531 227.972656 516.992188 224.285156 515.164062 224.285156 C 508.515625 224.289062 498.492188 225.757812 490.941406 231.082031 C 483.371094 236.417969 478.566406 245.179688 478.558594 251.371094 C 478.550781 258.546875 483.421875 264.144531 484.566406 265.441406 L 484.558594 265.4375 C 484.550781 265.425781 484.605469 265.492188 484.582031 265.460938 L 484.574219 265.453125 C 484.601562 265.480469 484.578125 265.460938 484.597656 265.476562 L 484.117188 265.898438 L 483.480469 265.976562 C 483.515625 266.234375 482.148438 251.953125 487.675781 249.277344 C 487.699219 249.269531 487.726562 249.253906 487.75 249.242188 C 489.214844 248.589844 492.019531 248.871094 494.347656 249.085938 C 496.617188 249.296875 498.414062 249.4375 499.105469 249.128906 C 504.21875 246.835938 509.375 245.449219 513.453125 245.269531 C 517.867188 245.078125 521.566406 246.335938 521.730469 250.082031 C 521.800781 251.691406 522.445312 253.105469 523.480469 254.527344 C 524.390625 255.78125 525.566406 256.996094 526.875 258.347656 C 528.359375 259.886719 529.996094 261.574219 531.449219 263.578125 L 530.5625 263.433594 L 531.074219 263.066406 C 534.039062 260.933594 536.417969 259.007812 537.78125 260.695312 L 537.792969 260.710938 C 537.800781 260.722656 537.785156 260.699219 537.773438 260.6875 L 537.789062 260.703125 C 537.9375 260.890625 538.226562 261.25 538.550781 261.714844 C 540.1875 264.066406 543.238281 269.945312 536.550781 274.585938 L 536.824219 274.023438 C 536.824219 273.96875 537.71875 288.265625 537.539062 290.136719 L 537.410156 289.6875 C 538.632812 291.289062 539.699219 292.035156 540.882812 292.582031 C 541.445312 292.847656 542.042969 293.066406 542.71875 293.316406 C 543.519531 293.613281 544.40625 293.9375 545.421875 294.410156 L 545.445312 294.421875 C 545.453125 294.425781 545.46875 294.433594 545.472656 294.4375 L 545.441406 294.421875 C 545.691406 294.550781 545.792969 294.789062 545.828125 294.863281 L 545.828125 294.867188 C 546.433594 296.34375 546.027344 306.492188 540.808594 316.765625 C 540.804688 316.777344 537.933594 322.433594 533.664062 327.382812 C 533.542969 327.523438 533.367188 327.605469 533.183594 327.605469 C 532.996094 327.605469 532.820312 327.527344 532.699219 327.386719 L 521.363281 314.367188 C 521.152344 314.121094 521.15625 313.753906 521.378906 313.515625 C 522.128906 312.703125 523.238281 312.003906 524.457031 311.222656 C 528.433594 308.679688 534.636719 304.730469 538.792969 291.949219 C 538.890625 291.648438 539.195312 291.464844 539.503906 291.515625 C 539.816406 291.566406 540.042969 291.839844 540.039062 292.15625 C 540.050781 291.5 539.292969 291.484375 539.488281 291.511719 L 539.675781 291.570312 C 539.640625 291.550781 579.171875 310.257812 583.230469 316.648438 C 591.128906 329.082031 591.464844 365.671875 591.375 390.324219 C 591.367188 392.28125 591.359375 393.972656 591.347656 395.777344 C 591.335938 397.84375 591.335938 398.40625 591.328125 400.320312 C 591.328125 400.449219 591.285156 400.574219 591.210938 400.683594 C 591.171875 400.742188 591.125 400.796875 591.078125 400.84375 C 590.949219 400.972656 590.796875 401.066406 590.644531 401.140625 C 586.933594 402.90625 562.363281 396.1875 560.777344 393.539062 L 560.78125 393.542969 C 560.761719 393.515625 560.734375 393.460938 560.722656 393.441406 C 560.695312 393.378906 560.675781 393.316406 560.667969 393.253906 C 559.929688 387.964844 559.117188 383.324219 558.367188 379.019531 C 556.082031 365.984375 554.316406 355.90625 556.75 339.53125 C 556.792969 339.222656 557.054688 338.992188 557.363281 338.984375 C 557.675781 338.976562 557.945312 339.195312 558.007812 339.5 C 559.441406 346.628906 557.527344 363.542969 554.460938 374.160156 C 554.0625 375.527344 553.976562 376.902344 559.046875 380.335938 C 559.269531 380.488281 559.375 380.757812 559.308594 381.015625 C 559.246094 381.277344 559.03125 381.46875 558.765625 381.5 C 554.773438 381.96875 553.253906 382.574219 553.074219 382.90625 L 553.078125 382.902344 C 553.078125 382.902344 553.082031 382.894531 553.082031 382.886719 C 553.089844 382.851562 553.085938 382.828125 553.082031 382.816406 L 553.082031 382.820312 C 553.242188 383.261719 555.128906 384.191406 559.519531 385.296875 C 559.8125 385.367188 560.011719 385.632812 560.003906 385.933594 C 559.996094 386.230469 559.78125 386.484375 559.484375 386.542969 C 559.261719 386.585938 559.007812 386.632812 558.8125 386.671875 C 556.300781 387.167969 555.542969 387.285156 551.773438 385.914062 L 552.617188 385.191406 C 552.691406 385.570312 553.097656 386.703125 553.699219 388.359375 C 555.121094 392.277344 557.503906 398.839844 558.027344 403.328125 C 558.308594 405.757812 558.136719 408.441406 555.863281 408.707031 C 555.761719 408.71875 540.757812 410.445312 502.769531 400.085938 C 502.5 400.011719 502.3125 399.777344 502.296875 399.503906 C 501.871094 391.113281 502.65625 380.484375 505.46875 357.496094 C 505.503906 357.207031 505.730469 356.980469 506.019531 356.941406 C 506.308594 356.902344 506.585938 357.0625 506.695312 357.332031 L 517.144531 382.890625 L 517.175781 382.984375 C 517.777344 385.503906 518.90625 394.714844 518.253906 401.171875 L 517.726562 400.476562 L 527.394531 402.15625 L 526.78125 402.394531 C 526.695312 402.507812 526.691406 402.601562 526.695312 402.578125 C 526.992188 399.71875 508.136719 356.441406 499.234375 344.992188 C 495.109375 339.6875 491.808594 329.230469 492.648438 325.132812 C 493.5 320.980469 494.40625 318.824219 495.699219 318.644531 C 495.832031 318.625 495.964844 318.628906 496.09375 318.652344 L 495.984375 319.28125 L 496.09375 318.652344 C 497.785156 318.953125 498.570312 322.898438 498.613281 323.222656 C 498.660156 323.542969 498.460938 323.84375 498.148438 323.929688 C 497.835938 324.011719 497.511719 323.851562 497.390625 323.550781 C 495.191406 318.121094 496.882812 313.078125 500.527344 310.5 C 500.679688 310.390625 500.875 310.355469 501.054688 310.402344 C 502.125 310.675781 502.644531 311.25 502.820312 312.226562 C 502.914062 312.753906 502.914062 313.421875 502.914062 314.167969 C 502.917969 315.597656 502.921875 317.609375 503.441406 320.511719 L 502.175781 320.6875 C 501.503906 314.082031 501.84375 308.632812 502.691406 306.191406 C 502.90625 305.578125 503.203125 304.980469 503.679688 304.695312 C 503.960938 304.527344 504.296875 304.480469 504.628906 304.59375 L 504.417969 305.199219 L 504.105469 304.640625 C 504.113281 304.636719 504.125 304.632812 504.136719 304.625 L 504.128906 304.628906 C 504.191406 304.59375 504.335938 304.527344 504.539062 304.46875 C 505.480469 304.207031 507.085938 304.421875 507.871094 307.25 C 509.851562 314.398438 511.433594 319.628906 512.5625 321.402344 C 512.773438 321.730469 512.902344 321.832031 512.933594 321.847656 C 512.90625 321.835938 512.800781 321.816406 512.714844 321.871094 C 514.433594 320.777344 514.296875 318.40625 513.484375 310.222656 L 513.480469 310.210938 L 513.480469 310.191406 C 513.472656 310.105469 513.484375 310.003906 513.519531 309.914062 C 513.796875 309.1875 514.308594 308.523438 514.890625 308.042969 C 515.714844 307.363281 517.203125 306.699219 518.148438 307.839844 C 518.199219 307.902344 518.238281 307.972656 518.261719 308.050781 L 522.238281 320.339844 L 522.261719 320.449219 L 522.507812 322.238281 L 522.507812 322.234375 C 524.140625 334.066406 525.648438 344.640625 523.675781 347.605469 L 523.738281 347.015625 C 525.261719 350.898438 531.488281 360.4375 537.957031 370.339844 C 545.75 382.265625 554.113281 395.003906 554.035156 398.078125 L 553.398438 398.0625 L 554.035156 398.070312 L 554.035156 398.089844 C 554.019531 398.488281 553.582031 404.753906 543.226562 408.097656 C 543.121094 408.132812 543.011719 408.140625 542.902344 408.117188 L 493 398.03125 L 493.71875 397.648438 C 492.492188 400.628906 492.351562 413.46875 492.234375 425.078125 C 492.144531 434.246094 492.085938 442.90625 491.277344 444.253906 L 491.28125 444.25 C 491.234375 444.328125 491.175781 444.414062 491.085938 444.492188 L 491.253906 443.789062 C 491.28125 443.855469 491.296875 443.941406 491.296875 444.027344 L 491.296875 444.007812 C 491.3125 444.71875 490.339844 444.734375 490.695312 444.675781 L 490.59375 444.042969 L 490.695312 444.675781 C 490.601562 444.691406 490.480469 444.699219 490.359375 444.703125 C 487.660156 444.828125 469.140625 444.136719 446.519531 443.292969 C 410.628906 441.953125 364.335938 440.226562 353.792969 440.710938 C 352.304688 440.777344 353.382812 440.933594 353.394531 440.136719 L 352.917969 439.507812 C 352.851562 439.492188 352.789062 439.488281 352.777344 439.488281 L 352.78125 439.488281 C 352.773438 439.488281 352.773438 439.488281 352.765625 439.488281 L 352.769531 439.488281 C 353.4375 439.484375 365.234375 438.855469 366.339844 437.828125 L 366.773438 438.296875 L 366.339844 437.828125 C 366.347656 437.820312 366.261719 437.898438 366.257812 438.058594 C 366.707031 422.957031 367.277344 355.429688 367.136719 348.863281 C 367.128906 348.621094 367.265625 348.394531 367.484375 348.28125 C 374.171875 344.875 465.828125 346.414062 489.625 346.890625 C 489.824219 346.894531 490.007812 346.988281 490.125 347.148438 C 490.164062 347.199219 490.191406 347.246094 490.222656 347.300781 L 490.21875 347.296875 C 490.320312 347.492188 490.386719 347.746094 490.4375 348 C 491.066406 351.164062 491.050781 364.707031 491.039062 379.148438 C 491.023438 396.164062 491.011719 414.464844 491.976562 419.316406 C 491.984375 419.351562 492 419.390625 492.015625 419.421875 C 492.453125 420.277344 495.285156 420.34375 499.539062 420.28125 C 504.175781 420.214844 510.355469 420.027344 511.925781 423.09375 C 512.058594 423.34375 512.003906 423.652344 511.796875 423.847656 L 493.460938 441.101562 C 493.273438 441.277344 493 441.324219 492.761719 441.21875 C 492.527344 441.113281 492.378906 440.878906 492.386719 440.621094 C 492.40625 439.703125 492.550781 438.832031 492.808594 438.027344 C 498.882812 419.105469 568.140625 435.15625 585.664062 440.777344 C 585.75 440.808594 585.835938 440.855469 585.902344 440.917969 C 585.902344 440.917969 585.898438 440.914062 585.898438 440.914062 C 586.277344 441.152344 588.03125 440.609375 591.882812 438.722656 C 593.507812 437.921875 595.421875 436.9375 597.617188 435.808594 C 600.546875 434.304688 603.957031 432.550781 607.855469 430.636719 C 611.386719 428.90625 614.9375 427.320312 618.609375 425.683594 C 625.585938 422.570312 632.992188 419.265625 641.496094 414.402344 L 641.8125 414.957031 L 641.5 414.402344 C 641.445312 414.433594 641.242188 414.558594 641.195312 414.832031 C 641.117188 415.253906 641.476562 415.441406 641.378906 415.375 C 640.839844 415 634.785156 412.691406 581.207031 402.964844 L 581.511719 402.945312 C 533.621094 418.160156 510.609375 427.117188 510.390625 429.671875 L 510.390625 429.667969 C 510.390625 429.675781 510.390625 429.664062 510.390625 429.667969 L 509.867188 429.03125 C 509.871094 429.03125 574.855469 441.144531 587.046875 443.722656 C 587.332031 443.78125 587.621094 443.902344 587.890625 444.050781 C 589.3125 444.824219 591.855469 447.472656 590.929688 449.167969 C 590.8125 449.382812 590.582031 449.511719 590.339844 449.5 C 569.40625 448.507812 510.75 435.714844 507.863281 433.476562 L 508.546875 433.535156 C 508.523438 433.550781 507.664062 434.023438 507.429688 434.667969 C 507.28125 435.074219 507.214844 436.324219 511.621094 437.914062 L 511.515625 437.882812 L 591.429688 451.953125 L 591.148438 451.964844 C 599.355469 449.734375 617.328125 438.792969 647.410156 420.464844 C 647.503906 420.40625 647.609375 420.375 647.722656 420.371094 L 671.632812 419.566406 C 671.988281 419.554688 672.28125 419.832031 672.292969 420.183594 C 672.304688 420.535156 672.03125 420.832031 671.675781 420.84375 Z M 671.675781 420.84375 " fill-opacity="1" fill-rule="nonzero"/></g></svg>