<svg xmlns="http://www.w3.org/2000/svg" xmlns:xlink="http://www.w3.org/1999/xlink" width="1366" zoomAndPan="magnify" viewBox="0 0 1024.5 576" height="768" preserveAspectRatio="xMidYMid meet" version="1.0"><defs><g/><clipPath id="3208121e95"><path d="M 0 0.140625 L 1024 0.140625 L 1024 575.859375 L 0 575.859375 Z M 0 0.140625 " clip-rule="nonzero"/></clipPath><clipPath id="072d474b96"><path d="M 426.886719 150 L 473.046875 150 L 473.046875 174.875 L 426.886719 174.875 Z M 426.886719 150 " clip-rule="nonzero"/></clipPath><clipPath id="1eaea7f8e6"><path d="M 430 145.5 L 470 145.5 L 470 173 L 430 173 Z M 430 145.5 " clip-rule="nonzero"/></clipPath><clipPath id="c3f4b82b07"><path d="M 358 225 L 652 225 L 652 454.613281 L 358 454.613281 Z M 358 225 " clip-rule="nonzero"/></clipPath></defs><g clip-path="url(#3208121e95)"><path fill="#ffffff" d="M 0 0.140625 L 1024.5 0.140625 L 1024.5 583.640625 L 0 583.640625 Z M 0 0.140625 " fill-opacity="1" fill-rule="nonzero"/><path fill="#ffffff" d="M 0 0.140625 L 1024.5 0.140625 L 1024.5 576.140625 L 0 576.140625 Z M 0 0.140625 " fill-opacity="1" fill-rule="nonzero"/><path fill="#374151" d="M 0 0.140625 L 1024.5 0.140625 L 1024.5 576.140625 L 0 576.140625 Z M 0 0.140625 " fill-opacity="1" fill-rule="nonzero"/></g><g clip-path="url(#072d474b96)"><path fill="#ffffff" d="M 470.285156 150.574219 L 470.273438 150.652344 L 468.554688 169.347656 L 468.480469 170.199219 L 467.613281 170.089844 L 466.964844 170.007812 C 465.667969 169.84375 464.394531 169.753906 463.179688 169.753906 C 457.308594 169.753906 453.738281 171.699219 452.132812 172.859375 L 449.96875 173.023438 L 449.960938 173.023438 L 447.796875 172.859375 C 446.191406 171.699219 442.621094 169.753906 436.75 169.753906 C 435.535156 169.753906 434.261719 169.84375 432.964844 170.007812 L 432.316406 170.089844 L 431.449219 170.199219 L 431.375 169.347656 L 429.65625 150.652344 L 429.648438 150.574219 L 426.90625 150.574219 L 429.699219 171.75 L 448.121094 174.875 L 451.808594 174.875 L 470.230469 171.75 L 473.023438 150.574219 L 470.285156 150.574219 " fill-opacity="1" fill-rule="nonzero"/></g><g clip-path="url(#1eaea7f8e6)"><path fill="#ffffff" d="M 432.777344 149.449219 L 432.882812 150.523438 L 434.289062 165.070312 L 434.777344 165.140625 C 434.863281 165.148438 441.664062 166.175781 446.253906 169.585938 C 444.050781 168.578125 440.933594 167.695312 436.789062 167.695312 C 435.707031 167.695312 434.5625 167.757812 433.34375 167.890625 L 431.757812 150.574219 L 431.664062 149.550781 C 432.050781 149.507812 432.417969 149.476562 432.777344 149.449219 Z M 444.179688 149.40625 C 447.230469 150.984375 448.84375 152.800781 449.316406 153.386719 L 449.316406 170.730469 C 445.355469 166.015625 437.507812 164.363281 435.449219 164 L 434.132812 150.398438 L 433.78125 146.773438 C 438.296875 146.988281 441.710938 148.121094 444.179688 149.40625 Z M 450.617188 153.386719 C 451.085938 152.800781 452.699219 150.984375 455.75 149.40625 C 458.21875 148.121094 461.632812 146.988281 466.148438 146.773438 L 465.796875 150.398438 L 464.480469 164 C 462.421875 164.363281 454.574219 166.015625 450.617188 170.730469 Z M 467.046875 150.523438 L 467.152344 149.449219 C 467.511719 149.476562 467.882812 149.507812 468.269531 149.550781 L 468.175781 150.574219 L 466.585938 167.890625 C 465.367188 167.757812 464.222656 167.695312 463.140625 167.695312 C 459 167.695312 455.878906 168.578125 453.675781 169.585938 C 458.265625 166.175781 465.066406 165.148438 465.152344 165.140625 L 465.640625 165.070312 Z M 432.207031 169.277344 L 432.859375 169.195312 C 437.308594 168.617188 440.789062 169.074219 443.394531 169.851562 C 443.648438 169.929688 443.894531 170.007812 444.132812 170.089844 C 444.375 170.171875 444.601562 170.257812 444.824219 170.34375 C 445.046875 170.429688 445.261719 170.515625 445.46875 170.605469 C 446.492188 171.054688 447.316406 171.53125 447.941406 171.953125 C 448.066406 172.039062 448.1875 172.121094 448.292969 172.199219 L 451.636719 172.199219 C 451.742188 172.121094 451.863281 172.039062 451.988281 171.953125 C 452.613281 171.53125 453.4375 171.054688 454.460938 170.605469 C 454.671875 170.515625 454.882812 170.429688 455.105469 170.34375 C 455.328125 170.257812 455.554688 170.171875 455.796875 170.089844 C 456.035156 170.007812 456.28125 169.929688 456.539062 169.851562 C 459.140625 169.074219 462.621094 168.617188 467.074219 169.195312 L 467.722656 169.277344 L 469.441406 150.574219 L 469.632812 148.457031 L 469.027344 148.390625 C 468.414062 148.320312 467.828125 148.261719 467.269531 148.222656 L 467.535156 145.496094 L 466.824219 145.515625 C 460.640625 145.671875 456.355469 147.425781 453.578125 149.1875 C 451.757812 150.34375 450.589844 151.5 449.96875 152.210938 L 449.960938 152.210938 C 449.34375 151.5 448.171875 150.34375 446.351562 149.1875 C 443.574219 147.425781 439.289062 145.671875 433.105469 145.515625 L 432.394531 145.496094 L 432.660156 148.222656 C 432.101562 148.261719 431.515625 148.320312 430.90625 148.390625 L 430.296875 148.457031 L 430.492188 150.574219 L 432.207031 169.277344 " fill-opacity="1" fill-rule="nonzero"/></g><g fill="#ffffff" fill-opacity="1"><g transform="translate(482.46965, 167.68624)"><g><path d="M 1.640625 -0.109375 C 2.179688 -0.847656 2.453125 -1.832031 2.453125 -3.0625 L 2.453125 -13.3125 C 2.453125 -14.550781 2.179688 -15.535156 1.640625 -16.265625 L 1.640625 -16.390625 L 8.28125 -16.390625 C 10.125 -16.390625 11.664062 -16.015625 12.90625 -15.265625 C 14.144531 -14.523438 14.765625 -13.300781 14.765625 -11.59375 C 14.765625 -10.476562 14.472656 -9.550781 13.890625 -8.8125 C 13.316406 -8.070312 12.566406 -7.53125 11.640625 -7.1875 C 10.710938 -6.84375 9.726562 -6.671875 8.6875 -6.671875 C 7.9375 -6.671875 7.222656 -6.800781 6.546875 -7.0625 L 6.546875 -7.4375 C 7.003906 -7.332031 7.472656 -7.28125 7.953125 -7.28125 C 9.015625 -7.28125 9.832031 -7.6875 10.40625 -8.5 C 10.976562 -9.320312 11.265625 -10.351562 11.265625 -11.59375 C 11.265625 -12.757812 10.96875 -13.753906 10.375 -14.578125 C 9.789062 -15.410156 8.960938 -15.828125 7.890625 -15.828125 C 7.171875 -15.828125 6.492188 -15.707031 5.859375 -15.46875 L 5.859375 -3.0625 C 5.859375 -1.832031 6.128906 -0.847656 6.671875 -0.109375 L 6.671875 0 L 1.640625 0 Z M 1.640625 -0.109375 "/></g></g></g><g fill="#ffffff" fill-opacity="1"><g transform="translate(497.183104, 167.68624)"><g><path d="M 1.359375 -0.109375 C 1.554688 -0.410156 1.710938 -0.789062 1.828125 -1.25 C 1.953125 -1.707031 2.015625 -2.210938 2.015625 -2.765625 L 2.015625 -13.4375 C 2.015625 -14.070312 1.941406 -14.59375 1.796875 -15 C 1.660156 -15.40625 1.453125 -15.742188 1.171875 -16.015625 L 1.171875 -16.125 L 5.0625 -17.4375 L 5.171875 -17.4375 L 5.171875 -2.765625 C 5.171875 -2.210938 5.226562 -1.707031 5.34375 -1.25 C 5.46875 -0.789062 5.628906 -0.410156 5.828125 -0.109375 L 5.828125 0 L 1.359375 0 Z M 1.359375 -0.109375 "/></g></g></g><g fill="#ffffff" fill-opacity="1"><g transform="translate(503.779436, 167.68624)"><g><path d="M 11.640625 -3.953125 C 11.367188 -2.660156 10.769531 -1.628906 9.84375 -0.859375 C 8.925781 -0.0859375 7.804688 0.296875 6.484375 0.296875 C 5.441406 0.296875 4.5 0.0664062 3.65625 -0.390625 C 2.8125 -0.847656 2.140625 -1.519531 1.640625 -2.40625 C 1.148438 -3.300781 0.90625 -4.359375 0.90625 -5.578125 C 0.90625 -6.835938 1.171875 -7.953125 1.703125 -8.921875 C 2.234375 -9.898438 2.941406 -10.65625 3.828125 -11.1875 C 4.722656 -11.726562 5.691406 -12 6.734375 -12 C 7.703125 -12 8.546875 -11.796875 9.265625 -11.390625 C 9.984375 -10.992188 10.53125 -10.453125 10.90625 -9.765625 C 11.28125 -9.078125 11.46875 -8.332031 11.46875 -7.53125 L 3.46875 -7.53125 C 3.507812 -6.363281 3.738281 -5.363281 4.15625 -4.53125 C 4.582031 -3.695312 5.132812 -3.066406 5.8125 -2.640625 C 6.488281 -2.222656 7.234375 -2.015625 8.046875 -2.015625 C 8.816406 -2.015625 9.492188 -2.1875 10.078125 -2.53125 C 10.660156 -2.875 11.101562 -3.347656 11.40625 -3.953125 Z M 5.859375 -11.328125 C 5.148438 -11.328125 4.578125 -11.050781 4.140625 -10.5 C 3.703125 -9.945312 3.476562 -9.140625 3.46875 -8.078125 L 8.359375 -8.078125 C 8.265625 -9.078125 8 -9.867188 7.5625 -10.453125 C 7.132812 -11.035156 6.566406 -11.328125 5.859375 -11.328125 Z M 5.859375 -11.328125 "/></g></g></g><g fill="#ffffff" fill-opacity="1"><g transform="translate(515.615647, 167.68624)"><g><path d="M 6.875 0.296875 C 4.925781 0.296875 3.226562 -0.164062 1.78125 -1.09375 L 1.78125 -13.4375 C 1.78125 -14.070312 1.707031 -14.59375 1.5625 -15 C 1.425781 -15.40625 1.21875 -15.742188 0.9375 -16.015625 L 0.9375 -16.125 L 4.828125 -17.4375 L 4.9375 -17.4375 L 4.9375 -9.90625 L 5.0625 -9.90625 C 5.4375 -10.5625 5.925781 -11.070312 6.53125 -11.4375 C 7.132812 -11.8125 7.835938 -12 8.640625 -12 C 9.554688 -12 10.363281 -11.757812 11.0625 -11.28125 C 11.769531 -10.8125 12.3125 -10.132812 12.6875 -9.25 C 13.070312 -8.375 13.265625 -7.359375 13.265625 -6.203125 C 13.265625 -5.046875 13 -3.972656 12.46875 -2.984375 C 11.945312 -1.992188 11.203125 -1.195312 10.234375 -0.59375 C 9.265625 0 8.144531 0.296875 6.875 0.296875 Z M 7 -0.234375 C 7.914062 -0.234375 8.625 -0.710938 9.125 -1.671875 C 9.625 -2.628906 9.875 -3.929688 9.875 -5.578125 C 9.875 -7.085938 9.632812 -8.265625 9.15625 -9.109375 C 8.6875 -9.953125 8.03125 -10.375 7.1875 -10.375 C 6.570312 -10.375 6.0625 -10.1875 5.65625 -9.8125 C 5.257812 -9.445312 5.019531 -8.976562 4.9375 -8.40625 L 4.9375 -1.890625 C 5.019531 -1.441406 5.238281 -1.050781 5.59375 -0.71875 C 5.945312 -0.394531 6.414062 -0.234375 7 -0.234375 Z M 7 -0.234375 "/></g></g></g><g fill="#ffffff" fill-opacity="1"><g transform="translate(529.323244, 167.68624)"><g><path d="M 1.640625 -0.109375 C 2.179688 -0.847656 2.453125 -1.832031 2.453125 -3.0625 L 2.453125 -13.3125 C 2.453125 -14.550781 2.179688 -15.535156 1.640625 -16.265625 L 1.640625 -16.390625 L 8.59375 -16.390625 C 10.25 -16.390625 11.617188 -16.078125 12.703125 -15.453125 C 13.796875 -14.828125 14.34375 -13.84375 14.34375 -12.5 C 14.34375 -11.46875 13.984375 -10.640625 13.265625 -10.015625 C 12.546875 -9.390625 11.691406 -9 10.703125 -8.84375 L 10.703125 -8.75 C 11.878906 -8.613281 12.882812 -8.171875 13.71875 -7.421875 C 14.5625 -6.679688 14.984375 -5.707031 14.984375 -4.5 C 14.984375 -2.9375 14.363281 -1.796875 13.125 -1.078125 C 11.894531 -0.359375 10.382812 0 8.59375 0 L 1.640625 0 Z M 7.5625 -9.0625 C 8.59375 -9.0625 9.394531 -9.375 9.96875 -10 C 10.550781 -10.625 10.84375 -11.441406 10.84375 -12.453125 C 10.84375 -13.429688 10.546875 -14.238281 9.953125 -14.875 C 9.367188 -15.507812 8.578125 -15.828125 7.578125 -15.828125 C 7.003906 -15.828125 6.429688 -15.71875 5.859375 -15.5 L 5.859375 -9.0625 Z M 7.75 -0.5625 C 8.851562 -0.5625 9.738281 -0.914062 10.40625 -1.625 C 11.082031 -2.332031 11.421875 -3.289062 11.421875 -4.5 C 11.421875 -5.738281 11.078125 -6.707031 10.390625 -7.40625 C 9.703125 -8.113281 8.78125 -8.46875 7.625 -8.46875 L 5.859375 -8.46875 L 5.859375 -0.984375 C 6.367188 -0.703125 7 -0.5625 7.75 -0.5625 Z M 7.75 -0.5625 "/></g></g></g><g fill="#ffffff" fill-opacity="1"><g transform="translate(544.808655, 167.68624)"><g><path d="M 6.8125 0.296875 C 5.65625 0.296875 4.625 0.0351562 3.71875 -0.484375 C 2.8125 -1.015625 2.101562 -1.742188 1.59375 -2.671875 C 1.09375 -3.609375 0.84375 -4.671875 0.84375 -5.859375 C 0.84375 -7.035156 1.09375 -8.085938 1.59375 -9.015625 C 2.101562 -9.953125 2.8125 -10.679688 3.71875 -11.203125 C 4.625 -11.734375 5.65625 -12 6.8125 -12 C 7.945312 -12 8.96875 -11.734375 9.875 -11.203125 C 10.78125 -10.679688 11.484375 -9.953125 11.984375 -9.015625 C 12.492188 -8.085938 12.75 -7.035156 12.75 -5.859375 C 12.75 -4.671875 12.492188 -3.609375 11.984375 -2.671875 C 11.484375 -1.742188 10.78125 -1.015625 9.875 -0.484375 C 8.96875 0.0351562 7.945312 0.296875 6.8125 0.296875 Z M 6.8125 -0.234375 C 7.664062 -0.234375 8.300781 -0.742188 8.71875 -1.765625 C 9.144531 -2.785156 9.359375 -4.148438 9.359375 -5.859375 C 9.359375 -7.554688 9.144531 -8.914062 8.71875 -9.9375 C 8.300781 -10.957031 7.664062 -11.46875 6.8125 -11.46875 C 5.957031 -11.46875 5.3125 -10.957031 4.875 -9.9375 C 4.445312 -8.914062 4.234375 -7.554688 4.234375 -5.859375 C 4.234375 -4.148438 4.445312 -2.785156 4.875 -1.765625 C 5.3125 -0.742188 5.957031 -0.234375 6.8125 -0.234375 Z M 6.8125 -0.234375 "/></g></g></g><g fill="#ffffff" fill-opacity="1"><g transform="translate(557.931429, 167.68624)"><g><path d="M 6.8125 0.296875 C 5.65625 0.296875 4.625 0.0351562 3.71875 -0.484375 C 2.8125 -1.015625 2.101562 -1.742188 1.59375 -2.671875 C 1.09375 -3.609375 0.84375 -4.671875 0.84375 -5.859375 C 0.84375 -7.035156 1.09375 -8.085938 1.59375 -9.015625 C 2.101562 -9.953125 2.8125 -10.679688 3.71875 -11.203125 C 4.625 -11.734375 5.65625 -12 6.8125 -12 C 7.945312 -12 8.96875 -11.734375 9.875 -11.203125 C 10.78125 -10.679688 11.484375 -9.953125 11.984375 -9.015625 C 12.492188 -8.085938 12.75 -7.035156 12.75 -5.859375 C 12.75 -4.671875 12.492188 -3.609375 11.984375 -2.671875 C 11.484375 -1.742188 10.78125 -1.015625 9.875 -0.484375 C 8.96875 0.0351562 7.945312 0.296875 6.8125 0.296875 Z M 6.8125 -0.234375 C 7.664062 -0.234375 8.300781 -0.742188 8.71875 -1.765625 C 9.144531 -2.785156 9.359375 -4.148438 9.359375 -5.859375 C 9.359375 -7.554688 9.144531 -8.914062 8.71875 -9.9375 C 8.300781 -10.957031 7.664062 -11.46875 6.8125 -11.46875 C 5.957031 -11.46875 5.3125 -10.957031 4.875 -9.9375 C 4.445312 -8.914062 4.234375 -7.554688 4.234375 -5.859375 C 4.234375 -4.148438 4.445312 -2.785156 4.875 -1.765625 C 5.3125 -0.742188 5.957031 -0.234375 6.8125 -0.234375 Z M 6.8125 -0.234375 "/></g></g></g><g fill="#ffffff" fill-opacity="1"><g transform="translate(571.054204, 167.68624)"><g><path d="M 1.359375 -0.109375 C 1.554688 -0.410156 1.710938 -0.789062 1.828125 -1.25 C 1.953125 -1.707031 2.015625 -2.210938 2.015625 -2.765625 L 2.015625 -13.4375 C 2.015625 -14.070312 1.941406 -14.59375 1.796875 -15 C 1.660156 -15.40625 1.453125 -15.742188 1.171875 -16.015625 L 1.171875 -16.125 L 5.0625 -17.4375 L 5.171875 -17.4375 L 5.171875 -2.765625 C 5.171875 -2.210938 5.226562 -1.707031 5.34375 -1.25 C 5.46875 -0.789062 5.628906 -0.410156 5.828125 -0.109375 L 5.828125 0 L 1.359375 0 Z M 11.71875 0.1875 C 10.988281 0.1875 10.382812 0.0546875 9.90625 -0.203125 C 9.4375 -0.472656 8.984375 -0.910156 8.546875 -1.515625 L 5.640625 -5.484375 L 5.640625 -5.59375 L 8.515625 -8.890625 C 9.128906 -9.597656 9.4375 -10.203125 9.4375 -10.703125 C 9.4375 -11.054688 9.300781 -11.351562 9.03125 -11.59375 L 9.03125 -11.703125 L 12.609375 -11.703125 L 12.609375 -11.59375 C 11.960938 -11.28125 11.398438 -10.941406 10.921875 -10.578125 C 10.441406 -10.222656 9.929688 -9.75 9.390625 -9.15625 L 7.984375 -7.625 L 12.421875 -1.640625 C 12.953125 -0.921875 13.351562 -0.515625 13.625 -0.421875 L 13.625 -0.25 C 13.375 -0.125 13.078125 -0.0195312 12.734375 0.0625 C 12.390625 0.144531 12.050781 0.1875 11.71875 0.1875 Z M 11.71875 0.1875 "/></g></g></g><g clip-path="url(#c3f4b82b07)"><path fill="#ffffff" d="M 557.640625 421.835938 C 539.898438 426.488281 486.09375 430.242188 417.355469 423.21875 C 409.570312 422.421875 393.859375 420.113281 377.546875 414.929688 C 373.113281 413.519531 372.886719 411.796875 372.609375 407.320312 C 372.601562 407.214844 372.59375 407.085938 372.585938 406.972656 C 372.578125 406.859375 372.566406 406.691406 372.5625 406.578125 C 372.507812 405.695312 372.429688 404.433594 372.785156 403.964844 L 373.085938 404.191406 L 372.785156 403.964844 C 372.878906 403.835938 373.03125 403.722656 373.238281 403.710938 C 373.390625 403.699219 373.523438 403.75 373.636719 403.8125 L 373.738281 403.894531 C 373.835938 404.007812 373.90625 404.09375 374.011719 404.21875 C 374.132812 404.363281 374.230469 404.476562 374.367188 404.632812 C 375.398438 405.820312 377.046875 407.433594 380.15625 408.027344 C 382.753906 408.519531 385.621094 409.273438 388.992188 410.164062 C 393.875 411.449219 399.828125 413.019531 407.605469 414.496094 C 414.8125 415.863281 423.589844 417.148438 434.519531 418.046875 C 460.441406 420.179688 481.535156 419.742188 497.992188 419.402344 C 501.382812 419.332031 504.609375 419.265625 507.601562 419.226562 L 507.375 419.90625 C 502.175781 415.835938 499.78125 408.207031 500.058594 397.183594 L 500.085938 397.050781 C 501.015625 394.71875 503.039062 392.21875 504.324219 391.917969 C 505.441406 391.65625 505.777344 392.992188 506.066406 393.886719 C 506.507812 395.269531 507.089844 397.054688 508.8125 398.273438 L 508.214844 398.617188 C 508.011719 396.539062 507.671875 395.960938 507.308594 395.3125 C 506.941406 394.664062 506.542969 393.949219 506.195312 392.042969 C 506.066406 391.324219 506.851562 390 507.714844 388.484375 C 509.15625 385.957031 511.226562 382.324219 512.140625 378.03125 C 512.722656 375.308594 513.34375 372.304688 513.996094 369.140625 C 514.71875 365.632812 515.5 361.835938 516.308594 358.058594 C 519.738281 341.976562 523.894531 324.691406 528.550781 317.464844 C 531.996094 312.117188 535.976562 311.558594 538.957031 313.480469 C 539.949219 314.121094 540.808594 315.023438 541.484375 316.078125 C 550.410156 330.015625 547.121094 361.121094 544.371094 383.113281 C 544.34375 383.3125 544.164062 383.460938 543.960938 383.441406 C 543.757812 383.425781 543.605469 383.25 543.617188 383.046875 L 545.027344 352.203125 L 545.039062 352.316406 C 536.269531 318.617188 535.144531 312.964844 538.980469 311.964844 C 539.589844 311.804688 540.3125 311.773438 541.078125 311.738281 C 541.9375 311.695312 542.890625 311.652344 543.933594 311.445312 C 548.636719 310.515625 552.222656 310.214844 555.304688 309.953125 C 557.644531 309.753906 559.675781 309.582031 561.695312 309.183594 C 564.511719 308.628906 567.316406 307.628906 570.851562 305.484375 L 570.6875 305.695312 C 574.023438 295.398438 562.089844 282.671875 562.027344 282.605469 L 562.304688 282.347656 L 561.964844 282.175781 C 562.003906 282.09375 562.058594 282.03125 562.113281 281.980469 C 562.367188 281.753906 562.847656 281.664062 563.199219 281.589844 C 564.058594 281.40625 564.929688 281.195312 565.296875 280.472656 L 565.300781 280.464844 C 567.1875 276.683594 566.695312 272.136719 565.855469 268.734375 C 565.667969 267.976562 565.472656 268.082031 565.449219 268.085938 C 564.996094 268.199219 564.265625 269.105469 563.285156 270.371094 C 562.199219 271.777344 560.839844 273.574219 559.515625 273.902344 C 559.226562 273.972656 558.925781 273.980469 558.628906 273.894531 C 556.15625 273.183594 554.773438 262.0625 555.03125 258.636719 C 555.308594 254.960938 552.003906 252.589844 548.597656 250.1875 C 545.683594 248.136719 542.585938 246.003906 542.820312 242.925781 C 542.875 242.191406 543.117188 241.421875 543.574219 240.609375 C 547.953125 232.789062 560.25 226.015625 573.617188 225.179688 C 587.007812 224.339844 601.363281 228.515625 607.289062 247.183594 C 609.050781 252.730469 608.167969 266.640625 607.417969 278.601562 C 606.847656 287.664062 606.355469 295.566406 607.042969 298.195312 C 608.632812 304.28125 606.96875 306.773438 603.429688 307.699219 C 601.484375 308.207031 598.996094 308.238281 596.332031 308.277344 L 596.175781 308.28125 C 595.070312 308.296875 593.917969 308.320312 592.8125 308.34375 C 591.683594 308.367188 590.636719 308.390625 589.539062 308.40625 C 582.640625 308.503906 575.957031 308.347656 575.496094 304.910156 C 575.246094 303.027344 575.101562 301.332031 574.980469 299.875 C 574.886719 298.765625 574.804688 297.800781 574.695312 296.992188 C 574.410156 294.84375 573.988281 294.257812 573.238281 294.359375 C 572.339844 294.480469 570.824219 295.484375 568.21875 297.78125 C 562.835938 302.539062 556.453125 300.074219 554.75 298.148438 C 554.648438 298.035156 554.558594 297.914062 554.488281 297.796875 C 554.015625 297.03125 553.546875 296.1875 553.015625 295.230469 C 552.328125 293.992188 551.539062 292.566406 550.527344 290.925781 C 549.453125 289.183594 548.121094 287.183594 546.390625 284.894531 C 542.902344 280.273438 544.613281 270.390625 544.601562 270.441406 L 544.976562 270.507812 L 544.625 270.65625 C 540.953125 261.917969 541.476562 257.683594 541.484375 257.613281 L 541.859375 257.652344 L 541.484375 257.605469 C 542.863281 246.886719 548.265625 243.554688 554.144531 244.3125 C 559.4375 244.992188 564.984375 248.980469 568.039062 253.378906 C 570.574219 257.03125 570.371094 261.132812 570.171875 265.324219 C 569.988281 269.257812 569.804688 273.308594 571.675781 277.410156 C 573.195312 280.742188 575.039062 281.359375 576.632812 281.898438 C 577.804688 282.296875 578.976562 282.679688 579.644531 284.140625 C 579.925781 284.757812 580.109375 285.550781 580.1875 286.589844 C 580.183594 286.574219 580.179688 286.566406 580.179688 286.566406 C 580.472656 287.285156 586 289.222656 592.085938 288.773438 C 595.136719 288.550781 598.1875 287.71875 600.546875 285.886719 C 601.453125 285.1875 602.28125 285.371094 602.878906 286.140625 C 605.089844 288.992188 604.898438 301.15625 604.898438 301.074219 L 604.519531 301.066406 L 604.609375 300.699219 C 604.738281 300.730469 605.011719 300.773438 605.441406 300.835938 C 606.472656 300.996094 608.273438 301.273438 610.578125 301.839844 C 622.679688 304.832031 648.582031 315.898438 651.609375 360.296875 C 652.488281 373.175781 648.363281 395.449219 646.046875 396.402344 C 645.980469 396.429688 645.90625 396.449219 645.832031 396.457031 C 645.804688 396.457031 645.777344 396.457031 645.753906 396.457031 L 645.859375 396.445312 C 644.179688 396.835938 641.503906 397.035156 638.089844 397.289062 C 631.773438 397.761719 622.820312 398.429688 612.574219 400.816406 C 603.257812 402.984375 592.882812 406.574219 582.457031 412.722656 C 568.429688 420.996094 559.644531 446.113281 558.289062 454.234375 C 558.253906 454.433594 558.066406 454.574219 557.867188 454.546875 C 557.664062 454.519531 557.519531 454.339844 557.539062 454.132812 C 559.3125 435.554688 560.15625 417.949219 550.675781 403.390625 C 546.238281 396.578125 544.527344 390.515625 543.800781 387.953125 C 543.601562 387.246094 543.496094 386.890625 543.441406 386.796875 L 543.441406 386.800781 C 543.441406 386.792969 543.445312 386.804688 543.445312 386.800781 C 543.390625 386.714844 543.589844 387.082031 543.90625 386.875 L 543.902344 386.875 C 543.996094 386.8125 544.023438 386.734375 544.019531 386.746094 L 544.019531 386.742188 C 542.761719 389.828125 541.730469 393.863281 540.652344 398.101562 C 539.488281 402.660156 538.269531 407.4375 536.660156 411.394531 C 535.796875 413.511719 534.8125 415.414062 533.648438 416.921875 C 531.640625 419.535156 524.097656 425.703125 516 423.738281 C 508.648438 421.949219 500.410156 412.511719 500.867188 410.621094 L 500.867188 410.609375 L 500.867188 410.621094 C 500.878906 410.558594 500.902344 410.496094 500.9375 410.4375 L 500.917969 410.773438 C 496.453125 400.160156 499.054688 392.148438 505.847656 379.75 L 506.191406 380.3125 C 498.609375 380.515625 492.164062 381.121094 485.710938 381.726562 C 480.183594 382.242188 474.648438 382.761719 468.371094 383.03125 C 467.898438 383.050781 467.414062 383 467.144531 382.695312 C 467.066406 382.609375 467.011719 382.511719 466.980469 382.398438 C 466.964844 382.339844 466.957031 382.277344 466.953125 382.21875 C 466.925781 381.59375 467.613281 380.757812 468.613281 379.796875 C 468.757812 379.660156 468.980469 379.65625 469.128906 379.789062 C 469.277344 379.921875 469.296875 380.144531 469.175781 380.304688 C 466.375 383.957031 464.136719 385.976562 462.605469 385.460938 L 462.808594 385.46875 C 461.125 385.839844 459.714844 385.753906 459.445312 384.535156 C 459.277344 383.765625 459.660156 382.710938 460.394531 381.445312 L 461.011719 381.882812 C 458.714844 384.539062 457.136719 386.121094 456.410156 386.222656 C 456.273438 386.242188 456.09375 386.222656 455.945312 386.097656 C 455.886719 386.042969 455.84375 385.980469 455.8125 385.921875 L 456.109375 386.128906 C 454.285156 385.921875 453.273438 385.023438 453.460938 383.390625 C 453.570312 382.402344 454.125 381.1875 455.054688 379.761719 L 455.628906 380.25 C 455.09375 380.742188 454.589844 381.257812 454.097656 381.761719 C 453.65625 382.214844 453.21875 382.664062 452.796875 383.050781 C 451.914062 383.867188 450.96875 384.554688 449.980469 384.457031 C 449.871094 384.449219 449.78125 384.398438 449.726562 384.363281 C 449.210938 384.023438 448.371094 382.453125 448.558594 380.53125 C 448.589844 380.222656 448.648438 379.898438 448.738281 379.566406 C 448.941406 378.816406 449.203125 377.996094 449.480469 377.128906 C 449.792969 376.15625 450.117188 375.132812 450.398438 374.101562 C 451.285156 370.855469 451.628906 367.769531 449.859375 365.984375 L 450.160156 366.097656 C 447.496094 366.316406 446.378906 367.496094 446.441406 368.273438 C 446.480469 368.742188 446.945312 369.347656 448.265625 369.746094 C 449.824219 370.210938 450.519531 370.167969 450.644531 370.074219 L 450.527344 370.230469 C 451.792969 367.167969 454.160156 366.246094 457.460938 366.070312 C 459.273438 365.976562 466.289062 370.804688 470.730469 374.476562 C 471.953125 375.488281 472.933594 376.449219 473.691406 377.191406 C 474.175781 377.667969 474.554688 378.039062 474.851562 378.285156 C 475.09375 378.484375 475.210938 378.539062 475.246094 378.546875 L 475.25 378.546875 C 475.230469 378.542969 475.152344 378.550781 475.105469 378.609375 C 475.097656 378.613281 475.09375 378.621094 475.097656 378.621094 C 475.105469 378.601562 475.136719 378.511719 475.136719 378.273438 C 475.140625 378.191406 475.167969 378.113281 475.214844 378.046875 L 475.21875 378.042969 C 475.214844 378.046875 475.203125 378.066406 475.210938 378.050781 L 475.214844 378.050781 C 475.980469 377.007812 477.738281 361.503906 474.785156 358.320312 C 472.957031 356.347656 469.09375 356.5625 465.386719 356.796875 C 462.640625 356.972656 459.804688 357.191406 458.667969 355.964844 C 458.273438 355.539062 458.101562 354.972656 458.15625 354.273438 C 458.242188 353.117188 459.265625 352.917969 460.289062 352.996094 C 461.226562 353.070312 462.457031 353.375 463.785156 353.707031 C 465.53125 354.140625 467.5 354.628906 469.414062 354.773438 C 470.984375 354.894531 472.488281 354.78125 473.785156 354.238281 C 475.796875 353.394531 471.613281 334.867188 469.03125 328.703125 C 468.945312 328.492188 468.859375 328.292969 468.777344 328.121094 C 467.324219 325.039062 464.324219 322.777344 461.539062 320.683594 C 460.78125 320.113281 460.03125 319.550781 459.351562 318.996094 C 456.734375 316.863281 454.460938 314.523438 452.117188 312.113281 C 450.300781 310.242188 448.445312 308.335938 446.351562 306.4375 C 446.21875 306.320312 446.1875 306.125 446.277344 305.96875 C 446.363281 305.816406 446.546875 305.742188 446.714844 305.792969 C 450.035156 306.789062 455.863281 321.746094 455.691406 329.707031 C 455.578125 335.144531 454.699219 342.359375 453.890625 349.03125 C 453.183594 354.824219 452.53125 360.199219 452.457031 363.691406 C 452.445312 364.378906 452.453125 364.988281 452.484375 365.511719 C 452.488281 365.53125 452.488281 365.554688 452.488281 365.574219 C 452.488281 365.433594 452.550781 366 452.105469 366.027344 L 452.109375 366.027344 C 451.808594 366.050781 451.683594 365.746094 451.699219 365.773438 C 451.503906 365.402344 451.117188 363.675781 450.539062 357.660156 C 449.582031 347.765625 448.089844 342.519531 448.09375 342.542969 L 448.097656 342.550781 C 444.117188 329.664062 435.589844 329.003906 435.691406 329.011719 C 435.515625 329 435.371094 328.863281 435.347656 328.6875 C 434.5625 323.183594 433.96875 316.730469 435.6875 312.351562 C 436.882812 309.304688 438.992188 307.375 441.179688 305.367188 C 443.648438 303.097656 446.253906 300.699219 448.027344 296.425781 C 449.734375 292.304688 450.050781 284.886719 449.523438 281.605469 L 449.617188 281.804688 C 447.988281 280.046875 446.640625 278.601562 445.242188 277.097656 C 444.089844 275.859375 443.011719 274.699219 442.015625 273.628906 C 428.851562 259.453125 428.726562 258.820312 428.21875 250.917969 C 428.1875 250.449219 428.207031 250.703125 428.175781 250.21875 C 427.996094 247.484375 428.234375 243.878906 430.695312 243.71875 C 431.027344 243.695312 431.386719 243.742188 431.769531 243.855469 C 443.640625 247.378906 453.417969 257.300781 460.566406 272.398438 C 464.070312 279.796875 460.578125 288.292969 453.210938 298.828125 C 447.792969 306.570312 440.695312 311.15625 430.328125 310.925781 C 428.328125 310.882812 421.960938 306.882812 417.113281 301.902344 C 410.898438 295.511719 407.234375 289.90625 407.226562 289.894531 L 407.230469 289.898438 C 406.195312 288.347656 405.039062 287.285156 403.988281 286.320312 C 403.15625 285.554688 402.359375 284.824219 401.789062 283.96875 C 400.632812 282.242188 400.417969 280.074219 401.925781 276.125 C 402.425781 274.816406 403.3125 274.546875 404.347656 274.945312 C 405.183594 275.265625 406.160156 276.019531 407.175781 276.800781 C 408.304688 277.671875 409.523438 278.605469 410.800781 279.21875 L 410.410156 279.253906 C 422.089844 270.667969 423.9375 260.421875 423.929688 260.476562 C 423.945312 260.386719 423.992188 260.304688 424.0625 260.25 C 425.707031 258.921875 425.929688 255.597656 424.988281 248.128906 C 424.9375 247.738281 424.96875 247.144531 424.996094 246.539062 C 425.03125 245.730469 425.070312 244.855469 424.980469 244.15625 C 424.867188 243.246094 424.609375 243.027344 424.277344 243.070312 C 424.230469 243.074219 424.179688 243.085938 424.121094 243.101562 C 415.96875 245.46875 408.417969 250.230469 404.652344 255.488281 C 391.339844 274.089844 391.722656 289.898438 392.019531 302.234375 C 392.0625 304.105469 392.109375 305.890625 392.101562 307.605469 C 392.097656 308.191406 392.238281 308.125 392.292969 308.125 C 392.75 308.125 393.683594 307.648438 395.46875 306.710938 C 397.53125 305.628906 400.554688 304.039062 404.855469 302.300781 C 404.9375 302.265625 405.03125 302.261719 405.117188 302.292969 C 405.53125 302.429688 406.347656 301.917969 409.164062 295.035156 C 409.222656 294.894531 409.359375 294.800781 409.511719 294.800781 C 409.667969 294.800781 409.804688 294.890625 409.863281 295.035156 C 409.894531 295.105469 409.949219 295.234375 409.984375 295.316406 C 410.035156 295.433594 410.085938 295.546875 410.140625 295.679688 C 411.113281 298 412.597656 302.613281 408.851562 313.6875 L 408.867188 313.503906 C 411.457031 329.558594 417.105469 336.941406 417.101562 336.9375 L 416.800781 337.167969 L 417.074219 336.902344 L 417.074219 336.90625 L 417.101562 336.9375 C 425.496094 347.882812 430.546875 357.957031 432.214844 367.152344 L 431.484375 367.101562 L 442.550781 333.773438 C 442.617188 333.574219 442.824219 333.46875 443.023438 333.527344 C 443.21875 333.589844 443.332031 333.796875 443.273438 333.996094 L 433.300781 368.9375 L 433.3125 368.792969 C 433.4375 369.960938 433.648438 370.859375 433.847656 371.710938 L 433.847656 371.707031 C 434.019531 372.445312 434.1875 373.15625 434.277344 373.96875 C 434.503906 376.09375 434.179688 378.828125 432.183594 384.644531 C 432.144531 384.757812 432.066406 384.835938 432.015625 384.882812 C 430.835938 385.898438 415.652344 388.359375 404.683594 390.152344 C 399.28125 391.039062 394.824219 391.765625 393.324219 392.097656 C 392.847656 392.203125 392.304688 392.300781 391.703125 392.414062 C 390.945312 392.554688 390.117188 392.707031 389.203125 392.90625 C 384.601562 393.921875 378.320312 396.070312 373.726562 402.886719 C 373.644531 403.007812 373.5 403.074219 373.351562 403.050781 C 373.207031 403.027344 373.089844 402.921875 373.046875 402.78125 C 373 402.617188 373.039062 402.464844 373.09375 402.355469 C 373.632812 401.277344 379.695312 398.75 386.0625 396.058594 C 386.324219 395.949219 387.761719 395.34375 388.03125 395.226562 C 389.277344 394.699219 390.234375 394.296875 391.375 393.8125 C 392.304688 393.421875 393.328125 392.992188 394.171875 392.632812 C 400.34375 390.019531 404.453125 388.21875 406.835938 386.703125 L 407.007812 386.648438 C 409.683594 386.421875 412.101562 384.664062 414.289062 383.066406 C 415.542969 382.152344 416.742188 381.269531 417.828125 380.867188 L 417.863281 380.855469 L 417.828125 380.863281 C 421.78125 379.390625 423.445312 378.179688 424.085938 377.625 C 425.074219 376.765625 425.277344 375.675781 424.902344 375.242188 C 424.535156 374.816406 423.265625 374.566406 420.246094 376.066406 L 419.914062 375.382812 C 425.554688 372.746094 428.503906 371.003906 429.371094 368.375 C 429.601562 367.679688 429.390625 367.621094 429.273438 367.582031 C 428.929688 367.46875 428.308594 367.546875 427.488281 367.667969 C 427.097656 367.726562 426.671875 367.789062 426.273438 367.816406 C 422.382812 368.09375 414.902344 371.851562 414.886719 371.859375 L 414.707031 371.527344 L 414.496094 371.210938 C 416.003906 370.199219 418.25 369.238281 420.554688 368.253906 C 423.125 367.15625 425.777344 366.019531 427.726562 364.714844 C 428.953125 363.894531 429.851562 363.039062 430.289062 362.125 C 430.933594 360.78125 430.59375 360.292969 430.378906 359.9375 C 430.355469 359.894531 430.34375 359.878906 430.320312 359.832031 C 430.351562 359.886719 430.386719 359.902344 430.386719 359.902344 C 429.859375 359.660156 426.628906 360.492188 423.046875 361.445312 C 420.65625 362.082031 418.230469 362.726562 416.757812 362.945312 C 416.574219 362.972656 416.394531 362.863281 416.339844 362.6875 C 416.285156 362.507812 416.363281 362.316406 416.53125 362.234375 C 417.339844 361.828125 418.289062 361.382812 419.296875 360.910156 C 420.449219 360.371094 421.683594 359.792969 422.878906 359.191406 C 427.078125 357.082031 430.03125 355.027344 429.226562 353.421875 C 429.160156 353.292969 429.066406 353.15625 428.941406 353.015625 C 428.945312 353.019531 428.945312 353.019531 428.945312 353.019531 C 428.546875 352.691406 425.734375 353.1875 423.414062 354.042969 C 421.800781 354.636719 420.078125 355.558594 418.332031 356.496094 C 416.617188 357.414062 414.875 358.347656 413.257812 358.941406 C 412.355469 359.273438 411.472656 359.507812 410.636719 359.578125 C 410.449219 359.59375 410.28125 359.46875 410.238281 359.289062 C 410.195312 359.105469 410.289062 358.921875 410.460938 358.847656 C 412.023438 358.195312 413.476562 357.644531 414.785156 357.148438 C 415.855469 356.742188 416.816406 356.378906 417.660156 356.023438 C 420.644531 354.78125 421.652344 353.890625 421.085938 352.53125 C 420.984375 352.289062 420.832031 352.023438 420.621094 351.730469 C 420.082031 350.988281 419.722656 350.265625 419.441406 349.714844 C 419.25 349.335938 419.113281 349.066406 418.984375 348.890625 C 418.902344 348.773438 418.855469 348.746094 418.851562 348.742188 C 418.855469 348.746094 418.867188 348.75 418.875 348.746094 C 418.878906 348.746094 418.867188 348.75 418.84375 348.761719 C 418.648438 348.878906 418.484375 348.960938 418.324219 349.042969 C 418.175781 349.117188 418.035156 349.1875 417.890625 349.269531 C 417.546875 349.476562 417.117188 349.792969 416.398438 350.542969 C 415.59375 351.382812 414.957031 352.472656 414.214844 353.75 C 413.414062 355.128906 412.503906 356.695312 411.144531 358.277344 C 409.855469 359.785156 408.253906 361.722656 406.464844 363.894531 C 404.203125 366.644531 401.625 369.773438 398.992188 372.84375 C 394.121094 378.515625 388.992188 384.0625 385.113281 386.8125 C 384.988281 386.898438 384.824219 386.902344 384.695312 386.824219 C 384.566406 386.746094 384.496094 386.59375 384.519531 386.445312 C 384.671875 385.421875 385.253906 383.597656 385.996094 381.28125 C 387.40625 376.871094 389.429688 370.535156 390.414062 363.957031 C 390.828125 361.191406 391.058594 358.390625 390.980469 355.675781 C 390.742188 347.273438 379.625 329.121094 379.59375 329.070312 L 380.292969 328.820312 C 381.039062 334.144531 383.742188 339.308594 386.578125 344.722656 C 389.601562 350.480469 392.765625 356.507812 393.699219 363.179688 C 394.089844 365.976562 394.089844 368.886719 393.527344 371.9375 C 392.582031 377.0625 385.125 386.574219 385.152344 386.535156 L 385.160156 386.53125 C 384.34375 387.613281 379.605469 390.21875 371.199219 394.308594 C 365.609375 397.027344 361.898438 405.730469 361.886719 405.761719 C 361.828125 405.898438 361.691406 405.992188 361.542969 405.992188 C 361.390625 405.992188 361.253906 405.90625 361.191406 405.769531 C 356.796875 395.972656 355.511719 373.59375 367.335938 338.960938 C 371.390625 327.09375 380.253906 318.761719 389.933594 311.777344 C 392.433594 309.972656 397.507812 306.679688 406.570312 305.757812 L 406.632812 306.511719 C 399.992188 306.988281 397.359375 313.117188 393.761719 321.644531 C 392.820312 323.875 391.8125 326.269531 390.652344 328.71875 C 390.578125 328.875 390.402344 328.964844 390.230469 328.925781 C 390.058594 328.890625 389.9375 328.738281 389.933594 328.5625 C 389.722656 318.945312 395.769531 313.832031 407.699219 313.132812 C 407.910156 313.121094 408.089844 313.28125 408.101562 313.488281 C 408.113281 313.699219 407.953125 313.878906 407.746094 313.890625 C 396.054688 314.574219 390.492188 319.488281 390.691406 328.546875 L 389.96875 328.394531 C 391.121094 325.960938 392.121094 323.582031 393.0625 321.351562 C 396.589844 312.992188 399.378906 306.273438 406.582031 305.753906 C 406.785156 305.742188 406.96875 305.894531 406.984375 306.101562 C 407.003906 306.308594 406.851562 306.492188 406.644531 306.511719 C 397.757812 307.414062 392.808594 310.636719 390.375 312.394531 C 380.738281 319.347656 372.03125 327.5625 368.054688 339.207031 C 356.253906 373.773438 357.605469 395.925781 361.882812 405.457031 L 361.1875 405.464844 C 361.175781 405.496094 364.980469 396.488281 370.871094 393.625 C 379.402344 389.472656 383.878906 386.96875 384.550781 386.074219 L 384.558594 386.070312 C 384.585938 386.03125 391.878906 376.695312 392.78125 371.800781 C 393.328125 368.835938 393.328125 366.007812 392.949219 363.285156 C 392.035156 356.765625 388.941406 350.855469 385.910156 345.074219 C 383.085938 339.6875 380.308594 334.40625 379.542969 328.925781 C 379.515625 328.75 379.621094 328.578125 379.789062 328.515625 C 379.957031 328.457031 380.148438 328.523438 380.242188 328.675781 C 380.210938 328.628906 391.492188 346.996094 391.738281 355.652344 C 391.816406 358.421875 391.582031 361.273438 391.164062 364.070312 C 390.167969 370.71875 388.125 377.109375 386.71875 381.511719 C 385.964844 383.867188 385.410156 385.613281 385.269531 386.558594 L 384.671875 386.191406 C 388.46875 383.503906 393.539062 378.03125 398.414062 372.347656 C 401.050781 369.28125 403.613281 366.167969 405.882812 363.414062 C 407.667969 361.242188 409.273438 359.296875 410.570312 357.785156 C 411.878906 356.261719 412.757812 354.75 413.558594 353.367188 C 414.289062 352.109375 414.96875 350.9375 415.851562 350.019531 C 416.601562 349.238281 417.082031 348.867188 417.507812 348.617188 C 417.671875 348.519531 417.835938 348.4375 417.984375 348.363281 C 418.144531 348.28125 418.285156 348.210938 418.460938 348.109375 C 418.535156 348.0625 418.617188 348.027344 418.707031 348.007812 C 418.859375 347.972656 419.011719 347.988281 419.152344 348.046875 C 419.347656 348.132812 419.492188 348.292969 419.601562 348.445312 C 419.773438 348.683594 419.941406 349.019531 420.121094 349.375 C 420.398438 349.925781 420.738281 350.597656 421.234375 351.285156 C 421.472656 351.617188 421.65625 351.929688 421.785156 352.238281 C 422.683594 354.398438 420.695312 355.582031 417.953125 356.726562 C 417.085938 357.085938 416.132812 357.449219 415.054688 357.859375 C 413.746094 358.355469 412.300781 358.902344 410.75 359.550781 L 410.574219 358.820312 C 411.316406 358.761719 412.128906 358.550781 412.996094 358.230469 C 414.554688 357.65625 416.246094 356.75 417.972656 355.824219 C 419.707031 354.898438 421.480469 353.945312 423.152344 353.332031 C 425.242188 352.5625 428.605469 351.761719 429.425781 352.433594 C 429.453125 352.457031 429.480469 352.480469 429.503906 352.507812 C 429.671875 352.691406 429.804688 352.882812 429.902344 353.082031 C 431.136719 355.539062 426.9375 358.003906 423.21875 359.871094 C 422.011719 360.476562 420.773438 361.058594 419.617188 361.597656 C 418.609375 362.070312 417.667969 362.511719 416.871094 362.910156 L 416.644531 362.195312 C 418.0625 361.984375 420.441406 361.355469 422.851562 360.710938 C 426.160156 359.832031 429.847656 358.820312 430.703125 359.214844 C 430.796875 359.257812 430.90625 359.332031 430.976562 359.457031 C 431 359.496094 431.003906 359.5 431.03125 359.546875 C 431.34375 360.074219 431.75 360.832031 430.972656 362.453125 C 430.449219 363.546875 429.414062 364.496094 428.148438 365.34375 C 426.128906 366.695312 423.402344 367.863281 420.855469 368.953125 C 418.523438 369.949219 416.355469 370.878906 414.917969 371.839844 L 414.707031 371.527344 L 414.527344 371.191406 C 414.511719 371.199219 422.136719 367.351562 426.21875 367.058594 C 426.589844 367.03125 426.976562 366.976562 427.378906 366.917969 C 428.105469 366.8125 428.953125 366.675781 429.511719 366.863281 C 430.226562 367.097656 430.375 367.753906 430.089844 368.613281 C 429.097656 371.613281 425.777344 373.476562 420.238281 376.070312 C 420.046875 376.15625 419.824219 376.078125 419.734375 375.890625 C 419.644531 375.703125 419.722656 375.476562 419.90625 375.386719 C 422.839844 373.929688 424.683594 373.832031 425.476562 374.746094 C 426.316406 375.710938 425.613281 377.300781 424.582031 378.195312 C 423.855469 378.828125 422.105469 380.078125 418.09375 381.574219 L 418.058594 381.585938 L 418.09375 381.574219 C 417.125 381.9375 416.023438 382.738281 414.734375 383.679688 C 412.59375 385.246094 409.996094 387.15625 407.070312 387.402344 L 407.242188 387.34375 C 404.796875 388.898438 400.617188 390.726562 394.464844 393.332031 C 393.597656 393.699219 392.625 394.109375 391.671875 394.511719 C 390.605469 394.964844 389.496094 395.429688 388.328125 395.925781 C 387.90625 396.105469 386.769531 396.585938 386.355469 396.757812 C 379.703125 399.570312 374.144531 401.949219 373.773438 402.695312 C 373.769531 402.699219 373.796875 402.648438 373.773438 402.566406 L 373.097656 402.464844 C 377.847656 395.414062 384.355469 393.199219 389.039062 392.167969 C 389.96875 391.960938 390.808594 391.808594 391.566406 391.667969 C 392.175781 391.554688 392.695312 391.457031 393.160156 391.355469 C 394.683594 391.019531 399.179688 390.285156 404.5625 389.40625 C 415.777344 387.570312 430.554688 385.136719 431.519531 384.304688 C 431.527344 384.300781 431.488281 384.328125 431.464844 384.398438 C 433.453125 378.609375 433.734375 376.003906 433.523438 374.050781 C 433.441406 373.292969 433.285156 372.625 433.109375 371.882812 C 432.910156 371.03125 432.6875 370.09375 432.558594 368.875 L 432.570312 368.730469 L 442.546875 333.785156 L 443.269531 334.011719 L 432.203125 367.339844 C 432.148438 367.507812 431.988281 367.613281 431.816406 367.601562 C 431.644531 367.589844 431.5 367.460938 431.46875 367.289062 C 429.828125 358.253906 424.851562 348.289062 416.5 337.398438 L 416.527344 337.429688 L 416.800781 337.167969 L 416.5 337.398438 C 416.4375 337.316406 410.730469 329.820312 408.117188 313.625 L 408.132812 313.441406 C 411.828125 302.519531 410.332031 298.097656 409.441406 295.972656 C 409.386719 295.847656 409.335938 295.730469 409.289062 295.617188 C 409.257812 295.542969 409.191406 295.394531 409.164062 295.328125 L 409.867188 295.324219 C 407.269531 301.664062 406.160156 303.433594 404.878906 303.011719 L 405.140625 303.003906 C 400.875 304.726562 397.875 306.304688 395.824219 307.382812 C 394.164062 308.253906 392.992188 308.886719 392.292969 308.882812 C 391.539062 308.878906 391.339844 308.257812 391.34375 307.601562 C 391.347656 305.90625 391.304688 304.121094 391.261719 302.253906 C 390.960938 289.882812 390.574219 273.859375 404.039062 255.046875 C 407.929688 249.609375 415.648438 244.769531 423.90625 242.375 C 424.003906 242.347656 424.09375 242.328125 424.183594 242.316406 C 425.289062 242.175781 425.628906 243.222656 425.734375 244.0625 C 425.832031 244.835938 425.789062 245.785156 425.753906 246.574219 C 425.722656 247.210938 425.703125 247.722656 425.742188 248.03125 C 426.65625 255.316406 426.582031 259.1875 424.539062 260.839844 L 424.675781 260.613281 C 424.664062 260.664062 422.75 271.121094 410.859375 279.867188 C 410.746094 279.949219 410.597656 279.960938 410.472656 279.902344 C 409.109375 279.25 407.828125 278.261719 406.710938 277.402344 C 405.660156 276.59375 404.785156 275.921875 404.074219 275.652344 C 403.421875 275.402344 402.980469 275.488281 402.632812 276.394531 C 401.167969 280.238281 401.460938 282.113281 402.417969 283.546875 C 402.929688 284.316406 403.652344 284.980469 404.5 285.761719 C 405.550781 286.726562 406.769531 287.84375 407.859375 289.476562 L 407.863281 289.480469 C 407.855469 289.46875 411.488281 295.03125 417.660156 301.371094 C 422.527344 306.378906 428.695312 310.132812 430.34375 310.167969 C 440.417969 310.390625 447.292969 305.964844 452.589844 298.394531 C 459.972656 287.835938 463.179688 279.691406 459.878906 272.722656 C 452.789062 257.738281 443.144531 248.023438 431.550781 244.582031 C 431.238281 244.488281 430.972656 244.460938 430.746094 244.476562 C 429.183594 244.578125 428.730469 247.085938 428.929688 250.167969 C 428.960938 250.613281 428.949219 250.4375 428.976562 250.871094 C 429.464844 258.480469 429.414062 258.941406 442.570312 273.109375 C 443.515625 274.128906 444.695312 275.398438 445.796875 276.582031 C 447.304688 278.199219 448.4375 279.417969 450.175781 281.285156 L 450.269531 281.484375 C 450.816406 284.863281 450.503906 292.433594 448.726562 296.71875 C 446.886719 301.160156 444.167969 303.652344 441.691406 305.925781 C 439.492188 307.945312 437.515625 309.765625 436.394531 312.628906 C 434.757812 316.789062 435.308594 323.039062 436.097656 328.582031 L 435.753906 328.257812 C 435.855469 328.265625 444.722656 329.054688 448.824219 342.324219 L 448.824219 342.335938 C 448.832031 342.351562 450.332031 347.644531 451.292969 357.589844 C 451.882812 363.6875 452.261719 365.21875 452.371094 365.421875 C 452.425781 365.523438 452.332031 365.253906 452.054688 365.269531 L 452.058594 365.269531 C 451.648438 365.296875 451.726562 365.800781 451.730469 365.566406 C 451.730469 365.566406 451.730469 365.5625 451.726562 365.5625 C 451.691406 365.011719 451.683594 364.375 451.699219 363.675781 C 451.773438 360.136719 452.433594 354.714844 453.136719 348.9375 C 453.949219 342.253906 454.820312 335.082031 454.933594 329.6875 C 455.105469 321.679688 449.226562 307.339844 446.496094 306.519531 L 446.859375 305.875 C 448.976562 307.792969 450.84375 309.710938 452.660156 311.582031 C 455.007812 313.996094 457.253906 316.308594 459.832031 318.410156 C 460.496094 318.949219 461.234375 319.507812 461.996094 320.078125 C 464.746094 322.144531 467.914062 324.515625 469.460938 327.796875 C 469.546875 327.980469 469.640625 328.191406 469.734375 328.410156 C 472.074219 334.007812 476.988281 353.71875 474.078125 354.9375 C 472.628906 355.546875 470.988281 355.65625 469.355469 355.53125 C 467.371094 355.378906 465.339844 354.875 463.605469 354.445312 C 462.246094 354.105469 461.089844 353.820312 460.230469 353.753906 C 459.210938 353.675781 458.941406 353.910156 458.910156 354.332031 C 458.871094 354.863281 459 355.207031 459.226562 355.449219 C 460.050781 356.335938 462.351562 356.230469 465.335938 356.039062 C 468.875 355.816406 473.210938 355.503906 475.34375 357.804688 C 478.621094 361.339844 476.726562 377.269531 475.828125 378.496094 C 475.832031 378.492188 475.828125 378.496094 475.816406 378.511719 L 475.898438 378.28125 C 475.894531 378.535156 475.867188 378.789062 475.765625 378.976562 C 475.746094 379.015625 475.71875 379.054688 475.6875 379.09375 L 475.6875 379.089844 C 475.53125 379.285156 475.308594 379.332031 475.105469 379.292969 C 474.855469 379.246094 474.597656 379.058594 474.367188 378.867188 C 474.042969 378.601562 473.636719 378.199219 473.160156 377.734375 C 472.402344 376.992188 471.441406 376.050781 470.246094 375.0625 C 465.664062 371.273438 458.9375 366.753906 457.5 366.828125 C 454.339844 366.996094 452.335938 367.84375 451.226562 370.519531 L 451.105469 370.675781 C 450.609375 371.054688 449.476562 370.898438 448.046875 370.472656 C 446.628906 370.046875 445.765625 369.285156 445.6875 368.335938 C 445.5625 366.816406 447.445312 365.5625 450.097656 365.339844 C 450.210938 365.332031 450.320312 365.371094 450.398438 365.453125 C 452.515625 367.582031 452 371.117188 451.132812 374.300781 C 450.847656 375.351562 450.515625 376.390625 450.203125 377.359375 C 449.925781 378.234375 449.667969 379.035156 449.46875 379.765625 C 449.390625 380.054688 449.339844 380.335938 449.3125 380.605469 C 449.144531 382.359375 449.945312 383.597656 450.144531 383.730469 C 450.152344 383.734375 450.117188 383.707031 450.050781 383.703125 L 450.054688 383.703125 C 450.667969 383.761719 451.375 383.328125 452.28125 382.496094 C 452.6875 382.117188 453.105469 381.691406 453.558594 381.230469 C 454.046875 380.726562 454.5625 380.199219 455.113281 379.691406 C 455.253906 379.5625 455.46875 379.554688 455.617188 379.679688 C 455.761719 379.804688 455.792969 380.015625 455.6875 380.175781 C 454.777344 381.574219 454.304688 382.667969 454.210938 383.476562 C 454.089844 384.542969 454.621094 385.195312 456.195312 385.375 C 456.320312 385.390625 456.433594 385.46875 456.492188 385.582031 C 456.484375 385.566406 456.46875 385.546875 456.441406 385.523438 C 456.375 385.464844 456.308594 385.472656 456.308594 385.472656 C 456.667969 385.421875 458.003906 384.199219 460.4375 381.386719 C 460.566406 381.238281 460.785156 381.214844 460.945312 381.328125 C 461.101562 381.441406 461.148438 381.65625 461.050781 381.828125 C 460.308594 383.101562 460.089844 383.921875 460.1875 384.371094 C 460.277344 384.785156 460.808594 385.132812 462.644531 384.730469 L 462.847656 384.742188 C 463.746094 385.042969 465.605469 383.714844 468.574219 379.839844 L 469.136719 380.347656 C 468.046875 381.390625 467.703125 381.976562 467.710938 382.1875 C 467.710938 382.195312 467.710938 382.195312 467.710938 382.195312 C 467.710938 382.195312 467.710938 382.191406 467.707031 382.1875 C 467.722656 382.207031 467.859375 382.292969 468.339844 382.273438 C 474.59375 382.003906 480.109375 381.488281 485.640625 380.96875 C 492.089844 380.367188 498.5625 379.757812 506.171875 379.554688 C 506.308594 379.550781 506.433594 379.621094 506.503906 379.734375 C 506.578125 379.851562 506.578125 379.996094 506.515625 380.117188 C 499.746094 392.46875 497.292969 400.203125 501.617188 410.480469 C 501.660156 410.589844 501.652344 410.714844 501.59375 410.816406 C 501.601562 410.804688 501.601562 410.796875 501.605469 410.796875 L 501.601562 410.808594 L 501.601562 410.796875 C 501.320312 411.976562 508.839844 421.214844 516.179688 423 C 523.839844 424.863281 531.113281 418.980469 533.046875 416.460938 C 534.152344 415.023438 535.105469 413.191406 535.957031 411.105469 C 537.546875 407.210938 538.75 402.484375 539.917969 397.914062 C 540.992188 393.695312 542.035156 389.597656 543.316406 386.457031 C 543.332031 386.421875 543.378906 386.3125 543.492188 386.238281 L 543.488281 386.238281 C 543.84375 386.007812 544.085938 386.398438 544.078125 386.386719 L 544.082031 386.386719 C 544.089844 386.398438 544.089844 386.398438 544.097656 386.414062 C 544.214844 386.613281 544.351562 387.121094 544.53125 387.746094 C 545.25 390.289062 546.9375 396.261719 551.308594 402.976562 C 560.953125 417.785156 560.0625 435.652344 558.292969 454.207031 L 557.539062 454.109375 C 558.902344 445.945312 567.734375 420.527344 582.070312 412.070312 C 592.574219 405.875 603.027344 402.261719 612.402344 400.078125 C 622.707031 397.675781 631.714844 397.003906 638.03125 396.535156 C 641.476562 396.277344 644.082031 396.082031 645.6875 395.707031 L 645.792969 395.699219 C 645.792969 395.699219 645.785156 395.699219 645.777344 395.699219 L 645.78125 395.699219 C 645.765625 395.699219 645.757812 395.703125 645.757812 395.703125 C 647.453125 395.003906 651.75 373.507812 650.851562 360.347656 C 647.851562 316.359375 622.265625 305.507812 610.398438 302.578125 C 608.125 302.015625 606.351562 301.746094 605.324219 301.585938 C 604.917969 301.523438 604.601562 301.476562 604.429688 301.433594 L 604.519531 301.066406 L 604.140625 301.058594 C 604.140625 300.949219 604.28125 289.183594 602.277344 286.605469 C 601.929688 286.152344 601.574219 286.050781 601.011719 286.488281 C 598.496094 288.441406 595.28125 289.300781 592.140625 289.53125 C 586.214844 289.96875 580.007812 288.164062 579.476562 286.851562 C 579.453125 286.789062 579.433594 286.71875 579.429688 286.644531 C 579.355469 285.664062 579.1875 284.96875 578.953125 284.457031 C 578.4375 283.324219 577.582031 283.023438 576.390625 282.617188 C 574.703125 282.046875 572.628906 281.332031 570.984375 277.726562 C 569.027344 273.433594 569.230469 269.203125 569.414062 265.289062 C 569.613281 261.050781 569.78125 257.21875 567.417969 253.8125 C 564.453125 249.542969 559.078125 245.710938 554.046875 245.0625 C 548.699219 244.375 543.582031 247.269531 542.238281 257.703125 L 541.859375 257.652344 L 542.238281 257.695312 C 542.246094 257.628906 541.699219 261.738281 545.324219 270.359375 L 544.976562 270.507812 L 545.347656 270.574219 C 545.339844 270.632812 543.746094 280.132812 546.996094 284.433594 C 548.742188 286.746094 550.085938 288.765625 551.171875 290.527344 C 552.195312 292.183594 552.992188 293.621094 553.679688 294.863281 C 554.210938 295.824219 554.671875 296.652344 555.132812 297.398438 C 555.179688 297.476562 555.242188 297.558594 555.320312 297.644531 C 556.785156 299.304688 562.691406 301.652344 567.71875 297.214844 C 570.265625 294.964844 571.964844 293.765625 573.140625 293.609375 C 574.742188 293.394531 575.195312 294.988281 575.449219 296.890625 C 575.558594 297.722656 575.640625 298.710938 575.734375 299.808594 C 575.859375 301.269531 576 302.945312 576.25 304.808594 C 576.59375 307.390625 582.101562 307.753906 589.527344 307.648438 C 590.605469 307.632812 591.683594 307.609375 592.792969 307.585938 C 593.917969 307.5625 595.039062 307.535156 596.164062 307.519531 L 596.320312 307.519531 C 599.015625 307.480469 601.402344 307.445312 603.238281 306.964844 C 606.222656 306.183594 607.835938 304.234375 606.308594 298.386719 C 605.582031 295.605469 606.097656 287.515625 606.660156 278.554688 C 607.417969 266.492188 608.273438 252.785156 606.566406 247.410156 C 600.785156 229.195312 586.847656 225.109375 573.664062 225.9375 C 560.457031 226.765625 548.449219 233.457031 544.234375 240.980469 C 543.824219 241.714844 543.621094 242.378906 543.574219 242.984375 C 543.382812 245.535156 545.957031 247.398438 549.03125 249.566406 C 552.316406 251.878906 556.105469 254.503906 555.785156 258.695312 C 555.503906 262.433594 557.089844 272.660156 558.839844 273.164062 C 558.992188 273.207031 559.152344 273.207031 559.332031 273.164062 C 560.332031 272.917969 561.507812 271.433594 562.6875 269.90625 C 563.546875 268.792969 564.484375 267.546875 565.269531 267.351562 C 565.996094 267.171875 566.398438 267.769531 566.589844 268.550781 C 567.445312 272.003906 567.992188 276.773438 565.976562 280.804688 L 565.972656 280.8125 L 565.972656 280.816406 C 565.414062 281.917969 564.125 282.167969 563.359375 282.332031 C 562.890625 282.433594 562.683594 282.492188 562.621094 282.542969 C 562.621094 282.546875 562.632812 282.535156 562.640625 282.519531 L 562.304688 282.347656 L 562.578125 282.085938 C 562.53125 282.035156 574.910156 295.125 571.410156 305.925781 C 571.382812 306.015625 571.324219 306.085938 571.246094 306.136719 C 567.636719 308.320312 564.75 309.355469 561.84375 309.929688 C 559.777344 310.335938 557.699219 310.511719 555.367188 310.710938 C 552.289062 310.96875 548.742188 311.269531 544.082031 312.1875 C 542.972656 312.40625 541.972656 312.453125 541.113281 312.496094 C 540.320312 312.53125 539.6875 312.566406 539.171875 312.699219 C 536.304688 313.445312 536.796875 317.636719 545.773438 352.125 L 545.785156 352.238281 L 544.371094 383.082031 L 543.617188 383.015625 C 546.386719 360.886719 549.585938 330.136719 540.84375 316.488281 C 540.222656 315.511719 539.433594 314.691406 538.546875 314.121094 C 536.023438 312.492188 532.480469 312.765625 529.191406 317.875 C 524.625 324.957031 520.492188 342.070312 517.050781 358.214844 C 516.246094 361.976562 515.457031 365.800781 514.738281 369.292969 C 514.082031 372.464844 513.46875 375.453125 512.882812 378.191406 C 511.941406 382.609375 509.8125 386.335938 508.375 388.859375 C 507.394531 390.574219 506.875 391.539062 506.945312 391.90625 C 507.273438 393.714844 507.632812 394.347656 507.96875 394.941406 C 508.382812 395.675781 508.753906 396.355469 508.972656 398.542969 C 508.984375 398.691406 508.914062 398.835938 508.785156 398.910156 C 508.65625 398.984375 508.496094 398.976562 508.375 398.890625 C 506.421875 397.511719 505.78125 395.492188 505.34375 394.117188 C 504.917969 392.796875 504.761719 392.59375 504.496094 392.65625 C 503.613281 392.863281 501.714844 395.015625 500.792969 397.332031 L 500.816406 397.203125 C 500.542969 408.152344 502.933594 415.464844 507.839844 419.308594 C 507.96875 419.40625 508.019531 419.574219 507.96875 419.726562 C 507.914062 419.878906 507.773438 419.984375 507.613281 419.984375 C 504.636719 420.023438 501.382812 420.089844 498.007812 420.160156 C 481.550781 420.503906 460.417969 420.941406 434.457031 418.804688 C 423.5 417.902344 414.699219 416.613281 407.464844 415.242188 C 399.65625 413.761719 393.683594 412.183594 388.800781 410.898438 C 385.421875 410.007812 382.578125 409.257812 380.015625 408.769531 C 376.667969 408.136719 374.882812 406.382812 373.796875 405.132812 C 373.660156 404.976562 373.546875 404.84375 373.433594 404.707031 C 373.332031 404.585938 373.253906 404.496094 373.164062 404.394531 L 373.261719 404.472656 C 373.230469 404.453125 373.242188 404.46875 373.28125 404.46875 C 373.351562 404.464844 373.386719 404.421875 373.390625 404.417969 L 373.085938 404.191406 L 373.390625 404.417969 C 373.253906 404.605469 373.25 405.457031 373.316406 406.53125 C 373.328125 406.664062 373.335938 406.789062 373.34375 406.921875 C 373.351562 407.046875 373.359375 407.152344 373.367188 407.273438 C 373.636719 411.652344 373.800781 412.945312 377.777344 414.207031 C 394.023438 419.367188 409.679688 421.671875 417.433594 422.460938 C 486.136719 429.484375 539.839844 425.71875 557.449219 421.101562 C 557.652344 421.050781 557.859375 421.171875 557.910156 421.375 C 557.964844 421.578125 557.84375 421.785156 557.640625 421.835938 Z M 557.640625 421.835938 " fill-opacity="1" fill-rule="nonzero"/></g></svg>