<svg xmlns="http://www.w3.org/2000/svg" xmlns:xlink="http://www.w3.org/1999/xlink" width="1366" zoomAndPan="magnify" viewBox="0 0 1024.5 576" height="768" preserveAspectRatio="xMidYMid meet" version="1.0"><defs><g/><clipPath id="a66c9a6afe"><path d="M 0 0.140625 L 1024 0.140625 L 1024 575.859375 L 0 575.859375 Z M 0 0.140625 " clip-rule="nonzero"/></clipPath><clipPath id="dc611e92ff"><path d="M 426.886719 150 L 473.046875 150 L 473.046875 174.875 L 426.886719 174.875 Z M 426.886719 150 " clip-rule="nonzero"/></clipPath><clipPath id="6b235ab95b"><path d="M 430 145.5 L 470 145.5 L 470 173 L 430 173 Z M 430 145.5 " clip-rule="nonzero"/></clipPath><clipPath id="e39e39adff"><path d="M 323 247 L 731.714844 247 L 731.714844 466.984375 L 323 466.984375 Z M 323 247 " clip-rule="nonzero"/></clipPath></defs><g clip-path="url(#a66c9a6afe)"><path fill="#ffffff" d="M 0 0.140625 L 1024.5 0.140625 L 1024.5 583.640625 L 0 583.640625 Z M 0 0.140625 " fill-opacity="1" fill-rule="nonzero"/><path fill="#ffffff" d="M 0 0.140625 L 1024.5 0.140625 L 1024.5 576.140625 L 0 576.140625 Z M 0 0.140625 " fill-opacity="1" fill-rule="nonzero"/><path fill="#374151" d="M 0 0.140625 L 1024.5 0.140625 L 1024.5 576.140625 L 0 576.140625 Z M 0 0.140625 " fill-opacity="1" fill-rule="nonzero"/></g><g clip-path="url(#dc611e92ff)"><path fill="#ffffff" d="M 470.285156 150.574219 L 470.273438 150.652344 L 468.554688 169.347656 L 468.480469 170.199219 L 467.613281 170.089844 L 466.964844 170.007812 C 465.667969 169.84375 464.394531 169.753906 463.179688 169.753906 C 457.308594 169.753906 453.738281 171.699219 452.132812 172.859375 L 449.96875 173.023438 L 449.960938 173.023438 L 447.796875 172.859375 C 446.191406 171.699219 442.621094 169.753906 436.75 169.753906 C 435.535156 169.753906 434.261719 169.84375 432.964844 170.007812 L 432.316406 170.089844 L 431.449219 170.199219 L 431.375 169.347656 L 429.65625 150.652344 L 429.648438 150.574219 L 426.90625 150.574219 L 429.699219 171.75 L 448.121094 174.875 L 451.808594 174.875 L 470.230469 171.75 L 473.023438 150.574219 L 470.285156 150.574219 " fill-opacity="1" fill-rule="nonzero"/></g><g clip-path="url(#6b235ab95b)"><path fill="#ffffff" d="M 432.777344 149.449219 L 432.882812 150.523438 L 434.289062 165.070312 L 434.777344 165.140625 C 434.863281 165.148438 441.664062 166.175781 446.253906 169.585938 C 444.050781 168.578125 440.933594 167.695312 436.789062 167.695312 C 435.707031 167.695312 434.5625 167.757812 433.34375 167.890625 L 431.757812 150.574219 L 431.664062 149.550781 C 432.050781 149.507812 432.417969 149.476562 432.777344 149.449219 Z M 444.179688 149.40625 C 447.230469 150.984375 448.84375 152.800781 449.316406 153.386719 L 449.316406 170.730469 C 445.355469 166.015625 437.507812 164.363281 435.449219 164 L 434.132812 150.398438 L 433.78125 146.773438 C 438.296875 146.988281 441.710938 148.121094 444.179688 149.40625 Z M 450.617188 153.386719 C 451.085938 152.800781 452.699219 150.984375 455.75 149.40625 C 458.21875 148.121094 461.632812 146.988281 466.148438 146.773438 L 465.796875 150.398438 L 464.480469 164 C 462.421875 164.363281 454.574219 166.015625 450.617188 170.730469 Z M 467.046875 150.523438 L 467.152344 149.449219 C 467.511719 149.476562 467.882812 149.507812 468.269531 149.550781 L 468.175781 150.574219 L 466.585938 167.890625 C 465.367188 167.757812 464.222656 167.695312 463.140625 167.695312 C 459 167.695312 455.878906 168.578125 453.675781 169.585938 C 458.265625 166.175781 465.066406 165.148438 465.152344 165.140625 L 465.640625 165.070312 Z M 432.207031 169.277344 L 432.859375 169.195312 C 437.308594 168.617188 440.789062 169.074219 443.394531 169.851562 C 443.648438 169.929688 443.894531 170.007812 444.132812 170.089844 C 444.375 170.171875 444.601562 170.257812 444.824219 170.34375 C 445.046875 170.429688 445.261719 170.515625 445.46875 170.605469 C 446.492188 171.054688 447.316406 171.53125 447.941406 171.953125 C 448.066406 172.039062 448.1875 172.121094 448.292969 172.199219 L 451.636719 172.199219 C 451.742188 172.121094 451.863281 172.039062 451.988281 171.953125 C 452.613281 171.53125 453.4375 171.054688 454.460938 170.605469 C 454.671875 170.515625 454.882812 170.429688 455.105469 170.34375 C 455.328125 170.257812 455.554688 170.171875 455.796875 170.089844 C 456.035156 170.007812 456.28125 169.929688 456.539062 169.851562 C 459.140625 169.074219 462.621094 168.617188 467.074219 169.195312 L 467.722656 169.277344 L 469.441406 150.574219 L 469.632812 148.457031 L 469.027344 148.390625 C 468.414062 148.320312 467.828125 148.261719 467.269531 148.222656 L 467.535156 145.496094 L 466.824219 145.515625 C 460.640625 145.671875 456.355469 147.425781 453.578125 149.1875 C 451.757812 150.34375 450.589844 151.5 449.96875 152.210938 L 449.960938 152.210938 C 449.34375 151.5 448.171875 150.34375 446.351562 149.1875 C 443.574219 147.425781 439.289062 145.671875 433.105469 145.515625 L 432.394531 145.496094 L 432.660156 148.222656 C 432.101562 148.261719 431.515625 148.320312 430.90625 148.390625 L 430.296875 148.457031 L 430.492188 150.574219 L 432.207031 169.277344 " fill-opacity="1" fill-rule="nonzero"/></g><g fill="#ffffff" fill-opacity="1"><g transform="translate(482.46965, 167.68624)"><g><path d="M 1.640625 -0.109375 C 2.179688 -0.847656 2.453125 -1.832031 2.453125 -3.0625 L 2.453125 -13.3125 C 2.453125 -14.550781 2.179688 -15.535156 1.640625 -16.265625 L 1.640625 -16.390625 L 8.28125 -16.390625 C 10.125 -16.390625 11.664062 -16.015625 12.90625 -15.265625 C 14.144531 -14.523438 14.765625 -13.300781 14.765625 -11.59375 C 14.765625 -10.476562 14.472656 -9.550781 13.890625 -8.8125 C 13.316406 -8.070312 12.566406 -7.53125 11.640625 -7.1875 C 10.710938 -6.84375 9.726562 -6.671875 8.6875 -6.671875 C 7.9375 -6.671875 7.222656 -6.800781 6.546875 -7.0625 L 6.546875 -7.4375 C 7.003906 -7.332031 7.472656 -7.28125 7.953125 -7.28125 C 9.015625 -7.28125 9.832031 -7.6875 10.40625 -8.5 C 10.976562 -9.320312 11.265625 -10.351562 11.265625 -11.59375 C 11.265625 -12.757812 10.96875 -13.753906 10.375 -14.578125 C 9.789062 -15.410156 8.960938 -15.828125 7.890625 -15.828125 C 7.171875 -15.828125 6.492188 -15.707031 5.859375 -15.46875 L 5.859375 -3.0625 C 5.859375 -1.832031 6.128906 -0.847656 6.671875 -0.109375 L 6.671875 0 L 1.640625 0 Z M 1.640625 -0.109375 "/></g></g></g><g fill="#ffffff" fill-opacity="1"><g transform="translate(497.183104, 167.68624)"><g><path d="M 1.359375 -0.109375 C 1.554688 -0.410156 1.710938 -0.789062 1.828125 -1.25 C 1.953125 -1.707031 2.015625 -2.210938 2.015625 -2.765625 L 2.015625 -13.4375 C 2.015625 -14.070312 1.941406 -14.59375 1.796875 -15 C 1.660156 -15.40625 1.453125 -15.742188 1.171875 -16.015625 L 1.171875 -16.125 L 5.0625 -17.4375 L 5.171875 -17.4375 L 5.171875 -2.765625 C 5.171875 -2.210938 5.226562 -1.707031 5.34375 -1.25 C 5.46875 -0.789062 5.628906 -0.410156 5.828125 -0.109375 L 5.828125 0 L 1.359375 0 Z M 1.359375 -0.109375 "/></g></g></g><g fill="#ffffff" fill-opacity="1"><g transform="translate(503.779436, 167.68624)"><g><path d="M 11.640625 -3.953125 C 11.367188 -2.660156 10.769531 -1.628906 9.84375 -0.859375 C 8.925781 -0.0859375 7.804688 0.296875 6.484375 0.296875 C 5.441406 0.296875 4.5 0.0664062 3.65625 -0.390625 C 2.8125 -0.847656 2.140625 -1.519531 1.640625 -2.40625 C 1.148438 -3.300781 0.90625 -4.359375 0.90625 -5.578125 C 0.90625 -6.835938 1.171875 -7.953125 1.703125 -8.921875 C 2.234375 -9.898438 2.941406 -10.65625 3.828125 -11.1875 C 4.722656 -11.726562 5.691406 -12 6.734375 -12 C 7.703125 -12 8.546875 -11.796875 9.265625 -11.390625 C 9.984375 -10.992188 10.53125 -10.453125 10.90625 -9.765625 C 11.28125 -9.078125 11.46875 -8.332031 11.46875 -7.53125 L 3.46875 -7.53125 C 3.507812 -6.363281 3.738281 -5.363281 4.15625 -4.53125 C 4.582031 -3.695312 5.132812 -3.066406 5.8125 -2.640625 C 6.488281 -2.222656 7.234375 -2.015625 8.046875 -2.015625 C 8.816406 -2.015625 9.492188 -2.1875 10.078125 -2.53125 C 10.660156 -2.875 11.101562 -3.347656 11.40625 -3.953125 Z M 5.859375 -11.328125 C 5.148438 -11.328125 4.578125 -11.050781 4.140625 -10.5 C 3.703125 -9.945312 3.476562 -9.140625 3.46875 -8.078125 L 8.359375 -8.078125 C 8.265625 -9.078125 8 -9.867188 7.5625 -10.453125 C 7.132812 -11.035156 6.566406 -11.328125 5.859375 -11.328125 Z M 5.859375 -11.328125 "/></g></g></g><g fill="#ffffff" fill-opacity="1"><g transform="translate(515.615647, 167.68624)"><g><path d="M 6.875 0.296875 C 4.925781 0.296875 3.226562 -0.164062 1.78125 -1.09375 L 1.78125 -13.4375 C 1.78125 -14.070312 1.707031 -14.59375 1.5625 -15 C 1.425781 -15.40625 1.21875 -15.742188 0.9375 -16.015625 L 0.9375 -16.125 L 4.828125 -17.4375 L 4.9375 -17.4375 L 4.9375 -9.90625 L 5.0625 -9.90625 C 5.4375 -10.5625 5.925781 -11.070312 6.53125 -11.4375 C 7.132812 -11.8125 7.835938 -12 8.640625 -12 C 9.554688 -12 10.363281 -11.757812 11.0625 -11.28125 C 11.769531 -10.8125 12.3125 -10.132812 12.6875 -9.25 C 13.070312 -8.375 13.265625 -7.359375 13.265625 -6.203125 C 13.265625 -5.046875 13 -3.972656 12.46875 -2.984375 C 11.945312 -1.992188 11.203125 -1.195312 10.234375 -0.59375 C 9.265625 0 8.144531 0.296875 6.875 0.296875 Z M 7 -0.234375 C 7.914062 -0.234375 8.625 -0.710938 9.125 -1.671875 C 9.625 -2.628906 9.875 -3.929688 9.875 -5.578125 C 9.875 -7.085938 9.632812 -8.265625 9.15625 -9.109375 C 8.6875 -9.953125 8.03125 -10.375 7.1875 -10.375 C 6.570312 -10.375 6.0625 -10.1875 5.65625 -9.8125 C 5.257812 -9.445312 5.019531 -8.976562 4.9375 -8.40625 L 4.9375 -1.890625 C 5.019531 -1.441406 5.238281 -1.050781 5.59375 -0.71875 C 5.945312 -0.394531 6.414062 -0.234375 7 -0.234375 Z M 7 -0.234375 "/></g></g></g><g fill="#ffffff" fill-opacity="1"><g transform="translate(529.323244, 167.68624)"><g><path d="M 1.640625 -0.109375 C 2.179688 -0.847656 2.453125 -1.832031 2.453125 -3.0625 L 2.453125 -13.3125 C 2.453125 -14.550781 2.179688 -15.535156 1.640625 -16.265625 L 1.640625 -16.390625 L 8.59375 -16.390625 C 10.25 -16.390625 11.617188 -16.078125 12.703125 -15.453125 C 13.796875 -14.828125 14.34375 -13.84375 14.34375 -12.5 C 14.34375 -11.46875 13.984375 -10.640625 13.265625 -10.015625 C 12.546875 -9.390625 11.691406 -9 10.703125 -8.84375 L 10.703125 -8.75 C 11.878906 -8.613281 12.882812 -8.171875 13.71875 -7.421875 C 14.5625 -6.679688 14.984375 -5.707031 14.984375 -4.5 C 14.984375 -2.9375 14.363281 -1.796875 13.125 -1.078125 C 11.894531 -0.359375 10.382812 0 8.59375 0 L 1.640625 0 Z M 7.5625 -9.0625 C 8.59375 -9.0625 9.394531 -9.375 9.96875 -10 C 10.550781 -10.625 10.84375 -11.441406 10.84375 -12.453125 C 10.84375 -13.429688 10.546875 -14.238281 9.953125 -14.875 C 9.367188 -15.507812 8.578125 -15.828125 7.578125 -15.828125 C 7.003906 -15.828125 6.429688 -15.71875 5.859375 -15.5 L 5.859375 -9.0625 Z M 7.75 -0.5625 C 8.851562 -0.5625 9.738281 -0.914062 10.40625 -1.625 C 11.082031 -2.332031 11.421875 -3.289062 11.421875 -4.5 C 11.421875 -5.738281 11.078125 -6.707031 10.390625 -7.40625 C 9.703125 -8.113281 8.78125 -8.46875 7.625 -8.46875 L 5.859375 -8.46875 L 5.859375 -0.984375 C 6.367188 -0.703125 7 -0.5625 7.75 -0.5625 Z M 7.75 -0.5625 "/></g></g></g><g fill="#ffffff" fill-opacity="1"><g transform="translate(544.808655, 167.68624)"><g><path d="M 6.8125 0.296875 C 5.65625 0.296875 4.625 0.0351562 3.71875 -0.484375 C 2.8125 -1.015625 2.101562 -1.742188 1.59375 -2.671875 C 1.09375 -3.609375 0.84375 -4.671875 0.84375 -5.859375 C 0.84375 -7.035156 1.09375 -8.085938 1.59375 -9.015625 C 2.101562 -9.953125 2.8125 -10.679688 3.71875 -11.203125 C 4.625 -11.734375 5.65625 -12 6.8125 -12 C 7.945312 -12 8.96875 -11.734375 9.875 -11.203125 C 10.78125 -10.679688 11.484375 -9.953125 11.984375 -9.015625 C 12.492188 -8.085938 12.75 -7.035156 12.75 -5.859375 C 12.75 -4.671875 12.492188 -3.609375 11.984375 -2.671875 C 11.484375 -1.742188 10.78125 -1.015625 9.875 -0.484375 C 8.96875 0.0351562 7.945312 0.296875 6.8125 0.296875 Z M 6.8125 -0.234375 C 7.664062 -0.234375 8.300781 -0.742188 8.71875 -1.765625 C 9.144531 -2.785156 9.359375 -4.148438 9.359375 -5.859375 C 9.359375 -7.554688 9.144531 -8.914062 8.71875 -9.9375 C 8.300781 -10.957031 7.664062 -11.46875 6.8125 -11.46875 C 5.957031 -11.46875 5.3125 -10.957031 4.875 -9.9375 C 4.445312 -8.914062 4.234375 -7.554688 4.234375 -5.859375 C 4.234375 -4.148438 4.445312 -2.785156 4.875 -1.765625 C 5.3125 -0.742188 5.957031 -0.234375 6.8125 -0.234375 Z M 6.8125 -0.234375 "/></g></g></g><g fill="#ffffff" fill-opacity="1"><g transform="translate(557.931429, 167.68624)"><g><path d="M 6.8125 0.296875 C 5.65625 0.296875 4.625 0.0351562 3.71875 -0.484375 C 2.8125 -1.015625 2.101562 -1.742188 1.59375 -2.671875 C 1.09375 -3.609375 0.84375 -4.671875 0.84375 -5.859375 C 0.84375 -7.035156 1.09375 -8.085938 1.59375 -9.015625 C 2.101562 -9.953125 2.8125 -10.679688 3.71875 -11.203125 C 4.625 -11.734375 5.65625 -12 6.8125 -12 C 7.945312 -12 8.96875 -11.734375 9.875 -11.203125 C 10.78125 -10.679688 11.484375 -9.953125 11.984375 -9.015625 C 12.492188 -8.085938 12.75 -7.035156 12.75 -5.859375 C 12.75 -4.671875 12.492188 -3.609375 11.984375 -2.671875 C 11.484375 -1.742188 10.78125 -1.015625 9.875 -0.484375 C 8.96875 0.0351562 7.945312 0.296875 6.8125 0.296875 Z M 6.8125 -0.234375 C 7.664062 -0.234375 8.300781 -0.742188 8.71875 -1.765625 C 9.144531 -2.785156 9.359375 -4.148438 9.359375 -5.859375 C 9.359375 -7.554688 9.144531 -8.914062 8.71875 -9.9375 C 8.300781 -10.957031 7.664062 -11.46875 6.8125 -11.46875 C 5.957031 -11.46875 5.3125 -10.957031 4.875 -9.9375 C 4.445312 -8.914062 4.234375 -7.554688 4.234375 -5.859375 C 4.234375 -4.148438 4.445312 -2.785156 4.875 -1.765625 C 5.3125 -0.742188 5.957031 -0.234375 6.8125 -0.234375 Z M 6.8125 -0.234375 "/></g></g></g><g fill="#ffffff" fill-opacity="1"><g transform="translate(571.054204, 167.68624)"><g><path d="M 1.359375 -0.109375 C 1.554688 -0.410156 1.710938 -0.789062 1.828125 -1.25 C 1.953125 -1.707031 2.015625 -2.210938 2.015625 -2.765625 L 2.015625 -13.4375 C 2.015625 -14.070312 1.941406 -14.59375 1.796875 -15 C 1.660156 -15.40625 1.453125 -15.742188 1.171875 -16.015625 L 1.171875 -16.125 L 5.0625 -17.4375 L 5.171875 -17.4375 L 5.171875 -2.765625 C 5.171875 -2.210938 5.226562 -1.707031 5.34375 -1.25 C 5.46875 -0.789062 5.628906 -0.410156 5.828125 -0.109375 L 5.828125 0 L 1.359375 0 Z M 11.71875 0.1875 C 10.988281 0.1875 10.382812 0.0546875 9.90625 -0.203125 C 9.4375 -0.472656 8.984375 -0.910156 8.546875 -1.515625 L 5.640625 -5.484375 L 5.640625 -5.59375 L 8.515625 -8.890625 C 9.128906 -9.597656 9.4375 -10.203125 9.4375 -10.703125 C 9.4375 -11.054688 9.300781 -11.351562 9.03125 -11.59375 L 9.03125 -11.703125 L 12.609375 -11.703125 L 12.609375 -11.59375 C 11.960938 -11.28125 11.398438 -10.941406 10.921875 -10.578125 C 10.441406 -10.222656 9.929688 -9.75 9.390625 -9.15625 L 7.984375 -7.625 L 12.421875 -1.640625 C 12.953125 -0.921875 13.351562 -0.515625 13.625 -0.421875 L 13.625 -0.25 C 13.375 -0.125 13.078125 -0.0195312 12.734375 0.0625 C 12.390625 0.144531 12.050781 0.1875 11.71875 0.1875 Z M 11.71875 0.1875 "/></g></g></g><g clip-path="url(#e39e39adff)"><path fill="#ffffff" d="M 369.367188 462.21875 C 397.117188 455.546875 403.128906 444.933594 417.171875 420.128906 C 418.253906 418.222656 419.378906 416.234375 420.566406 414.15625 L 420.535156 414.589844 C 417.945312 407.921875 409.855469 402.753906 399.125 399.539062 L 399.671875 399.359375 C 394.9375 405.59375 385.316406 418.957031 385.308594 418.96875 L 384.898438 418.667969 L 385.394531 418.5625 C 387.035156 426.171875 384.601562 437.707031 384.605469 437.6875 C 384.554688 437.9375 384.320312 438.109375 384.066406 438.085938 C 383.8125 438.0625 383.613281 437.855469 383.605469 437.597656 L 383.382812 430.207031 L 383.386719 430.265625 C 381.644531 418.9375 381.800781 406.8125 381.949219 395.511719 C 382.078125 385.558594 382.199219 376.261719 381.027344 368.640625 C 379.546875 359.039062 376.054688 352.296875 368.140625 350.164062 C 365.976562 349.582031 356.351562 347.730469 344.871094 347.886719 C 330.988281 348.078125 326.3125 338.800781 326.277344 338.722656 C 326.179688 338.535156 326.214844 338.304688 326.359375 338.148438 C 333.378906 330.753906 331.304688 320.707031 330.328125 316.039062 C 330.152344 315.199219 330.003906 314.488281 329.96875 314.03125 C 329.84375 312.335938 328.957031 309.847656 327.808594 306.660156 C 326.007812 301.652344 323.648438 295.09375 323.113281 287.832031 C 322.472656 279.160156 324.4375 269.488281 332.992188 260.21875 C 338.101562 254.679688 351.164062 246.453125 362.960938 248.074219 C 374.660156 249.683594 387.6875 259.390625 390.238281 267.257812 C 391.503906 271.160156 390.871094 273.125 388.589844 273.867188 C 387.261719 274.296875 385.433594 274.28125 383.480469 274.269531 C 380.796875 274.25 377.742188 274.234375 374.835938 275.183594 C 372.714844 275.871094 370.671875 277.074219 368.925781 279.171875 C 366.179688 282.46875 365.125 286.972656 363.96875 291.964844 C 362.644531 297.667969 361.195312 303.945312 356.757812 309.277344 C 355.242188 311.097656 353.378906 312.804688 351.058594 314.34375 C 349.640625 315.289062 346.628906 314.496094 343.882812 313.816406 C 341.621094 313.257812 339.328125 312.695312 337.539062 312.730469 C 333.597656 312.808594 333.28125 313.320312 333.328125 315.722656 C 333.332031 315.882812 333.335938 316.035156 333.34375 316.210938 C 333.390625 317.242188 333.410156 318.320312 333.433594 319.441406 C 333.457031 320.644531 333.484375 321.886719 333.539062 323.148438 C 334.007812 334.011719 336.574219 346.304688 359.703125 345.304688 C 361.699219 345.21875 363.851562 345.03125 366.167969 344.738281 C 365.875 344.773438 365.847656 345.050781 365.847656 345.023438 L 366.351562 345.0625 L 365.847656 345.023438 C 365.847656 345.019531 365.851562 344.996094 365.84375 344.949219 C 365.78125 344.464844 365.339844 343.339844 364.679688 341.675781 C 363.382812 338.414062 361.394531 333.410156 360.789062 328.667969 C 360.460938 326.0625 360.539062 323.480469 361.425781 321.289062 C 361.503906 321.09375 361.695312 320.96875 361.90625 320.972656 L 361.902344 320.972656 L 361.90625 320.972656 C 362.871094 321.003906 367.675781 323.25 371.085938 324.878906 C 374.023438 326.28125 378.101562 326.050781 380.007812 325.9375 C 380.226562 325.925781 380.457031 325.914062 380.605469 325.90625 C 381.8125 325.859375 382.199219 324.339844 382.6875 321.765625 C 382.976562 320.265625 383.292969 318.5625 384.039062 317.300781 C 384.441406 316.621094 384.984375 316.429688 385.425781 316.269531 C 385.910156 316.09375 386.390625 315.925781 386.921875 315.097656 C 386.984375 314.996094 386.941406 314.789062 386.621094 314.171875 C 386.472656 313.882812 386.183594 313.375 386.242188 312.914062 L 386.742188 312.972656 L 386.242188 312.914062 C 386.257812 312.78125 386.300781 312.644531 386.378906 312.515625 L 386.382812 312.515625 C 386.550781 312.25 386.832031 312.105469 387.132812 312.027344 C 388.179688 311.746094 388.035156 311.535156 388.003906 311.414062 C 387.964844 311.265625 387.867188 311.058594 387.695312 310.773438 C 387.636719 310.679688 387.558594 310.585938 387.453125 310.460938 C 387.363281 310.355469 387.246094 310.21875 387.152344 310.066406 C 386.695312 309.316406 387.085938 308.65625 388.128906 308.015625 C 388.441406 307.824219 388.824219 307.621094 389.304688 307.398438 C 391.480469 306.378906 390.941406 304.253906 389.710938 300.117188 C 389.511719 299.4375 389.296875 298.714844 389.085938 297.957031 C 388.707031 296.59375 388.421875 293.773438 388.421875 293.789062 C 388.410156 293.691406 388.429688 293.589844 388.480469 293.5 C 392.644531 285.710938 389.386719 275.144531 389.378906 275.125 L 389.375 275.109375 C 389.375 275.113281 389.378906 275.113281 389.378906 275.113281 C 389.222656 274.808594 387.367188 274.496094 383.785156 275.488281 C 377.539062 277.21875 367.894531 282.449219 361.816406 293.261719 C 360.933594 294.835938 359.757812 294.328125 358.898438 293.96875 C 357.8125 293.511719 356.605469 292.882812 354.859375 295.894531 C 353.183594 298.789062 355.09375 304.125 356.207031 305.527344 C 357.734375 307.457031 357.21875 312.429688 357.042969 314.253906 C 357.019531 314.496094 357.003906 314.691406 356.992188 314.828125 C 356.703125 318.617188 356.042969 323.511719 355.335938 328.769531 C 354.503906 334.945312 353.601562 341.632812 353.140625 347.695312 C 352.703125 353.414062 352.664062 358.519531 353.414062 362.09375 C 358.804688 387.738281 389.488281 394.28125 396.257812 392.898438 C 403.132812 391.496094 426.949219 382.335938 426.996094 382.320312 L 427.171875 382.792969 L 426.683594 382.664062 L 438.148438 339.0625 L 438.144531 339.078125 C 438.144531 339.070312 438.15625 339.023438 438.160156 339.003906 C 438.171875 338.953125 438.183594 338.90625 438.199219 338.835938 C 438.480469 337.636719 439.882812 332.355469 445.230469 333.023438 C 459.003906 334.738281 485.066406 342.898438 495.316406 346.105469 C 496.1875 346.378906 496.78125 346.5625 497.4375 346.769531 C 497.699219 346.851562 497.847656 347.125 497.777344 347.386719 C 496.988281 350.242188 496.277344 353.035156 495.558594 355.835938 C 494.832031 358.675781 494.101562 361.527344 493.28125 364.503906 C 491.648438 370.433594 489.667969 376.820312 486.6875 384.425781 C 484.910156 388.960938 483.625 392.414062 482.628906 395.089844 C 482.011719 396.75 481.5 398.121094 481.0625 399.230469 C 480.761719 400 480.492188 400.664062 480.238281 401.222656 C 480.125 401.472656 479.835938 401.589844 479.582031 401.484375 L 431.273438 381.230469 L 431.203125 381.195312 C 431.042969 381.097656 430.957031 380.953125 430.90625 380.839844 L 430.910156 380.839844 C 429.730469 378.140625 439.136719 345.574219 442.558594 335.566406 C 442.625 335.371094 442.804688 335.234375 443.007812 335.226562 C 447.117188 335.007812 454.660156 337.214844 462.390625 339.472656 C 465.46875 340.371094 468.605469 341.285156 471.589844 342.070312 C 473.054688 342.457031 474.734375 342.855469 476.539062 343.28125 C 478.539062 343.753906 480.71875 344.273438 482.78125 344.8125 C 488.71875 346.378906 495.152344 348.460938 494.6875 351.640625 C 493.417969 360.296875 488.089844 374.359375 483.65625 386.066406 C 480.4375 394.566406 477.710938 401.773438 477.25 404.921875 C 477.195312 405.285156 477.175781 405.574219 477.1875 405.792969 C 477.195312 406.003906 477.074219 406.195312 476.882812 406.28125 C 464.003906 411.90625 434.890625 418.914062 432.171875 418.335938 C 429.585938 417.789062 422.386719 413.957031 421.101562 410.796875 C 421.015625 410.589844 421.078125 410.351562 421.253906 410.210938 C 424.804688 407.367188 427.484375 404.292969 430.027344 401.371094 C 431.679688 399.476562 433.277344 397.640625 435.011719 395.996094 C 435.96875 395.089844 436.242188 393.734375 435.800781 393.265625 C 435.648438 393.105469 435.335938 392.945312 434.699219 392.96875 C 433.164062 393.027344 432.546875 393.484375 430.710938 394.878906 C 429.707031 395.644531 428.347656 396.679688 426.3125 398.015625 C 426.148438 398.125 425.9375 398.128906 425.769531 398.023438 C 425.601562 397.921875 425.511719 397.730469 425.535156 397.535156 C 425.8125 395.148438 428.34375 392.949219 429.953125 391.523438 C 430.914062 390.675781 431.4375 390.183594 431.5 389.972656 L 431.984375 390.125 L 431.5 389.972656 C 431.5 389.972656 431.5 389.980469 431.496094 389.992188 C 431.496094 390.019531 431.496094 390.070312 431.523438 390.128906 C 431.441406 389.953125 431.371094 389.753906 431.3125 389.574219 C 431.238281 389.367188 431.175781 389.179688 431.09375 389 C 430.867188 388.519531 430.570312 388.078125 429.300781 388.582031 C 428.816406 388.777344 428.132812 389.265625 427.433594 389.769531 C 426.898438 390.15625 426.316406 390.578125 425.925781 390.734375 C 425.863281 390.757812 425.796875 390.78125 425.726562 390.796875 L 425.621094 390.300781 L 425.726562 390.796875 C 425.554688 390.835938 425.121094 390.855469 424.945312 390.421875 C 424.789062 390.023438 425.050781 389.449219 425.3125 388.929688 C 425.316406 388.917969 425.300781 389.058594 425.390625 389.117188 L 425.664062 388.691406 L 425.394531 389.117188 C 425.390625 389.117188 425.390625 389.117188 425.386719 389.117188 L 425.386719 389.113281 C 424.671875 388.757812 420.652344 389.625 419.15625 391.222656 C 419.03125 391.355469 418.847656 391.410156 418.675781 391.367188 C 418.5 391.328125 418.359375 391.195312 418.304688 391.023438 C 417.597656 388.726562 415.839844 388.128906 414.707031 388.476562 C 414.671875 388.488281 414.628906 388.503906 414.589844 388.515625 L 414.59375 388.515625 C 406.824219 391.457031 404.117188 394.976562 401.929688 398.4375 L 401.765625 397.734375 L 420.996094 409.578125 L 420.652344 409.511719 C 433.054688 407.523438 436.007812 402.5625 435.023438 396.398438 C 434.40625 392.550781 432.246094 388.148438 429.53125 383.515625 C 429.421875 383.332031 429.441406 383.097656 429.582031 382.933594 C 429.71875 382.769531 429.945312 382.710938 430.144531 382.785156 C 434.039062 384.25 444.699219 388.421875 453.164062 391.992188 L 453.15625 391.992188 L 453.160156 391.992188 L 453.164062 391.996094 C 459.683594 394.746094 479.976562 403.980469 479.96875 403.976562 L 479.304688 404.222656 C 480.421875 401.871094 481.523438 399.804688 481.523438 399.804688 L 481.5 399.851562 C 482.257812 397.964844 483.929688 398.65625 485.671875 399.277344 C 486.433594 399.546875 487.332031 399.867188 488.378906 400.148438 C 495.550781 402.078125 504.632812 404.511719 515.882812 406.292969 L 515.496094 406.390625 L 535.835938 390.792969 L 536.011719 391.683594 L 536.007812 391.679688 L 535.996094 391.675781 C 535.457031 391.519531 534.820312 391.335938 534.007812 391.101562 C 532.917969 390.785156 531.238281 390.296875 529.582031 389.8125 C 521.777344 387.519531 508.59375 383.542969 492.039062 377.890625 C 491.777344 377.800781 491.636719 377.515625 491.722656 377.253906 C 500.417969 351.117188 499.460938 347.378906 499.378906 347.167969 C 499.378906 347.167969 499.386719 347.191406 499.414062 347.230469 C 499.339844 347.121094 499.3125 346.988281 499.335938 346.855469 C 499.324219 346.925781 499.34375 346.96875 499.339844 346.964844 C 498.496094 345.082031 477.769531 338.410156 477.53125 338.332031 C 477.394531 338.289062 477.285156 338.191406 477.222656 338.0625 C 477.164062 337.933594 477.164062 337.785156 477.21875 337.65625 C 477.234375 337.617188 477.25 337.582031 477.269531 337.554688 C 478.324219 335.757812 500.625 319.242188 512.851562 314.042969 C 516.992188 312.28125 526.433594 312.476562 526.394531 312.472656 L 526.382812 312.980469 L 526.875 313.105469 C 523.089844 328.121094 524.980469 342.285156 528.433594 351.117188 L 527.511719 351.070312 C 531.71875 342.992188 531.285156 340.019531 531.304688 340.160156 L 531.804688 340.097656 L 531.304688 340.160156 C 530.699219 335.394531 533.21875 334.15625 535.269531 333.171875 C 536.605469 332.527344 537.496094 332.0625 537.691406 330.988281 C 539.144531 322.925781 537.503906 316.546875 536.097656 311.089844 C 535.082031 307.152344 534.15625 303.597656 534.746094 300.3125 C 534.777344 300.15625 534.808594 300 534.84375 299.847656 C 534.96875 299.28125 534.621094 298.8125 533.785156 297.839844 C 532.359375 296.175781 530.269531 293.722656 531.054688 288.238281 C 531.304688 286.5 532.484375 286.390625 533.820312 286.582031 C 534.144531 286.628906 534.5 286.695312 534.875 286.765625 C 535.332031 286.847656 535.832031 286.941406 536.375 287.019531 C 536.453125 287.027344 536.542969 287.042969 536.621094 287.050781 L 536.058594 287.472656 C 536.769531 282.96875 539.09375 274.421875 544.769531 271.683594 C 546.722656 270.746094 548.667969 270.386719 550.449219 270.058594 C 552.070312 269.757812 553.53125 269.484375 554.832031 268.855469 C 556.21875 268.1875 557.449219 267.105469 558.433594 265.09375 C 558.492188 264.972656 558.566406 264.828125 558.652344 264.664062 C 558.773438 264.433594 558.933594 264.125 559.085938 263.8125 C 560.15625 261.625 561.007812 259.050781 559.414062 258.265625 C 557.652344 257.398438 552.78125 258.175781 541.226562 264.105469 C 522.464844 273.730469 526.222656 302.632812 527.332031 305.609375 C 529.296875 310.875 530.605469 313.371094 532.90625 312.511719 C 533.757812 312.191406 534.8125 311.414062 536.132812 310 C 536.242188 309.882812 536.398438 309.828125 536.558594 309.84375 C 536.71875 309.863281 536.859375 309.957031 536.9375 310.097656 C 538.121094 312.171875 540.058594 315.535156 544.488281 319.835938 C 546.230469 321.527344 550.75 322.675781 555.082031 321.140625 C 559.109375 319.710938 562.6875 317.386719 565.84375 313.777344 C 566.570312 312.945312 567.34375 310.945312 568.085938 308.996094 C 568.652344 307.511719 569.226562 305.984375 569.738281 305.402344 C 569.804688 305.328125 569.878906 305.253906 569.96875 305.191406 L 569.964844 305.191406 C 570.027344 305.148438 570.097656 305.109375 570.175781 305.082031 L 570.179688 305.082031 C 573.058594 304.066406 573.109375 303.648438 573.734375 301.164062 C 573.925781 300.417969 574.15625 299.496094 574.515625 298.339844 C 575.164062 296.25 574.667969 296.105469 574.527344 296.0625 C 574.296875 295.988281 573.964844 296.003906 573.503906 296.035156 C 573.109375 296.0625 572.574219 296.105469 572.132812 295.96875 C 571.703125 295.835938 571.351562 295.53125 571.214844 294.996094 C 570.773438 293.277344 571.222656 290.023438 571.628906 287.027344 C 571.886719 285.113281 572.136719 283.257812 572.183594 281.816406 C 572.367188 276.285156 568.53125 273.4375 565.355469 271.105469 C 563.484375 269.730469 561.527344 268.359375 561.585938 266.5625 C 561.589844 266.421875 561.605469 266.277344 561.636719 266.136719 C 562.242188 263.183594 565.066406 259.089844 569.054688 259.910156 C 570.597656 260.230469 572.210938 261.285156 573.839844 263.300781 C 585.644531 277.914062 580.152344 295.316406 576.71875 306.257812 C 575.507812 310.125 574.582031 313.09375 574.640625 314.941406 C 574.683594 316.238281 573.109375 318.164062 571.289062 320.453125 C 568.335938 324.164062 564.15625 329.421875 561.875 336.296875 C 559.5625 343.265625 559.777344 364.632812 559.917969 365.585938 L 559.417969 365.660156 L 559.917969 365.582031 C 559.957031 365.851562 559.964844 365.34375 559.589844 365.214844 L 559.597656 365.21875 C 559.019531 365.011719 558.875 365.765625 558.953125 365.53125 C 558.941406 365.570312 558.9375 365.597656 558.9375 365.59375 C 561.964844 344.621094 564.984375 337.488281 565.007812 337.4375 L 565.011719 337.425781 C 568.90625 328.890625 574.878906 320.960938 576.25 320.367188 L 576.253906 320.367188 C 576.339844 320.328125 576.519531 320.265625 576.722656 320.324219 C 583.917969 322.371094 589.117188 331.027344 590.972656 348.175781 C 591.402344 352.144531 589.957031 358.667969 588.339844 366.015625 C 587.570312 369.519531 586.753906 373.230469 586.058594 376.996094 C 586.023438 377.1875 585.878906 377.34375 585.691406 377.390625 C 584.175781 377.796875 578.734375 377.160156 573.210938 376.523438 C 566.78125 375.785156 560.167969 375.035156 558.265625 375.539062 C 558.070312 375.589844 558 375.640625 557.992188 375.648438 L 557.988281 375.648438 C 557.992188 375.648438 557.988281 375.652344 557.992188 375.648438 C 554.574219 379.320312 550.949219 432.820312 554.234375 435.96875 C 557.671875 439.265625 633.121094 465.890625 636.582031 465.164062 C 636.582031 465.160156 636.574219 465.164062 636.558594 465.171875 C 638.546875 464.378906 657.550781 455.773438 661.824219 450.082031 C 661.761719 450.167969 661.789062 450.3125 661.832031 450.359375 L 662.210938 450.027344 L 661.828125 450.359375 C 661.828125 450.359375 661.820312 450.351562 661.796875 450.332031 L 661.800781 450.332031 C 661.214844 449.894531 658.8125 449.441406 655.652344 448.867188 C 653.332031 448.441406 650.71875 447.96875 648.460938 447.378906 C 647.523438 447.132812 646.691406 446.898438 645.828125 446.65625 C 645.058594 446.441406 644.324219 446.234375 643.640625 446.054688 C 640.1875 445.148438 638.636719 445.152344 638.328125 446.332031 C 638.285156 446.492188 638.261719 446.679688 638.257812 446.90625 L 638.25 446.992188 L 636.078125 458.707031 C 636.027344 458.976562 635.773438 459.15625 635.5 459.113281 C 635.230469 459.066406 635.042969 458.8125 635.082031 458.542969 C 640.695312 418.828125 642.371094 401.417969 642.371094 401.421875 L 642.871094 401.472656 L 642.371094 401.421875 C 642.984375 395.015625 571.847656 378.144531 562.628906 377.074219 L 562.773438 376.070312 C 570.316406 377.355469 576.96875 378.554688 582.59375 379.574219 C 586.753906 380.324219 590.382812 380.980469 593.417969 381.5 C 600.375 382.679688 603.925781 383.039062 604.453125 382.617188 C 604.449219 382.617188 604.414062 382.652344 604.402344 382.714844 C 604.398438 382.746094 604.402344 382.761719 604.402344 382.761719 C 604.402344 382.757812 604.390625 382.722656 604.339844 382.648438 C 604.289062 382.574219 604.261719 382.488281 604.253906 382.398438 C 603.417969 370.679688 606.890625 360.28125 610.933594 355.574219 C 611.296875 355.152344 611.621094 354.769531 611.949219 354.386719 C 612.316406 353.957031 612.449219 353.804688 612.792969 353.402344 C 616.765625 348.773438 618.371094 347.171875 622.574219 347.261719 L 622.0625 347.796875 C 621.695312 341.566406 619.769531 338.320312 617.203125 337.382812 C 615.378906 336.714844 616.1875 333.738281 616.96875 331.59375 C 618.140625 328.378906 620.101562 324.902344 620.101562 324.898438 L 620.542969 325.148438 L 620.066406 325.316406 C 617.429688 317.898438 617.953125 312.609375 619.570312 309.042969 C 620.492188 307.007812 622.554688 305.785156 624.957031 304.597656 C 631.238281 301.492188 636.5625 300.507812 643.351562 305.472656 C 646.632812 307.875 647.070312 311.238281 647.558594 314.789062 C 647.851562 316.925781 648.160156 319.167969 649.046875 321.460938 C 650.480469 325.164062 656.003906 329.660156 656.058594 329.707031 L 655.75 329.59375 L 655.695312 329.59375 C 656.683594 329.511719 657.777344 328.632812 659.148438 327.496094 C 660.621094 326.277344 662.375 324.800781 664.34375 324.632812 C 665.65625 324.519531 666.996094 324.988281 668.363281 326.285156 C 668.386719 326.308594 668.410156 326.335938 668.429688 326.355469 L 668.429688 326.359375 C 669.183594 327.25 670.191406 332.425781 667.058594 336.273438 C 660.246094 344.636719 655.121094 348.164062 647.5625 353.371094 C 646.769531 353.917969 645.835938 354.5625 644.980469 355.15625 C 643.234375 356.367188 636.941406 358.925781 631.628906 359.953125 C 629.179688 360.429688 625.351562 358.703125 624.929688 356.507812 C 624.910156 356.417969 624.898438 356.324219 624.894531 356.230469 C 624.523438 349.617188 623.40625 346.640625 617.992188 338.664062 C 613.988281 332.765625 613.699219 305.269531 624.496094 291.429688 C 631.570312 282.359375 653.417969 270.777344 671.769531 285.144531 C 671.910156 285.257812 672.046875 285.363281 672.1875 285.476562 C 680.503906 292.1875 685.082031 305.988281 685.074219 311.304688 C 685.054688 319.566406 681.984375 327.273438 671.101562 341.074219 L 671.175781 340.949219 C 670.210938 343.351562 669.640625 347.140625 668.71875 353.300781 C 667.882812 358.890625 666.761719 366.378906 664.789062 376.40625 C 664.761719 376.550781 664.671875 376.671875 664.550781 376.746094 C 656.566406 381.453125 649.089844 373.367188 643.054688 363.089844 C 642.691406 362.46875 642.335938 361.847656 641.980469 361.207031 L 642.285156 361.449219 C 641.503906 361.226562 638.785156 363.433594 637.648438 367.453125 C 636.960938 369.894531 636.96875 372.777344 638.515625 375.601562 C 641.578125 381.195312 655.503906 386.570312 665.632812 381.003906 C 666.628906 380.457031 667.585938 379.808594 668.492188 379.039062 C 673.738281 374.597656 674.074219 366.132812 674.316406 359.199219 C 674.46875 354.933594 674.5625 350.953125 676.246094 349.527344 C 677.011719 348.878906 678.011719 348.789062 679.207031 349.195312 C 691.492188 353.339844 701.160156 360.847656 708.617188 366.628906 C 709.089844 367 709.703125 367.472656 710.15625 367.824219 C 710.753906 368.285156 711.246094 368.730469 711.339844 369.234375 C 711.375 369.417969 711.355469 369.597656 711.292969 369.765625 L 711.292969 369.761719 C 711.25 369.871094 711.191406 369.964844 711.128906 370.046875 C 710.863281 370.394531 710.339844 370.699219 709.8125 371.023438 C 708.535156 371.800781 706.488281 373.050781 704.308594 375.882812 C 703.515625 376.914062 702.703125 378.160156 701.902344 379.667969 C 701.5625 380.3125 701.277344 380.84375 700.949219 381.460938 C 700.644531 382.039062 700.363281 382.5625 700.070312 383.121094 C 695.515625 391.730469 692.242188 398.664062 689.042969 418.035156 L 688.054688 417.828125 C 696.105469 386.523438 714.714844 372.535156 714.769531 372.496094 C 714.933594 372.371094 715.15625 372.359375 715.332031 372.46875 C 727.464844 379.839844 731.40625 389.863281 731.425781 389.917969 C 731.527344 390.175781 731.398438 390.46875 731.140625 390.574219 C 730.878906 390.675781 730.585938 390.546875 730.484375 390.285156 C 730.503906 390.339844 726.675781 380.542969 714.808594 373.332031 L 715.375 373.304688 C 715.425781 373.265625 697.007812 387.078125 689.035156 418.078125 C 688.96875 418.34375 688.707031 418.503906 688.441406 418.449219 C 688.175781 418.394531 688.003906 418.136719 688.046875 417.871094 C 691.261719 398.382812 694.574219 391.347656 699.175781 382.648438 C 699.472656 382.085938 699.75 381.5625 700.058594 380.984375 C 700.417969 380.3125 700.640625 379.894531 701.007812 379.195312 C 701.835938 377.636719 702.679688 376.34375 703.507812 375.265625 C 705.800781 372.285156 707.972656 370.960938 709.285156 370.160156 C 709.902344 369.78125 710.207031 369.585938 710.328125 369.429688 C 710.34375 369.40625 710.351562 369.394531 710.351562 369.394531 C 710.347656 369.402344 710.347656 369.414062 710.347656 369.421875 C 710.335938 369.359375 710.207031 369.140625 709.539062 368.625 C 709.03125 368.234375 708.527344 367.839844 707.996094 367.429688 C 700.53125 361.636719 690.988281 354.238281 678.886719 350.152344 C 677.894531 349.820312 677.304688 349.957031 676.898438 350.296875 C 675.652344 351.351562 675.488281 354.652344 675.328125 359.234375 C 675.085938 366.011719 674.800781 375.023438 669.144531 379.8125 C 668.1875 380.625 667.171875 381.3125 666.121094 381.890625 C 655.546875 387.699219 640.988281 382.21875 637.628906 376.085938 C 635.933594 372.988281 635.929688 369.824219 636.675781 367.179688 C 637.765625 363.324219 640.742188 359.960938 642.558594 360.476562 C 642.6875 360.511719 642.796875 360.597656 642.863281 360.714844 C 643.214844 361.34375 643.566406 361.964844 643.925781 362.578125 C 650.117188 373.117188 657.03125 380 664.035156 375.875 L 663.796875 376.210938 C 665.765625 366.207031 666.882812 358.738281 667.71875 353.152344 C 668.628906 347.054688 669.214844 343.113281 670.238281 340.570312 L 670.308594 340.445312 C 681.144531 326.707031 684.046875 319.222656 684.0625 311.304688 C 684.074219 306.246094 679.597656 292.757812 671.554688 286.265625 C 671.417969 286.15625 671.285156 286.050781 671.148438 285.941406 C 653.417969 272.0625 632.183594 283.214844 625.292969 292.050781 C 614.710938 305.613281 615.117188 332.628906 618.828125 338.09375 C 624.304688 346.164062 625.515625 349.316406 625.902344 356.171875 C 625.90625 356.21875 625.910156 356.265625 625.917969 356.316406 C 626.191406 357.726562 629.265625 359.378906 631.4375 358.960938 C 636.671875 357.945312 642.816406 355.425781 644.402344 354.324219 C 645.265625 353.726562 646.195312 353.085938 646.988281 352.539062 C 654.53125 347.34375 659.558594 343.878906 666.277344 335.632812 C 669.136719 332.121094 668.058594 327.488281 667.660156 327.011719 C 667.660156 327.011719 667.660156 327.011719 667.664062 327.019531 L 667.667969 327.019531 C 666.46875 325.878906 665.402344 325.558594 664.429688 325.640625 C 662.839844 325.777344 661.34375 326.992188 659.792969 328.277344 C 658.527344 329.324219 657.15625 330.488281 655.78125 330.601562 L 655.730469 330.605469 L 655.421875 330.492188 C 655.433594 330.5 649.65625 325.832031 648.105469 321.828125 C 647.167969 319.40625 646.847656 317.054688 646.554688 314.925781 C 646.0625 311.316406 645.644531 308.40625 642.753906 306.292969 C 636.375 301.625 631.484375 302.496094 625.402344 305.503906 C 622.976562 306.703125 621.242188 307.796875 620.488281 309.460938 C 619.003906 312.734375 618.449219 317.746094 621.019531 324.976562 L 620.542969 325.148438 L 620.984375 325.394531 C 620.980469 325.398438 619.058594 328.8125 617.917969 331.941406 C 616.933594 334.640625 616.890625 336.191406 617.550781 336.433594 C 620.726562 337.59375 622.699219 341.429688 623.070312 347.738281 C 623.078125 347.878906 623.027344 348.015625 622.929688 348.117188 C 622.832031 348.21875 622.695312 348.277344 622.554688 348.273438 C 618.863281 348.195312 617.535156 349.429688 613.558594 354.0625 C 613.261719 354.410156 613.039062 354.667969 612.714844 355.046875 C 612.34375 355.480469 612.105469 355.761719 611.699219 356.230469 C 607.878906 360.6875 604.4375 370.792969 605.261719 382.328125 L 605.175781 382.078125 C 605.265625 382.210938 605.347656 382.363281 605.386719 382.53125 C 605.410156 382.640625 605.421875 382.761719 605.398438 382.882812 C 605.363281 383.109375 605.238281 383.28125 605.085938 383.40625 C 604.09375 384.203125 599.792969 383.609375 593.25 382.496094 C 590.191406 381.976562 586.589844 381.324219 582.414062 380.570312 C 576.804688 379.554688 570.125 378.347656 562.605469 377.070312 C 562.332031 377.023438 562.148438 376.769531 562.1875 376.5 C 562.226562 376.226562 562.472656 376.035156 562.746094 376.066406 C 571.054688 377.035156 644.113281 393.828125 643.375 401.519531 L 642.871094 401.472656 L 643.375 401.519531 C 643.375 401.53125 641.699219 418.957031 636.082031 458.683594 L 635.085938 458.519531 L 637.253906 446.808594 L 637.246094 446.890625 C 637.25 446.597656 637.285156 446.328125 637.351562 446.078125 C 637.96875 443.707031 640.984375 444.3125 643.894531 445.074219 C 644.605469 445.261719 645.320312 445.460938 646.101562 445.679688 C 646.949219 445.917969 647.804688 446.160156 648.714844 446.398438 C 650.933594 446.976562 653.5 447.445312 655.835938 447.871094 C 658.789062 448.40625 661.574219 448.898438 662.40625 449.527344 C 662.472656 449.574219 662.535156 449.628906 662.589844 449.695312 L 662.210938 450.027344 L 662.589844 449.695312 C 662.832031 449.972656 662.882812 450.359375 662.632812 450.691406 C 658.148438 456.660156 638.824219 465.355469 636.929688 466.109375 L 636.933594 466.109375 C 636.878906 466.128906 636.832031 466.144531 636.789062 466.152344 C 632.917969 466.96875 557.144531 440.160156 553.535156 436.699219 C 549.726562 433.054688 553.585938 378.898438 557.253906 374.957031 C 557.273438 374.9375 557.289062 374.917969 557.3125 374.898438 C 557.503906 374.726562 557.757812 374.628906 558.007812 374.5625 C 560.148438 373.992188 567.0625 374.796875 573.328125 375.519531 C 579.027344 376.175781 584.15625 376.753906 585.433594 376.414062 L 585.066406 376.8125 C 585.765625 373.023438 586.582031 369.304688 587.355469 365.796875 C 588.992188 358.355469 590.375 352.046875 589.96875 348.285156 C 588.113281 331.152344 582.972656 323.152344 576.445312 321.296875 C 576.582031 321.335938 576.671875 321.289062 576.652344 321.296875 C 575.699219 321.707031 569.863281 329.222656 565.929688 337.84375 L 565.9375 337.832031 C 565.957031 337.78125 562.957031 344.824219 559.9375 365.738281 L 559.9375 365.734375 C 559.933594 365.75 559.929688 365.796875 559.914062 365.847656 C 559.988281 365.617188 559.839844 366.378906 559.257812 366.171875 L 559.265625 366.171875 C 558.886719 366.042969 558.886719 365.511719 558.917969 365.734375 L 559.417969 365.660156 L 558.917969 365.734375 C 558.765625 364.707031 558.535156 343.160156 560.917969 335.976562 C 563.261719 328.914062 567.550781 323.527344 570.496094 319.824219 C 572.496094 317.3125 573.660156 315.789062 573.632812 314.976562 C 573.566406 312.910156 574.570312 309.726562 575.757812 305.953125 C 579.214844 294.929688 584.472656 278.074219 573.054688 263.9375 C 571.515625 262.03125 570.089844 261.160156 568.851562 260.902344 C 565.746094 260.261719 563.207031 263.523438 562.625 266.339844 C 562.605469 266.429688 562.597656 266.511719 562.59375 266.59375 C 562.558594 267.726562 563.84375 268.738281 565.953125 270.289062 C 569.082031 272.585938 573.394531 275.722656 573.195312 281.851562 C 573.144531 283.355469 572.886719 285.265625 572.628906 287.160156 C 572.207031 290.28125 571.8125 293.269531 572.191406 294.742188 C 572.234375 294.90625 572.304688 294.960938 572.433594 295.003906 C 572.65625 295.070312 572.976562 295.058594 573.433594 295.027344 C 573.835938 295 574.378906 294.953125 574.828125 295.09375 C 575.964844 295.449219 576.097656 296.65625 575.480469 298.640625 C 575.132812 299.765625 574.902344 300.667969 574.714844 301.414062 C 574.023438 304.152344 573.777344 304.886719 570.511719 306.035156 L 570.515625 306.035156 C 570.535156 306.027344 570.546875 306.019531 570.546875 306.019531 C 570.542969 306.023438 570.527344 306.035156 570.5 306.070312 L 570.496094 306.070312 C 570.140625 306.476562 569.644531 307.753906 569.03125 309.359375 C 568.324219 311.207031 567.480469 313.4375 566.601562 314.441406 C 563.328125 318.1875 559.605469 320.609375 555.421875 322.09375 C 550.808594 323.730469 545.863281 322.582031 543.785156 320.5625 C 539.261719 316.167969 537.265625 312.710938 536.0625 310.597656 L 536.867188 310.691406 C 535.515625 312.144531 534.332031 313.058594 533.261719 313.460938 C 529.792969 314.757812 528.136719 310.65625 526.386719 305.960938 C 525.257812 302.9375 521.230469 273.226562 540.765625 263.203125 C 552.148438 257.363281 557.550781 256.21875 559.859375 257.355469 C 562.546875 258.679688 560.835938 262.542969 559.996094 264.257812 C 559.832031 264.585938 559.671875 264.894531 559.550781 265.128906 C 559.460938 265.304688 559.394531 265.429688 559.339844 265.539062 C 558.257812 267.75 556.867188 269 555.269531 269.769531 C 553.824219 270.464844 552.226562 270.757812 550.632812 271.050781 C 548.839844 271.382812 547.023438 271.722656 545.207031 272.597656 C 540.058594 275.078125 537.777344 283.070312 537.054688 287.632812 C 537.011719 287.902344 536.761719 288.089844 536.492188 288.054688 C 536.414062 288.046875 536.308594 288.03125 536.230469 288.019531 C 535.671875 287.9375 535.144531 287.84375 534.695312 287.761719 C 534.308594 287.691406 533.980469 287.628906 533.675781 287.585938 C 532.453125 287.410156 532.171875 287.550781 532.054688 288.378906 C 531.328125 293.449219 533.210938 295.617188 534.550781 297.179688 C 535.265625 298.011719 536.089844 298.910156 535.828125 300.070312 C 535.796875 300.207031 535.765625 300.351562 535.742188 300.492188 C 535.195312 303.515625 536.042969 306.832031 537.074219 310.835938 C 538.480469 316.296875 540.179688 322.867188 538.683594 331.167969 C 538.382812 332.832031 536.929688 333.496094 535.703125 334.085938 C 533.769531 335.015625 531.785156 335.945312 532.304688 340.03125 L 531.804688 340.097656 L 532.304688 340.03125 C 532.324219 340.171875 532.667969 343.359375 528.410156 351.535156 C 528.316406 351.714844 528.132812 351.820312 527.933594 351.808594 C 527.738281 351.796875 527.5625 351.671875 527.492188 351.488281 C 523.964844 342.464844 522.058594 328.082031 525.894531 312.855469 L 526.382812 312.980469 L 526.375 313.484375 C 526.320312 313.484375 517.140625 313.316406 513.246094 314.972656 C 501.042969 320.164062 479.015625 336.574219 478.140625 338.066406 C 478.140625 338.066406 478.144531 338.0625 478.148438 338.046875 L 477.835938 337.371094 C 477.597656 337.292969 499.175781 344.121094 500.261719 346.550781 C 500.324219 346.683594 500.363281 346.851562 500.328125 347.035156 L 500.25 346.664062 C 500.277344 346.699219 500.300781 346.75 500.324219 346.808594 C 500.5625 347.4375 501.324219 351.597656 492.683594 377.574219 L 492.367188 376.933594 C 508.90625 382.578125 522.066406 386.550781 529.867188 388.839844 C 531.558594 389.335938 533.160156 389.800781 534.289062 390.128906 C 535.085938 390.359375 535.753906 390.550781 536.28125 390.707031 L 536.265625 390.703125 L 536.273438 390.703125 C 536.464844 390.761719 536.605469 390.914062 536.636719 391.101562 C 536.671875 391.289062 536.601562 391.480469 536.449219 391.59375 L 516.109375 407.195312 C 516 407.277344 515.859375 407.3125 515.722656 407.292969 C 504.417969 405.5 495.292969 403.054688 488.113281 401.125 C 487.027344 400.832031 486.09375 400.5 485.332031 400.230469 C 483.171875 399.460938 482.765625 399.414062 482.4375 400.230469 L 482.414062 400.277344 C 482.414062 400.277344 481.328125 402.324219 480.214844 404.65625 C 480.097656 404.90625 479.800781 405.011719 479.550781 404.898438 C 479.550781 404.898438 459.28125 395.671875 452.773438 392.925781 L 452.78125 392.929688 L 452.777344 392.929688 L 452.773438 392.925781 C 444.320312 389.359375 433.671875 385.191406 429.789062 383.734375 L 430.402344 383.003906 C 433.121094 387.640625 435.371094 392.1875 436.019531 396.238281 C 437.132812 403.199219 433.484375 408.476562 420.808594 410.511719 C 420.691406 410.53125 420.570312 410.503906 420.464844 410.441406 L 401.238281 398.597656 C 401.121094 398.527344 401.039062 398.414062 401.011719 398.28125 C 400.980469 398.148438 401.003906 398.011719 401.074219 397.894531 C 403.355469 394.292969 406.21875 390.601562 414.234375 387.570312 C 414.292969 387.546875 414.351562 387.527344 414.410156 387.507812 C 416.15625 386.96875 418.425781 387.980469 419.269531 390.726562 L 418.421875 390.53125 C 420.089844 388.746094 424.574219 387.574219 425.839844 388.210938 L 425.835938 388.210938 C 425.871094 388.226562 425.90625 388.246094 425.9375 388.265625 L 425.664062 388.691406 L 425.9375 388.265625 C 426.34375 388.527344 426.417969 388.976562 426.214844 389.382812 C 425.863281 390.085938 425.933594 390.167969 425.886719 390.046875 C 425.769531 389.757812 425.476562 389.816406 425.511719 389.808594 L 425.621094 390.300781 L 425.511719 389.808594 C 425.511719 389.808594 425.523438 389.804688 425.550781 389.796875 C 425.796875 389.695312 426.246094 389.378906 426.84375 388.949219 C 427.496094 388.476562 428.300781 387.890625 428.929688 387.640625 C 430.714844 386.929688 431.570312 387.625 432.007812 388.574219 C 432.117188 388.804688 432.199219 389.046875 432.265625 389.246094 C 432.332031 389.4375 432.382812 389.582031 432.4375 389.703125 L 432.441406 389.703125 C 432.503906 389.839844 432.515625 389.984375 432.5 390.109375 C 432.496094 390.167969 432.480469 390.222656 432.464844 390.273438 L 431.984375 390.125 L 432.464844 390.273438 C 432.292969 390.835938 431.417969 391.578125 430.621094 392.28125 C 428.886719 393.816406 426.757812 395.738281 426.535156 397.652344 L 425.757812 397.171875 C 427.761719 395.851562 429.101562 394.835938 430.101562 394.074219 C 431.925781 392.6875 432.769531 392.03125 434.660156 391.957031 C 435.46875 391.925781 436.113281 392.125 436.535156 392.570312 C 437.636719 393.738281 436.699219 395.789062 435.707031 396.730469 C 434.011719 398.339844 432.449219 400.132812 430.789062 402.035156 C 428.25 404.953125 425.515625 408.09375 421.882812 411 L 422.035156 410.414062 C 423.125 413.09375 429.886719 416.816406 432.378906 417.347656 C 434.738281 417.847656 463.550781 411 476.480469 405.351562 L 476.175781 405.835938 C 476.164062 405.53125 476.191406 405.171875 476.25 404.777344 C 476.734375 401.484375 479.523438 394.128906 482.710938 385.707031 C 487.164062 373.949219 492.4375 360.011719 493.6875 351.496094 C 493.984375 349.460938 489.140625 347.535156 482.523438 345.792969 C 480.472656 345.253906 478.3125 344.742188 476.304688 344.265625 C 474.511719 343.839844 472.804688 343.4375 471.335938 343.050781 C 468.324219 342.257812 465.191406 341.34375 462.105469 340.445312 C 454.273438 338.15625 446.953125 336.027344 443.0625 336.234375 L 443.515625 335.894531 C 439.976562 346.238281 430.863281 378.207031 431.835938 380.433594 C 431.835938 380.441406 431.816406 380.382812 431.734375 380.332031 L 431.664062 380.296875 L 479.972656 400.550781 L 479.316406 400.808594 C 479.558594 400.269531 479.824219 399.621094 480.125 398.863281 C 480.554688 397.761719 481.0625 396.398438 481.683594 394.734375 C 482.679688 392.058594 483.96875 388.601562 485.75 384.058594 C 488.714844 376.488281 490.683594 370.140625 492.308594 364.234375 C 493.125 361.265625 493.851562 358.429688 494.578125 355.585938 C 495.296875 352.78125 496.011719 349.988281 496.800781 347.117188 L 497.140625 347.734375 C 496.441406 347.515625 495.925781 347.355469 495.015625 347.070312 C 484.722656 343.851562 458.765625 335.726562 445.105469 334.027344 C 440.722656 333.480469 439.492188 337.738281 439.183594 339.066406 C 439.167969 339.128906 439.15625 339.179688 439.144531 339.226562 C 439.140625 339.246094 439.128906 339.296875 439.125 339.308594 L 439.125 339.320312 L 427.664062 382.921875 L 427.171875 382.792969 L 427.351562 383.265625 C 427.371094 383.257812 403.4375 392.464844 396.457031 393.890625 C 389.367188 395.339844 357.96875 388.6875 352.425781 362.300781 C 351.644531 358.574219 351.695312 353.34375 352.132812 347.621094 C 352.597656 341.523438 353.503906 334.800781 354.335938 328.632812 C 355.042969 323.367188 355.699219 318.503906 355.984375 314.753906 C 355.996094 314.597656 356.015625 314.398438 356.039062 314.15625 C 356.238281 312.085938 356.621094 307.679688 355.414062 306.15625 C 354.207031 304.628906 351.996094 298.824219 353.988281 295.386719 C 356.0625 291.808594 357.882812 292.445312 359.289062 293.035156 C 360.191406 293.414062 360.507812 293.53125 360.9375 292.765625 C 367.171875 281.675781 377.0625 276.300781 383.515625 274.511719 C 386.695312 273.632812 389.664062 273.453125 390.277344 274.652344 C 390.308594 274.710938 390.332031 274.777344 390.351562 274.839844 L 390.34375 274.828125 C 390.339844 274.804688 393.757812 285.773438 389.371094 293.976562 L 389.425781 293.6875 C 389.429688 293.703125 389.710938 296.425781 390.058594 297.683594 C 390.265625 298.4375 390.476562 299.140625 390.679688 299.828125 C 391.785156 303.542969 392.867188 306.847656 389.734375 308.3125 C 389.273438 308.53125 388.925781 308.714844 388.65625 308.878906 C 387.707031 309.460938 388.035156 309.570312 388.015625 309.539062 C 388.058594 309.613281 388.121094 309.6875 388.222656 309.808594 C 388.320312 309.921875 388.449219 310.074219 388.554688 310.246094 C 388.742188 310.554688 388.902344 310.859375 388.980469 311.15625 C 389.261719 312.210938 388.46875 312.71875 387.390625 313.003906 C 387.214844 313.050781 387.210938 313.097656 387.230469 313.0625 C 387.242188 313.050781 387.242188 313.035156 387.242188 313.035156 L 386.742188 312.972656 L 387.242188 313.035156 C 387.234375 313.109375 387.300781 313.285156 387.519531 313.707031 C 387.71875 314.089844 388.222656 314.941406 387.769531 315.644531 C 387.066406 316.746094 386.34375 317.015625 385.769531 317.222656 C 385.34375 317.378906 385.113281 317.46875 384.90625 317.816406 C 384.269531 318.894531 383.976562 320.402344 383.679688 321.957031 C 383.28125 324.0625 382.847656 326.832031 380.644531 326.917969 C 380.511719 326.921875 380.289062 326.9375 380.070312 326.949219 C 378.214844 327.058594 373.863281 327.328125 370.652344 325.792969 C 367.054688 324.074219 362.558594 322.003906 361.878906 321.984375 L 361.882812 321.984375 L 362.359375 321.667969 C 361.566406 323.632812 361.472656 326.015625 361.792969 328.539062 C 362.375 333.136719 364.3125 338.015625 365.617188 341.300781 C 366.242188 342.875 366.761719 344.171875 366.847656 344.820312 C 366.855469 344.910156 366.863281 345.007812 366.855469 345.101562 L 366.351562 345.0625 L 366.855469 345.101562 C 366.839844 345.289062 366.738281 345.683594 366.296875 345.742188 C 363.949219 346.039062 361.777344 346.226562 359.746094 346.316406 C 335.824219 347.351562 333.011719 334.34375 332.527344 323.195312 C 332.472656 321.917969 332.449219 320.664062 332.425781 319.460938 C 332.402344 318.339844 332.378906 317.273438 332.335938 316.257812 C 332.328125 316.074219 332.324219 315.910156 332.320312 315.742188 C 332.257812 312.507812 333.335938 311.800781 337.519531 311.71875 C 339.472656 311.679688 341.90625 312.285156 344.125 312.835938 C 347.171875 313.589844 349.554688 314.128906 350.5 313.5 C 352.738281 312.015625 354.527344 310.375 355.980469 308.628906 C 360.242188 303.507812 361.652344 297.46875 362.984375 291.734375 C 364.128906 286.804688 365.222656 282.042969 368.152344 278.523438 C 370.035156 276.257812 372.246094 274.960938 374.523438 274.21875 C 377.609375 273.214844 380.824219 273.238281 383.488281 273.257812 C 385.507812 273.269531 387.144531 273.273438 388.277344 272.902344 C 389.695312 272.441406 390.5 271.351562 389.277344 267.570312 C 386.882812 260.179688 374.265625 250.648438 362.824219 249.078125 C 351.484375 247.519531 338.730469 255.492188 333.734375 260.90625 C 325.394531 269.941406 323.496094 279.324219 324.121094 287.757812 C 324.644531 294.859375 326.957031 301.296875 328.761719 306.316406 C 329.882812 309.4375 330.839844 312.085938 330.976562 313.957031 C 331.003906 314.332031 331.132812 314.953125 331.316406 315.832031 C 332.28125 320.4375 334.515625 331.019531 327.09375 338.847656 L 327.179688 338.269531 C 327.140625 338.191406 331.539062 347.058594 344.855469 346.875 C 356.433594 346.714844 366.148438 348.578125 368.402344 349.1875 C 376.914062 351.480469 380.527344 358.761719 382.023438 368.488281 C 383.214844 376.207031 383.089844 385.597656 382.960938 395.527344 C 382.8125 406.839844 382.65625 418.878906 384.386719 430.113281 L 384.390625 430.175781 L 384.617188 437.566406 L 383.617188 437.476562 C 383.621094 437.457031 385.996094 426.136719 384.40625 418.777344 L 384.898438 418.667969 L 384.492188 418.371094 C 384.492188 418.371094 394.125 404.992188 398.871094 398.746094 C 398.996094 398.578125 399.214844 398.507812 399.417969 398.570312 C 410.203125 401.804688 418.703125 407.09375 421.476562 414.222656 C 421.53125 414.363281 421.519531 414.523438 421.445312 414.65625 C 420.273438 416.703125 419.117188 418.75 418.050781 420.628906 C 403.976562 445.488281 397.78125 456.429688 369.605469 463.203125 C 369.332031 463.269531 369.058594 463.101562 368.996094 462.828125 C 368.929688 462.558594 369.097656 462.285156 369.367188 462.21875 Z M 369.367188 462.21875 " fill-opacity="1" fill-rule="nonzero"/></g></svg>