<svg xmlns="http://www.w3.org/2000/svg" xmlns:xlink="http://www.w3.org/1999/xlink" width="1366" zoomAndPan="magnify" viewBox="0 0 1024.5 576" height="768" preserveAspectRatio="xMidYMid meet" version="1.0"><defs><g/><clipPath id="b84101ecb6"><path d="M 0 0.140625 L 1024 0.140625 L 1024 575.859375 L 0 575.859375 Z M 0 0.140625 " clip-rule="nonzero"/></clipPath><clipPath id="e169f9839c"><path d="M 426.886719 150 L 473.046875 150 L 473.046875 174.875 L 426.886719 174.875 Z M 426.886719 150 " clip-rule="nonzero"/></clipPath><clipPath id="feba8538f0"><path d="M 430 145.5 L 470 145.5 L 470 173 L 430 173 Z M 430 145.5 " clip-rule="nonzero"/></clipPath><clipPath id="ba736f3f74"><path d="M 379.300781 279.785156 L 645.550781 279.785156 L 645.550781 433.535156 L 379.300781 433.535156 Z M 379.300781 279.785156 " clip-rule="nonzero"/></clipPath></defs><g clip-path="url(#b84101ecb6)"><path fill="#ffffff" d="M 0 0.140625 L 1024.5 0.140625 L 1024.5 583.640625 L 0 583.640625 Z M 0 0.140625 " fill-opacity="1" fill-rule="nonzero"/><path fill="#ffffff" d="M 0 0.140625 L 1024.5 0.140625 L 1024.5 576.140625 L 0 576.140625 Z M 0 0.140625 " fill-opacity="1" fill-rule="nonzero"/><path fill="#374151" d="M 0 0.140625 L 1024.5 0.140625 L 1024.5 576.140625 L 0 576.140625 Z M 0 0.140625 " fill-opacity="1" fill-rule="nonzero"/></g><g clip-path="url(#e169f9839c)"><path fill="#ffffff" d="M 470.285156 150.574219 L 470.273438 150.652344 L 468.554688 169.347656 L 468.480469 170.199219 L 467.613281 170.089844 L 466.964844 170.007812 C 465.667969 169.84375 464.394531 169.753906 463.179688 169.753906 C 457.308594 169.753906 453.738281 171.699219 452.132812 172.859375 L 449.96875 173.023438 L 449.960938 173.023438 L 447.796875 172.859375 C 446.191406 171.699219 442.621094 169.753906 436.75 169.753906 C 435.535156 169.753906 434.261719 169.84375 432.964844 170.007812 L 432.316406 170.089844 L 431.449219 170.199219 L 431.375 169.347656 L 429.65625 150.652344 L 429.648438 150.574219 L 426.90625 150.574219 L 429.699219 171.75 L 448.121094 174.875 L 451.808594 174.875 L 470.230469 171.75 L 473.023438 150.574219 L 470.285156 150.574219 " fill-opacity="1" fill-rule="nonzero"/></g><g clip-path="url(#feba8538f0)"><path fill="#ffffff" d="M 432.777344 149.449219 L 432.882812 150.523438 L 434.289062 165.070312 L 434.777344 165.140625 C 434.863281 165.148438 441.664062 166.175781 446.253906 169.585938 C 444.050781 168.578125 440.933594 167.695312 436.789062 167.695312 C 435.707031 167.695312 434.5625 167.757812 433.34375 167.890625 L 431.757812 150.574219 L 431.664062 149.550781 C 432.050781 149.507812 432.417969 149.476562 432.777344 149.449219 Z M 444.179688 149.40625 C 447.230469 150.984375 448.84375 152.800781 449.316406 153.386719 L 449.316406 170.730469 C 445.355469 166.015625 437.507812 164.363281 435.449219 164 L 434.132812 150.398438 L 433.78125 146.773438 C 438.296875 146.988281 441.710938 148.121094 444.179688 149.40625 Z M 450.617188 153.386719 C 451.085938 152.800781 452.699219 150.984375 455.75 149.40625 C 458.21875 148.121094 461.632812 146.988281 466.148438 146.773438 L 465.796875 150.398438 L 464.480469 164 C 462.421875 164.363281 454.574219 166.015625 450.617188 170.730469 Z M 467.046875 150.523438 L 467.152344 149.449219 C 467.511719 149.476562 467.882812 149.507812 468.269531 149.550781 L 468.175781 150.574219 L 466.585938 167.890625 C 465.367188 167.757812 464.222656 167.695312 463.140625 167.695312 C 459 167.695312 455.878906 168.578125 453.675781 169.585938 C 458.265625 166.175781 465.066406 165.148438 465.152344 165.140625 L 465.640625 165.070312 Z M 432.207031 169.277344 L 432.859375 169.195312 C 437.308594 168.617188 440.789062 169.074219 443.394531 169.851562 C 443.648438 169.929688 443.894531 170.007812 444.132812 170.089844 C 444.375 170.171875 444.601562 170.257812 444.824219 170.34375 C 445.046875 170.429688 445.261719 170.515625 445.46875 170.605469 C 446.492188 171.054688 447.316406 171.53125 447.941406 171.953125 C 448.066406 172.039062 448.1875 172.121094 448.292969 172.199219 L 451.636719 172.199219 C 451.742188 172.121094 451.863281 172.039062 451.988281 171.953125 C 452.613281 171.53125 453.4375 171.054688 454.460938 170.605469 C 454.671875 170.515625 454.882812 170.429688 455.105469 170.34375 C 455.328125 170.257812 455.554688 170.171875 455.796875 170.089844 C 456.035156 170.007812 456.28125 169.929688 456.539062 169.851562 C 459.140625 169.074219 462.621094 168.617188 467.074219 169.195312 L 467.722656 169.277344 L 469.441406 150.574219 L 469.632812 148.457031 L 469.027344 148.390625 C 468.414062 148.320312 467.828125 148.261719 467.269531 148.222656 L 467.535156 145.496094 L 466.824219 145.515625 C 460.640625 145.671875 456.355469 147.425781 453.578125 149.1875 C 451.757812 150.34375 450.589844 151.5 449.96875 152.210938 L 449.960938 152.210938 C 449.34375 151.5 448.171875 150.34375 446.351562 149.1875 C 443.574219 147.425781 439.289062 145.671875 433.105469 145.515625 L 432.394531 145.496094 L 432.660156 148.222656 C 432.101562 148.261719 431.515625 148.320312 430.90625 148.390625 L 430.296875 148.457031 L 430.492188 150.574219 L 432.207031 169.277344 " fill-opacity="1" fill-rule="nonzero"/></g><g fill="#ffffff" fill-opacity="1"><g transform="translate(482.46965, 167.68624)"><g><path d="M 1.640625 -0.109375 C 2.179688 -0.847656 2.453125 -1.832031 2.453125 -3.0625 L 2.453125 -13.3125 C 2.453125 -14.550781 2.179688 -15.535156 1.640625 -16.265625 L 1.640625 -16.390625 L 8.28125 -16.390625 C 10.125 -16.390625 11.664062 -16.015625 12.90625 -15.265625 C 14.144531 -14.523438 14.765625 -13.300781 14.765625 -11.59375 C 14.765625 -10.476562 14.472656 -9.550781 13.890625 -8.8125 C 13.316406 -8.070312 12.566406 -7.53125 11.640625 -7.1875 C 10.710938 -6.84375 9.726562 -6.671875 8.6875 -6.671875 C 7.9375 -6.671875 7.222656 -6.800781 6.546875 -7.0625 L 6.546875 -7.4375 C 7.003906 -7.332031 7.472656 -7.28125 7.953125 -7.28125 C 9.015625 -7.28125 9.832031 -7.6875 10.40625 -8.5 C 10.976562 -9.320312 11.265625 -10.351562 11.265625 -11.59375 C 11.265625 -12.757812 10.96875 -13.753906 10.375 -14.578125 C 9.789062 -15.410156 8.960938 -15.828125 7.890625 -15.828125 C 7.171875 -15.828125 6.492188 -15.707031 5.859375 -15.46875 L 5.859375 -3.0625 C 5.859375 -1.832031 6.128906 -0.847656 6.671875 -0.109375 L 6.671875 0 L 1.640625 0 Z M 1.640625 -0.109375 "/></g></g></g><g fill="#ffffff" fill-opacity="1"><g transform="translate(497.183104, 167.68624)"><g><path d="M 1.359375 -0.109375 C 1.554688 -0.410156 1.710938 -0.789062 1.828125 -1.25 C 1.953125 -1.707031 2.015625 -2.210938 2.015625 -2.765625 L 2.015625 -13.4375 C 2.015625 -14.070312 1.941406 -14.59375 1.796875 -15 C 1.660156 -15.40625 1.453125 -15.742188 1.171875 -16.015625 L 1.171875 -16.125 L 5.0625 -17.4375 L 5.171875 -17.4375 L 5.171875 -2.765625 C 5.171875 -2.210938 5.226562 -1.707031 5.34375 -1.25 C 5.46875 -0.789062 5.628906 -0.410156 5.828125 -0.109375 L 5.828125 0 L 1.359375 0 Z M 1.359375 -0.109375 "/></g></g></g><g fill="#ffffff" fill-opacity="1"><g transform="translate(503.779436, 167.68624)"><g><path d="M 11.640625 -3.953125 C 11.367188 -2.660156 10.769531 -1.628906 9.84375 -0.859375 C 8.925781 -0.0859375 7.804688 0.296875 6.484375 0.296875 C 5.441406 0.296875 4.5 0.0664062 3.65625 -0.390625 C 2.8125 -0.847656 2.140625 -1.519531 1.640625 -2.40625 C 1.148438 -3.300781 0.90625 -4.359375 0.90625 -5.578125 C 0.90625 -6.835938 1.171875 -7.953125 1.703125 -8.921875 C 2.234375 -9.898438 2.941406 -10.65625 3.828125 -11.1875 C 4.722656 -11.726562 5.691406 -12 6.734375 -12 C 7.703125 -12 8.546875 -11.796875 9.265625 -11.390625 C 9.984375 -10.992188 10.53125 -10.453125 10.90625 -9.765625 C 11.28125 -9.078125 11.46875 -8.332031 11.46875 -7.53125 L 3.46875 -7.53125 C 3.507812 -6.363281 3.738281 -5.363281 4.15625 -4.53125 C 4.582031 -3.695312 5.132812 -3.066406 5.8125 -2.640625 C 6.488281 -2.222656 7.234375 -2.015625 8.046875 -2.015625 C 8.816406 -2.015625 9.492188 -2.1875 10.078125 -2.53125 C 10.660156 -2.875 11.101562 -3.347656 11.40625 -3.953125 Z M 5.859375 -11.328125 C 5.148438 -11.328125 4.578125 -11.050781 4.140625 -10.5 C 3.703125 -9.945312 3.476562 -9.140625 3.46875 -8.078125 L 8.359375 -8.078125 C 8.265625 -9.078125 8 -9.867188 7.5625 -10.453125 C 7.132812 -11.035156 6.566406 -11.328125 5.859375 -11.328125 Z M 5.859375 -11.328125 "/></g></g></g><g fill="#ffffff" fill-opacity="1"><g transform="translate(515.615647, 167.68624)"><g><path d="M 6.875 0.296875 C 4.925781 0.296875 3.226562 -0.164062 1.78125 -1.09375 L 1.78125 -13.4375 C 1.78125 -14.070312 1.707031 -14.59375 1.5625 -15 C 1.425781 -15.40625 1.21875 -15.742188 0.9375 -16.015625 L 0.9375 -16.125 L 4.828125 -17.4375 L 4.9375 -17.4375 L 4.9375 -9.90625 L 5.0625 -9.90625 C 5.4375 -10.5625 5.925781 -11.070312 6.53125 -11.4375 C 7.132812 -11.8125 7.835938 -12 8.640625 -12 C 9.554688 -12 10.363281 -11.757812 11.0625 -11.28125 C 11.769531 -10.8125 12.3125 -10.132812 12.6875 -9.25 C 13.070312 -8.375 13.265625 -7.359375 13.265625 -6.203125 C 13.265625 -5.046875 13 -3.972656 12.46875 -2.984375 C 11.945312 -1.992188 11.203125 -1.195312 10.234375 -0.59375 C 9.265625 0 8.144531 0.296875 6.875 0.296875 Z M 7 -0.234375 C 7.914062 -0.234375 8.625 -0.710938 9.125 -1.671875 C 9.625 -2.628906 9.875 -3.929688 9.875 -5.578125 C 9.875 -7.085938 9.632812 -8.265625 9.15625 -9.109375 C 8.6875 -9.953125 8.03125 -10.375 7.1875 -10.375 C 6.570312 -10.375 6.0625 -10.1875 5.65625 -9.8125 C 5.257812 -9.445312 5.019531 -8.976562 4.9375 -8.40625 L 4.9375 -1.890625 C 5.019531 -1.441406 5.238281 -1.050781 5.59375 -0.71875 C 5.945312 -0.394531 6.414062 -0.234375 7 -0.234375 Z M 7 -0.234375 "/></g></g></g><g fill="#ffffff" fill-opacity="1"><g transform="translate(529.323244, 167.68624)"><g><path d="M 1.640625 -0.109375 C 2.179688 -0.847656 2.453125 -1.832031 2.453125 -3.0625 L 2.453125 -13.3125 C 2.453125 -14.550781 2.179688 -15.535156 1.640625 -16.265625 L 1.640625 -16.390625 L 8.59375 -16.390625 C 10.25 -16.390625 11.617188 -16.078125 12.703125 -15.453125 C 13.796875 -14.828125 14.34375 -13.84375 14.34375 -12.5 C 14.34375 -11.46875 13.984375 -10.640625 13.265625 -10.015625 C 12.546875 -9.390625 11.691406 -9 10.703125 -8.84375 L 10.703125 -8.75 C 11.878906 -8.613281 12.882812 -8.171875 13.71875 -7.421875 C 14.5625 -6.679688 14.984375 -5.707031 14.984375 -4.5 C 14.984375 -2.9375 14.363281 -1.796875 13.125 -1.078125 C 11.894531 -0.359375 10.382812 0 8.59375 0 L 1.640625 0 Z M 7.5625 -9.0625 C 8.59375 -9.0625 9.394531 -9.375 9.96875 -10 C 10.550781 -10.625 10.84375 -11.441406 10.84375 -12.453125 C 10.84375 -13.429688 10.546875 -14.238281 9.953125 -14.875 C 9.367188 -15.507812 8.578125 -15.828125 7.578125 -15.828125 C 7.003906 -15.828125 6.429688 -15.71875 5.859375 -15.5 L 5.859375 -9.0625 Z M 7.75 -0.5625 C 8.851562 -0.5625 9.738281 -0.914062 10.40625 -1.625 C 11.082031 -2.332031 11.421875 -3.289062 11.421875 -4.5 C 11.421875 -5.738281 11.078125 -6.707031 10.390625 -7.40625 C 9.703125 -8.113281 8.78125 -8.46875 7.625 -8.46875 L 5.859375 -8.46875 L 5.859375 -0.984375 C 6.367188 -0.703125 7 -0.5625 7.75 -0.5625 Z M 7.75 -0.5625 "/></g></g></g><g fill="#ffffff" fill-opacity="1"><g transform="translate(544.808655, 167.68624)"><g><path d="M 6.8125 0.296875 C 5.65625 0.296875 4.625 0.0351562 3.71875 -0.484375 C 2.8125 -1.015625 2.101562 -1.742188 1.59375 -2.671875 C 1.09375 -3.609375 0.84375 -4.671875 0.84375 -5.859375 C 0.84375 -7.035156 1.09375 -8.085938 1.59375 -9.015625 C 2.101562 -9.953125 2.8125 -10.679688 3.71875 -11.203125 C 4.625 -11.734375 5.65625 -12 6.8125 -12 C 7.945312 -12 8.96875 -11.734375 9.875 -11.203125 C 10.78125 -10.679688 11.484375 -9.953125 11.984375 -9.015625 C 12.492188 -8.085938 12.75 -7.035156 12.75 -5.859375 C 12.75 -4.671875 12.492188 -3.609375 11.984375 -2.671875 C 11.484375 -1.742188 10.78125 -1.015625 9.875 -0.484375 C 8.96875 0.0351562 7.945312 0.296875 6.8125 0.296875 Z M 6.8125 -0.234375 C 7.664062 -0.234375 8.300781 -0.742188 8.71875 -1.765625 C 9.144531 -2.785156 9.359375 -4.148438 9.359375 -5.859375 C 9.359375 -7.554688 9.144531 -8.914062 8.71875 -9.9375 C 8.300781 -10.957031 7.664062 -11.46875 6.8125 -11.46875 C 5.957031 -11.46875 5.3125 -10.957031 4.875 -9.9375 C 4.445312 -8.914062 4.234375 -7.554688 4.234375 -5.859375 C 4.234375 -4.148438 4.445312 -2.785156 4.875 -1.765625 C 5.3125 -0.742188 5.957031 -0.234375 6.8125 -0.234375 Z M 6.8125 -0.234375 "/></g></g></g><g fill="#ffffff" fill-opacity="1"><g transform="translate(557.931429, 167.68624)"><g><path d="M 6.8125 0.296875 C 5.65625 0.296875 4.625 0.0351562 3.71875 -0.484375 C 2.8125 -1.015625 2.101562 -1.742188 1.59375 -2.671875 C 1.09375 -3.609375 0.84375 -4.671875 0.84375 -5.859375 C 0.84375 -7.035156 1.09375 -8.085938 1.59375 -9.015625 C 2.101562 -9.953125 2.8125 -10.679688 3.71875 -11.203125 C 4.625 -11.734375 5.65625 -12 6.8125 -12 C 7.945312 -12 8.96875 -11.734375 9.875 -11.203125 C 10.78125 -10.679688 11.484375 -9.953125 11.984375 -9.015625 C 12.492188 -8.085938 12.75 -7.035156 12.75 -5.859375 C 12.75 -4.671875 12.492188 -3.609375 11.984375 -2.671875 C 11.484375 -1.742188 10.78125 -1.015625 9.875 -0.484375 C 8.96875 0.0351562 7.945312 0.296875 6.8125 0.296875 Z M 6.8125 -0.234375 C 7.664062 -0.234375 8.300781 -0.742188 8.71875 -1.765625 C 9.144531 -2.785156 9.359375 -4.148438 9.359375 -5.859375 C 9.359375 -7.554688 9.144531 -8.914062 8.71875 -9.9375 C 8.300781 -10.957031 7.664062 -11.46875 6.8125 -11.46875 C 5.957031 -11.46875 5.3125 -10.957031 4.875 -9.9375 C 4.445312 -8.914062 4.234375 -7.554688 4.234375 -5.859375 C 4.234375 -4.148438 4.445312 -2.785156 4.875 -1.765625 C 5.3125 -0.742188 5.957031 -0.234375 6.8125 -0.234375 Z M 6.8125 -0.234375 "/></g></g></g><g fill="#ffffff" fill-opacity="1"><g transform="translate(571.054204, 167.68624)"><g><path d="M 1.359375 -0.109375 C 1.554688 -0.410156 1.710938 -0.789062 1.828125 -1.25 C 1.953125 -1.707031 2.015625 -2.210938 2.015625 -2.765625 L 2.015625 -13.4375 C 2.015625 -14.070312 1.941406 -14.59375 1.796875 -15 C 1.660156 -15.40625 1.453125 -15.742188 1.171875 -16.015625 L 1.171875 -16.125 L 5.0625 -17.4375 L 5.171875 -17.4375 L 5.171875 -2.765625 C 5.171875 -2.210938 5.226562 -1.707031 5.34375 -1.25 C 5.46875 -0.789062 5.628906 -0.410156 5.828125 -0.109375 L 5.828125 0 L 1.359375 0 Z M 11.71875 0.1875 C 10.988281 0.1875 10.382812 0.0546875 9.90625 -0.203125 C 9.4375 -0.472656 8.984375 -0.910156 8.546875 -1.515625 L 5.640625 -5.484375 L 5.640625 -5.59375 L 8.515625 -8.890625 C 9.128906 -9.597656 9.4375 -10.203125 9.4375 -10.703125 C 9.4375 -11.054688 9.300781 -11.351562 9.03125 -11.59375 L 9.03125 -11.703125 L 12.609375 -11.703125 L 12.609375 -11.59375 C 11.960938 -11.28125 11.398438 -10.941406 10.921875 -10.578125 C 10.441406 -10.222656 9.929688 -9.75 9.390625 -9.15625 L 7.984375 -7.625 L 12.421875 -1.640625 C 12.953125 -0.921875 13.351562 -0.515625 13.625 -0.421875 L 13.625 -0.25 C 13.375 -0.125 13.078125 -0.0195312 12.734375 0.0625 C 12.390625 0.144531 12.050781 0.1875 11.71875 0.1875 Z M 11.71875 0.1875 "/></g></g></g><g clip-path="url(#ba736f3f74)"><path fill="#ffffff" d="M 391.476562 284.757812 C 409.503906 298.40625 427.492188 312.023438 437.855469 317.644531 C 443.269531 320.582031 446.570312 321.316406 449.777344 321.316406 C 451.269531 321.316406 452.742188 321.15625 454.425781 320.976562 C 456.054688 320.800781 457.859375 320.605469 460.027344 320.523438 L 460.023438 320.523438 L 460.03125 320.523438 C 460.910156 320.488281 461.84375 320.476562 462.828125 320.476562 C 467.632812 320.476562 473.679688 320.839844 480.246094 321.238281 C 486.492188 321.617188 493.210938 322.023438 499.832031 322.175781 C 503.019531 322.25 506.203125 322.265625 509.308594 322.265625 C 510.238281 322.265625 511.394531 322.265625 512.3125 322.261719 C 513.320312 322.261719 514.238281 322.257812 515.226562 322.257812 C 524.433594 322.257812 532.871094 322.394531 539.378906 323.957031 C 549.363281 326.359375 554.921875 332.167969 555.335938 336.113281 C 555.660156 339.164062 552.945312 340.890625 550.269531 341.171875 C 550.003906 341.199219 549.722656 341.214844 549.457031 341.214844 C 548.773438 341.214844 548.089844 341.121094 547.453125 340.933594 C 544.152344 339.953125 542.121094 336.332031 542.890625 333.757812 C 542.914062 333.679688 542.9375 333.601562 542.96875 333.527344 C 543.648438 331.710938 545.753906 330.644531 547.984375 330.644531 C 548.996094 330.644531 550.050781 330.859375 551.046875 331.339844 C 554.164062 332.835938 556.792969 337.015625 555.808594 339.621094 C 555.085938 341.53125 552.539062 342.351562 549.519531 342.351562 C 548.265625 342.351562 546.902344 342.214844 545.488281 341.9375 C 543.609375 341.570312 541.648438 340.960938 539.554688 340.3125 C 537.117188 339.554688 534.496094 338.742188 531.59375 338.175781 C 530.496094 337.960938 529.367188 337.78125 528.1875 337.65625 C 526.394531 337.460938 524.484375 337.382812 522.671875 337.382812 C 518.210938 337.382812 514.464844 337.851562 514.042969 338.105469 C 514 338.132812 514.152344 338.066406 514.152344 337.878906 C 514.152344 337.664062 513.960938 337.601562 514.015625 337.625 C 514.015625 337.628906 514.027344 337.632812 514.050781 337.636719 C 514.460938 337.75 515.914062 337.8125 517.898438 337.886719 C 521.371094 338.023438 526.304688 338.214844 529.015625 338.960938 C 529.46875 339.085938 529.871094 339.230469 530.203125 339.394531 C 531.707031 340.15625 531.59375 341.339844 531.003906 342.5 C 530.699219 343.101562 530.257812 343.742188 529.8125 344.386719 C 529.316406 345.105469 528.816406 345.835938 528.441406 346.570312 C 528.171875 347.109375 527.976562 347.632812 527.90625 348.140625 C 527.585938 350.421875 529.664062 352.640625 530.816406 352.800781 C 530.855469 352.804688 530.898438 352.808594 530.933594 352.808594 C 531.148438 352.808594 531.328125 352.71875 531.402344 352.320312 C 531.5 351.777344 531.351562 350.832031 531.15625 349.621094 C 530.894531 348.015625 530.570312 346.03125 530.871094 344.359375 C 531.175781 342.671875 532.128906 341.269531 534.351562 340.875 C 534.8125 340.792969 535.332031 340.753906 535.886719 340.753906 C 541.367188 340.753906 551.613281 344.449219 559.855469 347.417969 C 561.4375 347.988281 562.976562 348.542969 564.371094 349.03125 C 567.027344 349.960938 569.277344 350.695312 571.175781 351.316406 C 572.570312 351.773438 573.8125 352.175781 574.875 352.550781 C 577.496094 353.46875 579.269531 354.261719 580.613281 355.484375 C 583.070312 357.707031 584.179688 361.472656 582.128906 363.730469 C 582.015625 363.851562 581.894531 363.972656 581.765625 364.082031 C 580.503906 365.175781 578.390625 365.710938 576.261719 365.710938 C 574.234375 365.710938 572.113281 365.222656 570.585938 364.183594 C 567.535156 362.105469 566.933594 357.867188 568.460938 355.632812 C 568.503906 355.566406 568.550781 355.503906 568.597656 355.441406 C 569.527344 354.25 571.074219 353.789062 572.671875 353.789062 C 574.066406 353.789062 575.546875 354.140625 576.804688 354.710938 C 579.515625 355.949219 581.195312 358.230469 581.746094 360.644531 C 582.300781 363.070312 581.710938 365.683594 578.707031 367.195312 C 576.769531 368.167969 573.847656 368.675781 570.730469 368.675781 C 569.125 368.675781 567.457031 368.539062 565.832031 368.261719 C 563.109375 367.796875 560.519531 366.933594 557.054688 365.777344 C 554.421875 364.902344 551.28125 363.855469 547.171875 362.675781 C 537.882812 360.011719 523.796875 356.714844 522.621094 356.714844 C 522.609375 356.714844 522.617188 356.714844 522.609375 356.714844 L 522.613281 356.714844 C 522.597656 356.714844 522.640625 356.714844 522.695312 356.6875 L 522.699219 356.6875 C 522.816406 356.628906 522.949219 356.449219 522.851562 356.242188 C 522.808594 356.152344 522.738281 356.117188 522.761719 356.132812 L 522.574219 356.425781 L 522.761719 356.132812 C 523.191406 356.40625 527.964844 357.820312 533.679688 359.5 C 537.492188 360.625 541.574219 361.828125 545.035156 362.898438 C 551.777344 364.980469 555.765625 366.449219 559.8125 367.9375 C 561.15625 368.429688 562.527344 368.933594 563.984375 369.453125 C 564.933594 369.792969 565.960938 370.15625 566.984375 370.515625 C 568.078125 370.898438 569.175781 371.285156 570.296875 371.6875 C 574.582031 373.21875 578.925781 374.867188 581.8125 376.46875 C 586.148438 378.871094 587.398438 381.296875 586.453125 383.558594 C 585.570312 385.671875 582.804688 387.433594 580.160156 387.433594 C 580.160156 387.433594 580.089844 387.433594 580.089844 387.433594 C 577.40625 387.398438 574.863281 385.546875 574.011719 383.320312 C 573.148438 381.0625 574.042969 378.449219 576.59375 377.25 C 577.558594 376.796875 578.753906 376.550781 579.984375 376.550781 C 581.960938 376.550781 584.089844 377.1875 585.527344 378.714844 C 587.816406 381.144531 588.308594 385.828125 586.136719 388.296875 C 584.800781 389.808594 582.535156 390.402344 578.839844 390.402344 C 576.398438 390.402344 573.292969 390.144531 569.339844 389.683594 C 559.433594 388.527344 543.851562 386.074219 539.007812 381.5625 C 535.640625 378.421875 537.394531 374.339844 538.777344 371.050781 C 539.488281 369.355469 540.101562 367.875 540.09375 366.691406 C 540.078125 364.777344 538.371094 363.546875 536.765625 363.546875 C 535.558594 363.546875 534.445312 364.246094 534.25 365.949219 C 534.117188 367.136719 534.421875 368.796875 534.773438 370.65625 C 535.164062 372.742188 535.597656 375.054688 535.378906 377 C 535.121094 379.285156 533.945312 381.09375 530.863281 381.492188 C 530.398438 381.554688 529.886719 381.582031 529.347656 381.582031 C 523.886719 381.582031 514.542969 378.722656 508.09375 376.753906 C 504.578125 375.683594 501.992188 374.898438 501.230469 374.898438 C 501.1875 374.898438 501.164062 374.898438 501.15625 374.902344 C 501.148438 374.902344 501.339844 374.828125 501.300781 374.632812 C 501.296875 374.617188 501.292969 374.609375 501.292969 374.609375 L 500.976562 374.757812 L 501.292969 374.609375 C 501.484375 375.019531 503.671875 376.429688 506.8125 378.425781 C 511.667969 381.511719 518.417969 385.796875 521.273438 389.152344 C 525.214844 393.789062 521.886719 396.753906 519.324219 399.0625 C 518.464844 399.832031 517.695312 400.53125 517.214844 401.214844 C 516.105469 402.800781 516.558594 404.304688 517.390625 404.882812 C 517.644531 405.0625 517.933594 405.160156 518.242188 405.160156 C 518.660156 405.160156 519.148438 404.976562 519.632812 404.488281 C 520.574219 403.535156 521.429688 401.535156 522.324219 399.414062 C 523.199219 397.347656 524.113281 395.164062 525.1875 394.082031 C 525.410156 393.855469 525.644531 393.667969 525.902344 393.539062 C 526.191406 393.390625 526.492188 393.320312 526.804688 393.320312 C 528.5 393.320312 530.429688 395.492188 532.652344 397.945312 C 533.816406 399.226562 535.097656 400.640625 536.535156 402.011719 C 539.207031 404.5625 542.414062 406.964844 545.332031 409.152344 C 547.597656 410.851562 549.703125 412.425781 551.210938 413.820312 C 554.683594 417.03125 555.078125 419.363281 554.347656 421.78125 C 553.773438 423.6875 552.421875 425.882812 550.40625 425.882812 C 550.035156 425.882812 549.648438 425.804688 549.253906 425.644531 C 546.855469 424.652344 543.914062 420.332031 543.859375 417.683594 C 543.8125 415.472656 545.679688 414.46875 547.652344 414.425781 C 547.695312 414.425781 547.742188 414.425781 547.785156 414.425781 C 548.355469 414.425781 548.941406 414.5 549.519531 414.648438 C 552.175781 415.335938 554.589844 417.589844 554.96875 421.199219 C 555.238281 423.792969 554.445312 427.300781 550.207031 427.742188 C 549.921875 427.773438 549.609375 427.789062 549.292969 427.789062 C 547.925781 427.789062 546.273438 427.503906 544.277344 426.855469 C 537.121094 424.523438 525.363281 417.394531 514.476562 410.800781 C 511.523438 409.011719 508.660156 407.277344 505.933594 405.667969 C 493.144531 398.105469 484.066406 393.652344 479.4375 392.289062 C 477.980469 391.859375 476.976562 391.742188 476.074219 391.742188 C 475.511719 391.742188 474.984375 391.789062 474.398438 391.839844 C 473.707031 391.898438 472.941406 391.96875 471.976562 391.96875 C 470.902344 391.96875 469.597656 391.882812 467.863281 391.621094 C 464.441406 391.101562 459.351562 389.875 455.628906 388.980469 C 453.449219 388.453125 451.75 388.042969 451.097656 387.945312 C 450.996094 387.929688 450.9375 387.925781 450.917969 387.925781 C 450.910156 387.925781 450.929688 387.925781 450.910156 387.925781 L 450.914062 387.925781 C 450.710938 387.933594 451.195312 387.992188 451.195312 387.597656 C 451.195312 387.394531 451.015625 387.304688 451.085938 387.355469 C 451.113281 387.375 451.238281 387.4375 451.511719 387.550781 C 452.339844 387.890625 454.210938 388.550781 456.660156 389.421875 C 461.183594 391.023438 467.632812 393.304688 472.957031 395.484375 C 476.191406 396.808594 479.03125 398.101562 480.765625 399.183594 C 482.816406 400.464844 483.589844 401.636719 482.898438 402.746094 C 482.191406 403.878906 479.9375 404.632812 477.910156 405.332031 C 476.847656 405.695312 475.796875 406.058594 474.933594 406.453125 C 471.078125 408.21875 470.789062 410.691406 470.9375 413.558594 C 471.070312 416.121094 471.539062 418.023438 472.136719 418.023438 C 472.257812 418.023438 472.488281 417.941406 472.835938 417.554688 C 473.445312 416.878906 474.21875 415.507812 475.148438 413.855469 C 476.394531 411.644531 477.886719 408.988281 479.539062 407.15625 C 479.957031 406.691406 480.394531 406.273438 480.839844 405.925781 C 482.042969 405 483.316406 404.613281 484.609375 404.613281 C 487.089844 404.613281 489.601562 406.042969 491.828125 407.644531 C 495.21875 410.085938 498.1875 413.105469 499.199219 417.214844 C 500.199219 421.296875 499.253906 426.429688 496.703125 429.660156 C 494.75 432.136719 491.835938 433.507812 490.144531 433.507812 C 489.636719 433.507812 489.140625 433.386719 488.859375 433.011719 C 488.199219 432.140625 489.191406 430.289062 490.089844 428.5 C 490.675781 427.328125 491.324219 426.035156 491.820312 424.703125 C 493.171875 421.0625 493.265625 417.460938 491.554688 416.253906 C 491.023438 415.882812 490.277344 415.703125 489.394531 415.703125 C 487.445312 415.703125 484.992188 416.570312 483.226562 417.714844 C 480.832031 419.269531 479.816406 421.222656 481.710938 424.136719 C 481.804688 424.28125 481.898438 424.417969 482.003906 424.566406 C 483.015625 425.964844 484.664062 427.558594 485.894531 428.75 C 486.582031 429.414062 487.167969 429.980469 487.386719 430.285156 C 487.417969 430.328125 487.449219 430.375 487.472656 430.421875 L 487.164062 430.578125 L 487.472656 430.421875 C 487.476562 430.429688 487.652344 430.753906 487.371094 430.957031 C 487.277344 431.023438 487.179688 431.03125 487.125 431.03125 C 487.085938 431.03125 487.058594 431.027344 487.03125 431.023438 C 486.753906 430.976562 486.164062 430.667969 485.226562 430.125 C 482.539062 428.570312 476.417969 424.71875 469.4375 420.324219 C 464.078125 416.953125 458.121094 413.207031 452.890625 409.972656 C 451.863281 409.339844 450.910156 408.753906 449.929688 408.148438 C 448.914062 407.527344 448.214844 407.097656 447.246094 406.496094 C 438.109375 400.855469 431.378906 396.449219 427.722656 390.980469 C 426.3125 388.871094 425.363281 386.609375 424.359375 384.214844 C 423.183594 381.414062 421.921875 378.410156 419.738281 375.144531 C 417.988281 372.527344 415.640625 369.734375 412.261719 366.75 C 408.257812 363.214844 402.8125 359.417969 397.507812 355.71875 C 392.53125 352.25 387.679688 348.867188 384.316406 345.894531 C 381.308594 343.242188 379.273438 340.742188 379.785156 338.730469 C 380.519531 335.863281 386.292969 334.589844 393.089844 334.589844 C 401.769531 334.589844 412.84375 336.664062 419.964844 341.035156 C 432.839844 348.941406 432.664062 364.238281 429.929688 371.363281 C 428.140625 376.027344 425.238281 377.273438 422.332031 378.519531 C 420.71875 379.214844 419.132812 379.898438 417.667969 381.15625 C 413.46875 384.765625 410.441406 392.867188 411.542969 395.109375 C 411.761719 395.550781 412.167969 395.769531 412.832031 395.769531 C 415.058594 395.769531 419.214844 393.332031 423.539062 390.777344 L 423.871094 391.390625 L 423.867188 391.394531 L 423.875 391.390625 C 416.019531 395.53125 408.34375 399.589844 405.933594 403.699219 C 403.597656 407.671875 406.261719 411.8125 408.949219 413.886719 C 410.984375 415.457031 412.941406 415.746094 414.921875 415.746094 C 415.488281 415.746094 416.082031 415.722656 416.652344 415.699219 L 416.351562 415.902344 C 417.777344 412.726562 419.234375 409.46875 423.472656 406.859375 C 426.632812 404.910156 431.34375 403.320312 436.035156 403.320312 C 437.59375 403.320312 439.15625 403.496094 440.660156 403.894531 C 446.601562 405.464844 451.855469 410.632812 450.679688 415.125 C 449.515625 419.570312 442.109375 422.878906 433.972656 423.128906 C 433.609375 423.140625 433.277344 423.148438 432.914062 423.148438 C 426.246094 423.148438 418.449219 421.203125 418.449219 419.300781 C 418.449219 418.917969 418.714844 418.632812 419.054688 418.433594 C 421.070312 417.238281 429.8125 416.847656 437.320312 416.503906 C 439.761719 416.394531 442.097656 416.285156 444.070312 416.160156 C 452.167969 415.648438 454.175781 414.824219 456.179688 414.015625 C 456.285156 413.972656 456.40625 413.984375 456.5 414.046875 C 456.597656 414.109375 456.65625 414.210938 456.660156 414.324219 C 456.757812 416.867188 456.863281 419.480469 455.617188 422.511719 C 455.546875 422.683594 455.460938 422.882812 455.386719 423.050781 C 455.3125 423.230469 455.234375 423.40625 455.164062 423.578125 C 454.675781 424.769531 454.582031 425.472656 455.503906 425.851562 C 455.957031 426.035156 456.667969 426.15625 457.757812 426.15625 C 460.042969 426.15625 463.847656 425.628906 470.011719 424.265625 C 488.53125 420.179688 528.085938 408.640625 554.378906 394.660156 C 580.648438 380.691406 593.679688 364.28125 599.125 357.21875 C 603.148438 351.996094 602.871094 352.0625 601.390625 349.976562 C 600.796875 349.144531 599.996094 348.015625 599.113281 346.261719 C 597.761719 343.574219 596.226562 339.421875 594.476562 334.691406 C 592.113281 328.304688 589.351562 320.839844 586.089844 314.355469 C 585.832031 313.84375 585.566406 313.324219 585.300781 312.824219 C 579.238281 301.367188 571.539062 293.730469 554.90625 290.878906 C 546.652344 289.464844 536.199219 289.230469 525.660156 289.230469 C 523.015625 289.230469 520.386719 289.242188 517.765625 289.257812 C 515.246094 289.273438 512.652344 289.289062 510.214844 289.289062 C 504.914062 289.289062 499.875 289.222656 495.433594 288.953125 C 482.203125 288.148438 474.195312 285.539062 467.929688 283.492188 C 466.109375 282.898438 464.429688 282.351562 462.824219 281.914062 L 462.835938 281.917969 L 462.824219 281.914062 C 459.359375 280.96875 456.179688 280.519531 453.570312 280.519531 C 450.796875 280.519531 448.730469 281.027344 447.617188 281.921875 C 445.53125 283.597656 446.589844 286.941406 448.539062 290.078125 C 450.40625 293.085938 452.890625 295.550781 458.53125 298.445312 C 463.804688 301.144531 471.707031 304.152344 475.285156 304.152344 C 475.5625 304.152344 475.804688 304.136719 476.015625 304.097656 C 477.292969 303.878906 477.492188 302.953125 477.246094 301.507812 C 477.136719 300.875 476.945312 300.191406 476.753906 299.519531 C 476.582031 298.90625 476.40625 298.292969 476.316406 297.757812 C 476.289062 297.597656 476.265625 297.4375 476.253906 297.289062 C 476.160156 296.03125 476.75 295.230469 477.632812 295.164062 C 477.664062 295.160156 477.710938 295.160156 477.742188 295.160156 C 478.480469 295.160156 479.21875 295.695312 479.566406 296.589844 C 479.839844 297.296875 479.875 298.246094 479.917969 299.148438 C 479.960938 300.175781 480.011719 301.171875 480.3125 301.953125 C 480.464844 302.347656 480.679688 302.671875 480.980469 302.90625 C 481.734375 303.496094 483.113281 303.621094 484.96875 303.765625 C 486.707031 303.90625 488.765625 304.066406 490.789062 304.78125 C 492.230469 305.289062 493.644531 306.074219 494.945312 306.796875 C 496.113281 307.445312 497.183594 308.039062 498.140625 308.375 C 498.660156 308.558594 499.125 308.660156 499.542969 308.660156 C 499.953125 308.660156 500.308594 308.5625 500.628906 308.351562 C 501.621094 307.683594 502.328125 305.863281 503.140625 303.714844 C 503.960938 301.539062 504.878906 299.078125 506.398438 297.816406 C 507.386719 296.992188 508.601562 296.6875 509.707031 296.6875 C 511.296875 296.6875 513.144531 297.386719 513.144531 298.492188 C 513.144531 298.867188 512.917969 299.183594 512.570312 299.421875 C 512.066406 299.769531 511.167969 300.050781 510.210938 300.355469 C 508.800781 300.804688 507.160156 301.332031 505.914062 302.195312 C 504.425781 303.222656 503.511719 304.710938 504.339844 307.203125 C 506.007812 312.222656 514.683594 321.195312 529.789062 321.195312 C 533.230469 321.195312 537 320.730469 541.105469 319.644531 C 561.453125 314.261719 589.765625 293.679688 599.46875 286.621094 C 600.339844 285.988281 601.050781 285.472656 601.601562 285.078125 C 602.390625 284.515625 602.875 284.183594 603.066406 284.105469 L 603.0625 284.105469 C 603.085938 284.09375 603.15625 284.066406 603.238281 284.066406 C 603.375 284.066406 603.601562 284.164062 603.601562 284.425781 C 603.601562 284.558594 603.523438 284.660156 603.519531 284.664062 L 603.230469 284.46875 L 603.519531 284.664062 C 603.355469 284.902344 602.519531 285.664062 601.386719 286.710938 C 597.398438 290.371094 589.097656 298.007812 586.808594 302.835938 C 584.640625 307.40625 587.960938 309.363281 592.890625 312.183594 C 595.597656 313.730469 598.699219 315.5 601.28125 318.09375 C 608.449219 325.296875 611.519531 338.746094 613.417969 349.535156 C 615.261719 360.007812 616.21875 368.933594 613.613281 369.433594 C 613.527344 369.449219 613.449219 369.457031 613.367188 369.457031 C 611.714844 369.457031 609.082031 366.347656 607.496094 364.507812 C 606.699219 363.582031 606.175781 362.984375 606.003906 362.898438 L 606.007812 362.898438 C 605.996094 362.894531 606.035156 362.914062 606.097656 362.914062 C 606.207031 362.914062 606.316406 362.851562 606.367188 362.746094 C 606.394531 362.6875 606.390625 362.648438 606.390625 362.65625 C 606.410156 363.445312 610.140625 370.390625 612.988281 371.785156 C 613.175781 371.875 613.355469 371.941406 613.519531 371.976562 C 613.632812 372 613.738281 372.011719 613.84375 372.011719 C 615.25 372.011719 616.429688 370.007812 618.234375 366.800781 C 619.488281 364.566406 620.992188 361.890625 623.042969 359.378906 C 628.132812 353.152344 636.585938 347.972656 644.964844 342.835938 L 644.960938 342.835938 L 644.964844 342.835938 C 645.128906 342.734375 645.34375 342.785156 645.445312 342.945312 C 645.546875 343.109375 645.5 343.324219 645.335938 343.429688 L 645.332031 343.429688 C 636.917969 348.589844 628.582031 353.703125 623.582031 359.820312 C 621.574219 362.277344 620.101562 364.902344 618.84375 367.140625 C 617.175781 370.105469 615.769531 372.707031 613.84375 372.707031 C 613.6875 372.707031 613.535156 372.691406 613.375 372.660156 C 613.144531 372.609375 612.910156 372.523438 612.679688 372.410156 C 609.597656 370.90625 605.71875 363.722656 605.695312 362.675781 C 605.691406 362.621094 605.695312 362.53125 605.738281 362.441406 C 605.808594 362.300781 605.945312 362.21875 606.097656 362.21875 C 606.199219 362.21875 606.285156 362.253906 606.332031 362.277344 L 606.332031 362.28125 C 606.652344 362.449219 607.304688 363.21875 608.023438 364.050781 C 609.777344 366.085938 612.128906 368.757812 613.367188 368.757812 C 613.410156 368.757812 613.445312 368.753906 613.480469 368.75 C 615.203125 368.417969 614.6875 360.792969 612.730469 349.65625 C 610.828125 338.828125 607.773438 325.609375 600.785156 318.585938 C 598.277344 316.070312 595.261719 314.339844 592.542969 312.789062 C 587.804688 310.078125 583.691406 307.78125 586.175781 302.539062 C 588.539062 297.550781 596.980469 289.808594 600.910156 286.195312 C 602.109375 285.097656 602.839844 284.421875 602.945312 284.269531 L 603.230469 284.46875 L 602.945312 284.269531 C 602.96875 284.238281 602.902344 284.308594 602.902344 284.425781 C 602.902344 284.671875 603.121094 284.765625 603.238281 284.765625 C 603.304688 284.765625 603.347656 284.742188 603.332031 284.75 C 603.238281 284.789062 602.839844 285.050781 602.007812 285.644531 C 601.460938 286.035156 600.746094 286.554688 599.878906 287.1875 C 590.214844 294.214844 561.785156 314.894531 541.28125 320.316406 C 537.125 321.417969 533.292969 321.890625 529.789062 321.890625 C 514.417969 321.890625 505.449219 312.761719 503.679688 307.425781 C 502.738281 304.589844 503.816406 302.796875 505.515625 301.621094 C 506.863281 300.6875 508.613281 300.132812 510 299.691406 C 511.007812 299.371094 511.777344 299.121094 512.171875 298.847656 C 512.410156 298.683594 512.445312 298.558594 512.445312 298.492188 C 512.445312 298.132812 511.417969 297.386719 509.707031 297.386719 C 508.722656 297.386719 507.679688 297.65625 506.84375 298.351562 C 505.5 299.472656 504.640625 301.714844 503.792969 303.960938 C 503.023438 305.996094 502.246094 308.109375 501.015625 308.929688 C 500.566406 309.230469 500.070312 309.359375 499.542969 309.359375 C 499.019531 309.359375 498.472656 309.234375 497.910156 309.035156 C 496.882812 308.671875 495.757812 308.046875 494.605469 307.40625 C 493.296875 306.679688 491.933594 305.921875 490.558594 305.4375 C 488.632812 304.757812 486.660156 304.601562 484.914062 304.460938 C 483.15625 304.324219 481.511719 304.207031 480.550781 303.457031 C 480.125 303.125 479.847656 302.6875 479.660156 302.203125 C 479.308594 301.296875 479.261719 300.171875 479.21875 299.179688 C 479.175781 298.234375 479.136719 297.417969 478.914062 296.84375 C 478.648438 296.15625 478.136719 295.859375 477.742188 295.859375 C 477.726562 295.859375 477.699219 295.859375 477.683594 295.859375 C 477.328125 295.886719 476.875 296.210938 476.953125 297.234375 C 476.960938 297.359375 476.980469 297.496094 477.003906 297.640625 C 477.089844 298.132812 477.25 298.707031 477.425781 299.328125 C 477.613281 299.996094 477.816406 300.714844 477.933594 301.390625 C 478.1875 302.871094 478.058594 304.457031 476.136719 304.785156 C 475.878906 304.832031 475.589844 304.851562 475.285156 304.851562 C 471.519531 304.851562 463.476562 301.761719 458.214844 299.0625 C 452.484375 296.128906 449.894531 293.585938 447.945312 290.445312 C 446.074219 287.429688 444.558594 283.484375 447.179688 281.378906 C 448.484375 280.328125 450.753906 279.824219 453.570312 279.824219 C 456.253906 279.824219 459.496094 280.285156 463.007812 281.242188 L 462.996094 281.238281 L 463.007812 281.242188 C 464.628906 281.683594 466.332031 282.238281 468.144531 282.832031 C 474.390625 284.867188 482.332031 287.457031 495.476562 288.253906 C 499.898438 288.523438 504.917969 288.589844 510.214844 288.589844 C 512.648438 288.589844 515.242188 288.574219 517.761719 288.5625 C 520.382812 288.546875 523.011719 288.53125 525.660156 288.53125 C 536.195312 288.53125 546.703125 288.765625 555.023438 290.191406 C 571.902344 293.082031 579.773438 300.878906 585.917969 312.5 C 586.1875 313.007812 586.453125 313.519531 586.714844 314.042969 C 589.996094 320.566406 592.769531 328.070312 595.128906 334.449219 C 596.886719 339.199219 598.40625 343.304688 599.734375 345.945312 C 600.59375 347.65625 601.371094 348.746094 601.960938 349.574219 C 603.757812 352.105469 603.683594 352.449219 599.675781 357.644531 C 594.203125 364.742188 581.101562 381.242188 554.707031 395.277344 C 528.335938 409.296875 488.707031 420.855469 470.160156 424.949219 C 463.992188 426.3125 460.125 426.855469 457.757812 426.855469 C 456.632812 426.855469 455.816406 426.734375 455.238281 426.496094 C 453.632812 425.835938 454.066406 424.410156 454.519531 423.3125 C 454.59375 423.128906 454.667969 422.953125 454.746094 422.773438 C 454.820312 422.605469 454.90625 422.410156 454.972656 422.246094 C 456.15625 419.371094 456.0625 416.898438 455.960938 414.351562 L 456.441406 414.664062 C 454.351562 415.507812 452.269531 416.339844 444.117188 416.855469 C 442.128906 416.984375 439.796875 417.089844 437.351562 417.203125 C 429.679688 417.554688 421.230469 417.953125 419.410156 419.03125 C 419.15625 419.179688 419.148438 419.28125 419.148438 419.300781 C 419.148438 420.332031 425.785156 422.449219 432.914062 422.449219 C 433.269531 422.449219 433.597656 422.445312 433.949219 422.433594 C 442.089844 422.179688 448.976562 418.875 450.003906 414.949219 C 451.015625 411.074219 446.359375 406.121094 440.480469 404.570312 C 439.042969 404.1875 437.542969 404.019531 436.035156 404.019531 C 431.484375 404.019531 426.902344 405.566406 423.839844 407.453125 C 419.796875 409.945312 418.410156 413.023438 416.988281 416.1875 C 416.933594 416.308594 416.816406 416.390625 416.683594 416.394531 C 416.109375 416.417969 415.507812 416.445312 414.921875 416.445312 C 412.855469 416.445312 410.726562 416.136719 408.523438 414.4375 C 405.757812 412.304688 402.714844 407.800781 405.328125 403.34375 C 407.867188 399.019531 415.796875 394.855469 423.550781 390.773438 L 423.558594 390.765625 C 423.722656 390.679688 423.929688 390.742188 424.019531 390.910156 C 424.113281 391.074219 424.058594 391.28125 423.894531 391.378906 C 419.679688 393.867188 415.300781 396.46875 412.832031 396.46875 C 411.992188 396.46875 411.289062 396.171875 410.917969 395.417969 C 409.589844 392.714844 412.964844 384.277344 417.214844 380.625 C 418.765625 379.289062 420.453125 378.570312 422.054688 377.878906 C 424.929688 376.644531 427.597656 375.496094 429.277344 371.113281 C 431.945312 364.164062 432.078125 349.292969 419.597656 341.628906 C 412.628906 337.351562 401.695312 335.289062 393.089844 335.289062 C 386.0625 335.289062 381.035156 336.664062 380.460938 338.90625 C 380.074219 340.425781 381.667969 342.628906 384.777344 345.371094 C 388.105469 348.3125 392.917969 351.667969 397.910156 355.148438 C 403.199219 358.835938 408.683594 362.660156 412.726562 366.226562 C 416.144531 369.246094 418.535156 372.085938 420.320312 374.757812 C 422.542969 378.085938 423.828125 381.144531 425.003906 383.945312 C 426.011719 386.347656 426.9375 388.546875 428.304688 390.59375 C 431.855469 395.910156 438.441406 400.242188 447.613281 405.902344 C 448.527344 406.46875 449.335938 406.964844 450.292969 407.554688 C 451.195312 408.109375 452.308594 408.792969 453.257812 409.378906 C 458.5 412.617188 464.441406 416.355469 469.808594 419.734375 C 476.796875 424.132812 482.90625 427.976562 485.578125 429.523438 C 486.574219 430.101562 487.027344 430.316406 487.148438 430.335938 C 487.152344 430.335938 487.136719 430.335938 487.125 430.335938 C 487.113281 430.335938 487.039062 430.335938 486.964844 430.390625 C 486.722656 430.5625 486.894531 430.824219 486.851562 430.738281 L 487.164062 430.578125 L 486.851562 430.738281 C 486.847656 430.734375 486.839844 430.722656 486.820312 430.691406 C 486.648438 430.453125 486.128906 429.949219 485.410156 429.25 C 484.191406 428.074219 482.496094 426.433594 481.441406 424.976562 C 481.324219 424.816406 481.222656 424.671875 481.125 424.515625 C 478.964844 421.191406 480.226562 418.832031 482.847656 417.128906 C 484.695312 415.929688 487.277344 415.003906 489.394531 415.003906 C 490.359375 415.003906 491.261719 415.195312 491.953125 415.683594 C 494.148438 417.230469 493.800781 421.378906 492.472656 424.945312 C 491.964844 426.320312 491.296875 427.648438 490.710938 428.8125 C 489.652344 430.921875 489.09375 432.167969 489.417969 432.59375 C 489.5 432.699219 489.710938 432.8125 490.144531 432.8125 C 491.570312 432.8125 494.296875 431.582031 496.15625 429.230469 C 498.5625 426.183594 499.476562 421.277344 498.519531 417.382812 C 497.570312 413.511719 494.761719 410.617188 491.417969 408.210938 C 489.199219 406.613281 486.847656 405.308594 484.609375 405.308594 C 483.46875 405.308594 482.34375 405.648438 481.265625 406.480469 C 480.859375 406.792969 480.457031 407.179688 480.058594 407.621094 C 478.46875 409.386719 477.011719 411.96875 475.757812 414.199219 C 474.851562 415.808594 474.03125 417.269531 473.355469 418.019531 C 472.96875 418.449219 472.5625 418.722656 472.136719 418.722656 C 470.695312 418.722656 470.347656 415.660156 470.242188 413.59375 C 470.085938 410.597656 470.410156 407.753906 474.644531 405.820312 C 475.542969 405.40625 476.628906 405.03125 477.679688 404.671875 C 479.859375 403.921875 481.765625 403.242188 482.308594 402.375 C 482.613281 401.886719 482.523438 401.105469 480.394531 399.777344 C 478.714844 398.726562 475.925781 397.457031 472.695312 396.132812 C 467.386719 393.960938 460.957031 391.683594 456.429688 390.078125 C 453.988281 389.214844 452.09375 388.542969 451.246094 388.195312 C 450.988281 388.089844 450.789062 388 450.683594 387.925781 C 450.699219 387.9375 450.496094 387.820312 450.496094 387.597656 C 450.496094 387.179688 451.019531 387.222656 450.890625 387.226562 L 450.894531 387.226562 C 450.910156 387.226562 450.886719 387.226562 450.917969 387.226562 C 450.996094 387.226562 451.097656 387.238281 451.203125 387.257812 C 451.894531 387.359375 453.632812 387.78125 455.792969 388.300781 C 459.527344 389.199219 464.585938 390.417969 467.96875 390.929688 C 469.671875 391.191406 470.941406 391.269531 471.976562 391.269531 C 472.90625 391.269531 473.648438 391.203125 474.335938 391.144531 C 474.921875 391.09375 475.476562 391.042969 476.074219 391.042969 C 477.050781 391.042969 478.121094 391.175781 479.636719 391.621094 C 484.359375 393.011719 493.503906 397.503906 506.289062 405.066406 C 509.035156 406.691406 511.871094 408.40625 514.839844 410.203125 C 525.761719 416.824219 537.4375 423.890625 544.492188 426.191406 C 546.441406 426.824219 548.019531 427.089844 549.292969 427.089844 C 549.585938 427.089844 549.875 427.074219 550.132812 427.046875 C 553.785156 426.667969 554.53125 423.726562 554.273438 421.273438 C 553.929688 417.972656 551.738281 415.945312 549.34375 415.324219 C 548.820312 415.191406 548.292969 415.121094 547.785156 415.121094 C 547.742188 415.121094 547.707031 415.121094 547.667969 415.125 C 545.859375 415.160156 544.523438 416.035156 544.558594 417.671875 C 544.609375 420.046875 547.382812 424.113281 549.519531 425 C 549.835938 425.128906 550.132812 425.1875 550.40625 425.1875 C 551.890625 425.1875 553.105469 423.488281 553.679688 421.582031 C 554.3125 419.484375 554.066406 417.414062 550.734375 414.332031 C 549.265625 412.96875 547.191406 411.414062 544.914062 409.710938 C 542 407.527344 538.761719 405.101562 536.050781 402.515625 C 534.597656 401.128906 533.292969 399.691406 532.136719 398.414062 C 529.769531 395.804688 528.105469 394.019531 526.804688 394.019531 C 526.605469 394.019531 526.410156 394.0625 526.222656 394.160156 C 526.046875 394.25 525.867188 394.382812 525.683594 394.570312 C 524.726562 395.535156 523.867188 397.554688 522.96875 399.683594 C 522.097656 401.742188 521.191406 403.90625 520.128906 404.976562 C 519.539062 405.574219 518.878906 405.855469 518.242188 405.855469 C 517.78125 405.855469 517.351562 405.710938 516.988281 405.457031 C 515.785156 404.613281 515.351562 402.65625 516.640625 400.816406 C 517.179688 400.050781 518.015625 399.296875 518.855469 398.542969 C 521.492188 396.171875 524.214844 393.691406 520.742188 389.605469 C 517.96875 386.347656 511.339844 382.132812 506.4375 379.015625 C 503.472656 377.128906 500.96875 375.558594 500.660156 374.90625 L 500.976562 374.757812 L 500.660156 374.910156 C 500.640625 374.871094 500.625 374.824219 500.613281 374.773438 C 500.542969 374.429688 500.816406 374.257812 501.015625 374.21875 C 501.085938 374.203125 501.160156 374.199219 501.230469 374.199219 C 502.128906 374.199219 504.875 375.042969 508.296875 376.085938 C 514.800781 378.074219 524.015625 380.882812 529.347656 380.882812 C 529.867188 380.882812 530.34375 380.855469 530.773438 380.800781 C 533.488281 380.449219 534.457031 378.9375 534.683594 376.921875 C 534.890625 375.101562 534.480469 372.902344 534.085938 370.78125 C 533.746094 368.96875 533.410156 367.1875 533.558594 365.871094 C 533.792969 363.789062 535.230469 362.847656 536.765625 362.847656 C 538.664062 362.847656 540.773438 364.304688 540.789062 366.6875 C 540.800781 368.046875 540.109375 369.679688 539.417969 371.320312 C 537.984375 374.738281 536.53125 378.296875 539.484375 381.050781 C 544.117188 385.367188 559.398438 387.820312 569.421875 388.988281 C 573.367188 389.449219 576.441406 389.703125 578.839844 389.703125 C 582.511719 389.703125 584.496094 389.101562 585.613281 387.832031 C 587.5 385.691406 587.117188 381.417969 585.019531 379.191406 C 583.75 377.847656 581.832031 377.246094 579.984375 377.246094 C 578.84375 377.246094 577.75 377.476562 576.890625 377.882812 C 574.671875 378.921875 573.929688 381.148438 574.664062 383.070312 C 575.414062 385.027344 577.699219 386.703125 580.097656 386.734375 C 580.097656 386.734375 580.164062 386.734375 580.160156 386.734375 C 582.558594 386.734375 585.046875 385.113281 585.808594 383.289062 C 586.523438 381.574219 585.761719 379.457031 581.476562 377.078125 C 578.644531 375.507812 574.355469 373.878906 570.0625 372.34375 C 568.957031 371.949219 567.828125 371.550781 566.75 371.171875 C 565.722656 370.8125 564.707031 370.453125 563.75 370.109375 C 562.308594 369.59375 560.894531 369.078125 559.574219 368.589844 C 555.53125 367.105469 551.550781 365.644531 544.832031 363.566406 C 541.378906 362.496094 537.292969 361.292969 533.480469 360.171875 C 527.875 358.519531 522.925781 357.066406 522.386719 356.722656 L 522.574219 356.425781 L 522.386719 356.722656 C 522.367188 356.710938 522.273438 356.652344 522.222656 356.546875 L 522.222656 356.542969 C 522.113281 356.320312 522.253906 356.128906 522.390625 356.058594 L 522.394531 356.058594 C 522.464844 356.023438 522.539062 356.019531 522.566406 356.015625 L 522.570312 356.015625 C 522.589844 356.015625 522.597656 356.015625 522.621094 356.015625 C 523.917969 356.015625 538.128906 359.355469 547.363281 362.003906 C 551.492188 363.191406 554.640625 364.238281 557.273438 365.117188 C 560.75 366.273438 563.292969 367.121094 565.949219 367.574219 C 567.535156 367.84375 569.164062 367.976562 570.730469 367.976562 C 573.792969 367.976562 576.59375 367.476562 578.394531 366.570312 C 581.046875 365.234375 581.566406 362.988281 581.0625 360.796875 C 580.558594 358.59375 579.023438 356.492188 576.515625 355.347656 C 575.339844 354.8125 573.957031 354.488281 572.671875 354.488281 C 571.183594 354.488281 569.890625 354.917969 569.148438 355.871094 C 569.109375 355.917969 569.074219 355.972656 569.035156 356.023438 C 567.746094 357.917969 568.222656 361.730469 570.980469 363.605469 C 572.355469 364.546875 574.328125 365.011719 576.261719 365.011719 C 578.308594 365.011719 580.226562 364.488281 581.308594 363.554688 C 581.417969 363.460938 581.519531 363.363281 581.609375 363.261719 C 583.269531 361.433594 582.488281 358.121094 580.144531 356 C 578.910156 354.882812 577.257812 354.125 574.644531 353.210938 C 573.585938 352.839844 572.359375 352.4375 570.957031 351.980469 C 569.058594 351.359375 566.800781 350.625 564.136719 349.691406 C 562.714844 349.191406 561.226562 348.65625 559.621094 348.078125 C 551.308594 345.082031 541.214844 341.453125 535.886719 341.453125 C 535.363281 341.453125 534.886719 341.488281 534.472656 341.5625 C 532.589844 341.894531 531.820312 343.023438 531.558594 344.484375 C 531.285156 346.015625 531.582031 347.875 531.84375 349.507812 C 532.03125 350.65625 532.210938 351.753906 532.089844 352.445312 C 531.964844 353.128906 531.53125 353.507812 530.933594 353.507812 C 530.863281 353.507812 530.789062 353.5 530.71875 353.492188 C 529.160156 353.273438 526.847656 350.679688 527.214844 348.046875 C 527.300781 347.433594 527.527344 346.832031 527.820312 346.257812 C 528.21875 345.46875 528.75 344.699219 529.238281 343.992188 C 529.691406 343.332031 530.101562 342.738281 530.382812 342.1875 C 530.890625 341.175781 530.882812 340.519531 529.886719 340.019531 C 529.613281 339.878906 529.257812 339.753906 528.832031 339.636719 C 526.21875 338.914062 521.386719 338.722656 517.871094 338.585938 C 515.957031 338.511719 514.378906 338.453125 513.863281 338.3125 C 513.816406 338.296875 513.769531 338.28125 513.726562 338.261719 C 513.6875 338.246094 513.453125 338.140625 513.453125 337.878906 C 513.453125 337.644531 513.644531 337.53125 513.679688 337.507812 C 514.308594 337.125 518.308594 336.683594 522.671875 336.683594 C 524.507812 336.683594 526.4375 336.761719 528.265625 336.960938 C 529.464844 337.089844 530.617188 337.273438 531.726562 337.492188 C 534.671875 338.066406 537.328125 338.890625 539.761719 339.644531 C 541.863281 340.296875 543.785156 340.890625 545.621094 341.25 C 547 341.519531 548.316406 341.65625 549.519531 341.65625 C 552.535156 341.65625 554.609375 340.816406 555.15625 339.375 C 555.949219 337.269531 553.722656 333.398438 550.742188 331.96875 C 549.847656 331.539062 548.894531 331.339844 547.984375 331.339844 C 545.925781 331.339844 544.164062 332.328125 543.621094 333.769531 C 543.597656 333.832031 543.578125 333.890625 543.558594 333.957031 C 542.921875 336.101562 544.65625 339.375 547.652344 340.265625 C 548.21875 340.433594 548.835938 340.515625 549.457031 340.515625 C 549.695312 340.515625 549.953125 340.503906 550.195312 340.476562 C 552.726562 340.210938 554.902344 338.648438 554.644531 336.183594 C 554.277344 332.691406 549.101562 327.015625 539.214844 324.636719 C 532.804688 323.09375 524.449219 322.957031 515.226562 322.957031 C 514.441406 322.957031 513.117188 322.960938 512.316406 322.960938 C 511.191406 322.960938 510.445312 322.964844 509.308594 322.964844 C 506.199219 322.964844 503.015625 322.949219 499.816406 322.875 C 493.183594 322.722656 486.441406 322.3125 480.207031 321.9375 C 473.625 321.539062 467.609375 321.171875 462.828125 321.171875 C 461.855469 321.171875 460.921875 321.1875 460.058594 321.222656 L 460.0625 321.222656 L 460.050781 321.222656 C 457.910156 321.304688 456.132812 321.496094 454.5 321.671875 C 452.828125 321.851562 451.3125 322.011719 449.777344 322.011719 C 446.421875 322.011719 443.007812 321.234375 437.523438 318.257812 C 427.101562 312.605469 409.054688 298.941406 391.054688 285.3125 C 390.902344 285.195312 390.871094 284.976562 390.988281 284.824219 C 391.105469 284.667969 391.324219 284.640625 391.476562 284.757812 Z M 391.476562 284.757812 " fill-opacity="1" fill-rule="nonzero"/></g></svg>